[
    {
    "duration": 0.24690094166666654,
    "durationTicks": 239,
    "midi": 60,
    "color": "g",
    "ticks": 6240,
    "time": 6.45868,
    "velocity": 0.7874015748031497
    },
    {
    "duration": 0.24690094166666654,
    "durationTicks": 239,
    "midi": 87,
    "color": "b",
    "ticks": 6720,
    "time": 6.954548,
    "velocity": 0.7874015748031497
    },
    {
    "duration": 0.24690094166666654,
    "durationTicks": 239,
    "midi": 75,
    "color": "p",
    "ticks": 7200,
    "time": 7.450416000000001,
    "velocity": 0.7874015748031497
    },
    {
    "duration": 0.24487691041666615,
    "durationTicks": 239,
    "midi": 62,
    "color": "y",
    "ticks": 7680,
    "time": 7.946284,
    "velocity": 0.7874015748031497
    },
    {
    "duration": 0.24487691041666793,
    "durationTicks": 239,
    "midi": 75,
    "color": "p",
    "ticks": 8160,
    "time": 8.438087,
    "velocity": 0.7874015748031497
    },
    {
    "duration": 0.24487691041666615,
    "durationTicks": 239,
    "midi": 99,
    "color": "b",
    "ticks": 8640,
    "time": 8.92989,
    "velocity": 0.7874015748031497
    },
    {
    "duration": 2.7794722395833347,
    "durationTicks": 2735,
    "midi": 116,
    "color": "g",
    "ticks": 9120,
    "time": 9.421693000000001,
    "velocity": 0.7874015748031497
    },
    {
    "duration": 0.4623984895833342,
    "durationTicks": 455,
    "midi": 87,
    "color": "b",
    "ticks": 9600,
    "time": 9.909498000000001,
    "velocity": 0.7874015748031497
    },
    {
    "duration": 0.4623984895833342,
    "durationTicks": 455,
    "midi": 75,
    "color": "p",
    "ticks": 10080,
    "time": 10.397303,
    "velocity": 0.7874015748031497
    },
    {
    "duration": 0.4623984895833342,
    "durationTicks": 455,
    "midi": 61,
    "color": "r",
    "ticks": 10560,
    "time": 10.885108,
    "velocity": 0.7874015748031497
    },
    {
    "duration": 0.23069111458333325,
    "durationTicks": 227,
    "midi": 74,
    "color": "b",
    "ticks": 11040,
    "time": 11.372913,
    "velocity": 0.7874015748031497
    },
    {
    "duration": 0.23069111458333325,
    "durationTicks": 227,
    "midi": 98,
    "color": "y",
    "ticks": 11280,
    "time": 11.616815500000001,
    "velocity": 0.7874015748031497
    },
    {
    "duration": 0.4623984895833324,
    "durationTicks": 455,
    "midi": 86,
    "color": "r",
    "ticks": 11520,
    "time": 11.860718000000002,
    "velocity": 0.7874015748031497
    },
    {
    "duration": 0.24092743541666728,
    "durationTicks": 239,
    "midi": 60,
    "color": "g",
    "ticks": 12000,
    "time": 12.348523000000002,
    "velocity": 0.7874015748031497
    },
    {
    "duration": 0.2409274354166655,
    "durationTicks": 239,
    "midi": 87,
    "color": "b",
    "ticks": 12480,
    "time": 12.832394000000003,
    "velocity": 0.7874015748031497
    },
    {
    "duration": 0.24092743541666728,
    "durationTicks": 239,
    "midi": 75,
    "color": "p",
    "ticks": 12960,
    "time": 13.316265000000001,
    "velocity": 0.7874015748031497
    },
    {
    "duration": 0.2352362479166672,
    "durationTicks": 239,
    "midi": 62,
    "color": "y",
    "ticks": 13440,
    "time": 13.800136000000002,
    "velocity": 0.7874015748031497
    },
    {
    "duration": 0.2352362479166672,
    "durationTicks": 239,
    "midi": 75,
    "color": "p",
    "ticks": 13920,
    "time": 14.272577000000002,
    "velocity": 0.7874015748031497
    },
    {
    "duration": 0.2352362479166672,
    "durationTicks": 239,
    "midi": 99,
    "color": "b",
    "ticks": 14400,
    "time": 14.745018000000002,
    "velocity": 0.7874015748031497
    },
    {
    "duration": 0.2333984375,
    "durationTicks": 239,
    "midi": 60,
    "color": "g",
    "ticks": 14880,
    "time": 15.217459000000002,
    "velocity": 0.7874015748031497
    },
    {
    "duration": 0.2333984375,
    "durationTicks": 239,
    "midi": 87,
    "color": "b",
    "ticks": 15360,
    "time": 15.686209000000002,
    "velocity": 0.7874015748031497
    },
    {
    "duration": 0.2333984375,
    "durationTicks": 239,
    "midi": 75,
    "color": "p",
    "ticks": 15840,
    "time": 16.154959,
    "velocity": 0.7874015748031497
    },
    {
    "duration": 0.22805330208333174,
    "durationTicks": 239,
    "midi": 61,
    "color": "r",
    "ticks": 16320,
    "time": 16.623709,
    "velocity": 0.7874015748031497
    },
    {
    "duration": 0.1135495520833345,
    "durationTicks": 119,
    "midi": 74,
    "color": "b",
    "ticks": 16800,
    "time": 17.081724,
    "velocity": 0.7874015748031497
    },
    {
    "duration": 0.11354955208333095,
    "durationTicks": 119,
    "midi": 98,
    "color": "y",
    "ticks": 17040,
    "time": 17.310731500000003,
    "velocity": 0.7874015748031497
    },
    {
    "duration": 0.2280533020833353,
    "durationTicks": 239,
    "midi": 86,
    "color": "r",
    "ticks": 17280,
    "time": 17.539739,
    "velocity": 0.7874015748031497
    },
    {
    "duration": 0.2333984375,
    "durationTicks": 239,
    "midi": 60,
    "color": "g",
    "ticks": 17760,
    "time": 17.997754,
    "velocity": 0.7874015748031497
    },
    {
    "duration": 0.2333984375,
    "durationTicks": 239,
    "midi": 87,
    "color": "b",
    "ticks": 18240,
    "time": 18.466504,
    "velocity": 0.7874015748031497
    },
    {
    "duration": 0.2333984375,
    "durationTicks": 239,
    "midi": 75,
    "color": "p",
    "ticks": 18720,
    "time": 18.935254,
    "velocity": 0.7874015748031497
    },
    {
    "duration": 0.2333984375,
    "durationTicks": 239,
    "midi": 62,
    "color": "y",
    "ticks": 19200,
    "time": 19.404004,
    "velocity": 0.7874015748031497
    },
    {
    "duration": 0.2333984375,
    "durationTicks": 239,
    "midi": 75,
    "color": "p",
    "ticks": 19680,
    "time": 19.872754,
    "velocity": 0.7874015748031497
    },
    {
    "duration": 0.2333984375,
    "durationTicks": 239,
    "midi": 99,
    "color": "b",
    "ticks": 20160,
    "time": 20.341504,
    "velocity": 0.7874015748031497
    },
    {
    "duration": 0.23158900833333362,
    "durationTicks": 239,
    "midi": 60,
    "color": "g",
    "ticks": 20640,
    "time": 20.810254,
    "velocity": 0.7874015748031497
    },
    {
    "duration": 0.23158900833333362,
    "durationTicks": 239,
    "midi": 87,
    "color": "b",
    "ticks": 21120,
    "time": 21.27537,
    "velocity": 0.7874015748031497
    },
    {
    "duration": 0.23158900833333362,
    "durationTicks": 239,
    "midi": 75,
    "color": "p",
    "ticks": 21600,
    "time": 21.740486,
    "velocity": 0.7874015748031497
    },
    {
    "duration": 0.22632553125000143,
    "durationTicks": 239,
    "midi": 61,
    "color": "r",
    "ticks": 22080,
    "time": 22.205602,
    "velocity": 0.7874015748031497
    },
    {
    "duration": 0.22632553125000143,
    "durationTicks": 239,
    "midi": 74,
    "color": "b",
    "ticks": 22080,
    "time": 22.205602,
    "velocity": 0.7874015748031497
    },
    {
    "duration": 0.22632553125000143,
    "durationTicks": 239,
    "midi": 73,
    "color": "y",
    "ticks": 22560,
    "time": 22.660147,
    "velocity": 0.7874015748031497
    },
    {
    "duration": 0.22632553125000143,
    "durationTicks": 239,
    "midi": 74,
    "color": "b",
    "ticks": 23040,
    "time": 23.114691999999998,
    "velocity": 0.7874015748031497
    },
    {
    "duration": 1.2945062812500012,
    "durationTicks": 1367,
    "midi": 73,
    "color": "r",
    "ticks": 23520,
    "time": 23.569236999999998,
    "velocity": 0.7874015748031497
    },
    {
    "duration": 1.2945062812500012,
    "durationTicks": 1367,
    "midi": 85,
    "color": "y",
    "ticks": 23520,
    "time": 23.569236999999998,
    "velocity": 0.7874015748031497
    },
    {
    "duration": 0.2352362479166672,
    "durationTicks": 239,
    "midi": 60,
    "color": "g",
    "ticks": 24960,
    "time": 24.932872,
    "velocity": 0.7874015748031497
    },
    {
    "duration": 0.2352362479166672,
    "durationTicks": 239,
    "midi": 87,
    "color": "b",
    "ticks": 25440,
    "time": 25.405313,
    "velocity": 0.7874015748031497
    },
    {
    "duration": 0.2352362479166672,
    "durationTicks": 239,
    "midi": 75,
    "color": "p",
    "ticks": 25920,
    "time": 25.877754,
    "velocity": 0.7874015748031497
    },
    {
    "duration": 0.2229476645833337,
    "durationTicks": 239,
    "midi": 62,
    "color": "y",
    "ticks": 26400,
    "time": 26.350195,
    "velocity": 0.7874015748031497
    },
    {
    "duration": 0.2229476645833337,
    "durationTicks": 239,
    "midi": 75,
    "color": "p",
    "ticks": 26880,
    "time": 26.797956,
    "velocity": 0.7874015748031497
    },
    {
    "duration": 0.2229476645833337,
    "durationTicks": 239,
    "midi": 99,
    "color": "b",
    "ticks": 27360,
    "time": 27.245717,
    "velocity": 0.7874015748031497
    },
    {
    "duration": 0.2298074624999984,
    "durationTicks": 239,
    "midi": 60,
    "color": "g",
    "ticks": 27840,
    "time": 27.693478,
    "velocity": 0.7874015748031497
    },
    {
    "duration": 0.2298074624999984,
    "durationTicks": 239,
    "midi": 87,
    "color": "b",
    "ticks": 28320,
    "time": 28.155016,
    "velocity": 0.7874015748031497
    },
    {
    "duration": 0.22980746250000195,
    "durationTicks": 239,
    "midi": 75,
    "color": "p",
    "ticks": 28800,
    "time": 28.616553999999997,
    "velocity": 0.7874015748031497
    },
    {
    "duration": 0.2352362479166672,
    "durationTicks": 239,
    "midi": 61,
    "color": "r",
    "ticks": 29280,
    "time": 29.078091999999998,
    "velocity": 0.7874015748031497
    },
    {
    "duration": 0.11712599791666634,
    "durationTicks": 119,
    "midi": 74,
    "color": "b",
    "ticks": 29760,
    "time": 29.550532999999998,
    "velocity": 0.7874015748031497
    },
    {
    "duration": 0.11712599791666634,
    "durationTicks": 119,
    "midi": 98,
    "color": "y",
    "ticks": 30000,
    "time": 29.7867535,
    "velocity": 0.7874015748031497
    },
    {
    "duration": 0.2352362479166672,
    "durationTicks": 239,
    "midi": 86,
    "color": "r",
    "ticks": 30240,
    "time": 30.022973999999998,
    "velocity": 0.7874015748031497
    },
    {
    "duration": 0.22632553125000143,
    "durationTicks": 239,
    "midi": 60,
    "color": "g",
    "ticks": 30720,
    "time": 30.495414999999998,
    "velocity": 0.7874015748031497
    },
    {
    "duration": 0.22632553125000143,
    "durationTicks": 239,
    "midi": 87,
    "color": "b",
    "ticks": 31200,
    "time": 30.949959999999997,
    "velocity": 0.7874015748031497
    },
    {
    "duration": 0.22632553125000143,
    "durationTicks": 239,
    "midi": 75,
    "color": "p",
    "ticks": 31680,
    "time": 31.404504999999997,
    "velocity": 0.7874015748031497
    },
    {
    "duration": 0.23158900833333007,
    "durationTicks": 239,
    "midi": 98,
    "color": "y",
    "ticks": 32160,
    "time": 31.859049999999996,
    "velocity": 0.7874015748031497
    },
    {
    "duration": 0.23158900833333007,
    "durationTicks": 239,
    "midi": 75,
    "color": "p",
    "ticks": 32640,
    "time": 32.324166,
    "velocity": 0.7874015748031497
    },
    {
    "duration": 0.23158900833333718,
    "durationTicks": 239,
    "midi": 99,
    "color": "b",
    "ticks": 33120,
    "time": 32.78928199999999,
    "velocity": 0.7874015748031497
    },
    {
    "duration": 0.219668883333334,
    "durationTicks": 239,
    "midi": 61,
    "color": "r",
    "ticks": 33600,
    "time": 33.254397999999995,
    "velocity": 0.7874015748031497
    },
    {
    "duration": 0.219668883333334,
    "durationTicks": 239,
    "midi": 72,
    "color": "y",
    "ticks": 33600,
    "time": 33.254397999999995,
    "velocity": 0.7874015748031497
    },
    {
    "duration": 0.219668883333334,
    "durationTicks": 239,
    "midi": 74,
    "color": "b",
    "ticks": 34080,
    "time": 33.69557399999999,
    "velocity": 0.7874015748031497
    },
    {
    "duration": 0.219668883333334,
    "durationTicks": 239,
    "midi": 61,
    "color": "r",
    "ticks": 34560,
    "time": 34.13674999999999,
    "velocity": 0.7874015748031497
    },
    {
    "duration": 0.21492821875000345,
    "durationTicks": 239,
    "midi": 87,
    "color": "y",
    "ticks": 35040,
    "time": 34.577926,
    "velocity": 0.7874015748031497
    },
    {
    "duration": 0.21492821875000345,
    "durationTicks": 239,
    "midi": 98,
    "color": "b",
    "ticks": 35040,
    "time": 34.577926,
    "velocity": 0.7874015748031497
    },
    {
    "duration": 0.21492821875000345,
    "durationTicks": 239,
    "midi": 61,
    "color": "r",
    "ticks": 35520,
    "time": 35.009581,
    "velocity": 0.7874015748031497
    },
    {
    "duration": 0.21492821875000345,
    "durationTicks": 239,
    "midi": 74,
    "color": "b",
    "ticks": 36000,
    "time": 35.441235999999996,
    "velocity": 0.7874015748031497
    },
    {
    "duration": 2.540633750000005,
    "durationTicks": 2735,
    "midi": 116,
    "color": "g",
    "ticks": 36480,
    "time": 35.872890999999996,
    "velocity": 0.7874015748031497
    },
    {
    "duration": 0.219668883333334,
    "durationTicks": 239,
    "midi": 88,
    "color": "p",
    "ticks": 36960,
    "time": 36.314066999999994,
    "velocity": 0.7874015748031497
    },
    {
    "duration": 0.219668883333334,
    "durationTicks": 239,
    "midi": 73,
    "color": "y",
    "ticks": 37440,
    "time": 36.75524299999999,
    "velocity": 0.7874015748031497
    },
    {
    "duration": 0.8562033500000013,
    "durationTicks": 911,
    "midi": 61,
    "color": "y",
    "ticks": 37920,
    "time": 37.196419,
    "velocity": 0.7874015748031497
    },
    {
    "duration": 0.05422788333333273,
    "durationTicks": 59,
    "midi": 62,
    "color": "r",
    "ticks": 39360,
    "time": 38.549803,
    "velocity": 0.7874015748031497
    },
    {
    "duration": 0.16452188333332884,
    "durationTicks": 179,
    "midi": 98,
    "color": "y",
    "ticks": 39480,
    "time": 38.660097,
    "velocity": 0.7874015748031497
    },
    {
    "duration": 0.219668883333334,
    "durationTicks": 239,
    "midi": 85,
    "color": "C6",
    "ticks": 39840,
    "time": 38.990978999999996,
    "velocity": 0.7874015748031497
    },
    {
    "duration": 0.219668883333334,
    "durationTicks": 239,
    "midi": 98,
    "color": "y",
    "ticks": 39840,
    "time": 38.990978999999996,
    "velocity": 0.7874015748031497
    },
    {
    "duration": 0.219668883333334,
    "durationTicks": 239,
    "midi": 73,
    "color": "y",
    "ticks": 40320,
    "time": 39.432154999999995,
    "velocity": 0.7874015748031497
    },
    {
    "duration": 0.219668883333334,
    "durationTicks": 239,
    "midi": 85,
    "color": "C6",
    "ticks": 40320,
    "time": 39.432154999999995,
    "velocity": 0.7874015748031497
    },
    {
    "duration": 0.219668883333334,
    "durationTicks": 239,
    "midi": 98,
    "color": "D7",
    "ticks": 40320,
    "time": 39.432154999999995,
    "velocity": 0.7874015748031497
    },
    {
    "duration": 0.21806559166666517,
    "durationTicks": 239,
    "midi": 62,
    "color": "y",
    "ticks": 40800,
    "time": 39.873331,
    "velocity": 0.7874015748031497
    },
    {
    "duration": 0.21806559166666517,
    "durationTicks": 239,
    "midi": 73,
    "color": "C5",
    "ticks": 40800,
    "time": 39.873331,
    "velocity": 0.7874015748031497
    },
    {
    "duration": 0.21806559166666517,
    "durationTicks": 239,
    "midi": 85,
    "color": "C6",
    "ticks": 40800,
    "time": 39.873331,
    "velocity": 0.7874015748031497
    },
    {
    "duration": 0.21806559166666517,
    "durationTicks": 239,
    "midi": 98,
    "color": "D7",
    "ticks": 40800,
    "time": 39.873331,
    "velocity": 0.7874015748031497
    },
    {
    "duration": 0.21806559166666517,
    "durationTicks": 239,
    "midi": 85,
    "color": "y",
    "ticks": 41280,
    "time": 40.311287,
    "velocity": 0.7874015748031497
    },
    {
    "duration": 0.21806559166666517,
    "durationTicks": 239,
    "midi": 98,
    "color": "D7",
    "ticks": 41280,
    "time": 40.311287,
    "velocity": 0.7874015748031497
    },
    {
    "duration": 0.21806559166666517,
    "durationTicks": 239,
    "midi": 73,
    "color": "y",
    "ticks": 41760,
    "time": 40.749243,
    "velocity": 0.7874015748031497
    },
    {
    "duration": 0.21806559166666517,
    "durationTicks": 239,
    "midi": 85,
    "color": "C6",
    "ticks": 41760,
    "time": 40.749243,
    "velocity": 0.7874015748031497
    },
    {
    "duration": 0.21806559166666517,
    "durationTicks": 239,
    "midi": 98,
    "color": "D7",
    "ticks": 41760,
    "time": 40.749243,
    "velocity": 0.7874015748031497
    },
    {
    "duration": 0.219668883333334,
    "durationTicks": 239,
    "midi": 61,
    "color": "r",
    "ticks": 42240,
    "time": 41.187199,
    "velocity": 0.7874015748031497
    },
    {
    "duration": 0.219668883333334,
    "durationTicks": 239,
    "midi": 73,
    "color": "y",
    "ticks": 42720,
    "time": 41.628375,
    "velocity": 0.7874015748031497
    },
    {
    "duration": 0.219668883333334,
    "durationTicks": 239,
    "midi": 77,
    "color": "F5",
    "ticks": 42720,
    "time": 41.628375,
    "velocity": 0.7874015748031497
    },
    {
    "duration": 0.219668883333334,
    "durationTicks": 239,
    "midi": 85,
    "color": "C6",
    "ticks": 42720,
    "time": 41.628375,
    "velocity": 0.7874015748031497
    },
    {
    "duration": 0.219668883333334,
    "durationTicks": 239,
    "midi": 89,
    "color": "F6",
    "ticks": 42720,
    "time": 41.628375,
    "velocity": 0.7874015748031497
    },
    {
    "duration": 0.219668883333334,
    "durationTicks": 239,
    "midi": 98,
    "color": "D7",
    "ticks": 42720,
    "time": 41.628375,
    "velocity": 0.7874015748031497
    },
    {
    "duration": 0.219668883333334,
    "durationTicks": 239,
    "midi": 101,
    "color": "F7",
    "ticks": 42720,
    "time": 41.628375,
    "velocity": 0.7874015748031497
    },
    {
    "duration": 0.219668883333334,
    "durationTicks": 239,
    "midi": 73,
    "color": "y",
    "ticks": 43200,
    "time": 42.069551,
    "velocity": 0.7874015748031497
    },
    {
    "duration": 0.219668883333334,
    "durationTicks": 239,
    "midi": 85,
    "color": "C6",
    "ticks": 43200,
    "time": 42.069551,
    "velocity": 0.7874015748031497
    },
    {
    "duration": 0.219668883333334,
    "durationTicks": 239,
    "midi": 98,
    "color": "D7",
    "ticks": 43200,
    "time": 42.069551,
    "velocity": 0.7874015748031497
    },
    {
    "duration": 0.41213805208333554,
    "durationTicks": 455,
    "midi": 62,
    "color": "D4",
    "ticks": 43680,
    "time": 42.510727,
    "velocity": 0.7874015748031497
    },
    {
    "duration": 0.41213805208333554,
    "durationTicks": 455,
    "midi": 73,
    "color": "y",
    "ticks": 43680,
    "time": 42.510727,
    "velocity": 0.7874015748031497
    },
    {
    "duration": 0.41213805208333554,
    "durationTicks": 455,
    "midi": 85,
    "color": "C6",
    "ticks": 43680,
    "time": 42.510727,
    "velocity": 0.7874015748031497
    },
    {
    "duration": 0.41213805208333554,
    "durationTicks": 455,
    "midi": 98,
    "color": "D7",
    "ticks": 43680,
    "time": 42.510727,
    "velocity": 0.7874015748031497
    },
    {
    "duration": 0.0515733749999967,
    "durationTicks": 59,
    "midi": 62,
    "color": "r",
    "ticks": 45120,
    "time": 43.815076000000005,
    "velocity": 0.7874015748031497
    },
    {
    "duration": 0.0515733749999967,
    "durationTicks": 59,
    "midi": 73,
    "color": "C5",
    "ticks": 45120,
    "time": 43.815076000000005,
    "velocity": 0.7874015748031497
    },
    {
    "duration": 0.0515733749999967,
    "durationTicks": 59,
    "midi": 85,
    "color": "C6",
    "ticks": 45120,
    "time": 43.815076000000005,
    "velocity": 0.7874015748031497
    },
    {
    "duration": 0.0515733749999967,
    "durationTicks": 59,
    "midi": 97,
    "color": "C7",
    "ticks": 45120,
    "time": 43.815076000000005,
    "velocity": 0.7874015748031497
    },
    {
    "duration": 0.15646837500000288,
    "durationTicks": 179,
    "midi": 98,
    "color": "y",
    "ticks": 45240,
    "time": 43.919971000000004,
    "velocity": 0.7874015748031497
    },
    {
    "duration": 0.2089158749999953,
    "durationTicks": 239,
    "midi": 85,
    "color": "y",
    "ticks": 45600,
    "time": 44.23465600000001,
    "velocity": 0.7874015748031497
    },
    {
    "duration": 0.2089158749999953,
    "durationTicks": 239,
    "midi": 98,
    "color": "D7",
    "ticks": 45600,
    "time": 44.23465600000001,
    "velocity": 0.7874015748031497
    },
    {
    "duration": 0.20891587500000242,
    "durationTicks": 239,
    "midi": 73,
    "color": "y",
    "ticks": 46080,
    "time": 44.654236000000004,
    "velocity": 0.7874015748031497
    },
    {
    "duration": 0.20891587500000242,
    "durationTicks": 239,
    "midi": 85,
    "color": "C6",
    "ticks": 46080,
    "time": 44.654236000000004,
    "velocity": 0.7874015748031497
    },
    {
    "duration": 0.20891587500000242,
    "durationTicks": 239,
    "midi": 98,
    "color": "D7",
    "ticks": 46080,
    "time": 44.654236000000004,
    "velocity": 0.7874015748031497
    },
    {
    "duration": 0.05305759374999752,
    "durationTicks": 59,
    "midi": 62,
    "color": "r",
    "ticks": 46560,
    "time": 45.07381600000001,
    "velocity": 0.7874015748031497
    },
    {
    "duration": 0.05305759374999752,
    "durationTicks": 59,
    "midi": 73,
    "color": "C5",
    "ticks": 46560,
    "time": 45.07381600000001,
    "velocity": 0.7874015748031497
    },
    {
    "duration": 0.05305759374999752,
    "durationTicks": 59,
    "midi": 85,
    "color": "C6",
    "ticks": 46560,
    "time": 45.07381600000001,
    "velocity": 0.7874015748031497
    },
    {
    "duration": 0.05305759374999752,
    "durationTicks": 59,
    "midi": 97,
    "color": "C7",
    "ticks": 46560,
    "time": 45.07381600000001,
    "velocity": 0.7874015748031497
    },
    {
    "duration": 0.1609713437499991,
    "durationTicks": 179,
    "midi": 98,
    "color": "y",
    "ticks": 46680,
    "time": 45.18172975000001,
    "velocity": 0.7874015748031497
    },
    {
    "duration": 0.21492821875000345,
    "durationTicks": 239,
    "midi": 85,
    "color": "C6",
    "ticks": 47040,
    "time": 45.50547100000001,
    "velocity": 0.7874015748031497
    },
    {
    "duration": 0.21492821875000345,
    "durationTicks": 239,
    "midi": 98,
    "color": "y",
    "ticks": 47040,
    "time": 45.50547100000001,
    "velocity": 0.7874015748031497
    },
    {
    "duration": 0.21492821875000345,
    "durationTicks": 239,
    "midi": 73,
    "color": "C5",
    "ticks": 47520,
    "time": 45.937126000000006,
    "velocity": 0.7874015748031497
    },
    {
    "duration": 0.21492821875000345,
    "durationTicks": 239,
    "midi": 85,
    "color": "y",
    "ticks": 47520,
    "time": 45.937126000000006,
    "velocity": 0.7874015748031497
    },
    {
    "duration": 0.21492821875000345,
    "durationTicks": 239,
    "midi": 98,
    "color": "D7",
    "ticks": 47520,
    "time": 45.937126000000006,
    "velocity": 0.7874015748031497
    },
    {
    "duration": 0.4033688749999982,
    "durationTicks": 455,
    "midi": 62,
    "color": "D4",
    "ticks": 48000,
    "time": 46.368781000000006,
    "velocity": 0.7874015748031497
    },
    {
    "duration": 0.4033688749999982,
    "durationTicks": 455,
    "midi": 98,
    "color": "D7",
    "ticks": 48000,
    "time": 46.368781000000006,
    "velocity": 0.7874015748031497
    },
    {
    "duration": 0.807624275000002,
    "durationTicks": 911,
    "midi": 73,
    "color": "C5",
    "ticks": 48000,
    "time": 46.368781000000006,
    "velocity": 0.7874015748031497
    },
    {
    "duration": 0.807624275000002,
    "durationTicks": 911,
    "midi": 85,
    "color": "y",
    "ticks": 48000,
    "time": 46.368781000000006,
    "velocity": 0.7874015748031497
    },
    {
    "duration": 0.4033688750000053,
    "durationTicks": 455,
    "midi": 97,
    "color": "r",
    "ticks": 48480,
    "time": 46.794313,
    "velocity": 0.7874015748031497
    },
    {
    "duration": 0.4033688750000053,
    "durationTicks": 455,
    "midi": 101,
    "color": "F7",
    "ticks": 48480,
    "time": 46.794313,
    "velocity": 0.7874015748031497
    },
    {
    "duration": 0.7895519062499972,
    "durationTicks": 911,
    "midi": 61,
    "color": "g",
    "ticks": 48960,
    "time": 47.21984500000001,
    "velocity": 0.7874015748031497
    },
    {
    "duration": 0.7895519062499972,
    "durationTicks": 911,
    "midi": 72,
    "color": "C5",
    "ticks": 48960,
    "time": 47.21984500000001,
    "velocity": 0.7874015748031497
    },
    {
    "duration": 0.7895519062499972,
    "durationTicks": 911,
    "midi": 84,
    "color": "C6",
    "ticks": 48960,
    "time": 47.21984500000001,
    "velocity": 0.7874015748031497
    },
    {
    "duration": 0.7895519062499972,
    "durationTicks": 911,
    "midi": 96,
    "color": "C7",
    "ticks": 48960,
    "time": 47.21984500000001,
    "velocity": 0.7874015748031497
    },
    {
    "duration": 0.05344207708333215,
    "durationTicks": 59,
    "midi": 62,
    "color": "r",
    "ticks": 50880,
    "time": 48.861592,
    "velocity": 0.7874015748031497
    },
    {
    "duration": 0.05344207708333215,
    "durationTicks": 59,
    "midi": 73,
    "color": "C5",
    "ticks": 50880,
    "time": 48.861592,
    "velocity": 0.7874015748031497
    },
    {
    "duration": 0.05344207708333215,
    "durationTicks": 59,
    "midi": 85,
    "color": "C6",
    "ticks": 50880,
    "time": 48.861592,
    "velocity": 0.7874015748031497
    },
    {
    "duration": 0.05344207708333215,
    "durationTicks": 59,
    "midi": 97,
    "color": "C7",
    "ticks": 50880,
    "time": 48.861592,
    "velocity": 0.7874015748031497
    },
    {
    "duration": 0.16213782708332758,
    "durationTicks": 179,
    "midi": 98,
    "color": "y",
    "ticks": 51000,
    "time": 48.970287750000004,
    "velocity": 0.7874015748031497
    },
    {
    "duration": 0.2164857020833324,
    "durationTicks": 239,
    "midi": 85,
    "color": "y",
    "ticks": 51360,
    "time": 49.296375000000005,
    "velocity": 0.7874015748031497
    },
    {
    "duration": 0.2164857020833324,
    "durationTicks": 239,
    "midi": 98,
    "color": "D7",
    "ticks": 51360,
    "time": 49.296375000000005,
    "velocity": 0.7874015748031497
    },
    {
    "duration": 0.2164857020833324,
    "durationTicks": 239,
    "midi": 73,
    "color": "y",
    "ticks": 51840,
    "time": 49.731158,
    "velocity": 0.7874015748031497
    },
    {
    "duration": 0.2164857020833324,
    "durationTicks": 239,
    "midi": 85,
    "color": "C6",
    "ticks": 51840,
    "time": 49.731158,
    "velocity": 0.7874015748031497
    },
    {
    "duration": 0.2164857020833324,
    "durationTicks": 239,
    "midi": 98,
    "color": "D7",
    "ticks": 51840,
    "time": 49.731158,
    "velocity": 0.7874015748031497
    },
    {
    "duration": 0.20603443125000354,
    "durationTicks": 239,
    "midi": 62,
    "color": "y",
    "ticks": 52320,
    "time": 50.165941000000004,
    "velocity": 0.7874015748031497
    },
    {
    "duration": 0.20603443125000354,
    "durationTicks": 239,
    "midi": 73,
    "color": "C5",
    "ticks": 52320,
    "time": 50.165941000000004,
    "velocity": 0.7874015748031497
    },
    {
    "duration": 0.20603443125000354,
    "durationTicks": 239,
    "midi": 85,
    "color": "C6",
    "ticks": 52320,
    "time": 50.165941000000004,
    "velocity": 0.7874015748031497
    },
    {
    "duration": 0.20603443125000354,
    "durationTicks": 239,
    "midi": 98,
    "color": "D7",
    "ticks": 52320,
    "time": 50.165941000000004,
    "velocity": 0.7874015748031497
    },
    {
    "duration": 0.20603443125000354,
    "durationTicks": 239,
    "midi": 85,
    "color": "y",
    "ticks": 52800,
    "time": 50.579734,
    "velocity": 0.7874015748031497
    },
    {
    "duration": 0.20603443125000354,
    "durationTicks": 239,
    "midi": 98,
    "color": "D7",
    "ticks": 52800,
    "time": 50.579734,
    "velocity": 0.7874015748031497
    },
    {
    "duration": 0.20603443125000354,
    "durationTicks": 239,
    "midi": 73,
    "color": "y",
    "ticks": 53280,
    "time": 50.993527,
    "velocity": 0.7874015748031497
    },
    {
    "duration": 0.20603443125000354,
    "durationTicks": 239,
    "midi": 85,
    "color": "C6",
    "ticks": 53280,
    "time": 50.993527,
    "velocity": 0.7874015748031497
    },
    {
    "duration": 0.20603443125000354,
    "durationTicks": 239,
    "midi": 98,
    "color": "D7",
    "ticks": 53280,
    "time": 50.993527,
    "velocity": 0.7874015748031497
    },
    {
    "duration": 2.909296160416666,
    "durationTicks": 3191,
    "midi": 116,
    "color": "r",
    "ticks": 53760,
    "time": 51.407320000000006,
    "velocity": 0.7874015748031497
    },
    {
    "duration": 0.19526150624999872,
    "durationTicks": 239,
    "midi": 62,
    "color": "D4",
    "ticks": 53760,
    "time": 51.407320000000006,
    "velocity": 0.7874015748031497
    },
    {
    "duration": 0.19526150624999872,
    "durationTicks": 239,
    "midi": 73,
    "color": "C5",
    "ticks": 53760,
    "time": 51.407320000000006,
    "velocity": 0.7874015748031497
    },
    {
    "duration": 0.19526150624999872,
    "durationTicks": 239,
    "midi": 85,
    "color": "C6",
    "ticks": 53760,
    "time": 51.407320000000006,
    "velocity": 0.7874015748031497
    },
    {
    "duration": 0.19526150624999872,
    "durationTicks": 239,
    "midi": 97,
    "color": "C7",
    "ticks": 53760,
    "time": 51.407320000000006,
    "velocity": 0.7874015748031497
    },
    {
    "duration": 0.27859486874999817,
    "durationTicks": 341,
    "midi": 98,
    "color": "y",
    "ticks": 53880,
    "time": 51.505359250000005,
    "velocity": 0.7874015748031497
    },
    {
    "duration": 0.37173215625000466,
    "durationTicks": 455,
    "midi": 85,
    "color": "y",
    "ticks": 54240,
    "time": 51.799477,
    "velocity": 0.7874015748031497
    },
    {
    "duration": 0.37173215625000466,
    "durationTicks": 455,
    "midi": 98,
    "color": "D7",
    "ticks": 54240,
    "time": 51.799477,
    "velocity": 0.7874015748031497
    },
    {
    "duration": 0.37173215624999756,
    "durationTicks": 455,
    "midi": 73,
    "color": "C5",
    "ticks": 54720,
    "time": 52.19163400000001,
    "velocity": 0.7874015748031497
    },
    {
    "duration": 0.37173215624999756,
    "durationTicks": 455,
    "midi": 85,
    "color": "y",
    "ticks": 54720,
    "time": 52.19163400000001,
    "velocity": 0.7874015748031497
    },
    {
    "duration": 0.37173215624999756,
    "durationTicks": 455,
    "midi": 98,
    "color": "D7",
    "ticks": 54720,
    "time": 52.19163400000001,
    "velocity": 0.7874015748031497
    },
    {
    "duration": 0.3977268749999965,
    "durationTicks": 455,
    "midi": 62,
    "color": "y",
    "ticks": 55200,
    "time": 52.583791000000005,
    "velocity": 0.7874015748031497
    },
    {
    "duration": 0.3977268749999965,
    "durationTicks": 455,
    "midi": 73,
    "color": "C5",
    "ticks": 55200,
    "time": 52.583791000000005,
    "velocity": 0.7874015748031497
    },
    {
    "duration": 0.3977268749999965,
    "durationTicks": 455,
    "midi": 85,
    "color": "C6",
    "ticks": 55200,
    "time": 52.583791000000005,
    "velocity": 0.7874015748031497
    },
    {
    "duration": 0.3977268749999965,
    "durationTicks": 455,
    "midi": 98,
    "color": "D7",
    "ticks": 55200,
    "time": 52.583791000000005,
    "velocity": 0.7874015748031497
    },
    {
    "duration": 0.3977268749999965,
    "durationTicks": 455,
    "midi": 75,
    "color": "r",
    "ticks": 55680,
    "time": 53.00337100000001,
    "velocity": 0.7874015748031497
    },
    {
    "duration": 0.3977268749999965,
    "durationTicks": 455,
    "midi": 77,
    "color": "F5",
    "ticks": 55680,
    "time": 53.00337100000001,
    "velocity": 0.7874015748031497
    },
    {
    "duration": 0.3977268749999965,
    "durationTicks": 455,
    "midi": 84,
    "color": "C6",
    "ticks": 55680,
    "time": 53.00337100000001,
    "velocity": 0.7874015748031497
    },
    {
    "duration": 0.3977268749999965,
    "durationTicks": 455,
    "midi": 89,
    "color": "F6",
    "ticks": 55680,
    "time": 53.00337100000001,
    "velocity": 0.7874015748031497
    },
    {
    "duration": 0.3977268749999965,
    "durationTicks": 455,
    "midi": 97,
    "color": "C7",
    "ticks": 55680,
    "time": 53.00337100000001,
    "velocity": 0.7874015748031497
    },
    {
    "duration": 0.3977268749999965,
    "durationTicks": 455,
    "midi": 101,
    "color": "F7",
    "ticks": 55680,
    "time": 53.00337100000001,
    "velocity": 0.7874015748031497
    },
    {
    "duration": 0.3977268750000036,
    "durationTicks": 455,
    "midi": 74,
    "color": "g",
    "ticks": 56160,
    "time": 53.422951000000005,
    "velocity": 0.7874015748031497
    },
    {
    "duration": 0.3977268750000036,
    "durationTicks": 455,
    "midi": 77,
    "color": "F5",
    "ticks": 56160,
    "time": 53.422951000000005,
    "velocity": 0.7874015748031497
    },
    {
    "duration": 0.3977268750000036,
    "durationTicks": 455,
    "midi": 86,
    "color": "D6",
    "ticks": 56160,
    "time": 53.422951000000005,
    "velocity": 0.7874015748031497
    },
    {
    "duration": 0.3977268750000036,
    "durationTicks": 455,
    "midi": 89,
    "color": "F6",
    "ticks": 56160,
    "time": 53.422951000000005,
    "velocity": 0.7874015748031497
    },
    {
    "duration": 0.3977268750000036,
    "durationTicks": 455,
    "midi": 96,
    "color": "C7",
    "ticks": 56160,
    "time": 53.422951000000005,
    "velocity": 0.7874015748031497
    },
    {
    "duration": 0.3977268750000036,
    "durationTicks": 455,
    "midi": 101,
    "color": "F7",
    "ticks": 56160,
    "time": 53.422951000000005,
    "velocity": 0.7874015748031497
    },
    {
    "duration": 2.624225945833331,
    "durationTicks": 1823,
    "midi": 85,
    "color": "r",
    "ticks": 56640,
    "time": 53.84253100000001,
    "velocity": 0.7874015748031497
    },
    {
    "duration": 2.624225945833331,
    "durationTicks": 1823,
    "midi": 97,
    "color": "C7",
    "ticks": 56640,
    "time": 53.84253100000001,
    "velocity": 0.7874015748031497
    },
    {
    "duration": 1.9764988458333335,
    "durationTicks": 1367,
    "midi": 61,
    "color": "C4",
    "ticks": 56640,
    "time": 53.84253100000001,
    "velocity": 0.7874015748031497
    },
    {
    "duration": 1.9764988458333335,
    "durationTicks": 1367,
    "midi": 73,
    "color": "C5",
    "ticks": 56640,
    "time": 53.84253100000001,
    "velocity": 0.7874015748031497
    },
    {
    "duration": 0.16346162291666388,
    "durationTicks": 119,
    "midi": 60,
    "color": "g",
    "ticks": 58560,
    "time": 56.604541000000005,
    "velocity": 0.7874015748031497
    },
    {
    "duration": 0.16346162291666388,
    "durationTicks": 119,
    "midi": 72,
    "color": "C5",
    "ticks": 58560,
    "time": 56.604541000000005,
    "velocity": 0.7874015748031497
    },
    {
    "duration": 0.16346162291666388,
    "durationTicks": 119,
    "midi": 84,
    "color": "C6",
    "ticks": 58560,
    "time": 56.604541000000005,
    "velocity": 0.7874015748031497
    },
    {
    "duration": 0.16346162291666388,
    "durationTicks": 119,
    "midi": 96,
    "color": "C7",
    "ticks": 58560,
    "time": 56.604541000000005,
    "velocity": 0.7874015748031497
    },
    {
    "duration": 0.163461622916671,
    "durationTicks": 119,
    "midi": 84,
    "color": "g",
    "ticks": 58800,
    "time": 56.9342115,
    "velocity": 0.7874015748031497
    },
    {
    "duration": 0.163461622916671,
    "durationTicks": 119,
    "midi": 96,
    "color": "C7",
    "ticks": 58800,
    "time": 56.9342115,
    "velocity": 0.7874015748031497
    },
    {
    "duration": 0.163461622916671,
    "durationTicks": 119,
    "midi": 73,
    "color": "r",
    "ticks": 59040,
    "time": 57.263882,
    "velocity": 0.7874015748031497
    },
    {
    "duration": 0.163461622916671,
    "durationTicks": 119,
    "midi": 85,
    "color": "C6",
    "ticks": 59040,
    "time": 57.263882,
    "velocity": 0.7874015748031497
    },
    {
    "duration": 0.163461622916671,
    "durationTicks": 119,
    "midi": 97,
    "color": "C7",
    "ticks": 59040,
    "time": 57.263882,
    "velocity": 0.7874015748031497
    },
    {
    "duration": 0.163461622916671,
    "durationTicks": 119,
    "midi": 98,
    "color": "y",
    "ticks": 59280,
    "time": 57.5935525,
    "velocity": 0.7874015748031497
    },
    {
    "duration": 0.15994616458333155,
    "durationTicks": 119,
    "midi": 61,
    "color": "r",
    "ticks": 59520,
    "time": 57.92322300000001,
    "velocity": 0.7874015748031497
    },
    {
    "duration": 0.15994616458333155,
    "durationTicks": 119,
    "midi": 74,
    "color": "D5",
    "ticks": 59520,
    "time": 57.92322300000001,
    "velocity": 0.7874015748031497
    },
    {
    "duration": 0.15994616458333155,
    "durationTicks": 119,
    "midi": 86,
    "color": "D6",
    "ticks": 59520,
    "time": 57.92322300000001,
    "velocity": 0.7874015748031497
    },
    {
    "duration": 0.15994616458333155,
    "durationTicks": 119,
    "midi": 97,
    "color": "C7",
    "ticks": 59520,
    "time": 57.92322300000001,
    "velocity": 0.7874015748031497
    },
    {
    "duration": 0.15994616458333155,
    "durationTicks": 119,
    "midi": 87,
    "color": "b",
    "ticks": 59760,
    "time": 58.24580350000001,
    "velocity": 0.7874015748031497
    },
    {
    "duration": 0.15994616458333155,
    "durationTicks": 119,
    "midi": 99,
    "color": "D7",
    "ticks": 59760,
    "time": 58.24580350000001,
    "velocity": 0.7874015748031497
    },
    {
    "duration": 0.15994616458333155,
    "durationTicks": 119,
    "midi": 75,
    "color": "p",
    "ticks": 60000,
    "time": 58.56838400000001,
    "velocity": 0.7874015748031497
    },
    {
    "duration": 0.15994616458333155,
    "durationTicks": 119,
    "midi": 88,
    "color": "E6",
    "ticks": 60000,
    "time": 58.56838400000001,
    "velocity": 0.7874015748031497
    },
    {
    "duration": 0.15994616458333155,
    "durationTicks": 119,
    "midi": 100,
    "color": "E7",
    "ticks": 60000,
    "time": 58.56838400000001,
    "velocity": 0.7874015748031497
    },
    {
    "duration": 0.7647846020833313,
    "durationTicks": 569,
    "midi": 87,
    "color": "b",
    "ticks": 60240,
    "time": 58.89096450000001,
    "velocity": 0.7874015748031497
    },
    {
    "duration": 0.7647846020833313,
    "durationTicks": 569,
    "midi": 99,
    "color": "D7",
    "ticks": 60240,
    "time": 58.89096450000001,
    "velocity": 0.7874015748031497
    },
    {
    "duration": 0.15994616458333155,
    "durationTicks": 119,
    "midi": 62,
    "color": "D4",
    "ticks": 60240,
    "time": 58.89096450000001,
    "velocity": 0.7874015748031497
    },
    {
    "duration": 0.15994616458333155,
    "durationTicks": 119,
    "midi": 74,
    "color": "D5",
    "ticks": 60240,
    "time": 58.89096450000001,
    "velocity": 0.7874015748031497
    },
    {
    "duration": 0.2405912895833353,
    "durationTicks": 179,
    "midi": 74,
    "color": "b",
    "ticks": 60960,
    "time": 59.858706000000005,
    "velocity": 0.7874015748031497
    },
    {
    "duration": 0.2405912895833353,
    "durationTicks": 179,
    "midi": 87,
    "color": "D6",
    "ticks": 60960,
    "time": 59.858706000000005,
    "velocity": 0.7874015748031497
    },
    {
    "duration": 0.2405912895833353,
    "durationTicks": 179,
    "midi": 99,
    "color": "D7",
    "ticks": 60960,
    "time": 59.858706000000005,
    "velocity": 0.7874015748031497
    },
    {
    "duration": 0.0793010395833349,
    "durationTicks": 59,
    "midi": 99,
    "color": "b",
    "ticks": 61320,
    "time": 60.342576750000006,
    "velocity": 0.7874015748031497
    },
    {
    "duration": 0.2405912895833353,
    "durationTicks": 179,
    "midi": 62,
    "color": "b",
    "ticks": 61440,
    "time": 60.50386700000001,
    "velocity": 0.7874015748031497
    },
    {
    "duration": 0.2405912895833353,
    "durationTicks": 179,
    "midi": 74,
    "color": "D5",
    "ticks": 61440,
    "time": 60.50386700000001,
    "velocity": 0.7874015748031497
    },
    {
    "duration": 0.2405912895833353,
    "durationTicks": 179,
    "midi": 87,
    "color": "D6",
    "ticks": 61440,
    "time": 60.50386700000001,
    "velocity": 0.7874015748031497
    },
    {
    "duration": 0.2405912895833353,
    "durationTicks": 179,
    "midi": 99,
    "color": "D7",
    "ticks": 61440,
    "time": 60.50386700000001,
    "velocity": 0.7874015748031497
    },
    {
    "duration": 0.0793010395833349,
    "durationTicks": 59,
    "midi": 99,
    "color": "b",
    "ticks": 61800,
    "time": 60.98773775000001,
    "velocity": 0.7874015748031497
    },
    {
    "duration": 0.2405912895833353,
    "durationTicks": 179,
    "midi": 74,
    "color": "b",
    "ticks": 61920,
    "time": 61.14902800000001,
    "velocity": 0.7874015748031497
    },
    {
    "duration": 0.2405912895833353,
    "durationTicks": 179,
    "midi": 87,
    "color": "D6",
    "ticks": 61920,
    "time": 61.14902800000001,
    "velocity": 0.7874015748031497
    },
    {
    "duration": 0.2405912895833353,
    "durationTicks": 179,
    "midi": 99,
    "color": "D7",
    "ticks": 61920,
    "time": 61.14902800000001,
    "velocity": 0.7874015748031497
    },
    {
    "duration": 0.1518816520833326,
    "durationTicks": 113,
    "midi": 99,
    "color": "b",
    "ticks": 62280,
    "time": 61.63289875000001,
    "velocity": 0.7874015748031497
    },
    {
    "duration": 0.15824471250000016,
    "durationTicks": 119,
    "midi": 60,
    "color": "g",
    "ticks": 62400,
    "time": 61.79418900000001,
    "velocity": 0.7874015748031497
    },
    {
    "duration": 0.15824471250000016,
    "durationTicks": 119,
    "midi": 72,
    "color": "C5",
    "ticks": 62400,
    "time": 61.79418900000001,
    "velocity": 0.7874015748031497
    },
    {
    "duration": 0.15824471250000016,
    "durationTicks": 119,
    "midi": 84,
    "color": "C6",
    "ticks": 62400,
    "time": 61.79418900000001,
    "velocity": 0.7874015748031497
    },
    {
    "duration": 0.15824471250000016,
    "durationTicks": 119,
    "midi": 96,
    "color": "C7",
    "ticks": 62400,
    "time": 61.79418900000001,
    "velocity": 0.7874015748031497
    },
    {
    "duration": 0.15824471250000016,
    "durationTicks": 119,
    "midi": 84,
    "color": "g",
    "ticks": 62640,
    "time": 62.11333800000001,
    "velocity": 0.7874015748031497
    },
    {
    "duration": 0.15824471250000016,
    "durationTicks": 119,
    "midi": 96,
    "color": "C7",
    "ticks": 62640,
    "time": 62.11333800000001,
    "velocity": 0.7874015748031497
    },
    {
    "duration": 0.15824471250000016,
    "durationTicks": 119,
    "midi": 73,
    "color": "r",
    "ticks": 62880,
    "time": 62.43248700000001,
    "velocity": 0.7874015748031497
    },
    {
    "duration": 0.15824471250000016,
    "durationTicks": 119,
    "midi": 85,
    "color": "C6",
    "ticks": 62880,
    "time": 62.43248700000001,
    "velocity": 0.7874015748031497
    },
    {
    "duration": 0.15824471250000016,
    "durationTicks": 119,
    "midi": 97,
    "color": "C7",
    "ticks": 62880,
    "time": 62.43248700000001,
    "velocity": 0.7874015748031497
    },
    {
    "duration": 0.15824471250000016,
    "durationTicks": 119,
    "midi": 98,
    "color": "y",
    "ticks": 63120,
    "time": 62.75163600000001,
    "velocity": 0.7874015748031497
    },
    {
    "duration": 0.15657896041666675,
    "durationTicks": 119,
    "midi": 61,
    "color": "r",
    "ticks": 63360,
    "time": 63.07078500000001,
    "velocity": 0.7874015748031497
    },
    {
    "duration": 0.15657896041666675,
    "durationTicks": 119,
    "midi": 74,
    "color": "D5",
    "ticks": 63360,
    "time": 63.07078500000001,
    "velocity": 0.7874015748031497
    },
    {
    "duration": 0.15657896041666675,
    "durationTicks": 119,
    "midi": 86,
    "color": "D6",
    "ticks": 63360,
    "time": 63.07078500000001,
    "velocity": 0.7874015748031497
    },
    {
    "duration": 0.15657896041666675,
    "durationTicks": 119,
    "midi": 97,
    "color": "C7",
    "ticks": 63360,
    "time": 63.07078500000001,
    "velocity": 0.7874015748031497
    },
    {
    "duration": 0.15657896041666675,
    "durationTicks": 119,
    "midi": 87,
    "color": "b",
    "ticks": 63600,
    "time": 63.38657450000001,
    "velocity": 0.7874015748031497
    },
    {
    "duration": 0.15657896041666675,
    "durationTicks": 119,
    "midi": 99,
    "color": "D7",
    "ticks": 63600,
    "time": 63.38657450000001,
    "velocity": 0.7874015748031497
    },
    {
    "duration": 0.15657896041666675,
    "durationTicks": 119,
    "midi": 75,
    "color": "p",
    "ticks": 63840,
    "time": 63.70236400000001,
    "velocity": 0.7874015748031497
    },
    {
    "duration": 0.15657896041666675,
    "durationTicks": 119,
    "midi": 88,
    "color": "E6",
    "ticks": 63840,
    "time": 63.70236400000001,
    "velocity": 0.7874015748031497
    },
    {
    "duration": 0.15657896041666675,
    "durationTicks": 119,
    "midi": 100,
    "color": "E7",
    "ticks": 63840,
    "time": 63.70236400000001,
    "velocity": 0.7874015748031497
    },
    {
    "duration": 0.5986842604166611,
    "durationTicks": 455,
    "midi": 87,
    "color": "b",
    "ticks": 64080,
    "time": 64.01815350000001,
    "velocity": 0.7874015748031497
    },
    {
    "duration": 0.44868424791665973,
    "durationTicks": 341,
    "midi": 99,
    "color": "D7",
    "ticks": 64080,
    "time": 64.01815350000001,
    "velocity": 0.7874015748031497
    },
    {
    "duration": 0.15657896041666675,
    "durationTicks": 119,
    "midi": 62,
    "color": "D4",
    "ticks": 64080,
    "time": 64.01815350000001,
    "velocity": 0.7874015748031497
    },
    {
    "duration": 0.15657896041666675,
    "durationTicks": 119,
    "midi": 74,
    "color": "D5",
    "ticks": 64080,
    "time": 64.01815350000001,
    "velocity": 0.7874015748031497
    },
    {
    "duration": 0.15657896041666675,
    "durationTicks": 119,
    "midi": 99,
    "color": "b",
    "ticks": 64560,
    "time": 64.64973250000001,
    "velocity": 0.7874015748031497
    },
    {
    "duration": 0.23552633541666523,
    "durationTicks": 179,
    "midi": 74,
    "color": "b",
    "ticks": 64800,
    "time": 64.965522,
    "velocity": 0.7874015748031497
    },
    {
    "duration": 0.23552633541666523,
    "durationTicks": 179,
    "midi": 87,
    "color": "D6",
    "ticks": 64800,
    "time": 64.965522,
    "velocity": 0.7874015748031497
    },
    {
    "duration": 0.23552633541666523,
    "durationTicks": 179,
    "midi": 99,
    "color": "D7",
    "ticks": 64800,
    "time": 64.965522,
    "velocity": 0.7874015748031497
    },
    {
    "duration": 0.07763158541666826,
    "durationTicks": 59,
    "midi": 99,
    "color": "b",
    "ticks": 65160,
    "time": 65.43920625000001,
    "velocity": 0.7874015748031497
    },
    {
    "duration": 0.23552633541666523,
    "durationTicks": 179,
    "midi": 62,
    "color": "b",
    "ticks": 65280,
    "time": 65.59710100000001,
    "velocity": 0.7874015748031497
    },
    {
    "duration": 0.23552633541666523,
    "durationTicks": 179,
    "midi": 74,
    "color": "D5",
    "ticks": 65280,
    "time": 65.59710100000001,
    "velocity": 0.7874015748031497
    },
    {
    "duration": 0.23552633541666523,
    "durationTicks": 179,
    "midi": 87,
    "color": "D6",
    "ticks": 65280,
    "time": 65.59710100000001,
    "velocity": 0.7874015748031497
    },
    {
    "duration": 0.23552633541666523,
    "durationTicks": 179,
    "midi": 99,
    "color": "D7",
    "ticks": 65280,
    "time": 65.59710100000001,
    "velocity": 0.7874015748031497
    },
    {
    "duration": 0.07763158541665405,
    "durationTicks": 59,
    "midi": 99,
    "color": "b",
    "ticks": 65640,
    "time": 66.07078525000001,
    "velocity": 0.7874015748031497
    },
    {
    "duration": 0.15657896041666675,
    "durationTicks": 119,
    "midi": 74,
    "color": "b",
    "ticks": 65760,
    "time": 66.22868000000001,
    "velocity": 0.7874015748031497
    },
    {
    "duration": 0.15657896041666675,
    "durationTicks": 119,
    "midi": 87,
    "color": "D6",
    "ticks": 65760,
    "time": 66.22868000000001,
    "velocity": 0.7874015748031497
    },
    {
    "duration": 0.15657896041666675,
    "durationTicks": 119,
    "midi": 99,
    "color": "D7",
    "ticks": 65760,
    "time": 66.22868000000001,
    "velocity": 0.7874015748031497
    },
    {
    "duration": 0.14868422291667116,
    "durationTicks": 113,
    "midi": 99,
    "color": "b",
    "ticks": 66000,
    "time": 66.5444695,
    "velocity": 0.7874015748031497
    },
    {
    "duration": 0.14868422291667116,
    "durationTicks": 113,
    "midi": 99,
    "color": "b",
    "ticks": 66120,
    "time": 66.70236425,
    "velocity": 0.7874015748031497
    },
    {
    "duration": 2.4002939166666692,
    "durationTicks": 1823,
    "midi": 116,
    "color": "g",
    "ticks": 66240,
    "time": 66.86025900000001,
    "velocity": 0.7874015748031497
    },
    {
    "duration": 0.3178192124999981,
    "durationTicks": 239,
    "midi": 60,
    "color": "C4",
    "ticks": 66240,
    "time": 66.86025900000001,
    "velocity": 0.7874015748031497
    },
    {
    "duration": 0.3178192124999981,
    "durationTicks": 239,
    "midi": 72,
    "color": "C5",
    "ticks": 66240,
    "time": 66.86025900000001,
    "velocity": 0.7874015748031497
    },
    {
    "duration": 0.3178192124999981,
    "durationTicks": 239,
    "midi": 84,
    "color": "C6",
    "ticks": 66240,
    "time": 66.86025900000001,
    "velocity": 0.7874015748031497
    },
    {
    "duration": 0.3178192124999981,
    "durationTicks": 239,
    "midi": 96,
    "color": "C7",
    "ticks": 66240,
    "time": 66.86025900000001,
    "velocity": 0.7874015748031497
    },
    {
    "duration": 0.3018617625000104,
    "durationTicks": 227,
    "midi": 84,
    "color": "g",
    "ticks": 66480,
    "time": 67.17940800000001,
    "velocity": 0.7874015748031497
    },
    {
    "duration": 0.3018617625000104,
    "durationTicks": 227,
    "midi": 96,
    "color": "C7",
    "ticks": 66480,
    "time": 67.17940800000001,
    "velocity": 0.7874015748031497
    },
    {
    "duration": 0.3018617624999962,
    "durationTicks": 227,
    "midi": 73,
    "color": "r",
    "ticks": 66720,
    "time": 67.49855700000002,
    "velocity": 0.7874015748031497
    },
    {
    "duration": 0.3018617624999962,
    "durationTicks": 227,
    "midi": 85,
    "color": "C6",
    "ticks": 66720,
    "time": 67.49855700000002,
    "velocity": 0.7874015748031497
    },
    {
    "duration": 0.3018617624999962,
    "durationTicks": 227,
    "midi": 97,
    "color": "C7",
    "ticks": 66720,
    "time": 67.49855700000002,
    "velocity": 0.7874015748031497
    },
    {
    "duration": 0.3018617624999962,
    "durationTicks": 227,
    "midi": 98,
    "color": "y",
    "ticks": 66960,
    "time": 67.81770600000002,
    "velocity": 0.7874015748031497
    },
    {
    "duration": 0.2955729166666714,
    "durationTicks": 227,
    "midi": 61,
    "color": "r",
    "ticks": 67200,
    "time": 68.13685500000001,
    "velocity": 0.7874015748031497
    },
    {
    "duration": 0.2955729166666714,
    "durationTicks": 227,
    "midi": 74,
    "color": "D5",
    "ticks": 67200,
    "time": 68.13685500000001,
    "velocity": 0.7874015748031497
    },
    {
    "duration": 0.2955729166666714,
    "durationTicks": 227,
    "midi": 86,
    "color": "D6",
    "ticks": 67200,
    "time": 68.13685500000001,
    "velocity": 0.7874015748031497
    },
    {
    "duration": 0.2955729166666714,
    "durationTicks": 227,
    "midi": 97,
    "color": "C7",
    "ticks": 67200,
    "time": 68.13685500000001,
    "velocity": 0.7874015748031497
    },
    {
    "duration": 0.2955729166666714,
    "durationTicks": 227,
    "midi": 87,
    "color": "b",
    "ticks": 67440,
    "time": 68.44935500000001,
    "velocity": 0.7874015748031497
    },
    {
    "duration": 0.2955729166666714,
    "durationTicks": 227,
    "midi": 99,
    "color": "D7",
    "ticks": 67440,
    "time": 68.44935500000001,
    "velocity": 0.7874015748031497
    },
    {
    "duration": 0.2955729166666714,
    "durationTicks": 227,
    "midi": 75,
    "color": "p",
    "ticks": 67680,
    "time": 68.76185500000001,
    "velocity": 0.7874015748031497
    },
    {
    "duration": 0.2955729166666714,
    "durationTicks": 227,
    "midi": 88,
    "color": "E6",
    "ticks": 67680,
    "time": 68.76185500000001,
    "velocity": 0.7874015748031497
    },
    {
    "duration": 0.2955729166666714,
    "durationTicks": 227,
    "midi": 100,
    "color": "E7",
    "ticks": 67680,
    "time": 68.76185500000001,
    "velocity": 0.7874015748031497
    },
    {
    "duration": 0.5984043124999943,
    "durationTicks": 455,
    "midi": 87,
    "color": "b",
    "ticks": 67920,
    "time": 69.07435500000001,
    "velocity": 0.7874015748031497
    },
    {
    "duration": 0.5984043124999943,
    "durationTicks": 455,
    "midi": 99,
    "color": "D7",
    "ticks": 67920,
    "time": 69.07435500000001,
    "velocity": 0.7874015748031497
    },
    {
    "duration": 0.1549479166666714,
    "durationTicks": 119,
    "midi": 62,
    "color": "D4",
    "ticks": 67920,
    "time": 69.07435500000001,
    "velocity": 0.7874015748031497
    },
    {
    "duration": 0.1549479166666714,
    "durationTicks": 119,
    "midi": 74,
    "color": "D5",
    "ticks": 67920,
    "time": 69.07435500000001,
    "velocity": 0.7874015748031497
    },
    {
    "duration": 0.07845746249999763,
    "durationTicks": 59,
    "midi": 99,
    "color": "b",
    "ticks": 68520,
    "time": 69.86557850000001,
    "velocity": 0.7874015748031497
    },
    {
    "duration": 0.23803196249998848,
    "durationTicks": 179,
    "midi": 74,
    "color": "b",
    "ticks": 68640,
    "time": 70.02515300000002,
    "velocity": 0.7874015748031497
    },
    {
    "duration": 0.23803196249998848,
    "durationTicks": 179,
    "midi": 87,
    "color": "D6",
    "ticks": 68640,
    "time": 70.02515300000002,
    "velocity": 0.7874015748031497
    },
    {
    "duration": 0.23803196249998848,
    "durationTicks": 179,
    "midi": 99,
    "color": "D7",
    "ticks": 68640,
    "time": 70.02515300000002,
    "velocity": 0.7874015748031497
    },
    {
    "duration": 0.07845746249999763,
    "durationTicks": 59,
    "midi": 99,
    "color": "b",
    "ticks": 69000,
    "time": 70.50387650000002,
    "velocity": 0.7874015748031497
    },
    {
    "duration": 0.23552633541666523,
    "durationTicks": 179,
    "midi": 62,
    "color": "b",
    "ticks": 69120,
    "time": 70.66345100000001,
    "velocity": 0.7874015748031497
    },
    {
    "duration": 0.23552633541666523,
    "durationTicks": 179,
    "midi": 74,
    "color": "D5",
    "ticks": 69120,
    "time": 70.66345100000001,
    "velocity": 0.7874015748031497
    },
    {
    "duration": 0.23552633541666523,
    "durationTicks": 179,
    "midi": 87,
    "color": "D6",
    "ticks": 69120,
    "time": 70.66345100000001,
    "velocity": 0.7874015748031497
    },
    {
    "duration": 0.23552633541666523,
    "durationTicks": 179,
    "midi": 99,
    "color": "D7",
    "ticks": 69120,
    "time": 70.66345100000001,
    "velocity": 0.7874015748031497
    },
    {
    "duration": 0.07763158541666826,
    "durationTicks": 59,
    "midi": 99,
    "color": "b",
    "ticks": 69480,
    "time": 71.13713525000001,
    "velocity": 0.7874015748031497
    },
    {
    "duration": 0.15657896041666675,
    "durationTicks": 119,
    "midi": 74,
    "color": "b",
    "ticks": 69600,
    "time": 71.29503000000001,
    "velocity": 0.7874015748031497
    },
    {
    "duration": 0.15657896041666675,
    "durationTicks": 119,
    "midi": 87,
    "color": "D6",
    "ticks": 69600,
    "time": 71.29503000000001,
    "velocity": 0.7874015748031497
    },
    {
    "duration": 0.15657896041666675,
    "durationTicks": 119,
    "midi": 99,
    "color": "D7",
    "ticks": 69600,
    "time": 71.29503000000001,
    "velocity": 0.7874015748031497
    },
    {
    "duration": 0.15657896041666675,
    "durationTicks": 119,
    "midi": 99,
    "color": "b",
    "ticks": 69840,
    "time": 71.6108195,
    "velocity": 0.7874015748031497
    },
    {
    "duration": 0.9082448624999984,
    "durationTicks": 683,
    "midi": 99,
    "color": "D7",
    "ticks": 70080,
    "time": 71.92660900000001,
    "velocity": 0.7874015748031497
    },
    {
    "duration": 0.3178192124999981,
    "durationTicks": 239,
    "midi": 62,
    "color": "b",
    "ticks": 70080,
    "time": 71.92660900000001,
    "velocity": 0.7874015748031497
    },
    {
    "duration": 0.3178192124999981,
    "durationTicks": 239,
    "midi": 74,
    "color": "D5",
    "ticks": 70080,
    "time": 71.92660900000001,
    "velocity": 0.7874015748031497
    },
    {
    "duration": 0.3178192124999981,
    "durationTicks": 239,
    "midi": 87,
    "color": "D6",
    "ticks": 70080,
    "time": 71.92660900000001,
    "velocity": 0.7874015748031497
    },
    {
    "duration": 0.9145788395833279,
    "durationTicks": 683,
    "midi": 99,
    "color": "b",
    "ticks": 70800,
    "time": 72.88405600000002,
    "velocity": 0.7874015748031497
    },
    {
    "duration": 0.15824471249999306,
    "durationTicks": 119,
    "midi": 62,
    "color": "D4",
    "ticks": 70800,
    "time": 72.88405600000002,
    "velocity": 0.7874015748031497
    },
    {
    "duration": 0.15824471249999306,
    "durationTicks": 119,
    "midi": 74,
    "color": "D5",
    "ticks": 70800,
    "time": 72.88405600000002,
    "velocity": 0.7874015748031497
    },
    {
    "duration": 0.15824471249999306,
    "durationTicks": 119,
    "midi": 87,
    "color": "D6",
    "ticks": 70800,
    "time": 72.88405600000002,
    "velocity": 0.7874015748031497
    },
    {
    "duration": 0.32123641458332486,
    "durationTicks": 239,
    "midi": 74,
    "color": "b",
    "ticks": 71520,
    "time": 73.84836600000001,
    "velocity": 0.7874015748031497
    },
    {
    "duration": 0.32123641458332486,
    "durationTicks": 239,
    "midi": 87,
    "color": "D6",
    "ticks": 71520,
    "time": 73.84836600000001,
    "velocity": 0.7874015748031497
    },
    {
    "duration": 0.32123641458332486,
    "durationTicks": 239,
    "midi": 99,
    "color": "D7",
    "ticks": 71520,
    "time": 73.84836600000001,
    "velocity": 0.7874015748031497
    },
    {
    "duration": 0.23158900833333007,
    "durationTicks": 239,
    "midi": 60,
    "color": "g",
    "ticks": 72000,
    "time": 74.49352700000001,
    "velocity": 0.7874015748031497
    },
    {
    "duration": 0.23158900833333007,
    "durationTicks": 239,
    "midi": 72,
    "color": "C5",
    "ticks": 72000,
    "time": 74.49352700000001,
    "velocity": 0.7874015748031497
    },
    {
    "duration": 0.23158900833333007,
    "durationTicks": 239,
    "midi": 84,
    "color": "C6",
    "ticks": 72000,
    "time": 74.49352700000001,
    "velocity": 0.7874015748031497
    },
    {
    "duration": 0.23158900833333007,
    "durationTicks": 239,
    "midi": 96,
    "color": "C7",
    "ticks": 72000,
    "time": 74.49352700000001,
    "velocity": 0.7874015748031497
    },
    {
    "duration": 0.23158900833334428,
    "durationTicks": 239,
    "midi": 87,
    "color": "b",
    "ticks": 72480,
    "time": 74.95864300000001,
    "velocity": 0.7874015748031497
    },
    {
    "duration": 0.23158900833334428,
    "durationTicks": 239,
    "midi": 99,
    "color": "D7",
    "ticks": 72480,
    "time": 74.95864300000001,
    "velocity": 0.7874015748031497
    },
    {
    "duration": 0.23158900833333007,
    "durationTicks": 239,
    "midi": 75,
    "color": "p",
    "ticks": 72960,
    "time": 75.42375900000002,
    "velocity": 0.7874015748031497
    },
    {
    "duration": 0.23158900833333007,
    "durationTicks": 239,
    "midi": 88,
    "color": "E6",
    "ticks": 72960,
    "time": 75.42375900000002,
    "velocity": 0.7874015748031497
    },
    {
    "duration": 0.23158900833333007,
    "durationTicks": 239,
    "midi": 100,
    "color": "E7",
    "ticks": 72960,
    "time": 75.42375900000002,
    "velocity": 0.7874015748031497
    },
    {
    "duration": 0.22805330208333885,
    "durationTicks": 239,
    "midi": 62,
    "color": "y",
    "ticks": 73440,
    "time": 75.88887500000001,
    "velocity": 0.7874015748031497
    },
    {
    "duration": 0.22805330208333885,
    "durationTicks": 239,
    "midi": 74,
    "color": "D5",
    "ticks": 73440,
    "time": 75.88887500000001,
    "velocity": 0.7874015748031497
    },
    {
    "duration": 0.22805330208333885,
    "durationTicks": 239,
    "midi": 86,
    "color": "D6",
    "ticks": 73440,
    "time": 75.88887500000001,
    "velocity": 0.7874015748031497
    },
    {
    "duration": 0.22805330208333885,
    "durationTicks": 239,
    "midi": 98,
    "color": "D7",
    "ticks": 73440,
    "time": 75.88887500000001,
    "velocity": 0.7874015748031497
    },
    {
    "duration": 0.22805330208332464,
    "durationTicks": 239,
    "midi": 75,
    "color": "p",
    "ticks": 73920,
    "time": 76.34689000000002,
    "velocity": 0.7874015748031497
    },
    {
    "duration": 0.22805330208332464,
    "durationTicks": 239,
    "midi": 88,
    "color": "E6",
    "ticks": 73920,
    "time": 76.34689000000002,
    "velocity": 0.7874015748031497
    },
    {
    "duration": 0.22805330208332464,
    "durationTicks": 239,
    "midi": 100,
    "color": "E7",
    "ticks": 73920,
    "time": 76.34689000000002,
    "velocity": 0.7874015748031497
    },
    {
    "duration": 0.22805330208332464,
    "durationTicks": 239,
    "midi": 99,
    "color": "b",
    "ticks": 74400,
    "time": 76.80490500000002,
    "velocity": 0.7874015748031497
    },
    {
    "duration": 0.21806559166667228,
    "durationTicks": 239,
    "midi": 60,
    "color": "g",
    "ticks": 74880,
    "time": 77.26292000000001,
    "velocity": 0.7874015748031497
    },
    {
    "duration": 0.21806559166667228,
    "durationTicks": 239,
    "midi": 72,
    "color": "C5",
    "ticks": 74880,
    "time": 77.26292000000001,
    "velocity": 0.7874015748031497
    },
    {
    "duration": 0.21806559166667228,
    "durationTicks": 239,
    "midi": 84,
    "color": "C6",
    "ticks": 74880,
    "time": 77.26292000000001,
    "velocity": 0.7874015748031497
    },
    {
    "duration": 0.21806559166667228,
    "durationTicks": 239,
    "midi": 96,
    "color": "C7",
    "ticks": 74880,
    "time": 77.26292000000001,
    "velocity": 0.7874015748031497
    },
    {
    "duration": 0.21806559166667228,
    "durationTicks": 239,
    "midi": 87,
    "color": "b",
    "ticks": 75360,
    "time": 77.70087600000001,
    "velocity": 0.7874015748031497
    },
    {
    "duration": 0.21806559166667228,
    "durationTicks": 239,
    "midi": 99,
    "color": "D7",
    "ticks": 75360,
    "time": 77.70087600000001,
    "velocity": 0.7874015748031497
    },
    {
    "duration": 0.21806559166667228,
    "durationTicks": 239,
    "midi": 75,
    "color": "p",
    "ticks": 75840,
    "time": 78.13883200000001,
    "velocity": 0.7874015748031497
    },
    {
    "duration": 0.21806559166667228,
    "durationTicks": 239,
    "midi": 88,
    "color": "E6",
    "ticks": 75840,
    "time": 78.13883200000001,
    "velocity": 0.7874015748031497
    },
    {
    "duration": 0.21806559166667228,
    "durationTicks": 239,
    "midi": 100,
    "color": "E7",
    "ticks": 75840,
    "time": 78.13883200000001,
    "velocity": 0.7874015748031497
    },
    {
    "duration": 0.22805330208333885,
    "durationTicks": 239,
    "midi": 61,
    "color": "r",
    "ticks": 76320,
    "time": 78.57678800000001,
    "velocity": 0.7874015748031497
    },
    {
    "duration": 0.22805330208333885,
    "durationTicks": 239,
    "midi": 73,
    "color": "C5",
    "ticks": 76320,
    "time": 78.57678800000001,
    "velocity": 0.7874015748031497
    },
    {
    "duration": 0.22805330208333885,
    "durationTicks": 239,
    "midi": 85,
    "color": "C6",
    "ticks": 76320,
    "time": 78.57678800000001,
    "velocity": 0.7874015748031497
    },
    {
    "duration": 0.22805330208333885,
    "durationTicks": 239,
    "midi": 97,
    "color": "C7",
    "ticks": 76320,
    "time": 78.57678800000001,
    "velocity": 0.7874015748031497
    },
    {
    "duration": 0.1135495520833274,
    "durationTicks": 119,
    "midi": 74,
    "color": "b",
    "ticks": 76800,
    "time": 79.03480300000001,
    "velocity": 0.7874015748031497
    },
    {
    "duration": 0.1135495520833274,
    "durationTicks": 119,
    "midi": 87,
    "color": "D6",
    "ticks": 76800,
    "time": 79.03480300000001,
    "velocity": 0.7874015748031497
    },
    {
    "duration": 0.1135495520833274,
    "durationTicks": 119,
    "midi": 99,
    "color": "D7",
    "ticks": 76800,
    "time": 79.03480300000001,
    "velocity": 0.7874015748031497
    },
    {
    "duration": 0.11354955208334161,
    "durationTicks": 119,
    "midi": 98,
    "color": "y",
    "ticks": 77040,
    "time": 79.2638105,
    "velocity": 0.7874015748031497
    },
    {
    "duration": 0.22805330208332464,
    "durationTicks": 239,
    "midi": 86,
    "color": "r",
    "ticks": 77280,
    "time": 79.49281800000001,
    "velocity": 0.7874015748031497
    },
    {
    "duration": 0.22805330208332464,
    "durationTicks": 239,
    "midi": 97,
    "color": "C7",
    "ticks": 77280,
    "time": 79.49281800000001,
    "velocity": 0.7874015748031497
    },
    {
    "duration": 0.21492821875000345,
    "durationTicks": 239,
    "midi": 60,
    "color": "C4",
    "ticks": 77760,
    "time": 79.950833,
    "velocity": 0.7874015748031497
    },
    {
    "duration": 0.21492821875000345,
    "durationTicks": 239,
    "midi": 72,
    "color": "g",
    "ticks": 77760,
    "time": 79.950833,
    "velocity": 0.7874015748031497
    },
    {
    "duration": 0.21492821875000345,
    "durationTicks": 239,
    "midi": 84,
    "color": "C6",
    "ticks": 77760,
    "time": 79.950833,
    "velocity": 0.7874015748031497
    },
    {
    "duration": 0.21492821875000345,
    "durationTicks": 239,
    "midi": 96,
    "color": "C7",
    "ticks": 77760,
    "time": 79.950833,
    "velocity": 0.7874015748031497
    },
    {
    "duration": 0.21492821874998924,
    "durationTicks": 239,
    "midi": 87,
    "color": "b",
    "ticks": 78240,
    "time": 80.38248800000001,
    "velocity": 0.7874015748031497
    },
    {
    "duration": 0.21492821874998924,
    "durationTicks": 239,
    "midi": 99,
    "color": "D7",
    "ticks": 78240,
    "time": 80.38248800000001,
    "velocity": 0.7874015748031497
    },
    {
    "duration": 0.21492821875000345,
    "durationTicks": 239,
    "midi": 75,
    "color": "p",
    "ticks": 78720,
    "time": 80.814143,
    "velocity": 0.7874015748031497
    },
    {
    "duration": 0.21492821875000345,
    "durationTicks": 239,
    "midi": 88,
    "color": "E6",
    "ticks": 78720,
    "time": 80.814143,
    "velocity": 0.7874015748031497
    },
    {
    "duration": 0.21492821875000345,
    "durationTicks": 239,
    "midi": 100,
    "color": "E7",
    "ticks": 78720,
    "time": 80.814143,
    "velocity": 0.7874015748031497
    },
    {
    "duration": 0.2196688833333269,
    "durationTicks": 239,
    "midi": 62,
    "color": "y",
    "ticks": 79200,
    "time": 81.24579800000001,
    "velocity": 0.7874015748031497
    },
    {
    "duration": 0.2196688833333269,
    "durationTicks": 239,
    "midi": 74,
    "color": "D5",
    "ticks": 79200,
    "time": 81.24579800000001,
    "velocity": 0.7874015748031497
    },
    {
    "duration": 0.2196688833333269,
    "durationTicks": 239,
    "midi": 86,
    "color": "D6",
    "ticks": 79200,
    "time": 81.24579800000001,
    "velocity": 0.7874015748031497
    },
    {
    "duration": 0.2196688833333269,
    "durationTicks": 239,
    "midi": 98,
    "color": "D7",
    "ticks": 79200,
    "time": 81.24579800000001,
    "velocity": 0.7874015748031497
    },
    {
    "duration": 0.21966888333334111,
    "durationTicks": 239,
    "midi": 75,
    "color": "p",
    "ticks": 79680,
    "time": 81.686974,
    "velocity": 0.7874015748031497
    },
    {
    "duration": 0.21966888333334111,
    "durationTicks": 239,
    "midi": 88,
    "color": "E6",
    "ticks": 79680,
    "time": 81.686974,
    "velocity": 0.7874015748031497
    },
    {
    "duration": 0.21966888333334111,
    "durationTicks": 239,
    "midi": 100,
    "color": "E7",
    "ticks": 79680,
    "time": 81.686974,
    "velocity": 0.7874015748031497
    },
    {
    "duration": 0.21966888333334111,
    "durationTicks": 239,
    "midi": 99,
    "color": "b",
    "ticks": 80160,
    "time": 82.12815,
    "velocity": 0.7874015748031497
    },
    {
    "duration": 0.21966888333334111,
    "durationTicks": 239,
    "midi": 60,
    "color": "C4",
    "ticks": 80640,
    "time": 82.569326,
    "velocity": 0.7874015748031497
    },
    {
    "duration": 0.21966888333334111,
    "durationTicks": 239,
    "midi": 72,
    "color": "g",
    "ticks": 80640,
    "time": 82.569326,
    "velocity": 0.7874015748031497
    },
    {
    "duration": 0.21966888333334111,
    "durationTicks": 239,
    "midi": 84,
    "color": "C6",
    "ticks": 80640,
    "time": 82.569326,
    "velocity": 0.7874015748031497
    },
    {
    "duration": 0.21966888333334111,
    "durationTicks": 239,
    "midi": 96,
    "color": "C7",
    "ticks": 80640,
    "time": 82.569326,
    "velocity": 0.7874015748031497
    },
    {
    "duration": 0.21966888333334111,
    "durationTicks": 239,
    "midi": 87,
    "color": "b",
    "ticks": 81120,
    "time": 83.010502,
    "velocity": 0.7874015748031497
    },
    {
    "duration": 0.21966888333334111,
    "durationTicks": 239,
    "midi": 99,
    "color": "D7",
    "ticks": 81120,
    "time": 83.010502,
    "velocity": 0.7874015748031497
    },
    {
    "duration": 0.21966888333334111,
    "durationTicks": 239,
    "midi": 75,
    "color": "p",
    "ticks": 81600,
    "time": 83.451678,
    "velocity": 0.7874015748031497
    },
    {
    "duration": 0.21966888333334111,
    "durationTicks": 239,
    "midi": 88,
    "color": "E6",
    "ticks": 81600,
    "time": 83.451678,
    "velocity": 0.7874015748031497
    },
    {
    "duration": 0.21966888333334111,
    "durationTicks": 239,
    "midi": 100,
    "color": "E7",
    "ticks": 81600,
    "time": 83.451678,
    "velocity": 0.7874015748031497
    },
    {
    "duration": 0.2164857020833324,
    "durationTicks": 239,
    "midi": 61,
    "color": "r",
    "ticks": 82080,
    "time": 83.89285400000001,
    "velocity": 0.7874015748031497
    },
    {
    "duration": 0.2164857020833324,
    "durationTicks": 239,
    "midi": 74,
    "color": "b",
    "ticks": 82080,
    "time": 83.89285400000001,
    "velocity": 0.7874015748031497
    },
    {
    "duration": 0.2164857020833324,
    "durationTicks": 239,
    "midi": 85,
    "color": "C6",
    "ticks": 82080,
    "time": 83.89285400000001,
    "velocity": 0.7874015748031497
    },
    {
    "duration": 0.2164857020833324,
    "durationTicks": 239,
    "midi": 87,
    "color": "D6",
    "ticks": 82080,
    "time": 83.89285400000001,
    "velocity": 0.7874015748031497
    },
    {
    "duration": 0.2164857020833324,
    "durationTicks": 239,
    "midi": 97,
    "color": "C7",
    "ticks": 82080,
    "time": 83.89285400000001,
    "velocity": 0.7874015748031497
    },
    {
    "duration": 0.2164857020833324,
    "durationTicks": 239,
    "midi": 99,
    "color": "D7",
    "ticks": 82080,
    "time": 83.89285400000001,
    "velocity": 0.7874015748031497
    },
    {
    "duration": 0.2164857020833324,
    "durationTicks": 239,
    "midi": 73,
    "color": "y",
    "ticks": 82560,
    "time": 84.32763700000001,
    "velocity": 0.7874015748031497
    },
    {
    "duration": 0.2164857020833324,
    "durationTicks": 239,
    "midi": 86,
    "color": "D6",
    "ticks": 82560,
    "time": 84.32763700000001,
    "velocity": 0.7874015748031497
    },
    {
    "duration": 0.2164857020833324,
    "durationTicks": 239,
    "midi": 98,
    "color": "D7",
    "ticks": 82560,
    "time": 84.32763700000001,
    "velocity": 0.7874015748031497
    },
    {
    "duration": 0.2164857020833324,
    "durationTicks": 239,
    "midi": 74,
    "color": "b",
    "ticks": 83040,
    "time": 84.76242000000002,
    "velocity": 0.7874015748031497
    },
    {
    "duration": 0.2164857020833324,
    "durationTicks": 239,
    "midi": 87,
    "color": "D6",
    "ticks": 83040,
    "time": 84.76242000000002,
    "velocity": 0.7874015748031497
    },
    {
    "duration": 0.2164857020833324,
    "durationTicks": 239,
    "midi": 99,
    "color": "D7",
    "ticks": 83040,
    "time": 84.76242000000002,
    "velocity": 0.7874015748031497
    },
    {
    "duration": 0.21806559166667228,
    "durationTicks": 239,
    "midi": 61,
    "color": "r",
    "ticks": 83520,
    "time": 85.19720300000002,
    "velocity": 0.7874015748031497
    },
    {
    "duration": 0.21806559166667228,
    "durationTicks": 239,
    "midi": 73,
    "color": "y",
    "ticks": 83520,
    "time": 85.19720300000002,
    "velocity": 0.7874015748031497
    },
    {
    "duration": 0.21806559166667228,
    "durationTicks": 239,
    "midi": 86,
    "color": "D6",
    "ticks": 83520,
    "time": 85.19720300000002,
    "velocity": 0.7874015748031497
    },
    {
    "duration": 0.21806559166667228,
    "durationTicks": 239,
    "midi": 97,
    "color": "C7",
    "ticks": 83520,
    "time": 85.19720300000002,
    "velocity": 0.7874015748031497
    },
    {
    "duration": 0.21806559166667228,
    "durationTicks": 239,
    "midi": 98,
    "color": "D7",
    "ticks": 83520,
    "time": 85.19720300000002,
    "velocity": 0.7874015748031497
    },
    {
    "duration": 0.21806559166667228,
    "durationTicks": 239,
    "midi": 74,
    "color": "b",
    "ticks": 84000,
    "time": 85.63515900000002,
    "velocity": 0.7874015748031497
    },
    {
    "duration": 0.21806559166667228,
    "durationTicks": 239,
    "midi": 87,
    "color": "D6",
    "ticks": 84000,
    "time": 85.63515900000002,
    "velocity": 0.7874015748031497
    },
    {
    "duration": 0.21806559166667228,
    "durationTicks": 239,
    "midi": 99,
    "color": "D7",
    "ticks": 84000,
    "time": 85.63515900000002,
    "velocity": 0.7874015748031497
    },
    {
    "duration": 0.21806559166667228,
    "durationTicks": 239,
    "midi": 98,
    "color": "y",
    "ticks": 84480,
    "time": 86.07311500000002,
    "velocity": 0.7874015748031497
    },
    {
    "duration": 0.22129607499999793,
    "durationTicks": 239,
    "midi": 60,
    "color": "g",
    "ticks": 84960,
    "time": 86.51107100000002,
    "velocity": 0.7874015748031497
    },
    {
    "duration": 0.22129607499999793,
    "durationTicks": 239,
    "midi": 72,
    "color": "C5",
    "ticks": 84960,
    "time": 86.51107100000002,
    "velocity": 0.7874015748031497
    },
    {
    "duration": 0.22129607499999793,
    "durationTicks": 239,
    "midi": 84,
    "color": "C6",
    "ticks": 84960,
    "time": 86.51107100000002,
    "velocity": 0.7874015748031497
    },
    {
    "duration": 0.22129607499999793,
    "durationTicks": 239,
    "midi": 96,
    "color": "C7",
    "ticks": 84960,
    "time": 86.51107100000002,
    "velocity": 0.7874015748031497
    },
    {
    "duration": 0.22129607499999793,
    "durationTicks": 239,
    "midi": 87,
    "color": "b",
    "ticks": 85440,
    "time": 86.95551500000002,
    "velocity": 0.7874015748031497
    },
    {
    "duration": 0.22129607499999793,
    "durationTicks": 239,
    "midi": 99,
    "color": "D7",
    "ticks": 85440,
    "time": 86.95551500000002,
    "velocity": 0.7874015748031497
    },
    {
    "duration": 0.22129607500001214,
    "durationTicks": 239,
    "midi": 75,
    "color": "p",
    "ticks": 85920,
    "time": 87.39995900000001,
    "velocity": 0.7874015748031497
    },
    {
    "duration": 0.22129607500001214,
    "durationTicks": 239,
    "midi": 88,
    "color": "E6",
    "ticks": 85920,
    "time": 87.39995900000001,
    "velocity": 0.7874015748031497
    },
    {
    "duration": 0.22129607500001214,
    "durationTicks": 239,
    "midi": 100,
    "color": "E7",
    "ticks": 85920,
    "time": 87.39995900000001,
    "velocity": 0.7874015748031497
    },
    {
    "duration": 0.2246241499999968,
    "durationTicks": 239,
    "midi": 62,
    "color": "y",
    "ticks": 86400,
    "time": 87.84440300000001,
    "velocity": 0.7874015748031497
    },
    {
    "duration": 0.2246241499999968,
    "durationTicks": 239,
    "midi": 74,
    "color": "D5",
    "ticks": 86400,
    "time": 87.84440300000001,
    "velocity": 0.7874015748031497
    },
    {
    "duration": 0.2246241499999968,
    "durationTicks": 239,
    "midi": 86,
    "color": "D6",
    "ticks": 86400,
    "time": 87.84440300000001,
    "velocity": 0.7874015748031497
    },
    {
    "duration": 0.2246241499999968,
    "durationTicks": 239,
    "midi": 98,
    "color": "D7",
    "ticks": 86400,
    "time": 87.84440300000001,
    "velocity": 0.7874015748031497
    },
    {
    "duration": 0.2246241499999968,
    "durationTicks": 239,
    "midi": 75,
    "color": "p",
    "ticks": 86880,
    "time": 88.29553100000001,
    "velocity": 0.7874015748031497
    },
    {
    "duration": 0.2246241499999968,
    "durationTicks": 239,
    "midi": 88,
    "color": "E6",
    "ticks": 86880,
    "time": 88.29553100000001,
    "velocity": 0.7874015748031497
    },
    {
    "duration": 0.2246241499999968,
    "durationTicks": 239,
    "midi": 100,
    "color": "E7",
    "ticks": 86880,
    "time": 88.29553100000001,
    "velocity": 0.7874015748031497
    },
    {
    "duration": 0.224624150000011,
    "durationTicks": 239,
    "midi": 99,
    "color": "b",
    "ticks": 87360,
    "time": 88.74665900000001,
    "velocity": 0.7874015748031497
    },
    {
    "duration": 0.2196688833333269,
    "durationTicks": 239,
    "midi": 60,
    "color": "C4",
    "ticks": 87840,
    "time": 89.19778700000002,
    "velocity": 0.7874015748031497
    },
    {
    "duration": 0.2196688833333269,
    "durationTicks": 239,
    "midi": 72,
    "color": "g",
    "ticks": 87840,
    "time": 89.19778700000002,
    "velocity": 0.7874015748031497
    },
    {
    "duration": 0.2196688833333269,
    "durationTicks": 239,
    "midi": 84,
    "color": "C6",
    "ticks": 87840,
    "time": 89.19778700000002,
    "velocity": 0.7874015748031497
    },
    {
    "duration": 0.2196688833333269,
    "durationTicks": 239,
    "midi": 96,
    "color": "C7",
    "ticks": 87840,
    "time": 89.19778700000002,
    "velocity": 0.7874015748031497
    },
    {
    "duration": 0.21966888333334111,
    "durationTicks": 239,
    "midi": 87,
    "color": "b",
    "ticks": 88320,
    "time": 89.63896300000002,
    "velocity": 0.7874015748031497
    },
    {
    "duration": 0.21966888333334111,
    "durationTicks": 239,
    "midi": 99,
    "color": "D7",
    "ticks": 88320,
    "time": 89.63896300000002,
    "velocity": 0.7874015748031497
    },
    {
    "duration": 0.21966888333334111,
    "durationTicks": 239,
    "midi": 75,
    "color": "p",
    "ticks": 88800,
    "time": 90.08013900000002,
    "velocity": 0.7874015748031497
    },
    {
    "duration": 0.21966888333334111,
    "durationTicks": 239,
    "midi": 88,
    "color": "E6",
    "ticks": 88800,
    "time": 90.08013900000002,
    "velocity": 0.7874015748031497
    },
    {
    "duration": 0.21966888333334111,
    "durationTicks": 239,
    "midi": 100,
    "color": "E7",
    "ticks": 88800,
    "time": 90.08013900000002,
    "velocity": 0.7874015748031497
    },
    {
    "duration": 0.21806559166667228,
    "durationTicks": 239,
    "midi": 61,
    "color": "r",
    "ticks": 89280,
    "time": 90.52131500000002,
    "velocity": 0.7874015748031497
    },
    {
    "duration": 0.21806559166667228,
    "durationTicks": 239,
    "midi": 73,
    "color": "C5",
    "ticks": 89280,
    "time": 90.52131500000002,
    "velocity": 0.7874015748031497
    },
    {
    "duration": 0.21806559166667228,
    "durationTicks": 239,
    "midi": 85,
    "color": "C6",
    "ticks": 89280,
    "time": 90.52131500000002,
    "velocity": 0.7874015748031497
    },
    {
    "duration": 0.21806559166667228,
    "durationTicks": 239,
    "midi": 97,
    "color": "C7",
    "ticks": 89280,
    "time": 90.52131500000002,
    "velocity": 0.7874015748031497
    },
    {
    "duration": 0.10857659166666167,
    "durationTicks": 119,
    "midi": 74,
    "color": "b",
    "ticks": 89760,
    "time": 90.95927100000002,
    "velocity": 0.7874015748031497
    },
    {
    "duration": 0.10857659166666167,
    "durationTicks": 119,
    "midi": 87,
    "color": "D6",
    "ticks": 89760,
    "time": 90.95927100000002,
    "velocity": 0.7874015748031497
    },
    {
    "duration": 0.10857659166666167,
    "durationTicks": 119,
    "midi": 99,
    "color": "D7",
    "ticks": 89760,
    "time": 90.95927100000002,
    "velocity": 0.7874015748031497
    },
    {
    "duration": 0.10857659166666167,
    "durationTicks": 119,
    "midi": 98,
    "color": "y",
    "ticks": 90000,
    "time": 91.17824900000002,
    "velocity": 0.7874015748031497
    },
    {
    "duration": 0.21806559166667228,
    "durationTicks": 239,
    "midi": 86,
    "color": "r",
    "ticks": 90240,
    "time": 91.39722700000002,
    "velocity": 0.7874015748031497
    },
    {
    "duration": 0.21806559166667228,
    "durationTicks": 239,
    "midi": 97,
    "color": "C7",
    "ticks": 90240,
    "time": 91.39722700000002,
    "velocity": 0.7874015748031497
    },
    {
    "duration": 0.2196688833333269,
    "durationTicks": 239,
    "midi": 60,
    "color": "g",
    "ticks": 90720,
    "time": 91.83518300000001,
    "velocity": 0.7874015748031497
    },
    {
    "duration": 0.2196688833333269,
    "durationTicks": 239,
    "midi": 72,
    "color": "C5",
    "ticks": 90720,
    "time": 91.83518300000001,
    "velocity": 0.7874015748031497
    },
    {
    "duration": 0.2196688833333269,
    "durationTicks": 239,
    "midi": 84,
    "color": "C6",
    "ticks": 90720,
    "time": 91.83518300000001,
    "velocity": 0.7874015748031497
    },
    {
    "duration": 0.2196688833333269,
    "durationTicks": 239,
    "midi": 96,
    "color": "C7",
    "ticks": 90720,
    "time": 91.83518300000001,
    "velocity": 0.7874015748031497
    },
    {
    "duration": 0.21966888333334111,
    "durationTicks": 239,
    "midi": 87,
    "color": "b",
    "ticks": 91200,
    "time": 92.27635900000001,
    "velocity": 0.7874015748031497
    },
    {
    "duration": 0.21966888333334111,
    "durationTicks": 239,
    "midi": 99,
    "color": "D7",
    "ticks": 91200,
    "time": 92.27635900000001,
    "velocity": 0.7874015748031497
    },
    {
    "duration": 0.21966888333334111,
    "durationTicks": 239,
    "midi": 75,
    "color": "p",
    "ticks": 91680,
    "time": 92.71753500000001,
    "velocity": 0.7874015748031497
    },
    {
    "duration": 0.21966888333334111,
    "durationTicks": 239,
    "midi": 88,
    "color": "E6",
    "ticks": 91680,
    "time": 92.71753500000001,
    "velocity": 0.7874015748031497
    },
    {
    "duration": 0.21966888333334111,
    "durationTicks": 239,
    "midi": 100,
    "color": "E7",
    "ticks": 91680,
    "time": 92.71753500000001,
    "velocity": 0.7874015748031497
    },
    {
    "duration": 0.2164857020833324,
    "durationTicks": 239,
    "midi": 62,
    "color": "y",
    "ticks": 92160,
    "time": 93.15871100000001,
    "velocity": 0.7874015748031497
    },
    {
    "duration": 0.2164857020833324,
    "durationTicks": 239,
    "midi": 74,
    "color": "D5",
    "ticks": 92160,
    "time": 93.15871100000001,
    "velocity": 0.7874015748031497
    },
    {
    "duration": 0.2164857020833324,
    "durationTicks": 239,
    "midi": 86,
    "color": "D6",
    "ticks": 92160,
    "time": 93.15871100000001,
    "velocity": 0.7874015748031497
    },
    {
    "duration": 0.2164857020833324,
    "durationTicks": 239,
    "midi": 98,
    "color": "D7",
    "ticks": 92160,
    "time": 93.15871100000001,
    "velocity": 0.7874015748031497
    },
    {
    "duration": 0.2164857020833324,
    "durationTicks": 239,
    "midi": 75,
    "color": "p",
    "ticks": 92640,
    "time": 93.593494,
    "velocity": 0.7874015748031497
    },
    {
    "duration": 0.2164857020833324,
    "durationTicks": 239,
    "midi": 88,
    "color": "E6",
    "ticks": 92640,
    "time": 93.593494,
    "velocity": 0.7874015748031497
    },
    {
    "duration": 0.2164857020833324,
    "durationTicks": 239,
    "midi": 100,
    "color": "E7",
    "ticks": 92640,
    "time": 93.593494,
    "velocity": 0.7874015748031497
    },
    {
    "duration": 0.2164857020833324,
    "durationTicks": 239,
    "midi": 99,
    "color": "b",
    "ticks": 93120,
    "time": 94.02827700000002,
    "velocity": 0.7874015748031497
    },
    {
    "duration": 2.452398875,
    "durationTicks": 2735,
    "midi": 116,
    "color": "r",
    "ticks": 93600,
    "time": 94.46306000000001,
    "velocity": 0.7874015748031497
    },
    {
    "duration": 0.2164857020833324,
    "durationTicks": 239,
    "midi": 61,
    "color": "y",
    "ticks": 93600,
    "time": 94.46306000000001,
    "velocity": 0.7874015748031497
    },
    {
    "duration": 0.2164857020833324,
    "durationTicks": 239,
    "midi": 72,
    "color": "C5",
    "ticks": 93600,
    "time": 94.46306000000001,
    "velocity": 0.7874015748031497
    },
    {
    "duration": 0.2164857020833324,
    "durationTicks": 239,
    "midi": 85,
    "color": "C6",
    "ticks": 93600,
    "time": 94.46306000000001,
    "velocity": 0.7874015748031497
    },
    {
    "duration": 0.2164857020833324,
    "durationTicks": 239,
    "midi": 97,
    "color": "C7",
    "ticks": 93600,
    "time": 94.46306000000001,
    "velocity": 0.7874015748031497
    },
    {
    "duration": 0.2164857020833324,
    "durationTicks": 239,
    "midi": 98,
    "color": "D7",
    "ticks": 93600,
    "time": 94.46306000000001,
    "velocity": 0.7874015748031497
    },
    {
    "duration": 0.2164857020833324,
    "durationTicks": 239,
    "midi": 74,
    "color": "b",
    "ticks": 94080,
    "time": 94.89784300000001,
    "velocity": 0.7874015748031497
    },
    {
    "duration": 0.2164857020833324,
    "durationTicks": 239,
    "midi": 87,
    "color": "D6",
    "ticks": 94080,
    "time": 94.89784300000001,
    "velocity": 0.7874015748031497
    },
    {
    "duration": 0.2164857020833324,
    "durationTicks": 239,
    "midi": 99,
    "color": "D7",
    "ticks": 94080,
    "time": 94.89784300000001,
    "velocity": 0.7874015748031497
    },
    {
    "duration": 0.2164857020833466,
    "durationTicks": 239,
    "midi": 61,
    "color": "r",
    "ticks": 94560,
    "time": 95.332626,
    "velocity": 0.7874015748031497
    },
    {
    "duration": 0.2164857020833466,
    "durationTicks": 239,
    "midi": 72,
    "color": "C5",
    "ticks": 94560,
    "time": 95.332626,
    "velocity": 0.7874015748031497
    },
    {
    "duration": 0.2164857020833466,
    "durationTicks": 239,
    "midi": 85,
    "color": "C6",
    "ticks": 94560,
    "time": 95.332626,
    "velocity": 0.7874015748031497
    },
    {
    "duration": 0.2164857020833466,
    "durationTicks": 239,
    "midi": 97,
    "color": "C7",
    "ticks": 94560,
    "time": 95.332626,
    "velocity": 0.7874015748031497
    },
    {
    "duration": 0.21187947500000348,
    "durationTicks": 239,
    "midi": 87,
    "color": "y",
    "ticks": 95040,
    "time": 95.76740900000001,
    "velocity": 0.7874015748031497
    },
    {
    "duration": 0.21187947500000348,
    "durationTicks": 239,
    "midi": 98,
    "color": "b",
    "ticks": 95040,
    "time": 95.76740900000001,
    "velocity": 0.7874015748031497
    },
    {
    "duration": 0.21187947500000348,
    "durationTicks": 239,
    "midi": 99,
    "color": "D7",
    "ticks": 95040,
    "time": 95.76740900000001,
    "velocity": 0.7874015748031497
    },
    {
    "duration": 0.21187947499998927,
    "durationTicks": 239,
    "midi": 61,
    "color": "r",
    "ticks": 95520,
    "time": 96.19294100000002,
    "velocity": 0.7874015748031497
    },
    {
    "duration": 0.21187947499998927,
    "durationTicks": 239,
    "midi": 72,
    "color": "C5",
    "ticks": 95520,
    "time": 96.19294100000002,
    "velocity": 0.7874015748031497
    },
    {
    "duration": 0.21187947499998927,
    "durationTicks": 239,
    "midi": 85,
    "color": "C6",
    "ticks": 95520,
    "time": 96.19294100000002,
    "velocity": 0.7874015748031497
    },
    {
    "duration": 0.21187947499998927,
    "durationTicks": 239,
    "midi": 97,
    "color": "C7",
    "ticks": 95520,
    "time": 96.19294100000002,
    "velocity": 0.7874015748031497
    },
    {
    "duration": 0.21187947500000348,
    "durationTicks": 239,
    "midi": 74,
    "color": "b",
    "ticks": 96000,
    "time": 96.61847300000001,
    "velocity": 0.7874015748031497
    },
    {
    "duration": 0.21187947500000348,
    "durationTicks": 239,
    "midi": 99,
    "color": "D7",
    "ticks": 96000,
    "time": 96.61847300000001,
    "velocity": 0.7874015748031497
    },
    {
    "duration": 0.2164857020833324,
    "durationTicks": 239,
    "midi": 62,
    "color": "y",
    "ticks": 96480,
    "time": 97.04400500000001,
    "velocity": 0.7874015748031497
    },
    {
    "duration": 0.2164857020833324,
    "durationTicks": 239,
    "midi": 75,
    "color": "p",
    "ticks": 96480,
    "time": 97.04400500000001,
    "velocity": 0.7874015748031497
    },
    {
    "duration": 0.2164857020833324,
    "durationTicks": 239,
    "midi": 88,
    "color": "E6",
    "ticks": 96480,
    "time": 97.04400500000001,
    "velocity": 0.7874015748031497
    },
    {
    "duration": 0.2164857020833324,
    "durationTicks": 239,
    "midi": 98,
    "color": "D7",
    "ticks": 96480,
    "time": 97.04400500000001,
    "velocity": 0.7874015748031497
    },
    {
    "duration": 0.2164857020833324,
    "durationTicks": 239,
    "midi": 100,
    "color": "E7",
    "ticks": 96480,
    "time": 97.04400500000001,
    "velocity": 0.7874015748031497
    },
    {
    "duration": 0.2164857020833324,
    "durationTicks": 239,
    "midi": 74,
    "color": "y",
    "ticks": 96960,
    "time": 97.47878800000001,
    "velocity": 0.7874015748031497
    },
    {
    "duration": 0.2164857020833324,
    "durationTicks": 239,
    "midi": 86,
    "color": "D6",
    "ticks": 96960,
    "time": 97.47878800000001,
    "velocity": 0.7874015748031497
    },
    {
    "duration": 0.2164857020833324,
    "durationTicks": 239,
    "midi": 98,
    "color": "D7",
    "ticks": 96960,
    "time": 97.47878800000001,
    "velocity": 0.7874015748031497
    },
    {
    "duration": 0.05344207708333215,
    "durationTicks": 59,
    "midi": 61,
    "color": "r",
    "ticks": 97800,
    "time": 98.23965825000002,
    "velocity": 0.7874015748031497
    },
    {
    "duration": 0.05344207708333215,
    "durationTicks": 59,
    "midi": 73,
    "color": "C5",
    "ticks": 97800,
    "time": 98.23965825000002,
    "velocity": 0.7874015748031497
    },
    {
    "duration": 0.05344207708333215,
    "durationTicks": 59,
    "midi": 85,
    "color": "C6",
    "ticks": 97800,
    "time": 98.23965825000002,
    "velocity": 0.7874015748031497
    },
    {
    "duration": 0.05344207708333215,
    "durationTicks": 59,
    "midi": 97,
    "color": "C7",
    "ticks": 97800,
    "time": 98.23965825000002,
    "velocity": 0.7874015748031497
    },
    {
    "duration": 0.21492821874998924,
    "durationTicks": 239,
    "midi": 60,
    "color": "g",
    "ticks": 98400,
    "time": 98.78000900000002,
    "velocity": 0.7874015748031497
    },
    {
    "duration": 0.21492821874998924,
    "durationTicks": 239,
    "midi": 72,
    "color": "C5",
    "ticks": 98400,
    "time": 98.78000900000002,
    "velocity": 0.7874015748031497
    },
    {
    "duration": 0.21492821874998924,
    "durationTicks": 239,
    "midi": 84,
    "color": "C6",
    "ticks": 98400,
    "time": 98.78000900000002,
    "velocity": 0.7874015748031497
    },
    {
    "duration": 0.21492821874998924,
    "durationTicks": 239,
    "midi": 96,
    "color": "C7",
    "ticks": 98400,
    "time": 98.78000900000002,
    "velocity": 0.7874015748031497
    },
    {
    "duration": 0.05157337500000381,
    "durationTicks": 59,
    "midi": 97,
    "color": "r",
    "ticks": 99360,
    "time": 99.64331900000002,
    "velocity": 0.7874015748031497
    },
    {
    "duration": 0.5970273749999961,
    "durationTicks": 683,
    "midi": 62,
    "color": "D4",
    "ticks": 99360,
    "time": 99.64331900000002,
    "velocity": 0.7874015748031497
    },
    {
    "duration": 0.5970273749999961,
    "durationTicks": 683,
    "midi": 73,
    "color": "C5",
    "ticks": 99360,
    "time": 99.64331900000002,
    "velocity": 0.7874015748031497
    },
    {
    "duration": 0.5970273749999961,
    "durationTicks": 683,
    "midi": 85,
    "color": "C6",
    "ticks": 99360,
    "time": 99.64331900000002,
    "velocity": 0.7874015748031497
    },
    {
    "duration": 0.6966776250000066,
    "durationTicks": 797,
    "midi": 98,
    "color": "y",
    "ticks": 99480,
    "time": 99.74821400000002,
    "velocity": 0.7874015748031497
    },
    {
    "duration": 0.2089158749999882,
    "durationTicks": 239,
    "midi": 73,
    "color": "y",
    "ticks": 100320,
    "time": 100.48247900000003,
    "velocity": 0.7874015748031497
    },
    {
    "duration": 0.2089158749999882,
    "durationTicks": 239,
    "midi": 85,
    "color": "C6",
    "ticks": 100320,
    "time": 100.48247900000003,
    "velocity": 0.7874015748031497
    },
    {
    "duration": 0.2089158749999882,
    "durationTicks": 239,
    "midi": 98,
    "color": "D7",
    "ticks": 100320,
    "time": 100.48247900000003,
    "velocity": 0.7874015748031497
    },
    {
    "duration": 0.20891587500000242,
    "durationTicks": 239,
    "midi": 62,
    "color": "y",
    "ticks": 100800,
    "time": 100.90205900000002,
    "velocity": 0.7874015748031497
    },
    {
    "duration": 0.20891587500000242,
    "durationTicks": 239,
    "midi": 73,
    "color": "C5",
    "ticks": 100800,
    "time": 100.90205900000002,
    "velocity": 0.7874015748031497
    },
    {
    "duration": 0.20891587500000242,
    "durationTicks": 239,
    "midi": 85,
    "color": "C6",
    "ticks": 100800,
    "time": 100.90205900000002,
    "velocity": 0.7874015748031497
    },
    {
    "duration": 0.20891587500000242,
    "durationTicks": 239,
    "midi": 98,
    "color": "D7",
    "ticks": 100800,
    "time": 100.90205900000002,
    "velocity": 0.7874015748031497
    },
    {
    "duration": 0.20891587500000242,
    "durationTicks": 239,
    "midi": 85,
    "color": "y",
    "ticks": 101280,
    "time": 101.32163900000002,
    "velocity": 0.7874015748031497
    },
    {
    "duration": 0.20891587500000242,
    "durationTicks": 239,
    "midi": 98,
    "color": "D7",
    "ticks": 101280,
    "time": 101.32163900000002,
    "velocity": 0.7874015748031497
    },
    {
    "duration": 0.20891587500000242,
    "durationTicks": 239,
    "midi": 73,
    "color": "y",
    "ticks": 101760,
    "time": 101.74121900000002,
    "velocity": 0.7874015748031497
    },
    {
    "duration": 0.20891587500000242,
    "durationTicks": 239,
    "midi": 85,
    "color": "C6",
    "ticks": 101760,
    "time": 101.74121900000002,
    "velocity": 0.7874015748031497
    },
    {
    "duration": 0.20891587500000242,
    "durationTicks": 239,
    "midi": 98,
    "color": "D7",
    "ticks": 101760,
    "time": 101.74121900000002,
    "velocity": 0.7874015748031497
    },
    {
    "duration": 0.2089158749999882,
    "durationTicks": 239,
    "midi": 61,
    "color": "r",
    "ticks": 102240,
    "time": 102.16079900000003,
    "velocity": 0.7874015748031497
    },
    {
    "duration": 0.2089158749999882,
    "durationTicks": 239,
    "midi": 72,
    "color": "C5",
    "ticks": 102240,
    "time": 102.16079900000003,
    "velocity": 0.7874015748031497
    },
    {
    "duration": 0.2089158749999882,
    "durationTicks": 239,
    "midi": 84,
    "color": "C6",
    "ticks": 102240,
    "time": 102.16079900000003,
    "velocity": 0.7874015748031497
    },
    {
    "duration": 0.2089158749999882,
    "durationTicks": 239,
    "midi": 97,
    "color": "C7",
    "ticks": 102240,
    "time": 102.16079900000003,
    "velocity": 0.7874015748031497
    },
    {
    "duration": 0.20891587500000242,
    "durationTicks": 239,
    "midi": 73,
    "color": "y",
    "ticks": 102720,
    "time": 102.58037900000002,
    "velocity": 0.7874015748031497
    },
    {
    "duration": 0.20891587500000242,
    "durationTicks": 239,
    "midi": 77,
    "color": "F5",
    "ticks": 102720,
    "time": 102.58037900000002,
    "velocity": 0.7874015748031497
    },
    {
    "duration": 0.20891587500000242,
    "durationTicks": 239,
    "midi": 85,
    "color": "C6",
    "ticks": 102720,
    "time": 102.58037900000002,
    "velocity": 0.7874015748031497
    },
    {
    "duration": 0.20891587500000242,
    "durationTicks": 239,
    "midi": 89,
    "color": "F6",
    "ticks": 102720,
    "time": 102.58037900000002,
    "velocity": 0.7874015748031497
    },
    {
    "duration": 0.20891587500000242,
    "durationTicks": 239,
    "midi": 98,
    "color": "D7",
    "ticks": 102720,
    "time": 102.58037900000002,
    "velocity": 0.7874015748031497
    },
    {
    "duration": 0.20891587500000242,
    "durationTicks": 239,
    "midi": 101,
    "color": "F7",
    "ticks": 102720,
    "time": 102.58037900000002,
    "velocity": 0.7874015748031497
    },
    {
    "duration": 0.20891587500000242,
    "durationTicks": 239,
    "midi": 73,
    "color": "C5",
    "ticks": 103200,
    "time": 102.99995900000002,
    "velocity": 0.7874015748031497
    },
    {
    "duration": 0.20891587500000242,
    "durationTicks": 239,
    "midi": 85,
    "color": "y",
    "ticks": 103200,
    "time": 102.99995900000002,
    "velocity": 0.7874015748031497
    },
    {
    "duration": 0.20891587500000242,
    "durationTicks": 239,
    "midi": 98,
    "color": "D7",
    "ticks": 103200,
    "time": 102.99995900000002,
    "velocity": 0.7874015748031497
    },
    {
    "duration": 0.4101028354166658,
    "durationTicks": 479,
    "midi": 62,
    "color": "y",
    "ticks": 103680,
    "time": 103.41953900000001,
    "velocity": 0.7874015748031497
    },
    {
    "duration": 0.4101028354166658,
    "durationTicks": 479,
    "midi": 73,
    "color": "C5",
    "ticks": 103680,
    "time": 103.41953900000001,
    "velocity": 0.7874015748031497
    },
    {
    "duration": 0.4101028354166658,
    "durationTicks": 479,
    "midi": 85,
    "color": "C6",
    "ticks": 103680,
    "time": 103.41953900000001,
    "velocity": 0.7874015748031497
    },
    {
    "duration": 0.4101028354166658,
    "durationTicks": 479,
    "midi": 98,
    "color": "D7",
    "ticks": 103680,
    "time": 103.41953900000001,
    "velocity": 0.7874015748031497
    },
    {
    "duration": 0.049831031249993885,
    "durationTicks": 59,
    "midi": 62,
    "color": "r",
    "ticks": 105120,
    "time": 104.65241600000002,
    "velocity": 0.7874015748031497
    },
    {
    "duration": 0.049831031249993885,
    "durationTicks": 59,
    "midi": 73,
    "color": "C5",
    "ticks": 105120,
    "time": 104.65241600000002,
    "velocity": 0.7874015748031497
    },
    {
    "duration": 0.049831031249993885,
    "durationTicks": 59,
    "midi": 85,
    "color": "C6",
    "ticks": 105120,
    "time": 104.65241600000002,
    "velocity": 0.7874015748031497
    },
    {
    "duration": 0.049831031249993885,
    "durationTicks": 59,
    "midi": 97,
    "color": "C7",
    "ticks": 105120,
    "time": 104.65241600000002,
    "velocity": 0.7874015748031497
    },
    {
    "duration": 0.15118228125000144,
    "durationTicks": 179,
    "midi": 98,
    "color": "y",
    "ticks": 105240,
    "time": 104.75376725000001,
    "velocity": 0.7874015748031497
    },
    {
    "duration": 0.2018579062499981,
    "durationTicks": 239,
    "midi": 85,
    "color": "y",
    "ticks": 105600,
    "time": 105.05782100000002,
    "velocity": 0.7874015748031497
    },
    {
    "duration": 0.2018579062499981,
    "durationTicks": 239,
    "midi": 98,
    "color": "D7",
    "ticks": 105600,
    "time": 105.05782100000002,
    "velocity": 0.7874015748031497
    },
    {
    "duration": 0.2018579062499981,
    "durationTicks": 239,
    "midi": 73,
    "color": "y",
    "ticks": 106080,
    "time": 105.46322600000002,
    "velocity": 0.7874015748031497
    },
    {
    "duration": 0.2018579062499981,
    "durationTicks": 239,
    "midi": 85,
    "color": "C6",
    "ticks": 106080,
    "time": 105.46322600000002,
    "velocity": 0.7874015748031497
    },
    {
    "duration": 0.2018579062499981,
    "durationTicks": 239,
    "midi": 98,
    "color": "D7",
    "ticks": 106080,
    "time": 105.46322600000002,
    "velocity": 0.7874015748031497
    },
    {
    "duration": 0.04851975625000193,
    "durationTicks": 59,
    "midi": 62,
    "color": "r",
    "ticks": 106560,
    "time": 105.86863100000002,
    "velocity": 0.7874015748031497
    },
    {
    "duration": 0.04851975625000193,
    "durationTicks": 59,
    "midi": 73,
    "color": "C5",
    "ticks": 106560,
    "time": 105.86863100000002,
    "velocity": 0.7874015748031497
    },
    {
    "duration": 0.04851975625000193,
    "durationTicks": 59,
    "midi": 85,
    "color": "C6",
    "ticks": 106560,
    "time": 105.86863100000002,
    "velocity": 0.7874015748031497
    },
    {
    "duration": 0.04851975625000193,
    "durationTicks": 59,
    "midi": 97,
    "color": "C7",
    "ticks": 106560,
    "time": 105.86863100000002,
    "velocity": 0.7874015748031497
    },
    {
    "duration": 0.14720400624999286,
    "durationTicks": 179,
    "midi": 98,
    "color": "y",
    "ticks": 106680,
    "time": 105.96731525000003,
    "velocity": 0.7874015748031497
    },
    {
    "duration": 0.19654613124998832,
    "durationTicks": 239,
    "midi": 85,
    "color": "y",
    "ticks": 107040,
    "time": 106.26336800000003,
    "velocity": 0.7874015748031497
    },
    {
    "duration": 0.19654613124998832,
    "durationTicks": 239,
    "midi": 98,
    "color": "D7",
    "ticks": 107040,
    "time": 106.26336800000003,
    "velocity": 0.7874015748031497
    },
    {
    "duration": 0.19654613125000253,
    "durationTicks": 239,
    "midi": 73,
    "color": "y",
    "ticks": 107520,
    "time": 106.65810500000002,
    "velocity": 0.7874015748031497
    },
    {
    "duration": 0.19654613125000253,
    "durationTicks": 239,
    "midi": 85,
    "color": "C6",
    "ticks": 107520,
    "time": 106.65810500000002,
    "velocity": 0.7874015748031497
    },
    {
    "duration": 0.19654613125000253,
    "durationTicks": 239,
    "midi": 98,
    "color": "D7",
    "ticks": 107520,
    "time": 106.65810500000002,
    "velocity": 0.7874015748031497
    },
    {
    "duration": 0.3869045104166702,
    "durationTicks": 455,
    "midi": 62,
    "color": "y",
    "ticks": 108000,
    "time": 107.05284200000003,
    "velocity": 0.7874015748031497
    },
    {
    "duration": 0.3869045104166702,
    "durationTicks": 455,
    "midi": 98,
    "color": "D7",
    "ticks": 108000,
    "time": 107.05284200000003,
    "velocity": 0.7874015748031497
    },
    {
    "duration": 0.7746593604166634,
    "durationTicks": 911,
    "midi": 73,
    "color": "C5",
    "ticks": 108000,
    "time": 107.05284200000003,
    "velocity": 0.7874015748031497
    },
    {
    "duration": 0.7746593604166634,
    "durationTicks": 911,
    "midi": 85,
    "color": "C6",
    "ticks": 108000,
    "time": 107.05284200000003,
    "velocity": 0.7874015748031497
    },
    {
    "duration": 0.3869045104166702,
    "durationTicks": 455,
    "midi": 97,
    "color": "r",
    "ticks": 108480,
    "time": 107.46100500000003,
    "velocity": 0.7874015748031497
    },
    {
    "duration": 0.3869045104166702,
    "durationTicks": 455,
    "midi": 101,
    "color": "F7",
    "ticks": 108480,
    "time": 107.46100500000003,
    "velocity": 0.7874015748031497
    },
    {
    "duration": 0.7697405729166746,
    "durationTicks": 911,
    "midi": 61,
    "color": "g",
    "ticks": 108960,
    "time": 107.86916800000003,
    "velocity": 0.7874015748031497
    },
    {
    "duration": 0.7697405729166746,
    "durationTicks": 911,
    "midi": 72,
    "color": "C5",
    "ticks": 108960,
    "time": 107.86916800000003,
    "velocity": 0.7874015748031497
    },
    {
    "duration": 0.7697405729166746,
    "durationTicks": 911,
    "midi": 84,
    "color": "C6",
    "ticks": 108960,
    "time": 107.86916800000003,
    "velocity": 0.7874015748031497
    },
    {
    "duration": 0.7697405729166746,
    "durationTicks": 911,
    "midi": 96,
    "color": "C7",
    "ticks": 108960,
    "time": 107.86916800000003,
    "velocity": 0.7874015748031497
    },
    {
    "duration": 0.05051371041666641,
    "durationTicks": 59,
    "midi": 62,
    "color": "r",
    "ticks": 110880,
    "time": 109.48538600000003,
    "velocity": 0.7874015748031497
    },
    {
    "duration": 0.05051371041666641,
    "durationTicks": 59,
    "midi": 73,
    "color": "C5",
    "ticks": 110880,
    "time": 109.48538600000003,
    "velocity": 0.7874015748031497
    },
    {
    "duration": 0.05051371041666641,
    "durationTicks": 59,
    "midi": 85,
    "color": "C6",
    "ticks": 110880,
    "time": 109.48538600000003,
    "velocity": 0.7874015748031497
    },
    {
    "duration": 0.05051371041666641,
    "durationTicks": 59,
    "midi": 97,
    "color": "C7",
    "ticks": 110880,
    "time": 109.48538600000003,
    "velocity": 0.7874015748031497
    },
    {
    "duration": 0.1532534604166642,
    "durationTicks": 179,
    "midi": 98,
    "color": "y",
    "ticks": 111000,
    "time": 109.58812575000003,
    "velocity": 0.7874015748031497
    },
    {
    "duration": 0.204623335416656,
    "durationTicks": 239,
    "midi": 85,
    "color": "C6",
    "ticks": 111360,
    "time": 109.89634500000004,
    "velocity": 0.7874015748031497
    },
    {
    "duration": 0.204623335416656,
    "durationTicks": 239,
    "midi": 98,
    "color": "y",
    "ticks": 111360,
    "time": 109.89634500000004,
    "velocity": 0.7874015748031497
    },
    {
    "duration": 0.20462333541667022,
    "durationTicks": 239,
    "midi": 73,
    "color": "y",
    "ticks": 111840,
    "time": 110.30730400000003,
    "velocity": 0.7874015748031497
    },
    {
    "duration": 0.20462333541667022,
    "durationTicks": 239,
    "midi": 85,
    "color": "C6",
    "ticks": 111840,
    "time": 110.30730400000003,
    "velocity": 0.7874015748031497
    },
    {
    "duration": 0.20462333541667022,
    "durationTicks": 239,
    "midi": 98,
    "color": "D7",
    "ticks": 111840,
    "time": 110.30730400000003,
    "velocity": 0.7874015748031497
    },
    {
    "duration": 0.05051371041666641,
    "durationTicks": 59,
    "midi": 62,
    "color": "r",
    "ticks": 112320,
    "time": 110.71826300000004,
    "velocity": 0.7874015748031497
    },
    {
    "duration": 0.05051371041666641,
    "durationTicks": 59,
    "midi": 73,
    "color": "C5",
    "ticks": 112320,
    "time": 110.71826300000004,
    "velocity": 0.7874015748031497
    },
    {
    "duration": 0.05051371041666641,
    "durationTicks": 59,
    "midi": 85,
    "color": "C6",
    "ticks": 112320,
    "time": 110.71826300000004,
    "velocity": 0.7874015748031497
    },
    {
    "duration": 0.05051371041666641,
    "durationTicks": 59,
    "midi": 97,
    "color": "C7",
    "ticks": 112320,
    "time": 110.71826300000004,
    "velocity": 0.7874015748031497
    },
    {
    "duration": 0.1532534604166642,
    "durationTicks": 179,
    "midi": 98,
    "color": "y",
    "ticks": 112440,
    "time": 110.82100275000003,
    "velocity": 0.7874015748031497
    },
    {
    "duration": 0.20462333541667022,
    "durationTicks": 239,
    "midi": 85,
    "color": "y",
    "ticks": 112800,
    "time": 111.12922200000003,
    "velocity": 0.7874015748031497
    },
    {
    "duration": 0.20462333541667022,
    "durationTicks": 239,
    "midi": 98,
    "color": "D7",
    "ticks": 112800,
    "time": 111.12922200000003,
    "velocity": 0.7874015748031497
    },
    {
    "duration": 0.20462333541667022,
    "durationTicks": 239,
    "midi": 73,
    "color": "y",
    "ticks": 113280,
    "time": 111.54018100000003,
    "velocity": 0.7874015748031497
    },
    {
    "duration": 0.20462333541667022,
    "durationTicks": 239,
    "midi": 85,
    "color": "C6",
    "ticks": 113280,
    "time": 111.54018100000003,
    "velocity": 0.7874015748031497
    },
    {
    "duration": 0.20462333541667022,
    "durationTicks": 239,
    "midi": 98,
    "color": "D7",
    "ticks": 113280,
    "time": 111.54018100000003,
    "velocity": 0.7874015748031497
    },
    {
    "duration": 2.8744407125000038,
    "durationTicks": 3191,
    "midi": 116,
    "color": "r",
    "ticks": 113760,
    "time": 111.95114000000004,
    "velocity": 0.7874015748031497
    },
    {
    "duration": 0.19654613125000253,
    "durationTicks": 239,
    "midi": 62,
    "color": "D4",
    "ticks": 113760,
    "time": 111.95114000000004,
    "velocity": 0.7874015748031497
    },
    {
    "duration": 0.19654613125000253,
    "durationTicks": 239,
    "midi": 73,
    "color": "C5",
    "ticks": 113760,
    "time": 111.95114000000004,
    "velocity": 0.7874015748031497
    },
    {
    "duration": 0.19654613125000253,
    "durationTicks": 239,
    "midi": 85,
    "color": "C6",
    "ticks": 113760,
    "time": 111.95114000000004,
    "velocity": 0.7874015748031497
    },
    {
    "duration": 0.19654613125000253,
    "durationTicks": 239,
    "midi": 97,
    "color": "C7",
    "ticks": 113760,
    "time": 111.95114000000004,
    "velocity": 0.7874015748031497
    },
    {
    "duration": 0.28042774374999624,
    "durationTicks": 341,
    "midi": 98,
    "color": "y",
    "ticks": 113880,
    "time": 112.04982425000004,
    "velocity": 0.7874015748031497
    },
    {
    "duration": 0.37417778124999757,
    "durationTicks": 455,
    "midi": 85,
    "color": "y",
    "ticks": 114240,
    "time": 112.34587700000004,
    "velocity": 0.7874015748031497
    },
    {
    "duration": 0.37417778124999757,
    "durationTicks": 455,
    "midi": 98,
    "color": "D7",
    "ticks": 114240,
    "time": 112.34587700000004,
    "velocity": 0.7874015748031497
    },
    {
    "duration": 0.37417778124999757,
    "durationTicks": 455,
    "midi": 73,
    "color": "y",
    "ticks": 114720,
    "time": 112.74061400000004,
    "velocity": 0.7874015748031497
    },
    {
    "duration": 0.37417778124999757,
    "durationTicks": 455,
    "midi": 85,
    "color": "C6",
    "ticks": 114720,
    "time": 112.74061400000004,
    "velocity": 0.7874015748031497
    },
    {
    "duration": 0.37417778124999757,
    "durationTicks": 455,
    "midi": 98,
    "color": "D7",
    "ticks": 114720,
    "time": 112.74061400000004,
    "velocity": 0.7874015748031497
    },
    {
    "duration": 0.38955488541667194,
    "durationTicks": 455,
    "midi": 62,
    "color": "y",
    "ticks": 115200,
    "time": 113.13535100000004,
    "velocity": 0.7874015748031497
    },
    {
    "duration": 0.38955488541667194,
    "durationTicks": 455,
    "midi": 73,
    "color": "C5",
    "ticks": 115200,
    "time": 113.13535100000004,
    "velocity": 0.7874015748031497
    },
    {
    "duration": 0.38955488541667194,
    "durationTicks": 455,
    "midi": 85,
    "color": "C6",
    "ticks": 115200,
    "time": 113.13535100000004,
    "velocity": 0.7874015748031497
    },
    {
    "duration": 0.38955488541667194,
    "durationTicks": 455,
    "midi": 98,
    "color": "D7",
    "ticks": 115200,
    "time": 113.13535100000004,
    "velocity": 0.7874015748031497
    },
    {
    "duration": 0.3895548854166577,
    "durationTicks": 455,
    "midi": 75,
    "color": "r",
    "ticks": 115680,
    "time": 113.54631000000005,
    "velocity": 0.7874015748031497
    },
    {
    "duration": 0.3895548854166577,
    "durationTicks": 455,
    "midi": 77,
    "color": "F5",
    "ticks": 115680,
    "time": 113.54631000000005,
    "velocity": 0.7874015748031497
    },
    {
    "duration": 0.3895548854166577,
    "durationTicks": 455,
    "midi": 84,
    "color": "C6",
    "ticks": 115680,
    "time": 113.54631000000005,
    "velocity": 0.7874015748031497
    },
    {
    "duration": 0.3895548854166577,
    "durationTicks": 455,
    "midi": 89,
    "color": "F6",
    "ticks": 115680,
    "time": 113.54631000000005,
    "velocity": 0.7874015748031497
    },
    {
    "duration": 0.3895548854166577,
    "durationTicks": 455,
    "midi": 97,
    "color": "C7",
    "ticks": 115680,
    "time": 113.54631000000005,
    "velocity": 0.7874015748031497
    },
    {
    "duration": 0.3895548854166577,
    "durationTicks": 455,
    "midi": 101,
    "color": "F7",
    "ticks": 115680,
    "time": 113.54631000000005,
    "velocity": 0.7874015748031497
    },
    {
    "duration": 0.38955488541667194,
    "durationTicks": 455,
    "midi": 74,
    "color": "g",
    "ticks": 116160,
    "time": 113.95726900000004,
    "velocity": 0.7874015748031497
    },
    {
    "duration": 0.38955488541667194,
    "durationTicks": 455,
    "midi": 77,
    "color": "F5",
    "ticks": 116160,
    "time": 113.95726900000004,
    "velocity": 0.7874015748031497
    },
    {
    "duration": 0.38955488541667194,
    "durationTicks": 455,
    "midi": 86,
    "color": "D6",
    "ticks": 116160,
    "time": 113.95726900000004,
    "velocity": 0.7874015748031497
    },
    {
    "duration": 0.38955488541667194,
    "durationTicks": 455,
    "midi": 89,
    "color": "F6",
    "ticks": 116160,
    "time": 113.95726900000004,
    "velocity": 0.7874015748031497
    },
    {
    "duration": 0.38955488541667194,
    "durationTicks": 455,
    "midi": 96,
    "color": "C7",
    "ticks": 116160,
    "time": 113.95726900000004,
    "velocity": 0.7874015748031497
    },
    {
    "duration": 0.38955488541667194,
    "durationTicks": 455,
    "midi": 101,
    "color": "F7",
    "ticks": 116160,
    "time": 113.95726900000004,
    "velocity": 0.7874015748031497
    },
    {
    "duration": 2.5229011729166757,
    "durationTicks": 1823,
    "midi": 85,
    "color": "r",
    "ticks": 116640,
    "time": 114.36822800000004,
    "velocity": 0.7874015748031497
    },
    {
    "duration": 2.5229011729166757,
    "durationTicks": 1823,
    "midi": 97,
    "color": "C7",
    "ticks": 116640,
    "time": 114.36822800000004,
    "velocity": 0.7874015748031497
    },
    {
    "duration": 1.8965272229166743,
    "durationTicks": 1367,
    "midi": 61,
    "color": "C4",
    "ticks": 116640,
    "time": 114.36822800000004,
    "velocity": 0.7874015748031497
    },
    {
    "duration": 1.8965272229166743,
    "durationTicks": 1367,
    "midi": 73,
    "color": "C5",
    "ticks": 116640,
    "time": 114.36822800000004,
    "velocity": 0.7874015748031497
    },
    {
    "duration": 0.163461622916671,
    "durationTicks": 119,
    "midi": 60,
    "color": "g",
    "ticks": 118560,
    "time": 117.02437100000004,
    "velocity": 0.7874015748031497
    },
    {
    "duration": 0.163461622916671,
    "durationTicks": 119,
    "midi": 72,
    "color": "C5",
    "ticks": 118560,
    "time": 117.02437100000004,
    "velocity": 0.7874015748031497
    },
    {
    "duration": 0.163461622916671,
    "durationTicks": 119,
    "midi": 84,
    "color": "C6",
    "ticks": 118560,
    "time": 117.02437100000004,
    "velocity": 0.7874015748031497
    },
    {
    "duration": 0.163461622916671,
    "durationTicks": 119,
    "midi": 96,
    "color": "C7",
    "ticks": 118560,
    "time": 117.02437100000004,
    "velocity": 0.7874015748031497
    },
    {
    "duration": 0.163461622916671,
    "durationTicks": 119,
    "midi": 84,
    "color": "g",
    "ticks": 118800,
    "time": 117.35404150000005,
    "velocity": 0.7874015748031497
    },
    {
    "duration": 0.163461622916671,
    "durationTicks": 119,
    "midi": 96,
    "color": "C7",
    "ticks": 118800,
    "time": 117.35404150000005,
    "velocity": 0.7874015748031497
    },
    {
    "duration": 0.163461622916671,
    "durationTicks": 119,
    "midi": 73,
    "color": "r",
    "ticks": 119040,
    "time": 117.68371200000004,
    "velocity": 0.7874015748031497
    },
    {
    "duration": 0.163461622916671,
    "durationTicks": 119,
    "midi": 85,
    "color": "C6",
    "ticks": 119040,
    "time": 117.68371200000004,
    "velocity": 0.7874015748031497
    },
    {
    "duration": 0.163461622916671,
    "durationTicks": 119,
    "midi": 97,
    "color": "C7",
    "ticks": 119040,
    "time": 117.68371200000004,
    "velocity": 0.7874015748031497
    },
    {
    "duration": 0.163461622916671,
    "durationTicks": 119,
    "midi": 98,
    "color": "y",
    "ticks": 119280,
    "time": 118.01338250000005,
    "velocity": 0.7874015748031497
    },
    {
    "duration": 0.15824471249999306,
    "durationTicks": 119,
    "midi": 61,
    "color": "r",
    "ticks": 119520,
    "time": 118.34305300000005,
    "velocity": 0.7874015748031497
    },
    {
    "duration": 0.15824471249999306,
    "durationTicks": 119,
    "midi": 74,
    "color": "D5",
    "ticks": 119520,
    "time": 118.34305300000005,
    "velocity": 0.7874015748031497
    },
    {
    "duration": 0.15824471249999306,
    "durationTicks": 119,
    "midi": 86,
    "color": "D6",
    "ticks": 119520,
    "time": 118.34305300000005,
    "velocity": 0.7874015748031497
    },
    {
    "duration": 0.15824471249999306,
    "durationTicks": 119,
    "midi": 97,
    "color": "C7",
    "ticks": 119520,
    "time": 118.34305300000005,
    "velocity": 0.7874015748031497
    },
    {
    "duration": 0.15824471250000727,
    "durationTicks": 119,
    "midi": 87,
    "color": "b",
    "ticks": 119760,
    "time": 118.66220200000005,
    "velocity": 0.7874015748031497
    },
    {
    "duration": 0.15824471250000727,
    "durationTicks": 119,
    "midi": 99,
    "color": "D7",
    "ticks": 119760,
    "time": 118.66220200000005,
    "velocity": 0.7874015748031497
    },
    {
    "duration": 0.15824471249999306,
    "durationTicks": 119,
    "midi": 75,
    "color": "p",
    "ticks": 120000,
    "time": 118.98135100000006,
    "velocity": 0.7874015748031497
    },
    {
    "duration": 0.15824471249999306,
    "durationTicks": 119,
    "midi": 88,
    "color": "E6",
    "ticks": 120000,
    "time": 118.98135100000006,
    "velocity": 0.7874015748031497
    },
    {
    "duration": 0.15824471249999306,
    "durationTicks": 119,
    "midi": 100,
    "color": "E7",
    "ticks": 120000,
    "time": 118.98135100000006,
    "velocity": 0.7874015748031497
    },
    {
    "duration": 1.2308339041666585,
    "durationTicks": 911,
    "midi": 62,
    "color": "b",
    "ticks": 120240,
    "time": 119.30050000000006,
    "velocity": 0.7874015748031497
    },
    {
    "duration": 1.2308339041666585,
    "durationTicks": 911,
    "midi": 74,
    "color": "D5",
    "ticks": 120240,
    "time": 119.30050000000006,
    "velocity": 0.7874015748031497
    },
    {
    "duration": 1.2308339041666585,
    "durationTicks": 911,
    "midi": 87,
    "color": "D6",
    "ticks": 120240,
    "time": 119.30050000000006,
    "velocity": 0.7874015748031497
    },
    {
    "duration": 1.2308339041666585,
    "durationTicks": 911,
    "midi": 99,
    "color": "D7",
    "ticks": 120240,
    "time": 119.30050000000006,
    "velocity": 0.7874015748031497
    },
    {
    "duration": 0.15994616458333155,
    "durationTicks": 119,
    "midi": 72,
    "color": "g",
    "ticks": 122640,
    "time": 122.49657750000006,
    "velocity": 0.7874015748031497
    },
    {
    "duration": 0.15994616458333155,
    "durationTicks": 119,
    "midi": 84,
    "color": "C6",
    "ticks": 122640,
    "time": 122.49657750000006,
    "velocity": 0.7874015748031497
    },
    {
    "duration": 0.15994616458333155,
    "durationTicks": 119,
    "midi": 96,
    "color": "C7",
    "ticks": 122640,
    "time": 122.49657750000006,
    "velocity": 0.7874015748031497
    },
    {
    "duration": 0.15994616458333155,
    "durationTicks": 119,
    "midi": 60,
    "color": "r",
    "ticks": 122880,
    "time": 122.81915800000006,
    "velocity": 0.7874015748031497
    },
    {
    "duration": 0.15994616458333155,
    "durationTicks": 119,
    "midi": 73,
    "color": "C5",
    "ticks": 122880,
    "time": 122.81915800000006,
    "velocity": 0.7874015748031497
    },
    {
    "duration": 0.15994616458333155,
    "durationTicks": 119,
    "midi": 85,
    "color": "C6",
    "ticks": 122880,
    "time": 122.81915800000006,
    "velocity": 0.7874015748031497
    },
    {
    "duration": 0.15994616458333155,
    "durationTicks": 119,
    "midi": 97,
    "color": "C7",
    "ticks": 122880,
    "time": 122.81915800000006,
    "velocity": 0.7874015748031497
    },
    {
    "duration": 0.15994616458333155,
    "durationTicks": 119,
    "midi": 98,
    "color": "y",
    "ticks": 123120,
    "time": 123.14173850000006,
    "velocity": 0.7874015748031497
    },
    {
    "duration": 0.15824471249999306,
    "durationTicks": 119,
    "midi": 61,
    "color": "r",
    "ticks": 123360,
    "time": 123.46431900000006,
    "velocity": 0.7874015748031497
    },
    {
    "duration": 0.15824471249999306,
    "durationTicks": 119,
    "midi": 74,
    "color": "D5",
    "ticks": 123360,
    "time": 123.46431900000006,
    "velocity": 0.7874015748031497
    },
    {
    "duration": 0.15824471249999306,
    "durationTicks": 119,
    "midi": 86,
    "color": "D6",
    "ticks": 123360,
    "time": 123.46431900000006,
    "velocity": 0.7874015748031497
    },
    {
    "duration": 0.15824471249999306,
    "durationTicks": 119,
    "midi": 97,
    "color": "C7",
    "ticks": 123360,
    "time": 123.46431900000006,
    "velocity": 0.7874015748031497
    },
    {
    "duration": 0.15824471250000727,
    "durationTicks": 119,
    "midi": 87,
    "color": "b",
    "ticks": 123600,
    "time": 123.78346800000006,
    "velocity": 0.7874015748031497
    },
    {
    "duration": 0.15824471250000727,
    "durationTicks": 119,
    "midi": 99,
    "color": "D7",
    "ticks": 123600,
    "time": 123.78346800000006,
    "velocity": 0.7874015748031497
    },
    {
    "duration": 0.15824471249999306,
    "durationTicks": 119,
    "midi": 75,
    "color": "p",
    "ticks": 123840,
    "time": 124.10261700000007,
    "velocity": 0.7874015748031497
    },
    {
    "duration": 0.15824471249999306,
    "durationTicks": 119,
    "midi": 88,
    "color": "E6",
    "ticks": 123840,
    "time": 124.10261700000007,
    "velocity": 0.7874015748031497
    },
    {
    "duration": 0.15824471249999306,
    "durationTicks": 119,
    "midi": 100,
    "color": "E7",
    "ticks": 123840,
    "time": 124.10261700000007,
    "velocity": 0.7874015748031497
    },
    {
    "duration": 0.6050533125000044,
    "durationTicks": 455,
    "midi": 87,
    "color": "b",
    "ticks": 124080,
    "time": 124.42176600000006,
    "velocity": 0.7874015748031497
    },
    {
    "duration": 0.6050533125000044,
    "durationTicks": 455,
    "midi": 99,
    "color": "D7",
    "ticks": 124080,
    "time": 124.42176600000006,
    "velocity": 0.7874015748031497
    },
    {
    "duration": 0.15824471249999306,
    "durationTicks": 119,
    "midi": 62,
    "color": "D4",
    "ticks": 124080,
    "time": 124.42176600000006,
    "velocity": 0.7874015748031497
    },
    {
    "duration": 0.15824471249999306,
    "durationTicks": 119,
    "midi": 74,
    "color": "D5",
    "ticks": 124080,
    "time": 124.42176600000006,
    "velocity": 0.7874015748031497
    },
    {
    "duration": 0.15824471250000727,
    "durationTicks": 119,
    "midi": 99,
    "color": "b",
    "ticks": 124560,
    "time": 125.06006400000005,
    "velocity": 0.7874015748031497
    },
    {
    "duration": 0.2380319625000027,
    "durationTicks": 179,
    "midi": 74,
    "color": "b",
    "ticks": 124800,
    "time": 125.37921300000006,
    "velocity": 0.7874015748031497
    },
    {
    "duration": 0.2380319625000027,
    "durationTicks": 179,
    "midi": 87,
    "color": "D6",
    "ticks": 124800,
    "time": 125.37921300000006,
    "velocity": 0.7874015748031497
    },
    {
    "duration": 0.2380319625000027,
    "durationTicks": 179,
    "midi": 99,
    "color": "D7",
    "ticks": 124800,
    "time": 125.37921300000006,
    "velocity": 0.7874015748031497
    },
    {
    "duration": 0.07845746249999763,
    "durationTicks": 59,
    "midi": 99,
    "color": "b",
    "ticks": 125160,
    "time": 125.85793650000006,
    "velocity": 0.7874015748031497
    },
    {
    "duration": 0.23552633541666523,
    "durationTicks": 179,
    "midi": 62,
    "color": "b",
    "ticks": 125280,
    "time": 126.01751100000006,
    "velocity": 0.7874015748031497
    },
    {
    "duration": 0.23552633541666523,
    "durationTicks": 179,
    "midi": 74,
    "color": "D5",
    "ticks": 125280,
    "time": 126.01751100000006,
    "velocity": 0.7874015748031497
    },
    {
    "duration": 0.23552633541666523,
    "durationTicks": 179,
    "midi": 87,
    "color": "D6",
    "ticks": 125280,
    "time": 126.01751100000006,
    "velocity": 0.7874015748031497
    },
    {
    "duration": 0.23552633541666523,
    "durationTicks": 179,
    "midi": 99,
    "color": "D7",
    "ticks": 125280,
    "time": 126.01751100000006,
    "velocity": 0.7874015748031497
    },
    {
    "duration": 0.07763158541666826,
    "durationTicks": 59,
    "midi": 99,
    "color": "b",
    "ticks": 125640,
    "time": 126.49119525000006,
    "velocity": 0.7874015748031497
    },
    {
    "duration": 0.3144737104166637,
    "durationTicks": 239,
    "midi": 74,
    "color": "b",
    "ticks": 125760,
    "time": 126.64909000000006,
    "velocity": 0.7874015748031497
    },
    {
    "duration": 0.3144737104166637,
    "durationTicks": 239,
    "midi": 87,
    "color": "D6",
    "ticks": 125760,
    "time": 126.64909000000006,
    "velocity": 0.7874015748031497
    },
    {
    "duration": 0.3144737104166637,
    "durationTicks": 239,
    "midi": 99,
    "color": "D7",
    "ticks": 125760,
    "time": 126.64909000000006,
    "velocity": 0.7874015748031497
    },
    {
    "duration": 2.388709939583336,
    "durationTicks": 1823,
    "midi": 116,
    "color": "g",
    "ticks": 126240,
    "time": 127.28066900000006,
    "velocity": 0.7874015748031497
    },
    {
    "duration": 0.15824471249999306,
    "durationTicks": 119,
    "midi": 60,
    "color": "C4",
    "ticks": 126240,
    "time": 127.28066900000006,
    "velocity": 0.7874015748031497
    },
    {
    "duration": 0.15824471249999306,
    "durationTicks": 119,
    "midi": 72,
    "color": "C5",
    "ticks": 126240,
    "time": 127.28066900000006,
    "velocity": 0.7874015748031497
    },
    {
    "duration": 0.15824471249999306,
    "durationTicks": 119,
    "midi": 84,
    "color": "C6",
    "ticks": 126240,
    "time": 127.28066900000006,
    "velocity": 0.7874015748031497
    },
    {
    "duration": 0.15824471249999306,
    "durationTicks": 119,
    "midi": 96,
    "color": "C7",
    "ticks": 126240,
    "time": 127.28066900000006,
    "velocity": 0.7874015748031497
    },
    {
    "duration": 0.15824471250000727,
    "durationTicks": 119,
    "midi": 84,
    "color": "g",
    "ticks": 126480,
    "time": 127.59981800000006,
    "velocity": 0.7874015748031497
    },
    {
    "duration": 0.15824471250000727,
    "durationTicks": 119,
    "midi": 96,
    "color": "C7",
    "ticks": 126480,
    "time": 127.59981800000006,
    "velocity": 0.7874015748031497
    },
    {
    "duration": 0.15824471249999306,
    "durationTicks": 119,
    "midi": 73,
    "color": "C5",
    "ticks": 126720,
    "time": 127.91896700000007,
    "velocity": 0.7874015748031497
    },
    {
    "duration": 0.15824471249999306,
    "durationTicks": 119,
    "midi": 85,
    "color": "C6",
    "ticks": 126720,
    "time": 127.91896700000007,
    "velocity": 0.7874015748031497
    },
    {
    "duration": 0.15824471249999306,
    "durationTicks": 119,
    "midi": 97,
    "color": "r",
    "ticks": 126720,
    "time": 127.91896700000007,
    "velocity": 0.7874015748031497
    },
    {
    "duration": 0.15824471250002148,
    "durationTicks": 119,
    "midi": 98,
    "color": "y",
    "ticks": 126960,
    "time": 128.23811600000005,
    "velocity": 0.7874015748031497
    },
    {
    "duration": 0.15335058958334002,
    "durationTicks": 119,
    "midi": 61,
    "color": "r",
    "ticks": 127200,
    "time": 128.55726500000006,
    "velocity": 0.7874015748031497
    },
    {
    "duration": 0.15335058958334002,
    "durationTicks": 119,
    "midi": 74,
    "color": "D5",
    "ticks": 127200,
    "time": 128.55726500000006,
    "velocity": 0.7874015748031497
    },
    {
    "duration": 0.15335058958334002,
    "durationTicks": 119,
    "midi": 86,
    "color": "D6",
    "ticks": 127200,
    "time": 128.55726500000006,
    "velocity": 0.7874015748031497
    },
    {
    "duration": 0.15335058958334002,
    "durationTicks": 119,
    "midi": 97,
    "color": "C7",
    "ticks": 127200,
    "time": 128.55726500000006,
    "velocity": 0.7874015748031497
    },
    {
    "duration": 0.15335058958334002,
    "durationTicks": 119,
    "midi": 87,
    "color": "b",
    "ticks": 127440,
    "time": 128.86654350000006,
    "velocity": 0.7874015748031497
    },
    {
    "duration": 0.15335058958334002,
    "durationTicks": 119,
    "midi": 99,
    "color": "D7",
    "ticks": 127440,
    "time": 128.86654350000006,
    "velocity": 0.7874015748031497
    },
    {
    "duration": 0.1533505895833116,
    "durationTicks": 119,
    "midi": 75,
    "color": "p",
    "ticks": 127680,
    "time": 129.17582200000007,
    "velocity": 0.7874015748031497
    },
    {
    "duration": 0.1533505895833116,
    "durationTicks": 119,
    "midi": 88,
    "color": "E6",
    "ticks": 127680,
    "time": 129.17582200000007,
    "velocity": 0.7874015748031497
    },
    {
    "duration": 0.1533505895833116,
    "durationTicks": 119,
    "midi": 100,
    "color": "E7",
    "ticks": 127680,
    "time": 129.17582200000007,
    "velocity": 0.7874015748031497
    },
    {
    "duration": 0.5951828125000134,
    "durationTicks": 455,
    "midi": 99,
    "color": "b",
    "ticks": 127920,
    "time": 129.48510050000004,
    "velocity": 0.7874015748031497
    },
    {
    "duration": 0.15335058958334002,
    "durationTicks": 119,
    "midi": 62,
    "color": "D4",
    "ticks": 127920,
    "time": 129.48510050000004,
    "velocity": 0.7874015748031497
    },
    {
    "duration": 0.15335058958334002,
    "durationTicks": 119,
    "midi": 74,
    "color": "D5",
    "ticks": 127920,
    "time": 129.48510050000004,
    "velocity": 0.7874015748031497
    },
    {
    "duration": 0.15335058958334002,
    "durationTicks": 119,
    "midi": 87,
    "color": "D6",
    "ticks": 127920,
    "time": 129.48510050000004,
    "velocity": 0.7874015748031497
    },
    {
    "duration": 0.07845746249998342,
    "durationTicks": 59,
    "midi": 99,
    "color": "b",
    "ticks": 128400,
    "time": 130.11352800000006,
    "velocity": 0.7874015748031497
    },
    {
    "duration": 0.07845746250001184,
    "durationTicks": 59,
    "midi": 99,
    "color": "b",
    "ticks": 128520,
    "time": 130.27310250000005,
    "velocity": 0.7874015748031497
    },
    {
    "duration": 0.2380319625000027,
    "durationTicks": 179,
    "midi": 74,
    "color": "b",
    "ticks": 128640,
    "time": 130.43267700000004,
    "velocity": 0.7874015748031497
    },
    {
    "duration": 0.2380319625000027,
    "durationTicks": 179,
    "midi": 87,
    "color": "D6",
    "ticks": 128640,
    "time": 130.43267700000004,
    "velocity": 0.7874015748031497
    },
    {
    "duration": 0.2380319625000027,
    "durationTicks": 179,
    "midi": 99,
    "color": "D7",
    "ticks": 128640,
    "time": 130.43267700000004,
    "velocity": 0.7874015748031497
    },
    {
    "duration": 0.07845746250001184,
    "durationTicks": 59,
    "midi": 99,
    "color": "b",
    "ticks": 129000,
    "time": 130.91140050000004,
    "velocity": 0.7874015748031497
    },
    {
    "duration": 0.15657896041665254,
    "durationTicks": 119,
    "midi": 62,
    "color": "b",
    "ticks": 129120,
    "time": 131.07097500000006,
    "velocity": 0.7874015748031497
    },
    {
    "duration": 0.15657896041665254,
    "durationTicks": 119,
    "midi": 74,
    "color": "D5",
    "ticks": 129120,
    "time": 131.07097500000006,
    "velocity": 0.7874015748031497
    },
    {
    "duration": 0.15657896041665254,
    "durationTicks": 119,
    "midi": 87,
    "color": "D6",
    "ticks": 129120,
    "time": 131.07097500000006,
    "velocity": 0.7874015748031497
    },
    {
    "duration": 0.15657896041665254,
    "durationTicks": 119,
    "midi": 99,
    "color": "D7",
    "ticks": 129120,
    "time": 131.07097500000006,
    "velocity": 0.7874015748031497
    },
    {
    "duration": 0.07763158541666826,
    "durationTicks": 59,
    "midi": 99,
    "color": "b",
    "ticks": 129360,
    "time": 131.38676450000006,
    "velocity": 0.7874015748031497
    },
    {
    "duration": 0.07763158541666826,
    "durationTicks": 59,
    "midi": 99,
    "color": "b",
    "ticks": 129480,
    "time": 131.54465925000005,
    "velocity": 0.7874015748031497
    },
    {
    "duration": 0.15657896041668096,
    "durationTicks": 119,
    "midi": 74,
    "color": "b",
    "ticks": 129600,
    "time": 131.70255400000005,
    "velocity": 0.7874015748031497
    },
    {
    "duration": 0.15657896041668096,
    "durationTicks": 119,
    "midi": 87,
    "color": "D6",
    "ticks": 129600,
    "time": 131.70255400000005,
    "velocity": 0.7874015748031497
    },
    {
    "duration": 0.15657896041668096,
    "durationTicks": 119,
    "midi": 99,
    "color": "D7",
    "ticks": 129600,
    "time": 131.70255400000005,
    "velocity": 0.7874015748031497
    },
    {
    "duration": 0.15657896041665254,
    "durationTicks": 119,
    "midi": 99,
    "color": "b",
    "ticks": 129840,
    "time": 132.01834350000007,
    "velocity": 0.7874015748031497
    },
    {
    "duration": 1.823638764583336,
    "durationTicks": 1367,
    "midi": 62,
    "color": "b",
    "ticks": 130080,
    "time": 132.33413300000007,
    "velocity": 0.7874015748031497
    },
    {
    "duration": 1.823638764583336,
    "durationTicks": 1367,
    "midi": 74,
    "color": "D5",
    "ticks": 130080,
    "time": 132.33413300000007,
    "velocity": 0.7874015748031497
    },
    {
    "duration": 1.823638764583336,
    "durationTicks": 1367,
    "midi": 87,
    "color": "D6",
    "ticks": 130080,
    "time": 132.33413300000007,
    "velocity": 0.7874015748031497
    },
    {
    "duration": 1.823638764583336,
    "durationTicks": 1367,
    "midi": 99,
    "color": "D7",
    "ticks": 130080,
    "time": 132.33413300000007,
    "velocity": 0.7874015748031497
    },
    {
    "duration": 0.2352362479166743,
    "durationTicks": 239,
    "midi": 60,
    "color": "g",
    "ticks": 132000,
    "time": 134.90105100000008,
    "velocity": 0.7874015748031497
    },
    {
    "duration": 0.2352362479166743,
    "durationTicks": 239,
    "midi": 72,
    "color": "C5",
    "ticks": 132000,
    "time": 134.90105100000008,
    "velocity": 0.7874015748031497
    },
    {
    "duration": 0.2352362479166743,
    "durationTicks": 239,
    "midi": 84,
    "color": "C6",
    "ticks": 132000,
    "time": 134.90105100000008,
    "velocity": 0.7874015748031497
    },
    {
    "duration": 0.2352362479166743,
    "durationTicks": 239,
    "midi": 96,
    "color": "C7",
    "ticks": 132000,
    "time": 134.90105100000008,
    "velocity": 0.7874015748031497
    },
    {
    "duration": 0.2352362479166743,
    "durationTicks": 239,
    "midi": 87,
    "color": "b",
    "ticks": 132480,
    "time": 135.37349200000008,
    "velocity": 0.7874015748031497
    },
    {
    "duration": 0.2352362479166743,
    "durationTicks": 239,
    "midi": 99,
    "color": "D7",
    "ticks": 132480,
    "time": 135.37349200000008,
    "velocity": 0.7874015748031497
    },
    {
    "duration": 0.23523624791664588,
    "durationTicks": 239,
    "midi": 75,
    "color": "D5",
    "ticks": 132960,
    "time": 135.8459330000001,
    "velocity": 0.7874015748031497
    },
    {
    "duration": 0.23523624791664588,
    "durationTicks": 239,
    "midi": 88,
    "color": "p",
    "ticks": 132960,
    "time": 135.8459330000001,
    "velocity": 0.7874015748031497
    },
    {
    "duration": 0.23523624791664588,
    "durationTicks": 239,
    "midi": 100,
    "color": "E7",
    "ticks": 132960,
    "time": 135.8459330000001,
    "velocity": 0.7874015748031497
    },
    {
    "duration": 0.21806559166665807,
    "durationTicks": 239,
    "midi": 62,
    "color": "y",
    "ticks": 133440,
    "time": 136.3183740000001,
    "velocity": 0.7874015748031497
    },
    {
    "duration": 0.21806559166665807,
    "durationTicks": 239,
    "midi": 74,
    "color": "D5",
    "ticks": 133440,
    "time": 136.3183740000001,
    "velocity": 0.7874015748031497
    },
    {
    "duration": 0.21806559166665807,
    "durationTicks": 239,
    "midi": 86,
    "color": "D6",
    "ticks": 133440,
    "time": 136.3183740000001,
    "velocity": 0.7874015748031497
    },
    {
    "duration": 0.21806559166665807,
    "durationTicks": 239,
    "midi": 98,
    "color": "D7",
    "ticks": 133440,
    "time": 136.3183740000001,
    "velocity": 0.7874015748031497
    },
    {
    "duration": 0.21806559166665807,
    "durationTicks": 239,
    "midi": 75,
    "color": "p",
    "ticks": 133920,
    "time": 136.7563300000001,
    "velocity": 0.7874015748031497
    },
    {
    "duration": 0.21806559166665807,
    "durationTicks": 239,
    "midi": 88,
    "color": "E6",
    "ticks": 133920,
    "time": 136.7563300000001,
    "velocity": 0.7874015748031497
    },
    {
    "duration": 0.21806559166665807,
    "durationTicks": 239,
    "midi": 100,
    "color": "E7",
    "ticks": 133920,
    "time": 136.7563300000001,
    "velocity": 0.7874015748031497
    },
    {
    "duration": 0.21806559166665807,
    "durationTicks": 239,
    "midi": 99,
    "color": "b",
    "ticks": 134400,
    "time": 137.1942860000001,
    "velocity": 0.7874015748031497
    },
    {
    "duration": 0.2263255312500121,
    "durationTicks": 239,
    "midi": 60,
    "color": "g",
    "ticks": 134880,
    "time": 137.6322420000001,
    "velocity": 0.7874015748031497
    },
    {
    "duration": 0.2263255312500121,
    "durationTicks": 239,
    "midi": 72,
    "color": "C5",
    "ticks": 134880,
    "time": 137.6322420000001,
    "velocity": 0.7874015748031497
    },
    {
    "duration": 0.2263255312500121,
    "durationTicks": 239,
    "midi": 84,
    "color": "C6",
    "ticks": 134880,
    "time": 137.6322420000001,
    "velocity": 0.7874015748031497
    },
    {
    "duration": 0.2263255312500121,
    "durationTicks": 239,
    "midi": 96,
    "color": "C7",
    "ticks": 134880,
    "time": 137.6322420000001,
    "velocity": 0.7874015748031497
    },
    {
    "duration": 0.2263255312500121,
    "durationTicks": 239,
    "midi": 87,
    "color": "b",
    "ticks": 135360,
    "time": 138.0867870000001,
    "velocity": 0.7874015748031497
    },
    {
    "duration": 0.2263255312500121,
    "durationTicks": 239,
    "midi": 99,
    "color": "D7",
    "ticks": 135360,
    "time": 138.0867870000001,
    "velocity": 0.7874015748031497
    },
    {
    "duration": 0.2263255312500121,
    "durationTicks": 239,
    "midi": 75,
    "color": "p",
    "ticks": 135840,
    "time": 138.5413320000001,
    "velocity": 0.7874015748031497
    },
    {
    "duration": 0.2263255312500121,
    "durationTicks": 239,
    "midi": 88,
    "color": "E6",
    "ticks": 135840,
    "time": 138.5413320000001,
    "velocity": 0.7874015748031497
    },
    {
    "duration": 0.2263255312500121,
    "durationTicks": 239,
    "midi": 100,
    "color": "E7",
    "ticks": 135840,
    "time": 138.5413320000001,
    "velocity": 0.7874015748031497
    },
    {
    "duration": 0.224624150000011,
    "durationTicks": 239,
    "midi": 61,
    "color": "r",
    "ticks": 136320,
    "time": 138.9958770000001,
    "velocity": 0.7874015748031497
    },
    {
    "duration": 0.224624150000011,
    "durationTicks": 239,
    "midi": 73,
    "color": "C5",
    "ticks": 136320,
    "time": 138.9958770000001,
    "velocity": 0.7874015748031497
    },
    {
    "duration": 0.224624150000011,
    "durationTicks": 239,
    "midi": 85,
    "color": "C6",
    "ticks": 136320,
    "time": 138.9958770000001,
    "velocity": 0.7874015748031497
    },
    {
    "duration": 0.224624150000011,
    "durationTicks": 239,
    "midi": 97,
    "color": "C7",
    "ticks": 136320,
    "time": 138.9958770000001,
    "velocity": 0.7874015748031497
    },
    {
    "duration": 0.11184215000000108,
    "durationTicks": 119,
    "midi": 74,
    "color": "b",
    "ticks": 136800,
    "time": 139.4470050000001,
    "velocity": 0.7874015748031497
    },
    {
    "duration": 0.11184215000000108,
    "durationTicks": 119,
    "midi": 87,
    "color": "D6",
    "ticks": 136800,
    "time": 139.4470050000001,
    "velocity": 0.7874015748031497
    },
    {
    "duration": 0.11184215000000108,
    "durationTicks": 119,
    "midi": 99,
    "color": "D7",
    "ticks": 136800,
    "time": 139.4470050000001,
    "velocity": 0.7874015748031497
    },
    {
    "duration": 0.11184215000000108,
    "durationTicks": 119,
    "midi": 98,
    "color": "y",
    "ticks": 137040,
    "time": 139.6725690000001,
    "velocity": 0.7874015748031497
    },
    {
    "duration": 0.224624150000011,
    "durationTicks": 239,
    "midi": 86,
    "color": "r",
    "ticks": 137280,
    "time": 139.8981330000001,
    "velocity": 0.7874015748031497
    },
    {
    "duration": 0.224624150000011,
    "durationTicks": 239,
    "midi": 97,
    "color": "C7",
    "ticks": 137280,
    "time": 139.8981330000001,
    "velocity": 0.7874015748031497
    },
    {
    "duration": 0.21806559166665807,
    "durationTicks": 239,
    "midi": 60,
    "color": "g",
    "ticks": 137760,
    "time": 140.3492610000001,
    "velocity": 0.7874015748031497
    },
    {
    "duration": 0.21806559166665807,
    "durationTicks": 239,
    "midi": 72,
    "color": "C5",
    "ticks": 137760,
    "time": 140.3492610000001,
    "velocity": 0.7874015748031497
    },
    {
    "duration": 0.21806559166665807,
    "durationTicks": 239,
    "midi": 84,
    "color": "C6",
    "ticks": 137760,
    "time": 140.3492610000001,
    "velocity": 0.7874015748031497
    },
    {
    "duration": 0.21806559166665807,
    "durationTicks": 239,
    "midi": 96,
    "color": "C7",
    "ticks": 137760,
    "time": 140.3492610000001,
    "velocity": 0.7874015748031497
    },
    {
    "duration": 0.21806559166665807,
    "durationTicks": 239,
    "midi": 87,
    "color": "b",
    "ticks": 138240,
    "time": 140.7872170000001,
    "velocity": 0.7874015748031497
    },
    {
    "duration": 0.21806559166665807,
    "durationTicks": 239,
    "midi": 99,
    "color": "D7",
    "ticks": 138240,
    "time": 140.7872170000001,
    "velocity": 0.7874015748031497
    },
    {
    "duration": 0.21806559166665807,
    "durationTicks": 239,
    "midi": 75,
    "color": "p",
    "ticks": 138720,
    "time": 141.2251730000001,
    "velocity": 0.7874015748031497
    },
    {
    "duration": 0.21806559166665807,
    "durationTicks": 239,
    "midi": 88,
    "color": "E6",
    "ticks": 138720,
    "time": 141.2251730000001,
    "velocity": 0.7874015748031497
    },
    {
    "duration": 0.21806559166665807,
    "durationTicks": 239,
    "midi": 100,
    "color": "E7",
    "ticks": 138720,
    "time": 141.2251730000001,
    "velocity": 0.7874015748031497
    },
    {
    "duration": 0.22294766458333015,
    "durationTicks": 239,
    "midi": 62,
    "color": "y",
    "ticks": 139200,
    "time": 141.6631290000001,
    "velocity": 0.7874015748031497
    },
    {
    "duration": 0.22294766458333015,
    "durationTicks": 239,
    "midi": 74,
    "color": "D5",
    "ticks": 139200,
    "time": 141.6631290000001,
    "velocity": 0.7874015748031497
    },
    {
    "duration": 0.22294766458333015,
    "durationTicks": 239,
    "midi": 86,
    "color": "D6",
    "ticks": 139200,
    "time": 141.6631290000001,
    "velocity": 0.7874015748031497
    },
    {
    "duration": 0.22294766458333015,
    "durationTicks": 239,
    "midi": 98,
    "color": "D7",
    "ticks": 139200,
    "time": 141.6631290000001,
    "velocity": 0.7874015748031497
    },
    {
    "duration": 0.22294766458333015,
    "durationTicks": 239,
    "midi": 75,
    "color": "p",
    "ticks": 139680,
    "time": 142.11089000000013,
    "velocity": 0.7874015748031497
    },
    {
    "duration": 0.22294766458333015,
    "durationTicks": 239,
    "midi": 88,
    "color": "E6",
    "ticks": 139680,
    "time": 142.11089000000013,
    "velocity": 0.7874015748031497
    },
    {
    "duration": 0.22294766458333015,
    "durationTicks": 239,
    "midi": 100,
    "color": "E7",
    "ticks": 139680,
    "time": 142.11089000000013,
    "velocity": 0.7874015748031497
    },
    {
    "duration": 0.22294766458333015,
    "durationTicks": 239,
    "midi": 99,
    "color": "b",
    "ticks": 140160,
    "time": 142.5586510000001,
    "velocity": 0.7874015748031497
    },
    {
    "duration": 0.21806559166665807,
    "durationTicks": 239,
    "midi": 60,
    "color": "C4",
    "ticks": 140640,
    "time": 143.00641200000013,
    "velocity": 0.7874015748031497
    },
    {
    "duration": 0.21806559166665807,
    "durationTicks": 239,
    "midi": 72,
    "color": "g",
    "ticks": 140640,
    "time": 143.00641200000013,
    "velocity": 0.7874015748031497
    },
    {
    "duration": 0.21806559166665807,
    "durationTicks": 239,
    "midi": 84,
    "color": "C6",
    "ticks": 140640,
    "time": 143.00641200000013,
    "velocity": 0.7874015748031497
    },
    {
    "duration": 0.21806559166665807,
    "durationTicks": 239,
    "midi": 96,
    "color": "C7",
    "ticks": 140640,
    "time": 143.00641200000013,
    "velocity": 0.7874015748031497
    },
    {
    "duration": 0.21806559166665807,
    "durationTicks": 239,
    "midi": 87,
    "color": "b",
    "ticks": 141120,
    "time": 143.44436800000014,
    "velocity": 0.7874015748031497
    },
    {
    "duration": 0.21806559166665807,
    "durationTicks": 239,
    "midi": 99,
    "color": "D7",
    "ticks": 141120,
    "time": 143.44436800000014,
    "velocity": 0.7874015748031497
    },
    {
    "duration": 0.21806559166665807,
    "durationTicks": 239,
    "midi": 75,
    "color": "p",
    "ticks": 141600,
    "time": 143.88232400000012,
    "velocity": 0.7874015748031497
    },
    {
    "duration": 0.21806559166665807,
    "durationTicks": 239,
    "midi": 88,
    "color": "E6",
    "ticks": 141600,
    "time": 143.88232400000012,
    "velocity": 0.7874015748031497
    },
    {
    "duration": 0.21806559166665807,
    "durationTicks": 239,
    "midi": 100,
    "color": "E7",
    "ticks": 141600,
    "time": 143.88232400000012,
    "velocity": 0.7874015748031497
    },
    {
    "duration": 0.2133926437500122,
    "durationTicks": 239,
    "midi": 61,
    "color": "r",
    "ticks": 142080,
    "time": 144.32028000000014,
    "velocity": 0.7874015748031497
    },
    {
    "duration": 0.2133926437500122,
    "durationTicks": 239,
    "midi": 74,
    "color": "b",
    "ticks": 142080,
    "time": 144.32028000000014,
    "velocity": 0.7874015748031497
    },
    {
    "duration": 0.2133926437500122,
    "durationTicks": 239,
    "midi": 85,
    "color": "C6",
    "ticks": 142080,
    "time": 144.32028000000014,
    "velocity": 0.7874015748031497
    },
    {
    "duration": 0.2133926437500122,
    "durationTicks": 239,
    "midi": 87,
    "color": "D6",
    "ticks": 142080,
    "time": 144.32028000000014,
    "velocity": 0.7874015748031497
    },
    {
    "duration": 0.2133926437500122,
    "durationTicks": 239,
    "midi": 97,
    "color": "C7",
    "ticks": 142080,
    "time": 144.32028000000014,
    "velocity": 0.7874015748031497
    },
    {
    "duration": 0.2133926437500122,
    "durationTicks": 239,
    "midi": 99,
    "color": "D7",
    "ticks": 142080,
    "time": 144.32028000000014,
    "velocity": 0.7874015748031497
    },
    {
    "duration": 0.2133926437499838,
    "durationTicks": 239,
    "midi": 73,
    "color": "y",
    "ticks": 142560,
    "time": 144.74885100000014,
    "velocity": 0.7874015748031497
    },
    {
    "duration": 0.2133926437499838,
    "durationTicks": 239,
    "midi": 86,
    "color": "D6",
    "ticks": 142560,
    "time": 144.74885100000014,
    "velocity": 0.7874015748031497
    },
    {
    "duration": 0.2133926437499838,
    "durationTicks": 239,
    "midi": 98,
    "color": "D7",
    "ticks": 142560,
    "time": 144.74885100000014,
    "velocity": 0.7874015748031497
    },
    {
    "duration": 0.2133926437499838,
    "durationTicks": 239,
    "midi": 74,
    "color": "b",
    "ticks": 143040,
    "time": 145.17742200000015,
    "velocity": 0.7874015748031497
    },
    {
    "duration": 0.2133926437499838,
    "durationTicks": 239,
    "midi": 87,
    "color": "D6",
    "ticks": 143040,
    "time": 145.17742200000015,
    "velocity": 0.7874015748031497
    },
    {
    "duration": 0.2133926437499838,
    "durationTicks": 239,
    "midi": 99,
    "color": "D7",
    "ticks": 143040,
    "time": 145.17742200000015,
    "velocity": 0.7874015748031497
    },
    {
    "duration": 1.229317468749997,
    "durationTicks": 1367,
    "midi": 85,
    "color": "r",
    "ticks": 143520,
    "time": 145.60599300000013,
    "velocity": 0.7874015748031497
    },
    {
    "duration": 1.229317468749997,
    "durationTicks": 1367,
    "midi": 86,
    "color": "y",
    "ticks": 143520,
    "time": 145.60599300000013,
    "velocity": 0.7874015748031497
    },
    {
    "duration": 1.229317468749997,
    "durationTicks": 1367,
    "midi": 97,
    "color": "C7",
    "ticks": 143520,
    "time": 145.60599300000013,
    "velocity": 0.7874015748031497
    },
    {
    "duration": 1.229317468749997,
    "durationTicks": 1367,
    "midi": 98,
    "color": "D7",
    "ticks": 143520,
    "time": 145.60599300000013,
    "velocity": 0.7874015748031497
    },
    {
    "duration": 0.8192452187500123,
    "durationTicks": 911,
    "midi": 61,
    "color": "C4",
    "ticks": 143520,
    "time": 145.60599300000013,
    "velocity": 0.7874015748031497
    },
    {
    "duration": 0.8192452187500123,
    "durationTicks": 911,
    "midi": 73,
    "color": "C5",
    "ticks": 143520,
    "time": 145.60599300000013,
    "velocity": 0.7874015748031497
    },
    {
    "duration": 0.2196688833333269,
    "durationTicks": 239,
    "midi": 60,
    "color": "g",
    "ticks": 144960,
    "time": 146.90095800000012,
    "velocity": 0.7874015748031497
    },
    {
    "duration": 0.2196688833333269,
    "durationTicks": 239,
    "midi": 72,
    "color": "C5",
    "ticks": 144960,
    "time": 146.90095800000012,
    "velocity": 0.7874015748031497
    },
    {
    "duration": 0.2196688833333269,
    "durationTicks": 239,
    "midi": 84,
    "color": "C6",
    "ticks": 144960,
    "time": 146.90095800000012,
    "velocity": 0.7874015748031497
    },
    {
    "duration": 0.2196688833333269,
    "durationTicks": 239,
    "midi": 96,
    "color": "C7",
    "ticks": 144960,
    "time": 146.90095800000012,
    "velocity": 0.7874015748031497
    },
    {
    "duration": 0.2196688833333269,
    "durationTicks": 239,
    "midi": 87,
    "color": "b",
    "ticks": 145440,
    "time": 147.34213400000013,
    "velocity": 0.7874015748031497
    },
    {
    "duration": 0.2196688833333269,
    "durationTicks": 239,
    "midi": 99,
    "color": "D7",
    "ticks": 145440,
    "time": 147.34213400000013,
    "velocity": 0.7874015748031497
    },
    {
    "duration": 0.2196688833333269,
    "durationTicks": 239,
    "midi": 75,
    "color": "p",
    "ticks": 145920,
    "time": 147.7833100000001,
    "velocity": 0.7874015748031497
    },
    {
    "duration": 0.2196688833333269,
    "durationTicks": 239,
    "midi": 88,
    "color": "E6",
    "ticks": 145920,
    "time": 147.7833100000001,
    "velocity": 0.7874015748031497
    },
    {
    "duration": 0.2196688833333269,
    "durationTicks": 239,
    "midi": 100,
    "color": "E7",
    "ticks": 145920,
    "time": 147.7833100000001,
    "velocity": 0.7874015748031497
    },
    {
    "duration": 0.21492821875000345,
    "durationTicks": 239,
    "midi": 62,
    "color": "y",
    "ticks": 146400,
    "time": 148.22448600000013,
    "velocity": 0.7874015748031497
    },
    {
    "duration": 0.21492821875000345,
    "durationTicks": 239,
    "midi": 74,
    "color": "D5",
    "ticks": 146400,
    "time": 148.22448600000013,
    "velocity": 0.7874015748031497
    },
    {
    "duration": 0.21492821875000345,
    "durationTicks": 239,
    "midi": 86,
    "color": "D6",
    "ticks": 146400,
    "time": 148.22448600000013,
    "velocity": 0.7874015748031497
    },
    {
    "duration": 0.21492821875000345,
    "durationTicks": 239,
    "midi": 98,
    "color": "D7",
    "ticks": 146400,
    "time": 148.22448600000013,
    "velocity": 0.7874015748031497
    },
    {
    "duration": 0.21492821875000345,
    "durationTicks": 239,
    "midi": 75,
    "color": "p",
    "ticks": 146880,
    "time": 148.65614100000013,
    "velocity": 0.7874015748031497
    },
    {
    "duration": 0.21492821875000345,
    "durationTicks": 239,
    "midi": 88,
    "color": "E6",
    "ticks": 146880,
    "time": 148.65614100000013,
    "velocity": 0.7874015748031497
    },
    {
    "duration": 0.21492821875000345,
    "durationTicks": 239,
    "midi": 100,
    "color": "E7",
    "ticks": 146880,
    "time": 148.65614100000013,
    "velocity": 0.7874015748031497
    },
    {
    "duration": 0.21492821874997503,
    "durationTicks": 239,
    "midi": 99,
    "color": "b",
    "ticks": 147360,
    "time": 149.08779600000014,
    "velocity": 0.7874015748031497
    },
    {
    "duration": 0.22129607499999793,
    "durationTicks": 239,
    "midi": 60,
    "color": "g",
    "ticks": 147840,
    "time": 149.51945100000012,
    "velocity": 0.7874015748031497
    },
    {
    "duration": 0.22129607499999793,
    "durationTicks": 239,
    "midi": 72,
    "color": "C5",
    "ticks": 147840,
    "time": 149.51945100000012,
    "velocity": 0.7874015748031497
    },
    {
    "duration": 0.22129607499999793,
    "durationTicks": 239,
    "midi": 84,
    "color": "C6",
    "ticks": 147840,
    "time": 149.51945100000012,
    "velocity": 0.7874015748031497
    },
    {
    "duration": 0.22129607499999793,
    "durationTicks": 239,
    "midi": 96,
    "color": "C7",
    "ticks": 147840,
    "time": 149.51945100000012,
    "velocity": 0.7874015748031497
    },
    {
    "duration": 0.22129607499999793,
    "durationTicks": 239,
    "midi": 87,
    "color": "b",
    "ticks": 148320,
    "time": 149.96389500000012,
    "velocity": 0.7874015748031497
    },
    {
    "duration": 0.22129607499999793,
    "durationTicks": 239,
    "midi": 99,
    "color": "D7",
    "ticks": 148320,
    "time": 149.96389500000012,
    "velocity": 0.7874015748031497
    },
    {
    "duration": 0.22129607499999793,
    "durationTicks": 239,
    "midi": 75,
    "color": "p",
    "ticks": 148800,
    "time": 150.40833900000013,
    "velocity": 0.7874015748031497
    },
    {
    "duration": 0.22129607499999793,
    "durationTicks": 239,
    "midi": 88,
    "color": "E6",
    "ticks": 148800,
    "time": 150.40833900000013,
    "velocity": 0.7874015748031497
    },
    {
    "duration": 0.22129607499999793,
    "durationTicks": 239,
    "midi": 100,
    "color": "E7",
    "ticks": 148800,
    "time": 150.40833900000013,
    "velocity": 0.7874015748031497
    },
    {
    "duration": 0.21806559166665807,
    "durationTicks": 239,
    "midi": 61,
    "color": "r",
    "ticks": 149280,
    "time": 150.85278300000013,
    "velocity": 0.7874015748031497
    },
    {
    "duration": 0.21806559166665807,
    "durationTicks": 239,
    "midi": 73,
    "color": "C5",
    "ticks": 149280,
    "time": 150.85278300000013,
    "velocity": 0.7874015748031497
    },
    {
    "duration": 0.21806559166665807,
    "durationTicks": 239,
    "midi": 85,
    "color": "C6",
    "ticks": 149280,
    "time": 150.85278300000013,
    "velocity": 0.7874015748031497
    },
    {
    "duration": 0.21806559166665807,
    "durationTicks": 239,
    "midi": 97,
    "color": "C7",
    "ticks": 149280,
    "time": 150.85278300000013,
    "velocity": 0.7874015748031497
    },
    {
    "duration": 0.10857659166666167,
    "durationTicks": 119,
    "midi": 74,
    "color": "b",
    "ticks": 149760,
    "time": 151.29073900000014,
    "velocity": 0.7874015748031497
    },
    {
    "duration": 0.10857659166666167,
    "durationTicks": 119,
    "midi": 87,
    "color": "D6",
    "ticks": 149760,
    "time": 151.29073900000014,
    "velocity": 0.7874015748031497
    },
    {
    "duration": 0.10857659166666167,
    "durationTicks": 119,
    "midi": 99,
    "color": "D7",
    "ticks": 149760,
    "time": 151.29073900000014,
    "velocity": 0.7874015748031497
    },
    {
    "duration": 0.10857659166666167,
    "durationTicks": 119,
    "midi": 98,
    "color": "y",
    "ticks": 150000,
    "time": 151.50971700000014,
    "velocity": 0.7874015748031497
    },
    {
    "duration": 0.10857659166666167,
    "durationTicks": 119,
    "midi": 86,
    "color": "r",
    "ticks": 150480,
    "time": 151.94767300000012,
    "velocity": 0.7874015748031497
    },
    {
    "duration": 0.10857659166666167,
    "durationTicks": 119,
    "midi": 97,
    "color": "C7",
    "ticks": 150480,
    "time": 151.94767300000012,
    "velocity": 0.7874015748031497
    },
    {
    "duration": 0.21806559166665807,
    "durationTicks": 239,
    "midi": 60,
    "color": "g",
    "ticks": 150720,
    "time": 152.16665100000014,
    "velocity": 0.7874015748031497
    },
    {
    "duration": 0.21806559166665807,
    "durationTicks": 239,
    "midi": 72,
    "color": "C5",
    "ticks": 150720,
    "time": 152.16665100000014,
    "velocity": 0.7874015748031497
    },
    {
    "duration": 0.21806559166665807,
    "durationTicks": 239,
    "midi": 84,
    "color": "C6",
    "ticks": 150720,
    "time": 152.16665100000014,
    "velocity": 0.7874015748031497
    },
    {
    "duration": 0.21806559166665807,
    "durationTicks": 239,
    "midi": 96,
    "color": "C7",
    "ticks": 150720,
    "time": 152.16665100000014,
    "velocity": 0.7874015748031497
    },
    {
    "duration": 0.21806559166665807,
    "durationTicks": 239,
    "midi": 87,
    "color": "b",
    "ticks": 151200,
    "time": 152.60460700000013,
    "velocity": 0.7874015748031497
    },
    {
    "duration": 0.21806559166665807,
    "durationTicks": 239,
    "midi": 99,
    "color": "D7",
    "ticks": 151200,
    "time": 152.60460700000013,
    "velocity": 0.7874015748031497
    },
    {
    "duration": 0.21806559166665807,
    "durationTicks": 239,
    "midi": 75,
    "color": "p",
    "ticks": 151680,
    "time": 153.04256300000014,
    "velocity": 0.7874015748031497
    },
    {
    "duration": 0.21806559166665807,
    "durationTicks": 239,
    "midi": 88,
    "color": "E6",
    "ticks": 151680,
    "time": 153.04256300000014,
    "velocity": 0.7874015748031497
    },
    {
    "duration": 0.21806559166665807,
    "durationTicks": 239,
    "midi": 100,
    "color": "E7",
    "ticks": 151680,
    "time": 153.04256300000014,
    "velocity": 0.7874015748031497
    },
    {
    "duration": 0.21187947499998927,
    "durationTicks": 239,
    "midi": 62,
    "color": "y",
    "ticks": 152160,
    "time": 153.48051900000013,
    "velocity": 0.7874015748031497
    },
    {
    "duration": 0.21187947499998927,
    "durationTicks": 239,
    "midi": 74,
    "color": "D5",
    "ticks": 152160,
    "time": 153.48051900000013,
    "velocity": 0.7874015748031497
    },
    {
    "duration": 0.21187947499998927,
    "durationTicks": 239,
    "midi": 86,
    "color": "D6",
    "ticks": 152160,
    "time": 153.48051900000013,
    "velocity": 0.7874015748031497
    },
    {
    "duration": 0.21187947499998927,
    "durationTicks": 239,
    "midi": 98,
    "color": "D7",
    "ticks": 152160,
    "time": 153.48051900000013,
    "velocity": 0.7874015748031497
    },
    {
    "duration": 0.21187947499998927,
    "durationTicks": 239,
    "midi": 75,
    "color": "p",
    "ticks": 152640,
    "time": 153.90605100000013,
    "velocity": 0.7874015748031497
    },
    {
    "duration": 0.21187947499998927,
    "durationTicks": 239,
    "midi": 88,
    "color": "E6",
    "ticks": 152640,
    "time": 153.90605100000013,
    "velocity": 0.7874015748031497
    },
    {
    "duration": 0.21187947499998927,
    "durationTicks": 239,
    "midi": 100,
    "color": "E7",
    "ticks": 152640,
    "time": 153.90605100000013,
    "velocity": 0.7874015748031497
    },
    {
    "duration": 0.21187947499998927,
    "durationTicks": 239,
    "midi": 99,
    "color": "b",
    "ticks": 153120,
    "time": 154.33158300000014,
    "velocity": 0.7874015748031497
    },
    {
    "duration": 2.411344031249996,
    "durationTicks": 2735,
    "midi": 116,
    "color": "G8",
    "ticks": 153600,
    "time": 154.75711500000014,
    "velocity": 0.7874015748031497
    },
    {
    "duration": 0.21492821875000345,
    "durationTicks": 239,
    "midi": 61,
    "color": "g",
    "ticks": 153600,
    "time": 154.75711500000014,
    "velocity": 0.7874015748031497
    },
    {
    "duration": 0.21492821875000345,
    "durationTicks": 239,
    "midi": 72,
    "color": "C5",
    "ticks": 153600,
    "time": 154.75711500000014,
    "velocity": 0.7874015748031497
    },
    {
    "duration": 0.21492821875000345,
    "durationTicks": 239,
    "midi": 84,
    "color": "C6",
    "ticks": 153600,
    "time": 154.75711500000014,
    "velocity": 0.7874015748031497
    },
    {
    "duration": 0.21492821875000345,
    "durationTicks": 239,
    "midi": 96,
    "color": "C7",
    "ticks": 153600,
    "time": 154.75711500000014,
    "velocity": 0.7874015748031497
    },
    {
    "duration": 0.21492821875000345,
    "durationTicks": 239,
    "midi": 73,
    "color": "r",
    "ticks": 154080,
    "time": 155.18877000000015,
    "velocity": 0.7874015748031497
    },
    {
    "duration": 0.21492821875000345,
    "durationTicks": 239,
    "midi": 85,
    "color": "C6",
    "ticks": 154080,
    "time": 155.18877000000015,
    "velocity": 0.7874015748031497
    },
    {
    "duration": 0.21492821875000345,
    "durationTicks": 239,
    "midi": 97,
    "color": "C7",
    "ticks": 154080,
    "time": 155.18877000000015,
    "velocity": 0.7874015748031497
    },
    {
    "duration": 0.21492821874997503,
    "durationTicks": 239,
    "midi": 62,
    "color": "b",
    "ticks": 154560,
    "time": 155.62042500000015,
    "velocity": 0.7874015748031497
    },
    {
    "duration": 0.21492821874997503,
    "durationTicks": 239,
    "midi": 75,
    "color": "D5",
    "ticks": 154560,
    "time": 155.62042500000015,
    "velocity": 0.7874015748031497
    },
    {
    "duration": 0.21492821874997503,
    "durationTicks": 239,
    "midi": 87,
    "color": "D6",
    "ticks": 154560,
    "time": 155.62042500000015,
    "velocity": 0.7874015748031497
    },
    {
    "duration": 0.21492821874997503,
    "durationTicks": 239,
    "midi": 99,
    "color": "D7",
    "ticks": 154560,
    "time": 155.62042500000015,
    "velocity": 0.7874015748031497
    },
    {
    "duration": 0.20603443125000354,
    "durationTicks": 239,
    "midi": 85,
    "color": "r",
    "ticks": 155040,
    "time": 156.05208000000013,
    "velocity": 0.7874015748031497
    },
    {
    "duration": 0.20603443125000354,
    "durationTicks": 239,
    "midi": 97,
    "color": "y",
    "ticks": 155040,
    "time": 156.05208000000013,
    "velocity": 0.7874015748031497
    },
    {
    "duration": 0.20603443125000354,
    "durationTicks": 239,
    "midi": 98,
    "color": "D7",
    "ticks": 155040,
    "time": 156.05208000000013,
    "velocity": 0.7874015748031497
    },
    {
    "duration": 0.20603443125000354,
    "durationTicks": 239,
    "midi": 62,
    "color": "b",
    "ticks": 155520,
    "time": 156.46587300000013,
    "velocity": 0.7874015748031497
    },
    {
    "duration": 0.20603443125000354,
    "durationTicks": 239,
    "midi": 75,
    "color": "D5",
    "ticks": 155520,
    "time": 156.46587300000013,
    "velocity": 0.7874015748031497
    },
    {
    "duration": 0.20603443125000354,
    "durationTicks": 239,
    "midi": 87,
    "color": "D6",
    "ticks": 155520,
    "time": 156.46587300000013,
    "velocity": 0.7874015748031497
    },
    {
    "duration": 0.20603443125000354,
    "durationTicks": 239,
    "midi": 99,
    "color": "D7",
    "ticks": 155520,
    "time": 156.46587300000013,
    "velocity": 0.7874015748031497
    },
    {
    "duration": 0.20603443125000354,
    "durationTicks": 239,
    "midi": 73,
    "color": "r",
    "ticks": 156000,
    "time": 156.87966600000013,
    "velocity": 0.7874015748031497
    },
    {
    "duration": 0.20603443125000354,
    "durationTicks": 239,
    "midi": 97,
    "color": "C7",
    "ticks": 156000,
    "time": 156.87966600000013,
    "velocity": 0.7874015748031497
    },
    {
    "duration": 1.8096833604166704,
    "durationTicks": 1367,
    "midi": 61,
    "color": "y",
    "ticks": 156480,
    "time": 157.29345900000013,
    "velocity": 0.7874015748031497
    },
    {
    "duration": 1.8096833604166704,
    "durationTicks": 1367,
    "midi": 74,
    "color": "D5",
    "ticks": 156480,
    "time": 157.29345900000013,
    "velocity": 0.7874015748031497
    },
    {
    "duration": 1.8096833604166704,
    "durationTicks": 1367,
    "midi": 86,
    "color": "D6",
    "ticks": 156480,
    "time": 157.29345900000013,
    "velocity": 0.7874015748031497
    },
    {
    "duration": 1.8096833604166704,
    "durationTicks": 1367,
    "midi": 98,
    "color": "D7",
    "ticks": 156480,
    "time": 157.29345900000013,
    "velocity": 0.7874015748031497
    },
    {
    "duration": 0.15824471249999306,
    "durationTicks": 119,
    "midi": 60,
    "color": "g",
    "ticks": 158400,
    "time": 159.82419500000012,
    "velocity": 0.7874015748031497
    },
    {
    "duration": 0.15824471249999306,
    "durationTicks": 119,
    "midi": 72,
    "color": "C5",
    "ticks": 158400,
    "time": 159.82419500000012,
    "velocity": 0.7874015748031497
    },
    {
    "duration": 0.15824471249999306,
    "durationTicks": 119,
    "midi": 84,
    "color": "C6",
    "ticks": 158400,
    "time": 159.82419500000012,
    "velocity": 0.7874015748031497
    },
    {
    "duration": 0.15824471249999306,
    "durationTicks": 119,
    "midi": 96,
    "color": "C7",
    "ticks": 158400,
    "time": 159.82419500000012,
    "velocity": 0.7874015748031497
    },
    {
    "duration": 0.15824471249999306,
    "durationTicks": 119,
    "midi": 84,
    "color": "g",
    "ticks": 158640,
    "time": 160.14334400000013,
    "velocity": 0.7874015748031497
    },
    {
    "duration": 0.15824471249999306,
    "durationTicks": 119,
    "midi": 96,
    "color": "C7",
    "ticks": 158640,
    "time": 160.14334400000013,
    "velocity": 0.7874015748031497
    },
    {
    "duration": 0.15824471250002148,
    "durationTicks": 119,
    "midi": 73,
    "color": "r",
    "ticks": 158880,
    "time": 160.4624930000001,
    "velocity": 0.7874015748031497
    },
    {
    "duration": 0.15824471250002148,
    "durationTicks": 119,
    "midi": 85,
    "color": "C6",
    "ticks": 158880,
    "time": 160.4624930000001,
    "velocity": 0.7874015748031497
    },
    {
    "duration": 0.15824471250002148,
    "durationTicks": 119,
    "midi": 97,
    "color": "C7",
    "ticks": 158880,
    "time": 160.4624930000001,
    "velocity": 0.7874015748031497
    },
    {
    "duration": 0.15824471249999306,
    "durationTicks": 119,
    "midi": 98,
    "color": "y",
    "ticks": 159120,
    "time": 160.78164200000012,
    "velocity": 0.7874015748031497
    },
    {
    "duration": 0.1549479166666572,
    "durationTicks": 119,
    "midi": 61,
    "color": "r",
    "ticks": 159360,
    "time": 161.10079100000013,
    "velocity": 0.7874015748031497
    },
    {
    "duration": 0.1549479166666572,
    "durationTicks": 119,
    "midi": 74,
    "color": "D5",
    "ticks": 159360,
    "time": 161.10079100000013,
    "velocity": 0.7874015748031497
    },
    {
    "duration": 0.1549479166666572,
    "durationTicks": 119,
    "midi": 86,
    "color": "D6",
    "ticks": 159360,
    "time": 161.10079100000013,
    "velocity": 0.7874015748031497
    },
    {
    "duration": 0.1549479166666572,
    "durationTicks": 119,
    "midi": 97,
    "color": "C7",
    "ticks": 159360,
    "time": 161.10079100000013,
    "velocity": 0.7874015748031497
    },
    {
    "duration": 0.1549479166666572,
    "durationTicks": 119,
    "midi": 87,
    "color": "b",
    "ticks": 159600,
    "time": 161.41329100000013,
    "velocity": 0.7874015748031497
    },
    {
    "duration": 0.1549479166666572,
    "durationTicks": 119,
    "midi": 99,
    "color": "D7",
    "ticks": 159600,
    "time": 161.41329100000013,
    "velocity": 0.7874015748031497
    },
    {
    "duration": 0.1549479166666572,
    "durationTicks": 119,
    "midi": 75,
    "color": "p",
    "ticks": 159840,
    "time": 161.72579100000013,
    "velocity": 0.7874015748031497
    },
    {
    "duration": 0.1549479166666572,
    "durationTicks": 119,
    "midi": 88,
    "color": "E6",
    "ticks": 159840,
    "time": 161.72579100000013,
    "velocity": 0.7874015748031497
    },
    {
    "duration": 0.1549479166666572,
    "durationTicks": 119,
    "midi": 100,
    "color": "E7",
    "ticks": 159840,
    "time": 161.72579100000013,
    "velocity": 0.7874015748031497
    },
    {
    "duration": 0.44265470208333113,
    "durationTicks": 341,
    "midi": 99,
    "color": "b",
    "ticks": 160080,
    "time": 162.03829100000013,
    "velocity": 0.7874015748031497
    },
    {
    "duration": 0.1549479166666572,
    "durationTicks": 119,
    "midi": 62,
    "color": "D4",
    "ticks": 160080,
    "time": 162.03829100000013,
    "velocity": 0.7874015748031497
    },
    {
    "duration": 0.1549479166666572,
    "durationTicks": 119,
    "midi": 74,
    "color": "D5",
    "ticks": 160080,
    "time": 162.03829100000013,
    "velocity": 0.7874015748031497
    },
    {
    "duration": 0.1549479166666572,
    "durationTicks": 119,
    "midi": 87,
    "color": "D6",
    "ticks": 160080,
    "time": 162.03829100000013,
    "velocity": 0.7874015748031497
    },
    {
    "duration": 0.0760309645833388,
    "durationTicks": 59,
    "midi": 99,
    "color": "b",
    "ticks": 160560,
    "time": 162.66006950000013,
    "velocity": 0.7874015748031497
    },
    {
    "duration": 0.0760309645833388,
    "durationTicks": 59,
    "midi": 99,
    "color": "b",
    "ticks": 160680,
    "time": 162.81470875000014,
    "velocity": 0.7874015748031497
    },
    {
    "duration": 0.23067021458331283,
    "durationTicks": 179,
    "midi": 74,
    "color": "b",
    "ticks": 160800,
    "time": 162.96934800000014,
    "velocity": 0.7874015748031497
    },
    {
    "duration": 0.23067021458331283,
    "durationTicks": 179,
    "midi": 87,
    "color": "D6",
    "ticks": 160800,
    "time": 162.96934800000014,
    "velocity": 0.7874015748031497
    },
    {
    "duration": 0.23067021458331283,
    "durationTicks": 179,
    "midi": 99,
    "color": "D7",
    "ticks": 160800,
    "time": 162.96934800000014,
    "velocity": 0.7874015748031497
    },
    {
    "duration": 0.0760309645833388,
    "durationTicks": 59,
    "midi": 99,
    "color": "b",
    "ticks": 161160,
    "time": 163.43326575000012,
    "velocity": 0.7874015748031497
    },
    {
    "duration": 0.2260102479166619,
    "durationTicks": 179,
    "midi": 62,
    "color": "b",
    "ticks": 161280,
    "time": 163.58790500000012,
    "velocity": 0.7874015748031497
    },
    {
    "duration": 0.2260102479166619,
    "durationTicks": 179,
    "midi": 74,
    "color": "D5",
    "ticks": 161280,
    "time": 163.58790500000012,
    "velocity": 0.7874015748031497
    },
    {
    "duration": 0.2260102479166619,
    "durationTicks": 179,
    "midi": 87,
    "color": "D6",
    "ticks": 161280,
    "time": 163.58790500000012,
    "velocity": 0.7874015748031497
    },
    {
    "duration": 0.2260102479166619,
    "durationTicks": 179,
    "midi": 99,
    "color": "D7",
    "ticks": 161280,
    "time": 163.58790500000012,
    "velocity": 0.7874015748031497
    },
    {
    "duration": 0.07449499791667336,
    "durationTicks": 59,
    "midi": 99,
    "color": "b",
    "ticks": 161640,
    "time": 164.0424507500001,
    "velocity": 0.7874015748031497
    },
    {
    "duration": 0.2260102479166619,
    "durationTicks": 179,
    "midi": 74,
    "color": "b",
    "ticks": 161760,
    "time": 164.19396600000013,
    "velocity": 0.7874015748031497
    },
    {
    "duration": 0.2260102479166619,
    "durationTicks": 179,
    "midi": 87,
    "color": "D6",
    "ticks": 161760,
    "time": 164.19396600000013,
    "velocity": 0.7874015748031497
    },
    {
    "duration": 0.2260102479166619,
    "durationTicks": 179,
    "midi": 99,
    "color": "D7",
    "ticks": 161760,
    "time": 164.19396600000013,
    "velocity": 0.7874015748031497
    },
    {
    "duration": 0.14267686041665684,
    "durationTicks": 113,
    "midi": 99,
    "color": "b",
    "ticks": 162120,
    "time": 164.64851175000013,
    "velocity": 0.7874015748031497
    },
    {
    "duration": 0.15824471249999306,
    "durationTicks": 119,
    "midi": 60,
    "color": "g",
    "ticks": 162240,
    "time": 164.8000270000001,
    "velocity": 0.7874015748031497
    },
    {
    "duration": 0.15824471249999306,
    "durationTicks": 119,
    "midi": 72,
    "color": "C5",
    "ticks": 162240,
    "time": 164.8000270000001,
    "velocity": 0.7874015748031497
    },
    {
    "duration": 0.15824471249999306,
    "durationTicks": 119,
    "midi": 84,
    "color": "C6",
    "ticks": 162240,
    "time": 164.8000270000001,
    "velocity": 0.7874015748031497
    },
    {
    "duration": 0.15824471249999306,
    "durationTicks": 119,
    "midi": 96,
    "color": "C7",
    "ticks": 162240,
    "time": 164.8000270000001,
    "velocity": 0.7874015748031497
    },
    {
    "duration": 0.15824471249999306,
    "durationTicks": 119,
    "midi": 84,
    "color": "g",
    "ticks": 162480,
    "time": 165.11917600000012,
    "velocity": 0.7874015748031497
    },
    {
    "duration": 0.15824471249999306,
    "durationTicks": 119,
    "midi": 96,
    "color": "C7",
    "ticks": 162480,
    "time": 165.11917600000012,
    "velocity": 0.7874015748031497
    },
    {
    "duration": 0.15824471250002148,
    "durationTicks": 119,
    "midi": 73,
    "color": "r",
    "ticks": 162720,
    "time": 165.4383250000001,
    "velocity": 0.7874015748031497
    },
    {
    "duration": 0.15824471250002148,
    "durationTicks": 119,
    "midi": 85,
    "color": "C6",
    "ticks": 162720,
    "time": 165.4383250000001,
    "velocity": 0.7874015748031497
    },
    {
    "duration": 0.15824471250002148,
    "durationTicks": 119,
    "midi": 97,
    "color": "C7",
    "ticks": 162720,
    "time": 165.4383250000001,
    "velocity": 0.7874015748031497
    },
    {
    "duration": 0.15824471249999306,
    "durationTicks": 119,
    "midi": 98,
    "color": "y",
    "ticks": 162960,
    "time": 165.75747400000012,
    "velocity": 0.7874015748031497
    },
    {
    "duration": 0.15178573958334596,
    "durationTicks": 119,
    "midi": 61,
    "color": "r",
    "ticks": 163200,
    "time": 166.07662300000013,
    "velocity": 0.7874015748031497
    },
    {
    "duration": 0.15178573958334596,
    "durationTicks": 119,
    "midi": 74,
    "color": "D5",
    "ticks": 163200,
    "time": 166.07662300000013,
    "velocity": 0.7874015748031497
    },
    {
    "duration": 0.15178573958334596,
    "durationTicks": 119,
    "midi": 86,
    "color": "D6",
    "ticks": 163200,
    "time": 166.07662300000013,
    "velocity": 0.7874015748031497
    },
    {
    "duration": 0.15178573958334596,
    "durationTicks": 119,
    "midi": 97,
    "color": "C7",
    "ticks": 163200,
    "time": 166.07662300000013,
    "velocity": 0.7874015748031497
    },
    {
    "duration": 0.15178573958334596,
    "durationTicks": 119,
    "midi": 87,
    "color": "b",
    "ticks": 163440,
    "time": 166.3827455000001,
    "velocity": 0.7874015748031497
    },
    {
    "duration": 0.15178573958334596,
    "durationTicks": 119,
    "midi": 99,
    "color": "D7",
    "ticks": 163440,
    "time": 166.3827455000001,
    "velocity": 0.7874015748031497
    },
    {
    "duration": 0.15178573958331754,
    "durationTicks": 119,
    "midi": 75,
    "color": "p",
    "ticks": 163680,
    "time": 166.68886800000013,
    "velocity": 0.7874015748031497
    },
    {
    "duration": 0.15178573958331754,
    "durationTicks": 119,
    "midi": 88,
    "color": "E6",
    "ticks": 163680,
    "time": 166.68886800000013,
    "velocity": 0.7874015748031497
    },
    {
    "duration": 0.15178573958331754,
    "durationTicks": 119,
    "midi": 100,
    "color": "E7",
    "ticks": 163680,
    "time": 166.68886800000013,
    "velocity": 0.7874015748031497
    },
    {
    "duration": 0.4336478354166786,
    "durationTicks": 341,
    "midi": 99,
    "color": "b",
    "ticks": 163920,
    "time": 166.9949905000001,
    "velocity": 0.7874015748031497
    },
    {
    "duration": 0.15178573958334596,
    "durationTicks": 119,
    "midi": 62,
    "color": "D4",
    "ticks": 163920,
    "time": 166.9949905000001,
    "velocity": 0.7874015748031497
    },
    {
    "duration": 0.15178573958334596,
    "durationTicks": 119,
    "midi": 74,
    "color": "D5",
    "ticks": 163920,
    "time": 166.9949905000001,
    "velocity": 0.7874015748031497
    },
    {
    "duration": 0.15178573958334596,
    "durationTicks": 119,
    "midi": 87,
    "color": "D6",
    "ticks": 163920,
    "time": 166.9949905000001,
    "velocity": 0.7874015748031497
    },
    {
    "duration": 0.15025262291666763,
    "durationTicks": 119,
    "midi": 99,
    "color": "b",
    "ticks": 164400,
    "time": 167.60414350000013,
    "velocity": 0.7874015748031497
    },
    {
    "duration": 0.2260102479166619,
    "durationTicks": 179,
    "midi": 74,
    "color": "b",
    "ticks": 164640,
    "time": 167.90717400000014,
    "velocity": 0.7874015748031497
    },
    {
    "duration": 0.2260102479166619,
    "durationTicks": 179,
    "midi": 87,
    "color": "D6",
    "ticks": 164640,
    "time": 167.90717400000014,
    "velocity": 0.7874015748031497
    },
    {
    "duration": 0.2260102479166619,
    "durationTicks": 179,
    "midi": 99,
    "color": "D7",
    "ticks": 164640,
    "time": 167.90717400000014,
    "velocity": 0.7874015748031497
    },
    {
    "duration": 0.07449499791667336,
    "durationTicks": 59,
    "midi": 99,
    "color": "b",
    "ticks": 165000,
    "time": 168.36171975000013,
    "velocity": 0.7874015748031497
    },
    {
    "duration": 0.22831636458332127,
    "durationTicks": 179,
    "midi": 62,
    "color": "b",
    "ticks": 165120,
    "time": 168.51323500000012,
    "velocity": 0.7874015748031497
    },
    {
    "duration": 0.22831636458332127,
    "durationTicks": 179,
    "midi": 74,
    "color": "D5",
    "ticks": 165120,
    "time": 168.51323500000012,
    "velocity": 0.7874015748031497
    },
    {
    "duration": 0.22831636458332127,
    "durationTicks": 179,
    "midi": 87,
    "color": "D6",
    "ticks": 165120,
    "time": 168.51323500000012,
    "velocity": 0.7874015748031497
    },
    {
    "duration": 0.22831636458332127,
    "durationTicks": 179,
    "midi": 99,
    "color": "D7",
    "ticks": 165120,
    "time": 168.51323500000012,
    "velocity": 0.7874015748031497
    },
    {
    "duration": 0.07525511458334222,
    "durationTicks": 59,
    "midi": 99,
    "color": "b",
    "ticks": 165480,
    "time": 168.97241875000012,
    "velocity": 0.7874015748031497
    },
    {
    "duration": 0.15178573958334596,
    "durationTicks": 119,
    "midi": 74,
    "color": "b",
    "ticks": 165600,
    "time": 169.12548000000012,
    "velocity": 0.7874015748031497
    },
    {
    "duration": 0.15178573958334596,
    "durationTicks": 119,
    "midi": 87,
    "color": "D6",
    "ticks": 165600,
    "time": 169.12548000000012,
    "velocity": 0.7874015748031497
    },
    {
    "duration": 0.15178573958334596,
    "durationTicks": 119,
    "midi": 99,
    "color": "D7",
    "ticks": 165600,
    "time": 169.12548000000012,
    "velocity": 0.7874015748031497
    },
    {
    "duration": 0.15178573958334596,
    "durationTicks": 119,
    "midi": 99,
    "color": "b",
    "ticks": 165840,
    "time": 169.4316025000001,
    "velocity": 0.7874015748031497
    },
    {
    "duration": 2.3287500000000136,
    "durationTicks": 1823,
    "midi": 116,
    "color": "g",
    "ticks": 166080,
    "time": 169.73772500000013,
    "velocity": 0.7874015748031497
    },
    {
    "duration": 0.3111979166666572,
    "durationTicks": 239,
    "midi": 60,
    "color": "C4",
    "ticks": 166080,
    "time": 169.73772500000013,
    "velocity": 0.7874015748031497
    },
    {
    "duration": 0.3111979166666572,
    "durationTicks": 239,
    "midi": 72,
    "color": "C5",
    "ticks": 166080,
    "time": 169.73772500000013,
    "velocity": 0.7874015748031497
    },
    {
    "duration": 0.3111979166666572,
    "durationTicks": 239,
    "midi": 84,
    "color": "C6",
    "ticks": 166080,
    "time": 169.73772500000013,
    "velocity": 0.7874015748031497
    },
    {
    "duration": 0.3111979166666572,
    "durationTicks": 239,
    "midi": 96,
    "color": "C7",
    "ticks": 166080,
    "time": 169.73772500000013,
    "velocity": 0.7874015748031497
    },
    {
    "duration": 0.2955729166666572,
    "durationTicks": 227,
    "midi": 84,
    "color": "g",
    "ticks": 166320,
    "time": 170.05022500000013,
    "velocity": 0.7874015748031497
    },
    {
    "duration": 0.2955729166666572,
    "durationTicks": 227,
    "midi": 96,
    "color": "C7",
    "ticks": 166320,
    "time": 170.05022500000013,
    "velocity": 0.7874015748031497
    },
    {
    "duration": 0.2955729166666572,
    "durationTicks": 227,
    "midi": 73,
    "color": "C5",
    "ticks": 166560,
    "time": 170.36272500000013,
    "velocity": 0.7874015748031497
    },
    {
    "duration": 0.2955729166666572,
    "durationTicks": 227,
    "midi": 85,
    "color": "C6",
    "ticks": 166560,
    "time": 170.36272500000013,
    "velocity": 0.7874015748031497
    },
    {
    "duration": 0.2955729166666572,
    "durationTicks": 227,
    "midi": 97,
    "color": "r",
    "ticks": 166560,
    "time": 170.36272500000013,
    "velocity": 0.7874015748031497
    },
    {
    "duration": 0.2955729166666572,
    "durationTicks": 227,
    "midi": 98,
    "color": "y",
    "ticks": 166800,
    "time": 170.67522500000013,
    "velocity": 0.7874015748031497
    },
    {
    "duration": 0.2837499999999977,
    "durationTicks": 227,
    "midi": 61,
    "color": "r",
    "ticks": 167040,
    "time": 170.98772500000013,
    "velocity": 0.7874015748031497
    },
    {
    "duration": 0.2837499999999977,
    "durationTicks": 227,
    "midi": 74,
    "color": "D5",
    "ticks": 167040,
    "time": 170.98772500000013,
    "velocity": 0.7874015748031497
    },
    {
    "duration": 0.2837499999999977,
    "durationTicks": 227,
    "midi": 86,
    "color": "D6",
    "ticks": 167040,
    "time": 170.98772500000013,
    "velocity": 0.7874015748031497
    },
    {
    "duration": 0.2837499999999977,
    "durationTicks": 227,
    "midi": 97,
    "color": "C7",
    "ticks": 167040,
    "time": 170.98772500000013,
    "velocity": 0.7874015748031497
    },
    {
    "duration": 0.2837499999999977,
    "durationTicks": 227,
    "midi": 87,
    "color": "b",
    "ticks": 167280,
    "time": 171.28772500000014,
    "velocity": 0.7874015748031497
    },
    {
    "duration": 0.2837499999999977,
    "durationTicks": 227,
    "midi": 99,
    "color": "D7",
    "ticks": 167280,
    "time": 171.28772500000014,
    "velocity": 0.7874015748031497
    },
    {
    "duration": 0.2837499999999977,
    "durationTicks": 227,
    "midi": 75,
    "color": "p",
    "ticks": 167520,
    "time": 171.58772500000012,
    "velocity": 0.7874015748031497
    },
    {
    "duration": 0.2837499999999977,
    "durationTicks": 227,
    "midi": 88,
    "color": "E6",
    "ticks": 167520,
    "time": 171.58772500000012,
    "velocity": 0.7874015748031497
    },
    {
    "duration": 0.2837499999999977,
    "durationTicks": 227,
    "midi": 100,
    "color": "E7",
    "ticks": 167520,
    "time": 171.58772500000012,
    "velocity": 0.7874015748031497
    },
    {
    "duration": 0.5714648229166528,
    "durationTicks": 455,
    "midi": 99,
    "color": "b",
    "ticks": 167760,
    "time": 171.88772500000013,
    "velocity": 0.7874015748031497
    },
    {
    "duration": 0.14875000000000682,
    "durationTicks": 119,
    "midi": 62,
    "color": "D4",
    "ticks": 167760,
    "time": 171.88772500000013,
    "velocity": 0.7874015748031497
    },
    {
    "duration": 0.14875000000000682,
    "durationTicks": 119,
    "midi": 74,
    "color": "D5",
    "ticks": 167760,
    "time": 171.88772500000013,
    "velocity": 0.7874015748031497
    },
    {
    "duration": 0.14875000000000682,
    "durationTicks": 119,
    "midi": 87,
    "color": "D6",
    "ticks": 167760,
    "time": 171.88772500000013,
    "velocity": 0.7874015748031497
    },
    {
    "duration": 0.07449499791667336,
    "durationTicks": 59,
    "midi": 99,
    "color": "b",
    "ticks": 168360,
    "time": 172.6422707500001,
    "velocity": 0.7874015748031497
    },
    {
    "duration": 0.2260102479166619,
    "durationTicks": 179,
    "midi": 74,
    "color": "b",
    "ticks": 168480,
    "time": 172.79378600000013,
    "velocity": 0.7874015748031497
    },
    {
    "duration": 0.2260102479166619,
    "durationTicks": 179,
    "midi": 87,
    "color": "D6",
    "ticks": 168480,
    "time": 172.79378600000013,
    "velocity": 0.7874015748031497
    },
    {
    "duration": 0.2260102479166619,
    "durationTicks": 179,
    "midi": 99,
    "color": "D7",
    "ticks": 168480,
    "time": 172.79378600000013,
    "velocity": 0.7874015748031497
    },
    {
    "duration": 0.07449499791667336,
    "durationTicks": 59,
    "midi": 99,
    "color": "b",
    "ticks": 168840,
    "time": 173.24833175000012,
    "velocity": 0.7874015748031497
    },
    {
    "duration": 0.15025262291666763,
    "durationTicks": 119,
    "midi": 62,
    "color": "b",
    "ticks": 168960,
    "time": 173.3998470000001,
    "velocity": 0.7874015748031497
    },
    {
    "duration": 0.15025262291666763,
    "durationTicks": 119,
    "midi": 74,
    "color": "D5",
    "ticks": 168960,
    "time": 173.3998470000001,
    "velocity": 0.7874015748031497
    },
    {
    "duration": 0.15025262291666763,
    "durationTicks": 119,
    "midi": 87,
    "color": "D6",
    "ticks": 168960,
    "time": 173.3998470000001,
    "velocity": 0.7874015748031497
    },
    {
    "duration": 0.15025262291666763,
    "durationTicks": 119,
    "midi": 99,
    "color": "D7",
    "ticks": 168960,
    "time": 173.3998470000001,
    "velocity": 0.7874015748031497
    },
    {
    "duration": 0.07449499791667336,
    "durationTicks": 59,
    "midi": 99,
    "color": "b",
    "ticks": 169200,
    "time": 173.7028775000001,
    "velocity": 0.7874015748031497
    },
    {
    "duration": 0.07449499791667336,
    "durationTicks": 59,
    "midi": 99,
    "color": "b",
    "ticks": 169320,
    "time": 173.8543927500001,
    "velocity": 0.7874015748031497
    },
    {
    "duration": 0.07449499791667336,
    "durationTicks": 59,
    "midi": 74,
    "color": "b",
    "ticks": 169440,
    "time": 174.00590800000012,
    "velocity": 0.7874015748031497
    },
    {
    "duration": 0.07449499791667336,
    "durationTicks": 59,
    "midi": 87,
    "color": "D6",
    "ticks": 169440,
    "time": 174.00590800000012,
    "velocity": 0.7874015748031497
    },
    {
    "duration": 0.07449499791667336,
    "durationTicks": 59,
    "midi": 99,
    "color": "D7",
    "ticks": 169440,
    "time": 174.00590800000012,
    "velocity": 0.7874015748031497
    },
    {
    "duration": 0.07449499791667336,
    "durationTicks": 59,
    "midi": 99,
    "color": "b",
    "ticks": 169560,
    "time": 174.1574232500001,
    "velocity": 0.7874015748031497
    },
    {
    "duration": 0.15025262291666763,
    "durationTicks": 119,
    "midi": 99,
    "color": "b",
    "ticks": 169680,
    "time": 174.30893850000012,
    "velocity": 0.7874015748031497
    },
    {
    "duration": 1.1739696395833334,
    "durationTicks": 911,
    "midi": 62,
    "color": "b",
    "ticks": 169920,
    "time": 174.6119690000001,
    "velocity": 0.7874015748031497
    },
    {
    "duration": 1.1739696395833334,
    "durationTicks": 911,
    "midi": 74,
    "color": "D5",
    "ticks": 169920,
    "time": 174.6119690000001,
    "velocity": 0.7874015748031497
    },
    {
    "duration": 1.1739696395833334,
    "durationTicks": 911,
    "midi": 87,
    "color": "D6",
    "ticks": 169920,
    "time": 174.6119690000001,
    "velocity": 0.7874015748031497
    },
    {
    "duration": 1.1739696395833334,
    "durationTicks": 911,
    "midi": 99,
    "color": "D7",
    "ticks": 169920,
    "time": 174.6119690000001,
    "velocity": 0.7874015748031497
    },
    {
    "duration": 0.07525511458334222,
    "durationTicks": 59,
    "midi": 62,
    "color": "y",
    "ticks": 170880,
    "time": 175.8490830000001,
    "velocity": 0.7874015748031497
    },
    {
    "duration": 0.07525511458334222,
    "durationTicks": 59,
    "midi": 74,
    "color": "D5",
    "ticks": 170880,
    "time": 175.8490830000001,
    "velocity": 0.7874015748031497
    },
    {
    "duration": 0.07525511458334222,
    "durationTicks": 59,
    "midi": 87,
    "color": "D6",
    "ticks": 170880,
    "time": 175.8490830000001,
    "velocity": 0.7874015748031497
    },
    {
    "duration": 0.07525511458334222,
    "durationTicks": 59,
    "midi": 98,
    "color": "D7",
    "ticks": 170880,
    "time": 175.8490830000001,
    "velocity": 0.7874015748031497
    },
    {
    "duration": 0.0752551145833138,
    "durationTicks": 59,
    "midi": 99,
    "color": "b",
    "ticks": 171000,
    "time": 176.0021442500001,
    "velocity": 0.7874015748031497
    },
    {
    "duration": 0.15178573958334596,
    "durationTicks": 119,
    "midi": 87,
    "color": "b",
    "ticks": 171120,
    "time": 176.15520550000008,
    "velocity": 0.7874015748031497
    },
    {
    "duration": 0.15178573958334596,
    "durationTicks": 119,
    "midi": 99,
    "color": "D7",
    "ticks": 171120,
    "time": 176.15520550000008,
    "velocity": 0.7874015748031497
    },
    {
    "duration": 0.15178573958331754,
    "durationTicks": 119,
    "midi": 74,
    "color": "b",
    "ticks": 171360,
    "time": 176.4613280000001,
    "velocity": 0.7874015748031497
    },
    {
    "duration": 0.15178573958331754,
    "durationTicks": 119,
    "midi": 87,
    "color": "D6",
    "ticks": 171360,
    "time": 176.4613280000001,
    "velocity": 0.7874015748031497
    },
    {
    "duration": 0.15178573958331754,
    "durationTicks": 119,
    "midi": 99,
    "color": "D7",
    "ticks": 171360,
    "time": 176.4613280000001,
    "velocity": 0.7874015748031497
    },
    {
    "duration": 0.15178573958334596,
    "durationTicks": 119,
    "midi": 87,
    "color": "b",
    "ticks": 171600,
    "time": 176.76745050000008,
    "velocity": 0.7874015748031497
    },
    {
    "duration": 0.15178573958334596,
    "durationTicks": 119,
    "midi": 99,
    "color": "D7",
    "ticks": 171600,
    "time": 176.76745050000008,
    "velocity": 0.7874015748031497
    },
    {
    "duration": 1.1861979166666572,
    "durationTicks": 911,
    "midi": 61,
    "color": "r",
    "ticks": 171840,
    "time": 177.0735730000001,
    "velocity": 0.7874015748031497
    },
    {
    "duration": 1.1861979166666572,
    "durationTicks": 911,
    "midi": 73,
    "color": "C5",
    "ticks": 171840,
    "time": 177.0735730000001,
    "velocity": 0.7874015748031497
    },
    {
    "duration": 1.1861979166666572,
    "durationTicks": 911,
    "midi": 85,
    "color": "C6",
    "ticks": 171840,
    "time": 177.0735730000001,
    "velocity": 0.7874015748031497
    },
    {
    "duration": 1.1861979166666572,
    "durationTicks": 911,
    "midi": 97,
    "color": "C7",
    "ticks": 171840,
    "time": 177.0735730000001,
    "velocity": 0.7874015748031497
    },
    {
    "duration": 0.15335058958334002,
    "durationTicks": 119,
    "midi": 61,
    "color": "r",
    "ticks": 172800,
    "time": 178.3235730000001,
    "velocity": 0.7874015748031497
    },
    {
    "duration": 0.15335058958334002,
    "durationTicks": 119,
    "midi": 73,
    "color": "C5",
    "ticks": 172800,
    "time": 178.3235730000001,
    "velocity": 0.7874015748031497
    },
    {
    "duration": 0.15335058958334002,
    "durationTicks": 119,
    "midi": 85,
    "color": "C6",
    "ticks": 172800,
    "time": 178.3235730000001,
    "velocity": 0.7874015748031497
    },
    {
    "duration": 0.15335058958334002,
    "durationTicks": 119,
    "midi": 97,
    "color": "C7",
    "ticks": 172800,
    "time": 178.3235730000001,
    "velocity": 0.7874015748031497
    },
    {
    "duration": 0.15335058958334002,
    "durationTicks": 119,
    "midi": 85,
    "color": "r",
    "ticks": 173040,
    "time": 178.6328515000001,
    "velocity": 0.7874015748031497
    },
    {
    "duration": 0.15335058958334002,
    "durationTicks": 119,
    "midi": 97,
    "color": "C7",
    "ticks": 173040,
    "time": 178.6328515000001,
    "velocity": 0.7874015748031497
    },
    {
    "duration": 0.07603096458331038,
    "durationTicks": 59,
    "midi": 97,
    "color": "r",
    "ticks": 173280,
    "time": 178.9421300000001,
    "velocity": 0.7874015748031497
    },
    {
    "duration": 0.07603096458331038,
    "durationTicks": 59,
    "midi": 97,
    "color": "r",
    "ticks": 173400,
    "time": 179.0967692500001,
    "velocity": 0.7874015748031497
    },
    {
    "duration": 0.0760309645833388,
    "durationTicks": 59,
    "midi": 73,
    "color": "r",
    "ticks": 173520,
    "time": 179.25140850000008,
    "velocity": 0.7874015748031497
    },
    {
    "duration": 0.0760309645833388,
    "durationTicks": 59,
    "midi": 85,
    "color": "C6",
    "ticks": 173520,
    "time": 179.25140850000008,
    "velocity": 0.7874015748031497
    },
    {
    "duration": 0.0760309645833388,
    "durationTicks": 59,
    "midi": 97,
    "color": "C7",
    "ticks": 173520,
    "time": 179.25140850000008,
    "velocity": 0.7874015748031497
    },
    {
    "duration": 0.0760309645833388,
    "durationTicks": 59,
    "midi": 96,
    "color": "g",
    "ticks": 173640,
    "time": 179.40604775000008,
    "velocity": 0.7874015748031497
    },
    {
    "duration": 0.15335058958334002,
    "durationTicks": 119,
    "midi": 60,
    "color": "g",
    "ticks": 173760,
    "time": 179.5606870000001,
    "velocity": 0.7874015748031497
    },
    {
    "duration": 0.15335058958334002,
    "durationTicks": 119,
    "midi": 72,
    "color": "C5",
    "ticks": 173760,
    "time": 179.5606870000001,
    "velocity": 0.7874015748031497
    },
    {
    "duration": 0.15335058958334002,
    "durationTicks": 119,
    "midi": 84,
    "color": "C6",
    "ticks": 173760,
    "time": 179.5606870000001,
    "velocity": 0.7874015748031497
    },
    {
    "duration": 0.15335058958334002,
    "durationTicks": 119,
    "midi": 96,
    "color": "C7",
    "ticks": 173760,
    "time": 179.5606870000001,
    "velocity": 0.7874015748031497
    },
    {
    "duration": 0.15335058958334002,
    "durationTicks": 119,
    "midi": 84,
    "color": "g",
    "ticks": 174000,
    "time": 179.8699655000001,
    "velocity": 0.7874015748031497
    },
    {
    "duration": 0.15335058958334002,
    "durationTicks": 119,
    "midi": 96,
    "color": "C7",
    "ticks": 174000,
    "time": 179.8699655000001,
    "velocity": 0.7874015748031497
    },
    {
    "duration": 0.15335058958334002,
    "durationTicks": 119,
    "midi": 73,
    "color": "r",
    "ticks": 174240,
    "time": 180.1792440000001,
    "velocity": 0.7874015748031497
    },
    {
    "duration": 0.15335058958334002,
    "durationTicks": 119,
    "midi": 85,
    "color": "C6",
    "ticks": 174240,
    "time": 180.1792440000001,
    "velocity": 0.7874015748031497
    },
    {
    "duration": 0.15335058958334002,
    "durationTicks": 119,
    "midi": 97,
    "color": "C7",
    "ticks": 174240,
    "time": 180.1792440000001,
    "velocity": 0.7874015748031497
    },
    {
    "duration": 0.15335058958334002,
    "durationTicks": 119,
    "midi": 98,
    "color": "y",
    "ticks": 174480,
    "time": 180.4885225000001,
    "velocity": 0.7874015748031497
    },
    {
    "duration": 0.15025262291666763,
    "durationTicks": 119,
    "midi": 61,
    "color": "r",
    "ticks": 174720,
    "time": 180.7978010000001,
    "velocity": 0.7874015748031497
    },
    {
    "duration": 0.15025262291666763,
    "durationTicks": 119,
    "midi": 74,
    "color": "D5",
    "ticks": 174720,
    "time": 180.7978010000001,
    "velocity": 0.7874015748031497
    },
    {
    "duration": 0.15025262291666763,
    "durationTicks": 119,
    "midi": 86,
    "color": "D6",
    "ticks": 174720,
    "time": 180.7978010000001,
    "velocity": 0.7874015748031497
    },
    {
    "duration": 0.15025262291666763,
    "durationTicks": 119,
    "midi": 97,
    "color": "C7",
    "ticks": 174720,
    "time": 180.7978010000001,
    "velocity": 0.7874015748031497
    },
    {
    "duration": 0.15025262291666763,
    "durationTicks": 119,
    "midi": 87,
    "color": "D6",
    "ticks": 174960,
    "time": 181.1008315000001,
    "velocity": 0.7874015748031497
    },
    {
    "duration": 0.15025262291666763,
    "durationTicks": 119,
    "midi": 99,
    "color": "D7",
    "ticks": 174960,
    "time": 181.1008315000001,
    "velocity": 0.7874015748031497
    },
    {
    "duration": 0.15025262291666763,
    "durationTicks": 119,
    "midi": 75,
    "color": "p",
    "ticks": 175200,
    "time": 181.40386200000012,
    "velocity": 0.7874015748031497
    },
    {
    "duration": 0.15025262291666763,
    "durationTicks": 119,
    "midi": 88,
    "color": "E6",
    "ticks": 175200,
    "time": 181.40386200000012,
    "velocity": 0.7874015748031497
    },
    {
    "duration": 0.15025262291666763,
    "durationTicks": 119,
    "midi": 100,
    "color": "E7",
    "ticks": 175200,
    "time": 181.40386200000012,
    "velocity": 0.7874015748031497
    },
    {
    "duration": 0.43318520208333666,
    "durationTicks": 341,
    "midi": 99,
    "color": "b",
    "ticks": 175440,
    "time": 181.7068925000001,
    "velocity": 0.7874015748031497
    },
    {
    "duration": 0.15025262291666763,
    "durationTicks": 119,
    "midi": 62,
    "color": "D4",
    "ticks": 175440,
    "time": 181.7068925000001,
    "velocity": 0.7874015748031497
    },
    {
    "duration": 0.15025262291666763,
    "durationTicks": 119,
    "midi": 74,
    "color": "D5",
    "ticks": 175440,
    "time": 181.7068925000001,
    "velocity": 0.7874015748031497
    },
    {
    "duration": 0.15025262291666763,
    "durationTicks": 119,
    "midi": 87,
    "color": "D6",
    "ticks": 175440,
    "time": 181.7068925000001,
    "velocity": 0.7874015748031497
    },
    {
    "duration": 0.15335058958334002,
    "durationTicks": 119,
    "midi": 99,
    "color": "b",
    "ticks": 175920,
    "time": 182.3192015000001,
    "velocity": 0.7874015748031497
    },
    {
    "duration": 0.30798983958331405,
    "durationTicks": 239,
    "midi": 74,
    "color": "b",
    "ticks": 176160,
    "time": 182.6284800000001,
    "velocity": 0.7874015748031497
    },
    {
    "duration": 0.30798983958331405,
    "durationTicks": 239,
    "midi": 87,
    "color": "D6",
    "ticks": 176160,
    "time": 182.6284800000001,
    "velocity": 0.7874015748031497
    },
    {
    "duration": 0.30798983958331405,
    "durationTicks": 239,
    "midi": 99,
    "color": "D7",
    "ticks": 176160,
    "time": 182.6284800000001,
    "velocity": 0.7874015748031497
    },
    {
    "duration": 0.2215345020833297,
    "durationTicks": 179,
    "midi": 62,
    "color": "b",
    "ticks": 176640,
    "time": 183.2470370000001,
    "velocity": 0.7874015748031497
    },
    {
    "duration": 0.2215345020833297,
    "durationTicks": 179,
    "midi": 74,
    "color": "D5",
    "ticks": 176640,
    "time": 183.2470370000001,
    "velocity": 0.7874015748031497
    },
    {
    "duration": 0.2215345020833297,
    "durationTicks": 179,
    "midi": 87,
    "color": "D6",
    "ticks": 176640,
    "time": 183.2470370000001,
    "velocity": 0.7874015748031497
    },
    {
    "duration": 0.2215345020833297,
    "durationTicks": 179,
    "midi": 99,
    "color": "D7",
    "ticks": 176640,
    "time": 183.2470370000001,
    "velocity": 0.7874015748031497
    },
    {
    "duration": 0.07301975208332578,
    "durationTicks": 59,
    "midi": 99,
    "color": "b",
    "ticks": 177000,
    "time": 183.6925812500001,
    "velocity": 0.7874015748031497
    },
    {
    "duration": 0.14727712708335616,
    "durationTicks": 119,
    "midi": 74,
    "color": "b",
    "ticks": 177120,
    "time": 183.84109600000008,
    "velocity": 0.7874015748031497
    },
    {
    "duration": 0.14727712708335616,
    "durationTicks": 119,
    "midi": 87,
    "color": "D6",
    "ticks": 177120,
    "time": 183.84109600000008,
    "velocity": 0.7874015748031497
    },
    {
    "duration": 0.14727712708335616,
    "durationTicks": 119,
    "midi": 99,
    "color": "D7",
    "ticks": 177120,
    "time": 183.84109600000008,
    "velocity": 0.7874015748031497
    },
    {
    "duration": 0.07301975208332578,
    "durationTicks": 59,
    "midi": 99,
    "color": "b",
    "ticks": 177360,
    "time": 184.1381255000001,
    "velocity": 0.7874015748031497
    },
    {
    "duration": 0.07301975208332578,
    "durationTicks": 59,
    "midi": 99,
    "color": "b",
    "ticks": 177480,
    "time": 184.2866402500001,
    "velocity": 0.7874015748031497
    },
    {
    "duration": 0.15178573958334596,
    "durationTicks": 119,
    "midi": 60,
    "color": "g",
    "ticks": 177600,
    "time": 184.4351550000001,
    "velocity": 0.7874015748031497
    },
    {
    "duration": 0.15178573958334596,
    "durationTicks": 119,
    "midi": 72,
    "color": "C5",
    "ticks": 177600,
    "time": 184.4351550000001,
    "velocity": 0.7874015748031497
    },
    {
    "duration": 0.15178573958334596,
    "durationTicks": 119,
    "midi": 84,
    "color": "C6",
    "ticks": 177600,
    "time": 184.4351550000001,
    "velocity": 0.7874015748031497
    },
    {
    "duration": 0.15178573958334596,
    "durationTicks": 119,
    "midi": 96,
    "color": "C7",
    "ticks": 177600,
    "time": 184.4351550000001,
    "velocity": 0.7874015748031497
    },
    {
    "duration": 0.15178573958334596,
    "durationTicks": 119,
    "midi": 84,
    "color": "g",
    "ticks": 177840,
    "time": 184.74127750000008,
    "velocity": 0.7874015748031497
    },
    {
    "duration": 0.15178573958334596,
    "durationTicks": 119,
    "midi": 96,
    "color": "C7",
    "ticks": 177840,
    "time": 184.74127750000008,
    "velocity": 0.7874015748031497
    },
    {
    "duration": 0.15178573958331754,
    "durationTicks": 119,
    "midi": 73,
    "color": "r",
    "ticks": 178080,
    "time": 185.0474000000001,
    "velocity": 0.7874015748031497
    },
    {
    "duration": 0.15178573958331754,
    "durationTicks": 119,
    "midi": 85,
    "color": "C6",
    "ticks": 178080,
    "time": 185.0474000000001,
    "velocity": 0.7874015748031497
    },
    {
    "duration": 0.15178573958331754,
    "durationTicks": 119,
    "midi": 97,
    "color": "C7",
    "ticks": 178080,
    "time": 185.0474000000001,
    "velocity": 0.7874015748031497
    },
    {
    "duration": 0.15178573958334596,
    "durationTicks": 119,
    "midi": 98,
    "color": "y",
    "ticks": 178320,
    "time": 185.35352250000008,
    "velocity": 0.7874015748031497
    },
    {
    "duration": 0.15335058958334002,
    "durationTicks": 119,
    "midi": 61,
    "color": "r",
    "ticks": 178560,
    "time": 185.6596450000001,
    "velocity": 0.7874015748031497
    },
    {
    "duration": 0.15335058958334002,
    "durationTicks": 119,
    "midi": 74,
    "color": "D5",
    "ticks": 178560,
    "time": 185.6596450000001,
    "velocity": 0.7874015748031497
    },
    {
    "duration": 0.15335058958334002,
    "durationTicks": 119,
    "midi": 86,
    "color": "D6",
    "ticks": 178560,
    "time": 185.6596450000001,
    "velocity": 0.7874015748031497
    },
    {
    "duration": 0.15335058958334002,
    "durationTicks": 119,
    "midi": 97,
    "color": "C7",
    "ticks": 178560,
    "time": 185.6596450000001,
    "velocity": 0.7874015748031497
    },
    {
    "duration": 0.15335058958334002,
    "durationTicks": 119,
    "midi": 87,
    "color": "b",
    "ticks": 178800,
    "time": 185.9689235000001,
    "velocity": 0.7874015748031497
    },
    {
    "duration": 0.15335058958334002,
    "durationTicks": 119,
    "midi": 99,
    "color": "D7",
    "ticks": 178800,
    "time": 185.9689235000001,
    "velocity": 0.7874015748031497
    },
    {
    "duration": 0.1533505895833116,
    "durationTicks": 119,
    "midi": 75,
    "color": "p",
    "ticks": 179040,
    "time": 186.2782020000001,
    "velocity": 0.7874015748031497
    },
    {
    "duration": 0.1533505895833116,
    "durationTicks": 119,
    "midi": 88,
    "color": "E6",
    "ticks": 179040,
    "time": 186.2782020000001,
    "velocity": 0.7874015748031497
    },
    {
    "duration": 0.1533505895833116,
    "durationTicks": 119,
    "midi": 100,
    "color": "E7",
    "ticks": 179040,
    "time": 186.2782020000001,
    "velocity": 0.7874015748031497
    },
    {
    "duration": 0.439433202083336,
    "durationTicks": 341,
    "midi": 99,
    "color": "b",
    "ticks": 179280,
    "time": 186.58748050000008,
    "velocity": 0.7874015748031497
    },
    {
    "duration": 0.15335058958334002,
    "durationTicks": 119,
    "midi": 62,
    "color": "D4",
    "ticks": 179280,
    "time": 186.58748050000008,
    "velocity": 0.7874015748031497
    },
    {
    "duration": 0.15335058958334002,
    "durationTicks": 119,
    "midi": 74,
    "color": "D5",
    "ticks": 179280,
    "time": 186.58748050000008,
    "velocity": 0.7874015748031497
    },
    {
    "duration": 0.15335058958334002,
    "durationTicks": 119,
    "midi": 87,
    "color": "D6",
    "ticks": 179280,
    "time": 186.58748050000008,
    "velocity": 0.7874015748031497
    },
    {
    "duration": 0.15335058958334002,
    "durationTicks": 119,
    "midi": 99,
    "color": "b",
    "ticks": 179760,
    "time": 187.2060375000001,
    "velocity": 0.7874015748031497
    },
    {
    "duration": 0.23067021458334125,
    "durationTicks": 179,
    "midi": 74,
    "color": "b",
    "ticks": 180000,
    "time": 187.5153160000001,
    "velocity": 0.7874015748031497
    },
    {
    "duration": 0.23067021458334125,
    "durationTicks": 179,
    "midi": 87,
    "color": "D6",
    "ticks": 180000,
    "time": 187.5153160000001,
    "velocity": 0.7874015748031497
    },
    {
    "duration": 0.23067021458334125,
    "durationTicks": 179,
    "midi": 99,
    "color": "D7",
    "ticks": 180000,
    "time": 187.5153160000001,
    "velocity": 0.7874015748031497
    },
    {
    "duration": 0.0760309645833388,
    "durationTicks": 59,
    "midi": 99,
    "color": "b",
    "ticks": 180360,
    "time": 187.9792337500001,
    "velocity": 0.7874015748031497
    },
    {
    "duration": 0.14267686041665684,
    "durationTicks": 113,
    "midi": 62,
    "color": "b",
    "ticks": 180480,
    "time": 188.1338730000001,
    "velocity": 0.7874015748031497
    },
    {
    "duration": 0.14267686041665684,
    "durationTicks": 113,
    "midi": 74,
    "color": "D5",
    "ticks": 180480,
    "time": 188.1338730000001,
    "velocity": 0.7874015748031497
    },
    {
    "duration": 0.14267686041665684,
    "durationTicks": 113,
    "midi": 87,
    "color": "D6",
    "ticks": 180480,
    "time": 188.1338730000001,
    "velocity": 0.7874015748031497
    },
    {
    "duration": 0.14267686041665684,
    "durationTicks": 113,
    "midi": 99,
    "color": "D7",
    "ticks": 180480,
    "time": 188.1338730000001,
    "velocity": 0.7874015748031497
    },
    {
    "duration": 0.15025262291666763,
    "durationTicks": 119,
    "midi": 99,
    "color": "b",
    "ticks": 180600,
    "time": 188.2853882500001,
    "velocity": 0.7874015748031497
    },
    {
    "duration": 0.07449499791667336,
    "durationTicks": 59,
    "midi": 99,
    "color": "b",
    "ticks": 180840,
    "time": 188.5884187500001,
    "velocity": 0.7874015748031497
    },
    {
    "duration": 0.15025262291666763,
    "durationTicks": 119,
    "midi": 74,
    "color": "b",
    "ticks": 180960,
    "time": 188.73993400000012,
    "velocity": 0.7874015748031497
    },
    {
    "duration": 0.15025262291666763,
    "durationTicks": 119,
    "midi": 87,
    "color": "D6",
    "ticks": 180960,
    "time": 188.73993400000012,
    "velocity": 0.7874015748031497
    },
    {
    "duration": 0.15025262291666763,
    "durationTicks": 119,
    "midi": 99,
    "color": "D7",
    "ticks": 180960,
    "time": 188.73993400000012,
    "velocity": 0.7874015748031497
    },
    {
    "duration": 0.15025262291666763,
    "durationTicks": 119,
    "midi": 99,
    "color": "b",
    "ticks": 181200,
    "time": 189.0429645000001,
    "velocity": 0.7874015748031497
    },
    {
    "duration": 0.1549479166666572,
    "durationTicks": 119,
    "midi": 60,
    "color": "g",
    "ticks": 181440,
    "time": 189.3459950000001,
    "velocity": 0.7874015748031497
    },
    {
    "duration": 0.1549479166666572,
    "durationTicks": 119,
    "midi": 72,
    "color": "C5",
    "ticks": 181440,
    "time": 189.3459950000001,
    "velocity": 0.7874015748031497
    },
    {
    "duration": 0.1549479166666572,
    "durationTicks": 119,
    "midi": 84,
    "color": "C6",
    "ticks": 181440,
    "time": 189.3459950000001,
    "velocity": 0.7874015748031497
    },
    {
    "duration": 0.1549479166666572,
    "durationTicks": 119,
    "midi": 96,
    "color": "C7",
    "ticks": 181440,
    "time": 189.3459950000001,
    "velocity": 0.7874015748031497
    },
    {
    "duration": 0.1549479166666572,
    "durationTicks": 119,
    "midi": 84,
    "color": "g",
    "ticks": 181680,
    "time": 189.6584950000001,
    "velocity": 0.7874015748031497
    },
    {
    "duration": 0.1549479166666572,
    "durationTicks": 119,
    "midi": 96,
    "color": "C7",
    "ticks": 181680,
    "time": 189.6584950000001,
    "velocity": 0.7874015748031497
    },
    {
    "duration": 0.1549479166666572,
    "durationTicks": 119,
    "midi": 73,
    "color": "r",
    "ticks": 181920,
    "time": 189.9709950000001,
    "velocity": 0.7874015748031497
    },
    {
    "duration": 0.1549479166666572,
    "durationTicks": 119,
    "midi": 85,
    "color": "C6",
    "ticks": 181920,
    "time": 189.9709950000001,
    "velocity": 0.7874015748031497
    },
    {
    "duration": 0.1549479166666572,
    "durationTicks": 119,
    "midi": 97,
    "color": "C7",
    "ticks": 181920,
    "time": 189.9709950000001,
    "velocity": 0.7874015748031497
    },
    {
    "duration": 0.1549479166666572,
    "durationTicks": 119,
    "midi": 98,
    "color": "y",
    "ticks": 182160,
    "time": 190.2834950000001,
    "velocity": 0.7874015748031497
    },
    {
    "duration": 0.15178573958334596,
    "durationTicks": 119,
    "midi": 61,
    "color": "r",
    "ticks": 182400,
    "time": 190.5959950000001,
    "velocity": 0.7874015748031497
    },
    {
    "duration": 0.15178573958334596,
    "durationTicks": 119,
    "midi": 74,
    "color": "D5",
    "ticks": 182400,
    "time": 190.5959950000001,
    "velocity": 0.7874015748031497
    },
    {
    "duration": 0.15178573958334596,
    "durationTicks": 119,
    "midi": 86,
    "color": "D6",
    "ticks": 182400,
    "time": 190.5959950000001,
    "velocity": 0.7874015748031497
    },
    {
    "duration": 0.15178573958334596,
    "durationTicks": 119,
    "midi": 97,
    "color": "C7",
    "ticks": 182400,
    "time": 190.5959950000001,
    "velocity": 0.7874015748031497
    },
    {
    "duration": 0.15178573958334596,
    "durationTicks": 119,
    "midi": 87,
    "color": "b",
    "ticks": 182640,
    "time": 190.9021175000001,
    "velocity": 0.7874015748031497
    },
    {
    "duration": 0.15178573958334596,
    "durationTicks": 119,
    "midi": 99,
    "color": "D7",
    "ticks": 182640,
    "time": 190.9021175000001,
    "velocity": 0.7874015748031497
    },
    {
    "duration": 0.15178573958331754,
    "durationTicks": 119,
    "midi": 75,
    "color": "p",
    "ticks": 182880,
    "time": 191.2082400000001,
    "velocity": 0.7874015748031497
    },
    {
    "duration": 0.15178573958331754,
    "durationTicks": 119,
    "midi": 88,
    "color": "E6",
    "ticks": 182880,
    "time": 191.2082400000001,
    "velocity": 0.7874015748031497
    },
    {
    "duration": 0.15178573958331754,
    "durationTicks": 119,
    "midi": 100,
    "color": "E7",
    "ticks": 182880,
    "time": 191.2082400000001,
    "velocity": 0.7874015748031497
    },
    {
    "duration": 0.5803572395833498,
    "durationTicks": 455,
    "midi": 99,
    "color": "b",
    "ticks": 183120,
    "time": 191.5143625000001,
    "velocity": 0.7874015748031497
    },
    {
    "duration": 0.15178573958334596,
    "durationTicks": 119,
    "midi": 62,
    "color": "D4",
    "ticks": 183120,
    "time": 191.5143625000001,
    "velocity": 0.7874015748031497
    },
    {
    "duration": 0.15178573958334596,
    "durationTicks": 119,
    "midi": 74,
    "color": "D5",
    "ticks": 183120,
    "time": 191.5143625000001,
    "velocity": 0.7874015748031497
    },
    {
    "duration": 0.15178573958334596,
    "durationTicks": 119,
    "midi": 87,
    "color": "D6",
    "ticks": 183120,
    "time": 191.5143625000001,
    "velocity": 0.7874015748031497
    },
    {
    "duration": 0.07525511458334222,
    "durationTicks": 59,
    "midi": 99,
    "color": "b",
    "ticks": 183720,
    "time": 192.2796687500001,
    "velocity": 0.7874015748031497
    },
    {
    "duration": 0.22831636458332127,
    "durationTicks": 179,
    "midi": 74,
    "color": "b",
    "ticks": 183840,
    "time": 192.4327300000001,
    "velocity": 0.7874015748031497
    },
    {
    "duration": 0.22831636458332127,
    "durationTicks": 179,
    "midi": 87,
    "color": "D6",
    "ticks": 183840,
    "time": 192.4327300000001,
    "velocity": 0.7874015748031497
    },
    {
    "duration": 0.22831636458332127,
    "durationTicks": 179,
    "midi": 99,
    "color": "D7",
    "ticks": 183840,
    "time": 192.4327300000001,
    "velocity": 0.7874015748031497
    },
    {
    "duration": 0.07525511458334222,
    "durationTicks": 59,
    "midi": 99,
    "color": "b",
    "ticks": 184200,
    "time": 192.8919137500001,
    "velocity": 0.7874015748031497
    },
    {
    "duration": 0.29579187708333166,
    "durationTicks": 239,
    "midi": 62,
    "color": "b",
    "ticks": 184320,
    "time": 193.0449750000001,
    "velocity": 0.7874015748031497
    },
    {
    "duration": 0.29579187708333166,
    "durationTicks": 239,
    "midi": 74,
    "color": "D5",
    "ticks": 184320,
    "time": 193.0449750000001,
    "velocity": 0.7874015748031497
    },
    {
    "duration": 0.29579187708333166,
    "durationTicks": 239,
    "midi": 87,
    "color": "D6",
    "ticks": 184320,
    "time": 193.0449750000001,
    "velocity": 0.7874015748031497
    },
    {
    "duration": 0.29579187708333166,
    "durationTicks": 239,
    "midi": 99,
    "color": "D7",
    "ticks": 184320,
    "time": 193.0449750000001,
    "velocity": 0.7874015748031497
    },
    {
    "duration": 0.14727712708335616,
    "durationTicks": 119,
    "midi": 74,
    "color": "b",
    "ticks": 184800,
    "time": 193.6390340000001,
    "velocity": 0.7874015748031497
    },
    {
    "duration": 0.14727712708335616,
    "durationTicks": 119,
    "midi": 87,
    "color": "D6",
    "ticks": 184800,
    "time": 193.6390340000001,
    "velocity": 0.7874015748031497
    },
    {
    "duration": 0.14727712708335616,
    "durationTicks": 119,
    "midi": 99,
    "color": "D7",
    "ticks": 184800,
    "time": 193.6390340000001,
    "velocity": 0.7874015748031497
    },
    {
    "duration": 0.14727712708332774,
    "durationTicks": 119,
    "midi": 99,
    "color": "b",
    "ticks": 185040,
    "time": 193.9360635000001,
    "velocity": 0.7874015748031497
    },
    {
    "duration": 0.14561862708333706,
    "durationTicks": 113,
    "midi": 62,
    "color": "y",
    "ticks": 185280,
    "time": 194.2330930000001,
    "velocity": 0.7874015748031497
    },
    {
    "duration": 0.14561862708333706,
    "durationTicks": 113,
    "midi": 74,
    "color": "D5",
    "ticks": 185280,
    "time": 194.2330930000001,
    "velocity": 0.7874015748031497
    },
    {
    "duration": 0.14561862708333706,
    "durationTicks": 113,
    "midi": 87,
    "color": "D6",
    "ticks": 185280,
    "time": 194.2330930000001,
    "velocity": 0.7874015748031497
    },
    {
    "duration": 0.14561862708333706,
    "durationTicks": 113,
    "midi": 98,
    "color": "D7",
    "ticks": 185280,
    "time": 194.2330930000001,
    "velocity": 0.7874015748031497
    },
    {
    "duration": 0.23067021458334125,
    "durationTicks": 179,
    "midi": 99,
    "color": "b",
    "ticks": 185400,
    "time": 194.3877322500001,
    "velocity": 0.7874015748031497
    },
    {
    "duration": 0.5863404895833355,
    "durationTicks": 455,
    "midi": 99,
    "color": "b",
    "ticks": 185760,
    "time": 194.85165000000012,
    "velocity": 0.7874015748031497
    },
    {
    "duration": 0.8801550645833345,
    "durationTicks": 683,
    "midi": 62,
    "color": "D4",
    "ticks": 185760,
    "time": 194.85165000000012,
    "velocity": 0.7874015748031497
    },
    {
    "duration": 0.8801550645833345,
    "durationTicks": 683,
    "midi": 74,
    "color": "D5",
    "ticks": 185760,
    "time": 194.85165000000012,
    "velocity": 0.7874015748031497
    },
    {
    "duration": 0.8801550645833345,
    "durationTicks": 683,
    "midi": 87,
    "color": "D6",
    "ticks": 185760,
    "time": 194.85165000000012,
    "velocity": 0.7874015748031497
    },
    {
    "duration": 0.15335058958334002,
    "durationTicks": 119,
    "midi": 99,
    "color": "b",
    "ticks": 186240,
    "time": 195.4702070000001,
    "velocity": 0.7874015748031497
    },
    {
    "duration": 0.15335058958334002,
    "durationTicks": 119,
    "midi": 87,
    "color": "b",
    "ticks": 186480,
    "time": 195.7794855000001,
    "velocity": 0.7874015748031497
    },
    {
    "duration": 0.15335058958334002,
    "durationTicks": 119,
    "midi": 99,
    "color": "D7",
    "ticks": 186480,
    "time": 195.7794855000001,
    "velocity": 0.7874015748031497
    },
    {
    "duration": 0.3079898395833425,
    "durationTicks": 239,
    "midi": 62,
    "color": "b",
    "ticks": 186720,
    "time": 196.0887640000001,
    "velocity": 0.7874015748031497
    },
    {
    "duration": 0.3079898395833425,
    "durationTicks": 239,
    "midi": 74,
    "color": "D5",
    "ticks": 186720,
    "time": 196.0887640000001,
    "velocity": 0.7874015748031497
    },
    {
    "duration": 0.3079898395833425,
    "durationTicks": 239,
    "midi": 87,
    "color": "D6",
    "ticks": 186720,
    "time": 196.0887640000001,
    "velocity": 0.7874015748031497
    },
    {
    "duration": 0.3079898395833425,
    "durationTicks": 239,
    "midi": 99,
    "color": "D7",
    "ticks": 186720,
    "time": 196.0887640000001,
    "velocity": 0.7874015748031497
    },
    {
    "duration": 0.30798983958331405,
    "durationTicks": 239,
    "midi": 61,
    "color": "r",
    "ticks": 187200,
    "time": 196.70732100000012,
    "velocity": 0.7874015748031497
    },
    {
    "duration": 0.30798983958331405,
    "durationTicks": 239,
    "midi": 73,
    "color": "C5",
    "ticks": 187200,
    "time": 196.70732100000012,
    "velocity": 0.7874015748031497
    },
    {
    "duration": 0.30798983958331405,
    "durationTicks": 239,
    "midi": 85,
    "color": "C6",
    "ticks": 187200,
    "time": 196.70732100000012,
    "velocity": 0.7874015748031497
    },
    {
    "duration": 0.30798983958331405,
    "durationTicks": 239,
    "midi": 97,
    "color": "C7",
    "ticks": 187200,
    "time": 196.70732100000012,
    "velocity": 0.7874015748031497
    },
    {
    "duration": 0.3079898395833425,
    "durationTicks": 239,
    "midi": 73,
    "color": "r",
    "ticks": 187680,
    "time": 197.3258780000001,
    "velocity": 0.7874015748031497
    },
    {
    "duration": 0.3079898395833425,
    "durationTicks": 239,
    "midi": 85,
    "color": "C6",
    "ticks": 187680,
    "time": 197.3258780000001,
    "velocity": 0.7874015748031497
    },
    {
    "duration": 0.3079898395833425,
    "durationTicks": 239,
    "midi": 97,
    "color": "C7",
    "ticks": 187680,
    "time": 197.3258780000001,
    "velocity": 0.7874015748031497
    },
    {
    "duration": 0.15178573958334596,
    "durationTicks": 119,
    "midi": 61,
    "color": "r",
    "ticks": 188160,
    "time": 197.9444350000001,
    "velocity": 0.7874015748031497
    },
    {
    "duration": 0.15178573958334596,
    "durationTicks": 119,
    "midi": 73,
    "color": "C5",
    "ticks": 188160,
    "time": 197.9444350000001,
    "velocity": 0.7874015748031497
    },
    {
    "duration": 0.15178573958334596,
    "durationTicks": 119,
    "midi": 85,
    "color": "C6",
    "ticks": 188160,
    "time": 197.9444350000001,
    "velocity": 0.7874015748031497
    },
    {
    "duration": 0.15178573958334596,
    "durationTicks": 119,
    "midi": 97,
    "color": "C7",
    "ticks": 188160,
    "time": 197.9444350000001,
    "velocity": 0.7874015748031497
    },
    {
    "duration": 0.15178573958334596,
    "durationTicks": 119,
    "midi": 97,
    "color": "r",
    "ticks": 188400,
    "time": 198.2505575000001,
    "velocity": 0.7874015748031497
    },
    {
    "duration": 0.07525511458334222,
    "durationTicks": 59,
    "midi": 73,
    "color": "r",
    "ticks": 188640,
    "time": 198.5566800000001,
    "velocity": 0.7874015748031497
    },
    {
    "duration": 0.07525511458334222,
    "durationTicks": 59,
    "midi": 85,
    "color": "C6",
    "ticks": 188640,
    "time": 198.5566800000001,
    "velocity": 0.7874015748031497
    },
    {
    "duration": 0.07525511458334222,
    "durationTicks": 59,
    "midi": 97,
    "color": "C7",
    "ticks": 188640,
    "time": 198.5566800000001,
    "velocity": 0.7874015748031497
    },
    {
    "duration": 0.0752551145833138,
    "durationTicks": 59,
    "midi": 97,
    "color": "r",
    "ticks": 188760,
    "time": 198.70974125000012,
    "velocity": 0.7874015748031497
    },
    {
    "duration": 0.07525511458334222,
    "durationTicks": 59,
    "midi": 85,
    "color": "r",
    "ticks": 188880,
    "time": 198.8628025000001,
    "velocity": 0.7874015748031497
    },
    {
    "duration": 0.07525511458334222,
    "durationTicks": 59,
    "midi": 97,
    "color": "C7",
    "ticks": 188880,
    "time": 198.8628025000001,
    "velocity": 0.7874015748031497
    },
    {
    "duration": 0.07525511458334222,
    "durationTicks": 59,
    "midi": 96,
    "color": "g",
    "ticks": 189000,
    "time": 199.0158637500001,
    "velocity": 0.7874015748031497
    },
    {
    "duration": 0.15178573958331754,
    "durationTicks": 119,
    "midi": 60,
    "color": "g",
    "ticks": 189120,
    "time": 199.16892500000012,
    "velocity": 0.7874015748031497
    },
    {
    "duration": 0.15178573958331754,
    "durationTicks": 119,
    "midi": 72,
    "color": "C5",
    "ticks": 189120,
    "time": 199.16892500000012,
    "velocity": 0.7874015748031497
    },
    {
    "duration": 0.15178573958331754,
    "durationTicks": 119,
    "midi": 84,
    "color": "C6",
    "ticks": 189120,
    "time": 199.16892500000012,
    "velocity": 0.7874015748031497
    },
    {
    "duration": 0.15178573958331754,
    "durationTicks": 119,
    "midi": 96,
    "color": "C7",
    "ticks": 189120,
    "time": 199.16892500000012,
    "velocity": 0.7874015748031497
    },
    {
    "duration": 0.15178573958334596,
    "durationTicks": 119,
    "midi": 84,
    "color": "g",
    "ticks": 189360,
    "time": 199.4750475000001,
    "velocity": 0.7874015748031497
    },
    {
    "duration": 0.15178573958334596,
    "durationTicks": 119,
    "midi": 96,
    "color": "C7",
    "ticks": 189360,
    "time": 199.4750475000001,
    "velocity": 0.7874015748031497
    },
    {
    "duration": 0.15178573958331754,
    "durationTicks": 119,
    "midi": 73,
    "color": "r",
    "ticks": 189600,
    "time": 199.78117000000012,
    "velocity": 0.7874015748031497
    },
    {
    "duration": 0.15178573958331754,
    "durationTicks": 119,
    "midi": 85,
    "color": "C6",
    "ticks": 189600,
    "time": 199.78117000000012,
    "velocity": 0.7874015748031497
    },
    {
    "duration": 0.15178573958331754,
    "durationTicks": 119,
    "midi": 97,
    "color": "C7",
    "ticks": 189600,
    "time": 199.78117000000012,
    "velocity": 0.7874015748031497
    },
    {
    "duration": 0.15178573958334596,
    "durationTicks": 119,
    "midi": 98,
    "color": "y",
    "ticks": 189840,
    "time": 200.0872925000001,
    "velocity": 0.7874015748031497
    },
    {
    "duration": 0.15335058958334002,
    "durationTicks": 119,
    "midi": 61,
    "color": "r",
    "ticks": 190080,
    "time": 200.39341500000012,
    "velocity": 0.7874015748031497
    },
    {
    "duration": 0.15335058958334002,
    "durationTicks": 119,
    "midi": 74,
    "color": "D5",
    "ticks": 190080,
    "time": 200.39341500000012,
    "velocity": 0.7874015748031497
    },
    {
    "duration": 0.15335058958334002,
    "durationTicks": 119,
    "midi": 86,
    "color": "D6",
    "ticks": 190080,
    "time": 200.39341500000012,
    "velocity": 0.7874015748031497
    },
    {
    "duration": 0.15335058958334002,
    "durationTicks": 119,
    "midi": 97,
    "color": "C7",
    "ticks": 190080,
    "time": 200.39341500000012,
    "velocity": 0.7874015748031497
    },
    {
    "duration": 0.15335058958334002,
    "durationTicks": 119,
    "midi": 87,
    "color": "b",
    "ticks": 190320,
    "time": 200.70269350000012,
    "velocity": 0.7874015748031497
    },
    {
    "duration": 0.15335058958334002,
    "durationTicks": 119,
    "midi": 99,
    "color": "D7",
    "ticks": 190320,
    "time": 200.70269350000012,
    "velocity": 0.7874015748031497
    },
    {
    "duration": 0.1533505895833116,
    "durationTicks": 119,
    "midi": 75,
    "color": "p",
    "ticks": 190560,
    "time": 201.01197200000013,
    "velocity": 0.7874015748031497
    },
    {
    "duration": 0.1533505895833116,
    "durationTicks": 119,
    "midi": 88,
    "color": "E6",
    "ticks": 190560,
    "time": 201.01197200000013,
    "velocity": 0.7874015748031497
    },
    {
    "duration": 0.1533505895833116,
    "durationTicks": 119,
    "midi": 100,
    "color": "E7",
    "ticks": 190560,
    "time": 201.01197200000013,
    "velocity": 0.7874015748031497
    },
    {
    "duration": 0.43552850000000376,
    "durationTicks": 341,
    "midi": 99,
    "color": "b",
    "ticks": 190800,
    "time": 201.3212505000001,
    "velocity": 0.7874015748031497
    },
    {
    "duration": 0.15335058958334002,
    "durationTicks": 119,
    "midi": 62,
    "color": "D4",
    "ticks": 190800,
    "time": 201.3212505000001,
    "velocity": 0.7874015748031497
    },
    {
    "duration": 0.15335058958334002,
    "durationTicks": 119,
    "midi": 74,
    "color": "D5",
    "ticks": 190800,
    "time": 201.3212505000001,
    "velocity": 0.7874015748031497
    },
    {
    "duration": 0.15335058958334002,
    "durationTicks": 119,
    "midi": 87,
    "color": "D6",
    "ticks": 190800,
    "time": 201.3212505000001,
    "velocity": 0.7874015748031497
    },
    {
    "duration": 0.07374999999998977,
    "durationTicks": 59,
    "midi": 61,
    "color": "g",
    "ticks": 191280,
    "time": 201.93052900000012,
    "velocity": 0.7874015748031497
    },
    {
    "duration": 0.07374999999998977,
    "durationTicks": 59,
    "midi": 75,
    "color": "D5",
    "ticks": 191280,
    "time": 201.93052900000012,
    "velocity": 0.7874015748031497
    },
    {
    "duration": 0.07374999999998977,
    "durationTicks": 59,
    "midi": 85,
    "color": "C6",
    "ticks": 191280,
    "time": 201.93052900000012,
    "velocity": 0.7874015748031497
    },
    {
    "duration": 0.07374999999998977,
    "durationTicks": 59,
    "midi": 96,
    "color": "C7",
    "ticks": 191280,
    "time": 201.93052900000012,
    "velocity": 0.7874015748031497
    },
    {
    "duration": 0.07375000000001819,
    "durationTicks": 59,
    "midi": 97,
    "color": "r",
    "ticks": 191400,
    "time": 202.0805290000001,
    "velocity": 0.7874015748031497
    },
    {
    "duration": 0.2987500000000125,
    "durationTicks": 239,
    "midi": 88,
    "color": "p",
    "ticks": 191520,
    "time": 202.2305290000001,
    "velocity": 0.7874015748031497
    },
    {
    "duration": 0.2987500000000125,
    "durationTicks": 239,
    "midi": 100,
    "color": "E7",
    "ticks": 191520,
    "time": 202.2305290000001,
    "velocity": 0.7874015748031497
    },
    {
    "duration": 0.07525511458334222,
    "durationTicks": 59,
    "midi": 61,
    "color": "g",
    "ticks": 192000,
    "time": 202.8305290000001,
    "velocity": 0.7874015748031497
    },
    {
    "duration": 0.07525511458334222,
    "durationTicks": 59,
    "midi": 75,
    "color": "D5",
    "ticks": 192000,
    "time": 202.8305290000001,
    "velocity": 0.7874015748031497
    },
    {
    "duration": 0.07525511458334222,
    "durationTicks": 59,
    "midi": 85,
    "color": "C6",
    "ticks": 192000,
    "time": 202.8305290000001,
    "velocity": 0.7874015748031497
    },
    {
    "duration": 0.07525511458334222,
    "durationTicks": 59,
    "midi": 96,
    "color": "C7",
    "ticks": 192000,
    "time": 202.8305290000001,
    "velocity": 0.7874015748031497
    },
    {
    "duration": 0.0752551145833138,
    "durationTicks": 59,
    "midi": 97,
    "color": "r",
    "ticks": 192120,
    "time": 202.9835902500001,
    "velocity": 0.7874015748031497
    },
    {
    "duration": 0.15178573958334596,
    "durationTicks": 119,
    "midi": 88,
    "color": "p",
    "ticks": 192240,
    "time": 203.13665150000008,
    "velocity": 0.7874015748031497
    },
    {
    "duration": 0.5803572395833498,
    "durationTicks": 455,
    "midi": 100,
    "color": "E7",
    "ticks": 192240,
    "time": 203.13665150000008,
    "velocity": 0.7874015748031497
    },
    {
    "duration": 0.07525511458334222,
    "durationTicks": 59,
    "midi": 61,
    "color": "g",
    "ticks": 192720,
    "time": 203.7488965000001,
    "velocity": 0.7874015748031497
    },
    {
    "duration": 0.07525511458334222,
    "durationTicks": 59,
    "midi": 75,
    "color": "D5",
    "ticks": 192720,
    "time": 203.7488965000001,
    "velocity": 0.7874015748031497
    },
    {
    "duration": 0.07525511458334222,
    "durationTicks": 59,
    "midi": 85,
    "color": "C6",
    "ticks": 192720,
    "time": 203.7488965000001,
    "velocity": 0.7874015748031497
    },
    {
    "duration": 0.07525511458334222,
    "durationTicks": 59,
    "midi": 96,
    "color": "C7",
    "ticks": 192720,
    "time": 203.7488965000001,
    "velocity": 0.7874015748031497
    },
    {
    "duration": 0.07525511458334222,
    "durationTicks": 59,
    "midi": 97,
    "color": "r",
    "ticks": 192840,
    "time": 203.9019577500001,
    "velocity": 0.7874015748031497
    },
    {
    "duration": 0.3017678729166562,
    "durationTicks": 239,
    "midi": 88,
    "color": "p",
    "ticks": 192960,
    "time": 204.0550190000001,
    "velocity": 0.7874015748031497
    },
    {
    "duration": 0.3017678729166562,
    "durationTicks": 239,
    "midi": 100,
    "color": "E7",
    "ticks": 192960,
    "time": 204.0550190000001,
    "velocity": 0.7874015748031497
    },
    {
    "duration": 1.1502532729166433,
    "durationTicks": 911,
    "midi": 61,
    "color": "r",
    "ticks": 193440,
    "time": 204.6610800000001,
    "velocity": 0.7874015748031497
    },
    {
    "duration": 1.1502532729166433,
    "durationTicks": 911,
    "midi": 73,
    "color": "C5",
    "ticks": 193440,
    "time": 204.6610800000001,
    "velocity": 0.7874015748031497
    },
    {
    "duration": 1.1502532729166433,
    "durationTicks": 911,
    "midi": 85,
    "color": "C6",
    "ticks": 193440,
    "time": 204.6610800000001,
    "velocity": 0.7874015748031497
    },
    {
    "duration": 1.1502532729166433,
    "durationTicks": 911,
    "midi": 97,
    "color": "C7",
    "ticks": 193440,
    "time": 204.6610800000001,
    "velocity": 0.7874015748031497
    },
    {
    "duration": 0.15025262291666763,
    "durationTicks": 119,
    "midi": 62,
    "color": "y",
    "ticks": 195960,
    "time": 207.85526825000008,
    "velocity": 0.7874015748031497
    },
    {
    "duration": 0.15025262291666763,
    "durationTicks": 119,
    "midi": 74,
    "color": "D5",
    "ticks": 195960,
    "time": 207.85526825000008,
    "velocity": 0.7874015748031497
    },
    {
    "duration": 0.15025262291666763,
    "durationTicks": 119,
    "midi": 86,
    "color": "D6",
    "ticks": 195960,
    "time": 207.85526825000008,
    "velocity": 0.7874015748031497
    },
    {
    "duration": 0.15025262291666763,
    "durationTicks": 119,
    "midi": 98,
    "color": "D7",
    "ticks": 195960,
    "time": 207.85526825000008,
    "velocity": 0.7874015748031497
    },
    {
    "duration": 0.14267686041668526,
    "durationTicks": 113,
    "midi": 97,
    "color": "r",
    "ticks": 196200,
    "time": 208.15829875000009,
    "velocity": 0.7874015748031497
    },
    {
    "duration": 0.15025262291666763,
    "durationTicks": 119,
    "midi": 62,
    "color": "y",
    "ticks": 196320,
    "time": 208.3098140000001,
    "velocity": 0.7874015748031497
    },
    {
    "duration": 0.15025262291666763,
    "durationTicks": 119,
    "midi": 74,
    "color": "D5",
    "ticks": 196320,
    "time": 208.3098140000001,
    "velocity": 0.7874015748031497
    },
    {
    "duration": 0.15025262291666763,
    "durationTicks": 119,
    "midi": 86,
    "color": "D6",
    "ticks": 196320,
    "time": 208.3098140000001,
    "velocity": 0.7874015748031497
    },
    {
    "duration": 0.15025262291666763,
    "durationTicks": 119,
    "midi": 98,
    "color": "D7",
    "ticks": 196320,
    "time": 208.3098140000001,
    "velocity": 0.7874015748031497
    },
    {
    "duration": 0.15025262291666763,
    "durationTicks": 119,
    "midi": 74,
    "color": "y",
    "ticks": 196560,
    "time": 208.61284450000008,
    "velocity": 0.7874015748031497
    },
    {
    "duration": 0.15025262291666763,
    "durationTicks": 119,
    "midi": 86,
    "color": "D6",
    "ticks": 196560,
    "time": 208.61284450000008,
    "velocity": 0.7874015748031497
    },
    {
    "duration": 0.15025262291666763,
    "durationTicks": 119,
    "midi": 98,
    "color": "D7",
    "ticks": 196560,
    "time": 208.61284450000008,
    "velocity": 0.7874015748031497
    },
    {
    "duration": 0.1549479166666572,
    "durationTicks": 119,
    "midi": 60,
    "color": "g",
    "ticks": 197040,
    "time": 209.22837500000009,
    "velocity": 0.7874015748031497
    },
    {
    "duration": 0.1549479166666572,
    "durationTicks": 119,
    "midi": 72,
    "color": "C5",
    "ticks": 197040,
    "time": 209.22837500000009,
    "velocity": 0.7874015748031497
    },
    {
    "duration": 0.1549479166666572,
    "durationTicks": 119,
    "midi": 84,
    "color": "C6",
    "ticks": 197040,
    "time": 209.22837500000009,
    "velocity": 0.7874015748031497
    },
    {
    "duration": 0.1549479166666572,
    "durationTicks": 119,
    "midi": 96,
    "color": "C7",
    "ticks": 197040,
    "time": 209.22837500000009,
    "velocity": 0.7874015748031497
    },
    {
    "duration": 0.1549479166666572,
    "durationTicks": 119,
    "midi": 73,
    "color": "r",
    "ticks": 197280,
    "time": 209.54087500000009,
    "velocity": 0.7874015748031497
    },
    {
    "duration": 0.1549479166666572,
    "durationTicks": 119,
    "midi": 85,
    "color": "C6",
    "ticks": 197280,
    "time": 209.54087500000009,
    "velocity": 0.7874015748031497
    },
    {
    "duration": 0.1549479166666572,
    "durationTicks": 119,
    "midi": 97,
    "color": "C7",
    "ticks": 197280,
    "time": 209.54087500000009,
    "velocity": 0.7874015748031497
    },
    {
    "duration": 0.1549479166666572,
    "durationTicks": 119,
    "midi": 98,
    "color": "y",
    "ticks": 197520,
    "time": 209.85337500000009,
    "velocity": 0.7874015748031497
    },
    {
    "duration": 0.15178573958334596,
    "durationTicks": 119,
    "midi": 61,
    "color": "r",
    "ticks": 198000,
    "time": 210.47199750000007,
    "velocity": 0.7874015748031497
    },
    {
    "duration": 0.15178573958334596,
    "durationTicks": 119,
    "midi": 74,
    "color": "D5",
    "ticks": 198000,
    "time": 210.47199750000007,
    "velocity": 0.7874015748031497
    },
    {
    "duration": 0.15178573958334596,
    "durationTicks": 119,
    "midi": 86,
    "color": "D6",
    "ticks": 198000,
    "time": 210.47199750000007,
    "velocity": 0.7874015748031497
    },
    {
    "duration": 0.15178573958334596,
    "durationTicks": 119,
    "midi": 97,
    "color": "C7",
    "ticks": 198000,
    "time": 210.47199750000007,
    "velocity": 0.7874015748031497
    },
    {
    "duration": 0.15178573958334596,
    "durationTicks": 119,
    "midi": 75,
    "color": "b",
    "ticks": 198240,
    "time": 210.7781200000001,
    "velocity": 0.7874015748031497
    },
    {
    "duration": 0.15178573958334596,
    "durationTicks": 119,
    "midi": 87,
    "color": "D6",
    "ticks": 198240,
    "time": 210.7781200000001,
    "velocity": 0.7874015748031497
    },
    {
    "duration": 0.15178573958334596,
    "durationTicks": 119,
    "midi": 99,
    "color": "D7",
    "ticks": 198240,
    "time": 210.7781200000001,
    "velocity": 0.7874015748031497
    },
    {
    "duration": 0.15178573958334596,
    "durationTicks": 119,
    "midi": 88,
    "color": "p",
    "ticks": 198480,
    "time": 211.08424250000007,
    "velocity": 0.7874015748031497
    },
    {
    "duration": 0.15178573958334596,
    "durationTicks": 119,
    "midi": 100,
    "color": "E7",
    "ticks": 198480,
    "time": 211.08424250000007,
    "velocity": 0.7874015748031497
    },
    {
    "duration": 0.3017678729166562,
    "durationTicks": 239,
    "midi": 62,
    "color": "b",
    "ticks": 198720,
    "time": 211.3903650000001,
    "velocity": 0.7874015748031497
    },
    {
    "duration": 0.3017678729166562,
    "durationTicks": 239,
    "midi": 74,
    "color": "D5",
    "ticks": 198720,
    "time": 211.3903650000001,
    "velocity": 0.7874015748031497
    },
    {
    "duration": 0.3017678729166562,
    "durationTicks": 239,
    "midi": 87,
    "color": "D6",
    "ticks": 198720,
    "time": 211.3903650000001,
    "velocity": 0.7874015748031497
    },
    {
    "duration": 0.3017678729166562,
    "durationTicks": 239,
    "midi": 99,
    "color": "D7",
    "ticks": 198720,
    "time": 211.3903650000001,
    "velocity": 0.7874015748031497
    },
    {
    "duration": 0.2260102479166619,
    "durationTicks": 179,
    "midi": 74,
    "color": "b",
    "ticks": 199200,
    "time": 211.9964260000001,
    "velocity": 0.7874015748031497
    },
    {
    "duration": 0.2260102479166619,
    "durationTicks": 179,
    "midi": 87,
    "color": "D6",
    "ticks": 199200,
    "time": 211.9964260000001,
    "velocity": 0.7874015748031497
    },
    {
    "duration": 0.2260102479166619,
    "durationTicks": 179,
    "midi": 99,
    "color": "D7",
    "ticks": 199200,
    "time": 211.9964260000001,
    "velocity": 0.7874015748031497
    },
    {
    "duration": 0.07449499791667336,
    "durationTicks": 59,
    "midi": 99,
    "color": "b",
    "ticks": 199560,
    "time": 212.4509717500001,
    "velocity": 0.7874015748031497
    },
    {
    "duration": 0.3079898395833425,
    "durationTicks": 239,
    "midi": 62,
    "color": "b",
    "ticks": 199680,
    "time": 212.60248700000008,
    "velocity": 0.7874015748031497
    },
    {
    "duration": 0.3079898395833425,
    "durationTicks": 239,
    "midi": 74,
    "color": "D5",
    "ticks": 199680,
    "time": 212.60248700000008,
    "velocity": 0.7874015748031497
    },
    {
    "duration": 0.3079898395833425,
    "durationTicks": 239,
    "midi": 87,
    "color": "D6",
    "ticks": 199680,
    "time": 212.60248700000008,
    "velocity": 0.7874015748031497
    },
    {
    "duration": 0.3079898395833425,
    "durationTicks": 239,
    "midi": 99,
    "color": "D7",
    "ticks": 199680,
    "time": 212.60248700000008,
    "velocity": 0.7874015748031497
    },
    {
    "duration": 0.4626290895833165,
    "durationTicks": 359,
    "midi": 99,
    "color": "b",
    "ticks": 199920,
    "time": 212.9117655000001,
    "velocity": 0.7874015748031497
    },
    {
    "duration": 0.1533505895833116,
    "durationTicks": 119,
    "midi": 74,
    "color": "b",
    "ticks": 200160,
    "time": 213.2210440000001,
    "velocity": 0.7874015748031497
    },
    {
    "duration": 0.1533505895833116,
    "durationTicks": 119,
    "midi": 87,
    "color": "D6",
    "ticks": 200160,
    "time": 213.2210440000001,
    "velocity": 0.7874015748031497
    },
    {
    "duration": 0.15335058958334002,
    "durationTicks": 119,
    "midi": 99,
    "color": "b",
    "ticks": 200400,
    "time": 213.53032250000007,
    "velocity": 0.7874015748031497
    },
    {
    "duration": 0.9180103395833328,
    "durationTicks": 683,
    "midi": 87,
    "color": "b",
    "ticks": 200640,
    "time": 213.83960100000007,
    "velocity": 0.7874015748031497
    },
    {
    "duration": 0.9180103395833328,
    "durationTicks": 683,
    "midi": 99,
    "color": "D7",
    "ticks": 200640,
    "time": 213.83960100000007,
    "velocity": 0.7874015748031497
    },
    {
    "duration": 0.32123641458332486,
    "durationTicks": 239,
    "midi": 62,
    "color": "D4",
    "ticks": 200640,
    "time": 213.83960100000007,
    "velocity": 0.7874015748031497
    },
    {
    "duration": 0.32123641458332486,
    "durationTicks": 239,
    "midi": 74,
    "color": "D5",
    "ticks": 200640,
    "time": 213.83960100000007,
    "velocity": 0.7874015748031497
    },
    {
    "duration": 0.9116763625000033,
    "durationTicks": 683,
    "midi": 87,
    "color": "b",
    "ticks": 201360,
    "time": 214.80734250000006,
    "velocity": 0.7874015748031497
    },
    {
    "duration": 0.9116763625000033,
    "durationTicks": 683,
    "midi": 99,
    "color": "D7",
    "ticks": 201360,
    "time": 214.80734250000006,
    "velocity": 0.7874015748031497
    },
    {
    "duration": 0.15994616458334576,
    "durationTicks": 119,
    "midi": 62,
    "color": "D4",
    "ticks": 201360,
    "time": 214.80734250000006,
    "velocity": 0.7874015748031497
    },
    {
    "duration": 0.15994616458334576,
    "durationTicks": 119,
    "midi": 74,
    "color": "D5",
    "ticks": 201360,
    "time": 214.80734250000006,
    "velocity": 0.7874015748031497
    },
    {
    "duration": 0.3178192125000123,
    "durationTicks": 239,
    "midi": 62,
    "color": "b",
    "ticks": 202080,
    "time": 215.76822100000007,
    "velocity": 0.7874015748031497
    },
    {
    "duration": 0.3178192125000123,
    "durationTicks": 239,
    "midi": 74,
    "color": "D5",
    "ticks": 202080,
    "time": 215.76822100000007,
    "velocity": 0.7874015748031497
    },
    {
    "duration": 0.3178192125000123,
    "durationTicks": 239,
    "midi": 87,
    "color": "D6",
    "ticks": 202080,
    "time": 215.76822100000007,
    "velocity": 0.7874015748031497
    },
    {
    "duration": 0.3178192125000123,
    "durationTicks": 239,
    "midi": 99,
    "color": "D7",
    "ticks": 202080,
    "time": 215.76822100000007,
    "velocity": 0.7874015748031497
    }
]