{
    "header": {
      "keySignatures": [],
      "meta": [],
      "name": "killerqueen",
      "ppq": 480,
      "tempos": [
        {
          "bpm": 120,
          "ticks": 0
        },
        {
          "bpm": 112.00026880064512,
          "ticks": 1920
        },
        {
          "bpm": 111.0003163509016,
          "ticks": 3840
        },
        {
          "bpm": 111.50032985514248,
          "ticks": 5760
        },
        {
          "bpm": 113.50007755838634,
          "ticks": 9600
        },
        {
          "bpm": 114.00038760131784,
          "ticks": 13440
        },
        {
          "bpm": 114.50032060089768,
          "ticks": 17280
        },
        {
          "bpm": 115.50056017771686,
          "ticks": 22080
        },
        {
          "bpm": 117.50075885906763,
          "ticks": 24000
        },
        {
          "bpm": 115.00002875000719,
          "ticks": 25920
        },
        {
          "bpm": 116.5001038792593,
          "ticks": 27840
        },
        {
          "bpm": 117.000117000117,
          "ticks": 31680
        },
        {
          "bpm": 121.0001875502907,
          "ticks": 33600
        },
        {
          "bpm": 117.000117000117,
          "ticks": 35520
        },
        {
          "bpm": 116.5001038792593,
          "ticks": 37440
        },
        {
          "bpm": 119.00063268669712,
          "ticks": 39360
        },
        {
          "bpm": 117.000117000117,
          "ticks": 41280
        },
        {
          "bpm": 119.00063268669712,
          "ticks": 43200
        },
        {
          "bpm": 118.00059786969587,
          "ticks": 48960
        },
        {
          "bpm": 117.000117000117,
          "ticks": 54720
        },
        {
          "bpm": 116.00008506672904,
          "ticks": 56640
        },
        {
          "bpm": 116.00008506672904,
          "ticks": 58560
        },
        {
          "bpm": 115.00002875000719,
          "ticks": 62400
        },
        {
          "bpm": 118.50072877948199,
          "ticks": 63360
        },
        {
          "bpm": 116.00008506672904,
          "ticks": 65280
        },
        {
          "bpm": 118.00059786969587,
          "ticks": 67200
        },
        {
          "bpm": 117.000117000117,
          "ticks": 71040
        },
        {
          "bpm": 118.00059786969587,
          "ticks": 72960
        },
        {
          "bpm": 122.00031720082472,
          "ticks": 78720
        },
        {
          "bpm": 118.00059786969587,
          "ticks": 80640
        },
        {
          "bpm": 117.50075885906763,
          "ticks": 82560
        },
        {
          "bpm": 118.00059786969587,
          "ticks": 86400
        },
        {
          "bpm": 116.00008506672904,
          "ticks": 88320
        },
        {
          "bpm": 115.00002875000719,
          "ticks": 90240
        },
        {
          "bpm": 117.000117000117,
          "ticks": 92160
        },
        {
          "bpm": 111.0003163509016,
          "ticks": 94080
        },
        {
          "bpm": 115.00002875000719,
          "ticks": 96000
        },
        {
          "bpm": 117.000117000117,
          "ticks": 97920
        },
        {
          "bpm": 119.00063268669712,
          "ticks": 99840
        },
        {
          "bpm": 116.5001038792593,
          "ticks": 101760
        },
        {
          "bpm": 117.50075885906763,
          "ticks": 107520
        },
        {
          "bpm": 118.50072877948199,
          "ticks": 110400
        },
        {
          "bpm": 116.5001038792593,
          "ticks": 112320
        },
        {
          "bpm": 115.50056017771686,
          "ticks": 114240
        },
        {
          "bpm": 116.5001038792593,
          "ticks": 116160
        },
        {
          "bpm": 118.50072877948199,
          "ticks": 118080
        },
        {
          "bpm": 119.00063268669712,
          "ticks": 121920
        },
        {
          "bpm": 120,
          "ticks": 123840
        },
        {
          "bpm": 116.5001038792593,
          "ticks": 128640
        },
        {
          "bpm": 118.00059786969587,
          "ticks": 130560
        },
        {
          "bpm": 119.5000119500012,
          "ticks": 134400
        },
        {
          "bpm": 121.0001875502907,
          "ticks": 136320
        },
        {
          "bpm": 118.50072877948199,
          "ticks": 138240
        },
        {
          "bpm": 121.0001875502907,
          "ticks": 142080
        },
        {
          "bpm": 119.5000119500012,
          "ticks": 144000
        },
        {
          "bpm": 119.00063268669712,
          "ticks": 145920
        },
        {
          "bpm": 120.50007531254707,
          "ticks": 147840
        },
        {
          "bpm": 120,
          "ticks": 151680
        },
        {
          "bpm": 120.50007531254707,
          "ticks": 155520
        },
        {
          "bpm": 121.0001875502907,
          "ticks": 157440
        },
        {
          "bpm": 120.50007531254707,
          "ticks": 159360
        },
        {
          "bpm": 120,
          "ticks": 161280
        },
        {
          "bpm": 119.5000119500012,
          "ticks": 167040
        }
      ],
      "timeSignatures": [
        {
          "ticks": 0,
          "timeSignature": [
            4,
            4
          ],
          "measures": 0
        },
        {
          "ticks": 17280,
          "timeSignature": [
            2,
            4
          ],
          "measures": 9
        },
        {
          "ticks": 18240,
          "timeSignature": [
            4,
            4
          ],
          "measures": 10
        },
        {
          "ticks": 62400,
          "timeSignature": [
            2,
            4
          ],
          "measures": 33
        },
        {
          "ticks": 63360,
          "timeSignature": [
            4,
            4
          ],
          "measures": 34
        },
        {
          "ticks": 107520,
          "timeSignature": [
            2,
            4
          ],
          "measures": 57
        },
        {
          "ticks": 108480,
          "timeSignature": [
            4,
            4
          ],
          "measures": 58
        },
        {
          "ticks": 127680,
          "timeSignature": [
            2,
            4
          ],
          "measures": 68
        },
        {
          "ticks": 128640,
          "timeSignature": [
            4,
            4
          ],
          "measures": 69
        }
      ]
    },
    "tracks": [
      {
        "channel": 0,
        "controlChanges": {},
        "pitchBends": [],
        "instrument": {
          "family": "piano",
          "name": "acoustic grand piano",
          "number": 0
        },
        "name": "T1 GEMS",
        "notes": [
          {
            "duration": 10.7235691875,
            "durationTicks": 9600,
            "midi": 106,
            "name": "A#7",
            "ticks": 1905,
            "time": 1.984375,
            "velocity": 0.7874015748031497
          },
          {
            "duration": 11.7808371875,
            "durationTicks": 10560,
            "midi": 105,
            "name": "A7",
            "ticks": 1905,
            "time": 1.984375,
            "velocity": 0.7874015748031497
          },
          {
            "duration": 10.7235691875,
            "durationTicks": 9600,
            "midi": 94,
            "name": "A#6",
            "ticks": 1905,
            "time": 1.984375,
            "velocity": 0.7874015748031497
          },
          {
            "duration": 11.7808371875,
            "durationTicks": 10560,
            "midi": 93,
            "name": "A6",
            "ticks": 1905,
            "time": 1.984375,
            "velocity": 0.7874015748031497
          },
          {
            "duration": 10.7235691875,
            "durationTicks": 9600,
            "midi": 70,
            "name": "A#4",
            "ticks": 1905,
            "time": 1.984375,
            "velocity": 0.7874015748031497
          },
          {
            "duration": 11.7808371875,
            "durationTicks": 10560,
            "midi": 69,
            "name": "A4",
            "ticks": 1905,
            "time": 1.984375,
            "velocity": 0.7874015748031497
          },
          {
            "duration": 10.7235691875,
            "durationTicks": 9600,
            "midi": 82,
            "name": "A#5",
            "ticks": 1905,
            "time": 1.984375,
            "velocity": 0.7874015748031497
          },
          {
            "duration": 11.7808371875,
            "durationTicks": 10560,
            "midi": 81,
            "name": "A5",
            "ticks": 1905,
            "time": 1.984375,
            "velocity": 0.7874015748031497
          },
          {
            "duration": 0.17745493125000023,
            "durationTicks": 159,
            "midi": 108,
            "name": "C8",
            "ticks": 3120,
            "time": 3.3392825,
            "velocity": 0.7874015748031497
          },
          {
            "duration": 0.3571419999999996,
            "durationTicks": 320,
            "midi": 108,
            "name": "C8",
            "ticks": 3360,
            "time": 3.607139,
            "velocity": 0.7874015748031497
          },
          {
            "duration": 0.2702695000000004,
            "durationTicks": 240,
            "midi": 108,
            "name": "C8",
            "ticks": 3840,
            "time": 4.1428519999999995,
            "velocity": 0.7874015748031497
          },
          {
            "duration": 0.36035933333333325,
            "durationTicks": 320,
            "midi": 108,
            "name": "C8",
            "ticks": 4160,
            "time": 4.503211333333333,
            "velocity": 0.7874015748031497
          },
          {
            "duration": 0.450449166666667,
            "durationTicks": 400,
            "midi": 108,
            "name": "C8",
            "ticks": 4640,
            "time": 5.043750333333333,
            "velocity": 0.7874015748031497
          },
          {
            "duration": 0.450449166666667,
            "durationTicks": 400,
            "midi": 108,
            "name": "C8",
            "ticks": 5120,
            "time": 5.5842893333333326,
            "velocity": 0.7874015748031497
          },
          {
            "duration": 0.17937166666666648,
            "durationTicks": 160,
            "midi": 108,
            "name": "C8",
            "ticks": 5760,
            "time": 6.305007999999999,
            "velocity": 0.7874015748031497
          },
          {
            "duration": 0.08968583333333413,
            "durationTicks": 80,
            "midi": 108,
            "name": "C8",
            "ticks": 6080,
            "time": 6.663751333333332,
            "velocity": 0.7874015748031497
          },
          {
            "duration": 0.2690574999999997,
            "durationTicks": 240,
            "midi": 108,
            "name": "C8",
            "ticks": 6240,
            "time": 6.843122999999999,
            "velocity": 0.7874015748031497
          },
          {
            "duration": 0.1345287500000003,
            "durationTicks": 120,
            "midi": 108,
            "name": "C8",
            "ticks": 6560,
            "time": 7.201866333333332,
            "velocity": 0.7874015748031497
          },
          {
            "duration": 0.2690574999999997,
            "durationTicks": 240,
            "midi": 108,
            "name": "C8",
            "ticks": 6720,
            "time": 7.381237999999999,
            "velocity": 0.7874015748031497
          },
          {
            "duration": 0.13452874999999942,
            "durationTicks": 120,
            "midi": 108,
            "name": "C8",
            "ticks": 7040,
            "time": 7.739981333333333,
            "velocity": 0.7874015748031497
          },
          {
            "duration": 0.2690575000000006,
            "durationTicks": 240,
            "midi": 108,
            "name": "C8",
            "ticks": 7200,
            "time": 7.919352999999999,
            "velocity": 0.7874015748031497
          },
          {
            "duration": 4.010086031250001,
            "durationTicks": 3600,
            "midi": 103,
            "name": "G7",
            "ticks": 7305,
            "time": 8.037065656249998,
            "velocity": 0.7874015748031497
          },
          {
            "duration": 4.010086031250001,
            "durationTicks": 3600,
            "midi": 91,
            "name": "G6",
            "ticks": 7305,
            "time": 8.037065656249998,
            "velocity": 0.7874015748031497
          },
          {
            "duration": 4.010086031250001,
            "durationTicks": 3600,
            "midi": 67,
            "name": "G4",
            "ticks": 7305,
            "time": 8.037065656249998,
            "velocity": 0.7874015748031497
          },
          {
            "duration": 4.010086031250001,
            "durationTicks": 3600,
            "midi": 79,
            "name": "G5",
            "ticks": 7305,
            "time": 8.037065656249998,
            "velocity": 0.7874015748031497
          },
          {
            "duration": 0.13452874999999942,
            "durationTicks": 120,
            "midi": 73,
            "name": "C#5",
            "ticks": 7360,
            "time": 8.098724666666666,
            "velocity": 0.7874015748031497
          },
          {
            "duration": 0.13452874999999942,
            "durationTicks": 120,
            "midi": 61,
            "name": "C#4",
            "ticks": 7360,
            "time": 8.098724666666666,
            "velocity": 0.7874015748031497
          },
          {
            "duration": 0.13452874999999942,
            "durationTicks": 120,
            "midi": 86,
            "name": "D6",
            "ticks": 7360,
            "time": 8.098724666666666,
            "velocity": 0.7874015748031497
          },
          {
            "duration": 0.13452874999999942,
            "durationTicks": 120,
            "midi": 98,
            "name": "D7",
            "ticks": 7360,
            "time": 8.098724666666666,
            "velocity": 0.7874015748031497
          },
          {
            "duration": 0.13452874999999942,
            "durationTicks": 120,
            "midi": 85,
            "name": "C#6",
            "ticks": 7520,
            "time": 8.278096333333332,
            "velocity": 0.7874015748031497
          },
          {
            "duration": 0.13452874999999942,
            "durationTicks": 120,
            "midi": 97,
            "name": "C#7",
            "ticks": 7520,
            "time": 8.278096333333332,
            "velocity": 0.7874015748031497
          },
          {
            "duration": 0.2690575000000006,
            "durationTicks": 240,
            "midi": 108,
            "name": "C8",
            "ticks": 7680,
            "time": 8.457467999999999,
            "velocity": 0.7874015748031497
          },
          {
            "duration": 3.341886500000001,
            "durationTicks": 3000,
            "midi": 96,
            "name": "C7",
            "ticks": 7680,
            "time": 8.457467999999999,
            "velocity": 0.7874015748031497
          },
          {
            "duration": 3.341886500000001,
            "durationTicks": 3000,
            "midi": 84,
            "name": "C6",
            "ticks": 7680,
            "time": 8.457467999999999,
            "velocity": 0.7874015748031497
          },
          {
            "duration": 3.341886500000001,
            "durationTicks": 3000,
            "midi": 72,
            "name": "C5",
            "ticks": 7680,
            "time": 8.457467999999999,
            "velocity": 0.7874015748031497
          },
          {
            "duration": 3.341886500000001,
            "durationTicks": 3000,
            "midi": 60,
            "name": "C4",
            "ticks": 7680,
            "time": 8.457467999999999,
            "velocity": 0.7874015748031497
          },
          {
            "duration": 0.08968583333333235,
            "durationTicks": 80,
            "midi": 108,
            "name": "C8",
            "ticks": 7999,
            "time": 8.815090260416666,
            "velocity": 0.7874015748031497
          },
          {
            "duration": 0.26905749999999884,
            "durationTicks": 240,
            "midi": 108,
            "name": "C8",
            "ticks": 8160,
            "time": 8.995583,
            "velocity": 0.7874015748031497
          },
          {
            "duration": 0.26905749999999884,
            "durationTicks": 240,
            "midi": 108,
            "name": "C8",
            "ticks": 8480,
            "time": 9.354326333333333,
            "velocity": 0.7874015748031497
          },
          {
            "duration": 0.1793716666666647,
            "durationTicks": 160,
            "midi": 108,
            "name": "C8",
            "ticks": 8880,
            "time": 9.8027555,
            "velocity": 0.7874015748031497
          },
          {
            "duration": 0.2690575000000006,
            "durationTicks": 240,
            "midi": 108,
            "name": "C8",
            "ticks": 9120,
            "time": 10.071812999999999,
            "velocity": 0.7874015748031497
          },
          {
            "duration": 0.17621133333333283,
            "durationTicks": 160,
            "midi": 108,
            "name": "C8",
            "ticks": 9600,
            "time": 10.609928,
            "velocity": 0.7874015748031497
          },
          {
            "duration": 0.26431700000000014,
            "durationTicks": 240,
            "midi": 108,
            "name": "C8",
            "ticks": 9840,
            "time": 10.874245,
            "velocity": 0.7874015748031497
          },
          {
            "duration": 0.0881056666666673,
            "durationTicks": 80,
            "midi": 108,
            "name": "C8",
            "ticks": 10240,
            "time": 11.314773333333333,
            "velocity": 0.7874015748031497
          },
          {
            "duration": 0.0881056666666673,
            "durationTicks": 80,
            "midi": 108,
            "name": "C8",
            "ticks": 10400,
            "time": 11.490984666666666,
            "velocity": 0.7874015748031497
          },
          {
            "duration": 0.08810566666666553,
            "durationTicks": 80,
            "midi": 108,
            "name": "C8",
            "ticks": 10560,
            "time": 11.667196,
            "velocity": 0.7874015748031497
          },
          {
            "duration": 0.08810566666666553,
            "durationTicks": 80,
            "midi": 108,
            "name": "C8",
            "ticks": 10720,
            "time": 11.843407333333333,
            "velocity": 0.7874015748031497
          },
          {
            "duration": 0.13215850000000096,
            "durationTicks": 120,
            "midi": 72,
            "name": "C5",
            "ticks": 10800,
            "time": 11.931512999999999,
            "velocity": 0.7874015748031497
          },
          {
            "duration": 0.13215850000000096,
            "durationTicks": 120,
            "midi": 60,
            "name": "C4",
            "ticks": 10800,
            "time": 11.931512999999999,
            "velocity": 0.7874015748031497
          },
          {
            "duration": 0.13215850000000096,
            "durationTicks": 120,
            "midi": 84,
            "name": "C6",
            "ticks": 10800,
            "time": 11.931512999999999,
            "velocity": 0.7874015748031497
          },
          {
            "duration": 0.13215850000000096,
            "durationTicks": 120,
            "midi": 96,
            "name": "C7",
            "ticks": 10800,
            "time": 11.931512999999999,
            "velocity": 0.7874015748031497
          },
          {
            "duration": 0.35242266666666744,
            "durationTicks": 320,
            "midi": 108,
            "name": "C8",
            "ticks": 10880,
            "time": 12.019618666666666,
            "velocity": 0.7874015748031497
          },
          {
            "duration": 0.0881056666666673,
            "durationTicks": 80,
            "midi": 108,
            "name": "C8",
            "ticks": 11360,
            "time": 12.548252666666666,
            "velocity": 0.7874015748031497
          },
          {
            "duration": 0.13215850000000096,
            "durationTicks": 120,
            "midi": 75,
            "name": "D#5",
            "ticks": 11520,
            "time": 12.724464,
            "velocity": 0.7874015748031497
          },
          {
            "duration": 0.13215850000000096,
            "durationTicks": 120,
            "midi": 62,
            "name": "D4",
            "ticks": 11520,
            "time": 12.724464,
            "velocity": 0.7874015748031497
          },
          {
            "duration": 0.13215850000000096,
            "durationTicks": 120,
            "midi": 88,
            "name": "E6",
            "ticks": 11520,
            "time": 12.724464,
            "velocity": 0.7874015748031497
          },
          {
            "duration": 0.13215850000000096,
            "durationTicks": 120,
            "midi": 100,
            "name": "E7",
            "ticks": 11520,
            "time": 12.724464,
            "velocity": 0.7874015748031497
          },
          {
            "duration": 0.26431700000000014,
            "durationTicks": 240,
            "midi": 108,
            "name": "C8",
            "ticks": 11520,
            "time": 12.724464,
            "velocity": 0.7874015748031497
          },
          {
            "duration": 0.5286340000000003,
            "durationTicks": 480,
            "midi": 108,
            "name": "C8",
            "ticks": 11840,
            "time": 13.076886666666667,
            "velocity": 0.7874015748031497
          },
          {
            "duration": 0.44052833333333297,
            "durationTicks": 400,
            "midi": 75,
            "name": "D#5",
            "ticks": 12000,
            "time": 13.253098,
            "velocity": 0.7874015748031497
          },
          {
            "duration": 0.3964754999999993,
            "durationTicks": 360,
            "midi": 62,
            "name": "D4",
            "ticks": 12000,
            "time": 13.253098,
            "velocity": 0.7874015748031497
          },
          {
            "duration": 0.5286340000000003,
            "durationTicks": 480,
            "midi": 88,
            "name": "E6",
            "ticks": 12000,
            "time": 13.253098,
            "velocity": 0.7874015748031497
          },
          {
            "duration": 0.5286340000000003,
            "durationTicks": 480,
            "midi": 100,
            "name": "E7",
            "ticks": 12000,
            "time": 13.253098,
            "velocity": 0.7874015748031497
          },
          {
            "duration": 1.0572679999999988,
            "durationTicks": 960,
            "midi": 106,
            "name": "A#7",
            "ticks": 12465,
            "time": 13.7652121875,
            "velocity": 0.7874015748031497
          },
          {
            "duration": 1.0572679999999988,
            "durationTicks": 960,
            "midi": 94,
            "name": "A#6",
            "ticks": 12465,
            "time": 13.7652121875,
            "velocity": 0.7874015748031497
          },
          {
            "duration": 1.0572679999999988,
            "durationTicks": 960,
            "midi": 70,
            "name": "A#4",
            "ticks": 12465,
            "time": 13.7652121875,
            "velocity": 0.7874015748031497
          },
          {
            "duration": 1.0572679999999988,
            "durationTicks": 960,
            "midi": 82,
            "name": "A#5",
            "ticks": 12465,
            "time": 13.7652121875,
            "velocity": 0.7874015748031497
          },
          {
            "duration": 0.13215849999999918,
            "durationTicks": 120,
            "midi": 74,
            "name": "D5",
            "ticks": 12480,
            "time": 13.781732,
            "velocity": 0.7874015748031497
          },
          {
            "duration": 0.13215849999999918,
            "durationTicks": 120,
            "midi": 61,
            "name": "C#4",
            "ticks": 12480,
            "time": 13.781732,
            "velocity": 0.7874015748031497
          },
          {
            "duration": 0.13215849999999918,
            "durationTicks": 120,
            "midi": 87,
            "name": "D#6",
            "ticks": 12480,
            "time": 13.781732,
            "velocity": 0.7874015748031497
          },
          {
            "duration": 0.13215849999999918,
            "durationTicks": 120,
            "midi": 99,
            "name": "D#7",
            "ticks": 12480,
            "time": 13.781732,
            "velocity": 0.7874015748031497
          },
          {
            "duration": 0.08810566666666553,
            "durationTicks": 80,
            "midi": 108,
            "name": "C8",
            "ticks": 12480,
            "time": 13.781732,
            "velocity": 0.7874015748031497
          },
          {
            "duration": 0.0881056666666673,
            "durationTicks": 80,
            "midi": 108,
            "name": "C8",
            "ticks": 12640,
            "time": 13.957943333333333,
            "velocity": 0.7874015748031497
          },
          {
            "duration": 0.35242266666666566,
            "durationTicks": 320,
            "midi": 108,
            "name": "C8",
            "ticks": 12800,
            "time": 14.134154666666667,
            "velocity": 0.7874015748031497
          },
          {
            "duration": 0.44052833333333297,
            "durationTicks": 400,
            "midi": 74,
            "name": "D5",
            "ticks": 12960,
            "time": 14.310366,
            "velocity": 0.7874015748031497
          },
          {
            "duration": 0.3964754999999993,
            "durationTicks": 360,
            "midi": 61,
            "name": "C#4",
            "ticks": 12960,
            "time": 14.310366,
            "velocity": 0.7874015748031497
          },
          {
            "duration": 0.5286339999999985,
            "durationTicks": 480,
            "midi": 87,
            "name": "D#6",
            "ticks": 12960,
            "time": 14.310366,
            "velocity": 0.7874015748031497
          },
          {
            "duration": 0.5286339999999985,
            "durationTicks": 480,
            "midi": 99,
            "name": "D#7",
            "ticks": 12960,
            "time": 14.310366,
            "velocity": 0.7874015748031497
          },
          {
            "duration": 0.08810566666666553,
            "durationTicks": 80,
            "midi": 108,
            "name": "C8",
            "ticks": 13280,
            "time": 14.662788666666668,
            "velocity": 0.7874015748031497
          },
          {
            "duration": 1.0527005000000003,
            "durationTicks": 960,
            "midi": 105,
            "name": "A7",
            "ticks": 13425,
            "time": 14.822480187499998,
            "velocity": 0.7874015748031497
          },
          {
            "duration": 1.0527005000000003,
            "durationTicks": 960,
            "midi": 93,
            "name": "A6",
            "ticks": 13425,
            "time": 14.822480187499998,
            "velocity": 0.7874015748031497
          },
          {
            "duration": 1.0527005000000003,
            "durationTicks": 960,
            "midi": 69,
            "name": "A4",
            "ticks": 13425,
            "time": 14.822480187499998,
            "velocity": 0.7874015748031497
          },
          {
            "duration": 1.0527005000000003,
            "durationTicks": 960,
            "midi": 81,
            "name": "A5",
            "ticks": 13425,
            "time": 14.822480187499998,
            "velocity": 0.7874015748031497
          },
          {
            "duration": 0.13157849999999982,
            "durationTicks": 120,
            "midi": 73,
            "name": "C#5",
            "ticks": 13440,
            "time": 14.838999999999999,
            "velocity": 0.7874015748031497
          },
          {
            "duration": 0.13157849999999982,
            "durationTicks": 120,
            "midi": 61,
            "name": "C#4",
            "ticks": 13440,
            "time": 14.838999999999999,
            "velocity": 0.7874015748031497
          },
          {
            "duration": 0.13157849999999982,
            "durationTicks": 120,
            "midi": 86,
            "name": "D6",
            "ticks": 13440,
            "time": 14.838999999999999,
            "velocity": 0.7874015748031497
          },
          {
            "duration": 0.13157849999999982,
            "durationTicks": 120,
            "midi": 98,
            "name": "D7",
            "ticks": 13440,
            "time": 14.838999999999999,
            "velocity": 0.7874015748031497
          },
          {
            "duration": 0.26315699999999964,
            "durationTicks": 240,
            "midi": 108,
            "name": "C8",
            "ticks": 13440,
            "time": 14.838999999999999,
            "velocity": 0.7874015748031497
          },
          {
            "duration": 0.3508760000000013,
            "durationTicks": 320,
            "midi": 108,
            "name": "C8",
            "ticks": 13760,
            "time": 15.189875999999998,
            "velocity": 0.7874015748031497
          },
          {
            "duration": 0.4385950000000012,
            "durationTicks": 400,
            "midi": 73,
            "name": "C#5",
            "ticks": 13920,
            "time": 15.365313999999998,
            "velocity": 0.7874015748031497
          },
          {
            "duration": 0.39473550000000124,
            "durationTicks": 360,
            "midi": 61,
            "name": "C#4",
            "ticks": 13920,
            "time": 15.365313999999998,
            "velocity": 0.7874015748031497
          },
          {
            "duration": 0.5263140000000011,
            "durationTicks": 480,
            "midi": 86,
            "name": "D6",
            "ticks": 13920,
            "time": 15.365313999999998,
            "velocity": 0.7874015748031497
          },
          {
            "duration": 0.5263140000000011,
            "durationTicks": 480,
            "midi": 98,
            "name": "D7",
            "ticks": 13920,
            "time": 15.365313999999998,
            "velocity": 0.7874015748031497
          },
          {
            "duration": 0.08771899999999988,
            "durationTicks": 80,
            "midi": 108,
            "name": "C8",
            "ticks": 14240,
            "time": 15.71619,
            "velocity": 0.7874015748031497
          },
          {
            "duration": 1.0526279999999986,
            "durationTicks": 960,
            "midi": 106,
            "name": "A#7",
            "ticks": 14385,
            "time": 15.875180687499999,
            "velocity": 0.7874015748031497
          },
          {
            "duration": 1.0526279999999986,
            "durationTicks": 960,
            "midi": 94,
            "name": "A#6",
            "ticks": 14385,
            "time": 15.875180687499999,
            "velocity": 0.7874015748031497
          },
          {
            "duration": 1.0526279999999986,
            "durationTicks": 960,
            "midi": 70,
            "name": "A#4",
            "ticks": 14385,
            "time": 15.875180687499999,
            "velocity": 0.7874015748031497
          },
          {
            "duration": 1.0526279999999986,
            "durationTicks": 960,
            "midi": 82,
            "name": "A#5",
            "ticks": 14385,
            "time": 15.875180687499999,
            "velocity": 0.7874015748031497
          },
          {
            "duration": 0.1315785000000016,
            "durationTicks": 120,
            "midi": 72,
            "name": "C5",
            "ticks": 14400,
            "time": 15.891627999999999,
            "velocity": 0.7874015748031497
          },
          {
            "duration": 0.1315785000000016,
            "durationTicks": 120,
            "midi": 60,
            "name": "C4",
            "ticks": 14400,
            "time": 15.891627999999999,
            "velocity": 0.7874015748031497
          },
          {
            "duration": 0.1315785000000016,
            "durationTicks": 120,
            "midi": 85,
            "name": "C#6",
            "ticks": 14400,
            "time": 15.891627999999999,
            "velocity": 0.7874015748031497
          },
          {
            "duration": 0.1315785000000016,
            "durationTicks": 120,
            "midi": 97,
            "name": "C#7",
            "ticks": 14400,
            "time": 15.891627999999999,
            "velocity": 0.7874015748031497
          },
          {
            "duration": 0.08771899999999988,
            "durationTicks": 80,
            "midi": 108,
            "name": "C8",
            "ticks": 14400,
            "time": 15.891627999999999,
            "velocity": 0.7874015748031497
          },
          {
            "duration": 0.08771899999999988,
            "durationTicks": 80,
            "midi": 108,
            "name": "C8",
            "ticks": 14560,
            "time": 16.067066,
            "velocity": 0.7874015748031497
          },
          {
            "duration": 0.4385949999999994,
            "durationTicks": 400,
            "midi": 108,
            "name": "C8",
            "ticks": 14719,
            "time": 16.2414075125,
            "velocity": 0.7874015748031497
          },
          {
            "duration": 0.4385949999999994,
            "durationTicks": 400,
            "midi": 72,
            "name": "C5",
            "ticks": 14880,
            "time": 16.417942,
            "velocity": 0.7874015748031497
          },
          {
            "duration": 0.39473549999999946,
            "durationTicks": 360,
            "midi": 60,
            "name": "C4",
            "ticks": 14880,
            "time": 16.417942,
            "velocity": 0.7874015748031497
          },
          {
            "duration": 0.5263139999999993,
            "durationTicks": 480,
            "midi": 85,
            "name": "C#6",
            "ticks": 14880,
            "time": 16.417942,
            "velocity": 0.7874015748031497
          },
          {
            "duration": 0.5263139999999993,
            "durationTicks": 480,
            "midi": 97,
            "name": "C#7",
            "ticks": 14880,
            "time": 16.417942,
            "velocity": 0.7874015748031497
          },
          {
            "duration": 0.08771899999999988,
            "durationTicks": 80,
            "midi": 108,
            "name": "C8",
            "ticks": 15199,
            "time": 16.7677215125,
            "velocity": 0.7874015748031497
          },
          {
            "duration": 1.0526280000000021,
            "durationTicks": 960,
            "midi": 105,
            "name": "A7",
            "ticks": 15345,
            "time": 16.927808687499997,
            "velocity": 0.7874015748031497
          },
          {
            "duration": 1.0526280000000021,
            "durationTicks": 960,
            "midi": 93,
            "name": "A6",
            "ticks": 15345,
            "time": 16.927808687499997,
            "velocity": 0.7874015748031497
          },
          {
            "duration": 1.0526280000000021,
            "durationTicks": 960,
            "midi": 69,
            "name": "A4",
            "ticks": 15345,
            "time": 16.927808687499997,
            "velocity": 0.7874015748031497
          },
          {
            "duration": 1.0526280000000021,
            "durationTicks": 960,
            "midi": 81,
            "name": "A5",
            "ticks": 15345,
            "time": 16.927808687499997,
            "velocity": 0.7874015748031497
          },
          {
            "duration": 0.13157849999999982,
            "durationTicks": 120,
            "midi": 74,
            "name": "D5",
            "ticks": 15360,
            "time": 16.944256,
            "velocity": 0.7874015748031497
          },
          {
            "duration": 0.13157849999999982,
            "durationTicks": 120,
            "midi": 62,
            "name": "D4",
            "ticks": 15360,
            "time": 16.944256,
            "velocity": 0.7874015748031497
          },
          {
            "duration": 0.13157849999999982,
            "durationTicks": 120,
            "midi": 87,
            "name": "D#6",
            "ticks": 15360,
            "time": 16.944256,
            "velocity": 0.7874015748031497
          },
          {
            "duration": 0.13157849999999982,
            "durationTicks": 120,
            "midi": 99,
            "name": "D#7",
            "ticks": 15360,
            "time": 16.944256,
            "velocity": 0.7874015748031497
          },
          {
            "duration": 0.08442953750000015,
            "durationTicks": 77,
            "midi": 108,
            "name": "C8",
            "ticks": 15360,
            "time": 16.944256,
            "velocity": 0.7874015748031497
          },
          {
            "duration": 0.08771899999999988,
            "durationTicks": 80,
            "midi": 108,
            "name": "C8",
            "ticks": 15520,
            "time": 17.119694,
            "velocity": 0.7874015748031497
          },
          {
            "duration": 0.3508759999999995,
            "durationTicks": 320,
            "midi": 108,
            "name": "C8",
            "ticks": 15680,
            "time": 17.295132,
            "velocity": 0.7874015748031497
          },
          {
            "duration": 0.4385949999999994,
            "durationTicks": 400,
            "midi": 74,
            "name": "D5",
            "ticks": 15840,
            "time": 17.47057,
            "velocity": 0.7874015748031497
          },
          {
            "duration": 0.39473549999999946,
            "durationTicks": 360,
            "midi": 62,
            "name": "D4",
            "ticks": 15840,
            "time": 17.47057,
            "velocity": 0.7874015748031497
          },
          {
            "duration": 0.5263139999999993,
            "durationTicks": 480,
            "midi": 87,
            "name": "D#6",
            "ticks": 15840,
            "time": 17.47057,
            "velocity": 0.7874015748031497
          },
          {
            "duration": 0.5263139999999993,
            "durationTicks": 480,
            "midi": 99,
            "name": "D#7",
            "ticks": 15840,
            "time": 17.47057,
            "velocity": 0.7874015748031497
          },
          {
            "duration": 0.08771899999999988,
            "durationTicks": 80,
            "midi": 108,
            "name": "C8",
            "ticks": 16160,
            "time": 17.821445999999998,
            "velocity": 0.7874015748031497
          },
          {
            "duration": 2.100731812500001,
            "durationTicks": 1920,
            "midi": 106,
            "name": "A#7",
            "ticks": 16305,
            "time": 17.9804366875,
            "velocity": 0.7874015748031497
          },
          {
            "duration": 2.100731812500001,
            "durationTicks": 1920,
            "midi": 94,
            "name": "A#6",
            "ticks": 16305,
            "time": 17.9804366875,
            "velocity": 0.7874015748031497
          },
          {
            "duration": 2.100731812500001,
            "durationTicks": 1920,
            "midi": 70,
            "name": "A#4",
            "ticks": 16305,
            "time": 17.9804366875,
            "velocity": 0.7874015748031497
          },
          {
            "duration": 2.100731812500001,
            "durationTicks": 1920,
            "midi": 82,
            "name": "A#5",
            "ticks": 16305,
            "time": 17.9804366875,
            "velocity": 0.7874015748031497
          },
          {
            "duration": 0.13157849999999982,
            "durationTicks": 120,
            "midi": 73,
            "name": "C#5",
            "ticks": 16320,
            "time": 17.996883999999998,
            "velocity": 0.7874015748031497
          },
          {
            "duration": 0.13157849999999982,
            "durationTicks": 120,
            "midi": 61,
            "name": "C#4",
            "ticks": 16320,
            "time": 17.996883999999998,
            "velocity": 0.7874015748031497
          },
          {
            "duration": 0.13157849999999982,
            "durationTicks": 120,
            "midi": 86,
            "name": "D6",
            "ticks": 16320,
            "time": 17.996883999999998,
            "velocity": 0.7874015748031497
          },
          {
            "duration": 0.13157849999999982,
            "durationTicks": 120,
            "midi": 98,
            "name": "D7",
            "ticks": 16320,
            "time": 17.996883999999998,
            "velocity": 0.7874015748031497
          },
          {
            "duration": 0.26315699999999964,
            "durationTicks": 240,
            "midi": 108,
            "name": "C8",
            "ticks": 16320,
            "time": 17.996883999999998,
            "velocity": 0.7874015748031497
          },
          {
            "duration": 0.08771899999999988,
            "durationTicks": 80,
            "midi": 108,
            "name": "C8",
            "ticks": 16640,
            "time": 18.34776,
            "velocity": 0.7874015748031497
          },
          {
            "duration": 0.4385949999999994,
            "durationTicks": 400,
            "midi": 73,
            "name": "C#5",
            "ticks": 16800,
            "time": 18.523198,
            "velocity": 0.7874015748031497
          },
          {
            "duration": 0.39473549999999946,
            "durationTicks": 360,
            "midi": 61,
            "name": "C#4",
            "ticks": 16800,
            "time": 18.523198,
            "velocity": 0.7874015748031497
          },
          {
            "duration": 0.5263139999999993,
            "durationTicks": 480,
            "midi": 86,
            "name": "D6",
            "ticks": 16800,
            "time": 18.523198,
            "velocity": 0.7874015748031497
          },
          {
            "duration": 0.5263139999999993,
            "durationTicks": 480,
            "midi": 98,
            "name": "D7",
            "ticks": 16800,
            "time": 18.523198,
            "velocity": 0.7874015748031497
          },
          {
            "duration": 0.26315699999999964,
            "durationTicks": 240,
            "midi": 108,
            "name": "C8",
            "ticks": 16800,
            "time": 18.523198,
            "velocity": 0.7874015748031497
          },
          {
            "duration": 0.08771899999999988,
            "durationTicks": 80,
            "midi": 108,
            "name": "C8",
            "ticks": 17120,
            "time": 18.874074,
            "velocity": 0.7874015748031497
          },
          {
            "duration": 5.240231812500003,
            "durationTicks": 4800,
            "midi": 105,
            "name": "A7",
            "ticks": 17265,
            "time": 19.033064687499998,
            "velocity": 0.7874015748031497
          },
          {
            "duration": 5.240231812500003,
            "durationTicks": 4800,
            "midi": 93,
            "name": "A6",
            "ticks": 17265,
            "time": 19.033064687499998,
            "velocity": 0.7874015748031497
          },
          {
            "duration": 5.240231812500003,
            "durationTicks": 4800,
            "midi": 69,
            "name": "A4",
            "ticks": 17265,
            "time": 19.033064687499998,
            "velocity": 0.7874015748031497
          },
          {
            "duration": 5.240231812500003,
            "durationTicks": 4800,
            "midi": 81,
            "name": "A5",
            "ticks": 17265,
            "time": 19.033064687499998,
            "velocity": 0.7874015748031497
          },
          {
            "duration": 0.1310040000000008,
            "durationTicks": 120,
            "midi": 73,
            "name": "C#5",
            "ticks": 17280,
            "time": 19.049512,
            "velocity": 0.7874015748031497
          },
          {
            "duration": 0.1310040000000008,
            "durationTicks": 120,
            "midi": 61,
            "name": "C#4",
            "ticks": 17280,
            "time": 19.049512,
            "velocity": 0.7874015748031497
          },
          {
            "duration": 0.1310040000000008,
            "durationTicks": 120,
            "midi": 86,
            "name": "D6",
            "ticks": 17280,
            "time": 19.049512,
            "velocity": 0.7874015748031497
          },
          {
            "duration": 0.1310040000000008,
            "durationTicks": 120,
            "midi": 98,
            "name": "D7",
            "ticks": 17280,
            "time": 19.049512,
            "velocity": 0.7874015748031497
          },
          {
            "duration": 0.17467200000000105,
            "durationTicks": 160,
            "midi": 108,
            "name": "C8",
            "ticks": 17280,
            "time": 19.049512,
            "velocity": 0.7874015748031497
          },
          {
            "duration": 0.17467200000000105,
            "durationTicks": 160,
            "midi": 108,
            "name": "C8",
            "ticks": 17600,
            "time": 19.398856,
            "velocity": 0.7874015748031497
          },
          {
            "duration": 0.5240159999999996,
            "durationTicks": 480,
            "midi": 73,
            "name": "C#5",
            "ticks": 17760,
            "time": 19.573528,
            "velocity": 0.7874015748031497
          },
          {
            "duration": 0.3930119999999988,
            "durationTicks": 360,
            "midi": 61,
            "name": "C#4",
            "ticks": 17760,
            "time": 19.573528,
            "velocity": 0.7874015748031497
          },
          {
            "duration": 0.5240159999999996,
            "durationTicks": 480,
            "midi": 86,
            "name": "D6",
            "ticks": 17760,
            "time": 19.573528,
            "velocity": 0.7874015748031497
          },
          {
            "duration": 0.5240159999999996,
            "durationTicks": 480,
            "midi": 98,
            "name": "D7",
            "ticks": 17760,
            "time": 19.573528,
            "velocity": 0.7874015748031497
          },
          {
            "duration": 0.17467200000000105,
            "durationTicks": 160,
            "midi": 108,
            "name": "C8",
            "ticks": 17920,
            "time": 19.7482,
            "velocity": 0.7874015748031497
          },
          {
            "duration": 1.3100400000000008,
            "durationTicks": 1200,
            "midi": 108,
            "name": "C8",
            "ticks": 18240,
            "time": 20.097544,
            "velocity": 0.7874015748031497
          },
          {
            "duration": 0.13100399999999723,
            "durationTicks": 120,
            "midi": 74,
            "name": "D5",
            "ticks": 19680,
            "time": 21.669592,
            "velocity": 0.7874015748031497
          },
          {
            "duration": 0.13100399999999723,
            "durationTicks": 120,
            "midi": 62,
            "name": "D4",
            "ticks": 19680,
            "time": 21.669592,
            "velocity": 0.7874015748031497
          },
          {
            "duration": 0.13100399999999723,
            "durationTicks": 120,
            "midi": 85,
            "name": "C#6",
            "ticks": 19680,
            "time": 21.669592,
            "velocity": 0.7874015748031497
          },
          {
            "duration": 0.13100399999999723,
            "durationTicks": 120,
            "midi": 97,
            "name": "C#7",
            "ticks": 19680,
            "time": 21.669592,
            "velocity": 0.7874015748031497
          },
          {
            "duration": 0.1310040000000008,
            "durationTicks": 120,
            "midi": 86,
            "name": "D6",
            "ticks": 19840,
            "time": 21.844264,
            "velocity": 0.7874015748031497
          },
          {
            "duration": 0.1310040000000008,
            "durationTicks": 120,
            "midi": 98,
            "name": "D7",
            "ticks": 19840,
            "time": 21.844264,
            "velocity": 0.7874015748031497
          },
          {
            "duration": 0.1310040000000008,
            "durationTicks": 120,
            "midi": 87,
            "name": "D#6",
            "ticks": 20000,
            "time": 22.018936,
            "velocity": 0.7874015748031497
          },
          {
            "duration": 0.1310040000000008,
            "durationTicks": 120,
            "midi": 99,
            "name": "D#7",
            "ticks": 20000,
            "time": 22.018936,
            "velocity": 0.7874015748031497
          },
          {
            "duration": 0.1310040000000008,
            "durationTicks": 120,
            "midi": 72,
            "name": "C5",
            "ticks": 20160,
            "time": 22.193608,
            "velocity": 0.7874015748031497
          },
          {
            "duration": 0.1310040000000008,
            "durationTicks": 120,
            "midi": 60,
            "name": "C4",
            "ticks": 20160,
            "time": 22.193608,
            "velocity": 0.7874015748031497
          },
          {
            "duration": 0.1310040000000008,
            "durationTicks": 120,
            "midi": 85,
            "name": "C#6",
            "ticks": 20160,
            "time": 22.193608,
            "velocity": 0.7874015748031497
          },
          {
            "duration": 0.1310040000000008,
            "durationTicks": 120,
            "midi": 97,
            "name": "C#7",
            "ticks": 20160,
            "time": 22.193608,
            "velocity": 0.7874015748031497
          },
          {
            "duration": 0.08733600000000052,
            "durationTicks": 80,
            "midi": 108,
            "name": "C8",
            "ticks": 20160,
            "time": 22.193608,
            "velocity": 0.7874015748031497
          },
          {
            "duration": 0.08733600000000052,
            "durationTicks": 80,
            "midi": 108,
            "name": "C8",
            "ticks": 20320,
            "time": 22.36828,
            "velocity": 0.7874015748031497
          },
          {
            "duration": 0.1310040000000008,
            "durationTicks": 120,
            "midi": 86,
            "name": "D6",
            "ticks": 20480,
            "time": 22.542952,
            "velocity": 0.7874015748031497
          },
          {
            "duration": 0.1310040000000008,
            "durationTicks": 120,
            "midi": 98,
            "name": "D7",
            "ticks": 20480,
            "time": 22.542952,
            "velocity": 0.7874015748031497
          },
          {
            "duration": 0.3493440000000021,
            "durationTicks": 320,
            "midi": 108,
            "name": "C8",
            "ticks": 20480,
            "time": 22.542952,
            "velocity": 0.7874015748031497
          },
          {
            "duration": 0.1310040000000008,
            "durationTicks": 120,
            "midi": 75,
            "name": "D#5",
            "ticks": 20640,
            "time": 22.717624,
            "velocity": 0.7874015748031497
          },
          {
            "duration": 0.1310040000000008,
            "durationTicks": 120,
            "midi": 62,
            "name": "D4",
            "ticks": 20640,
            "time": 22.717624,
            "velocity": 0.7874015748031497
          },
          {
            "duration": 0.1310040000000008,
            "durationTicks": 120,
            "midi": 87,
            "name": "D#6",
            "ticks": 20640,
            "time": 22.717624,
            "velocity": 0.7874015748031497
          },
          {
            "duration": 0.1310040000000008,
            "durationTicks": 120,
            "midi": 99,
            "name": "D#7",
            "ticks": 20640,
            "time": 22.717624,
            "velocity": 0.7874015748031497
          },
          {
            "duration": 0.1310040000000008,
            "durationTicks": 120,
            "midi": 74,
            "name": "D5",
            "ticks": 20960,
            "time": 23.066968,
            "velocity": 0.7874015748031497
          },
          {
            "duration": 0.1310040000000008,
            "durationTicks": 120,
            "midi": 61,
            "name": "C#4",
            "ticks": 20960,
            "time": 23.066968,
            "velocity": 0.7874015748031497
          },
          {
            "duration": 0.1310040000000008,
            "durationTicks": 120,
            "midi": 86,
            "name": "D6",
            "ticks": 20960,
            "time": 23.066968,
            "velocity": 0.7874015748031497
          },
          {
            "duration": 0.1310040000000008,
            "durationTicks": 120,
            "midi": 98,
            "name": "D7",
            "ticks": 20960,
            "time": 23.066968,
            "velocity": 0.7874015748031497
          },
          {
            "duration": 0.08733600000000052,
            "durationTicks": 80,
            "midi": 108,
            "name": "C8",
            "ticks": 20960,
            "time": 23.066968,
            "velocity": 0.7874015748031497
          },
          {
            "duration": 0.08733600000000052,
            "durationTicks": 80,
            "midi": 108,
            "name": "C8",
            "ticks": 21120,
            "time": 23.24164,
            "velocity": 0.7874015748031497
          },
          {
            "duration": 0.08733599999999697,
            "durationTicks": 80,
            "midi": 108,
            "name": "C8",
            "ticks": 21280,
            "time": 23.416312,
            "velocity": 0.7874015748031497
          },
          {
            "duration": 0.1310040000000008,
            "durationTicks": 120,
            "midi": 74,
            "name": "D5",
            "ticks": 21440,
            "time": 23.590984,
            "velocity": 0.7874015748031497
          },
          {
            "duration": 0.1310040000000008,
            "durationTicks": 120,
            "midi": 62,
            "name": "D4",
            "ticks": 21440,
            "time": 23.590984,
            "velocity": 0.7874015748031497
          },
          {
            "duration": 0.1310040000000008,
            "durationTicks": 120,
            "midi": 86,
            "name": "D6",
            "ticks": 21440,
            "time": 23.590984,
            "velocity": 0.7874015748031497
          },
          {
            "duration": 0.1310040000000008,
            "durationTicks": 120,
            "midi": 98,
            "name": "D7",
            "ticks": 21440,
            "time": 23.590984,
            "velocity": 0.7874015748031497
          },
          {
            "duration": 0.3493440000000021,
            "durationTicks": 320,
            "midi": 108,
            "name": "C8",
            "ticks": 21440,
            "time": 23.590984,
            "velocity": 0.7874015748031497
          },
          {
            "duration": 0.1310040000000008,
            "durationTicks": 120,
            "midi": 75,
            "name": "D#5",
            "ticks": 21600,
            "time": 23.765656,
            "velocity": 0.7874015748031497
          },
          {
            "duration": 0.1310040000000008,
            "durationTicks": 120,
            "midi": 88,
            "name": "E6",
            "ticks": 21600,
            "time": 23.765656,
            "velocity": 0.7874015748031497
          },
          {
            "duration": 0.1310040000000008,
            "durationTicks": 120,
            "midi": 100,
            "name": "E7",
            "ticks": 21600,
            "time": 23.765656,
            "velocity": 0.7874015748031497
          },
          {
            "duration": 0.13100399999999723,
            "durationTicks": 120,
            "midi": 86,
            "name": "D6",
            "ticks": 21920,
            "time": 24.115000000000002,
            "velocity": 0.7874015748031497
          },
          {
            "duration": 0.13100399999999723,
            "durationTicks": 120,
            "midi": 98,
            "name": "D7",
            "ticks": 21920,
            "time": 24.115000000000002,
            "velocity": 0.7874015748031497
          },
          {
            "duration": 2.0780538124999985,
            "durationTicks": 1920,
            "midi": 106,
            "name": "A#7",
            "ticks": 22065,
            "time": 24.2732965,
            "velocity": 0.7874015748031497
          },
          {
            "duration": 2.0780538124999985,
            "durationTicks": 1920,
            "midi": 94,
            "name": "A#6",
            "ticks": 22065,
            "time": 24.2732965,
            "velocity": 0.7874015748031497
          },
          {
            "duration": 2.0780538124999985,
            "durationTicks": 1920,
            "midi": 70,
            "name": "A#4",
            "ticks": 22065,
            "time": 24.2732965,
            "velocity": 0.7874015748031497
          },
          {
            "duration": 2.0780538124999985,
            "durationTicks": 1920,
            "midi": 82,
            "name": "A#5",
            "ticks": 22065,
            "time": 24.2732965,
            "velocity": 0.7874015748031497
          },
          {
            "duration": 0.12986950000000164,
            "durationTicks": 120,
            "midi": 72,
            "name": "C5",
            "ticks": 22080,
            "time": 24.289672,
            "velocity": 0.7874015748031497
          },
          {
            "duration": 0.12986950000000164,
            "durationTicks": 120,
            "midi": 60,
            "name": "C4",
            "ticks": 22080,
            "time": 24.289672,
            "velocity": 0.7874015748031497
          },
          {
            "duration": 0.12986950000000164,
            "durationTicks": 120,
            "midi": 84,
            "name": "C6",
            "ticks": 22080,
            "time": 24.289672,
            "velocity": 0.7874015748031497
          },
          {
            "duration": 0.12986950000000164,
            "durationTicks": 120,
            "midi": 96,
            "name": "C7",
            "ticks": 22080,
            "time": 24.289672,
            "velocity": 0.7874015748031497
          },
          {
            "duration": 0.17315933333333433,
            "durationTicks": 160,
            "midi": 108,
            "name": "C8",
            "ticks": 22080,
            "time": 24.289672,
            "velocity": 0.7874015748031497
          },
          {
            "duration": 0.12986950000000164,
            "durationTicks": 120,
            "midi": 86,
            "name": "D6",
            "ticks": 22400,
            "time": 24.635990666666665,
            "velocity": 0.7874015748031497
          },
          {
            "duration": 0.12986950000000164,
            "durationTicks": 120,
            "midi": 98,
            "name": "D7",
            "ticks": 22400,
            "time": 24.635990666666665,
            "velocity": 0.7874015748031497
          },
          {
            "duration": 0.34631866666666866,
            "durationTicks": 320,
            "midi": 108,
            "name": "C8",
            "ticks": 22400,
            "time": 24.635990666666665,
            "velocity": 0.7874015748031497
          },
          {
            "duration": 0.12986950000000164,
            "durationTicks": 120,
            "midi": 74,
            "name": "D5",
            "ticks": 22560,
            "time": 24.80915,
            "velocity": 0.7874015748031497
          },
          {
            "duration": 0.12986950000000164,
            "durationTicks": 120,
            "midi": 62,
            "name": "D4",
            "ticks": 22560,
            "time": 24.80915,
            "velocity": 0.7874015748031497
          },
          {
            "duration": 0.12986950000000164,
            "durationTicks": 120,
            "midi": 87,
            "name": "D#6",
            "ticks": 22560,
            "time": 24.80915,
            "velocity": 0.7874015748031497
          },
          {
            "duration": 0.12986950000000164,
            "durationTicks": 120,
            "midi": 99,
            "name": "D#7",
            "ticks": 22560,
            "time": 24.80915,
            "velocity": 0.7874015748031497
          },
          {
            "duration": 0.12986949999999808,
            "durationTicks": 120,
            "midi": 86,
            "name": "D6",
            "ticks": 22880,
            "time": 25.155468666666668,
            "velocity": 0.7874015748031497
          },
          {
            "duration": 0.12986949999999808,
            "durationTicks": 120,
            "midi": 98,
            "name": "D7",
            "ticks": 22880,
            "time": 25.155468666666668,
            "velocity": 0.7874015748031497
          },
          {
            "duration": 0.08657966666666539,
            "durationTicks": 80,
            "midi": 108,
            "name": "C8",
            "ticks": 22880,
            "time": 25.155468666666668,
            "velocity": 0.7874015748031497
          },
          {
            "duration": 0.12986950000000164,
            "durationTicks": 120,
            "midi": 73,
            "name": "C#5",
            "ticks": 23040,
            "time": 25.328628,
            "velocity": 0.7874015748031497
          },
          {
            "duration": 0.12986950000000164,
            "durationTicks": 120,
            "midi": 61,
            "name": "C#4",
            "ticks": 23040,
            "time": 25.328628,
            "velocity": 0.7874015748031497
          },
          {
            "duration": 0.12986950000000164,
            "durationTicks": 120,
            "midi": 85,
            "name": "C#6",
            "ticks": 23040,
            "time": 25.328628,
            "velocity": 0.7874015748031497
          },
          {
            "duration": 0.12986950000000164,
            "durationTicks": 120,
            "midi": 97,
            "name": "C#7",
            "ticks": 23040,
            "time": 25.328628,
            "velocity": 0.7874015748031497
          },
          {
            "duration": 0.08657966666666894,
            "durationTicks": 80,
            "midi": 108,
            "name": "C8",
            "ticks": 23040,
            "time": 25.328628,
            "velocity": 0.7874015748031497
          },
          {
            "duration": 0.08657966666666539,
            "durationTicks": 80,
            "midi": 108,
            "name": "C8",
            "ticks": 23200,
            "time": 25.501787333333333,
            "velocity": 0.7874015748031497
          },
          {
            "duration": 0.12986949999999808,
            "durationTicks": 120,
            "midi": 74,
            "name": "D5",
            "ticks": 23360,
            "time": 25.674946666666667,
            "velocity": 0.7874015748031497
          },
          {
            "duration": 0.12986949999999808,
            "durationTicks": 120,
            "midi": 86,
            "name": "D6",
            "ticks": 23360,
            "time": 25.674946666666667,
            "velocity": 0.7874015748031497
          },
          {
            "duration": 0.12986949999999808,
            "durationTicks": 120,
            "midi": 98,
            "name": "D7",
            "ticks": 23360,
            "time": 25.674946666666667,
            "velocity": 0.7874015748031497
          },
          {
            "duration": 0.3463186666666651,
            "durationTicks": 320,
            "midi": 108,
            "name": "C8",
            "ticks": 23360,
            "time": 25.674946666666667,
            "velocity": 0.7874015748031497
          },
          {
            "duration": 0.12986949999999808,
            "durationTicks": 120,
            "midi": 75,
            "name": "D#5",
            "ticks": 23520,
            "time": 25.848106,
            "velocity": 0.7874015748031497
          },
          {
            "duration": 0.12986949999999808,
            "durationTicks": 120,
            "midi": 62,
            "name": "D4",
            "ticks": 23520,
            "time": 25.848106,
            "velocity": 0.7874015748031497
          },
          {
            "duration": 0.12986949999999808,
            "durationTicks": 120,
            "midi": 87,
            "name": "D#6",
            "ticks": 23520,
            "time": 25.848106,
            "velocity": 0.7874015748031497
          },
          {
            "duration": 0.12986949999999808,
            "durationTicks": 120,
            "midi": 99,
            "name": "D#7",
            "ticks": 23520,
            "time": 25.848106,
            "velocity": 0.7874015748031497
          },
          {
            "duration": 0.08657966666666539,
            "durationTicks": 80,
            "midi": 108,
            "name": "C8",
            "ticks": 23840,
            "time": 26.194424666666666,
            "velocity": 0.7874015748031497
          },
          {
            "duration": 2.042816343750001,
            "durationTicks": 1920,
            "midi": 105,
            "name": "A7",
            "ticks": 23985,
            "time": 26.3513503125,
            "velocity": 0.7874015748031497
          },
          {
            "duration": 2.042816343750001,
            "durationTicks": 1920,
            "midi": 93,
            "name": "A6",
            "ticks": 23985,
            "time": 26.3513503125,
            "velocity": 0.7874015748031497
          },
          {
            "duration": 2.042816343750001,
            "durationTicks": 1920,
            "midi": 69,
            "name": "A4",
            "ticks": 23985,
            "time": 26.3513503125,
            "velocity": 0.7874015748031497
          },
          {
            "duration": 2.042816343750001,
            "durationTicks": 1920,
            "midi": 81,
            "name": "A5",
            "ticks": 23985,
            "time": 26.3513503125,
            "velocity": 0.7874015748031497
          },
          {
            "duration": 0.12765874999999838,
            "durationTicks": 120,
            "midi": 74,
            "name": "D5",
            "ticks": 24000,
            "time": 26.367584,
            "velocity": 0.7874015748031497
          },
          {
            "duration": 0.12765874999999838,
            "durationTicks": 120,
            "midi": 62,
            "name": "D4",
            "ticks": 24000,
            "time": 26.367584,
            "velocity": 0.7874015748031497
          },
          {
            "duration": 0.12765874999999838,
            "durationTicks": 120,
            "midi": 85,
            "name": "C#6",
            "ticks": 24000,
            "time": 26.367584,
            "velocity": 0.7874015748031497
          },
          {
            "duration": 0.12765874999999838,
            "durationTicks": 120,
            "midi": 86,
            "name": "D6",
            "ticks": 24000,
            "time": 26.367584,
            "velocity": 0.7874015748031497
          },
          {
            "duration": 0.12765874999999838,
            "durationTicks": 120,
            "midi": 97,
            "name": "C#7",
            "ticks": 24000,
            "time": 26.367584,
            "velocity": 0.7874015748031497
          },
          {
            "duration": 0.12765874999999838,
            "durationTicks": 120,
            "midi": 98,
            "name": "D7",
            "ticks": 24000,
            "time": 26.367584,
            "velocity": 0.7874015748031497
          },
          {
            "duration": 0.2553175000000003,
            "durationTicks": 240,
            "midi": 108,
            "name": "C8",
            "ticks": 24000,
            "time": 26.367584,
            "velocity": 0.7874015748031497
          },
          {
            "duration": 0.08510583333333344,
            "durationTicks": 80,
            "midi": 108,
            "name": "C8",
            "ticks": 24320,
            "time": 26.708007333333335,
            "velocity": 0.7874015748031497
          },
          {
            "duration": 0.12765874999999838,
            "durationTicks": 120,
            "midi": 74,
            "name": "D5",
            "ticks": 24480,
            "time": 26.878219,
            "velocity": 0.7874015748031497
          },
          {
            "duration": 0.12765874999999838,
            "durationTicks": 120,
            "midi": 62,
            "name": "D4",
            "ticks": 24480,
            "time": 26.878219,
            "velocity": 0.7874015748031497
          },
          {
            "duration": 0.12765874999999838,
            "durationTicks": 120,
            "midi": 85,
            "name": "C#6",
            "ticks": 24480,
            "time": 26.878219,
            "velocity": 0.7874015748031497
          },
          {
            "duration": 0.12765874999999838,
            "durationTicks": 120,
            "midi": 86,
            "name": "D6",
            "ticks": 24480,
            "time": 26.878219,
            "velocity": 0.7874015748031497
          },
          {
            "duration": 0.12765874999999838,
            "durationTicks": 120,
            "midi": 97,
            "name": "C#7",
            "ticks": 24480,
            "time": 26.878219,
            "velocity": 0.7874015748031497
          },
          {
            "duration": 0.12765874999999838,
            "durationTicks": 120,
            "midi": 98,
            "name": "D7",
            "ticks": 24480,
            "time": 26.878219,
            "velocity": 0.7874015748031497
          },
          {
            "duration": 0.08510583333333344,
            "durationTicks": 80,
            "midi": 108,
            "name": "C8",
            "ticks": 24480,
            "time": 26.878219,
            "velocity": 0.7874015748031497
          },
          {
            "duration": 0.08510583333333344,
            "durationTicks": 80,
            "midi": 108,
            "name": "C8",
            "ticks": 24640,
            "time": 27.04843066666667,
            "velocity": 0.7874015748031497
          },
          {
            "duration": 0.08510583333333344,
            "durationTicks": 80,
            "midi": 108,
            "name": "C8",
            "ticks": 24800,
            "time": 27.218642333333335,
            "velocity": 0.7874015748031497
          },
          {
            "duration": 0.12765874999999838,
            "durationTicks": 120,
            "midi": 73,
            "name": "C#5",
            "ticks": 24960,
            "time": 27.388854000000002,
            "velocity": 0.7874015748031497
          },
          {
            "duration": 0.12765874999999838,
            "durationTicks": 120,
            "midi": 62,
            "name": "D4",
            "ticks": 24960,
            "time": 27.388854000000002,
            "velocity": 0.7874015748031497
          },
          {
            "duration": 0.12765874999999838,
            "durationTicks": 120,
            "midi": 84,
            "name": "C6",
            "ticks": 24960,
            "time": 27.388854000000002,
            "velocity": 0.7874015748031497
          },
          {
            "duration": 0.12765874999999838,
            "durationTicks": 120,
            "midi": 86,
            "name": "D6",
            "ticks": 24960,
            "time": 27.388854000000002,
            "velocity": 0.7874015748031497
          },
          {
            "duration": 0.12765874999999838,
            "durationTicks": 120,
            "midi": 96,
            "name": "C7",
            "ticks": 24960,
            "time": 27.388854000000002,
            "velocity": 0.7874015748031497
          },
          {
            "duration": 0.12765874999999838,
            "durationTicks": 120,
            "midi": 98,
            "name": "D7",
            "ticks": 24960,
            "time": 27.388854000000002,
            "velocity": 0.7874015748031497
          },
          {
            "duration": 0.34042333333333374,
            "durationTicks": 320,
            "midi": 108,
            "name": "C8",
            "ticks": 24960,
            "time": 27.388854000000002,
            "velocity": 0.7874015748031497
          },
          {
            "duration": 0.12765875000000193,
            "durationTicks": 120,
            "midi": 72,
            "name": "C5",
            "ticks": 25440,
            "time": 27.899489,
            "velocity": 0.7874015748031497
          },
          {
            "duration": 0.12765875000000193,
            "durationTicks": 120,
            "midi": 61,
            "name": "C#4",
            "ticks": 25440,
            "time": 27.899489,
            "velocity": 0.7874015748031497
          },
          {
            "duration": 0.12765875000000193,
            "durationTicks": 120,
            "midi": 84,
            "name": "C6",
            "ticks": 25440,
            "time": 27.899489,
            "velocity": 0.7874015748031497
          },
          {
            "duration": 0.12765875000000193,
            "durationTicks": 120,
            "midi": 85,
            "name": "C#6",
            "ticks": 25440,
            "time": 27.899489,
            "velocity": 0.7874015748031497
          },
          {
            "duration": 0.12765875000000193,
            "durationTicks": 120,
            "midi": 96,
            "name": "C7",
            "ticks": 25440,
            "time": 27.899489,
            "velocity": 0.7874015748031497
          },
          {
            "duration": 0.12765875000000193,
            "durationTicks": 120,
            "midi": 97,
            "name": "C#7",
            "ticks": 25440,
            "time": 27.899489,
            "velocity": 0.7874015748031497
          },
          {
            "duration": 0.17021166666666687,
            "durationTicks": 160,
            "midi": 108,
            "name": "C8",
            "ticks": 25440,
            "time": 27.899489,
            "velocity": 0.7874015748031497
          },
          {
            "duration": 0.08510583333333344,
            "durationTicks": 80,
            "midi": 108,
            "name": "C8",
            "ticks": 25760,
            "time": 28.239912333333333,
            "velocity": 0.7874015748031497
          },
          {
            "duration": 2.0866089999999993,
            "durationTicks": 1920,
            "midi": 106,
            "name": "A#7",
            "ticks": 25905,
            "time": 28.39416665625,
            "velocity": 0.7874015748031497
          },
          {
            "duration": 2.0866089999999993,
            "durationTicks": 1920,
            "midi": 94,
            "name": "A#6",
            "ticks": 25905,
            "time": 28.39416665625,
            "velocity": 0.7874015748031497
          },
          {
            "duration": 2.0866089999999993,
            "durationTicks": 1920,
            "midi": 70,
            "name": "A#4",
            "ticks": 25905,
            "time": 28.39416665625,
            "velocity": 0.7874015748031497
          },
          {
            "duration": 2.0866089999999993,
            "durationTicks": 1920,
            "midi": 82,
            "name": "A#5",
            "ticks": 25905,
            "time": 28.39416665625,
            "velocity": 0.7874015748031497
          },
          {
            "duration": 0.5217390000000002,
            "durationTicks": 480,
            "midi": 74,
            "name": "D5",
            "ticks": 25920,
            "time": 28.410124,
            "velocity": 0.7874015748031497
          },
          {
            "duration": 0.5217390000000002,
            "durationTicks": 480,
            "midi": 73,
            "name": "C#5",
            "ticks": 25920,
            "time": 28.410124,
            "velocity": 0.7874015748031497
          },
          {
            "duration": 0.5217390000000002,
            "durationTicks": 480,
            "midi": 60,
            "name": "C4",
            "ticks": 25920,
            "time": 28.410124,
            "velocity": 0.7874015748031497
          },
          {
            "duration": 0.5217390000000002,
            "durationTicks": 480,
            "midi": 87,
            "name": "D#6",
            "ticks": 25920,
            "time": 28.410124,
            "velocity": 0.7874015748031497
          },
          {
            "duration": 0.5217390000000002,
            "durationTicks": 480,
            "midi": 85,
            "name": "C#6",
            "ticks": 25920,
            "time": 28.410124,
            "velocity": 0.7874015748031497
          },
          {
            "duration": 0.5217390000000002,
            "durationTicks": 480,
            "midi": 98,
            "name": "D7",
            "ticks": 25920,
            "time": 28.410124,
            "velocity": 0.7874015748031497
          },
          {
            "duration": 0.5217390000000002,
            "durationTicks": 480,
            "midi": 97,
            "name": "C#7",
            "ticks": 25920,
            "time": 28.410124,
            "velocity": 0.7874015748031497
          },
          {
            "duration": 0.08695649999999944,
            "durationTicks": 80,
            "midi": 108,
            "name": "C8",
            "ticks": 25920,
            "time": 28.410124,
            "velocity": 0.7874015748031497
          },
          {
            "duration": 0.43478250000000074,
            "durationTicks": 400,
            "midi": 108,
            "name": "C8",
            "ticks": 26080,
            "time": 28.584037,
            "velocity": 0.7874015748031497
          },
          {
            "duration": 0.5217390000000002,
            "durationTicks": 480,
            "midi": 75,
            "name": "D#5",
            "ticks": 26880,
            "time": 29.453602,
            "velocity": 0.7874015748031497
          },
          {
            "duration": 0.5217390000000002,
            "durationTicks": 480,
            "midi": 73,
            "name": "C#5",
            "ticks": 26880,
            "time": 29.453602,
            "velocity": 0.7874015748031497
          },
          {
            "duration": 0.5217390000000002,
            "durationTicks": 480,
            "midi": 61,
            "name": "C#4",
            "ticks": 26880,
            "time": 29.453602,
            "velocity": 0.7874015748031497
          },
          {
            "duration": 0.5217390000000002,
            "durationTicks": 480,
            "midi": 87,
            "name": "D#6",
            "ticks": 26880,
            "time": 29.453602,
            "velocity": 0.7874015748031497
          },
          {
            "duration": 0.5217390000000002,
            "durationTicks": 480,
            "midi": 86,
            "name": "D6",
            "ticks": 26880,
            "time": 29.453602,
            "velocity": 0.7874015748031497
          },
          {
            "duration": 0.5217390000000002,
            "durationTicks": 480,
            "midi": 99,
            "name": "D#7",
            "ticks": 26880,
            "time": 29.453602,
            "velocity": 0.7874015748031497
          },
          {
            "duration": 0.5217390000000002,
            "durationTicks": 480,
            "midi": 98,
            "name": "D7",
            "ticks": 26880,
            "time": 29.453602,
            "velocity": 0.7874015748031497
          },
          {
            "duration": 0.7826084999999985,
            "durationTicks": 720,
            "midi": 108,
            "name": "C8",
            "ticks": 26880,
            "time": 29.453602,
            "velocity": 0.7874015748031497
          },
          {
            "duration": 2.0602939375000027,
            "durationTicks": 1920,
            "midi": 105,
            "name": "A7",
            "ticks": 27825,
            "time": 30.48077565625,
            "velocity": 0.7874015748031497
          },
          {
            "duration": 2.0602939375000027,
            "durationTicks": 1920,
            "midi": 93,
            "name": "A6",
            "ticks": 27825,
            "time": 30.48077565625,
            "velocity": 0.7874015748031497
          },
          {
            "duration": 2.0602939375000027,
            "durationTicks": 1920,
            "midi": 69,
            "name": "A4",
            "ticks": 27825,
            "time": 30.48077565625,
            "velocity": 0.7874015748031497
          },
          {
            "duration": 2.0602939375000027,
            "durationTicks": 1920,
            "midi": 81,
            "name": "A5",
            "ticks": 27825,
            "time": 30.48077565625,
            "velocity": 0.7874015748031497
          },
          {
            "duration": 0.1287552500000011,
            "durationTicks": 120,
            "midi": 74,
            "name": "D5",
            "ticks": 27840,
            "time": 30.49708,
            "velocity": 0.7874015748031497
          },
          {
            "duration": 0.1287552500000011,
            "durationTicks": 120,
            "midi": 75,
            "name": "D#5",
            "ticks": 27840,
            "time": 30.49708,
            "velocity": 0.7874015748031497
          },
          {
            "duration": 0.1287552500000011,
            "durationTicks": 120,
            "midi": 62,
            "name": "D4",
            "ticks": 27840,
            "time": 30.49708,
            "velocity": 0.7874015748031497
          },
          {
            "duration": 0.1287552500000011,
            "durationTicks": 120,
            "midi": 87,
            "name": "D#6",
            "ticks": 27840,
            "time": 30.49708,
            "velocity": 0.7874015748031497
          },
          {
            "duration": 0.1287552500000011,
            "durationTicks": 120,
            "midi": 88,
            "name": "E6",
            "ticks": 27840,
            "time": 30.49708,
            "velocity": 0.7874015748031497
          },
          {
            "duration": 0.1287552500000011,
            "durationTicks": 120,
            "midi": 99,
            "name": "D#7",
            "ticks": 27840,
            "time": 30.49708,
            "velocity": 0.7874015748031497
          },
          {
            "duration": 0.1287552500000011,
            "durationTicks": 120,
            "midi": 100,
            "name": "E7",
            "ticks": 27840,
            "time": 30.49708,
            "velocity": 0.7874015748031497
          },
          {
            "duration": 0.25751049999999864,
            "durationTicks": 240,
            "midi": 108,
            "name": "C8",
            "ticks": 27840,
            "time": 30.49708,
            "velocity": 0.7874015748031497
          },
          {
            "duration": 0.3433473333333339,
            "durationTicks": 320,
            "midi": 108,
            "name": "C8",
            "ticks": 28160,
            "time": 30.840427333333334,
            "velocity": 0.7874015748031497
          },
          {
            "duration": 0.12875524999999755,
            "durationTicks": 120,
            "midi": 74,
            "name": "D5",
            "ticks": 28320,
            "time": 31.012101,
            "velocity": 0.7874015748031497
          },
          {
            "duration": 0.12875524999999755,
            "durationTicks": 120,
            "midi": 75,
            "name": "D#5",
            "ticks": 28320,
            "time": 31.012101,
            "velocity": 0.7874015748031497
          },
          {
            "duration": 0.12875524999999755,
            "durationTicks": 120,
            "midi": 62,
            "name": "D4",
            "ticks": 28320,
            "time": 31.012101,
            "velocity": 0.7874015748031497
          },
          {
            "duration": 0.12875524999999755,
            "durationTicks": 120,
            "midi": 87,
            "name": "D#6",
            "ticks": 28320,
            "time": 31.012101,
            "velocity": 0.7874015748031497
          },
          {
            "duration": 0.12875524999999755,
            "durationTicks": 120,
            "midi": 88,
            "name": "E6",
            "ticks": 28320,
            "time": 31.012101,
            "velocity": 0.7874015748031497
          },
          {
            "duration": 0.12875524999999755,
            "durationTicks": 120,
            "midi": 99,
            "name": "D#7",
            "ticks": 28320,
            "time": 31.012101,
            "velocity": 0.7874015748031497
          },
          {
            "duration": 0.12875524999999755,
            "durationTicks": 120,
            "midi": 100,
            "name": "E7",
            "ticks": 28320,
            "time": 31.012101,
            "velocity": 0.7874015748031497
          },
          {
            "duration": 0.0858368333333317,
            "durationTicks": 80,
            "midi": 108,
            "name": "C8",
            "ticks": 28640,
            "time": 31.355448333333335,
            "velocity": 0.7874015748031497
          },
          {
            "duration": 0.1287552500000011,
            "durationTicks": 120,
            "midi": 73,
            "name": "C#5",
            "ticks": 28800,
            "time": 31.527122,
            "velocity": 0.7874015748031497
          },
          {
            "duration": 0.1287552500000011,
            "durationTicks": 120,
            "midi": 75,
            "name": "D#5",
            "ticks": 28800,
            "time": 31.527122,
            "velocity": 0.7874015748031497
          },
          {
            "duration": 0.1287552500000011,
            "durationTicks": 120,
            "midi": 61,
            "name": "C#4",
            "ticks": 28800,
            "time": 31.527122,
            "velocity": 0.7874015748031497
          },
          {
            "duration": 0.1287552500000011,
            "durationTicks": 120,
            "midi": 86,
            "name": "D6",
            "ticks": 28800,
            "time": 31.527122,
            "velocity": 0.7874015748031497
          },
          {
            "duration": 0.1287552500000011,
            "durationTicks": 120,
            "midi": 87,
            "name": "D#6",
            "ticks": 28800,
            "time": 31.527122,
            "velocity": 0.7874015748031497
          },
          {
            "duration": 0.1287552500000011,
            "durationTicks": 120,
            "midi": 98,
            "name": "D7",
            "ticks": 28800,
            "time": 31.527122,
            "velocity": 0.7874015748031497
          },
          {
            "duration": 0.1287552500000011,
            "durationTicks": 120,
            "midi": 99,
            "name": "D#7",
            "ticks": 28800,
            "time": 31.527122,
            "velocity": 0.7874015748031497
          },
          {
            "duration": 0.08583683333333525,
            "durationTicks": 80,
            "midi": 108,
            "name": "C8",
            "ticks": 28800,
            "time": 31.527122,
            "velocity": 0.7874015748031497
          },
          {
            "duration": 0.08583683333333525,
            "durationTicks": 80,
            "midi": 108,
            "name": "C8",
            "ticks": 28960,
            "time": 31.698795666666665,
            "velocity": 0.7874015748031497
          },
          {
            "duration": 0.5139480395833331,
            "durationTicks": 479,
            "midi": 108,
            "name": "C8",
            "ticks": 29120,
            "time": 31.870469333333332,
            "velocity": 0.7874015748031497
          },
          {
            "duration": 0.12875524999999755,
            "durationTicks": 120,
            "midi": 73,
            "name": "C#5",
            "ticks": 29280,
            "time": 32.042143,
            "velocity": 0.7874015748031497
          },
          {
            "duration": 0.12875524999999755,
            "durationTicks": 120,
            "midi": 75,
            "name": "D#5",
            "ticks": 29280,
            "time": 32.042143,
            "velocity": 0.7874015748031497
          },
          {
            "duration": 0.12875524999999755,
            "durationTicks": 120,
            "midi": 61,
            "name": "C#4",
            "ticks": 29280,
            "time": 32.042143,
            "velocity": 0.7874015748031497
          },
          {
            "duration": 0.12875524999999755,
            "durationTicks": 120,
            "midi": 86,
            "name": "D6",
            "ticks": 29280,
            "time": 32.042143,
            "velocity": 0.7874015748031497
          },
          {
            "duration": 0.12875524999999755,
            "durationTicks": 120,
            "midi": 87,
            "name": "D#6",
            "ticks": 29280,
            "time": 32.042143,
            "velocity": 0.7874015748031497
          },
          {
            "duration": 0.12875524999999755,
            "durationTicks": 120,
            "midi": 98,
            "name": "D7",
            "ticks": 29280,
            "time": 32.042143,
            "velocity": 0.7874015748031497
          },
          {
            "duration": 0.12875524999999755,
            "durationTicks": 120,
            "midi": 99,
            "name": "D#7",
            "ticks": 29280,
            "time": 32.042143,
            "velocity": 0.7874015748031497
          },
          {
            "duration": 6.095430562499999,
            "durationTicks": 5760,
            "midi": 106,
            "name": "A#7",
            "ticks": 29745,
            "time": 32.54106959375,
            "velocity": 0.7874015748031497
          },
          {
            "duration": 6.095430562499999,
            "durationTicks": 5760,
            "midi": 94,
            "name": "A#6",
            "ticks": 29745,
            "time": 32.54106959375,
            "velocity": 0.7874015748031497
          },
          {
            "duration": 6.095430562499999,
            "durationTicks": 5760,
            "midi": 70,
            "name": "A#4",
            "ticks": 29745,
            "time": 32.54106959375,
            "velocity": 0.7874015748031497
          },
          {
            "duration": 6.095430562499999,
            "durationTicks": 5760,
            "midi": 82,
            "name": "A#5",
            "ticks": 29745,
            "time": 32.54106959375,
            "velocity": 0.7874015748031497
          },
          {
            "duration": 0.12875524999999755,
            "durationTicks": 120,
            "midi": 74,
            "name": "D5",
            "ticks": 29760,
            "time": 32.557164,
            "velocity": 0.7874015748031497
          },
          {
            "duration": 0.12875524999999755,
            "durationTicks": 120,
            "midi": 75,
            "name": "D#5",
            "ticks": 29760,
            "time": 32.557164,
            "velocity": 0.7874015748031497
          },
          {
            "duration": 0.12875524999999755,
            "durationTicks": 120,
            "midi": 62,
            "name": "D4",
            "ticks": 29760,
            "time": 32.557164,
            "velocity": 0.7874015748031497
          },
          {
            "duration": 0.12875524999999755,
            "durationTicks": 120,
            "midi": 87,
            "name": "D#6",
            "ticks": 29760,
            "time": 32.557164,
            "velocity": 0.7874015748031497
          },
          {
            "duration": 0.12875524999999755,
            "durationTicks": 120,
            "midi": 88,
            "name": "E6",
            "ticks": 29760,
            "time": 32.557164,
            "velocity": 0.7874015748031497
          },
          {
            "duration": 0.12875524999999755,
            "durationTicks": 120,
            "midi": 99,
            "name": "D#7",
            "ticks": 29760,
            "time": 32.557164,
            "velocity": 0.7874015748031497
          },
          {
            "duration": 0.12875524999999755,
            "durationTicks": 120,
            "midi": 100,
            "name": "E7",
            "ticks": 29760,
            "time": 32.557164,
            "velocity": 0.7874015748031497
          },
          {
            "duration": 0.08476387291666754,
            "durationTicks": 79,
            "midi": 108,
            "name": "C8",
            "ticks": 29760,
            "time": 32.557164,
            "velocity": 0.7874015748031497
          },
          {
            "duration": 0.08690979375000296,
            "durationTicks": 81,
            "midi": 108,
            "name": "C8",
            "ticks": 29919,
            "time": 32.72776470625,
            "velocity": 0.7874015748031497
          },
          {
            "duration": 0.2575104999999951,
            "durationTicks": 240,
            "midi": 108,
            "name": "C8",
            "ticks": 30079,
            "time": 32.89943837291667,
            "velocity": 0.7874015748031497
          },
          {
            "duration": 0.12875525000000465,
            "durationTicks": 120,
            "midi": 74,
            "name": "D5",
            "ticks": 30240,
            "time": 33.072185,
            "velocity": 0.7874015748031497
          },
          {
            "duration": 0.12875525000000465,
            "durationTicks": 120,
            "midi": 75,
            "name": "D#5",
            "ticks": 30240,
            "time": 33.072185,
            "velocity": 0.7874015748031497
          },
          {
            "duration": 0.12875525000000465,
            "durationTicks": 120,
            "midi": 62,
            "name": "D4",
            "ticks": 30240,
            "time": 33.072185,
            "velocity": 0.7874015748031497
          },
          {
            "duration": 0.12875525000000465,
            "durationTicks": 120,
            "midi": 87,
            "name": "D#6",
            "ticks": 30240,
            "time": 33.072185,
            "velocity": 0.7874015748031497
          },
          {
            "duration": 0.12875525000000465,
            "durationTicks": 120,
            "midi": 88,
            "name": "E6",
            "ticks": 30240,
            "time": 33.072185,
            "velocity": 0.7874015748031497
          },
          {
            "duration": 0.12875525000000465,
            "durationTicks": 120,
            "midi": 99,
            "name": "D#7",
            "ticks": 30240,
            "time": 33.072185,
            "velocity": 0.7874015748031497
          },
          {
            "duration": 0.12875525000000465,
            "durationTicks": 120,
            "midi": 100,
            "name": "E7",
            "ticks": 30240,
            "time": 33.072185,
            "velocity": 0.7874015748031497
          },
          {
            "duration": 0.08690979375000296,
            "durationTicks": 81,
            "midi": 108,
            "name": "C8",
            "ticks": 30399,
            "time": 33.24278570625,
            "velocity": 0.7874015748031497
          },
          {
            "duration": 1.2027886270833292,
            "durationTicks": 1121,
            "midi": 105,
            "name": "A7",
            "ticks": 30544,
            "time": 33.39836496666667,
            "velocity": 0.7874015748031497
          },
          {
            "duration": 1.2027886270833292,
            "durationTicks": 1121,
            "midi": 93,
            "name": "A6",
            "ticks": 30544,
            "time": 33.39836496666667,
            "velocity": 0.7874015748031497
          },
          {
            "duration": 1.2027886270833292,
            "durationTicks": 1121,
            "midi": 69,
            "name": "A4",
            "ticks": 30544,
            "time": 33.39836496666667,
            "velocity": 0.7874015748031497
          },
          {
            "duration": 1.2027886270833292,
            "durationTicks": 1121,
            "midi": 81,
            "name": "A5",
            "ticks": 30544,
            "time": 33.39836496666667,
            "velocity": 0.7874015748031497
          },
          {
            "duration": 1.0740333770833317,
            "durationTicks": 1001,
            "midi": 103,
            "name": "G7",
            "ticks": 30544,
            "time": 33.39836496666667,
            "velocity": 0.7874015748031497
          },
          {
            "duration": 1.0740333770833317,
            "durationTicks": 1001,
            "midi": 91,
            "name": "G6",
            "ticks": 30544,
            "time": 33.39836496666667,
            "velocity": 0.7874015748031497
          },
          {
            "duration": 0.12875524999999755,
            "durationTicks": 120,
            "midi": 84,
            "name": "C6",
            "ticks": 30559,
            "time": 33.41445937291667,
            "velocity": 0.7874015748031497
          },
          {
            "duration": 0.12875524999999755,
            "durationTicks": 120,
            "midi": 96,
            "name": "C7",
            "ticks": 30559,
            "time": 33.41445937291667,
            "velocity": 0.7874015748031497
          },
          {
            "duration": 0.0858368333333317,
            "durationTicks": 80,
            "midi": 108,
            "name": "C8",
            "ticks": 30559,
            "time": 33.41445937291667,
            "velocity": 0.7874015748031497
          },
          {
            "duration": 0.9012867500000041,
            "durationTicks": 840,
            "midi": 67,
            "name": "G4",
            "ticks": 30705,
            "time": 33.57111159375,
            "velocity": 0.7874015748031497
          },
          {
            "duration": 0.9012867500000041,
            "durationTicks": 840,
            "midi": 79,
            "name": "G5",
            "ticks": 30705,
            "time": 33.57111159375,
            "velocity": 0.7874015748031497
          },
          {
            "duration": 0.12875524999999755,
            "durationTicks": 120,
            "midi": 73,
            "name": "C#5",
            "ticks": 30720,
            "time": 33.587206,
            "velocity": 0.7874015748031497
          },
          {
            "duration": 0.12875524999999755,
            "durationTicks": 120,
            "midi": 74,
            "name": "D5",
            "ticks": 30720,
            "time": 33.587206,
            "velocity": 0.7874015748031497
          },
          {
            "duration": 0.12875524999999755,
            "durationTicks": 120,
            "midi": 60,
            "name": "C4",
            "ticks": 30720,
            "time": 33.587206,
            "velocity": 0.7874015748031497
          },
          {
            "duration": 0.12875524999999755,
            "durationTicks": 120,
            "midi": 85,
            "name": "C#6",
            "ticks": 30720,
            "time": 33.587206,
            "velocity": 0.7874015748031497
          },
          {
            "duration": 0.12875524999999755,
            "durationTicks": 120,
            "midi": 86,
            "name": "D6",
            "ticks": 30720,
            "time": 33.587206,
            "velocity": 0.7874015748031497
          },
          {
            "duration": 0.12875524999999755,
            "durationTicks": 120,
            "midi": 97,
            "name": "C#7",
            "ticks": 30720,
            "time": 33.587206,
            "velocity": 0.7874015748031497
          },
          {
            "duration": 0.12875524999999755,
            "durationTicks": 120,
            "midi": 98,
            "name": "D7",
            "ticks": 30720,
            "time": 33.587206,
            "velocity": 0.7874015748031497
          },
          {
            "duration": 0.08476387291666754,
            "durationTicks": 79,
            "midi": 108,
            "name": "C8",
            "ticks": 30720,
            "time": 33.587206,
            "velocity": 0.7874015748031497
          },
          {
            "duration": 0.12875524999999755,
            "durationTicks": 120,
            "midi": 84,
            "name": "C6",
            "ticks": 30879,
            "time": 33.75780670625,
            "velocity": 0.7874015748031497
          },
          {
            "duration": 0.12875524999999755,
            "durationTicks": 120,
            "midi": 96,
            "name": "C7",
            "ticks": 30879,
            "time": 33.75780670625,
            "velocity": 0.7874015748031497
          },
          {
            "duration": 0.08690979374999586,
            "durationTicks": 81,
            "midi": 108,
            "name": "C8",
            "ticks": 30879,
            "time": 33.75780670625,
            "velocity": 0.7874015748031497
          },
          {
            "duration": 0.5150210000000044,
            "durationTicks": 480,
            "midi": 73,
            "name": "C#5",
            "ticks": 31039,
            "time": 33.929480372916665,
            "velocity": 0.7874015748031497
          },
          {
            "duration": 0.5150210000000044,
            "durationTicks": 480,
            "midi": 75,
            "name": "D#5",
            "ticks": 31039,
            "time": 33.929480372916665,
            "velocity": 0.7874015748031497
          },
          {
            "duration": 0.5150210000000044,
            "durationTicks": 480,
            "midi": 61,
            "name": "C#4",
            "ticks": 31039,
            "time": 33.929480372916665,
            "velocity": 0.7874015748031497
          },
          {
            "duration": 0.5150210000000044,
            "durationTicks": 480,
            "midi": 85,
            "name": "C#6",
            "ticks": 31039,
            "time": 33.929480372916665,
            "velocity": 0.7874015748031497
          },
          {
            "duration": 0.5150210000000044,
            "durationTicks": 480,
            "midi": 87,
            "name": "D#6",
            "ticks": 31039,
            "time": 33.929480372916665,
            "velocity": 0.7874015748031497
          },
          {
            "duration": 0.5150210000000044,
            "durationTicks": 480,
            "midi": 97,
            "name": "C#7",
            "ticks": 31039,
            "time": 33.929480372916665,
            "velocity": 0.7874015748031497
          },
          {
            "duration": 0.5150210000000044,
            "durationTicks": 480,
            "midi": 99,
            "name": "D#7",
            "ticks": 31039,
            "time": 33.929480372916665,
            "velocity": 0.7874015748031497
          },
          {
            "duration": 0.1716736666666705,
            "durationTicks": 160,
            "midi": 108,
            "name": "C8",
            "ticks": 31039,
            "time": 33.929480372916665,
            "velocity": 0.7874015748031497
          },
          {
            "duration": 0.0858368333333317,
            "durationTicks": 80,
            "midi": 108,
            "name": "C8",
            "ticks": 31519,
            "time": 34.44450137291667,
            "velocity": 0.7874015748031497
          },
          {
            "duration": 0.12820500000000123,
            "durationTicks": 120,
            "midi": 73,
            "name": "C#5",
            "ticks": 31680,
            "time": 34.617248000000004,
            "velocity": 0.7874015748031497
          },
          {
            "duration": 0.12820500000000123,
            "durationTicks": 120,
            "midi": 74,
            "name": "D5",
            "ticks": 31680,
            "time": 34.617248000000004,
            "velocity": 0.7874015748031497
          },
          {
            "duration": 0.12820500000000123,
            "durationTicks": 120,
            "midi": 62,
            "name": "D4",
            "ticks": 31680,
            "time": 34.617248000000004,
            "velocity": 0.7874015748031497
          },
          {
            "duration": 0.12820500000000123,
            "durationTicks": 120,
            "midi": 86,
            "name": "D6",
            "ticks": 31680,
            "time": 34.617248000000004,
            "velocity": 0.7874015748031497
          },
          {
            "duration": 0.12820500000000123,
            "durationTicks": 120,
            "midi": 87,
            "name": "D#6",
            "ticks": 31680,
            "time": 34.617248000000004,
            "velocity": 0.7874015748031497
          },
          {
            "duration": 0.12820500000000123,
            "durationTicks": 120,
            "midi": 97,
            "name": "C#7",
            "ticks": 31680,
            "time": 34.617248000000004,
            "velocity": 0.7874015748031497
          },
          {
            "duration": 0.12820500000000123,
            "durationTicks": 120,
            "midi": 98,
            "name": "D7",
            "ticks": 31680,
            "time": 34.617248000000004,
            "velocity": 0.7874015748031497
          },
          {
            "duration": 0.08333325000000258,
            "durationTicks": 78,
            "midi": 108,
            "name": "C8",
            "ticks": 31680,
            "time": 34.617248000000004,
            "velocity": 0.7874015748031497
          },
          {
            "duration": 0.08547000000000082,
            "durationTicks": 80,
            "midi": 108,
            "name": "C8",
            "ticks": 31840,
            "time": 34.788188000000005,
            "velocity": 0.7874015748031497
          },
          {
            "duration": 0.34294837499999886,
            "durationTicks": 321,
            "midi": 108,
            "name": "C8",
            "ticks": 31998,
            "time": 34.95699125,
            "velocity": 0.7874015748031497
          },
          {
            "duration": 0.12820500000000123,
            "durationTicks": 120,
            "midi": 73,
            "name": "C#5",
            "ticks": 32160,
            "time": 35.130068,
            "velocity": 0.7874015748031497
          },
          {
            "duration": 0.12820500000000123,
            "durationTicks": 120,
            "midi": 74,
            "name": "D5",
            "ticks": 32160,
            "time": 35.130068,
            "velocity": 0.7874015748031497
          },
          {
            "duration": 0.12820500000000123,
            "durationTicks": 120,
            "midi": 62,
            "name": "D4",
            "ticks": 32160,
            "time": 35.130068,
            "velocity": 0.7874015748031497
          },
          {
            "duration": 0.12820500000000123,
            "durationTicks": 120,
            "midi": 86,
            "name": "D6",
            "ticks": 32160,
            "time": 35.130068,
            "velocity": 0.7874015748031497
          },
          {
            "duration": 0.12820500000000123,
            "durationTicks": 120,
            "midi": 87,
            "name": "D#6",
            "ticks": 32160,
            "time": 35.130068,
            "velocity": 0.7874015748031497
          },
          {
            "duration": 0.12820500000000123,
            "durationTicks": 120,
            "midi": 97,
            "name": "C#7",
            "ticks": 32160,
            "time": 35.130068,
            "velocity": 0.7874015748031497
          },
          {
            "duration": 0.12820500000000123,
            "durationTicks": 120,
            "midi": 98,
            "name": "D7",
            "ticks": 32160,
            "time": 35.130068,
            "velocity": 0.7874015748031497
          },
          {
            "duration": 0.08653837499999639,
            "durationTicks": 81,
            "midi": 108,
            "name": "C8",
            "ticks": 32478,
            "time": 35.46981125000001,
            "velocity": 0.7874015748031497
          },
          {
            "duration": 0.12820499999999413,
            "durationTicks": 120,
            "midi": 73,
            "name": "C#5",
            "ticks": 32640,
            "time": 35.642888000000006,
            "velocity": 0.7874015748031497
          },
          {
            "duration": 0.12820499999999413,
            "durationTicks": 120,
            "midi": 74,
            "name": "D5",
            "ticks": 32640,
            "time": 35.642888000000006,
            "velocity": 0.7874015748031497
          },
          {
            "duration": 0.12820499999999413,
            "durationTicks": 120,
            "midi": 62,
            "name": "D4",
            "ticks": 32640,
            "time": 35.642888000000006,
            "velocity": 0.7874015748031497
          },
          {
            "duration": 0.12820499999999413,
            "durationTicks": 120,
            "midi": 86,
            "name": "D6",
            "ticks": 32640,
            "time": 35.642888000000006,
            "velocity": 0.7874015748031497
          },
          {
            "duration": 0.12820499999999413,
            "durationTicks": 120,
            "midi": 87,
            "name": "D#6",
            "ticks": 32640,
            "time": 35.642888000000006,
            "velocity": 0.7874015748031497
          },
          {
            "duration": 0.12820499999999413,
            "durationTicks": 120,
            "midi": 97,
            "name": "C#7",
            "ticks": 32640,
            "time": 35.642888000000006,
            "velocity": 0.7874015748031497
          },
          {
            "duration": 0.12820499999999413,
            "durationTicks": 120,
            "midi": 98,
            "name": "D7",
            "ticks": 32640,
            "time": 35.642888000000006,
            "velocity": 0.7874015748031497
          },
          {
            "duration": 0.17093999999999454,
            "durationTicks": 160,
            "midi": 108,
            "name": "C8",
            "ticks": 32640,
            "time": 35.642888000000006,
            "velocity": 0.7874015748031497
          },
          {
            "duration": 0.08547000000000082,
            "durationTicks": 80,
            "midi": 108,
            "name": "C8",
            "ticks": 32960,
            "time": 35.984768,
            "velocity": 0.7874015748031497
          },
          {
            "duration": 0.5128199999999978,
            "durationTicks": 480,
            "midi": 73,
            "name": "C#5",
            "ticks": 33120,
            "time": 36.155708000000004,
            "velocity": 0.7874015748031497
          },
          {
            "duration": 0.5128199999999978,
            "durationTicks": 480,
            "midi": 75,
            "name": "D#5",
            "ticks": 33120,
            "time": 36.155708000000004,
            "velocity": 0.7874015748031497
          },
          {
            "duration": 0.5128199999999978,
            "durationTicks": 480,
            "midi": 61,
            "name": "C#4",
            "ticks": 33120,
            "time": 36.155708000000004,
            "velocity": 0.7874015748031497
          },
          {
            "duration": 0.5128199999999978,
            "durationTicks": 480,
            "midi": 85,
            "name": "C#6",
            "ticks": 33120,
            "time": 36.155708000000004,
            "velocity": 0.7874015748031497
          },
          {
            "duration": 0.5128199999999978,
            "durationTicks": 480,
            "midi": 87,
            "name": "D#6",
            "ticks": 33120,
            "time": 36.155708000000004,
            "velocity": 0.7874015748031497
          },
          {
            "duration": 0.5128199999999978,
            "durationTicks": 480,
            "midi": 97,
            "name": "C#7",
            "ticks": 33120,
            "time": 36.155708000000004,
            "velocity": 0.7874015748031497
          },
          {
            "duration": 0.5128199999999978,
            "durationTicks": 480,
            "midi": 99,
            "name": "D#7",
            "ticks": 33120,
            "time": 36.155708000000004,
            "velocity": 0.7874015748031497
          },
          {
            "duration": 0.7607534999999999,
            "durationTicks": 720,
            "midi": 108,
            "name": "C8",
            "ticks": 33120,
            "time": 36.155708000000004,
            "velocity": 0.7874015748031497
          },
          {
            "duration": 1.487600999999998,
            "durationTicks": 1440,
            "midi": 74,
            "name": "D5",
            "ticks": 33920,
            "time": 36.999106000000005,
            "velocity": 0.7874015748031497
          },
          {
            "duration": 1.487600999999998,
            "durationTicks": 1440,
            "midi": 72,
            "name": "C5",
            "ticks": 33920,
            "time": 36.999106000000005,
            "velocity": 0.7874015748031497
          },
          {
            "duration": 1.487600999999998,
            "durationTicks": 1440,
            "midi": 61,
            "name": "C#4",
            "ticks": 33920,
            "time": 36.999106000000005,
            "velocity": 0.7874015748031497
          },
          {
            "duration": 1.487600999999998,
            "durationTicks": 1440,
            "midi": 60,
            "name": "C4",
            "ticks": 33920,
            "time": 36.999106000000005,
            "velocity": 0.7874015748031497
          },
          {
            "duration": 1.487600999999998,
            "durationTicks": 1440,
            "midi": 86,
            "name": "D6",
            "ticks": 33920,
            "time": 36.999106000000005,
            "velocity": 0.7874015748031497
          },
          {
            "duration": 1.487600999999998,
            "durationTicks": 1440,
            "midi": 84,
            "name": "C6",
            "ticks": 33920,
            "time": 36.999106000000005,
            "velocity": 0.7874015748031497
          },
          {
            "duration": 1.487600999999998,
            "durationTicks": 1440,
            "midi": 98,
            "name": "D7",
            "ticks": 33920,
            "time": 36.999106000000005,
            "velocity": 0.7874015748031497
          },
          {
            "duration": 1.487600999999998,
            "durationTicks": 1440,
            "midi": 96,
            "name": "C7",
            "ticks": 33920,
            "time": 36.999106000000005,
            "velocity": 0.7874015748031497
          },
          {
            "duration": 0.49586700000000405,
            "durationTicks": 480,
            "midi": 108,
            "name": "C8",
            "ticks": 34880,
            "time": 37.99084,
            "velocity": 0.7874015748031497
          },
          {
            "duration": 2.0507502187500037,
            "durationTicks": 1920,
            "midi": 105,
            "name": "A7",
            "ticks": 35505,
            "time": 38.63650015625,
            "velocity": 0.7874015748031497
          },
          {
            "duration": 2.0507502187500037,
            "durationTicks": 1920,
            "midi": 93,
            "name": "A6",
            "ticks": 35505,
            "time": 38.63650015625,
            "velocity": 0.7874015748031497
          },
          {
            "duration": 2.0507502187500037,
            "durationTicks": 1920,
            "midi": 69,
            "name": "A4",
            "ticks": 35505,
            "time": 38.63650015625,
            "velocity": 0.7874015748031497
          },
          {
            "duration": 2.0507502187500037,
            "durationTicks": 1920,
            "midi": 81,
            "name": "A5",
            "ticks": 35505,
            "time": 38.63650015625,
            "velocity": 0.7874015748031497
          },
          {
            "duration": 0.12820500000000123,
            "durationTicks": 120,
            "midi": 60,
            "name": "C4",
            "ticks": 35520,
            "time": 38.651996000000004,
            "velocity": 0.7874015748031497
          },
          {
            "duration": 0.12820500000000123,
            "durationTicks": 120,
            "midi": 73,
            "name": "C#5",
            "ticks": 35520,
            "time": 38.651996000000004,
            "velocity": 0.7874015748031497
          },
          {
            "duration": 0.12820500000000123,
            "durationTicks": 120,
            "midi": 85,
            "name": "C#6",
            "ticks": 35520,
            "time": 38.651996000000004,
            "velocity": 0.7874015748031497
          },
          {
            "duration": 0.12820500000000123,
            "durationTicks": 120,
            "midi": 97,
            "name": "C#7",
            "ticks": 35520,
            "time": 38.651996000000004,
            "velocity": 0.7874015748031497
          },
          {
            "duration": 0.08547000000000082,
            "durationTicks": 80,
            "midi": 108,
            "name": "C8",
            "ticks": 35520,
            "time": 38.651996000000004,
            "velocity": 0.7874015748031497
          },
          {
            "duration": 0.08547000000000082,
            "durationTicks": 80,
            "midi": 108,
            "name": "C8",
            "ticks": 35680,
            "time": 38.822936000000006,
            "velocity": 0.7874015748031497
          },
          {
            "duration": 0.427349999999997,
            "durationTicks": 400,
            "midi": 108,
            "name": "C8",
            "ticks": 35840,
            "time": 38.99387600000001,
            "velocity": 0.7874015748031497
          },
          {
            "duration": 0.12820500000000123,
            "durationTicks": 120,
            "midi": 75,
            "name": "D#5",
            "ticks": 36000,
            "time": 39.164816,
            "velocity": 0.7874015748031497
          },
          {
            "duration": 0.12820500000000123,
            "durationTicks": 120,
            "midi": 62,
            "name": "D4",
            "ticks": 36000,
            "time": 39.164816,
            "velocity": 0.7874015748031497
          },
          {
            "duration": 0.12820500000000123,
            "durationTicks": 120,
            "midi": 86,
            "name": "D6",
            "ticks": 36000,
            "time": 39.164816,
            "velocity": 0.7874015748031497
          },
          {
            "duration": 0.12820500000000123,
            "durationTicks": 120,
            "midi": 88,
            "name": "E6",
            "ticks": 36000,
            "time": 39.164816,
            "velocity": 0.7874015748031497
          },
          {
            "duration": 0.12820500000000123,
            "durationTicks": 120,
            "midi": 98,
            "name": "D7",
            "ticks": 36000,
            "time": 39.164816,
            "velocity": 0.7874015748031497
          },
          {
            "duration": 0.12820500000000123,
            "durationTicks": 120,
            "midi": 100,
            "name": "E7",
            "ticks": 36000,
            "time": 39.164816,
            "velocity": 0.7874015748031497
          },
          {
            "duration": 0.08547000000000082,
            "durationTicks": 80,
            "midi": 108,
            "name": "C8",
            "ticks": 36320,
            "time": 39.506696000000005,
            "velocity": 0.7874015748031497
          },
          {
            "duration": 0.12820499999999413,
            "durationTicks": 120,
            "midi": 74,
            "name": "D5",
            "ticks": 36480,
            "time": 39.67763600000001,
            "velocity": 0.7874015748031497
          },
          {
            "duration": 0.12820499999999413,
            "durationTicks": 120,
            "midi": 61,
            "name": "C#4",
            "ticks": 36480,
            "time": 39.67763600000001,
            "velocity": 0.7874015748031497
          },
          {
            "duration": 0.12820499999999413,
            "durationTicks": 120,
            "midi": 86,
            "name": "D6",
            "ticks": 36480,
            "time": 39.67763600000001,
            "velocity": 0.7874015748031497
          },
          {
            "duration": 0.12820499999999413,
            "durationTicks": 120,
            "midi": 98,
            "name": "D7",
            "ticks": 36480,
            "time": 39.67763600000001,
            "velocity": 0.7874015748031497
          },
          {
            "duration": 0.08546999999999372,
            "durationTicks": 80,
            "midi": 108,
            "name": "C8",
            "ticks": 36480,
            "time": 39.67763600000001,
            "velocity": 0.7874015748031497
          },
          {
            "duration": 0.08547000000000082,
            "durationTicks": 80,
            "midi": 108,
            "name": "C8",
            "ticks": 36640,
            "time": 39.848576,
            "velocity": 0.7874015748031497
          },
          {
            "duration": 0.25641000000000247,
            "durationTicks": 240,
            "midi": 108,
            "name": "C8",
            "ticks": 36800,
            "time": 40.019516,
            "velocity": 0.7874015748031497
          },
          {
            "duration": 0.12820500000000123,
            "durationTicks": 120,
            "midi": 75,
            "name": "D#5",
            "ticks": 36960,
            "time": 40.190456000000005,
            "velocity": 0.7874015748031497
          },
          {
            "duration": 0.12820500000000123,
            "durationTicks": 120,
            "midi": 62,
            "name": "D4",
            "ticks": 36960,
            "time": 40.190456000000005,
            "velocity": 0.7874015748031497
          },
          {
            "duration": 0.12820500000000123,
            "durationTicks": 120,
            "midi": 87,
            "name": "D#6",
            "ticks": 36960,
            "time": 40.190456000000005,
            "velocity": 0.7874015748031497
          },
          {
            "duration": 0.12820500000000123,
            "durationTicks": 120,
            "midi": 88,
            "name": "E6",
            "ticks": 36960,
            "time": 40.190456000000005,
            "velocity": 0.7874015748031497
          },
          {
            "duration": 0.12820500000000123,
            "durationTicks": 120,
            "midi": 99,
            "name": "D#7",
            "ticks": 36960,
            "time": 40.190456000000005,
            "velocity": 0.7874015748031497
          },
          {
            "duration": 0.12820500000000123,
            "durationTicks": 120,
            "midi": 100,
            "name": "E7",
            "ticks": 36960,
            "time": 40.190456000000005,
            "velocity": 0.7874015748031497
          },
          {
            "duration": 0.08547000000000082,
            "durationTicks": 80,
            "midi": 108,
            "name": "C8",
            "ticks": 37280,
            "time": 40.532336,
            "velocity": 0.7874015748031497
          },
          {
            "duration": 2.060015218749996,
            "durationTicks": 1920,
            "midi": 106,
            "name": "A#7",
            "ticks": 37425,
            "time": 40.687250375000005,
            "velocity": 0.7874015748031497
          },
          {
            "duration": 2.060015218749996,
            "durationTicks": 1920,
            "midi": 94,
            "name": "A#6",
            "ticks": 37425,
            "time": 40.687250375000005,
            "velocity": 0.7874015748031497
          },
          {
            "duration": 2.060015218749996,
            "durationTicks": 1920,
            "midi": 70,
            "name": "A#4",
            "ticks": 37425,
            "time": 40.687250375000005,
            "velocity": 0.7874015748031497
          },
          {
            "duration": 2.060015218749996,
            "durationTicks": 1920,
            "midi": 82,
            "name": "A#5",
            "ticks": 37425,
            "time": 40.687250375000005,
            "velocity": 0.7874015748031497
          },
          {
            "duration": 0.12875524999999755,
            "durationTicks": 120,
            "midi": 72,
            "name": "C5",
            "ticks": 37440,
            "time": 40.703276,
            "velocity": 0.7874015748031497
          },
          {
            "duration": 0.12875524999999755,
            "durationTicks": 120,
            "midi": 60,
            "name": "C4",
            "ticks": 37440,
            "time": 40.703276,
            "velocity": 0.7874015748031497
          },
          {
            "duration": 0.12875524999999755,
            "durationTicks": 120,
            "midi": 84,
            "name": "C6",
            "ticks": 37440,
            "time": 40.703276,
            "velocity": 0.7874015748031497
          },
          {
            "duration": 0.12875524999999755,
            "durationTicks": 120,
            "midi": 96,
            "name": "C7",
            "ticks": 37440,
            "time": 40.703276,
            "velocity": 0.7874015748031497
          },
          {
            "duration": 0.2575105000000022,
            "durationTicks": 240,
            "midi": 108,
            "name": "C8",
            "ticks": 37440,
            "time": 40.703276,
            "velocity": 0.7874015748031497
          },
          {
            "duration": 0.0858368333333317,
            "durationTicks": 80,
            "midi": 108,
            "name": "C8",
            "ticks": 37760,
            "time": 41.046623333333336,
            "velocity": 0.7874015748031497
          },
          {
            "duration": 0.12875525000000465,
            "durationTicks": 120,
            "midi": 74,
            "name": "D5",
            "ticks": 37920,
            "time": 41.218297,
            "velocity": 0.7874015748031497
          },
          {
            "duration": 0.12875525000000465,
            "durationTicks": 120,
            "midi": 62,
            "name": "D4",
            "ticks": 37920,
            "time": 41.218297,
            "velocity": 0.7874015748031497
          },
          {
            "duration": 0.12875525000000465,
            "durationTicks": 120,
            "midi": 87,
            "name": "D#6",
            "ticks": 37920,
            "time": 41.218297,
            "velocity": 0.7874015748031497
          },
          {
            "duration": 0.12875525000000465,
            "durationTicks": 120,
            "midi": 85,
            "name": "C#6",
            "ticks": 37920,
            "time": 41.218297,
            "velocity": 0.7874015748031497
          },
          {
            "duration": 0.12875525000000465,
            "durationTicks": 120,
            "midi": 99,
            "name": "D#7",
            "ticks": 37920,
            "time": 41.218297,
            "velocity": 0.7874015748031497
          },
          {
            "duration": 0.12875525000000465,
            "durationTicks": 120,
            "midi": 97,
            "name": "C#7",
            "ticks": 37920,
            "time": 41.218297,
            "velocity": 0.7874015748031497
          },
          {
            "duration": 0.1716736666666705,
            "durationTicks": 160,
            "midi": 108,
            "name": "C8",
            "ticks": 37920,
            "time": 41.218297,
            "velocity": 0.7874015748031497
          },
          {
            "duration": 0.0858368333333388,
            "durationTicks": 80,
            "midi": 108,
            "name": "C8",
            "ticks": 38240,
            "time": 41.561644333333334,
            "velocity": 0.7874015748031497
          },
          {
            "duration": 0.12875524999999755,
            "durationTicks": 120,
            "midi": 73,
            "name": "C#5",
            "ticks": 38400,
            "time": 41.733318000000004,
            "velocity": 0.7874015748031497
          },
          {
            "duration": 0.12875524999999755,
            "durationTicks": 120,
            "midi": 60,
            "name": "C4",
            "ticks": 38400,
            "time": 41.733318000000004,
            "velocity": 0.7874015748031497
          },
          {
            "duration": 0.12875524999999755,
            "durationTicks": 120,
            "midi": 85,
            "name": "C#6",
            "ticks": 38400,
            "time": 41.733318000000004,
            "velocity": 0.7874015748031497
          },
          {
            "duration": 0.12875524999999755,
            "durationTicks": 120,
            "midi": 97,
            "name": "C#7",
            "ticks": 38400,
            "time": 41.733318000000004,
            "velocity": 0.7874015748031497
          },
          {
            "duration": 0.0858368333333317,
            "durationTicks": 80,
            "midi": 108,
            "name": "C8",
            "ticks": 38400,
            "time": 41.733318000000004,
            "velocity": 0.7874015748031497
          },
          {
            "duration": 0.0858368333333317,
            "durationTicks": 80,
            "midi": 108,
            "name": "C8",
            "ticks": 38560,
            "time": 41.90499166666667,
            "velocity": 0.7874015748031497
          },
          {
            "duration": 0.2575104999999951,
            "durationTicks": 240,
            "midi": 108,
            "name": "C8",
            "ticks": 38720,
            "time": 42.07666533333334,
            "velocity": 0.7874015748031497
          },
          {
            "duration": 0.12875524999999755,
            "durationTicks": 120,
            "midi": 74,
            "name": "D5",
            "ticks": 38880,
            "time": 42.248339,
            "velocity": 0.7874015748031497
          },
          {
            "duration": 0.12875524999999755,
            "durationTicks": 120,
            "midi": 61,
            "name": "C#4",
            "ticks": 38880,
            "time": 42.248339,
            "velocity": 0.7874015748031497
          },
          {
            "duration": 0.12875524999999755,
            "durationTicks": 120,
            "midi": 86,
            "name": "D6",
            "ticks": 38880,
            "time": 42.248339,
            "velocity": 0.7874015748031497
          },
          {
            "duration": 0.12875524999999755,
            "durationTicks": 120,
            "midi": 87,
            "name": "D#6",
            "ticks": 38880,
            "time": 42.248339,
            "velocity": 0.7874015748031497
          },
          {
            "duration": 0.12875524999999755,
            "durationTicks": 120,
            "midi": 98,
            "name": "D7",
            "ticks": 38880,
            "time": 42.248339,
            "velocity": 0.7874015748031497
          },
          {
            "duration": 0.12875524999999755,
            "durationTicks": 120,
            "midi": 99,
            "name": "D#7",
            "ticks": 38880,
            "time": 42.248339,
            "velocity": 0.7874015748031497
          },
          {
            "duration": 1.6389849375000054,
            "durationTicks": 1560,
            "midi": 103,
            "name": "G7",
            "ticks": 39345,
            "time": 42.74726559375,
            "velocity": 0.7874015748031497
          },
          {
            "duration": 17.24583678125,
            "durationTicks": 16320,
            "midi": 105,
            "name": "A7",
            "ticks": 39345,
            "time": 42.74726559375,
            "velocity": 0.7874015748031497
          },
          {
            "duration": 1.6389849375000054,
            "durationTicks": 1560,
            "midi": 91,
            "name": "G6",
            "ticks": 39345,
            "time": 42.74726559375,
            "velocity": 0.7874015748031497
          },
          {
            "duration": 17.24583678125,
            "durationTicks": 16320,
            "midi": 93,
            "name": "A6",
            "ticks": 39345,
            "time": 42.74726559375,
            "velocity": 0.7874015748031497
          },
          {
            "duration": 1.6389849375000054,
            "durationTicks": 1560,
            "midi": 67,
            "name": "G4",
            "ticks": 39345,
            "time": 42.74726559375,
            "velocity": 0.7874015748031497
          },
          {
            "duration": 17.24583678125,
            "durationTicks": 16320,
            "midi": 69,
            "name": "A4",
            "ticks": 39345,
            "time": 42.74726559375,
            "velocity": 0.7874015748031497
          },
          {
            "duration": 1.6389849375000054,
            "durationTicks": 1560,
            "midi": 79,
            "name": "G5",
            "ticks": 39345,
            "time": 42.74726559375,
            "velocity": 0.7874015748031497
          },
          {
            "duration": 17.24583678125,
            "durationTicks": 16320,
            "midi": 81,
            "name": "A5",
            "ticks": 39345,
            "time": 42.74726559375,
            "velocity": 0.7874015748031497
          },
          {
            "duration": 0.12604974999999996,
            "durationTicks": 120,
            "midi": 73,
            "name": "C#5",
            "ticks": 39360,
            "time": 42.763360000000006,
            "velocity": 0.7874015748031497
          },
          {
            "duration": 0.12604974999999996,
            "durationTicks": 120,
            "midi": 74,
            "name": "D5",
            "ticks": 39360,
            "time": 42.763360000000006,
            "velocity": 0.7874015748031497
          },
          {
            "duration": 0.12604974999999996,
            "durationTicks": 120,
            "midi": 61,
            "name": "C#4",
            "ticks": 39360,
            "time": 42.763360000000006,
            "velocity": 0.7874015748031497
          },
          {
            "duration": 0.12604974999999996,
            "durationTicks": 120,
            "midi": 85,
            "name": "C#6",
            "ticks": 39360,
            "time": 42.763360000000006,
            "velocity": 0.7874015748031497
          },
          {
            "duration": 0.12604974999999996,
            "durationTicks": 120,
            "midi": 87,
            "name": "D#6",
            "ticks": 39360,
            "time": 42.763360000000006,
            "velocity": 0.7874015748031497
          },
          {
            "duration": 0.12604974999999996,
            "durationTicks": 120,
            "midi": 97,
            "name": "C#7",
            "ticks": 39360,
            "time": 42.763360000000006,
            "velocity": 0.7874015748031497
          },
          {
            "duration": 0.12604974999999996,
            "durationTicks": 120,
            "midi": 99,
            "name": "D#7",
            "ticks": 39360,
            "time": 42.763360000000006,
            "velocity": 0.7874015748031497
          },
          {
            "duration": 1.2604974999999996,
            "durationTicks": 1200,
            "midi": 72,
            "name": "C5",
            "ticks": 39680,
            "time": 43.09949266666667,
            "velocity": 0.7874015748031497
          },
          {
            "duration": 1.2604974999999996,
            "durationTicks": 1200,
            "midi": 74,
            "name": "D5",
            "ticks": 39680,
            "time": 43.09949266666667,
            "velocity": 0.7874015748031497
          },
          {
            "duration": 1.2604974999999996,
            "durationTicks": 1200,
            "midi": 60,
            "name": "C4",
            "ticks": 39680,
            "time": 43.09949266666667,
            "velocity": 0.7874015748031497
          },
          {
            "duration": 1.2604974999999996,
            "durationTicks": 1200,
            "midi": 61,
            "name": "C#4",
            "ticks": 39680,
            "time": 43.09949266666667,
            "velocity": 0.7874015748031497
          },
          {
            "duration": 1.2604974999999996,
            "durationTicks": 1200,
            "midi": 84,
            "name": "C6",
            "ticks": 39680,
            "time": 43.09949266666667,
            "velocity": 0.7874015748031497
          },
          {
            "duration": 1.2604974999999996,
            "durationTicks": 1200,
            "midi": 86,
            "name": "D6",
            "ticks": 39680,
            "time": 43.09949266666667,
            "velocity": 0.7874015748031497
          },
          {
            "duration": 1.2604974999999996,
            "durationTicks": 1200,
            "midi": 96,
            "name": "C7",
            "ticks": 39680,
            "time": 43.09949266666667,
            "velocity": 0.7874015748031497
          },
          {
            "duration": 1.2604974999999996,
            "durationTicks": 1200,
            "midi": 98,
            "name": "D7",
            "ticks": 39680,
            "time": 43.09949266666667,
            "velocity": 0.7874015748031497
          },
          {
            "duration": 0.08403316666666427,
            "durationTicks": 80,
            "midi": 108,
            "name": "C8",
            "ticks": 39840,
            "time": 43.267559000000006,
            "velocity": 0.7874015748031497
          },
          {
            "duration": 0.08403316666666427,
            "durationTicks": 80,
            "midi": 108,
            "name": "C8",
            "ticks": 40000,
            "time": 43.43562533333334,
            "velocity": 0.7874015748031497
          },
          {
            "duration": 1.9456943333333356,
            "durationTicks": 1840,
            "midi": 108,
            "name": "C8",
            "ticks": 40160,
            "time": 43.60369166666667,
            "velocity": 0.7874015748031497
          },
          {
            "duration": 0.12604974999999996,
            "durationTicks": 120,
            "midi": 73,
            "name": "C#5",
            "ticks": 40960,
            "time": 44.44402333333334,
            "velocity": 0.7874015748031497
          },
          {
            "duration": 0.12604974999999996,
            "durationTicks": 120,
            "midi": 61,
            "name": "C#4",
            "ticks": 40960,
            "time": 44.44402333333334,
            "velocity": 0.7874015748031497
          },
          {
            "duration": 0.12604974999999996,
            "durationTicks": 120,
            "midi": 85,
            "name": "C#6",
            "ticks": 40960,
            "time": 44.44402333333334,
            "velocity": 0.7874015748031497
          },
          {
            "duration": 0.12604974999999996,
            "durationTicks": 120,
            "midi": 97,
            "name": "C#7",
            "ticks": 40960,
            "time": 44.44402333333334,
            "velocity": 0.7874015748031497
          },
          {
            "duration": 18.323168437499994,
            "durationTicks": 17280,
            "midi": 106,
            "name": "A#7",
            "ticks": 41265,
            "time": 44.764399781250006,
            "velocity": 0.7874015748031497
          },
          {
            "duration": 18.323168437499994,
            "durationTicks": 17280,
            "midi": 94,
            "name": "A#6",
            "ticks": 41265,
            "time": 44.764399781250006,
            "velocity": 0.7874015748031497
          },
          {
            "duration": 18.323168437499994,
            "durationTicks": 17280,
            "midi": 70,
            "name": "A#4",
            "ticks": 41265,
            "time": 44.764399781250006,
            "velocity": 0.7874015748031497
          },
          {
            "duration": 18.323168437499994,
            "durationTicks": 17280,
            "midi": 82,
            "name": "A#5",
            "ticks": 41265,
            "time": 44.764399781250006,
            "velocity": 0.7874015748031497
          },
          {
            "duration": 1.5384600000000006,
            "durationTicks": 1440,
            "midi": 72,
            "name": "C5",
            "ticks": 41280,
            "time": 44.780156000000005,
            "velocity": 0.7874015748031497
          },
          {
            "duration": 1.5384600000000006,
            "durationTicks": 1440,
            "midi": 60,
            "name": "C4",
            "ticks": 41280,
            "time": 44.780156000000005,
            "velocity": 0.7874015748031497
          },
          {
            "duration": 1.5384600000000006,
            "durationTicks": 1440,
            "midi": 84,
            "name": "C6",
            "ticks": 41280,
            "time": 44.780156000000005,
            "velocity": 0.7874015748031497
          },
          {
            "duration": 1.5384600000000006,
            "durationTicks": 1440,
            "midi": 96,
            "name": "C7",
            "ticks": 41280,
            "time": 44.780156000000005,
            "velocity": 0.7874015748031497
          },
          {
            "duration": 0.06410249999999706,
            "durationTicks": 60,
            "midi": 87,
            "name": "D#6",
            "ticks": 42720,
            "time": 46.318616000000006,
            "velocity": 0.7874015748031497
          },
          {
            "duration": 0.06410249999999706,
            "durationTicks": 60,
            "midi": 61,
            "name": "C#4",
            "ticks": 42720,
            "time": 46.318616000000006,
            "velocity": 0.7874015748031497
          },
          {
            "duration": 0.06410249999999706,
            "durationTicks": 60,
            "midi": 74,
            "name": "D5",
            "ticks": 42720,
            "time": 46.318616000000006,
            "velocity": 0.7874015748031497
          },
          {
            "duration": 0.06410249999999706,
            "durationTicks": 60,
            "midi": 98,
            "name": "D7",
            "ticks": 42720,
            "time": 46.318616000000006,
            "velocity": 0.7874015748031497
          },
          {
            "duration": 0.06410250000000417,
            "durationTicks": 60,
            "midi": 99,
            "name": "D#7",
            "ticks": 42780,
            "time": 46.3827185,
            "velocity": 0.7874015748031497
          },
          {
            "duration": 0.7591721666666658,
            "durationTicks": 720,
            "midi": 87,
            "name": "D#6",
            "ticks": 43040,
            "time": 46.660496,
            "velocity": 0.7874015748031497
          },
          {
            "duration": 0.06410250000000417,
            "durationTicks": 60,
            "midi": 98,
            "name": "D7",
            "ticks": 43040,
            "time": 46.660496,
            "velocity": 0.7874015748031497
          },
          {
            "duration": 0.758453750000001,
            "durationTicks": 720,
            "midi": 61,
            "name": "C#4",
            "ticks": 43080,
            "time": 46.703231,
            "velocity": 0.7874015748031497
          },
          {
            "duration": 0.758453750000001,
            "durationTicks": 720,
            "midi": 74,
            "name": "D5",
            "ticks": 43080,
            "time": 46.703231,
            "velocity": 0.7874015748031497
          },
          {
            "duration": 0.7580945416666651,
            "durationTicks": 720,
            "midi": 99,
            "name": "D#7",
            "ticks": 43100,
            "time": 46.724598500000006,
            "velocity": 0.7874015748031497
          },
          {
            "duration": 0.12604974999999996,
            "durationTicks": 120,
            "midi": 73,
            "name": "C#5",
            "ticks": 44160,
            "time": 47.839834,
            "velocity": 0.7874015748031497
          },
          {
            "duration": 0.12604974999999996,
            "durationTicks": 120,
            "midi": 61,
            "name": "C#4",
            "ticks": 44160,
            "time": 47.839834,
            "velocity": 0.7874015748031497
          },
          {
            "duration": 0.12604974999999996,
            "durationTicks": 120,
            "midi": 86,
            "name": "D6",
            "ticks": 44160,
            "time": 47.839834,
            "velocity": 0.7874015748031497
          },
          {
            "duration": 0.12604974999999996,
            "durationTicks": 120,
            "midi": 98,
            "name": "D7",
            "ticks": 44160,
            "time": 47.839834,
            "velocity": 0.7874015748031497
          },
          {
            "duration": 0.12604974999999996,
            "durationTicks": 120,
            "midi": 74,
            "name": "D5",
            "ticks": 44320,
            "time": 48.00790033333334,
            "velocity": 0.7874015748031497
          },
          {
            "duration": 0.12604974999999996,
            "durationTicks": 120,
            "midi": 87,
            "name": "D#6",
            "ticks": 44320,
            "time": 48.00790033333334,
            "velocity": 0.7874015748031497
          },
          {
            "duration": 0.12604974999999996,
            "durationTicks": 120,
            "midi": 99,
            "name": "D#7",
            "ticks": 44320,
            "time": 48.00790033333334,
            "velocity": 0.7874015748031497
          },
          {
            "duration": 1.5125969999999995,
            "durationTicks": 1440,
            "midi": 75,
            "name": "D#5",
            "ticks": 44480,
            "time": 48.17596666666667,
            "velocity": 0.7874015748031497
          },
          {
            "duration": 1.5125969999999995,
            "durationTicks": 1440,
            "midi": 62,
            "name": "D4",
            "ticks": 44480,
            "time": 48.17596666666667,
            "velocity": 0.7874015748031497
          },
          {
            "duration": 1.5125969999999995,
            "durationTicks": 1440,
            "midi": 87,
            "name": "D#6",
            "ticks": 44480,
            "time": 48.17596666666667,
            "velocity": 0.7874015748031497
          },
          {
            "duration": 1.5125969999999995,
            "durationTicks": 1440,
            "midi": 88,
            "name": "E6",
            "ticks": 44480,
            "time": 48.17596666666667,
            "velocity": 0.7874015748031497
          },
          {
            "duration": 1.5125969999999995,
            "durationTicks": 1440,
            "midi": 99,
            "name": "D#7",
            "ticks": 44480,
            "time": 48.17596666666667,
            "velocity": 0.7874015748031497
          },
          {
            "duration": 1.5125969999999995,
            "durationTicks": 1440,
            "midi": 100,
            "name": "E7",
            "ticks": 44480,
            "time": 48.17596666666667,
            "velocity": 0.7874015748031497
          },
          {
            "duration": 2.5844204687499968,
            "durationTicks": 2460,
            "midi": 103,
            "name": "G7",
            "ticks": 46545,
            "time": 50.34507278125,
            "velocity": 0.7874015748031497
          },
          {
            "duration": 2.5844204687499968,
            "durationTicks": 2460,
            "midi": 91,
            "name": "G6",
            "ticks": 46545,
            "time": 50.34507278125,
            "velocity": 0.7874015748031497
          },
          {
            "duration": 2.5844204687499968,
            "durationTicks": 2460,
            "midi": 67,
            "name": "G4",
            "ticks": 46545,
            "time": 50.34507278125,
            "velocity": 0.7874015748031497
          },
          {
            "duration": 2.5844204687499968,
            "durationTicks": 2460,
            "midi": 79,
            "name": "G5",
            "ticks": 46545,
            "time": 50.34507278125,
            "velocity": 0.7874015748031497
          },
          {
            "duration": 0.2520994999999999,
            "durationTicks": 240,
            "midi": 87,
            "name": "D#6",
            "ticks": 46560,
            "time": 50.360829,
            "velocity": 0.7874015748031497
          },
          {
            "duration": 0.12604974999999996,
            "durationTicks": 120,
            "midi": 61,
            "name": "C#4",
            "ticks": 46560,
            "time": 50.360829,
            "velocity": 0.7874015748031497
          },
          {
            "duration": 0.12604974999999996,
            "durationTicks": 120,
            "midi": 74,
            "name": "D5",
            "ticks": 46560,
            "time": 50.360829,
            "velocity": 0.7874015748031497
          },
          {
            "duration": 0.06302487500000353,
            "durationTicks": 60,
            "midi": 98,
            "name": "D7",
            "ticks": 46560,
            "time": 50.360829,
            "velocity": 0.7874015748031497
          },
          {
            "duration": 0.2520994999999999,
            "durationTicks": 240,
            "midi": 99,
            "name": "D#7",
            "ticks": 46620,
            "time": 50.423853875000006,
            "velocity": 0.7874015748031497
          },
          {
            "duration": 2.184862333333335,
            "durationTicks": 2080,
            "midi": 87,
            "name": "D#6",
            "ticks": 46880,
            "time": 50.69696166666667,
            "velocity": 0.7874015748031497
          },
          {
            "duration": 2.184862333333335,
            "durationTicks": 2080,
            "midi": 61,
            "name": "C#4",
            "ticks": 46880,
            "time": 50.69696166666667,
            "velocity": 0.7874015748031497
          },
          {
            "duration": 2.184862333333335,
            "durationTicks": 2080,
            "midi": 74,
            "name": "D5",
            "ticks": 46880,
            "time": 50.69696166666667,
            "velocity": 0.7874015748031497
          },
          {
            "duration": 0.06302487500000353,
            "durationTicks": 60,
            "midi": 98,
            "name": "D7",
            "ticks": 46880,
            "time": 50.69696166666667,
            "velocity": 0.7874015748031497
          },
          {
            "duration": 2.1008291666666636,
            "durationTicks": 2000,
            "midi": 99,
            "name": "D#7",
            "ticks": 46960,
            "time": 50.78099483333334,
            "velocity": 0.7874015748031497
          },
          {
            "duration": 0.16806633333333565,
            "durationTicks": 160,
            "midi": 108,
            "name": "C8",
            "ticks": 48480,
            "time": 52.377625,
            "velocity": 0.7874015748031497
          },
          {
            "duration": 0.08403316666667138,
            "durationTicks": 80,
            "midi": 108,
            "name": "C8",
            "ticks": 48800,
            "time": 52.713757666666666,
            "velocity": 0.7874015748031497
          },
          {
            "duration": 0.33898133333333647,
            "durationTicks": 320,
            "midi": 108,
            "name": "C8",
            "ticks": 48960,
            "time": 52.881824,
            "velocity": 0.7874015748031497
          },
          {
            "duration": 0.16949066666666823,
            "durationTicks": 160,
            "midi": 108,
            "name": "C8",
            "ticks": 49440,
            "time": 53.390296,
            "velocity": 0.7874015748031497
          },
          {
            "duration": 0.08474533333333056,
            "durationTicks": 80,
            "midi": 108,
            "name": "C8",
            "ticks": 49760,
            "time": 53.729277333333336,
            "velocity": 0.7874015748031497
          },
          {
            "duration": 0.16949066666666113,
            "durationTicks": 160,
            "midi": 108,
            "name": "C8",
            "ticks": 49920,
            "time": 53.898768000000004,
            "velocity": 0.7874015748031497
          },
          {
            "duration": 0.16949066666666823,
            "durationTicks": 160,
            "midi": 108,
            "name": "C8",
            "ticks": 50240,
            "time": 54.23774933333333,
            "velocity": 0.7874015748031497
          },
          {
            "duration": 0.08474533333333056,
            "durationTicks": 80,
            "midi": 108,
            "name": "C8",
            "ticks": 50720,
            "time": 54.74622133333334,
            "velocity": 0.7874015748031497
          },
          {
            "duration": 0.2542360000000059,
            "durationTicks": 240,
            "midi": 108,
            "name": "C8",
            "ticks": 50880,
            "time": 54.915712,
            "velocity": 0.7874015748031497
          },
          {
            "duration": 0.08474533333333056,
            "durationTicks": 80,
            "midi": 108,
            "name": "C8",
            "ticks": 51200,
            "time": 55.254693333333336,
            "velocity": 0.7874015748031497
          },
          {
            "duration": 0.2542359999999988,
            "durationTicks": 240,
            "midi": 108,
            "name": "C8",
            "ticks": 51360,
            "time": 55.424184000000004,
            "velocity": 0.7874015748031497
          },
          {
            "duration": 0.08474533333333767,
            "durationTicks": 80,
            "midi": 108,
            "name": "C8",
            "ticks": 51680,
            "time": 55.76316533333333,
            "velocity": 0.7874015748031497
          },
          {
            "duration": 0.2542359999999988,
            "durationTicks": 240,
            "midi": 108,
            "name": "C8",
            "ticks": 51840,
            "time": 55.932656,
            "velocity": 0.7874015748031497
          },
          {
            "duration": 0.08474533333333056,
            "durationTicks": 80,
            "midi": 108,
            "name": "C8",
            "ticks": 52160,
            "time": 56.27163733333334,
            "velocity": 0.7874015748031497
          },
          {
            "duration": 0.42372666666666703,
            "durationTicks": 400,
            "midi": 108,
            "name": "C8",
            "ticks": 52320,
            "time": 56.441128,
            "velocity": 0.7874015748031497
          },
          {
            "duration": 2.9740579999999994,
            "durationTicks": 2800,
            "midi": 72,
            "name": "C5",
            "ticks": 52800,
            "time": 56.949600000000004,
            "velocity": 0.7874015748031497
          },
          {
            "duration": 2.9740579999999994,
            "durationTicks": 2800,
            "midi": 60,
            "name": "C4",
            "ticks": 52800,
            "time": 56.949600000000004,
            "velocity": 0.7874015748031497
          },
          {
            "duration": 2.9740579999999994,
            "durationTicks": 2800,
            "midi": 85,
            "name": "C#6",
            "ticks": 52800,
            "time": 56.949600000000004,
            "velocity": 0.7874015748031497
          },
          {
            "duration": 2.9740579999999994,
            "durationTicks": 2800,
            "midi": 97,
            "name": "C#7",
            "ticks": 52800,
            "time": 56.949600000000004,
            "velocity": 0.7874015748031497
          },
          {
            "duration": 0.08474533333333767,
            "durationTicks": 80,
            "midi": 108,
            "name": "C8",
            "ticks": 53120,
            "time": 57.28858133333333,
            "velocity": 0.7874015748031497
          },
          {
            "duration": 0.2542359999999988,
            "durationTicks": 240,
            "midi": 108,
            "name": "C8",
            "ticks": 53280,
            "time": 57.458072,
            "velocity": 0.7874015748031497
          },
          {
            "duration": 0.08474533333333056,
            "durationTicks": 80,
            "midi": 108,
            "name": "C8",
            "ticks": 53600,
            "time": 57.79705333333334,
            "velocity": 0.7874015748031497
          },
          {
            "duration": 0.2542360000000059,
            "durationTicks": 240,
            "midi": 108,
            "name": "C8",
            "ticks": 53760,
            "time": 57.966544,
            "velocity": 0.7874015748031497
          },
          {
            "duration": 0.33898133333333647,
            "durationTicks": 320,
            "midi": 108,
            "name": "C8",
            "ticks": 54080,
            "time": 58.305525333333335,
            "velocity": 0.7874015748031497
          },
          {
            "duration": 0.08474533333333767,
            "durationTicks": 80,
            "midi": 108,
            "name": "C8",
            "ticks": 54560,
            "time": 58.81399733333333,
            "velocity": 0.7874015748031497
          },
          {
            "duration": 0.25641000000000247,
            "durationTicks": 240,
            "midi": 108,
            "name": "C8",
            "ticks": 54720,
            "time": 58.983488,
            "velocity": 0.7874015748031497
          },
          {
            "duration": 0.17093999999999454,
            "durationTicks": 160,
            "midi": 108,
            "name": "C8",
            "ticks": 55040,
            "time": 59.325368000000005,
            "velocity": 0.7874015748031497
          },
          {
            "duration": 0.08547000000000082,
            "durationTicks": 80,
            "midi": 108,
            "name": "C8",
            "ticks": 55360,
            "time": 59.667248,
            "velocity": 0.7874015748031497
          },
          {
            "duration": 0.08547000000000082,
            "durationTicks": 80,
            "midi": 108,
            "name": "C8",
            "ticks": 55520,
            "time": 59.838188,
            "velocity": 0.7874015748031497
          },
          {
            "duration": 3.094465843750001,
            "durationTicks": 2880,
            "midi": 103,
            "name": "G7",
            "ticks": 55665,
            "time": 59.993102375,
            "velocity": 0.7874015748031497
          },
          {
            "duration": 3.094465843750001,
            "durationTicks": 2880,
            "midi": 91,
            "name": "G6",
            "ticks": 55665,
            "time": 59.993102375,
            "velocity": 0.7874015748031497
          },
          {
            "duration": 3.094465843750001,
            "durationTicks": 2880,
            "midi": 67,
            "name": "G4",
            "ticks": 55665,
            "time": 59.993102375,
            "velocity": 0.7874015748031497
          },
          {
            "duration": 3.094465843750001,
            "durationTicks": 2880,
            "midi": 79,
            "name": "G5",
            "ticks": 55665,
            "time": 59.993102375,
            "velocity": 0.7874015748031497
          },
          {
            "duration": 0.12820499999999413,
            "durationTicks": 120,
            "midi": 62,
            "name": "D4",
            "ticks": 55680,
            "time": 60.009128000000004,
            "velocity": 0.7874015748031497
          },
          {
            "duration": 0.12820499999999413,
            "durationTicks": 120,
            "midi": 75,
            "name": "D#5",
            "ticks": 55680,
            "time": 60.009128000000004,
            "velocity": 0.7874015748031497
          },
          {
            "duration": 0.12820499999999413,
            "durationTicks": 120,
            "midi": 88,
            "name": "E6",
            "ticks": 55680,
            "time": 60.009128000000004,
            "velocity": 0.7874015748031497
          },
          {
            "duration": 0.12820499999999413,
            "durationTicks": 120,
            "midi": 100,
            "name": "E7",
            "ticks": 55680,
            "time": 60.009128000000004,
            "velocity": 0.7874015748031497
          },
          {
            "duration": 0.08546999999999372,
            "durationTicks": 80,
            "midi": 108,
            "name": "C8",
            "ticks": 55680,
            "time": 60.009128000000004,
            "velocity": 0.7874015748031497
          },
          {
            "duration": 0.12820500000000123,
            "durationTicks": 120,
            "midi": 86,
            "name": "D6",
            "ticks": 55840,
            "time": 60.180068,
            "velocity": 0.7874015748031497
          },
          {
            "duration": 0.12820500000000123,
            "durationTicks": 120,
            "midi": 98,
            "name": "D7",
            "ticks": 55840,
            "time": 60.180068,
            "velocity": 0.7874015748031497
          },
          {
            "duration": 0.08547000000000082,
            "durationTicks": 80,
            "midi": 108,
            "name": "C8",
            "ticks": 55840,
            "time": 60.180068,
            "velocity": 0.7874015748031497
          },
          {
            "duration": 0.12820500000000123,
            "durationTicks": 120,
            "midi": 74,
            "name": "D5",
            "ticks": 56000,
            "time": 60.351008,
            "velocity": 0.7874015748031497
          },
          {
            "duration": 0.12820500000000123,
            "durationTicks": 120,
            "midi": 61,
            "name": "C#4",
            "ticks": 56000,
            "time": 60.351008,
            "velocity": 0.7874015748031497
          },
          {
            "duration": 0.12820500000000123,
            "durationTicks": 120,
            "midi": 87,
            "name": "D#6",
            "ticks": 56000,
            "time": 60.351008,
            "velocity": 0.7874015748031497
          },
          {
            "duration": 0.12820500000000123,
            "durationTicks": 120,
            "midi": 99,
            "name": "D#7",
            "ticks": 56000,
            "time": 60.351008,
            "velocity": 0.7874015748031497
          },
          {
            "duration": 0.3418800000000033,
            "durationTicks": 320,
            "midi": 108,
            "name": "C8",
            "ticks": 56000,
            "time": 60.351008,
            "velocity": 0.7874015748031497
          },
          {
            "duration": 0.12820500000000123,
            "durationTicks": 120,
            "midi": 85,
            "name": "C#6",
            "ticks": 56160,
            "time": 60.521948,
            "velocity": 0.7874015748031497
          },
          {
            "duration": 0.12820500000000123,
            "durationTicks": 120,
            "midi": 97,
            "name": "C#7",
            "ticks": 56160,
            "time": 60.521948,
            "velocity": 0.7874015748031497
          },
          {
            "duration": 2.324637166666662,
            "durationTicks": 2160,
            "midi": 73,
            "name": "C#5",
            "ticks": 56320,
            "time": 60.692888,
            "velocity": 0.7874015748031497
          },
          {
            "duration": 2.324637166666662,
            "durationTicks": 2160,
            "midi": 60,
            "name": "C4",
            "ticks": 56320,
            "time": 60.692888,
            "velocity": 0.7874015748031497
          },
          {
            "duration": 2.324637166666662,
            "durationTicks": 2160,
            "midi": 86,
            "name": "D6",
            "ticks": 56320,
            "time": 60.692888,
            "velocity": 0.7874015748031497
          },
          {
            "duration": 2.324637166666662,
            "durationTicks": 2160,
            "midi": 98,
            "name": "D7",
            "ticks": 56320,
            "time": 60.692888,
            "velocity": 0.7874015748031497
          },
          {
            "duration": 0.08620683333333545,
            "durationTicks": 80,
            "midi": 108,
            "name": "C8",
            "ticks": 56640,
            "time": 61.034768,
            "velocity": 0.7874015748031497
          },
          {
            "duration": 0.08620683333333545,
            "durationTicks": 80,
            "midi": 108,
            "name": "C8",
            "ticks": 56800,
            "time": 61.20718166666666,
            "velocity": 0.7874015748031497
          },
          {
            "duration": 0.1724136666666638,
            "durationTicks": 160,
            "midi": 108,
            "name": "C8",
            "ticks": 56960,
            "time": 61.379595333333334,
            "velocity": 0.7874015748031497
          },
          {
            "duration": 0.1724136666666709,
            "durationTicks": 160,
            "midi": 108,
            "name": "C8",
            "ticks": 57360,
            "time": 61.8106295,
            "velocity": 0.7874015748031497
          },
          {
            "duration": 0.1724136666666709,
            "durationTicks": 160,
            "midi": 108,
            "name": "C8",
            "ticks": 57600,
            "time": 62.06925,
            "velocity": 0.7874015748031497
          },
          {
            "duration": 0.3448273333333347,
            "durationTicks": 320,
            "midi": 108,
            "name": "C8",
            "ticks": 57920,
            "time": 62.41407733333333,
            "velocity": 0.7874015748031497
          },
          {
            "duration": 0.08512924791666876,
            "durationTicks": 79,
            "midi": 108,
            "name": "C8",
            "ticks": 58400,
            "time": 62.93131833333333,
            "velocity": 0.7874015748031497
          },
          {
            "duration": 1.0344820000000041,
            "durationTicks": 960,
            "midi": 105,
            "name": "A7",
            "ticks": 58545,
            "time": 63.08756821875,
            "velocity": 0.7874015748031497
          },
          {
            "duration": 1.0344820000000041,
            "durationTicks": 960,
            "midi": 93,
            "name": "A6",
            "ticks": 58545,
            "time": 63.08756821875,
            "velocity": 0.7874015748031497
          },
          {
            "duration": 1.0344820000000041,
            "durationTicks": 960,
            "midi": 69,
            "name": "A4",
            "ticks": 58545,
            "time": 63.08756821875,
            "velocity": 0.7874015748031497
          },
          {
            "duration": 1.0344820000000041,
            "durationTicks": 960,
            "midi": 81,
            "name": "A5",
            "ticks": 58545,
            "time": 63.08756821875,
            "velocity": 0.7874015748031497
          },
          {
            "duration": 0.12931025000000318,
            "durationTicks": 120,
            "midi": 75,
            "name": "D#5",
            "ticks": 58560,
            "time": 63.103732,
            "velocity": 0.7874015748031497
          },
          {
            "duration": 0.12931025000000318,
            "durationTicks": 120,
            "midi": 62,
            "name": "D4",
            "ticks": 58560,
            "time": 63.103732,
            "velocity": 0.7874015748031497
          },
          {
            "duration": 0.12931025000000318,
            "durationTicks": 120,
            "midi": 87,
            "name": "D#6",
            "ticks": 58560,
            "time": 63.103732,
            "velocity": 0.7874015748031497
          },
          {
            "duration": 0.12931025000000318,
            "durationTicks": 120,
            "midi": 99,
            "name": "D#7",
            "ticks": 58560,
            "time": 63.103732,
            "velocity": 0.7874015748031497
          },
          {
            "duration": 0.25862049999999925,
            "durationTicks": 240,
            "midi": 108,
            "name": "C8",
            "ticks": 58560,
            "time": 63.103732,
            "velocity": 0.7874015748031497
          },
          {
            "duration": 0.08512924791666876,
            "durationTicks": 79,
            "midi": 108,
            "name": "C8",
            "ticks": 58880,
            "time": 63.448559333333336,
            "velocity": 0.7874015748031497
          },
          {
            "duration": 0.38793075000000243,
            "durationTicks": 360,
            "midi": 75,
            "name": "D#5",
            "ticks": 59040,
            "time": 63.620973,
            "velocity": 0.7874015748031497
          },
          {
            "duration": 0.38793075000000243,
            "durationTicks": 360,
            "midi": 62,
            "name": "D4",
            "ticks": 59040,
            "time": 63.620973,
            "velocity": 0.7874015748031497
          },
          {
            "duration": 0.5172410000000056,
            "durationTicks": 480,
            "midi": 87,
            "name": "D#6",
            "ticks": 59040,
            "time": 63.620973,
            "velocity": 0.7874015748031497
          },
          {
            "duration": 0.5172410000000056,
            "durationTicks": 480,
            "midi": 99,
            "name": "D#7",
            "ticks": 59040,
            "time": 63.620973,
            "velocity": 0.7874015748031497
          },
          {
            "duration": 0.25862049999999925,
            "durationTicks": 240,
            "midi": 108,
            "name": "C8",
            "ticks": 59040,
            "time": 63.620973,
            "velocity": 0.7874015748031497
          },
          {
            "duration": 0.08512924791666876,
            "durationTicks": 79,
            "midi": 108,
            "name": "C8",
            "ticks": 59360,
            "time": 63.965800333333334,
            "velocity": 0.7874015748031497
          },
          {
            "duration": 1.034481999999997,
            "durationTicks": 960,
            "midi": 106,
            "name": "A#7",
            "ticks": 59505,
            "time": 64.12205021875,
            "velocity": 0.7874015748031497
          },
          {
            "duration": 1.034481999999997,
            "durationTicks": 960,
            "midi": 94,
            "name": "A#6",
            "ticks": 59505,
            "time": 64.12205021875,
            "velocity": 0.7874015748031497
          },
          {
            "duration": 1.034481999999997,
            "durationTicks": 960,
            "midi": 70,
            "name": "A#4",
            "ticks": 59505,
            "time": 64.12205021875,
            "velocity": 0.7874015748031497
          },
          {
            "duration": 1.034481999999997,
            "durationTicks": 960,
            "midi": 82,
            "name": "A#5",
            "ticks": 59505,
            "time": 64.12205021875,
            "velocity": 0.7874015748031497
          },
          {
            "duration": 0.12931025000000318,
            "durationTicks": 120,
            "midi": 74,
            "name": "D5",
            "ticks": 59520,
            "time": 64.138214,
            "velocity": 0.7874015748031497
          },
          {
            "duration": 0.12931025000000318,
            "durationTicks": 120,
            "midi": 61,
            "name": "C#4",
            "ticks": 59520,
            "time": 64.138214,
            "velocity": 0.7874015748031497
          },
          {
            "duration": 0.12931025000000318,
            "durationTicks": 120,
            "midi": 86,
            "name": "D6",
            "ticks": 59520,
            "time": 64.138214,
            "velocity": 0.7874015748031497
          },
          {
            "duration": 0.12931025000000318,
            "durationTicks": 120,
            "midi": 98,
            "name": "D7",
            "ticks": 59520,
            "time": 64.138214,
            "velocity": 0.7874015748031497
          },
          {
            "duration": 0.25862049999999215,
            "durationTicks": 240,
            "midi": 108,
            "name": "C8",
            "ticks": 59520,
            "time": 64.138214,
            "velocity": 0.7874015748031497
          },
          {
            "duration": 0.3448273333333418,
            "durationTicks": 320,
            "midi": 108,
            "name": "C8",
            "ticks": 59840,
            "time": 64.48304133333333,
            "velocity": 0.7874015748031497
          },
          {
            "duration": 0.38793074999999533,
            "durationTicks": 360,
            "midi": 74,
            "name": "D5",
            "ticks": 60000,
            "time": 64.655455,
            "velocity": 0.7874015748031497
          },
          {
            "duration": 0.38793074999999533,
            "durationTicks": 360,
            "midi": 61,
            "name": "C#4",
            "ticks": 60000,
            "time": 64.655455,
            "velocity": 0.7874015748031497
          },
          {
            "duration": 0.5172409999999985,
            "durationTicks": 480,
            "midi": 86,
            "name": "D6",
            "ticks": 60000,
            "time": 64.655455,
            "velocity": 0.7874015748031497
          },
          {
            "duration": 0.5172409999999985,
            "durationTicks": 480,
            "midi": 98,
            "name": "D7",
            "ticks": 60000,
            "time": 64.655455,
            "velocity": 0.7874015748031497
          },
          {
            "duration": 1.034481999999997,
            "durationTicks": 960,
            "midi": 105,
            "name": "A7",
            "ticks": 60465,
            "time": 65.15653221875,
            "velocity": 0.7874015748031497
          },
          {
            "duration": 1.034481999999997,
            "durationTicks": 960,
            "midi": 93,
            "name": "A6",
            "ticks": 60465,
            "time": 65.15653221875,
            "velocity": 0.7874015748031497
          },
          {
            "duration": 1.034481999999997,
            "durationTicks": 960,
            "midi": 69,
            "name": "A4",
            "ticks": 60465,
            "time": 65.15653221875,
            "velocity": 0.7874015748031497
          },
          {
            "duration": 1.034481999999997,
            "durationTicks": 960,
            "midi": 81,
            "name": "A5",
            "ticks": 60465,
            "time": 65.15653221875,
            "velocity": 0.7874015748031497
          },
          {
            "duration": 0.12931025000000318,
            "durationTicks": 120,
            "midi": 73,
            "name": "C#5",
            "ticks": 60480,
            "time": 65.172696,
            "velocity": 0.7874015748031497
          },
          {
            "duration": 0.12931025000000318,
            "durationTicks": 120,
            "midi": 61,
            "name": "C#4",
            "ticks": 60480,
            "time": 65.172696,
            "velocity": 0.7874015748031497
          },
          {
            "duration": 0.12931025000000318,
            "durationTicks": 120,
            "midi": 85,
            "name": "C#6",
            "ticks": 60480,
            "time": 65.172696,
            "velocity": 0.7874015748031497
          },
          {
            "duration": 0.12931025000000318,
            "durationTicks": 120,
            "midi": 97,
            "name": "C#7",
            "ticks": 60480,
            "time": 65.172696,
            "velocity": 0.7874015748031497
          },
          {
            "duration": 0.08620683333333545,
            "durationTicks": 80,
            "midi": 108,
            "name": "C8",
            "ticks": 60480,
            "time": 65.172696,
            "velocity": 0.7874015748031497
          },
          {
            "duration": 0.08728441875000215,
            "durationTicks": 81,
            "midi": 108,
            "name": "C8",
            "ticks": 60639,
            "time": 65.34403208125,
            "velocity": 0.7874015748031497
          },
          {
            "duration": 0.08620683333333545,
            "durationTicks": 80,
            "midi": 108,
            "name": "C8",
            "ticks": 60800,
            "time": 65.51752333333333,
            "velocity": 0.7874015748031497
          },
          {
            "duration": 0.38793074999999533,
            "durationTicks": 360,
            "midi": 73,
            "name": "C#5",
            "ticks": 60960,
            "time": 65.689937,
            "velocity": 0.7874015748031497
          },
          {
            "duration": 0.38793074999999533,
            "durationTicks": 360,
            "midi": 61,
            "name": "C#4",
            "ticks": 60960,
            "time": 65.689937,
            "velocity": 0.7874015748031497
          },
          {
            "duration": 0.5172409999999985,
            "durationTicks": 480,
            "midi": 85,
            "name": "C#6",
            "ticks": 60960,
            "time": 65.689937,
            "velocity": 0.7874015748031497
          },
          {
            "duration": 0.5172409999999985,
            "durationTicks": 480,
            "midi": 97,
            "name": "C#7",
            "ticks": 60960,
            "time": 65.689937,
            "velocity": 0.7874015748031497
          },
          {
            "duration": 0.1713360812500042,
            "durationTicks": 159,
            "midi": 108,
            "name": "C8",
            "ticks": 60960,
            "time": 65.689937,
            "velocity": 0.7874015748031497
          },
          {
            "duration": 0.08620683333333545,
            "durationTicks": 80,
            "midi": 108,
            "name": "C8",
            "ticks": 61280,
            "time": 66.03476433333333,
            "velocity": 0.7874015748031497
          },
          {
            "duration": 2.077819437499997,
            "durationTicks": 1920,
            "midi": 106,
            "name": "A#7",
            "ticks": 61425,
            "time": 66.19101421875,
            "velocity": 0.7874015748031497
          },
          {
            "duration": 2.077819437499997,
            "durationTicks": 1920,
            "midi": 94,
            "name": "A#6",
            "ticks": 61425,
            "time": 66.19101421875,
            "velocity": 0.7874015748031497
          },
          {
            "duration": 2.077819437499997,
            "durationTicks": 1920,
            "midi": 70,
            "name": "A#4",
            "ticks": 61425,
            "time": 66.19101421875,
            "velocity": 0.7874015748031497
          },
          {
            "duration": 2.077819437499997,
            "durationTicks": 1920,
            "midi": 82,
            "name": "A#5",
            "ticks": 61425,
            "time": 66.19101421875,
            "velocity": 0.7874015748031497
          },
          {
            "duration": 0.12931025000000318,
            "durationTicks": 120,
            "midi": 72,
            "name": "C5",
            "ticks": 61440,
            "time": 66.207178,
            "velocity": 0.7874015748031497
          },
          {
            "duration": 0.12931025000000318,
            "durationTicks": 120,
            "midi": 60,
            "name": "C4",
            "ticks": 61440,
            "time": 66.207178,
            "velocity": 0.7874015748031497
          },
          {
            "duration": 0.12931025000000318,
            "durationTicks": 120,
            "midi": 84,
            "name": "C6",
            "ticks": 61440,
            "time": 66.207178,
            "velocity": 0.7874015748031497
          },
          {
            "duration": 0.12931025000000318,
            "durationTicks": 120,
            "midi": 96,
            "name": "C7",
            "ticks": 61440,
            "time": 66.207178,
            "velocity": 0.7874015748031497
          },
          {
            "duration": 0.1713360812500042,
            "durationTicks": 159,
            "midi": 108,
            "name": "C8",
            "ticks": 61440,
            "time": 66.207178,
            "velocity": 0.7874015748031497
          },
          {
            "duration": 0.5172409999999985,
            "durationTicks": 480,
            "midi": 108,
            "name": "C8",
            "ticks": 61680,
            "time": 66.4657985,
            "velocity": 0.7874015748031497
          },
          {
            "duration": 0.38793075000000954,
            "durationTicks": 360,
            "midi": 72,
            "name": "C5",
            "ticks": 61920,
            "time": 66.724419,
            "velocity": 0.7874015748031497
          },
          {
            "duration": 0.38793075000000954,
            "durationTicks": 360,
            "midi": 60,
            "name": "C4",
            "ticks": 61920,
            "time": 66.724419,
            "velocity": 0.7874015748031497
          },
          {
            "duration": 0.5172409999999985,
            "durationTicks": 480,
            "midi": 84,
            "name": "C6",
            "ticks": 61920,
            "time": 66.724419,
            "velocity": 0.7874015748031497
          },
          {
            "duration": 0.5172409999999985,
            "durationTicks": 480,
            "midi": 96,
            "name": "C7",
            "ticks": 61920,
            "time": 66.724419,
            "velocity": 0.7874015748031497
          },
          {
            "duration": 5.137745999999993,
            "durationTicks": 4800,
            "midi": 105,
            "name": "A7",
            "ticks": 62385,
            "time": 67.22549621875,
            "velocity": 0.7874015748031497
          },
          {
            "duration": 5.137745999999993,
            "durationTicks": 4800,
            "midi": 93,
            "name": "A6",
            "ticks": 62385,
            "time": 67.22549621875,
            "velocity": 0.7874015748031497
          },
          {
            "duration": 5.137745999999993,
            "durationTicks": 4800,
            "midi": 69,
            "name": "A4",
            "ticks": 62385,
            "time": 67.22549621875,
            "velocity": 0.7874015748031497
          },
          {
            "duration": 5.137745999999993,
            "durationTicks": 4800,
            "midi": 81,
            "name": "A5",
            "ticks": 62385,
            "time": 67.22549621875,
            "velocity": 0.7874015748031497
          },
          {
            "duration": 0.13043475000000626,
            "durationTicks": 120,
            "midi": 72,
            "name": "C5",
            "ticks": 62400,
            "time": 67.24166,
            "velocity": 0.7874015748031497
          },
          {
            "duration": 0.13043475000000626,
            "durationTicks": 120,
            "midi": 60,
            "name": "C4",
            "ticks": 62400,
            "time": 67.24166,
            "velocity": 0.7874015748031497
          },
          {
            "duration": 0.13043475000000626,
            "durationTicks": 120,
            "midi": 84,
            "name": "C6",
            "ticks": 62400,
            "time": 67.24166,
            "velocity": 0.7874015748031497
          },
          {
            "duration": 0.13043475000000626,
            "durationTicks": 120,
            "midi": 96,
            "name": "C7",
            "ticks": 62400,
            "time": 67.24166,
            "velocity": 0.7874015748031497
          },
          {
            "duration": 0.17391299999999887,
            "durationTicks": 160,
            "midi": 108,
            "name": "C8",
            "ticks": 62400,
            "time": 67.24166,
            "velocity": 0.7874015748031497
          },
          {
            "duration": 0.17499995624999087,
            "durationTicks": 161,
            "midi": 108,
            "name": "C8",
            "ticks": 62719,
            "time": 67.58839904375,
            "velocity": 0.7874015748031497
          },
          {
            "duration": 0.5217389999999966,
            "durationTicks": 480,
            "midi": 72,
            "name": "C5",
            "ticks": 62880,
            "time": 67.76339899999999,
            "velocity": 0.7874015748031497
          },
          {
            "duration": 0.5217389999999966,
            "durationTicks": 480,
            "midi": 60,
            "name": "C4",
            "ticks": 62880,
            "time": 67.76339899999999,
            "velocity": 0.7874015748031497
          },
          {
            "duration": 0.5217389999999966,
            "durationTicks": 480,
            "midi": 84,
            "name": "C6",
            "ticks": 62880,
            "time": 67.76339899999999,
            "velocity": 0.7874015748031497
          },
          {
            "duration": 0.5217389999999966,
            "durationTicks": 480,
            "midi": 96,
            "name": "C7",
            "ticks": 62880,
            "time": 67.76339899999999,
            "velocity": 0.7874015748031497
          },
          {
            "duration": 0.17391299999999887,
            "durationTicks": 160,
            "midi": 108,
            "name": "C8",
            "ticks": 63040,
            "time": 67.93731199999999,
            "velocity": 0.7874015748031497
          },
          {
            "duration": 0.5896588208333355,
            "durationTicks": 559,
            "midi": 108,
            "name": "C8",
            "ticks": 63360,
            "time": 68.28513799999999,
            "velocity": 0.7874015748031497
          },
          {
            "duration": 0.1666656416666683,
            "durationTicks": 158,
            "midi": 108,
            "name": "C8",
            "ticks": 64320,
            "time": 69.29778999999999,
            "velocity": 0.7874015748031497
          },
          {
            "duration": 0.16983017916666654,
            "durationTicks": 161,
            "midi": 108,
            "name": "C8",
            "ticks": 64639,
            "time": 69.63428582083333,
            "velocity": 0.7874015748031497
          },
          {
            "duration": 0.16983017916666654,
            "durationTicks": 161,
            "midi": 108,
            "name": "C8",
            "ticks": 64958,
            "time": 69.97078164166666,
            "velocity": 0.7874015748031497
          },
          {
            "duration": 0.12931025000000318,
            "durationTicks": 120,
            "midi": 72,
            "name": "C5",
            "ticks": 65280,
            "time": 70.310442,
            "velocity": 0.7874015748031497
          },
          {
            "duration": 0.12931025000000318,
            "durationTicks": 120,
            "midi": 60,
            "name": "C4",
            "ticks": 65280,
            "time": 70.310442,
            "velocity": 0.7874015748031497
          },
          {
            "duration": 0.12931025000000318,
            "durationTicks": 120,
            "midi": 84,
            "name": "C6",
            "ticks": 65280,
            "time": 70.310442,
            "velocity": 0.7874015748031497
          },
          {
            "duration": 0.12931025000000318,
            "durationTicks": 120,
            "midi": 96,
            "name": "C7",
            "ticks": 65280,
            "time": 70.310442,
            "velocity": 0.7874015748031497
          },
          {
            "duration": 0.1713360812500042,
            "durationTicks": 159,
            "midi": 108,
            "name": "C8",
            "ticks": 65280,
            "time": 70.310442,
            "velocity": 0.7874015748031497
          },
          {
            "duration": 0.08620683333333545,
            "durationTicks": 80,
            "midi": 108,
            "name": "C8",
            "ticks": 65600,
            "time": 70.65526933333332,
            "velocity": 0.7874015748031497
          },
          {
            "duration": 0.12931025000000318,
            "durationTicks": 120,
            "midi": 74,
            "name": "D5",
            "ticks": 65760,
            "time": 70.827683,
            "velocity": 0.7874015748031497
          },
          {
            "duration": 0.12931025000000318,
            "durationTicks": 120,
            "midi": 61,
            "name": "C#4",
            "ticks": 65760,
            "time": 70.827683,
            "velocity": 0.7874015748031497
          },
          {
            "duration": 0.12931025000000318,
            "durationTicks": 120,
            "midi": 86,
            "name": "D6",
            "ticks": 65760,
            "time": 70.827683,
            "velocity": 0.7874015748031497
          },
          {
            "duration": 0.12931025000000318,
            "durationTicks": 120,
            "midi": 98,
            "name": "D7",
            "ticks": 65760,
            "time": 70.827683,
            "velocity": 0.7874015748031497
          },
          {
            "duration": 0.1724136666666709,
            "durationTicks": 160,
            "midi": 108,
            "name": "C8",
            "ticks": 65760,
            "time": 70.827683,
            "velocity": 0.7874015748031497
          },
          {
            "duration": 0.08620683333332124,
            "durationTicks": 80,
            "midi": 108,
            "name": "C8",
            "ticks": 66080,
            "time": 71.17251033333334,
            "velocity": 0.7874015748031497
          },
          {
            "duration": 0.08620683333332124,
            "durationTicks": 80,
            "midi": 96,
            "name": "C7",
            "ticks": 66080,
            "time": 71.17251033333334,
            "velocity": 0.7874015748031497
          },
          {
            "duration": 0.08620683333332124,
            "durationTicks": 80,
            "midi": 84,
            "name": "C6",
            "ticks": 66080,
            "time": 71.17251033333334,
            "velocity": 0.7874015748031497
          },
          {
            "duration": 0.12931025000000318,
            "durationTicks": 120,
            "midi": 73,
            "name": "C#5",
            "ticks": 66240,
            "time": 71.34492399999999,
            "velocity": 0.7874015748031497
          },
          {
            "duration": 0.12931025000000318,
            "durationTicks": 120,
            "midi": 61,
            "name": "C#4",
            "ticks": 66240,
            "time": 71.34492399999999,
            "velocity": 0.7874015748031497
          },
          {
            "duration": 0.12931025000000318,
            "durationTicks": 120,
            "midi": 85,
            "name": "C#6",
            "ticks": 66240,
            "time": 71.34492399999999,
            "velocity": 0.7874015748031497
          },
          {
            "duration": 0.12931025000000318,
            "durationTicks": 120,
            "midi": 97,
            "name": "C#7",
            "ticks": 66240,
            "time": 71.34492399999999,
            "velocity": 0.7874015748031497
          },
          {
            "duration": 0.08620683333333545,
            "durationTicks": 80,
            "midi": 108,
            "name": "C8",
            "ticks": 66240,
            "time": 71.34492399999999,
            "velocity": 0.7874015748031497
          },
          {
            "duration": 0.1724136666666709,
            "durationTicks": 160,
            "midi": 108,
            "name": "C8",
            "ticks": 66400,
            "time": 71.51733766666666,
            "velocity": 0.7874015748031497
          },
          {
            "duration": 0.12931025000000318,
            "durationTicks": 120,
            "midi": 74,
            "name": "D5",
            "ticks": 66720,
            "time": 71.86216499999999,
            "velocity": 0.7874015748031497
          },
          {
            "duration": 0.12931025000000318,
            "durationTicks": 120,
            "midi": 62,
            "name": "D4",
            "ticks": 66720,
            "time": 71.86216499999999,
            "velocity": 0.7874015748031497
          },
          {
            "duration": 0.12931025000000318,
            "durationTicks": 120,
            "midi": 86,
            "name": "D6",
            "ticks": 66720,
            "time": 71.86216499999999,
            "velocity": 0.7874015748031497
          },
          {
            "duration": 0.12931025000000318,
            "durationTicks": 120,
            "midi": 87,
            "name": "D#6",
            "ticks": 66720,
            "time": 71.86216499999999,
            "velocity": 0.7874015748031497
          },
          {
            "duration": 0.12931025000000318,
            "durationTicks": 120,
            "midi": 98,
            "name": "D7",
            "ticks": 66720,
            "time": 71.86216499999999,
            "velocity": 0.7874015748031497
          },
          {
            "duration": 0.12931025000000318,
            "durationTicks": 120,
            "midi": 99,
            "name": "D#7",
            "ticks": 66720,
            "time": 71.86216499999999,
            "velocity": 0.7874015748031497
          },
          {
            "duration": 0.08620683333333545,
            "durationTicks": 80,
            "midi": 108,
            "name": "C8",
            "ticks": 67040,
            "time": 72.20699233333333,
            "velocity": 0.7874015748031497
          },
          {
            "duration": 0.08620683333333545,
            "durationTicks": 80,
            "midi": 98,
            "name": "D7",
            "ticks": 67040,
            "time": 72.20699233333333,
            "velocity": 0.7874015748031497
          },
          {
            "duration": 0.08620683333333545,
            "durationTicks": 80,
            "midi": 86,
            "name": "D6",
            "ticks": 67040,
            "time": 72.20699233333333,
            "velocity": 0.7874015748031497
          },
          {
            "duration": 6.119194156249989,
            "durationTicks": 5760,
            "midi": 106,
            "name": "A#7",
            "ticks": 67185,
            "time": 72.36324221874999,
            "velocity": 0.7874015748031497
          },
          {
            "duration": 6.119194156249989,
            "durationTicks": 5760,
            "midi": 94,
            "name": "A#6",
            "ticks": 67185,
            "time": 72.36324221874999,
            "velocity": 0.7874015748031497
          },
          {
            "duration": 6.119194156249989,
            "durationTicks": 5760,
            "midi": 70,
            "name": "A#4",
            "ticks": 67185,
            "time": 72.36324221874999,
            "velocity": 0.7874015748031497
          },
          {
            "duration": 6.119194156249989,
            "durationTicks": 5760,
            "midi": 82,
            "name": "A#5",
            "ticks": 67185,
            "time": 72.36324221874999,
            "velocity": 0.7874015748031497
          },
          {
            "duration": 0.12711799999999585,
            "durationTicks": 120,
            "midi": 73,
            "name": "C#5",
            "ticks": 67200,
            "time": 72.37940599999999,
            "velocity": 0.7874015748031497
          },
          {
            "duration": 0.12711799999999585,
            "durationTicks": 120,
            "midi": 60,
            "name": "C4",
            "ticks": 67200,
            "time": 72.37940599999999,
            "velocity": 0.7874015748031497
          },
          {
            "duration": 0.12711799999999585,
            "durationTicks": 120,
            "midi": 85,
            "name": "C#6",
            "ticks": 67200,
            "time": 72.37940599999999,
            "velocity": 0.7874015748031497
          },
          {
            "duration": 0.12711799999999585,
            "durationTicks": 120,
            "midi": 97,
            "name": "C#7",
            "ticks": 67200,
            "time": 72.37940599999999,
            "velocity": 0.7874015748031497
          },
          {
            "duration": 0.16949066666666113,
            "durationTicks": 160,
            "midi": 108,
            "name": "C8",
            "ticks": 67200,
            "time": 72.37940599999999,
            "velocity": 0.7874015748031497
          },
          {
            "duration": 0.16949066666666113,
            "durationTicks": 160,
            "midi": 108,
            "name": "C8",
            "ticks": 67520,
            "time": 72.71838733333333,
            "velocity": 0.7874015748031497
          },
          {
            "duration": 0.12711799999999585,
            "durationTicks": 120,
            "midi": 75,
            "name": "D#5",
            "ticks": 67680,
            "time": 72.88787799999999,
            "velocity": 0.7874015748031497
          },
          {
            "duration": 0.12711799999999585,
            "durationTicks": 120,
            "midi": 62,
            "name": "D4",
            "ticks": 67680,
            "time": 72.88787799999999,
            "velocity": 0.7874015748031497
          },
          {
            "duration": 0.12711799999999585,
            "durationTicks": 120,
            "midi": 87,
            "name": "D#6",
            "ticks": 67680,
            "time": 72.88787799999999,
            "velocity": 0.7874015748031497
          },
          {
            "duration": 0.12711799999999585,
            "durationTicks": 120,
            "midi": 99,
            "name": "D#7",
            "ticks": 67680,
            "time": 72.88787799999999,
            "velocity": 0.7874015748031497
          },
          {
            "duration": 0.08474533333333056,
            "durationTicks": 80,
            "midi": 108,
            "name": "C8",
            "ticks": 67840,
            "time": 73.05736866666666,
            "velocity": 0.7874015748031497
          },
          {
            "duration": 0.08474533333333056,
            "durationTicks": 80,
            "midi": 108,
            "name": "C8",
            "ticks": 68000,
            "time": 73.22685933333332,
            "velocity": 0.7874015748031497
          },
          {
            "duration": 0.08474533333333056,
            "durationTicks": 80,
            "midi": 97,
            "name": "C#7",
            "ticks": 68000,
            "time": 73.22685933333332,
            "velocity": 0.7874015748031497
          },
          {
            "duration": 0.08474533333333056,
            "durationTicks": 80,
            "midi": 85,
            "name": "C#6",
            "ticks": 68000,
            "time": 73.22685933333332,
            "velocity": 0.7874015748031497
          },
          {
            "duration": 0.12711800000001006,
            "durationTicks": 120,
            "midi": 74,
            "name": "D5",
            "ticks": 68160,
            "time": 73.39634999999998,
            "velocity": 0.7874015748031497
          },
          {
            "duration": 0.12711800000001006,
            "durationTicks": 120,
            "midi": 61,
            "name": "C#4",
            "ticks": 68160,
            "time": 73.39634999999998,
            "velocity": 0.7874015748031497
          },
          {
            "duration": 0.12711800000001006,
            "durationTicks": 120,
            "midi": 86,
            "name": "D6",
            "ticks": 68160,
            "time": 73.39634999999998,
            "velocity": 0.7874015748031497
          },
          {
            "duration": 0.12711800000001006,
            "durationTicks": 120,
            "midi": 98,
            "name": "D7",
            "ticks": 68160,
            "time": 73.39634999999998,
            "velocity": 0.7874015748031497
          },
          {
            "duration": 0.16949066666667534,
            "durationTicks": 160,
            "midi": 108,
            "name": "C8",
            "ticks": 68160,
            "time": 73.39634999999998,
            "velocity": 0.7874015748031497
          },
          {
            "duration": 0.33898133333333647,
            "durationTicks": 320,
            "midi": 108,
            "name": "C8",
            "ticks": 68480,
            "time": 73.73533133333332,
            "velocity": 0.7874015748031497
          },
          {
            "duration": 0.12711799999999585,
            "durationTicks": 120,
            "midi": 75,
            "name": "D#5",
            "ticks": 68640,
            "time": 73.904822,
            "velocity": 0.7874015748031497
          },
          {
            "duration": 0.12711799999999585,
            "durationTicks": 120,
            "midi": 62,
            "name": "D4",
            "ticks": 68640,
            "time": 73.904822,
            "velocity": 0.7874015748031497
          },
          {
            "duration": 0.12711799999999585,
            "durationTicks": 120,
            "midi": 87,
            "name": "D#6",
            "ticks": 68640,
            "time": 73.904822,
            "velocity": 0.7874015748031497
          },
          {
            "duration": 0.12711799999999585,
            "durationTicks": 120,
            "midi": 88,
            "name": "E6",
            "ticks": 68640,
            "time": 73.904822,
            "velocity": 0.7874015748031497
          },
          {
            "duration": 0.12711799999999585,
            "durationTicks": 120,
            "midi": 99,
            "name": "D#7",
            "ticks": 68640,
            "time": 73.904822,
            "velocity": 0.7874015748031497
          },
          {
            "duration": 0.12711799999999585,
            "durationTicks": 120,
            "midi": 100,
            "name": "E7",
            "ticks": 68640,
            "time": 73.904822,
            "velocity": 0.7874015748031497
          },
          {
            "duration": 0.08474533333333056,
            "durationTicks": 80,
            "midi": 108,
            "name": "C8",
            "ticks": 68960,
            "time": 74.24380333333332,
            "velocity": 0.7874015748031497
          },
          {
            "duration": 1.144061999999991,
            "durationTicks": 1080,
            "midi": 103,
            "name": "G7",
            "ticks": 69105,
            "time": 74.39740425,
            "velocity": 0.7874015748031497
          },
          {
            "duration": 1.3559253333333317,
            "durationTicks": 1280,
            "midi": 105,
            "name": "A7",
            "ticks": 69105,
            "time": 74.39740425,
            "velocity": 0.7874015748031497
          },
          {
            "duration": 1.144061999999991,
            "durationTicks": 1080,
            "midi": 91,
            "name": "G6",
            "ticks": 69105,
            "time": 74.39740425,
            "velocity": 0.7874015748031497
          },
          {
            "duration": 1.3559253333333317,
            "durationTicks": 1280,
            "midi": 93,
            "name": "A6",
            "ticks": 69105,
            "time": 74.39740425,
            "velocity": 0.7874015748031497
          },
          {
            "duration": 1.144061999999991,
            "durationTicks": 1080,
            "midi": 67,
            "name": "G4",
            "ticks": 69105,
            "time": 74.39740425,
            "velocity": 0.7874015748031497
          },
          {
            "duration": 1.3559253333333317,
            "durationTicks": 1280,
            "midi": 69,
            "name": "A4",
            "ticks": 69105,
            "time": 74.39740425,
            "velocity": 0.7874015748031497
          },
          {
            "duration": 1.144061999999991,
            "durationTicks": 1080,
            "midi": 79,
            "name": "G5",
            "ticks": 69105,
            "time": 74.39740425,
            "velocity": 0.7874015748031497
          },
          {
            "duration": 1.3559253333333317,
            "durationTicks": 1280,
            "midi": 81,
            "name": "A5",
            "ticks": 69105,
            "time": 74.39740425,
            "velocity": 0.7874015748031497
          },
          {
            "duration": 0.12711799999999585,
            "durationTicks": 120,
            "midi": 75,
            "name": "D#5",
            "ticks": 69120,
            "time": 74.413294,
            "velocity": 0.7874015748031497
          },
          {
            "duration": 0.12711799999999585,
            "durationTicks": 120,
            "midi": 62,
            "name": "D4",
            "ticks": 69120,
            "time": 74.413294,
            "velocity": 0.7874015748031497
          },
          {
            "duration": 0.12711799999999585,
            "durationTicks": 120,
            "midi": 88,
            "name": "E6",
            "ticks": 69120,
            "time": 74.413294,
            "velocity": 0.7874015748031497
          },
          {
            "duration": 0.12711799999999585,
            "durationTicks": 120,
            "midi": 100,
            "name": "E7",
            "ticks": 69120,
            "time": 74.413294,
            "velocity": 0.7874015748031497
          },
          {
            "duration": 0.08474533333333056,
            "durationTicks": 80,
            "midi": 108,
            "name": "C8",
            "ticks": 69120,
            "time": 74.413294,
            "velocity": 0.7874015748031497
          },
          {
            "duration": 0.12711799999999585,
            "durationTicks": 120,
            "midi": 87,
            "name": "D#6",
            "ticks": 69280,
            "time": 74.58278466666665,
            "velocity": 0.7874015748031497
          },
          {
            "duration": 0.12711799999999585,
            "durationTicks": 120,
            "midi": 99,
            "name": "D#7",
            "ticks": 69280,
            "time": 74.58278466666665,
            "velocity": 0.7874015748031497
          },
          {
            "duration": 0.08474533333333056,
            "durationTicks": 80,
            "midi": 108,
            "name": "C8",
            "ticks": 69280,
            "time": 74.58278466666665,
            "velocity": 0.7874015748031497
          },
          {
            "duration": 0.12711800000001006,
            "durationTicks": 120,
            "midi": 86,
            "name": "D6",
            "ticks": 69440,
            "time": 74.75227533333332,
            "velocity": 0.7874015748031497
          },
          {
            "duration": 0.12711800000001006,
            "durationTicks": 120,
            "midi": 98,
            "name": "D7",
            "ticks": 69440,
            "time": 74.75227533333332,
            "velocity": 0.7874015748031497
          },
          {
            "duration": 0.08474533333334477,
            "durationTicks": 80,
            "midi": 108,
            "name": "C8",
            "ticks": 69440,
            "time": 74.75227533333332,
            "velocity": 0.7874015748031497
          },
          {
            "duration": 0.12711799999999585,
            "durationTicks": 120,
            "midi": 74,
            "name": "D5",
            "ticks": 69600,
            "time": 74.92176599999999,
            "velocity": 0.7874015748031497
          },
          {
            "duration": 0.12711799999999585,
            "durationTicks": 120,
            "midi": 61,
            "name": "C#4",
            "ticks": 69600,
            "time": 74.92176599999999,
            "velocity": 0.7874015748031497
          },
          {
            "duration": 0.12711799999999585,
            "durationTicks": 120,
            "midi": 87,
            "name": "D#6",
            "ticks": 69600,
            "time": 74.92176599999999,
            "velocity": 0.7874015748031497
          },
          {
            "duration": 0.12711799999999585,
            "durationTicks": 120,
            "midi": 99,
            "name": "D#7",
            "ticks": 69600,
            "time": 74.92176599999999,
            "velocity": 0.7874015748031497
          },
          {
            "duration": 0.16949066666666113,
            "durationTicks": 160,
            "midi": 108,
            "name": "C8",
            "ticks": 69600,
            "time": 74.92176599999999,
            "velocity": 0.7874015748031497
          },
          {
            "duration": 0.12711800000001006,
            "durationTicks": 120,
            "midi": 86,
            "name": "D6",
            "ticks": 69760,
            "time": 75.09125666666665,
            "velocity": 0.7874015748031497
          },
          {
            "duration": 0.12711800000001006,
            "durationTicks": 120,
            "midi": 98,
            "name": "D7",
            "ticks": 69760,
            "time": 75.09125666666665,
            "velocity": 0.7874015748031497
          },
          {
            "duration": 0.12711799999999585,
            "durationTicks": 120,
            "midi": 73,
            "name": "C#5",
            "ticks": 69920,
            "time": 75.26074733333333,
            "velocity": 0.7874015748031497
          },
          {
            "duration": 0.12711799999999585,
            "durationTicks": 120,
            "midi": 85,
            "name": "C#6",
            "ticks": 69920,
            "time": 75.26074733333333,
            "velocity": 0.7874015748031497
          },
          {
            "duration": 0.12711799999999585,
            "durationTicks": 120,
            "midi": 97,
            "name": "C#7",
            "ticks": 69920,
            "time": 75.26074733333333,
            "velocity": 0.7874015748031497
          },
          {
            "duration": 0.08474533333333056,
            "durationTicks": 80,
            "midi": 108,
            "name": "C8",
            "ticks": 69920,
            "time": 75.26074733333333,
            "velocity": 0.7874015748031497
          },
          {
            "duration": 0.12711799999999585,
            "durationTicks": 120,
            "midi": 72,
            "name": "C5",
            "ticks": 70080,
            "time": 75.43023799999999,
            "velocity": 0.7874015748031497
          },
          {
            "duration": 0.12711799999999585,
            "durationTicks": 120,
            "midi": 60,
            "name": "C4",
            "ticks": 70080,
            "time": 75.43023799999999,
            "velocity": 0.7874015748031497
          },
          {
            "duration": 0.12711799999999585,
            "durationTicks": 120,
            "midi": 84,
            "name": "C6",
            "ticks": 70080,
            "time": 75.43023799999999,
            "velocity": 0.7874015748031497
          },
          {
            "duration": 0.12711799999999585,
            "durationTicks": 120,
            "midi": 96,
            "name": "C7",
            "ticks": 70080,
            "time": 75.43023799999999,
            "velocity": 0.7874015748031497
          },
          {
            "duration": 0.16949066666666113,
            "durationTicks": 160,
            "midi": 108,
            "name": "C8",
            "ticks": 70080,
            "time": 75.43023799999999,
            "velocity": 0.7874015748031497
          },
          {
            "duration": 0.12711799999999585,
            "durationTicks": 120,
            "midi": 74,
            "name": "D5",
            "ticks": 70560,
            "time": 75.93870999999999,
            "velocity": 0.7874015748031497
          },
          {
            "duration": 0.12711799999999585,
            "durationTicks": 120,
            "midi": 73,
            "name": "C#5",
            "ticks": 70560,
            "time": 75.93870999999999,
            "velocity": 0.7874015748031497
          },
          {
            "duration": 0.12711799999999585,
            "durationTicks": 120,
            "midi": 62,
            "name": "D4",
            "ticks": 70560,
            "time": 75.93870999999999,
            "velocity": 0.7874015748031497
          },
          {
            "duration": 0.12711799999999585,
            "durationTicks": 120,
            "midi": 87,
            "name": "D#6",
            "ticks": 70560,
            "time": 75.93870999999999,
            "velocity": 0.7874015748031497
          },
          {
            "duration": 0.12711799999999585,
            "durationTicks": 120,
            "midi": 86,
            "name": "D6",
            "ticks": 70560,
            "time": 75.93870999999999,
            "velocity": 0.7874015748031497
          },
          {
            "duration": 0.12711799999999585,
            "durationTicks": 120,
            "midi": 99,
            "name": "D#7",
            "ticks": 70560,
            "time": 75.93870999999999,
            "velocity": 0.7874015748031497
          },
          {
            "duration": 0.12711799999999585,
            "durationTicks": 120,
            "midi": 98,
            "name": "D7",
            "ticks": 70560,
            "time": 75.93870999999999,
            "velocity": 0.7874015748031497
          },
          {
            "duration": 0.16949066666667534,
            "durationTicks": 160,
            "midi": 108,
            "name": "C8",
            "ticks": 70560,
            "time": 75.93870999999999,
            "velocity": 0.7874015748031497
          },
          {
            "duration": 0.08474533333333056,
            "durationTicks": 80,
            "midi": 108,
            "name": "C8",
            "ticks": 70880,
            "time": 76.27769133333332,
            "velocity": 0.7874015748031497
          },
          {
            "duration": 0.5128200000000049,
            "durationTicks": 480,
            "midi": 60,
            "name": "C4",
            "ticks": 71040,
            "time": 76.44718199999998,
            "velocity": 0.7874015748031497
          },
          {
            "duration": 0.5128200000000049,
            "durationTicks": 480,
            "midi": 75,
            "name": "D#5",
            "ticks": 71040,
            "time": 76.44718199999998,
            "velocity": 0.7874015748031497
          },
          {
            "duration": 0.5128200000000049,
            "durationTicks": 480,
            "midi": 73,
            "name": "C#5",
            "ticks": 71040,
            "time": 76.44718199999998,
            "velocity": 0.7874015748031497
          },
          {
            "duration": 0.5128200000000049,
            "durationTicks": 480,
            "midi": 61,
            "name": "C#4",
            "ticks": 71040,
            "time": 76.44718199999998,
            "velocity": 0.7874015748031497
          },
          {
            "duration": 0.5128200000000049,
            "durationTicks": 480,
            "midi": 87,
            "name": "D#6",
            "ticks": 71040,
            "time": 76.44718199999998,
            "velocity": 0.7874015748031497
          },
          {
            "duration": 0.5128200000000049,
            "durationTicks": 480,
            "midi": 85,
            "name": "C#6",
            "ticks": 71040,
            "time": 76.44718199999998,
            "velocity": 0.7874015748031497
          },
          {
            "duration": 0.5128200000000049,
            "durationTicks": 480,
            "midi": 99,
            "name": "D#7",
            "ticks": 71040,
            "time": 76.44718199999998,
            "velocity": 0.7874015748031497
          },
          {
            "duration": 0.5128200000000049,
            "durationTicks": 480,
            "midi": 97,
            "name": "C#7",
            "ticks": 71040,
            "time": 76.44718199999998,
            "velocity": 0.7874015748031497
          },
          {
            "duration": 0.08547000000000082,
            "durationTicks": 80,
            "midi": 108,
            "name": "C8",
            "ticks": 71040,
            "time": 76.44718199999998,
            "velocity": 0.7874015748031497
          },
          {
            "duration": 0.4273500000000041,
            "durationTicks": 400,
            "midi": 108,
            "name": "C8",
            "ticks": 71200,
            "time": 76.61812199999999,
            "velocity": 0.7874015748031497
          },
          {
            "duration": 0.5128200000000049,
            "durationTicks": 480,
            "midi": 60,
            "name": "C4",
            "ticks": 72000,
            "time": 77.47282199999998,
            "velocity": 0.7874015748031497
          },
          {
            "duration": 0.5128200000000049,
            "durationTicks": 480,
            "midi": 75,
            "name": "D#5",
            "ticks": 72000,
            "time": 77.47282199999998,
            "velocity": 0.7874015748031497
          },
          {
            "duration": 0.5128200000000049,
            "durationTicks": 480,
            "midi": 74,
            "name": "D5",
            "ticks": 72000,
            "time": 77.47282199999998,
            "velocity": 0.7874015748031497
          },
          {
            "duration": 0.5128200000000049,
            "durationTicks": 480,
            "midi": 62,
            "name": "D4",
            "ticks": 72000,
            "time": 77.47282199999998,
            "velocity": 0.7874015748031497
          },
          {
            "duration": 0.5128200000000049,
            "durationTicks": 480,
            "midi": 88,
            "name": "E6",
            "ticks": 72000,
            "time": 77.47282199999998,
            "velocity": 0.7874015748031497
          },
          {
            "duration": 0.5128200000000049,
            "durationTicks": 480,
            "midi": 86,
            "name": "D6",
            "ticks": 72000,
            "time": 77.47282199999998,
            "velocity": 0.7874015748031497
          },
          {
            "duration": 0.5128200000000049,
            "durationTicks": 480,
            "midi": 100,
            "name": "E7",
            "ticks": 72000,
            "time": 77.47282199999998,
            "velocity": 0.7874015748031497
          },
          {
            "duration": 0.5128200000000049,
            "durationTicks": 480,
            "midi": 98,
            "name": "D7",
            "ticks": 72000,
            "time": 77.47282199999998,
            "velocity": 0.7874015748031497
          },
          {
            "duration": 0.7692300000000074,
            "durationTicks": 720,
            "midi": 108,
            "name": "C8",
            "ticks": 72000,
            "time": 77.47282199999998,
            "velocity": 0.7874015748031497
          },
          {
            "duration": 2.034023875000017,
            "durationTicks": 1920,
            "midi": 105,
            "name": "A7",
            "ticks": 72945,
            "time": 78.48243637499998,
            "velocity": 0.7874015748031497
          },
          {
            "duration": 2.034023875000017,
            "durationTicks": 1920,
            "midi": 93,
            "name": "A6",
            "ticks": 72945,
            "time": 78.48243637499998,
            "velocity": 0.7874015748031497
          },
          {
            "duration": 2.034023875000017,
            "durationTicks": 1920,
            "midi": 69,
            "name": "A4",
            "ticks": 72945,
            "time": 78.48243637499998,
            "velocity": 0.7874015748031497
          },
          {
            "duration": 2.034023875000017,
            "durationTicks": 1920,
            "midi": 81,
            "name": "A5",
            "ticks": 72945,
            "time": 78.48243637499998,
            "velocity": 0.7874015748031497
          },
          {
            "duration": 0.12711799999999585,
            "durationTicks": 120,
            "midi": 74,
            "name": "D5",
            "ticks": 72960,
            "time": 78.49846199999999,
            "velocity": 0.7874015748031497
          },
          {
            "duration": 0.12711799999999585,
            "durationTicks": 120,
            "midi": 75,
            "name": "D#5",
            "ticks": 72960,
            "time": 78.49846199999999,
            "velocity": 0.7874015748031497
          },
          {
            "duration": 0.12711799999999585,
            "durationTicks": 120,
            "midi": 62,
            "name": "D4",
            "ticks": 72960,
            "time": 78.49846199999999,
            "velocity": 0.7874015748031497
          },
          {
            "duration": 0.12711799999999585,
            "durationTicks": 120,
            "midi": 87,
            "name": "D#6",
            "ticks": 72960,
            "time": 78.49846199999999,
            "velocity": 0.7874015748031497
          },
          {
            "duration": 0.12711799999999585,
            "durationTicks": 120,
            "midi": 88,
            "name": "E6",
            "ticks": 72960,
            "time": 78.49846199999999,
            "velocity": 0.7874015748031497
          },
          {
            "duration": 0.12711799999999585,
            "durationTicks": 120,
            "midi": 99,
            "name": "D#7",
            "ticks": 72960,
            "time": 78.49846199999999,
            "velocity": 0.7874015748031497
          },
          {
            "duration": 0.12711799999999585,
            "durationTicks": 120,
            "midi": 100,
            "name": "E7",
            "ticks": 72960,
            "time": 78.49846199999999,
            "velocity": 0.7874015748031497
          },
          {
            "duration": 0.2542360000000059,
            "durationTicks": 240,
            "midi": 108,
            "name": "C8",
            "ticks": 72960,
            "time": 78.49846199999999,
            "velocity": 0.7874015748031497
          },
          {
            "duration": 0.33898133333333647,
            "durationTicks": 320,
            "midi": 108,
            "name": "C8",
            "ticks": 73280,
            "time": 78.83744333333333,
            "velocity": 0.7874015748031497
          },
          {
            "duration": 0.12711799999999585,
            "durationTicks": 120,
            "midi": 74,
            "name": "D5",
            "ticks": 73440,
            "time": 79.00693399999999,
            "velocity": 0.7874015748031497
          },
          {
            "duration": 0.12711799999999585,
            "durationTicks": 120,
            "midi": 75,
            "name": "D#5",
            "ticks": 73440,
            "time": 79.00693399999999,
            "velocity": 0.7874015748031497
          },
          {
            "duration": 0.12711799999999585,
            "durationTicks": 120,
            "midi": 62,
            "name": "D4",
            "ticks": 73440,
            "time": 79.00693399999999,
            "velocity": 0.7874015748031497
          },
          {
            "duration": 0.12711799999999585,
            "durationTicks": 120,
            "midi": 87,
            "name": "D#6",
            "ticks": 73440,
            "time": 79.00693399999999,
            "velocity": 0.7874015748031497
          },
          {
            "duration": 0.12711799999999585,
            "durationTicks": 120,
            "midi": 88,
            "name": "E6",
            "ticks": 73440,
            "time": 79.00693399999999,
            "velocity": 0.7874015748031497
          },
          {
            "duration": 0.12711799999999585,
            "durationTicks": 120,
            "midi": 99,
            "name": "D#7",
            "ticks": 73440,
            "time": 79.00693399999999,
            "velocity": 0.7874015748031497
          },
          {
            "duration": 0.12711799999999585,
            "durationTicks": 120,
            "midi": 100,
            "name": "E7",
            "ticks": 73440,
            "time": 79.00693399999999,
            "velocity": 0.7874015748031497
          },
          {
            "duration": 0.08474533333333056,
            "durationTicks": 80,
            "midi": 108,
            "name": "C8",
            "ticks": 73760,
            "time": 79.34591533333332,
            "velocity": 0.7874015748031497
          },
          {
            "duration": 0.12711800000001006,
            "durationTicks": 120,
            "midi": 73,
            "name": "C#5",
            "ticks": 73920,
            "time": 79.51540599999998,
            "velocity": 0.7874015748031497
          },
          {
            "duration": 0.12711800000001006,
            "durationTicks": 120,
            "midi": 75,
            "name": "D#5",
            "ticks": 73920,
            "time": 79.51540599999998,
            "velocity": 0.7874015748031497
          },
          {
            "duration": 0.12711800000001006,
            "durationTicks": 120,
            "midi": 61,
            "name": "C#4",
            "ticks": 73920,
            "time": 79.51540599999998,
            "velocity": 0.7874015748031497
          },
          {
            "duration": 0.12711800000001006,
            "durationTicks": 120,
            "midi": 86,
            "name": "D6",
            "ticks": 73920,
            "time": 79.51540599999998,
            "velocity": 0.7874015748031497
          },
          {
            "duration": 0.12711800000001006,
            "durationTicks": 120,
            "midi": 87,
            "name": "D#6",
            "ticks": 73920,
            "time": 79.51540599999998,
            "velocity": 0.7874015748031497
          },
          {
            "duration": 0.12711800000001006,
            "durationTicks": 120,
            "midi": 98,
            "name": "D7",
            "ticks": 73920,
            "time": 79.51540599999998,
            "velocity": 0.7874015748031497
          },
          {
            "duration": 0.12711800000001006,
            "durationTicks": 120,
            "midi": 99,
            "name": "D#7",
            "ticks": 73920,
            "time": 79.51540599999998,
            "velocity": 0.7874015748031497
          },
          {
            "duration": 0.08474533333334477,
            "durationTicks": 80,
            "midi": 108,
            "name": "C8",
            "ticks": 73920,
            "time": 79.51540599999998,
            "velocity": 0.7874015748031497
          },
          {
            "duration": 0.08474533333333056,
            "durationTicks": 80,
            "midi": 108,
            "name": "C8",
            "ticks": 74080,
            "time": 79.68489666666666,
            "velocity": 0.7874015748031497
          },
          {
            "duration": 0.5084719999999976,
            "durationTicks": 480,
            "midi": 108,
            "name": "C8",
            "ticks": 74240,
            "time": 79.85438733333332,
            "velocity": 0.7874015748031497
          },
          {
            "duration": 0.12711799999999585,
            "durationTicks": 120,
            "midi": 73,
            "name": "C#5",
            "ticks": 74400,
            "time": 80.023878,
            "velocity": 0.7874015748031497
          },
          {
            "duration": 0.12711799999999585,
            "durationTicks": 120,
            "midi": 75,
            "name": "D#5",
            "ticks": 74400,
            "time": 80.023878,
            "velocity": 0.7874015748031497
          },
          {
            "duration": 0.12711799999999585,
            "durationTicks": 120,
            "midi": 61,
            "name": "C#4",
            "ticks": 74400,
            "time": 80.023878,
            "velocity": 0.7874015748031497
          },
          {
            "duration": 0.12711799999999585,
            "durationTicks": 120,
            "midi": 86,
            "name": "D6",
            "ticks": 74400,
            "time": 80.023878,
            "velocity": 0.7874015748031497
          },
          {
            "duration": 0.12711799999999585,
            "durationTicks": 120,
            "midi": 87,
            "name": "D#6",
            "ticks": 74400,
            "time": 80.023878,
            "velocity": 0.7874015748031497
          },
          {
            "duration": 0.12711799999999585,
            "durationTicks": 120,
            "midi": 98,
            "name": "D7",
            "ticks": 74400,
            "time": 80.023878,
            "velocity": 0.7874015748031497
          },
          {
            "duration": 0.12711799999999585,
            "durationTicks": 120,
            "midi": 99,
            "name": "D#7",
            "ticks": 74400,
            "time": 80.023878,
            "velocity": 0.7874015748031497
          },
          {
            "duration": 2.0338879999999904,
            "durationTicks": 1920,
            "midi": 106,
            "name": "A#7",
            "ticks": 74865,
            "time": 80.51646025,
            "velocity": 0.7874015748031497
          },
          {
            "duration": 2.0338879999999904,
            "durationTicks": 1920,
            "midi": 94,
            "name": "A#6",
            "ticks": 74865,
            "time": 80.51646025,
            "velocity": 0.7874015748031497
          },
          {
            "duration": 2.0338879999999904,
            "durationTicks": 1920,
            "midi": 70,
            "name": "A#4",
            "ticks": 74865,
            "time": 80.51646025,
            "velocity": 0.7874015748031497
          },
          {
            "duration": 2.0338879999999904,
            "durationTicks": 1920,
            "midi": 82,
            "name": "A#5",
            "ticks": 74865,
            "time": 80.51646025,
            "velocity": 0.7874015748031497
          },
          {
            "duration": 0.12711799999999585,
            "durationTicks": 120,
            "midi": 74,
            "name": "D5",
            "ticks": 74880,
            "time": 80.53235,
            "velocity": 0.7874015748031497
          },
          {
            "duration": 0.12711799999999585,
            "durationTicks": 120,
            "midi": 75,
            "name": "D#5",
            "ticks": 74880,
            "time": 80.53235,
            "velocity": 0.7874015748031497
          },
          {
            "duration": 0.12711799999999585,
            "durationTicks": 120,
            "midi": 62,
            "name": "D4",
            "ticks": 74880,
            "time": 80.53235,
            "velocity": 0.7874015748031497
          },
          {
            "duration": 0.12711799999999585,
            "durationTicks": 120,
            "midi": 87,
            "name": "D#6",
            "ticks": 74880,
            "time": 80.53235,
            "velocity": 0.7874015748031497
          },
          {
            "duration": 0.12711799999999585,
            "durationTicks": 120,
            "midi": 88,
            "name": "E6",
            "ticks": 74880,
            "time": 80.53235,
            "velocity": 0.7874015748031497
          },
          {
            "duration": 0.12711799999999585,
            "durationTicks": 120,
            "midi": 99,
            "name": "D#7",
            "ticks": 74880,
            "time": 80.53235,
            "velocity": 0.7874015748031497
          },
          {
            "duration": 0.12711799999999585,
            "durationTicks": 120,
            "midi": 100,
            "name": "E7",
            "ticks": 74880,
            "time": 80.53235,
            "velocity": 0.7874015748031497
          },
          {
            "duration": 0.08474533333333056,
            "durationTicks": 80,
            "midi": 108,
            "name": "C8",
            "ticks": 74880,
            "time": 80.53235,
            "velocity": 0.7874015748031497
          },
          {
            "duration": 0.08474533333333056,
            "durationTicks": 80,
            "midi": 108,
            "name": "C8",
            "ticks": 75040,
            "time": 80.70184066666666,
            "velocity": 0.7874015748031497
          },
          {
            "duration": 0.2542360000000059,
            "durationTicks": 240,
            "midi": 108,
            "name": "C8",
            "ticks": 75200,
            "time": 80.87133133333332,
            "velocity": 0.7874015748031497
          },
          {
            "duration": 0.12711799999999585,
            "durationTicks": 120,
            "midi": 74,
            "name": "D5",
            "ticks": 75360,
            "time": 81.04082199999999,
            "velocity": 0.7874015748031497
          },
          {
            "duration": 0.12711799999999585,
            "durationTicks": 120,
            "midi": 75,
            "name": "D#5",
            "ticks": 75360,
            "time": 81.04082199999999,
            "velocity": 0.7874015748031497
          },
          {
            "duration": 0.12711799999999585,
            "durationTicks": 120,
            "midi": 62,
            "name": "D4",
            "ticks": 75360,
            "time": 81.04082199999999,
            "velocity": 0.7874015748031497
          },
          {
            "duration": 0.12711799999999585,
            "durationTicks": 120,
            "midi": 87,
            "name": "D#6",
            "ticks": 75360,
            "time": 81.04082199999999,
            "velocity": 0.7874015748031497
          },
          {
            "duration": 0.12711799999999585,
            "durationTicks": 120,
            "midi": 88,
            "name": "E6",
            "ticks": 75360,
            "time": 81.04082199999999,
            "velocity": 0.7874015748031497
          },
          {
            "duration": 0.12711799999999585,
            "durationTicks": 120,
            "midi": 99,
            "name": "D#7",
            "ticks": 75360,
            "time": 81.04082199999999,
            "velocity": 0.7874015748031497
          },
          {
            "duration": 0.12711799999999585,
            "durationTicks": 120,
            "midi": 100,
            "name": "E7",
            "ticks": 75360,
            "time": 81.04082199999999,
            "velocity": 0.7874015748031497
          },
          {
            "duration": 0.08474533333333056,
            "durationTicks": 80,
            "midi": 108,
            "name": "C8",
            "ticks": 75520,
            "time": 81.21031266666665,
            "velocity": 0.7874015748031497
          },
          {
            "duration": 0.08474533333333056,
            "durationTicks": 80,
            "midi": 108,
            "name": "C8",
            "ticks": 75680,
            "time": 81.37980333333333,
            "velocity": 0.7874015748031497
          },
          {
            "duration": 0.08474533333333056,
            "durationTicks": 80,
            "midi": 96,
            "name": "C7",
            "ticks": 75680,
            "time": 81.37980333333333,
            "velocity": 0.7874015748031497
          },
          {
            "duration": 4.362824937499994,
            "durationTicks": 4160,
            "midi": 105,
            "name": "A7",
            "ticks": 75825,
            "time": 81.53340424999999,
            "velocity": 0.7874015748031497
          },
          {
            "duration": 4.362824937499994,
            "durationTicks": 4160,
            "midi": 93,
            "name": "A6",
            "ticks": 75825,
            "time": 81.53340424999999,
            "velocity": 0.7874015748031497
          },
          {
            "duration": 4.362824937499994,
            "durationTicks": 4160,
            "midi": 69,
            "name": "A4",
            "ticks": 75825,
            "time": 81.53340424999999,
            "velocity": 0.7874015748031497
          },
          {
            "duration": 4.362824937499994,
            "durationTicks": 4160,
            "midi": 81,
            "name": "A5",
            "ticks": 75825,
            "time": 81.53340424999999,
            "velocity": 0.7874015748031497
          },
          {
            "duration": 0.12711799999999585,
            "durationTicks": 120,
            "midi": 74,
            "name": "D5",
            "ticks": 75840,
            "time": 81.54929399999999,
            "velocity": 0.7874015748031497
          },
          {
            "duration": 0.12711799999999585,
            "durationTicks": 120,
            "midi": 60,
            "name": "C4",
            "ticks": 75840,
            "time": 81.54929399999999,
            "velocity": 0.7874015748031497
          },
          {
            "duration": 0.12711799999999585,
            "durationTicks": 120,
            "midi": 85,
            "name": "C#6",
            "ticks": 75840,
            "time": 81.54929399999999,
            "velocity": 0.7874015748031497
          },
          {
            "duration": 0.12711799999999585,
            "durationTicks": 120,
            "midi": 86,
            "name": "D6",
            "ticks": 75840,
            "time": 81.54929399999999,
            "velocity": 0.7874015748031497
          },
          {
            "duration": 0.12711799999999585,
            "durationTicks": 120,
            "midi": 97,
            "name": "C#7",
            "ticks": 75840,
            "time": 81.54929399999999,
            "velocity": 0.7874015748031497
          },
          {
            "duration": 0.12711799999999585,
            "durationTicks": 120,
            "midi": 98,
            "name": "D7",
            "ticks": 75840,
            "time": 81.54929399999999,
            "velocity": 0.7874015748031497
          },
          {
            "duration": 0.08474533333333056,
            "durationTicks": 80,
            "midi": 108,
            "name": "C8",
            "ticks": 75840,
            "time": 81.54929399999999,
            "velocity": 0.7874015748031497
          },
          {
            "duration": 0.12711800000001006,
            "durationTicks": 120,
            "midi": 85,
            "name": "C#6",
            "ticks": 76000,
            "time": 81.71878466666665,
            "velocity": 0.7874015748031497
          },
          {
            "duration": 0.12711800000001006,
            "durationTicks": 120,
            "midi": 96,
            "name": "C7",
            "ticks": 76000,
            "time": 81.71878466666665,
            "velocity": 0.7874015748031497
          },
          {
            "duration": 0.08474533333334477,
            "durationTicks": 80,
            "midi": 108,
            "name": "C8",
            "ticks": 76000,
            "time": 81.71878466666665,
            "velocity": 0.7874015748031497
          },
          {
            "duration": 0.5084719999999976,
            "durationTicks": 480,
            "midi": 75,
            "name": "D#5",
            "ticks": 76160,
            "time": 81.88827533333333,
            "velocity": 0.7874015748031497
          },
          {
            "duration": 0.5084719999999976,
            "durationTicks": 480,
            "midi": 61,
            "name": "C#4",
            "ticks": 76160,
            "time": 81.88827533333333,
            "velocity": 0.7874015748031497
          },
          {
            "duration": 0.5084719999999976,
            "durationTicks": 480,
            "midi": 85,
            "name": "C#6",
            "ticks": 76160,
            "time": 81.88827533333333,
            "velocity": 0.7874015748031497
          },
          {
            "duration": 0.5084719999999976,
            "durationTicks": 480,
            "midi": 87,
            "name": "D#6",
            "ticks": 76160,
            "time": 81.88827533333333,
            "velocity": 0.7874015748031497
          },
          {
            "duration": 0.5084719999999976,
            "durationTicks": 480,
            "midi": 97,
            "name": "C#7",
            "ticks": 76160,
            "time": 81.88827533333333,
            "velocity": 0.7874015748031497
          },
          {
            "duration": 0.5084719999999976,
            "durationTicks": 480,
            "midi": 99,
            "name": "D#7",
            "ticks": 76160,
            "time": 81.88827533333333,
            "velocity": 0.7874015748031497
          },
          {
            "duration": 0.16949066666666113,
            "durationTicks": 160,
            "midi": 108,
            "name": "C8",
            "ticks": 76160,
            "time": 81.88827533333333,
            "velocity": 0.7874015748031497
          },
          {
            "duration": 0.08474533333333056,
            "durationTicks": 80,
            "midi": 108,
            "name": "C8",
            "ticks": 76640,
            "time": 82.39674733333332,
            "velocity": 0.7874015748031497
          },
          {
            "duration": 0.12711800000001006,
            "durationTicks": 120,
            "midi": 74,
            "name": "D5",
            "ticks": 76800,
            "time": 82.56623799999998,
            "velocity": 0.7874015748031497
          },
          {
            "duration": 0.12711800000001006,
            "durationTicks": 120,
            "midi": 73,
            "name": "C#5",
            "ticks": 76800,
            "time": 82.56623799999998,
            "velocity": 0.7874015748031497
          },
          {
            "duration": 0.12711800000001006,
            "durationTicks": 120,
            "midi": 60,
            "name": "C4",
            "ticks": 76800,
            "time": 82.56623799999998,
            "velocity": 0.7874015748031497
          },
          {
            "duration": 0.12711800000001006,
            "durationTicks": 120,
            "midi": 86,
            "name": "D6",
            "ticks": 76800,
            "time": 82.56623799999998,
            "velocity": 0.7874015748031497
          },
          {
            "duration": 0.12711800000001006,
            "durationTicks": 120,
            "midi": 87,
            "name": "D#6",
            "ticks": 76800,
            "time": 82.56623799999998,
            "velocity": 0.7874015748031497
          },
          {
            "duration": 0.12711800000001006,
            "durationTicks": 120,
            "midi": 98,
            "name": "D7",
            "ticks": 76800,
            "time": 82.56623799999998,
            "velocity": 0.7874015748031497
          },
          {
            "duration": 0.12711800000001006,
            "durationTicks": 120,
            "midi": 99,
            "name": "D#7",
            "ticks": 76800,
            "time": 82.56623799999998,
            "velocity": 0.7874015748031497
          },
          {
            "duration": 0.08474533333334477,
            "durationTicks": 80,
            "midi": 108,
            "name": "C8",
            "ticks": 76800,
            "time": 82.56623799999998,
            "velocity": 0.7874015748031497
          },
          {
            "duration": 0.08474533333333056,
            "durationTicks": 80,
            "midi": 108,
            "name": "C8",
            "ticks": 76960,
            "time": 82.73572866666666,
            "velocity": 0.7874015748031497
          },
          {
            "duration": 0.33898133333333647,
            "durationTicks": 320,
            "midi": 108,
            "name": "C8",
            "ticks": 77120,
            "time": 82.90521933333332,
            "velocity": 0.7874015748031497
          },
          {
            "duration": 0.12711799999999585,
            "durationTicks": 120,
            "midi": 73,
            "name": "C#5",
            "ticks": 77280,
            "time": 83.07471,
            "velocity": 0.7874015748031497
          },
          {
            "duration": 0.12711799999999585,
            "durationTicks": 120,
            "midi": 75,
            "name": "D#5",
            "ticks": 77280,
            "time": 83.07471,
            "velocity": 0.7874015748031497
          },
          {
            "duration": 0.12711799999999585,
            "durationTicks": 120,
            "midi": 61,
            "name": "C#4",
            "ticks": 77280,
            "time": 83.07471,
            "velocity": 0.7874015748031497
          },
          {
            "duration": 0.12711799999999585,
            "durationTicks": 120,
            "midi": 86,
            "name": "D6",
            "ticks": 77280,
            "time": 83.07471,
            "velocity": 0.7874015748031497
          },
          {
            "duration": 0.12711799999999585,
            "durationTicks": 120,
            "midi": 88,
            "name": "E6",
            "ticks": 77280,
            "time": 83.07471,
            "velocity": 0.7874015748031497
          },
          {
            "duration": 0.12711799999999585,
            "durationTicks": 120,
            "midi": 98,
            "name": "D7",
            "ticks": 77280,
            "time": 83.07471,
            "velocity": 0.7874015748031497
          },
          {
            "duration": 0.12711799999999585,
            "durationTicks": 120,
            "midi": 100,
            "name": "E7",
            "ticks": 77280,
            "time": 83.07471,
            "velocity": 0.7874015748031497
          },
          {
            "duration": 0.08474533333334477,
            "durationTicks": 80,
            "midi": 108,
            "name": "C8",
            "ticks": 77600,
            "time": 83.41369133333332,
            "velocity": 0.7874015748031497
          },
          {
            "duration": 0.12711799999999585,
            "durationTicks": 120,
            "midi": 74,
            "name": "D5",
            "ticks": 77760,
            "time": 83.583182,
            "velocity": 0.7874015748031497
          },
          {
            "duration": 0.12711799999999585,
            "durationTicks": 120,
            "midi": 75,
            "name": "D#5",
            "ticks": 77760,
            "time": 83.583182,
            "velocity": 0.7874015748031497
          },
          {
            "duration": 0.12711799999999585,
            "durationTicks": 120,
            "midi": 62,
            "name": "D4",
            "ticks": 77760,
            "time": 83.583182,
            "velocity": 0.7874015748031497
          },
          {
            "duration": 0.12711799999999585,
            "durationTicks": 120,
            "midi": 87,
            "name": "D#6",
            "ticks": 77760,
            "time": 83.583182,
            "velocity": 0.7874015748031497
          },
          {
            "duration": 0.12711799999999585,
            "durationTicks": 120,
            "midi": 88,
            "name": "E6",
            "ticks": 77760,
            "time": 83.583182,
            "velocity": 0.7874015748031497
          },
          {
            "duration": 0.12711799999999585,
            "durationTicks": 120,
            "midi": 99,
            "name": "D#7",
            "ticks": 77760,
            "time": 83.583182,
            "velocity": 0.7874015748031497
          },
          {
            "duration": 0.12711799999999585,
            "durationTicks": 120,
            "midi": 100,
            "name": "E7",
            "ticks": 77760,
            "time": 83.583182,
            "velocity": 0.7874015748031497
          },
          {
            "duration": 0.16949066666666113,
            "durationTicks": 160,
            "midi": 108,
            "name": "C8",
            "ticks": 77760,
            "time": 83.583182,
            "velocity": 0.7874015748031497
          },
          {
            "duration": 0.08474533333334477,
            "durationTicks": 80,
            "midi": 108,
            "name": "C8",
            "ticks": 78080,
            "time": 83.92216333333332,
            "velocity": 0.7874015748031497
          },
          {
            "duration": 0.5084719999999976,
            "durationTicks": 480,
            "midi": 74,
            "name": "D5",
            "ticks": 78240,
            "time": 84.09165399999999,
            "velocity": 0.7874015748031497
          },
          {
            "duration": 0.5084719999999976,
            "durationTicks": 480,
            "midi": 61,
            "name": "C#4",
            "ticks": 78240,
            "time": 84.09165399999999,
            "velocity": 0.7874015748031497
          },
          {
            "duration": 0.5084719999999976,
            "durationTicks": 480,
            "midi": 85,
            "name": "C#6",
            "ticks": 78240,
            "time": 84.09165399999999,
            "velocity": 0.7874015748031497
          },
          {
            "duration": 0.5084719999999976,
            "durationTicks": 480,
            "midi": 87,
            "name": "D#6",
            "ticks": 78240,
            "time": 84.09165399999999,
            "velocity": 0.7874015748031497
          },
          {
            "duration": 0.5084719999999976,
            "durationTicks": 480,
            "midi": 97,
            "name": "C#7",
            "ticks": 78240,
            "time": 84.09165399999999,
            "velocity": 0.7874015748031497
          },
          {
            "duration": 0.5084719999999976,
            "durationTicks": 480,
            "midi": 99,
            "name": "D#7",
            "ticks": 78240,
            "time": 84.09165399999999,
            "velocity": 0.7874015748031497
          },
          {
            "duration": 0.7543730000000011,
            "durationTicks": 720,
            "midi": 108,
            "name": "C8",
            "ticks": 78240,
            "time": 84.09165399999999,
            "velocity": 0.7874015748031497
          },
          {
            "duration": 0.860653499999998,
            "durationTicks": 840,
            "midi": 61,
            "name": "C#4",
            "ticks": 79040,
            "time": 84.92799399999998,
            "velocity": 0.7874015748031497
          },
          {
            "duration": 0.860653499999998,
            "durationTicks": 840,
            "midi": 74,
            "name": "D5",
            "ticks": 79040,
            "time": 84.92799399999998,
            "velocity": 0.7874015748031497
          },
          {
            "duration": 0.860653499999998,
            "durationTicks": 840,
            "midi": 72,
            "name": "C5",
            "ticks": 79040,
            "time": 84.92799399999998,
            "velocity": 0.7874015748031497
          },
          {
            "duration": 0.860653499999998,
            "durationTicks": 840,
            "midi": 60,
            "name": "C4",
            "ticks": 79040,
            "time": 84.92799399999998,
            "velocity": 0.7874015748031497
          },
          {
            "duration": 0.860653499999998,
            "durationTicks": 840,
            "midi": 86,
            "name": "D6",
            "ticks": 79040,
            "time": 84.92799399999998,
            "velocity": 0.7874015748031497
          },
          {
            "duration": 0.860653499999998,
            "durationTicks": 840,
            "midi": 84,
            "name": "C6",
            "ticks": 79040,
            "time": 84.92799399999998,
            "velocity": 0.7874015748031497
          },
          {
            "duration": 0.860653499999998,
            "durationTicks": 840,
            "midi": 98,
            "name": "D7",
            "ticks": 79040,
            "time": 84.92799399999998,
            "velocity": 0.7874015748031497
          },
          {
            "duration": 0.860653499999998,
            "durationTicks": 840,
            "midi": 96,
            "name": "C7",
            "ticks": 79040,
            "time": 84.92799399999998,
            "velocity": 0.7874015748031497
          },
          {
            "duration": 2.68910306250001,
            "durationTicks": 2560,
            "midi": 106,
            "name": "A#7",
            "ticks": 79985,
            "time": 85.89622918749998,
            "velocity": 0.7874015748031497
          },
          {
            "duration": 2.68910306250001,
            "durationTicks": 2560,
            "midi": 94,
            "name": "A#6",
            "ticks": 79985,
            "time": 85.89622918749998,
            "velocity": 0.7874015748031497
          },
          {
            "duration": 2.68910306250001,
            "durationTicks": 2560,
            "midi": 70,
            "name": "A#4",
            "ticks": 79985,
            "time": 85.89622918749998,
            "velocity": 0.7874015748031497
          },
          {
            "duration": 2.68910306250001,
            "durationTicks": 2560,
            "midi": 82,
            "name": "A#5",
            "ticks": 79985,
            "time": 85.89622918749998,
            "velocity": 0.7874015748031497
          },
          {
            "duration": 0.6147525000000087,
            "durationTicks": 600,
            "midi": 73,
            "name": "C#5",
            "ticks": 80000,
            "time": 85.91159799999998,
            "velocity": 0.7874015748031497
          },
          {
            "duration": 0.6147525000000087,
            "durationTicks": 600,
            "midi": 61,
            "name": "C#4",
            "ticks": 80000,
            "time": 85.91159799999998,
            "velocity": 0.7874015748031497
          },
          {
            "duration": 0.6147525000000087,
            "durationTicks": 600,
            "midi": 86,
            "name": "D6",
            "ticks": 80000,
            "time": 85.91159799999998,
            "velocity": 0.7874015748031497
          },
          {
            "duration": 0.6147525000000087,
            "durationTicks": 600,
            "midi": 98,
            "name": "D7",
            "ticks": 80000,
            "time": 85.91159799999998,
            "velocity": 0.7874015748031497
          },
          {
            "duration": 2.0333670625000053,
            "durationTicks": 1920,
            "midi": 103,
            "name": "G7",
            "ticks": 80625,
            "time": 86.55196518749999,
            "velocity": 0.7874015748031497
          },
          {
            "duration": 2.0333670625000053,
            "durationTicks": 1920,
            "midi": 91,
            "name": "G6",
            "ticks": 80625,
            "time": 86.55196518749999,
            "velocity": 0.7874015748031497
          },
          {
            "duration": 2.0333670625000053,
            "durationTicks": 1920,
            "midi": 67,
            "name": "G4",
            "ticks": 80625,
            "time": 86.55196518749999,
            "velocity": 0.7874015748031497
          },
          {
            "duration": 2.0333670625000053,
            "durationTicks": 1920,
            "midi": 79,
            "name": "G5",
            "ticks": 80625,
            "time": 86.55196518749999,
            "velocity": 0.7874015748031497
          },
          {
            "duration": 0.12711799999999585,
            "durationTicks": 120,
            "midi": 74,
            "name": "D5",
            "ticks": 80640,
            "time": 86.56733399999999,
            "velocity": 0.7874015748031497
          },
          {
            "duration": 0.12711799999999585,
            "durationTicks": 120,
            "midi": 62,
            "name": "D4",
            "ticks": 80640,
            "time": 86.56733399999999,
            "velocity": 0.7874015748031497
          },
          {
            "duration": 0.12711799999999585,
            "durationTicks": 120,
            "midi": 87,
            "name": "D#6",
            "ticks": 80640,
            "time": 86.56733399999999,
            "velocity": 0.7874015748031497
          },
          {
            "duration": 0.12711799999999585,
            "durationTicks": 120,
            "midi": 99,
            "name": "D#7",
            "ticks": 80640,
            "time": 86.56733399999999,
            "velocity": 0.7874015748031497
          },
          {
            "duration": 0.38135400000000175,
            "durationTicks": 360,
            "midi": 74,
            "name": "D5",
            "ticks": 80960,
            "time": 86.90631533333332,
            "velocity": 0.7874015748031497
          },
          {
            "duration": 0.38135400000000175,
            "durationTicks": 360,
            "midi": 62,
            "name": "D4",
            "ticks": 80960,
            "time": 86.90631533333332,
            "velocity": 0.7874015748031497
          },
          {
            "duration": 0.38135400000000175,
            "durationTicks": 360,
            "midi": 87,
            "name": "D#6",
            "ticks": 80960,
            "time": 86.90631533333332,
            "velocity": 0.7874015748031497
          },
          {
            "duration": 0.38135400000000175,
            "durationTicks": 360,
            "midi": 99,
            "name": "D#7",
            "ticks": 80960,
            "time": 86.90631533333332,
            "velocity": 0.7874015748031497
          },
          {
            "duration": 0.12711799999999585,
            "durationTicks": 120,
            "midi": 74,
            "name": "D5",
            "ticks": 81440,
            "time": 87.41478733333332,
            "velocity": 0.7874015748031497
          },
          {
            "duration": 0.12711799999999585,
            "durationTicks": 120,
            "midi": 61,
            "name": "C#4",
            "ticks": 81440,
            "time": 87.41478733333332,
            "velocity": 0.7874015748031497
          },
          {
            "duration": 0.12711799999999585,
            "durationTicks": 120,
            "midi": 87,
            "name": "D#6",
            "ticks": 81440,
            "time": 87.41478733333332,
            "velocity": 0.7874015748031497
          },
          {
            "duration": 0.12711799999999585,
            "durationTicks": 120,
            "midi": 99,
            "name": "D#7",
            "ticks": 81440,
            "time": 87.41478733333332,
            "velocity": 0.7874015748031497
          },
          {
            "duration": 0.12711800000001006,
            "durationTicks": 120,
            "midi": 86,
            "name": "D6",
            "ticks": 81600,
            "time": 87.58427799999998,
            "velocity": 0.7874015748031497
          },
          {
            "duration": 0.12711800000001006,
            "durationTicks": 120,
            "midi": 98,
            "name": "D7",
            "ticks": 81600,
            "time": 87.58427799999998,
            "velocity": 0.7874015748031497
          },
          {
            "duration": 0.12711799999999585,
            "durationTicks": 120,
            "midi": 85,
            "name": "C#6",
            "ticks": 81760,
            "time": 87.75376866666666,
            "velocity": 0.7874015748031497
          },
          {
            "duration": 0.12711799999999585,
            "durationTicks": 120,
            "midi": 97,
            "name": "C#7",
            "ticks": 81760,
            "time": 87.75376866666666,
            "velocity": 0.7874015748031497
          },
          {
            "duration": 0.6355900000000076,
            "durationTicks": 600,
            "midi": 72,
            "name": "C5",
            "ticks": 81920,
            "time": 87.92325933333332,
            "velocity": 0.7874015748031497
          },
          {
            "duration": 0.6355900000000076,
            "durationTicks": 600,
            "midi": 60,
            "name": "C4",
            "ticks": 81920,
            "time": 87.92325933333332,
            "velocity": 0.7874015748031497
          },
          {
            "duration": 0.6355900000000076,
            "durationTicks": 600,
            "midi": 84,
            "name": "C6",
            "ticks": 81920,
            "time": 87.92325933333332,
            "velocity": 0.7874015748031497
          },
          {
            "duration": 0.6355900000000076,
            "durationTicks": 600,
            "midi": 96,
            "name": "C7",
            "ticks": 81920,
            "time": 87.92325933333332,
            "velocity": 0.7874015748031497
          },
          {
            "duration": 2.042472406249999,
            "durationTicks": 1920,
            "midi": 105,
            "name": "A7",
            "ticks": 82545,
            "time": 88.58533225,
            "velocity": 0.7874015748031497
          },
          {
            "duration": 2.042472406249999,
            "durationTicks": 1920,
            "midi": 93,
            "name": "A6",
            "ticks": 82545,
            "time": 88.58533225,
            "velocity": 0.7874015748031497
          },
          {
            "duration": 2.042472406249999,
            "durationTicks": 1920,
            "midi": 69,
            "name": "A4",
            "ticks": 82545,
            "time": 88.58533225,
            "velocity": 0.7874015748031497
          },
          {
            "duration": 2.042472406249999,
            "durationTicks": 1920,
            "midi": 81,
            "name": "A5",
            "ticks": 82545,
            "time": 88.58533225,
            "velocity": 0.7874015748031497
          },
          {
            "duration": 0.12765874999999482,
            "durationTicks": 120,
            "midi": 75,
            "name": "D#5",
            "ticks": 82560,
            "time": 88.60122199999999,
            "velocity": 0.7874015748031497
          },
          {
            "duration": 0.12765874999999482,
            "durationTicks": 120,
            "midi": 61,
            "name": "C#4",
            "ticks": 82560,
            "time": 88.60122199999999,
            "velocity": 0.7874015748031497
          },
          {
            "duration": 0.12765874999999482,
            "durationTicks": 120,
            "midi": 87,
            "name": "D#6",
            "ticks": 82560,
            "time": 88.60122199999999,
            "velocity": 0.7874015748031497
          },
          {
            "duration": 0.12765874999999482,
            "durationTicks": 120,
            "midi": 99,
            "name": "D#7",
            "ticks": 82560,
            "time": 88.60122199999999,
            "velocity": 0.7874015748031497
          },
          {
            "duration": 0.12765874999999482,
            "durationTicks": 120,
            "midi": 62,
            "name": "D4",
            "ticks": 82880,
            "time": 88.94164533333333,
            "velocity": 0.7874015748031497
          },
          {
            "duration": 0.12765874999999482,
            "durationTicks": 120,
            "midi": 88,
            "name": "E6",
            "ticks": 82880,
            "time": 88.94164533333333,
            "velocity": 0.7874015748031497
          },
          {
            "duration": 0.12765874999999482,
            "durationTicks": 120,
            "midi": 100,
            "name": "E7",
            "ticks": 82880,
            "time": 88.94164533333333,
            "velocity": 0.7874015748031497
          },
          {
            "duration": 0.12765875000000904,
            "durationTicks": 120,
            "midi": 74,
            "name": "D5",
            "ticks": 83040,
            "time": 89.11185699999999,
            "velocity": 0.7874015748031497
          },
          {
            "duration": 0.12765875000000904,
            "durationTicks": 120,
            "midi": 61,
            "name": "C#4",
            "ticks": 83040,
            "time": 89.11185699999999,
            "velocity": 0.7874015748031497
          },
          {
            "duration": 0.12765875000000904,
            "durationTicks": 120,
            "midi": 86,
            "name": "D6",
            "ticks": 83040,
            "time": 89.11185699999999,
            "velocity": 0.7874015748031497
          },
          {
            "duration": 0.12765875000000904,
            "durationTicks": 120,
            "midi": 98,
            "name": "D7",
            "ticks": 83040,
            "time": 89.11185699999999,
            "velocity": 0.7874015748031497
          },
          {
            "duration": 0.12765875000000904,
            "durationTicks": 120,
            "midi": 74,
            "name": "D5",
            "ticks": 83360,
            "time": 89.45228033333332,
            "velocity": 0.7874015748031497
          },
          {
            "duration": 0.12765875000000904,
            "durationTicks": 120,
            "midi": 61,
            "name": "C#4",
            "ticks": 83360,
            "time": 89.45228033333332,
            "velocity": 0.7874015748031497
          },
          {
            "duration": 0.12765875000000904,
            "durationTicks": 120,
            "midi": 87,
            "name": "D#6",
            "ticks": 83360,
            "time": 89.45228033333332,
            "velocity": 0.7874015748031497
          },
          {
            "duration": 0.12765875000000904,
            "durationTicks": 120,
            "midi": 99,
            "name": "D#7",
            "ticks": 83360,
            "time": 89.45228033333332,
            "velocity": 0.7874015748031497
          },
          {
            "duration": 0.08510583333332988,
            "durationTicks": 80,
            "midi": 73,
            "name": "C#5",
            "ticks": 83520,
            "time": 89.622492,
            "velocity": 0.7874015748031497
          },
          {
            "duration": 0.12765874999999482,
            "durationTicks": 120,
            "midi": 86,
            "name": "D6",
            "ticks": 83520,
            "time": 89.622492,
            "velocity": 0.7874015748031497
          },
          {
            "duration": 0.12765874999999482,
            "durationTicks": 120,
            "midi": 98,
            "name": "D7",
            "ticks": 83520,
            "time": 89.622492,
            "velocity": 0.7874015748031497
          },
          {
            "duration": 0.12765875000000904,
            "durationTicks": 120,
            "midi": 85,
            "name": "C#6",
            "ticks": 83680,
            "time": 89.79270366666665,
            "velocity": 0.7874015748031497
          },
          {
            "duration": 0.12765875000000904,
            "durationTicks": 120,
            "midi": 97,
            "name": "C#7",
            "ticks": 83680,
            "time": 89.79270366666665,
            "velocity": 0.7874015748031497
          },
          {
            "duration": 0.12765874999999482,
            "durationTicks": 120,
            "midi": 72,
            "name": "C5",
            "ticks": 83840,
            "time": 89.96291533333333,
            "velocity": 0.7874015748031497
          },
          {
            "duration": 0.12765874999999482,
            "durationTicks": 120,
            "midi": 60,
            "name": "C4",
            "ticks": 83840,
            "time": 89.96291533333333,
            "velocity": 0.7874015748031497
          },
          {
            "duration": 0.12765874999999482,
            "durationTicks": 120,
            "midi": 84,
            "name": "C6",
            "ticks": 83840,
            "time": 89.96291533333333,
            "velocity": 0.7874015748031497
          },
          {
            "duration": 0.12765874999999482,
            "durationTicks": 120,
            "midi": 96,
            "name": "C7",
            "ticks": 83840,
            "time": 89.96291533333333,
            "velocity": 0.7874015748031497
          },
          {
            "duration": 0.42552916666667784,
            "durationTicks": 400,
            "midi": 72,
            "name": "C5",
            "ticks": 84000,
            "time": 90.13312699999999,
            "velocity": 0.7874015748031497
          },
          {
            "duration": 0.3829762499999987,
            "durationTicks": 360,
            "midi": 60,
            "name": "C4",
            "ticks": 84000,
            "time": 90.13312699999999,
            "velocity": 0.7874015748031497
          },
          {
            "duration": 0.42552916666667784,
            "durationTicks": 400,
            "midi": 84,
            "name": "C6",
            "ticks": 84000,
            "time": 90.13312699999999,
            "velocity": 0.7874015748031497
          },
          {
            "duration": 0.42552916666667784,
            "durationTicks": 400,
            "midi": 96,
            "name": "C7",
            "ticks": 84000,
            "time": 90.13312699999999,
            "velocity": 0.7874015748031497
          },
          {
            "duration": 2.0425400000000025,
            "durationTicks": 1920,
            "midi": 106,
            "name": "A#7",
            "ticks": 84465,
            "time": 90.62780465624999,
            "velocity": 0.7874015748031497
          },
          {
            "duration": 2.0425400000000025,
            "durationTicks": 1920,
            "midi": 94,
            "name": "A#6",
            "ticks": 84465,
            "time": 90.62780465624999,
            "velocity": 0.7874015748031497
          },
          {
            "duration": 2.0425400000000025,
            "durationTicks": 1920,
            "midi": 70,
            "name": "A#4",
            "ticks": 84465,
            "time": 90.62780465624999,
            "velocity": 0.7874015748031497
          },
          {
            "duration": 2.0425400000000025,
            "durationTicks": 1920,
            "midi": 82,
            "name": "A#5",
            "ticks": 84465,
            "time": 90.62780465624999,
            "velocity": 0.7874015748031497
          },
          {
            "duration": 0.3829762499999987,
            "durationTicks": 360,
            "midi": 73,
            "name": "C#5",
            "ticks": 84480,
            "time": 90.643762,
            "velocity": 0.7874015748031497
          },
          {
            "duration": 0.3829762499999987,
            "durationTicks": 360,
            "midi": 62,
            "name": "D4",
            "ticks": 84480,
            "time": 90.643762,
            "velocity": 0.7874015748031497
          },
          {
            "duration": 0.12765874999999482,
            "durationTicks": 120,
            "midi": 87,
            "name": "D#6",
            "ticks": 84480,
            "time": 90.643762,
            "velocity": 0.7874015748031497
          },
          {
            "duration": 0.12765874999999482,
            "durationTicks": 120,
            "midi": 99,
            "name": "D#7",
            "ticks": 84480,
            "time": 90.643762,
            "velocity": 0.7874015748031497
          },
          {
            "duration": 0.12765874999999482,
            "durationTicks": 120,
            "midi": 86,
            "name": "D6",
            "ticks": 84720,
            "time": 90.8990795,
            "velocity": 0.7874015748031497
          },
          {
            "duration": 0.12765874999999482,
            "durationTicks": 120,
            "midi": 98,
            "name": "D7",
            "ticks": 84720,
            "time": 90.8990795,
            "velocity": 0.7874015748031497
          },
          {
            "duration": 0.12765875000000904,
            "durationTicks": 120,
            "midi": 73,
            "name": "C#5",
            "ticks": 84960,
            "time": 91.15439699999999,
            "velocity": 0.7874015748031497
          },
          {
            "duration": 0.12765875000000904,
            "durationTicks": 120,
            "midi": 61,
            "name": "C#4",
            "ticks": 84960,
            "time": 91.15439699999999,
            "velocity": 0.7874015748031497
          },
          {
            "duration": 0.12765875000000904,
            "durationTicks": 120,
            "midi": 86,
            "name": "D6",
            "ticks": 84960,
            "time": 91.15439699999999,
            "velocity": 0.7874015748031497
          },
          {
            "duration": 0.12765875000000904,
            "durationTicks": 120,
            "midi": 98,
            "name": "D7",
            "ticks": 84960,
            "time": 91.15439699999999,
            "velocity": 0.7874015748031497
          },
          {
            "duration": 0.12765875000000904,
            "durationTicks": 120,
            "midi": 74,
            "name": "D5",
            "ticks": 85280,
            "time": 91.49482033333332,
            "velocity": 0.7874015748031497
          },
          {
            "duration": 0.12765875000000904,
            "durationTicks": 120,
            "midi": 62,
            "name": "D4",
            "ticks": 85280,
            "time": 91.49482033333332,
            "velocity": 0.7874015748031497
          },
          {
            "duration": 0.12765875000000904,
            "durationTicks": 120,
            "midi": 87,
            "name": "D#6",
            "ticks": 85280,
            "time": 91.49482033333332,
            "velocity": 0.7874015748031497
          },
          {
            "duration": 0.12765875000000904,
            "durationTicks": 120,
            "midi": 99,
            "name": "D#7",
            "ticks": 85280,
            "time": 91.49482033333332,
            "velocity": 0.7874015748031497
          },
          {
            "duration": 0.12765874999999482,
            "durationTicks": 120,
            "midi": 73,
            "name": "C#5",
            "ticks": 85440,
            "time": 91.665032,
            "velocity": 0.7874015748031497
          },
          {
            "duration": 0.12765874999999482,
            "durationTicks": 120,
            "midi": 61,
            "name": "C#4",
            "ticks": 85440,
            "time": 91.665032,
            "velocity": 0.7874015748031497
          },
          {
            "duration": 0.12765874999999482,
            "durationTicks": 120,
            "midi": 86,
            "name": "D6",
            "ticks": 85440,
            "time": 91.665032,
            "velocity": 0.7874015748031497
          },
          {
            "duration": 0.12765874999999482,
            "durationTicks": 120,
            "midi": 98,
            "name": "D7",
            "ticks": 85440,
            "time": 91.665032,
            "velocity": 0.7874015748031497
          },
          {
            "duration": 0.12765875000000904,
            "durationTicks": 120,
            "midi": 85,
            "name": "C#6",
            "ticks": 85600,
            "time": 91.83524366666666,
            "velocity": 0.7874015748031497
          },
          {
            "duration": 0.12765875000000904,
            "durationTicks": 120,
            "midi": 97,
            "name": "C#7",
            "ticks": 85600,
            "time": 91.83524366666666,
            "velocity": 0.7874015748031497
          },
          {
            "duration": 0.5957408333333234,
            "durationTicks": 560,
            "midi": 72,
            "name": "C5",
            "ticks": 85760,
            "time": 92.00545533333333,
            "velocity": 0.7874015748031497
          },
          {
            "duration": 0.5106349999999935,
            "durationTicks": 480,
            "midi": 60,
            "name": "C4",
            "ticks": 85760,
            "time": 92.00545533333333,
            "velocity": 0.7874015748031497
          },
          {
            "duration": 0.5957408333333234,
            "durationTicks": 560,
            "midi": 84,
            "name": "C6",
            "ticks": 85760,
            "time": 92.00545533333333,
            "velocity": 0.7874015748031497
          },
          {
            "duration": 0.5957408333333234,
            "durationTicks": 560,
            "midi": 96,
            "name": "C7",
            "ticks": 85760,
            "time": 92.00545533333333,
            "velocity": 0.7874015748031497
          },
          {
            "duration": 3.5854045625000026,
            "durationTicks": 3360,
            "midi": 105,
            "name": "A7",
            "ticks": 86385,
            "time": 92.67034465625,
            "velocity": 0.7874015748031497
          },
          {
            "duration": 3.5854045625000026,
            "durationTicks": 3360,
            "midi": 93,
            "name": "A6",
            "ticks": 86385,
            "time": 92.67034465625,
            "velocity": 0.7874015748031497
          },
          {
            "duration": 3.5854045625000026,
            "durationTicks": 3360,
            "midi": 69,
            "name": "A4",
            "ticks": 86385,
            "time": 92.67034465625,
            "velocity": 0.7874015748031497
          },
          {
            "duration": 3.5854045625000026,
            "durationTicks": 3360,
            "midi": 81,
            "name": "A5",
            "ticks": 86385,
            "time": 92.67034465625,
            "velocity": 0.7874015748031497
          },
          {
            "duration": 0.12711799999999585,
            "durationTicks": 120,
            "midi": 75,
            "name": "D#5",
            "ticks": 86400,
            "time": 92.686302,
            "velocity": 0.7874015748031497
          },
          {
            "duration": 0.12711799999999585,
            "durationTicks": 120,
            "midi": 62,
            "name": "D4",
            "ticks": 86400,
            "time": 92.686302,
            "velocity": 0.7874015748031497
          },
          {
            "duration": 0.12711799999999585,
            "durationTicks": 120,
            "midi": 88,
            "name": "E6",
            "ticks": 86400,
            "time": 92.686302,
            "velocity": 0.7874015748031497
          },
          {
            "duration": 0.12711799999999585,
            "durationTicks": 120,
            "midi": 100,
            "name": "E7",
            "ticks": 86400,
            "time": 92.686302,
            "velocity": 0.7874015748031497
          },
          {
            "duration": 0.12711800000001006,
            "durationTicks": 120,
            "midi": 86,
            "name": "D6",
            "ticks": 86560,
            "time": 92.85579266666666,
            "velocity": 0.7874015748031497
          },
          {
            "duration": 0.12711800000001006,
            "durationTicks": 120,
            "midi": 98,
            "name": "D7",
            "ticks": 86560,
            "time": 92.85579266666666,
            "velocity": 0.7874015748031497
          },
          {
            "duration": 0.12711799999999585,
            "durationTicks": 120,
            "midi": 73,
            "name": "C#5",
            "ticks": 86720,
            "time": 93.02528333333333,
            "velocity": 0.7874015748031497
          },
          {
            "duration": 0.12711799999999585,
            "durationTicks": 120,
            "midi": 61,
            "name": "C#4",
            "ticks": 86720,
            "time": 93.02528333333333,
            "velocity": 0.7874015748031497
          },
          {
            "duration": 0.12711799999999585,
            "durationTicks": 120,
            "midi": 87,
            "name": "D#6",
            "ticks": 86720,
            "time": 93.02528333333333,
            "velocity": 0.7874015748031497
          },
          {
            "duration": 0.12711799999999585,
            "durationTicks": 120,
            "midi": 99,
            "name": "D#7",
            "ticks": 86720,
            "time": 93.02528333333333,
            "velocity": 0.7874015748031497
          },
          {
            "duration": 0.12711799999999585,
            "durationTicks": 120,
            "midi": 74,
            "name": "D5",
            "ticks": 86880,
            "time": 93.194774,
            "velocity": 0.7874015748031497
          },
          {
            "duration": 0.12711799999999585,
            "durationTicks": 120,
            "midi": 85,
            "name": "C#6",
            "ticks": 86880,
            "time": 93.194774,
            "velocity": 0.7874015748031497
          },
          {
            "duration": 0.12711799999999585,
            "durationTicks": 120,
            "midi": 97,
            "name": "C#7",
            "ticks": 86880,
            "time": 93.194774,
            "velocity": 0.7874015748031497
          },
          {
            "duration": 0.12711799999999585,
            "durationTicks": 120,
            "midi": 60,
            "name": "C4",
            "ticks": 87040,
            "time": 93.36426466666667,
            "velocity": 0.7874015748031497
          },
          {
            "duration": 0.12711799999999585,
            "durationTicks": 120,
            "midi": 87,
            "name": "D#6",
            "ticks": 87040,
            "time": 93.36426466666667,
            "velocity": 0.7874015748031497
          },
          {
            "duration": 0.12711799999999585,
            "durationTicks": 120,
            "midi": 99,
            "name": "D#7",
            "ticks": 87040,
            "time": 93.36426466666667,
            "velocity": 0.7874015748031497
          },
          {
            "duration": 0.12711799999999585,
            "durationTicks": 120,
            "midi": 73,
            "name": "C#5",
            "ticks": 87200,
            "time": 93.53375533333333,
            "velocity": 0.7874015748031497
          },
          {
            "duration": 0.12711799999999585,
            "durationTicks": 120,
            "midi": 86,
            "name": "D6",
            "ticks": 87200,
            "time": 93.53375533333333,
            "velocity": 0.7874015748031497
          },
          {
            "duration": 0.12711799999999585,
            "durationTicks": 120,
            "midi": 98,
            "name": "D7",
            "ticks": 87200,
            "time": 93.53375533333333,
            "velocity": 0.7874015748031497
          },
          {
            "duration": 0.5084720000000118,
            "durationTicks": 480,
            "midi": 73,
            "name": "C#5",
            "ticks": 87360,
            "time": 93.703246,
            "velocity": 0.7874015748031497
          },
          {
            "duration": 0.38135400000000175,
            "durationTicks": 360,
            "midi": 61,
            "name": "C#4",
            "ticks": 87360,
            "time": 93.703246,
            "velocity": 0.7874015748031497
          },
          {
            "duration": 0.5084720000000118,
            "durationTicks": 480,
            "midi": 85,
            "name": "C#6",
            "ticks": 87360,
            "time": 93.703246,
            "velocity": 0.7874015748031497
          },
          {
            "duration": 0.5084720000000118,
            "durationTicks": 480,
            "midi": 97,
            "name": "C#7",
            "ticks": 87360,
            "time": 93.703246,
            "velocity": 0.7874015748031497
          },
          {
            "duration": 0.12711799999999585,
            "durationTicks": 120,
            "midi": 96,
            "name": "C7",
            "ticks": 87840,
            "time": 94.211718,
            "velocity": 0.7874015748031497
          },
          {
            "duration": 0.12711799999999585,
            "durationTicks": 120,
            "midi": 84,
            "name": "C6",
            "ticks": 87840,
            "time": 94.211718,
            "velocity": 0.7874015748031497
          },
          {
            "duration": 0.12711799999999585,
            "durationTicks": 120,
            "midi": 72,
            "name": "C5",
            "ticks": 87840,
            "time": 94.211718,
            "velocity": 0.7874015748031497
          },
          {
            "duration": 0.12711799999999585,
            "durationTicks": 120,
            "midi": 60,
            "name": "C4",
            "ticks": 87840,
            "time": 94.211718,
            "velocity": 0.7874015748031497
          },
          {
            "duration": 0.6005248333333384,
            "durationTicks": 560,
            "midi": 96,
            "name": "C7",
            "ticks": 88160,
            "time": 94.55069933333333,
            "velocity": 0.7874015748031497
          },
          {
            "duration": 0.6005248333333384,
            "durationTicks": 560,
            "midi": 84,
            "name": "C6",
            "ticks": 88160,
            "time": 94.55069933333333,
            "velocity": 0.7874015748031497
          },
          {
            "duration": 0.6005248333333384,
            "durationTicks": 560,
            "midi": 72,
            "name": "C5",
            "ticks": 88160,
            "time": 94.55069933333333,
            "velocity": 0.7874015748031497
          },
          {
            "duration": 0.6005248333333384,
            "durationTicks": 560,
            "midi": 60,
            "name": "C4",
            "ticks": 88160,
            "time": 94.55069933333333,
            "velocity": 0.7874015748031497
          },
          {
            "duration": 0.12931025000000318,
            "durationTicks": 120,
            "midi": 96,
            "name": "C7",
            "ticks": 88800,
            "time": 95.237431,
            "velocity": 0.7874015748031497
          },
          {
            "duration": 0.12931025000000318,
            "durationTicks": 120,
            "midi": 99,
            "name": "D#7",
            "ticks": 88800,
            "time": 95.237431,
            "velocity": 0.7874015748031497
          },
          {
            "duration": 0.12931025000000318,
            "durationTicks": 120,
            "midi": 84,
            "name": "C6",
            "ticks": 88800,
            "time": 95.237431,
            "velocity": 0.7874015748031497
          },
          {
            "duration": 0.12931025000000318,
            "durationTicks": 120,
            "midi": 87,
            "name": "D#6",
            "ticks": 88800,
            "time": 95.237431,
            "velocity": 0.7874015748031497
          },
          {
            "duration": 0.12931025000000318,
            "durationTicks": 120,
            "midi": 74,
            "name": "D5",
            "ticks": 88800,
            "time": 95.237431,
            "velocity": 0.7874015748031497
          },
          {
            "duration": 0.12931025000000318,
            "durationTicks": 120,
            "midi": 62,
            "name": "D4",
            "ticks": 88800,
            "time": 95.237431,
            "velocity": 0.7874015748031497
          },
          {
            "duration": 0.6034478333333197,
            "durationTicks": 560,
            "midi": 96,
            "name": "C7",
            "ticks": 89120,
            "time": 95.58225833333334,
            "velocity": 0.7874015748031497
          },
          {
            "duration": 0.6034478333333197,
            "durationTicks": 560,
            "midi": 99,
            "name": "D#7",
            "ticks": 89120,
            "time": 95.58225833333334,
            "velocity": 0.7874015748031497
          },
          {
            "duration": 0.6034478333333197,
            "durationTicks": 560,
            "midi": 84,
            "name": "C6",
            "ticks": 89120,
            "time": 95.58225833333334,
            "velocity": 0.7874015748031497
          },
          {
            "duration": 0.6034478333333197,
            "durationTicks": 560,
            "midi": 87,
            "name": "D#6",
            "ticks": 89120,
            "time": 95.58225833333334,
            "velocity": 0.7874015748031497
          },
          {
            "duration": 0.6034478333333197,
            "durationTicks": 560,
            "midi": 74,
            "name": "D5",
            "ticks": 89120,
            "time": 95.58225833333334,
            "velocity": 0.7874015748031497
          },
          {
            "duration": 0.6034478333333197,
            "durationTicks": 560,
            "midi": 62,
            "name": "D4",
            "ticks": 89120,
            "time": 95.58225833333334,
            "velocity": 0.7874015748031497
          },
          {
            "duration": 2.082317437499995,
            "durationTicks": 1920,
            "midi": 106,
            "name": "A#7",
            "ticks": 89745,
            "time": 96.25574921875,
            "velocity": 0.7874015748031497
          },
          {
            "duration": 2.082317437499995,
            "durationTicks": 1920,
            "midi": 94,
            "name": "A#6",
            "ticks": 89745,
            "time": 96.25574921875,
            "velocity": 0.7874015748031497
          },
          {
            "duration": 2.082317437499995,
            "durationTicks": 1920,
            "midi": 70,
            "name": "A#4",
            "ticks": 89745,
            "time": 96.25574921875,
            "velocity": 0.7874015748031497
          },
          {
            "duration": 2.082317437499995,
            "durationTicks": 1920,
            "midi": 82,
            "name": "A#5",
            "ticks": 89745,
            "time": 96.25574921875,
            "velocity": 0.7874015748031497
          },
          {
            "duration": 0.12931025000000318,
            "durationTicks": 120,
            "midi": 96,
            "name": "C7",
            "ticks": 89760,
            "time": 96.271913,
            "velocity": 0.7874015748031497
          },
          {
            "duration": 0.12931025000000318,
            "durationTicks": 120,
            "midi": 84,
            "name": "C6",
            "ticks": 89760,
            "time": 96.271913,
            "velocity": 0.7874015748031497
          },
          {
            "duration": 0.12931025000000318,
            "durationTicks": 120,
            "midi": 72,
            "name": "C5",
            "ticks": 89760,
            "time": 96.271913,
            "velocity": 0.7874015748031497
          },
          {
            "duration": 0.12931025000000318,
            "durationTicks": 120,
            "midi": 60,
            "name": "C4",
            "ticks": 89760,
            "time": 96.271913,
            "velocity": 0.7874015748031497
          },
          {
            "duration": 0.6071961666666539,
            "durationTicks": 560,
            "midi": 96,
            "name": "C7",
            "ticks": 90080,
            "time": 96.61674033333334,
            "velocity": 0.7874015748031497
          },
          {
            "duration": 0.6071961666666539,
            "durationTicks": 560,
            "midi": 84,
            "name": "C6",
            "ticks": 90080,
            "time": 96.61674033333334,
            "velocity": 0.7874015748031497
          },
          {
            "duration": 0.6071961666666539,
            "durationTicks": 560,
            "midi": 72,
            "name": "C5",
            "ticks": 90080,
            "time": 96.61674033333334,
            "velocity": 0.7874015748031497
          },
          {
            "duration": 0.6071961666666539,
            "durationTicks": 560,
            "midi": 60,
            "name": "C4",
            "ticks": 90080,
            "time": 96.61674033333334,
            "velocity": 0.7874015748031497
          },
          {
            "duration": 0.13043475000000626,
            "durationTicks": 120,
            "midi": 96,
            "name": "C7",
            "ticks": 90720,
            "time": 97.310893,
            "velocity": 0.7874015748031497
          },
          {
            "duration": 0.13043475000000626,
            "durationTicks": 120,
            "midi": 99,
            "name": "D#7",
            "ticks": 90720,
            "time": 97.310893,
            "velocity": 0.7874015748031497
          },
          {
            "duration": 0.13043475000000626,
            "durationTicks": 120,
            "midi": 84,
            "name": "C6",
            "ticks": 90720,
            "time": 97.310893,
            "velocity": 0.7874015748031497
          },
          {
            "duration": 0.13043475000000626,
            "durationTicks": 120,
            "midi": 87,
            "name": "D#6",
            "ticks": 90720,
            "time": 97.310893,
            "velocity": 0.7874015748031497
          },
          {
            "duration": 0.13043475000000626,
            "durationTicks": 120,
            "midi": 74,
            "name": "D5",
            "ticks": 90720,
            "time": 97.310893,
            "velocity": 0.7874015748031497
          },
          {
            "duration": 0.13043475000000626,
            "durationTicks": 120,
            "midi": 62,
            "name": "D4",
            "ticks": 90720,
            "time": 97.310893,
            "velocity": 0.7874015748031497
          },
          {
            "duration": 0.6086955000000103,
            "durationTicks": 560,
            "midi": 96,
            "name": "C7",
            "ticks": 91040,
            "time": 97.65871899999999,
            "velocity": 0.7874015748031497
          },
          {
            "duration": 0.6086955000000103,
            "durationTicks": 560,
            "midi": 99,
            "name": "D#7",
            "ticks": 91040,
            "time": 97.65871899999999,
            "velocity": 0.7874015748031497
          },
          {
            "duration": 0.6086955000000103,
            "durationTicks": 560,
            "midi": 84,
            "name": "C6",
            "ticks": 91040,
            "time": 97.65871899999999,
            "velocity": 0.7874015748031497
          },
          {
            "duration": 0.6086955000000103,
            "durationTicks": 560,
            "midi": 87,
            "name": "D#6",
            "ticks": 91040,
            "time": 97.65871899999999,
            "velocity": 0.7874015748031497
          },
          {
            "duration": 0.6086955000000103,
            "durationTicks": 560,
            "midi": 74,
            "name": "D5",
            "ticks": 91040,
            "time": 97.65871899999999,
            "velocity": 0.7874015748031497
          },
          {
            "duration": 0.6086955000000103,
            "durationTicks": 560,
            "midi": 62,
            "name": "D4",
            "ticks": 91040,
            "time": 97.65871899999999,
            "velocity": 0.7874015748031497
          },
          {
            "duration": 2.5732977187499984,
            "durationTicks": 2400,
            "midi": 105,
            "name": "A7",
            "ticks": 91665,
            "time": 98.33806665624999,
            "velocity": 0.7874015748031497
          },
          {
            "duration": 2.5732977187499984,
            "durationTicks": 2400,
            "midi": 93,
            "name": "A6",
            "ticks": 91665,
            "time": 98.33806665624999,
            "velocity": 0.7874015748031497
          },
          {
            "duration": 2.5732977187499984,
            "durationTicks": 2400,
            "midi": 69,
            "name": "A4",
            "ticks": 91665,
            "time": 98.33806665624999,
            "velocity": 0.7874015748031497
          },
          {
            "duration": 2.5732977187499984,
            "durationTicks": 2400,
            "midi": 81,
            "name": "A5",
            "ticks": 91665,
            "time": 98.33806665624999,
            "velocity": 0.7874015748031497
          },
          {
            "duration": 0.13043474999999205,
            "durationTicks": 120,
            "midi": 96,
            "name": "C7",
            "ticks": 91680,
            "time": 98.354371,
            "velocity": 0.7874015748031497
          },
          {
            "duration": 0.13043474999999205,
            "durationTicks": 120,
            "midi": 84,
            "name": "C6",
            "ticks": 91680,
            "time": 98.354371,
            "velocity": 0.7874015748031497
          },
          {
            "duration": 0.13043474999999205,
            "durationTicks": 120,
            "midi": 72,
            "name": "C5",
            "ticks": 91680,
            "time": 98.354371,
            "velocity": 0.7874015748031497
          },
          {
            "duration": 0.13043474999999205,
            "durationTicks": 120,
            "midi": 60,
            "name": "C4",
            "ticks": 91680,
            "time": 98.354371,
            "velocity": 0.7874015748031497
          },
          {
            "duration": 0.08695649999999944,
            "durationTicks": 80,
            "midi": 96,
            "name": "C7",
            "ticks": 92000,
            "time": 98.702197,
            "velocity": 0.7874015748031497
          },
          {
            "duration": 0.08695649999999944,
            "durationTicks": 80,
            "midi": 84,
            "name": "C6",
            "ticks": 92000,
            "time": 98.702197,
            "velocity": 0.7874015748031497
          },
          {
            "duration": 0.08695649999999944,
            "durationTicks": 80,
            "midi": 72,
            "name": "C5",
            "ticks": 92000,
            "time": 98.702197,
            "velocity": 0.7874015748031497
          },
          {
            "duration": 0.08695649999999944,
            "durationTicks": 80,
            "midi": 60,
            "name": "C4",
            "ticks": 92000,
            "time": 98.702197,
            "velocity": 0.7874015748031497
          },
          {
            "duration": 2.0515587187500017,
            "durationTicks": 1920,
            "midi": 67,
            "name": "G4",
            "ticks": 92145,
            "time": 98.85980565624999,
            "velocity": 0.7874015748031497
          },
          {
            "duration": 2.0515587187500017,
            "durationTicks": 1920,
            "midi": 103,
            "name": "G7",
            "ticks": 92145,
            "time": 98.85980565624999,
            "velocity": 0.7874015748031497
          },
          {
            "duration": 2.0515587187500017,
            "durationTicks": 1920,
            "midi": 91,
            "name": "G6",
            "ticks": 92145,
            "time": 98.85980565624999,
            "velocity": 0.7874015748031497
          },
          {
            "duration": 2.0515587187500017,
            "durationTicks": 1920,
            "midi": 79,
            "name": "G5",
            "ticks": 92145,
            "time": 98.85980565624999,
            "velocity": 0.7874015748031497
          },
          {
            "duration": 0.08547000000000082,
            "durationTicks": 80,
            "midi": 99,
            "name": "D#7",
            "ticks": 92160,
            "time": 98.87611,
            "velocity": 0.7874015748031497
          },
          {
            "duration": 0.08547000000000082,
            "durationTicks": 80,
            "midi": 96,
            "name": "C7",
            "ticks": 92160,
            "time": 98.87611,
            "velocity": 0.7874015748031497
          },
          {
            "duration": 0.08547000000000082,
            "durationTicks": 80,
            "midi": 87,
            "name": "D#6",
            "ticks": 92160,
            "time": 98.87611,
            "velocity": 0.7874015748031497
          },
          {
            "duration": 0.08547000000000082,
            "durationTicks": 80,
            "midi": 84,
            "name": "C6",
            "ticks": 92160,
            "time": 98.87611,
            "velocity": 0.7874015748031497
          },
          {
            "duration": 0.08547000000000082,
            "durationTicks": 80,
            "midi": 73,
            "name": "C#5",
            "ticks": 92160,
            "time": 98.87611,
            "velocity": 0.7874015748031497
          },
          {
            "duration": 0.08547000000000082,
            "durationTicks": 80,
            "midi": 60,
            "name": "C4",
            "ticks": 92160,
            "time": 98.87611,
            "velocity": 0.7874015748031497
          },
          {
            "duration": 0.08547000000000082,
            "durationTicks": 80,
            "midi": 97,
            "name": "C#7",
            "ticks": 92640,
            "time": 99.38893,
            "velocity": 0.7874015748031497
          },
          {
            "duration": 0.08547000000000082,
            "durationTicks": 80,
            "midi": 99,
            "name": "D#7",
            "ticks": 92640,
            "time": 99.38893,
            "velocity": 0.7874015748031497
          },
          {
            "duration": 0.08547000000000082,
            "durationTicks": 80,
            "midi": 85,
            "name": "C#6",
            "ticks": 92640,
            "time": 99.38893,
            "velocity": 0.7874015748031497
          },
          {
            "duration": 0.08547000000000082,
            "durationTicks": 80,
            "midi": 87,
            "name": "D#6",
            "ticks": 92640,
            "time": 99.38893,
            "velocity": 0.7874015748031497
          },
          {
            "duration": 0.08547000000000082,
            "durationTicks": 80,
            "midi": 74,
            "name": "D5",
            "ticks": 92640,
            "time": 99.38893,
            "velocity": 0.7874015748031497
          },
          {
            "duration": 0.08547000000000082,
            "durationTicks": 80,
            "midi": 73,
            "name": "C#5",
            "ticks": 92640,
            "time": 99.38893,
            "velocity": 0.7874015748031497
          },
          {
            "duration": 0.08547000000000082,
            "durationTicks": 80,
            "midi": 61,
            "name": "C#4",
            "ticks": 92640,
            "time": 99.38893,
            "velocity": 0.7874015748031497
          },
          {
            "duration": 0.08547000000000082,
            "durationTicks": 80,
            "midi": 98,
            "name": "D7",
            "ticks": 93120,
            "time": 99.90174999999999,
            "velocity": 0.7874015748031497
          },
          {
            "duration": 0.08547000000000082,
            "durationTicks": 80,
            "midi": 99,
            "name": "D#7",
            "ticks": 93120,
            "time": 99.90174999999999,
            "velocity": 0.7874015748031497
          },
          {
            "duration": 0.08547000000000082,
            "durationTicks": 80,
            "midi": 86,
            "name": "D6",
            "ticks": 93120,
            "time": 99.90174999999999,
            "velocity": 0.7874015748031497
          },
          {
            "duration": 0.08547000000000082,
            "durationTicks": 80,
            "midi": 87,
            "name": "D#6",
            "ticks": 93120,
            "time": 99.90174999999999,
            "velocity": 0.7874015748031497
          },
          {
            "duration": 0.08547000000000082,
            "durationTicks": 80,
            "midi": 75,
            "name": "D#5",
            "ticks": 93120,
            "time": 99.90174999999999,
            "velocity": 0.7874015748031497
          },
          {
            "duration": 0.08547000000000082,
            "durationTicks": 80,
            "midi": 74,
            "name": "D5",
            "ticks": 93120,
            "time": 99.90174999999999,
            "velocity": 0.7874015748031497
          },
          {
            "duration": 0.08547000000000082,
            "durationTicks": 80,
            "midi": 62,
            "name": "D4",
            "ticks": 93120,
            "time": 99.90174999999999,
            "velocity": 0.7874015748031497
          },
          {
            "duration": 0.5982900000000058,
            "durationTicks": 560,
            "midi": 100,
            "name": "E7",
            "ticks": 93440,
            "time": 100.24363,
            "velocity": 0.7874015748031497
          },
          {
            "duration": 0.5982900000000058,
            "durationTicks": 560,
            "midi": 99,
            "name": "D#7",
            "ticks": 93440,
            "time": 100.24363,
            "velocity": 0.7874015748031497
          },
          {
            "duration": 0.5982900000000058,
            "durationTicks": 560,
            "midi": 88,
            "name": "E6",
            "ticks": 93440,
            "time": 100.24363,
            "velocity": 0.7874015748031497
          },
          {
            "duration": 0.5982900000000058,
            "durationTicks": 560,
            "midi": 87,
            "name": "D#6",
            "ticks": 93440,
            "time": 100.24363,
            "velocity": 0.7874015748031497
          },
          {
            "duration": 0.5982900000000058,
            "durationTicks": 560,
            "midi": 75,
            "name": "D#5",
            "ticks": 93440,
            "time": 100.24363,
            "velocity": 0.7874015748031497
          },
          {
            "duration": 0.5982900000000058,
            "durationTicks": 560,
            "midi": 62,
            "name": "D4",
            "ticks": 93440,
            "time": 100.24363,
            "velocity": 0.7874015748031497
          },
          {
            "duration": 3.987963781250002,
            "durationTicks": 3600,
            "midi": 106,
            "name": "A#7",
            "ticks": 94065,
            "time": 100.91136437499999,
            "velocity": 0.7874015748031497
          },
          {
            "duration": 3.987963781250002,
            "durationTicks": 3600,
            "midi": 94,
            "name": "A#6",
            "ticks": 94065,
            "time": 100.91136437499999,
            "velocity": 0.7874015748031497
          },
          {
            "duration": 3.987963781250002,
            "durationTicks": 3600,
            "midi": 70,
            "name": "A#4",
            "ticks": 94065,
            "time": 100.91136437499999,
            "velocity": 0.7874015748031497
          },
          {
            "duration": 3.987963781250002,
            "durationTicks": 3600,
            "midi": 82,
            "name": "A#5",
            "ticks": 94065,
            "time": 100.91136437499999,
            "velocity": 0.7874015748031497
          },
          {
            "duration": 0.13513475000000597,
            "durationTicks": 120,
            "midi": 74,
            "name": "D5",
            "ticks": 94080,
            "time": 100.92739,
            "velocity": 0.7874015748031497
          },
          {
            "duration": 0.13513475000000597,
            "durationTicks": 120,
            "midi": 62,
            "name": "D4",
            "ticks": 94080,
            "time": 100.92739,
            "velocity": 0.7874015748031497
          },
          {
            "duration": 0.13513475000000597,
            "durationTicks": 120,
            "midi": 98,
            "name": "D7",
            "ticks": 94080,
            "time": 100.92739,
            "velocity": 0.7874015748031497
          },
          {
            "duration": 0.13513475000000597,
            "durationTicks": 120,
            "midi": 86,
            "name": "D6",
            "ticks": 94080,
            "time": 100.92739,
            "velocity": 0.7874015748031497
          },
          {
            "duration": 0.13513475000000597,
            "durationTicks": 120,
            "midi": 74,
            "name": "D5",
            "ticks": 94560,
            "time": 101.467929,
            "velocity": 0.7874015748031497
          },
          {
            "duration": 0.13513475000000597,
            "durationTicks": 120,
            "midi": 62,
            "name": "D4",
            "ticks": 94560,
            "time": 101.467929,
            "velocity": 0.7874015748031497
          },
          {
            "duration": 0.13513475000000597,
            "durationTicks": 120,
            "midi": 98,
            "name": "D7",
            "ticks": 94560,
            "time": 101.467929,
            "velocity": 0.7874015748031497
          },
          {
            "duration": 0.13513475000000597,
            "durationTicks": 120,
            "midi": 86,
            "name": "D6",
            "ticks": 94560,
            "time": 101.467929,
            "velocity": 0.7874015748031497
          },
          {
            "duration": 0.13513475000000597,
            "durationTicks": 120,
            "midi": 73,
            "name": "C#5",
            "ticks": 94880,
            "time": 101.82828833333333,
            "velocity": 0.7874015748031497
          },
          {
            "duration": 0.13513475000000597,
            "durationTicks": 120,
            "midi": 61,
            "name": "C#4",
            "ticks": 94880,
            "time": 101.82828833333333,
            "velocity": 0.7874015748031497
          },
          {
            "duration": 0.13513475000000597,
            "durationTicks": 120,
            "midi": 97,
            "name": "C#7",
            "ticks": 94880,
            "time": 101.82828833333333,
            "velocity": 0.7874015748031497
          },
          {
            "duration": 0.13513475000000597,
            "durationTicks": 120,
            "midi": 85,
            "name": "C#6",
            "ticks": 94880,
            "time": 101.82828833333333,
            "velocity": 0.7874015748031497
          },
          {
            "duration": 0.13513474999999175,
            "durationTicks": 120,
            "midi": 74,
            "name": "D5",
            "ticks": 95040,
            "time": 102.00846800000001,
            "velocity": 0.7874015748031497
          },
          {
            "duration": 0.13513474999999175,
            "durationTicks": 120,
            "midi": 62,
            "name": "D4",
            "ticks": 95040,
            "time": 102.00846800000001,
            "velocity": 0.7874015748031497
          },
          {
            "duration": 0.13513474999999175,
            "durationTicks": 120,
            "midi": 98,
            "name": "D7",
            "ticks": 95040,
            "time": 102.00846800000001,
            "velocity": 0.7874015748031497
          },
          {
            "duration": 0.13513474999999175,
            "durationTicks": 120,
            "midi": 86,
            "name": "D6",
            "ticks": 95040,
            "time": 102.00846800000001,
            "velocity": 0.7874015748031497
          },
          {
            "duration": 0.13513475000000597,
            "durationTicks": 120,
            "midi": 97,
            "name": "C#7",
            "ticks": 95200,
            "time": 102.18864766666667,
            "velocity": 0.7874015748031497
          },
          {
            "duration": 0.13513474999999175,
            "durationTicks": 120,
            "midi": 72,
            "name": "C5",
            "ticks": 95360,
            "time": 102.36882733333334,
            "velocity": 0.7874015748031497
          },
          {
            "duration": 0.13513474999999175,
            "durationTicks": 120,
            "midi": 60,
            "name": "C4",
            "ticks": 95360,
            "time": 102.36882733333334,
            "velocity": 0.7874015748031497
          },
          {
            "duration": 0.13513474999999175,
            "durationTicks": 120,
            "midi": 96,
            "name": "C7",
            "ticks": 95360,
            "time": 102.36882733333334,
            "velocity": 0.7874015748031497
          },
          {
            "duration": 0.13513474999999175,
            "durationTicks": 120,
            "midi": 84,
            "name": "C6",
            "ticks": 95360,
            "time": 102.36882733333334,
            "velocity": 0.7874015748031497
          },
          {
            "duration": 0.13513475000000597,
            "durationTicks": 120,
            "midi": 72,
            "name": "C5",
            "ticks": 95520,
            "time": 102.549007,
            "velocity": 0.7874015748031497
          },
          {
            "duration": 0.13513475000000597,
            "durationTicks": 120,
            "midi": 60,
            "name": "C4",
            "ticks": 95520,
            "time": 102.549007,
            "velocity": 0.7874015748031497
          },
          {
            "duration": 0.13513475000000597,
            "durationTicks": 120,
            "midi": 96,
            "name": "C7",
            "ticks": 95520,
            "time": 102.549007,
            "velocity": 0.7874015748031497
          },
          {
            "duration": 0.13513475000000597,
            "durationTicks": 120,
            "midi": 84,
            "name": "C6",
            "ticks": 95520,
            "time": 102.549007,
            "velocity": 0.7874015748031497
          },
          {
            "duration": 0.13043475000000626,
            "durationTicks": 120,
            "midi": 75,
            "name": "D#5",
            "ticks": 96000,
            "time": 103.089546,
            "velocity": 0.7874015748031497
          },
          {
            "duration": 0.13043475000000626,
            "durationTicks": 120,
            "midi": 62,
            "name": "D4",
            "ticks": 96000,
            "time": 103.089546,
            "velocity": 0.7874015748031497
          },
          {
            "duration": 0.13043475000000626,
            "durationTicks": 120,
            "midi": 88,
            "name": "E6",
            "ticks": 96000,
            "time": 103.089546,
            "velocity": 0.7874015748031497
          },
          {
            "duration": 0.13043475000000626,
            "durationTicks": 120,
            "midi": 100,
            "name": "E7",
            "ticks": 96000,
            "time": 103.089546,
            "velocity": 0.7874015748031497
          },
          {
            "duration": 0.13043475000000626,
            "durationTicks": 120,
            "midi": 75,
            "name": "D#5",
            "ticks": 96320,
            "time": 103.437372,
            "velocity": 0.7874015748031497
          },
          {
            "duration": 0.13043475000000626,
            "durationTicks": 120,
            "midi": 62,
            "name": "D4",
            "ticks": 96320,
            "time": 103.437372,
            "velocity": 0.7874015748031497
          },
          {
            "duration": 0.13043475000000626,
            "durationTicks": 120,
            "midi": 88,
            "name": "E6",
            "ticks": 96320,
            "time": 103.437372,
            "velocity": 0.7874015748031497
          },
          {
            "duration": 0.13043475000000626,
            "durationTicks": 120,
            "midi": 100,
            "name": "E7",
            "ticks": 96320,
            "time": 103.437372,
            "velocity": 0.7874015748031497
          },
          {
            "duration": 0.13043475000000626,
            "durationTicks": 120,
            "midi": 74,
            "name": "D5",
            "ticks": 96480,
            "time": 103.611285,
            "velocity": 0.7874015748031497
          },
          {
            "duration": 0.13043475000000626,
            "durationTicks": 120,
            "midi": 61,
            "name": "C#4",
            "ticks": 96480,
            "time": 103.611285,
            "velocity": 0.7874015748031497
          },
          {
            "duration": 0.13043475000000626,
            "durationTicks": 120,
            "midi": 86,
            "name": "D6",
            "ticks": 96480,
            "time": 103.611285,
            "velocity": 0.7874015748031497
          },
          {
            "duration": 0.13043475000000626,
            "durationTicks": 120,
            "midi": 98,
            "name": "D7",
            "ticks": 96480,
            "time": 103.611285,
            "velocity": 0.7874015748031497
          },
          {
            "duration": 0.13043475000000626,
            "durationTicks": 120,
            "midi": 87,
            "name": "D#6",
            "ticks": 96640,
            "time": 103.785198,
            "velocity": 0.7874015748031497
          },
          {
            "duration": 0.13043475000000626,
            "durationTicks": 120,
            "midi": 99,
            "name": "D#7",
            "ticks": 96640,
            "time": 103.785198,
            "velocity": 0.7874015748031497
          },
          {
            "duration": 0.13043475000000626,
            "durationTicks": 120,
            "midi": 61,
            "name": "C#4",
            "ticks": 96800,
            "time": 103.959111,
            "velocity": 0.7874015748031497
          },
          {
            "duration": 0.13043475000000626,
            "durationTicks": 120,
            "midi": 86,
            "name": "D6",
            "ticks": 96800,
            "time": 103.959111,
            "velocity": 0.7874015748031497
          },
          {
            "duration": 0.13043475000000626,
            "durationTicks": 120,
            "midi": 98,
            "name": "D7",
            "ticks": 96800,
            "time": 103.959111,
            "velocity": 0.7874015748031497
          },
          {
            "duration": 0.7826085000000091,
            "durationTicks": 720,
            "midi": 73,
            "name": "C#5",
            "ticks": 96960,
            "time": 104.13302399999999,
            "velocity": 0.7874015748031497
          },
          {
            "duration": 0.7826085000000091,
            "durationTicks": 720,
            "midi": 60,
            "name": "C4",
            "ticks": 96960,
            "time": 104.13302399999999,
            "velocity": 0.7874015748031497
          },
          {
            "duration": 0.7826085000000091,
            "durationTicks": 720,
            "midi": 85,
            "name": "C#6",
            "ticks": 96960,
            "time": 104.13302399999999,
            "velocity": 0.7874015748031497
          },
          {
            "duration": 0.7826085000000091,
            "durationTicks": 720,
            "midi": 97,
            "name": "C#7",
            "ticks": 96960,
            "time": 104.13302399999999,
            "velocity": 0.7874015748031497
          },
          {
            "duration": 19.736378156250026,
            "durationTicks": 18480,
            "midi": 105,
            "name": "A7",
            "ticks": 97665,
            "time": 104.89932815625,
            "velocity": 0.7874015748031497
          },
          {
            "duration": 19.736378156250026,
            "durationTicks": 18480,
            "midi": 93,
            "name": "A6",
            "ticks": 97665,
            "time": 104.89932815625,
            "velocity": 0.7874015748031497
          },
          {
            "duration": 19.736378156250026,
            "durationTicks": 18480,
            "midi": 69,
            "name": "A4",
            "ticks": 97665,
            "time": 104.89932815625,
            "velocity": 0.7874015748031497
          },
          {
            "duration": 19.736378156250026,
            "durationTicks": 18480,
            "midi": 81,
            "name": "A5",
            "ticks": 97665,
            "time": 104.89932815625,
            "velocity": 0.7874015748031497
          },
          {
            "duration": 0.13043474999999205,
            "durationTicks": 120,
            "midi": 72,
            "name": "C5",
            "ticks": 97760,
            "time": 105.002589,
            "velocity": 0.7874015748031497
          },
          {
            "duration": 0.13043474999999205,
            "durationTicks": 120,
            "midi": 60,
            "name": "C4",
            "ticks": 97760,
            "time": 105.002589,
            "velocity": 0.7874015748031497
          },
          {
            "duration": 0.13043474999999205,
            "durationTicks": 120,
            "midi": 84,
            "name": "C6",
            "ticks": 97760,
            "time": 105.002589,
            "velocity": 0.7874015748031497
          },
          {
            "duration": 0.13043474999999205,
            "durationTicks": 120,
            "midi": 96,
            "name": "C7",
            "ticks": 97760,
            "time": 105.002589,
            "velocity": 0.7874015748031497
          },
          {
            "duration": 0.12820499999999413,
            "durationTicks": 120,
            "midi": 74,
            "name": "D5",
            "ticks": 97920,
            "time": 105.176502,
            "velocity": 0.7874015748031497
          },
          {
            "duration": 0.12820499999999413,
            "durationTicks": 120,
            "midi": 62,
            "name": "D4",
            "ticks": 97920,
            "time": 105.176502,
            "velocity": 0.7874015748031497
          },
          {
            "duration": 0.12820499999999413,
            "durationTicks": 120,
            "midi": 98,
            "name": "D7",
            "ticks": 97920,
            "time": 105.176502,
            "velocity": 0.7874015748031497
          },
          {
            "duration": 0.12820499999999413,
            "durationTicks": 120,
            "midi": 86,
            "name": "D6",
            "ticks": 97920,
            "time": 105.176502,
            "velocity": 0.7874015748031497
          },
          {
            "duration": 0.12820499999999413,
            "durationTicks": 120,
            "midi": 74,
            "name": "D5",
            "ticks": 98400,
            "time": 105.689322,
            "velocity": 0.7874015748031497
          },
          {
            "duration": 0.12820499999999413,
            "durationTicks": 120,
            "midi": 62,
            "name": "D4",
            "ticks": 98400,
            "time": 105.689322,
            "velocity": 0.7874015748031497
          },
          {
            "duration": 0.12820499999999413,
            "durationTicks": 120,
            "midi": 98,
            "name": "D7",
            "ticks": 98400,
            "time": 105.689322,
            "velocity": 0.7874015748031497
          },
          {
            "duration": 0.12820499999999413,
            "durationTicks": 120,
            "midi": 86,
            "name": "D6",
            "ticks": 98400,
            "time": 105.689322,
            "velocity": 0.7874015748031497
          },
          {
            "duration": 0.12820500000000834,
            "durationTicks": 120,
            "midi": 97,
            "name": "C#7",
            "ticks": 98720,
            "time": 106.031202,
            "velocity": 0.7874015748031497
          },
          {
            "duration": 0.12820500000000834,
            "durationTicks": 120,
            "midi": 85,
            "name": "C#6",
            "ticks": 98720,
            "time": 106.031202,
            "velocity": 0.7874015748031497
          },
          {
            "duration": 0.12820500000000834,
            "durationTicks": 120,
            "midi": 74,
            "name": "D5",
            "ticks": 98880,
            "time": 106.202142,
            "velocity": 0.7874015748031497
          },
          {
            "duration": 0.12820500000000834,
            "durationTicks": 120,
            "midi": 62,
            "name": "D4",
            "ticks": 98880,
            "time": 106.202142,
            "velocity": 0.7874015748031497
          },
          {
            "duration": 0.12820500000000834,
            "durationTicks": 120,
            "midi": 98,
            "name": "D7",
            "ticks": 98880,
            "time": 106.202142,
            "velocity": 0.7874015748031497
          },
          {
            "duration": 0.12820500000000834,
            "durationTicks": 120,
            "midi": 86,
            "name": "D6",
            "ticks": 98880,
            "time": 106.202142,
            "velocity": 0.7874015748031497
          },
          {
            "duration": 0.12820500000000834,
            "durationTicks": 120,
            "midi": 97,
            "name": "C#7",
            "ticks": 99040,
            "time": 106.373082,
            "velocity": 0.7874015748031497
          },
          {
            "duration": 0.12820500000000834,
            "durationTicks": 120,
            "midi": 85,
            "name": "C#6",
            "ticks": 99040,
            "time": 106.373082,
            "velocity": 0.7874015748031497
          },
          {
            "duration": 0.5128200000000049,
            "durationTicks": 480,
            "midi": 72,
            "name": "C5",
            "ticks": 99200,
            "time": 106.544022,
            "velocity": 0.7874015748031497
          },
          {
            "duration": 0.5128200000000049,
            "durationTicks": 480,
            "midi": 61,
            "name": "C#4",
            "ticks": 99200,
            "time": 106.544022,
            "velocity": 0.7874015748031497
          },
          {
            "duration": 0.5128200000000049,
            "durationTicks": 480,
            "midi": 96,
            "name": "C7",
            "ticks": 99200,
            "time": 106.544022,
            "velocity": 0.7874015748031497
          },
          {
            "duration": 0.5128200000000049,
            "durationTicks": 480,
            "midi": 84,
            "name": "C6",
            "ticks": 99200,
            "time": 106.544022,
            "velocity": 0.7874015748031497
          },
          {
            "duration": 0.12604975000000707,
            "durationTicks": 120,
            "midi": 75,
            "name": "D#5",
            "ticks": 99840,
            "time": 107.227782,
            "velocity": 0.7874015748031497
          },
          {
            "duration": 0.12604975000000707,
            "durationTicks": 120,
            "midi": 62,
            "name": "D4",
            "ticks": 99840,
            "time": 107.227782,
            "velocity": 0.7874015748031497
          },
          {
            "duration": 0.12604975000000707,
            "durationTicks": 120,
            "midi": 99,
            "name": "D#7",
            "ticks": 99840,
            "time": 107.227782,
            "velocity": 0.7874015748031497
          },
          {
            "duration": 0.12604975000000707,
            "durationTicks": 120,
            "midi": 87,
            "name": "D#6",
            "ticks": 99840,
            "time": 107.227782,
            "velocity": 0.7874015748031497
          },
          {
            "duration": 0.12604974999999286,
            "durationTicks": 120,
            "midi": 75,
            "name": "D#5",
            "ticks": 100160,
            "time": 107.56391466666668,
            "velocity": 0.7874015748031497
          },
          {
            "duration": 0.12604974999999286,
            "durationTicks": 120,
            "midi": 62,
            "name": "D4",
            "ticks": 100160,
            "time": 107.56391466666668,
            "velocity": 0.7874015748031497
          },
          {
            "duration": 0.12604974999999286,
            "durationTicks": 120,
            "midi": 99,
            "name": "D#7",
            "ticks": 100160,
            "time": 107.56391466666668,
            "velocity": 0.7874015748031497
          },
          {
            "duration": 0.12604974999999286,
            "durationTicks": 120,
            "midi": 87,
            "name": "D#6",
            "ticks": 100160,
            "time": 107.56391466666668,
            "velocity": 0.7874015748031497
          },
          {
            "duration": 0.12604975000000707,
            "durationTicks": 120,
            "midi": 60,
            "name": "C4",
            "ticks": 100320,
            "time": 107.731981,
            "velocity": 0.7874015748031497
          },
          {
            "duration": 0.12604975000000707,
            "durationTicks": 120,
            "midi": 96,
            "name": "C7",
            "ticks": 100320,
            "time": 107.731981,
            "velocity": 0.7874015748031497
          },
          {
            "duration": 0.12604975000000707,
            "durationTicks": 120,
            "midi": 84,
            "name": "C6",
            "ticks": 100320,
            "time": 107.731981,
            "velocity": 0.7874015748031497
          },
          {
            "duration": 0.12604975000000707,
            "durationTicks": 120,
            "midi": 72,
            "name": "C5",
            "ticks": 100320,
            "time": 107.731981,
            "velocity": 0.7874015748031497
          },
          {
            "duration": 14.673642479166674,
            "durationTicks": 13760,
            "midi": 106,
            "name": "A#7",
            "ticks": 100465,
            "time": 107.88429111458333,
            "velocity": 0.7874015748031497
          },
          {
            "duration": 14.673642479166674,
            "durationTicks": 13760,
            "midi": 94,
            "name": "A#6",
            "ticks": 100465,
            "time": 107.88429111458333,
            "velocity": 0.7874015748031497
          },
          {
            "duration": 14.673642479166674,
            "durationTicks": 13760,
            "midi": 70,
            "name": "A#4",
            "ticks": 100465,
            "time": 107.88429111458333,
            "velocity": 0.7874015748031497
          },
          {
            "duration": 14.673642479166674,
            "durationTicks": 13760,
            "midi": 82,
            "name": "A#5",
            "ticks": 100465,
            "time": 107.88429111458333,
            "velocity": 0.7874015748031497
          },
          {
            "duration": 0.12604975000000707,
            "durationTicks": 120,
            "midi": 97,
            "name": "C#7",
            "ticks": 100480,
            "time": 107.90004733333333,
            "velocity": 0.7874015748031497
          },
          {
            "duration": 0.12604975000000707,
            "durationTicks": 120,
            "midi": 85,
            "name": "C#6",
            "ticks": 100480,
            "time": 107.90004733333333,
            "velocity": 0.7874015748031497
          },
          {
            "duration": 0.12604974999999286,
            "durationTicks": 120,
            "midi": 96,
            "name": "C7",
            "ticks": 100640,
            "time": 108.06811366666668,
            "velocity": 0.7874015748031497
          },
          {
            "duration": 0.12604974999999286,
            "durationTicks": 120,
            "midi": 84,
            "name": "C6",
            "ticks": 100640,
            "time": 108.06811366666668,
            "velocity": 0.7874015748031497
          },
          {
            "duration": 0.12604975000000707,
            "durationTicks": 120,
            "midi": 60,
            "name": "C4",
            "ticks": 100800,
            "time": 108.23618,
            "velocity": 0.7874015748031497
          },
          {
            "duration": 0.12604975000000707,
            "durationTicks": 120,
            "midi": 98,
            "name": "D7",
            "ticks": 100800,
            "time": 108.23618,
            "velocity": 0.7874015748031497
          },
          {
            "duration": 0.12604975000000707,
            "durationTicks": 120,
            "midi": 86,
            "name": "D6",
            "ticks": 100800,
            "time": 108.23618,
            "velocity": 0.7874015748031497
          },
          {
            "duration": 0.12604975000000707,
            "durationTicks": 120,
            "midi": 73,
            "name": "C#5",
            "ticks": 100800,
            "time": 108.23618,
            "velocity": 0.7874015748031497
          },
          {
            "duration": 0.12604975000000707,
            "durationTicks": 120,
            "midi": 97,
            "name": "C#7",
            "ticks": 100960,
            "time": 108.40424633333333,
            "velocity": 0.7874015748031497
          },
          {
            "duration": 0.12604975000000707,
            "durationTicks": 120,
            "midi": 85,
            "name": "C#6",
            "ticks": 100960,
            "time": 108.40424633333333,
            "velocity": 0.7874015748031497
          },
          {
            "duration": 0.12604974999999286,
            "durationTicks": 120,
            "midi": 61,
            "name": "C#4",
            "ticks": 101120,
            "time": 108.57231266666668,
            "velocity": 0.7874015748031497
          },
          {
            "duration": 0.12604974999999286,
            "durationTicks": 120,
            "midi": 99,
            "name": "D#7",
            "ticks": 101120,
            "time": 108.57231266666668,
            "velocity": 0.7874015748031497
          },
          {
            "duration": 0.12604974999999286,
            "durationTicks": 120,
            "midi": 87,
            "name": "D#6",
            "ticks": 101120,
            "time": 108.57231266666668,
            "velocity": 0.7874015748031497
          },
          {
            "duration": 0.12604974999999286,
            "durationTicks": 120,
            "midi": 74,
            "name": "D5",
            "ticks": 101120,
            "time": 108.57231266666668,
            "velocity": 0.7874015748031497
          },
          {
            "duration": 0.12604975000000707,
            "durationTicks": 120,
            "midi": 98,
            "name": "D7",
            "ticks": 101280,
            "time": 108.740379,
            "velocity": 0.7874015748031497
          },
          {
            "duration": 0.12604975000000707,
            "durationTicks": 120,
            "midi": 86,
            "name": "D6",
            "ticks": 101280,
            "time": 108.740379,
            "velocity": 0.7874015748031497
          },
          {
            "duration": 0.12604975000000707,
            "durationTicks": 120,
            "midi": 62,
            "name": "D4",
            "ticks": 101440,
            "time": 108.90844533333333,
            "velocity": 0.7874015748031497
          },
          {
            "duration": 0.12604975000000707,
            "durationTicks": 120,
            "midi": 100,
            "name": "E7",
            "ticks": 101440,
            "time": 108.90844533333333,
            "velocity": 0.7874015748031497
          },
          {
            "duration": 0.12604975000000707,
            "durationTicks": 120,
            "midi": 88,
            "name": "E6",
            "ticks": 101440,
            "time": 108.90844533333333,
            "velocity": 0.7874015748031497
          },
          {
            "duration": 0.12604975000000707,
            "durationTicks": 120,
            "midi": 75,
            "name": "D#5",
            "ticks": 101440,
            "time": 108.90844533333333,
            "velocity": 0.7874015748031497
          },
          {
            "duration": 0.12604974999999286,
            "durationTicks": 120,
            "midi": 99,
            "name": "D#7",
            "ticks": 101600,
            "time": 109.07651166666668,
            "velocity": 0.7874015748031497
          },
          {
            "duration": 0.12604974999999286,
            "durationTicks": 120,
            "midi": 87,
            "name": "D#6",
            "ticks": 101600,
            "time": 109.07651166666668,
            "velocity": 0.7874015748031497
          },
          {
            "duration": 1.866612937499994,
            "durationTicks": 1740,
            "midi": 103,
            "name": "G7",
            "ticks": 101745,
            "time": 109.22882178125,
            "velocity": 0.7874015748031497
          },
          {
            "duration": 1.866612937499994,
            "durationTicks": 1740,
            "midi": 91,
            "name": "G6",
            "ticks": 101745,
            "time": 109.22882178125,
            "velocity": 0.7874015748031497
          },
          {
            "duration": 1.9953681875000058,
            "durationTicks": 1860,
            "midi": 67,
            "name": "G4",
            "ticks": 101745,
            "time": 109.22882178125,
            "velocity": 0.7874015748031497
          },
          {
            "duration": 1.9953681875000058,
            "durationTicks": 1860,
            "midi": 79,
            "name": "G5",
            "ticks": 101745,
            "time": 109.22882178125,
            "velocity": 0.7874015748031497
          },
          {
            "duration": 0.3433473333333268,
            "durationTicks": 320,
            "midi": 100,
            "name": "E7",
            "ticks": 101760,
            "time": 109.244578,
            "velocity": 0.7874015748031497
          },
          {
            "duration": 0.9442051666666629,
            "durationTicks": 880,
            "midi": 75,
            "name": "D#5",
            "ticks": 101760,
            "time": 109.244578,
            "velocity": 0.7874015748031497
          },
          {
            "duration": 0.8583683333333312,
            "durationTicks": 800,
            "midi": 62,
            "name": "D4",
            "ticks": 101760,
            "time": 109.244578,
            "velocity": 0.7874015748031497
          },
          {
            "duration": 0.3433473333333268,
            "durationTicks": 320,
            "midi": 88,
            "name": "E6",
            "ticks": 101760,
            "time": 109.244578,
            "velocity": 0.7874015748031497
          },
          {
            "duration": 0.08583683333334591,
            "durationTicks": 80,
            "midi": 97,
            "name": "C#7",
            "ticks": 102080,
            "time": 109.58792533333333,
            "velocity": 0.7874015748031497
          },
          {
            "duration": 0.08583683333334591,
            "durationTicks": 80,
            "midi": 86,
            "name": "D6",
            "ticks": 102080,
            "time": 109.58792533333333,
            "velocity": 0.7874015748031497
          },
          {
            "duration": 0.0858368333333317,
            "durationTicks": 80,
            "midi": 96,
            "name": "C7",
            "ticks": 102400,
            "time": 109.93127266666667,
            "velocity": 0.7874015748031497
          },
          {
            "duration": 0.0858368333333317,
            "durationTicks": 80,
            "midi": 85,
            "name": "C#6",
            "ticks": 102400,
            "time": 109.93127266666667,
            "velocity": 0.7874015748031497
          },
          {
            "duration": 0.343347333333341,
            "durationTicks": 320,
            "midi": 99,
            "name": "D#7",
            "ticks": 102720,
            "time": 110.27462,
            "velocity": 0.7874015748031497
          },
          {
            "duration": 0.9442051666666771,
            "durationTicks": 880,
            "midi": 74,
            "name": "D5",
            "ticks": 102720,
            "time": 110.27462,
            "velocity": 0.7874015748031497
          },
          {
            "duration": 0.8583683333333454,
            "durationTicks": 800,
            "midi": 61,
            "name": "C#4",
            "ticks": 102720,
            "time": 110.27462,
            "velocity": 0.7874015748031497
          },
          {
            "duration": 0.343347333333341,
            "durationTicks": 320,
            "midi": 87,
            "name": "D#6",
            "ticks": 102720,
            "time": 110.27462,
            "velocity": 0.7874015748031497
          },
          {
            "duration": 0.0858368333333317,
            "durationTicks": 80,
            "midi": 97,
            "name": "C#7",
            "ticks": 103040,
            "time": 110.61796733333334,
            "velocity": 0.7874015748031497
          },
          {
            "duration": 0.0858368333333317,
            "durationTicks": 80,
            "midi": 86,
            "name": "D6",
            "ticks": 103040,
            "time": 110.61796733333334,
            "velocity": 0.7874015748031497
          },
          {
            "duration": 0.0858368333333317,
            "durationTicks": 80,
            "midi": 96,
            "name": "C7",
            "ticks": 103360,
            "time": 110.96131466666667,
            "velocity": 0.7874015748031497
          },
          {
            "duration": 0.0858368333333317,
            "durationTicks": 80,
            "midi": 85,
            "name": "C#6",
            "ticks": 103360,
            "time": 110.96131466666667,
            "velocity": 0.7874015748031497
          },
          {
            "duration": 0.5150209999999902,
            "durationTicks": 480,
            "midi": 73,
            "name": "C#5",
            "ticks": 103680,
            "time": 111.30466200000001,
            "velocity": 0.7874015748031497
          },
          {
            "duration": 0.38626574999999264,
            "durationTicks": 360,
            "midi": 60,
            "name": "C4",
            "ticks": 103680,
            "time": 111.30466200000001,
            "velocity": 0.7874015748031497
          },
          {
            "duration": 0.3433473333333268,
            "durationTicks": 320,
            "midi": 86,
            "name": "D6",
            "ticks": 103680,
            "time": 111.30466200000001,
            "velocity": 0.7874015748031497
          },
          {
            "duration": 0.3433473333333268,
            "durationTicks": 320,
            "midi": 98,
            "name": "D7",
            "ticks": 103680,
            "time": 111.30466200000001,
            "velocity": 0.7874015748031497
          },
          {
            "duration": 0.0858368333333317,
            "durationTicks": 80,
            "midi": 96,
            "name": "C7",
            "ticks": 104000,
            "time": 111.64800933333333,
            "velocity": 0.7874015748031497
          },
          {
            "duration": 0.0858368333333317,
            "durationTicks": 80,
            "midi": 84,
            "name": "C6",
            "ticks": 104000,
            "time": 111.64800933333333,
            "velocity": 0.7874015748031497
          },
          {
            "duration": 0.12875525000001176,
            "durationTicks": 120,
            "midi": 74,
            "name": "D5",
            "ticks": 104160,
            "time": 111.819683,
            "velocity": 0.7874015748031497
          },
          {
            "duration": 0.12875525000001176,
            "durationTicks": 120,
            "midi": 61,
            "name": "C#4",
            "ticks": 104160,
            "time": 111.819683,
            "velocity": 0.7874015748031497
          },
          {
            "duration": 0.12875525000001176,
            "durationTicks": 120,
            "midi": 98,
            "name": "D7",
            "ticks": 104160,
            "time": 111.819683,
            "velocity": 0.7874015748031497
          },
          {
            "duration": 0.12875525000001176,
            "durationTicks": 120,
            "midi": 86,
            "name": "D6",
            "ticks": 104160,
            "time": 111.819683,
            "velocity": 0.7874015748031497
          },
          {
            "duration": 0.12875524999999755,
            "durationTicks": 120,
            "midi": 75,
            "name": "D#5",
            "ticks": 104480,
            "time": 112.16303033333334,
            "velocity": 0.7874015748031497
          },
          {
            "duration": 0.12875524999999755,
            "durationTicks": 120,
            "midi": 87,
            "name": "D#6",
            "ticks": 104480,
            "time": 112.16303033333334,
            "velocity": 0.7874015748031497
          },
          {
            "duration": 0.12875524999999755,
            "durationTicks": 120,
            "midi": 99,
            "name": "D#7",
            "ticks": 104480,
            "time": 112.16303033333334,
            "velocity": 0.7874015748031497
          },
          {
            "duration": 0.12875524999999755,
            "durationTicks": 120,
            "midi": 75,
            "name": "D#5",
            "ticks": 104640,
            "time": 112.334704,
            "velocity": 0.7874015748031497
          },
          {
            "duration": 0.12875524999999755,
            "durationTicks": 120,
            "midi": 62,
            "name": "D4",
            "ticks": 104640,
            "time": 112.334704,
            "velocity": 0.7874015748031497
          },
          {
            "duration": 0.12875524999999755,
            "durationTicks": 120,
            "midi": 88,
            "name": "E6",
            "ticks": 104640,
            "time": 112.334704,
            "velocity": 0.7874015748031497
          },
          {
            "duration": 0.12875524999999755,
            "durationTicks": 120,
            "midi": 100,
            "name": "E7",
            "ticks": 104640,
            "time": 112.334704,
            "velocity": 0.7874015748031497
          },
          {
            "duration": 0.12875524999999755,
            "durationTicks": 120,
            "midi": 75,
            "name": "D#5",
            "ticks": 104960,
            "time": 112.67805133333334,
            "velocity": 0.7874015748031497
          },
          {
            "duration": 0.12875524999999755,
            "durationTicks": 120,
            "midi": 88,
            "name": "E6",
            "ticks": 104960,
            "time": 112.67805133333334,
            "velocity": 0.7874015748031497
          },
          {
            "duration": 0.12875524999999755,
            "durationTicks": 120,
            "midi": 100,
            "name": "E7",
            "ticks": 104960,
            "time": 112.67805133333334,
            "velocity": 0.7874015748031497
          },
          {
            "duration": 0.12875524999999755,
            "durationTicks": 120,
            "midi": 62,
            "name": "D4",
            "ticks": 104960,
            "time": 112.67805133333334,
            "velocity": 0.7874015748031497
          },
          {
            "duration": 0.12875524999999755,
            "durationTicks": 120,
            "midi": 87,
            "name": "D#6",
            "ticks": 105120,
            "time": 112.849725,
            "velocity": 0.7874015748031497
          },
          {
            "duration": 0.12875524999999755,
            "durationTicks": 120,
            "midi": 99,
            "name": "D#7",
            "ticks": 105120,
            "time": 112.849725,
            "velocity": 0.7874015748031497
          },
          {
            "duration": 0.0858368333333317,
            "durationTicks": 80,
            "midi": 98,
            "name": "D7",
            "ticks": 105440,
            "time": 113.19307233333333,
            "velocity": 0.7874015748031497
          },
          {
            "duration": 0.0858368333333317,
            "durationTicks": 80,
            "midi": 86,
            "name": "D6",
            "ticks": 105440,
            "time": 113.19307233333333,
            "velocity": 0.7874015748031497
          },
          {
            "duration": 0.12875524999999755,
            "durationTicks": 120,
            "midi": 61,
            "name": "C#4",
            "ticks": 105440,
            "time": 113.19307233333333,
            "velocity": 0.7874015748031497
          },
          {
            "duration": 0.08583683333334591,
            "durationTicks": 80,
            "midi": 73,
            "name": "C#5",
            "ticks": 105600,
            "time": 113.364746,
            "velocity": 0.7874015748031497
          },
          {
            "duration": 0.08583683333334591,
            "durationTicks": 80,
            "midi": 60,
            "name": "C4",
            "ticks": 105600,
            "time": 113.364746,
            "velocity": 0.7874015748031497
          },
          {
            "duration": 0.08583683333334591,
            "durationTicks": 80,
            "midi": 85,
            "name": "C#6",
            "ticks": 105600,
            "time": 113.364746,
            "velocity": 0.7874015748031497
          },
          {
            "duration": 0.08583683333334591,
            "durationTicks": 80,
            "midi": 97,
            "name": "C#7",
            "ticks": 105600,
            "time": 113.364746,
            "velocity": 0.7874015748031497
          },
          {
            "duration": 0.0858368333333317,
            "durationTicks": 80,
            "midi": 74,
            "name": "D5",
            "ticks": 106080,
            "time": 113.879767,
            "velocity": 0.7874015748031497
          },
          {
            "duration": 0.0858368333333317,
            "durationTicks": 80,
            "midi": 62,
            "name": "D4",
            "ticks": 106080,
            "time": 113.879767,
            "velocity": 0.7874015748031497
          },
          {
            "duration": 0.0858368333333317,
            "durationTicks": 80,
            "midi": 87,
            "name": "D#6",
            "ticks": 106080,
            "time": 113.879767,
            "velocity": 0.7874015748031497
          },
          {
            "duration": 0.0858368333333317,
            "durationTicks": 80,
            "midi": 99,
            "name": "D#7",
            "ticks": 106080,
            "time": 113.879767,
            "velocity": 0.7874015748031497
          },
          {
            "duration": 0.12875524999999755,
            "durationTicks": 120,
            "midi": 73,
            "name": "C#5",
            "ticks": 106400,
            "time": 114.22311433333334,
            "velocity": 0.7874015748031497
          },
          {
            "duration": 0.12875524999999755,
            "durationTicks": 120,
            "midi": 61,
            "name": "C#4",
            "ticks": 106400,
            "time": 114.22311433333334,
            "velocity": 0.7874015748031497
          },
          {
            "duration": 0.12875524999999755,
            "durationTicks": 120,
            "midi": 86,
            "name": "D6",
            "ticks": 106400,
            "time": 114.22311433333334,
            "velocity": 0.7874015748031497
          },
          {
            "duration": 0.12875524999999755,
            "durationTicks": 120,
            "midi": 98,
            "name": "D7",
            "ticks": 106400,
            "time": 114.22311433333334,
            "velocity": 0.7874015748031497
          },
          {
            "duration": 0.12875524999999755,
            "durationTicks": 120,
            "midi": 72,
            "name": "C5",
            "ticks": 106560,
            "time": 114.394788,
            "velocity": 0.7874015748031497
          },
          {
            "duration": 0.12875524999999755,
            "durationTicks": 120,
            "midi": 60,
            "name": "C4",
            "ticks": 106560,
            "time": 114.394788,
            "velocity": 0.7874015748031497
          },
          {
            "duration": 0.12875524999999755,
            "durationTicks": 120,
            "midi": 85,
            "name": "C#6",
            "ticks": 106560,
            "time": 114.394788,
            "velocity": 0.7874015748031497
          },
          {
            "duration": 0.12875524999999755,
            "durationTicks": 120,
            "midi": 97,
            "name": "C#7",
            "ticks": 106560,
            "time": 114.394788,
            "velocity": 0.7874015748031497
          },
          {
            "duration": 0.12875525000001176,
            "durationTicks": 120,
            "midi": 85,
            "name": "C#6",
            "ticks": 106880,
            "time": 114.73813533333333,
            "velocity": 0.7874015748031497
          },
          {
            "duration": 0.12875525000001176,
            "durationTicks": 120,
            "midi": 97,
            "name": "C#7",
            "ticks": 106880,
            "time": 114.73813533333333,
            "velocity": 0.7874015748031497
          },
          {
            "duration": 0.12875524999999755,
            "durationTicks": 120,
            "midi": 72,
            "name": "C5",
            "ticks": 107040,
            "time": 114.90980900000001,
            "velocity": 0.7874015748031497
          },
          {
            "duration": 0.12875524999999755,
            "durationTicks": 120,
            "midi": 60,
            "name": "C4",
            "ticks": 107040,
            "time": 114.90980900000001,
            "velocity": 0.7874015748031497
          },
          {
            "duration": 0.12875524999999755,
            "durationTicks": 120,
            "midi": 85,
            "name": "C#6",
            "ticks": 107040,
            "time": 114.90980900000001,
            "velocity": 0.7874015748031497
          },
          {
            "duration": 0.12875524999999755,
            "durationTicks": 120,
            "midi": 97,
            "name": "C#7",
            "ticks": 107040,
            "time": 114.90980900000001,
            "velocity": 0.7874015748031497
          },
          {
            "duration": 0.12875524999999755,
            "durationTicks": 120,
            "midi": 73,
            "name": "C#5",
            "ticks": 107360,
            "time": 115.25315633333334,
            "velocity": 0.7874015748031497
          },
          {
            "duration": 0.12875524999999755,
            "durationTicks": 120,
            "midi": 61,
            "name": "C#4",
            "ticks": 107360,
            "time": 115.25315633333334,
            "velocity": 0.7874015748031497
          },
          {
            "duration": 0.12875524999999755,
            "durationTicks": 120,
            "midi": 86,
            "name": "D6",
            "ticks": 107360,
            "time": 115.25315633333334,
            "velocity": 0.7874015748031497
          },
          {
            "duration": 0.12875524999999755,
            "durationTicks": 120,
            "midi": 98,
            "name": "D7",
            "ticks": 107360,
            "time": 115.25315633333334,
            "velocity": 0.7874015748031497
          },
          {
            "duration": 0.12765874999999482,
            "durationTicks": 120,
            "midi": 74,
            "name": "D5",
            "ticks": 107520,
            "time": 115.42483,
            "velocity": 0.7874015748031497
          },
          {
            "duration": 0.12765874999999482,
            "durationTicks": 120,
            "midi": 62,
            "name": "D4",
            "ticks": 107520,
            "time": 115.42483,
            "velocity": 0.7874015748031497
          },
          {
            "duration": 0.12765874999999482,
            "durationTicks": 120,
            "midi": 85,
            "name": "C#6",
            "ticks": 107520,
            "time": 115.42483,
            "velocity": 0.7874015748031497
          },
          {
            "duration": 0.12765874999999482,
            "durationTicks": 120,
            "midi": 87,
            "name": "D#6",
            "ticks": 107520,
            "time": 115.42483,
            "velocity": 0.7874015748031497
          },
          {
            "duration": 0.12765874999999482,
            "durationTicks": 120,
            "midi": 97,
            "name": "C#7",
            "ticks": 107520,
            "time": 115.42483,
            "velocity": 0.7874015748031497
          },
          {
            "duration": 0.12765874999999482,
            "durationTicks": 120,
            "midi": 99,
            "name": "D#7",
            "ticks": 107520,
            "time": 115.42483,
            "velocity": 0.7874015748031497
          },
          {
            "duration": 0.12765875000000904,
            "durationTicks": 120,
            "midi": 74,
            "name": "D5",
            "ticks": 108000,
            "time": 115.935465,
            "velocity": 0.7874015748031497
          },
          {
            "duration": 0.12765875000000904,
            "durationTicks": 120,
            "midi": 62,
            "name": "D4",
            "ticks": 108000,
            "time": 115.935465,
            "velocity": 0.7874015748031497
          },
          {
            "duration": 0.12765875000000904,
            "durationTicks": 120,
            "midi": 85,
            "name": "C#6",
            "ticks": 108000,
            "time": 115.935465,
            "velocity": 0.7874015748031497
          },
          {
            "duration": 0.12765875000000904,
            "durationTicks": 120,
            "midi": 87,
            "name": "D#6",
            "ticks": 108000,
            "time": 115.935465,
            "velocity": 0.7874015748031497
          },
          {
            "duration": 0.12765875000000904,
            "durationTicks": 120,
            "midi": 97,
            "name": "C#7",
            "ticks": 108000,
            "time": 115.935465,
            "velocity": 0.7874015748031497
          },
          {
            "duration": 0.12765875000000904,
            "durationTicks": 120,
            "midi": 99,
            "name": "D#7",
            "ticks": 108000,
            "time": 115.935465,
            "velocity": 0.7874015748031497
          },
          {
            "duration": 1.40424625,
            "durationTicks": 1320,
            "midi": 73,
            "name": "C#5",
            "ticks": 108320,
            "time": 116.27588833333333,
            "velocity": 0.7874015748031497
          },
          {
            "duration": 1.40424625,
            "durationTicks": 1320,
            "midi": 74,
            "name": "D5",
            "ticks": 108320,
            "time": 116.27588833333333,
            "velocity": 0.7874015748031497
          },
          {
            "duration": 1.40424625,
            "durationTicks": 1320,
            "midi": 61,
            "name": "C#4",
            "ticks": 108320,
            "time": 116.27588833333333,
            "velocity": 0.7874015748031497
          },
          {
            "duration": 1.40424625,
            "durationTicks": 1320,
            "midi": 62,
            "name": "D4",
            "ticks": 108320,
            "time": 116.27588833333333,
            "velocity": 0.7874015748031497
          },
          {
            "duration": 1.40424625,
            "durationTicks": 1320,
            "midi": 85,
            "name": "C#6",
            "ticks": 108320,
            "time": 116.27588833333333,
            "velocity": 0.7874015748031497
          },
          {
            "duration": 1.40424625,
            "durationTicks": 1320,
            "midi": 86,
            "name": "D6",
            "ticks": 108320,
            "time": 116.27588833333333,
            "velocity": 0.7874015748031497
          },
          {
            "duration": 1.40424625,
            "durationTicks": 1320,
            "midi": 97,
            "name": "C#7",
            "ticks": 108320,
            "time": 116.27588833333333,
            "velocity": 0.7874015748031497
          },
          {
            "duration": 1.40424625,
            "durationTicks": 1320,
            "midi": 98,
            "name": "D7",
            "ticks": 108320,
            "time": 116.27588833333333,
            "velocity": 0.7874015748031497
          },
          {
            "duration": 0.12765875000000904,
            "durationTicks": 120,
            "midi": 73,
            "name": "C#5",
            "ticks": 110240,
            "time": 118.31842833333333,
            "velocity": 0.7874015748031497
          },
          {
            "duration": 0.12765875000000904,
            "durationTicks": 120,
            "midi": 74,
            "name": "D5",
            "ticks": 110240,
            "time": 118.31842833333333,
            "velocity": 0.7874015748031497
          },
          {
            "duration": 0.12765875000000904,
            "durationTicks": 120,
            "midi": 61,
            "name": "C#4",
            "ticks": 110240,
            "time": 118.31842833333333,
            "velocity": 0.7874015748031497
          },
          {
            "duration": 0.12765875000000904,
            "durationTicks": 120,
            "midi": 85,
            "name": "C#6",
            "ticks": 110240,
            "time": 118.31842833333333,
            "velocity": 0.7874015748031497
          },
          {
            "duration": 0.12765875000000904,
            "durationTicks": 120,
            "midi": 86,
            "name": "D6",
            "ticks": 110240,
            "time": 118.31842833333333,
            "velocity": 0.7874015748031497
          },
          {
            "duration": 0.12765875000000904,
            "durationTicks": 120,
            "midi": 97,
            "name": "C#7",
            "ticks": 110240,
            "time": 118.31842833333333,
            "velocity": 0.7874015748031497
          },
          {
            "duration": 0.12765875000000904,
            "durationTicks": 120,
            "midi": 99,
            "name": "D#7",
            "ticks": 110240,
            "time": 118.31842833333333,
            "velocity": 0.7874015748031497
          },
          {
            "duration": 0.12658150000000035,
            "durationTicks": 120,
            "midi": 74,
            "name": "D5",
            "ticks": 110720,
            "time": 118.82619066666668,
            "velocity": 0.7874015748031497
          },
          {
            "duration": 0.12658150000000035,
            "durationTicks": 120,
            "midi": 62,
            "name": "D4",
            "ticks": 110720,
            "time": 118.82619066666668,
            "velocity": 0.7874015748031497
          },
          {
            "duration": 0.12658150000000035,
            "durationTicks": 120,
            "midi": 85,
            "name": "C#6",
            "ticks": 110720,
            "time": 118.82619066666668,
            "velocity": 0.7874015748031497
          },
          {
            "duration": 0.12658150000000035,
            "durationTicks": 120,
            "midi": 87,
            "name": "D#6",
            "ticks": 110720,
            "time": 118.82619066666668,
            "velocity": 0.7874015748031497
          },
          {
            "duration": 0.12658150000000035,
            "durationTicks": 120,
            "midi": 97,
            "name": "C#7",
            "ticks": 110720,
            "time": 118.82619066666668,
            "velocity": 0.7874015748031497
          },
          {
            "duration": 0.12658150000000035,
            "durationTicks": 120,
            "midi": 100,
            "name": "E7",
            "ticks": 110720,
            "time": 118.82619066666668,
            "velocity": 0.7874015748031497
          },
          {
            "duration": 0.12658150000000035,
            "durationTicks": 120,
            "midi": 73,
            "name": "C#5",
            "ticks": 110880,
            "time": 118.994966,
            "velocity": 0.7874015748031497
          },
          {
            "duration": 0.12658150000000035,
            "durationTicks": 120,
            "midi": 74,
            "name": "D5",
            "ticks": 110880,
            "time": 118.994966,
            "velocity": 0.7874015748031497
          },
          {
            "duration": 0.12658150000000035,
            "durationTicks": 120,
            "midi": 61,
            "name": "C#4",
            "ticks": 110880,
            "time": 118.994966,
            "velocity": 0.7874015748031497
          },
          {
            "duration": 0.12658150000000035,
            "durationTicks": 120,
            "midi": 85,
            "name": "C#6",
            "ticks": 110880,
            "time": 118.994966,
            "velocity": 0.7874015748031497
          },
          {
            "duration": 0.12658150000000035,
            "durationTicks": 120,
            "midi": 86,
            "name": "D6",
            "ticks": 110880,
            "time": 118.994966,
            "velocity": 0.7874015748031497
          },
          {
            "duration": 0.12658150000000035,
            "durationTicks": 120,
            "midi": 97,
            "name": "C#7",
            "ticks": 110880,
            "time": 118.994966,
            "velocity": 0.7874015748031497
          },
          {
            "duration": 0.12658150000000035,
            "durationTicks": 120,
            "midi": 99,
            "name": "D#7",
            "ticks": 110880,
            "time": 118.994966,
            "velocity": 0.7874015748031497
          },
          {
            "duration": 0.12658150000000035,
            "durationTicks": 120,
            "midi": 73,
            "name": "C#5",
            "ticks": 111360,
            "time": 119.501292,
            "velocity": 0.7874015748031497
          },
          {
            "duration": 0.12658150000000035,
            "durationTicks": 120,
            "midi": 74,
            "name": "D5",
            "ticks": 111360,
            "time": 119.501292,
            "velocity": 0.7874015748031497
          },
          {
            "duration": 0.12658150000000035,
            "durationTicks": 120,
            "midi": 61,
            "name": "C#4",
            "ticks": 111360,
            "time": 119.501292,
            "velocity": 0.7874015748031497
          },
          {
            "duration": 0.12658150000000035,
            "durationTicks": 120,
            "midi": 85,
            "name": "C#6",
            "ticks": 111360,
            "time": 119.501292,
            "velocity": 0.7874015748031497
          },
          {
            "duration": 0.12658150000000035,
            "durationTicks": 120,
            "midi": 86,
            "name": "D6",
            "ticks": 111360,
            "time": 119.501292,
            "velocity": 0.7874015748031497
          },
          {
            "duration": 0.12658150000000035,
            "durationTicks": 120,
            "midi": 97,
            "name": "C#7",
            "ticks": 111360,
            "time": 119.501292,
            "velocity": 0.7874015748031497
          },
          {
            "duration": 0.12658150000000035,
            "durationTicks": 120,
            "midi": 99,
            "name": "D#7",
            "ticks": 111360,
            "time": 119.501292,
            "velocity": 0.7874015748031497
          },
          {
            "duration": 2.566138281250005,
            "durationTicks": 2400,
            "midi": 103,
            "name": "G7",
            "ticks": 111825,
            "time": 119.9917953125,
            "velocity": 0.7874015748031497
          },
          {
            "duration": 2.566138281250005,
            "durationTicks": 2400,
            "midi": 91,
            "name": "G6",
            "ticks": 111825,
            "time": 119.9917953125,
            "velocity": 0.7874015748031497
          },
          {
            "duration": 2.566138281250005,
            "durationTicks": 2400,
            "midi": 67,
            "name": "G4",
            "ticks": 111825,
            "time": 119.9917953125,
            "velocity": 0.7874015748031497
          },
          {
            "duration": 2.566138281250005,
            "durationTicks": 2400,
            "midi": 79,
            "name": "G5",
            "ticks": 111825,
            "time": 119.9917953125,
            "velocity": 0.7874015748031497
          },
          {
            "duration": 0.12658150000000035,
            "durationTicks": 120,
            "midi": 74,
            "name": "D5",
            "ticks": 111840,
            "time": 120.00761800000001,
            "velocity": 0.7874015748031497
          },
          {
            "duration": 0.12658150000000035,
            "durationTicks": 120,
            "midi": 61,
            "name": "C#4",
            "ticks": 111840,
            "time": 120.00761800000001,
            "velocity": 0.7874015748031497
          },
          {
            "duration": 0.12658150000000035,
            "durationTicks": 120,
            "midi": 62,
            "name": "D4",
            "ticks": 111840,
            "time": 120.00761800000001,
            "velocity": 0.7874015748031497
          },
          {
            "duration": 0.12658150000000035,
            "durationTicks": 120,
            "midi": 86,
            "name": "D6",
            "ticks": 111840,
            "time": 120.00761800000001,
            "velocity": 0.7874015748031497
          },
          {
            "duration": 0.12658150000000035,
            "durationTicks": 120,
            "midi": 87,
            "name": "D#6",
            "ticks": 111840,
            "time": 120.00761800000001,
            "velocity": 0.7874015748031497
          },
          {
            "duration": 0.12658150000000035,
            "durationTicks": 120,
            "midi": 98,
            "name": "D7",
            "ticks": 111840,
            "time": 120.00761800000001,
            "velocity": 0.7874015748031497
          },
          {
            "duration": 0.12658150000000035,
            "durationTicks": 120,
            "midi": 100,
            "name": "E7",
            "ticks": 111840,
            "time": 120.00761800000001,
            "velocity": 0.7874015748031497
          },
          {
            "duration": 2.143022500000015,
            "durationTicks": 2000,
            "midi": 75,
            "name": "D#5",
            "ticks": 112160,
            "time": 120.34516866666667,
            "velocity": 0.7874015748031497
          },
          {
            "duration": 2.143022500000015,
            "durationTicks": 2000,
            "midi": 62,
            "name": "D4",
            "ticks": 112160,
            "time": 120.34516866666667,
            "velocity": 0.7874015748031497
          },
          {
            "duration": 2.143022500000015,
            "durationTicks": 2000,
            "midi": 87,
            "name": "D#6",
            "ticks": 112160,
            "time": 120.34516866666667,
            "velocity": 0.7874015748031497
          },
          {
            "duration": 2.143022500000015,
            "durationTicks": 2000,
            "midi": 88,
            "name": "E6",
            "ticks": 112160,
            "time": 120.34516866666667,
            "velocity": 0.7874015748031497
          },
          {
            "duration": 2.143022500000015,
            "durationTicks": 2000,
            "midi": 99,
            "name": "D#7",
            "ticks": 112160,
            "time": 120.34516866666667,
            "velocity": 0.7874015748031497
          },
          {
            "duration": 2.143022500000015,
            "durationTicks": 2000,
            "midi": 100,
            "name": "E7",
            "ticks": 112160,
            "time": 120.34516866666667,
            "velocity": 0.7874015748031497
          },
          {
            "duration": 0.0858368333333317,
            "durationTicks": 80,
            "midi": 108,
            "name": "C8",
            "ticks": 113760,
            "time": 122.05900700000001,
            "velocity": 0.7874015748031497
          },
          {
            "duration": 0.0858368333333317,
            "durationTicks": 80,
            "midi": 108,
            "name": "C8",
            "ticks": 113920,
            "time": 122.23068066666667,
            "velocity": 0.7874015748031497
          },
          {
            "duration": 0.0858368333333317,
            "durationTicks": 80,
            "midi": 108,
            "name": "C8",
            "ticks": 114080,
            "time": 122.40235433333335,
            "velocity": 0.7874015748031497
          },
          {
            "duration": 0.12986949999999808,
            "durationTicks": 120,
            "midi": 72,
            "name": "C5",
            "ticks": 114240,
            "time": 122.57402800000001,
            "velocity": 0.7874015748031497
          },
          {
            "duration": 0.12986949999999808,
            "durationTicks": 120,
            "midi": 60,
            "name": "C4",
            "ticks": 114240,
            "time": 122.57402800000001,
            "velocity": 0.7874015748031497
          },
          {
            "duration": 0.12986949999999808,
            "durationTicks": 120,
            "midi": 84,
            "name": "C6",
            "ticks": 114240,
            "time": 122.57402800000001,
            "velocity": 0.7874015748031497
          },
          {
            "duration": 0.12986949999999808,
            "durationTicks": 120,
            "midi": 96,
            "name": "C7",
            "ticks": 114240,
            "time": 122.57402800000001,
            "velocity": 0.7874015748031497
          },
          {
            "duration": 0.34631866666666156,
            "durationTicks": 320,
            "midi": 108,
            "name": "C8",
            "ticks": 114240,
            "time": 122.57402800000001,
            "velocity": 0.7874015748031497
          },
          {
            "duration": 0.12986949999999808,
            "durationTicks": 120,
            "midi": 74,
            "name": "D5",
            "ticks": 114720,
            "time": 123.09350600000002,
            "velocity": 0.7874015748031497
          },
          {
            "duration": 0.12986949999999808,
            "durationTicks": 120,
            "midi": 62,
            "name": "D4",
            "ticks": 114720,
            "time": 123.09350600000002,
            "velocity": 0.7874015748031497
          },
          {
            "duration": 0.12986949999999808,
            "durationTicks": 120,
            "midi": 87,
            "name": "D#6",
            "ticks": 114720,
            "time": 123.09350600000002,
            "velocity": 0.7874015748031497
          },
          {
            "duration": 0.12986949999999808,
            "durationTicks": 120,
            "midi": 85,
            "name": "C#6",
            "ticks": 114720,
            "time": 123.09350600000002,
            "velocity": 0.7874015748031497
          },
          {
            "duration": 0.12986949999999808,
            "durationTicks": 120,
            "midi": 99,
            "name": "D#7",
            "ticks": 114720,
            "time": 123.09350600000002,
            "velocity": 0.7874015748031497
          },
          {
            "duration": 0.12986949999999808,
            "durationTicks": 120,
            "midi": 97,
            "name": "C#7",
            "ticks": 114720,
            "time": 123.09350600000002,
            "velocity": 0.7874015748031497
          },
          {
            "duration": 0.17315933333333078,
            "durationTicks": 160,
            "midi": 108,
            "name": "C8",
            "ticks": 114720,
            "time": 123.09350600000002,
            "velocity": 0.7874015748031497
          },
          {
            "duration": 0.17315933333333078,
            "durationTicks": 160,
            "midi": 108,
            "name": "C8",
            "ticks": 114960,
            "time": 123.35324500000002,
            "velocity": 0.7874015748031497
          },
          {
            "duration": 0.12986949999999808,
            "durationTicks": 120,
            "midi": 73,
            "name": "C#5",
            "ticks": 115200,
            "time": 123.61298400000001,
            "velocity": 0.7874015748031497
          },
          {
            "duration": 0.12986949999999808,
            "durationTicks": 120,
            "midi": 61,
            "name": "C#4",
            "ticks": 115200,
            "time": 123.61298400000001,
            "velocity": 0.7874015748031497
          },
          {
            "duration": 0.12986949999999808,
            "durationTicks": 120,
            "midi": 85,
            "name": "C#6",
            "ticks": 115200,
            "time": 123.61298400000001,
            "velocity": 0.7874015748031497
          },
          {
            "duration": 0.12986949999999808,
            "durationTicks": 120,
            "midi": 97,
            "name": "C#7",
            "ticks": 115200,
            "time": 123.61298400000001,
            "velocity": 0.7874015748031497
          },
          {
            "duration": 0.08657966666666539,
            "durationTicks": 80,
            "midi": 108,
            "name": "C8",
            "ticks": 115200,
            "time": 123.61298400000001,
            "velocity": 0.7874015748031497
          },
          {
            "duration": 0.08657966666666539,
            "durationTicks": 80,
            "midi": 108,
            "name": "C8",
            "ticks": 115360,
            "time": 123.78614333333334,
            "velocity": 0.7874015748031497
          },
          {
            "duration": 0.43289833333334116,
            "durationTicks": 400,
            "midi": 108,
            "name": "C8",
            "ticks": 115520,
            "time": 123.95930266666667,
            "velocity": 0.7874015748031497
          },
          {
            "duration": 2.5797012812499958,
            "durationTicks": 2400,
            "midi": 106,
            "name": "A#7",
            "ticks": 115665,
            "time": 124.11622831250001,
            "velocity": 0.7874015748031497
          },
          {
            "duration": 2.5797012812499958,
            "durationTicks": 2400,
            "midi": 94,
            "name": "A#6",
            "ticks": 115665,
            "time": 124.11622831250001,
            "velocity": 0.7874015748031497
          },
          {
            "duration": 2.5797012812499958,
            "durationTicks": 2400,
            "midi": 70,
            "name": "A#4",
            "ticks": 115665,
            "time": 124.11622831250001,
            "velocity": 0.7874015748031497
          },
          {
            "duration": 2.5797012812499958,
            "durationTicks": 2400,
            "midi": 82,
            "name": "A#5",
            "ticks": 115665,
            "time": 124.11622831250001,
            "velocity": 0.7874015748031497
          },
          {
            "duration": 0.12986949999999808,
            "durationTicks": 120,
            "midi": 75,
            "name": "D#5",
            "ticks": 115680,
            "time": 124.13246200000002,
            "velocity": 0.7874015748031497
          },
          {
            "duration": 0.12986949999999808,
            "durationTicks": 120,
            "midi": 62,
            "name": "D4",
            "ticks": 115680,
            "time": 124.13246200000002,
            "velocity": 0.7874015748031497
          },
          {
            "duration": 0.12986949999999808,
            "durationTicks": 120,
            "midi": 61,
            "name": "C#4",
            "ticks": 115680,
            "time": 124.13246200000002,
            "velocity": 0.7874015748031497
          },
          {
            "duration": 0.12986949999999808,
            "durationTicks": 120,
            "midi": 86,
            "name": "D6",
            "ticks": 115680,
            "time": 124.13246200000002,
            "velocity": 0.7874015748031497
          },
          {
            "duration": 0.12986949999999808,
            "durationTicks": 120,
            "midi": 87,
            "name": "D#6",
            "ticks": 115680,
            "time": 124.13246200000002,
            "velocity": 0.7874015748031497
          },
          {
            "duration": 0.12986949999999808,
            "durationTicks": 120,
            "midi": 98,
            "name": "D7",
            "ticks": 115680,
            "time": 124.13246200000002,
            "velocity": 0.7874015748031497
          },
          {
            "duration": 0.12986949999999808,
            "durationTicks": 120,
            "midi": 99,
            "name": "D#7",
            "ticks": 115680,
            "time": 124.13246200000002,
            "velocity": 0.7874015748031497
          },
          {
            "duration": 0.12986949999999808,
            "durationTicks": 120,
            "midi": 86,
            "name": "D6",
            "ticks": 115800,
            "time": 124.26233150000002,
            "velocity": 0.7874015748031497
          },
          {
            "duration": 0.12986949999999808,
            "durationTicks": 120,
            "midi": 98,
            "name": "D7",
            "ticks": 115800,
            "time": 124.26233150000002,
            "velocity": 0.7874015748031497
          },
          {
            "duration": 0.12986949999999808,
            "durationTicks": 120,
            "midi": 85,
            "name": "C#6",
            "ticks": 115920,
            "time": 124.39220100000001,
            "velocity": 0.7874015748031497
          },
          {
            "duration": 0.12986949999999808,
            "durationTicks": 120,
            "midi": 97,
            "name": "C#7",
            "ticks": 115920,
            "time": 124.39220100000001,
            "velocity": 0.7874015748031497
          },
          {
            "duration": 0.12875524999999755,
            "durationTicks": 120,
            "midi": 72,
            "name": "C5",
            "ticks": 116160,
            "time": 124.65194000000001,
            "velocity": 0.7874015748031497
          },
          {
            "duration": 0.12875524999999755,
            "durationTicks": 120,
            "midi": 60,
            "name": "C4",
            "ticks": 116160,
            "time": 124.65194000000001,
            "velocity": 0.7874015748031497
          },
          {
            "duration": 0.12875524999999755,
            "durationTicks": 120,
            "midi": 84,
            "name": "C6",
            "ticks": 116160,
            "time": 124.65194000000001,
            "velocity": 0.7874015748031497
          },
          {
            "duration": 0.12875524999999755,
            "durationTicks": 120,
            "midi": 96,
            "name": "C7",
            "ticks": 116160,
            "time": 124.65194000000001,
            "velocity": 0.7874015748031497
          },
          {
            "duration": 0.2575104999999951,
            "durationTicks": 240,
            "midi": 108,
            "name": "C8",
            "ticks": 116160,
            "time": 124.65194000000001,
            "velocity": 0.7874015748031497
          },
          {
            "duration": 0.08583683333334591,
            "durationTicks": 80,
            "midi": 108,
            "name": "C8",
            "ticks": 116480,
            "time": 124.99528733333334,
            "velocity": 0.7874015748031497
          },
          {
            "duration": 0.12875524999999755,
            "durationTicks": 120,
            "midi": 74,
            "name": "D5",
            "ticks": 116640,
            "time": 125.16696100000001,
            "velocity": 0.7874015748031497
          },
          {
            "duration": 0.12875524999999755,
            "durationTicks": 120,
            "midi": 62,
            "name": "D4",
            "ticks": 116640,
            "time": 125.16696100000001,
            "velocity": 0.7874015748031497
          },
          {
            "duration": 0.12875524999999755,
            "durationTicks": 120,
            "midi": 87,
            "name": "D#6",
            "ticks": 116640,
            "time": 125.16696100000001,
            "velocity": 0.7874015748031497
          },
          {
            "duration": 0.12875524999999755,
            "durationTicks": 120,
            "midi": 85,
            "name": "C#6",
            "ticks": 116640,
            "time": 125.16696100000001,
            "velocity": 0.7874015748031497
          },
          {
            "duration": 0.12875524999999755,
            "durationTicks": 120,
            "midi": 99,
            "name": "D#7",
            "ticks": 116640,
            "time": 125.16696100000001,
            "velocity": 0.7874015748031497
          },
          {
            "duration": 0.12875524999999755,
            "durationTicks": 120,
            "midi": 97,
            "name": "C#7",
            "ticks": 116640,
            "time": 125.16696100000001,
            "velocity": 0.7874015748031497
          },
          {
            "duration": 0.1716736666666634,
            "durationTicks": 160,
            "midi": 108,
            "name": "C8",
            "ticks": 116640,
            "time": 125.16696100000001,
            "velocity": 0.7874015748031497
          },
          {
            "duration": 0.0858368333333317,
            "durationTicks": 80,
            "midi": 108,
            "name": "C8",
            "ticks": 116960,
            "time": 125.51030833333334,
            "velocity": 0.7874015748031497
          },
          {
            "duration": 0.12875525000001176,
            "durationTicks": 120,
            "midi": 73,
            "name": "C#5",
            "ticks": 117120,
            "time": 125.681982,
            "velocity": 0.7874015748031497
          },
          {
            "duration": 0.12875525000001176,
            "durationTicks": 120,
            "midi": 61,
            "name": "C#4",
            "ticks": 117120,
            "time": 125.681982,
            "velocity": 0.7874015748031497
          },
          {
            "duration": 0.12875525000001176,
            "durationTicks": 120,
            "midi": 85,
            "name": "C#6",
            "ticks": 117120,
            "time": 125.681982,
            "velocity": 0.7874015748031497
          },
          {
            "duration": 0.12875525000001176,
            "durationTicks": 120,
            "midi": 97,
            "name": "C#7",
            "ticks": 117120,
            "time": 125.681982,
            "velocity": 0.7874015748031497
          },
          {
            "duration": 0.0858368333333317,
            "durationTicks": 80,
            "midi": 108,
            "name": "C8",
            "ticks": 117120,
            "time": 125.681982,
            "velocity": 0.7874015748031497
          },
          {
            "duration": 0.0858368333333317,
            "durationTicks": 80,
            "midi": 108,
            "name": "C8",
            "ticks": 117280,
            "time": 125.85365566666668,
            "velocity": 0.7874015748031497
          },
          {
            "duration": 0.1716736666666634,
            "durationTicks": 160,
            "midi": 108,
            "name": "C8",
            "ticks": 117440,
            "time": 126.02532933333335,
            "velocity": 0.7874015748031497
          },
          {
            "duration": 0.12875524999999755,
            "durationTicks": 120,
            "midi": 74,
            "name": "D5",
            "ticks": 117600,
            "time": 126.19700300000001,
            "velocity": 0.7874015748031497
          },
          {
            "duration": 0.12875524999999755,
            "durationTicks": 120,
            "midi": 62,
            "name": "D4",
            "ticks": 117600,
            "time": 126.19700300000001,
            "velocity": 0.7874015748031497
          },
          {
            "duration": 0.12875524999999755,
            "durationTicks": 120,
            "midi": 86,
            "name": "D6",
            "ticks": 117600,
            "time": 126.19700300000001,
            "velocity": 0.7874015748031497
          },
          {
            "duration": 0.12875524999999755,
            "durationTicks": 120,
            "midi": 87,
            "name": "D#6",
            "ticks": 117600,
            "time": 126.19700300000001,
            "velocity": 0.7874015748031497
          },
          {
            "duration": 0.12875524999999755,
            "durationTicks": 120,
            "midi": 98,
            "name": "D7",
            "ticks": 117600,
            "time": 126.19700300000001,
            "velocity": 0.7874015748031497
          },
          {
            "duration": 0.12875524999999755,
            "durationTicks": 120,
            "midi": 99,
            "name": "D#7",
            "ticks": 117600,
            "time": 126.19700300000001,
            "velocity": 0.7874015748031497
          },
          {
            "duration": 0.0858368333333317,
            "durationTicks": 80,
            "midi": 108,
            "name": "C8",
            "ticks": 117920,
            "time": 126.54035033333335,
            "velocity": 0.7874015748031497
          },
          {
            "duration": 2.0255757187500194,
            "durationTicks": 1920,
            "midi": 105,
            "name": "A7",
            "ticks": 118065,
            "time": 126.69592959375001,
            "velocity": 0.7874015748031497
          },
          {
            "duration": 2.0255757187500194,
            "durationTicks": 1920,
            "midi": 93,
            "name": "A6",
            "ticks": 118065,
            "time": 126.69592959375001,
            "velocity": 0.7874015748031497
          },
          {
            "duration": 2.0255757187500194,
            "durationTicks": 1920,
            "midi": 69,
            "name": "A4",
            "ticks": 118065,
            "time": 126.69592959375001,
            "velocity": 0.7874015748031497
          },
          {
            "duration": 2.0255757187500194,
            "durationTicks": 1920,
            "midi": 81,
            "name": "A5",
            "ticks": 118065,
            "time": 126.69592959375001,
            "velocity": 0.7874015748031497
          },
          {
            "duration": 0.12658150000000035,
            "durationTicks": 120,
            "midi": 73,
            "name": "C#5",
            "ticks": 118080,
            "time": 126.71202400000001,
            "velocity": 0.7874015748031497
          },
          {
            "duration": 0.12658150000000035,
            "durationTicks": 120,
            "midi": 60,
            "name": "C4",
            "ticks": 118080,
            "time": 126.71202400000001,
            "velocity": 0.7874015748031497
          },
          {
            "duration": 0.12658150000000035,
            "durationTicks": 120,
            "midi": 85,
            "name": "C#6",
            "ticks": 118080,
            "time": 126.71202400000001,
            "velocity": 0.7874015748031497
          },
          {
            "duration": 0.12658150000000035,
            "durationTicks": 120,
            "midi": 97,
            "name": "C#7",
            "ticks": 118080,
            "time": 126.71202400000001,
            "velocity": 0.7874015748031497
          },
          {
            "duration": 0.08438766666667163,
            "durationTicks": 80,
            "midi": 108,
            "name": "C8",
            "ticks": 118080,
            "time": 126.71202400000001,
            "velocity": 0.7874015748031497
          },
          {
            "duration": 0.08438766666667163,
            "durationTicks": 80,
            "midi": 108,
            "name": "C8",
            "ticks": 118240,
            "time": 126.88079933333334,
            "velocity": 0.7874015748031497
          },
          {
            "duration": 0.16877533333332906,
            "durationTicks": 160,
            "midi": 108,
            "name": "C8",
            "ticks": 118400,
            "time": 127.04957466666669,
            "velocity": 0.7874015748031497
          },
          {
            "duration": 0.12658150000000035,
            "durationTicks": 120,
            "midi": 86,
            "name": "D6",
            "ticks": 118440,
            "time": 127.09176850000001,
            "velocity": 0.7874015748031497
          },
          {
            "duration": 0.12658150000000035,
            "durationTicks": 120,
            "midi": 98,
            "name": "D7",
            "ticks": 118440,
            "time": 127.09176850000001,
            "velocity": 0.7874015748031497
          },
          {
            "duration": 0.12658150000000035,
            "durationTicks": 120,
            "midi": 75,
            "name": "D#5",
            "ticks": 118560,
            "time": 127.21835000000002,
            "velocity": 0.7874015748031497
          },
          {
            "duration": 0.12658150000000035,
            "durationTicks": 120,
            "midi": 62,
            "name": "D4",
            "ticks": 118560,
            "time": 127.21835000000002,
            "velocity": 0.7874015748031497
          },
          {
            "duration": 0.12658150000000035,
            "durationTicks": 120,
            "midi": 88,
            "name": "E6",
            "ticks": 118560,
            "time": 127.21835000000002,
            "velocity": 0.7874015748031497
          },
          {
            "duration": 0.12658150000000035,
            "durationTicks": 120,
            "midi": 86,
            "name": "D6",
            "ticks": 118560,
            "time": 127.21835000000002,
            "velocity": 0.7874015748031497
          },
          {
            "duration": 0.12658150000000035,
            "durationTicks": 120,
            "midi": 100,
            "name": "E7",
            "ticks": 118560,
            "time": 127.21835000000002,
            "velocity": 0.7874015748031497
          },
          {
            "duration": 0.12658150000000035,
            "durationTicks": 120,
            "midi": 98,
            "name": "D7",
            "ticks": 118560,
            "time": 127.21835000000002,
            "velocity": 0.7874015748031497
          },
          {
            "duration": 0.08438766666667163,
            "durationTicks": 80,
            "midi": 108,
            "name": "C8",
            "ticks": 118720,
            "time": 127.38712533333334,
            "velocity": 0.7874015748031497
          },
          {
            "duration": 0.08438766666665742,
            "durationTicks": 80,
            "midi": 108,
            "name": "C8",
            "ticks": 118880,
            "time": 127.55590066666669,
            "velocity": 0.7874015748031497
          },
          {
            "duration": 0.12658150000000035,
            "durationTicks": 120,
            "midi": 74,
            "name": "D5",
            "ticks": 119040,
            "time": 127.72467600000002,
            "velocity": 0.7874015748031497
          },
          {
            "duration": 0.12658150000000035,
            "durationTicks": 120,
            "midi": 61,
            "name": "C#4",
            "ticks": 119040,
            "time": 127.72467600000002,
            "velocity": 0.7874015748031497
          },
          {
            "duration": 0.12658150000000035,
            "durationTicks": 120,
            "midi": 86,
            "name": "D6",
            "ticks": 119040,
            "time": 127.72467600000002,
            "velocity": 0.7874015748031497
          },
          {
            "duration": 0.12658150000000035,
            "durationTicks": 120,
            "midi": 98,
            "name": "D7",
            "ticks": 119040,
            "time": 127.72467600000002,
            "velocity": 0.7874015748031497
          },
          {
            "duration": 0.08438766666665742,
            "durationTicks": 80,
            "midi": 108,
            "name": "C8",
            "ticks": 119040,
            "time": 127.72467600000002,
            "velocity": 0.7874015748031497
          },
          {
            "duration": 0.08438766666667163,
            "durationTicks": 80,
            "midi": 108,
            "name": "C8",
            "ticks": 119200,
            "time": 127.89345133333335,
            "velocity": 0.7874015748031497
          },
          {
            "duration": 0.08438766666665742,
            "durationTicks": 80,
            "midi": 108,
            "name": "C8",
            "ticks": 119359,
            "time": 128.06117182083335,
            "velocity": 0.7874015748031497
          },
          {
            "duration": 0.12658149999998614,
            "durationTicks": 120,
            "midi": 75,
            "name": "D#5",
            "ticks": 119520,
            "time": 128.23100200000002,
            "velocity": 0.7874015748031497
          },
          {
            "duration": 0.12658149999998614,
            "durationTicks": 120,
            "midi": 62,
            "name": "D4",
            "ticks": 119520,
            "time": 128.23100200000002,
            "velocity": 0.7874015748031497
          },
          {
            "duration": 0.12658149999998614,
            "durationTicks": 120,
            "midi": 87,
            "name": "D#6",
            "ticks": 119520,
            "time": 128.23100200000002,
            "velocity": 0.7874015748031497
          },
          {
            "duration": 0.12658149999998614,
            "durationTicks": 120,
            "midi": 88,
            "name": "E6",
            "ticks": 119520,
            "time": 128.23100200000002,
            "velocity": 0.7874015748031497
          },
          {
            "duration": 0.12658149999998614,
            "durationTicks": 120,
            "midi": 99,
            "name": "D#7",
            "ticks": 119520,
            "time": 128.23100200000002,
            "velocity": 0.7874015748031497
          },
          {
            "duration": 0.12658149999998614,
            "durationTicks": 120,
            "midi": 100,
            "name": "E7",
            "ticks": 119520,
            "time": 128.23100200000002,
            "velocity": 0.7874015748031497
          },
          {
            "duration": 0.33649582083333485,
            "durationTicks": 319,
            "midi": 108,
            "name": "C8",
            "ticks": 119520,
            "time": 128.23100200000002,
            "velocity": 0.7874015748031497
          },
          {
            "duration": 2.025303999999977,
            "durationTicks": 1920,
            "midi": 106,
            "name": "A#7",
            "ticks": 119985,
            "time": 128.72150531250003,
            "velocity": 0.7874015748031497
          },
          {
            "duration": 2.025303999999977,
            "durationTicks": 1920,
            "midi": 94,
            "name": "A#6",
            "ticks": 119985,
            "time": 128.72150531250003,
            "velocity": 0.7874015748031497
          },
          {
            "duration": 2.025303999999977,
            "durationTicks": 1920,
            "midi": 70,
            "name": "A#4",
            "ticks": 119985,
            "time": 128.72150531250003,
            "velocity": 0.7874015748031497
          },
          {
            "duration": 2.025303999999977,
            "durationTicks": 1920,
            "midi": 82,
            "name": "A#5",
            "ticks": 119985,
            "time": 128.72150531250003,
            "velocity": 0.7874015748031497
          },
          {
            "duration": 0.12658149999998614,
            "durationTicks": 120,
            "midi": 73,
            "name": "C#5",
            "ticks": 120000,
            "time": 128.73732800000002,
            "velocity": 0.7874015748031497
          },
          {
            "duration": 0.12658149999998614,
            "durationTicks": 120,
            "midi": 60,
            "name": "C4",
            "ticks": 120000,
            "time": 128.73732800000002,
            "velocity": 0.7874015748031497
          },
          {
            "duration": 0.12658149999998614,
            "durationTicks": 120,
            "midi": 85,
            "name": "C#6",
            "ticks": 120000,
            "time": 128.73732800000002,
            "velocity": 0.7874015748031497
          },
          {
            "duration": 0.12658149999998614,
            "durationTicks": 120,
            "midi": 97,
            "name": "C#7",
            "ticks": 120000,
            "time": 128.73732800000002,
            "velocity": 0.7874015748031497
          },
          {
            "duration": 0.1666656416666683,
            "durationTicks": 158,
            "midi": 108,
            "name": "C8",
            "ticks": 120000,
            "time": 128.73732800000002,
            "velocity": 0.7874015748031497
          },
          {
            "duration": 0.08438766666665742,
            "durationTicks": 80,
            "midi": 108,
            "name": "C8",
            "ticks": 120319,
            "time": 129.07382382083335,
            "velocity": 0.7874015748031497
          },
          {
            "duration": 0.12658149999998614,
            "durationTicks": 120,
            "midi": 75,
            "name": "D#5",
            "ticks": 120480,
            "time": 129.24365400000002,
            "velocity": 0.7874015748031497
          },
          {
            "duration": 0.12658149999998614,
            "durationTicks": 120,
            "midi": 62,
            "name": "D4",
            "ticks": 120480,
            "time": 129.24365400000002,
            "velocity": 0.7874015748031497
          },
          {
            "duration": 0.12658149999998614,
            "durationTicks": 120,
            "midi": 88,
            "name": "E6",
            "ticks": 120480,
            "time": 129.24365400000002,
            "velocity": 0.7874015748031497
          },
          {
            "duration": 0.12658149999998614,
            "durationTicks": 120,
            "midi": 86,
            "name": "D6",
            "ticks": 120480,
            "time": 129.24365400000002,
            "velocity": 0.7874015748031497
          },
          {
            "duration": 0.12658149999998614,
            "durationTicks": 120,
            "midi": 100,
            "name": "E7",
            "ticks": 120480,
            "time": 129.24365400000002,
            "velocity": 0.7874015748031497
          },
          {
            "duration": 0.12658149999998614,
            "durationTicks": 120,
            "midi": 98,
            "name": "D7",
            "ticks": 120480,
            "time": 129.24365400000002,
            "velocity": 0.7874015748031497
          },
          {
            "duration": 0.08333282083333415,
            "durationTicks": 79,
            "midi": 108,
            "name": "C8",
            "ticks": 120480,
            "time": 129.24365400000002,
            "velocity": 0.7874015748031497
          },
          {
            "duration": 0.0854425124999807,
            "durationTicks": 81,
            "midi": 108,
            "name": "C8",
            "ticks": 120638,
            "time": 129.4103196416667,
            "velocity": 0.7874015748031497
          },
          {
            "duration": 0.08438766666665742,
            "durationTicks": 80,
            "midi": 108,
            "name": "C8",
            "ticks": 120799,
            "time": 129.58014982083336,
            "velocity": 0.7874015748031497
          },
          {
            "duration": 0.12658149999998614,
            "durationTicks": 120,
            "midi": 74,
            "name": "D5",
            "ticks": 120960,
            "time": 129.74998000000002,
            "velocity": 0.7874015748031497
          },
          {
            "duration": 0.12658149999998614,
            "durationTicks": 120,
            "midi": 61,
            "name": "C#4",
            "ticks": 120960,
            "time": 129.74998000000002,
            "velocity": 0.7874015748031497
          },
          {
            "duration": 0.12658149999998614,
            "durationTicks": 120,
            "midi": 86,
            "name": "D6",
            "ticks": 120960,
            "time": 129.74998000000002,
            "velocity": 0.7874015748031497
          },
          {
            "duration": 0.12658149999998614,
            "durationTicks": 120,
            "midi": 98,
            "name": "D7",
            "ticks": 120960,
            "time": 129.74998000000002,
            "velocity": 0.7874015748031497
          },
          {
            "duration": 0.08333282083333415,
            "durationTicks": 79,
            "midi": 108,
            "name": "C8",
            "ticks": 120960,
            "time": 129.74998000000002,
            "velocity": 0.7874015748031497
          },
          {
            "duration": 0.0854425124999807,
            "durationTicks": 81,
            "midi": 108,
            "name": "C8",
            "ticks": 121118,
            "time": 129.9166456416667,
            "velocity": 0.7874015748031497
          },
          {
            "duration": 0.2531630000000007,
            "durationTicks": 240,
            "midi": 108,
            "name": "C8",
            "ticks": 121279,
            "time": 130.08647582083336,
            "velocity": 0.7874015748031497
          },
          {
            "duration": 0.12658150000001456,
            "durationTicks": 120,
            "midi": 74,
            "name": "D5",
            "ticks": 121320,
            "time": 130.1297245,
            "velocity": 0.7874015748031497
          },
          {
            "duration": 0.12658150000001456,
            "durationTicks": 120,
            "midi": 87,
            "name": "D#6",
            "ticks": 121320,
            "time": 130.1297245,
            "velocity": 0.7874015748031497
          },
          {
            "duration": 0.12658150000001456,
            "durationTicks": 120,
            "midi": 99,
            "name": "D#7",
            "ticks": 121320,
            "time": 130.1297245,
            "velocity": 0.7874015748031497
          },
          {
            "duration": 0.12658149999998614,
            "durationTicks": 120,
            "midi": 75,
            "name": "D#5",
            "ticks": 121440,
            "time": 130.25630600000002,
            "velocity": 0.7874015748031497
          },
          {
            "duration": 0.12658149999998614,
            "durationTicks": 120,
            "midi": 62,
            "name": "D4",
            "ticks": 121440,
            "time": 130.25630600000002,
            "velocity": 0.7874015748031497
          },
          {
            "duration": 0.12658149999998614,
            "durationTicks": 120,
            "midi": 87,
            "name": "D#6",
            "ticks": 121440,
            "time": 130.25630600000002,
            "velocity": 0.7874015748031497
          },
          {
            "duration": 0.12658149999998614,
            "durationTicks": 120,
            "midi": 88,
            "name": "E6",
            "ticks": 121440,
            "time": 130.25630600000002,
            "velocity": 0.7874015748031497
          },
          {
            "duration": 0.12658149999998614,
            "durationTicks": 120,
            "midi": 99,
            "name": "D#7",
            "ticks": 121440,
            "time": 130.25630600000002,
            "velocity": 0.7874015748031497
          },
          {
            "duration": 0.12658149999998614,
            "durationTicks": 120,
            "midi": 100,
            "name": "E7",
            "ticks": 121440,
            "time": 130.25630600000002,
            "velocity": 0.7874015748031497
          },
          {
            "duration": 0.08438766666665742,
            "durationTicks": 80,
            "midi": 108,
            "name": "C8",
            "ticks": 121759,
            "time": 130.59280182083336,
            "velocity": 0.7874015748031497
          },
          {
            "duration": 3.016993687500019,
            "durationTicks": 2880,
            "midi": 105,
            "name": "A7",
            "ticks": 121905,
            "time": 130.7468093125,
            "velocity": 0.7874015748031497
          },
          {
            "duration": 3.016993687500019,
            "durationTicks": 2880,
            "midi": 93,
            "name": "A6",
            "ticks": 121905,
            "time": 130.7468093125,
            "velocity": 0.7874015748031497
          },
          {
            "duration": 3.016993687500019,
            "durationTicks": 2880,
            "midi": 69,
            "name": "A4",
            "ticks": 121905,
            "time": 130.7468093125,
            "velocity": 0.7874015748031497
          },
          {
            "duration": 3.016993687500019,
            "durationTicks": 2880,
            "midi": 81,
            "name": "A5",
            "ticks": 121905,
            "time": 130.7468093125,
            "velocity": 0.7874015748031497
          },
          {
            "duration": 0.5041989999999998,
            "durationTicks": 480,
            "midi": 75,
            "name": "D#5",
            "ticks": 121920,
            "time": 130.76263200000002,
            "velocity": 0.7874015748031497
          },
          {
            "duration": 0.5041989999999998,
            "durationTicks": 480,
            "midi": 74,
            "name": "D5",
            "ticks": 121920,
            "time": 130.76263200000002,
            "velocity": 0.7874015748031497
          },
          {
            "duration": 0.5041989999999998,
            "durationTicks": 480,
            "midi": 61,
            "name": "C#4",
            "ticks": 121920,
            "time": 130.76263200000002,
            "velocity": 0.7874015748031497
          },
          {
            "duration": 0.5041989999999998,
            "durationTicks": 480,
            "midi": 87,
            "name": "D#6",
            "ticks": 121920,
            "time": 130.76263200000002,
            "velocity": 0.7874015748031497
          },
          {
            "duration": 0.5041989999999998,
            "durationTicks": 480,
            "midi": 85,
            "name": "C#6",
            "ticks": 121920,
            "time": 130.76263200000002,
            "velocity": 0.7874015748031497
          },
          {
            "duration": 0.5041989999999998,
            "durationTicks": 480,
            "midi": 99,
            "name": "D#7",
            "ticks": 121920,
            "time": 130.76263200000002,
            "velocity": 0.7874015748031497
          },
          {
            "duration": 0.5041989999999998,
            "durationTicks": 480,
            "midi": 97,
            "name": "C#7",
            "ticks": 121920,
            "time": 130.76263200000002,
            "velocity": 0.7874015748031497
          },
          {
            "duration": 0.25209950000001413,
            "durationTicks": 240,
            "midi": 108,
            "name": "C8",
            "ticks": 121920,
            "time": 130.76263200000002,
            "velocity": 0.7874015748031497
          },
          {
            "duration": 0.08508358124998949,
            "durationTicks": 81,
            "midi": 108,
            "name": "C8",
            "ticks": 122239,
            "time": 131.09771425208336,
            "velocity": 0.7874015748031497
          },
          {
            "duration": 0.25209950000001413,
            "durationTicks": 240,
            "midi": 108,
            "name": "C8",
            "ticks": 122400,
            "time": 131.26683100000002,
            "velocity": 0.7874015748031497
          },
          {
            "duration": 0.08508358124998949,
            "durationTicks": 81,
            "midi": 108,
            "name": "C8",
            "ticks": 122719,
            "time": 131.60191325208336,
            "velocity": 0.7874015748031497
          },
          {
            "duration": 0.12604974999999286,
            "durationTicks": 120,
            "midi": 75,
            "name": "D#5",
            "ticks": 122880,
            "time": 131.77103000000002,
            "velocity": 0.7874015748031497
          },
          {
            "duration": 0.12604974999999286,
            "durationTicks": 120,
            "midi": 62,
            "name": "D4",
            "ticks": 122880,
            "time": 131.77103000000002,
            "velocity": 0.7874015748031497
          },
          {
            "duration": 0.12604974999999286,
            "durationTicks": 120,
            "midi": 87,
            "name": "D#6",
            "ticks": 122880,
            "time": 131.77103000000002,
            "velocity": 0.7874015748031497
          },
          {
            "duration": 0.12604974999999286,
            "durationTicks": 120,
            "midi": 88,
            "name": "E6",
            "ticks": 122880,
            "time": 131.77103000000002,
            "velocity": 0.7874015748031497
          },
          {
            "duration": 0.12604974999999286,
            "durationTicks": 120,
            "midi": 99,
            "name": "D#7",
            "ticks": 122880,
            "time": 131.77103000000002,
            "velocity": 0.7874015748031497
          },
          {
            "duration": 0.12604974999999286,
            "durationTicks": 120,
            "midi": 100,
            "name": "E7",
            "ticks": 122880,
            "time": 131.77103000000002,
            "velocity": 0.7874015748031497
          },
          {
            "duration": 0.41911541875001035,
            "durationTicks": 399,
            "midi": 108,
            "name": "C8",
            "ticks": 122880,
            "time": 131.77103000000002,
            "velocity": 0.7874015748031497
          },
          {
            "duration": 0.12604974999999286,
            "durationTicks": 120,
            "midi": 74,
            "name": "D5",
            "ticks": 123360,
            "time": 132.27522900000002,
            "velocity": 0.7874015748031497
          },
          {
            "duration": 0.12604974999999286,
            "durationTicks": 120,
            "midi": 61,
            "name": "C#4",
            "ticks": 123360,
            "time": 132.27522900000002,
            "velocity": 0.7874015748031497
          },
          {
            "duration": 0.12604974999999286,
            "durationTicks": 120,
            "midi": 86,
            "name": "D6",
            "ticks": 123360,
            "time": 132.27522900000002,
            "velocity": 0.7874015748031497
          },
          {
            "duration": 0.12604974999999286,
            "durationTicks": 120,
            "midi": 88,
            "name": "E6",
            "ticks": 123360,
            "time": 132.27522900000002,
            "velocity": 0.7874015748031497
          },
          {
            "duration": 0.12604974999999286,
            "durationTicks": 120,
            "midi": 98,
            "name": "D7",
            "ticks": 123360,
            "time": 132.27522900000002,
            "velocity": 0.7874015748031497
          },
          {
            "duration": 0.12604974999999286,
            "durationTicks": 120,
            "midi": 100,
            "name": "E7",
            "ticks": 123360,
            "time": 132.27522900000002,
            "velocity": 0.7874015748031497
          },
          {
            "duration": 0.33508225208333897,
            "durationTicks": 319,
            "midi": 108,
            "name": "C8",
            "ticks": 123360,
            "time": 132.27522900000002,
            "velocity": 0.7874015748031497
          },
          {
            "duration": 0.75,
            "durationTicks": 720,
            "midi": 74,
            "name": "D5",
            "ticks": 123840,
            "time": 132.77942800000002,
            "velocity": 0.7874015748031497
          },
          {
            "duration": 0.75,
            "durationTicks": 720,
            "midi": 73,
            "name": "C#5",
            "ticks": 123840,
            "time": 132.77942800000002,
            "velocity": 0.7874015748031497
          },
          {
            "duration": 0.75,
            "durationTicks": 720,
            "midi": 62,
            "name": "D4",
            "ticks": 123840,
            "time": 132.77942800000002,
            "velocity": 0.7874015748031497
          },
          {
            "duration": 0.75,
            "durationTicks": 720,
            "midi": 61,
            "name": "C#4",
            "ticks": 123840,
            "time": 132.77942800000002,
            "velocity": 0.7874015748031497
          },
          {
            "duration": 0.75,
            "durationTicks": 720,
            "midi": 87,
            "name": "D#6",
            "ticks": 123840,
            "time": 132.77942800000002,
            "velocity": 0.7874015748031497
          },
          {
            "duration": 0.75,
            "durationTicks": 720,
            "midi": 86,
            "name": "D6",
            "ticks": 123840,
            "time": 132.77942800000002,
            "velocity": 0.7874015748031497
          },
          {
            "duration": 0.75,
            "durationTicks": 720,
            "midi": 99,
            "name": "D#7",
            "ticks": 123840,
            "time": 132.77942800000002,
            "velocity": 0.7874015748031497
          },
          {
            "duration": 0.75,
            "durationTicks": 720,
            "midi": 98,
            "name": "D7",
            "ticks": 123840,
            "time": 132.77942800000002,
            "velocity": 0.7874015748031497
          },
          {
            "duration": 0.9156250000000057,
            "durationTicks": 879,
            "midi": 108,
            "name": "C8",
            "ticks": 123840,
            "time": 132.77942800000002,
            "velocity": 0.7874015748031497
          },
          {
            "duration": 2,
            "durationTicks": 1920,
            "midi": 103,
            "name": "G7",
            "ticks": 124785,
            "time": 133.76380300000002,
            "velocity": 0.7874015748031497
          },
          {
            "duration": 2,
            "durationTicks": 1920,
            "midi": 106,
            "name": "A#7",
            "ticks": 124785,
            "time": 133.76380300000002,
            "velocity": 0.7874015748031497
          },
          {
            "duration": 2,
            "durationTicks": 1920,
            "midi": 91,
            "name": "G6",
            "ticks": 124785,
            "time": 133.76380300000002,
            "velocity": 0.7874015748031497
          },
          {
            "duration": 2,
            "durationTicks": 1920,
            "midi": 94,
            "name": "A#6",
            "ticks": 124785,
            "time": 133.76380300000002,
            "velocity": 0.7874015748031497
          },
          {
            "duration": 2,
            "durationTicks": 1920,
            "midi": 67,
            "name": "G4",
            "ticks": 124785,
            "time": 133.76380300000002,
            "velocity": 0.7874015748031497
          },
          {
            "duration": 2,
            "durationTicks": 1920,
            "midi": 70,
            "name": "A#4",
            "ticks": 124785,
            "time": 133.76380300000002,
            "velocity": 0.7874015748031497
          },
          {
            "duration": 2,
            "durationTicks": 1920,
            "midi": 79,
            "name": "G5",
            "ticks": 124785,
            "time": 133.76380300000002,
            "velocity": 0.7874015748031497
          },
          {
            "duration": 2,
            "durationTicks": 1920,
            "midi": 82,
            "name": "A#5",
            "ticks": 124785,
            "time": 133.76380300000002,
            "velocity": 0.7874015748031497
          },
          {
            "duration": 0.125,
            "durationTicks": 120,
            "midi": 75,
            "name": "D#5",
            "ticks": 124800,
            "time": 133.77942800000002,
            "velocity": 0.7874015748031497
          },
          {
            "duration": 0.125,
            "durationTicks": 120,
            "midi": 62,
            "name": "D4",
            "ticks": 124800,
            "time": 133.77942800000002,
            "velocity": 0.7874015748031497
          },
          {
            "duration": 0.125,
            "durationTicks": 120,
            "midi": 88,
            "name": "E6",
            "ticks": 124800,
            "time": 133.77942800000002,
            "velocity": 0.7874015748031497
          },
          {
            "duration": 0.125,
            "durationTicks": 120,
            "midi": 100,
            "name": "E7",
            "ticks": 124800,
            "time": 133.77942800000002,
            "velocity": 0.7874015748031497
          },
          {
            "duration": 0.3333333333333428,
            "durationTicks": 320,
            "midi": 108,
            "name": "C8",
            "ticks": 124800,
            "time": 133.77942800000002,
            "velocity": 0.7874015748031497
          },
          {
            "duration": 0.125,
            "durationTicks": 120,
            "midi": 87,
            "name": "D#6",
            "ticks": 124959,
            "time": 133.94505300000003,
            "velocity": 0.7874015748031497
          },
          {
            "duration": 0.125,
            "durationTicks": 120,
            "midi": 99,
            "name": "D#7",
            "ticks": 124959,
            "time": 133.94505300000003,
            "velocity": 0.7874015748031497
          },
          {
            "duration": 0.125,
            "durationTicks": 120,
            "midi": 74,
            "name": "D5",
            "ticks": 125120,
            "time": 134.11276133333337,
            "velocity": 0.7874015748031497
          },
          {
            "duration": 0.125,
            "durationTicks": 120,
            "midi": 86,
            "name": "D6",
            "ticks": 125120,
            "time": 134.11276133333337,
            "velocity": 0.7874015748031497
          },
          {
            "duration": 0.125,
            "durationTicks": 120,
            "midi": 98,
            "name": "D7",
            "ticks": 125120,
            "time": 134.11276133333337,
            "velocity": 0.7874015748031497
          },
          {
            "duration": 0.125,
            "durationTicks": 120,
            "midi": 74,
            "name": "D5",
            "ticks": 125280,
            "time": 134.27942800000002,
            "velocity": 0.7874015748031497
          },
          {
            "duration": 0.125,
            "durationTicks": 120,
            "midi": 61,
            "name": "C#4",
            "ticks": 125280,
            "time": 134.27942800000002,
            "velocity": 0.7874015748031497
          },
          {
            "duration": 0.125,
            "durationTicks": 120,
            "midi": 86,
            "name": "D6",
            "ticks": 125280,
            "time": 134.27942800000002,
            "velocity": 0.7874015748031497
          },
          {
            "duration": 0.125,
            "durationTicks": 120,
            "midi": 98,
            "name": "D7",
            "ticks": 125280,
            "time": 134.27942800000002,
            "velocity": 0.7874015748031497
          },
          {
            "duration": 0.125,
            "durationTicks": 120,
            "midi": 85,
            "name": "C#6",
            "ticks": 125439,
            "time": 134.44505300000003,
            "velocity": 0.7874015748031497
          },
          {
            "duration": 0.125,
            "durationTicks": 120,
            "midi": 97,
            "name": "C#7",
            "ticks": 125439,
            "time": 134.44505300000003,
            "velocity": 0.7874015748031497
          },
          {
            "duration": 0.125,
            "durationTicks": 120,
            "midi": 73,
            "name": "C#5",
            "ticks": 125600,
            "time": 134.61276133333337,
            "velocity": 0.7874015748031497
          },
          {
            "duration": 0.125,
            "durationTicks": 120,
            "midi": 60,
            "name": "C4",
            "ticks": 125600,
            "time": 134.61276133333337,
            "velocity": 0.7874015748031497
          },
          {
            "duration": 0.125,
            "durationTicks": 120,
            "midi": 84,
            "name": "C6",
            "ticks": 125600,
            "time": 134.61276133333337,
            "velocity": 0.7874015748031497
          },
          {
            "duration": 0.125,
            "durationTicks": 120,
            "midi": 96,
            "name": "C7",
            "ticks": 125600,
            "time": 134.61276133333337,
            "velocity": 0.7874015748031497
          },
          {
            "duration": 0.9156250000000057,
            "durationTicks": 879,
            "midi": 73,
            "name": "C#5",
            "ticks": 125760,
            "time": 134.77942800000002,
            "velocity": 0.7874015748031497
          },
          {
            "duration": 0.9156250000000057,
            "durationTicks": 879,
            "midi": 60,
            "name": "C4",
            "ticks": 125760,
            "time": 134.77942800000002,
            "velocity": 0.7874015748031497
          },
          {
            "duration": 0.9156250000000057,
            "durationTicks": 879,
            "midi": 84,
            "name": "C6",
            "ticks": 125760,
            "time": 134.77942800000002,
            "velocity": 0.7874015748031497
          },
          {
            "duration": 0.9156250000000057,
            "durationTicks": 879,
            "midi": 96,
            "name": "C7",
            "ticks": 125760,
            "time": 134.77942800000002,
            "velocity": 0.7874015748031497
          },
          {
            "duration": 0.16562500000000568,
            "durationTicks": 159,
            "midi": 108,
            "name": "C8",
            "ticks": 125760,
            "time": 134.77942800000002,
            "velocity": 0.7874015748031497
          },
          {
            "duration": 0.3322916666666629,
            "durationTicks": 319,
            "midi": 108,
            "name": "C8",
            "ticks": 126560,
            "time": 135.61276133333337,
            "velocity": 0.7874015748031497
          },
          {
            "duration": 14.14480231249999,
            "durationTicks": 13440,
            "midi": 105,
            "name": "A7",
            "ticks": 126705,
            "time": 135.76380300000002,
            "velocity": 0.7874015748031497
          },
          {
            "duration": 14.14480231249999,
            "durationTicks": 13440,
            "midi": 93,
            "name": "A6",
            "ticks": 126705,
            "time": 135.76380300000002,
            "velocity": 0.7874015748031497
          },
          {
            "duration": 14.14480231249999,
            "durationTicks": 13440,
            "midi": 69,
            "name": "A4",
            "ticks": 126705,
            "time": 135.76380300000002,
            "velocity": 0.7874015748031497
          },
          {
            "duration": 14.14480231249999,
            "durationTicks": 13440,
            "midi": 81,
            "name": "A5",
            "ticks": 126705,
            "time": 135.76380300000002,
            "velocity": 0.7874015748031497
          },
          {
            "duration": 0.125,
            "durationTicks": 120,
            "midi": 74,
            "name": "D5",
            "ticks": 126720,
            "time": 135.77942800000002,
            "velocity": 0.7874015748031497
          },
          {
            "duration": 0.125,
            "durationTicks": 120,
            "midi": 61,
            "name": "C#4",
            "ticks": 126720,
            "time": 135.77942800000002,
            "velocity": 0.7874015748031497
          },
          {
            "duration": 0.125,
            "durationTicks": 120,
            "midi": 86,
            "name": "D6",
            "ticks": 126720,
            "time": 135.77942800000002,
            "velocity": 0.7874015748031497
          },
          {
            "duration": 0.125,
            "durationTicks": 120,
            "midi": 98,
            "name": "D7",
            "ticks": 126720,
            "time": 135.77942800000002,
            "velocity": 0.7874015748031497
          },
          {
            "duration": 0.125,
            "durationTicks": 120,
            "midi": 85,
            "name": "C#6",
            "ticks": 126879,
            "time": 135.94505300000003,
            "velocity": 0.7874015748031497
          },
          {
            "duration": 0.125,
            "durationTicks": 120,
            "midi": 97,
            "name": "C#7",
            "ticks": 126879,
            "time": 135.94505300000003,
            "velocity": 0.7874015748031497
          },
          {
            "duration": 0.125,
            "durationTicks": 120,
            "midi": 73,
            "name": "C#5",
            "ticks": 127040,
            "time": 136.11276133333337,
            "velocity": 0.7874015748031497
          },
          {
            "duration": 0.125,
            "durationTicks": 120,
            "midi": 84,
            "name": "C6",
            "ticks": 127040,
            "time": 136.11276133333337,
            "velocity": 0.7874015748031497
          },
          {
            "duration": 0.1666666666666572,
            "durationTicks": 160,
            "midi": 108,
            "name": "C8",
            "ticks": 127040,
            "time": 136.11276133333337,
            "velocity": 0.7874015748031497
          },
          {
            "duration": 0.125,
            "durationTicks": 120,
            "midi": 96,
            "name": "C7",
            "ticks": 127040,
            "time": 136.11276133333337,
            "velocity": 0.7874015748031497
          },
          {
            "duration": 0.125,
            "durationTicks": 120,
            "midi": 74,
            "name": "D5",
            "ticks": 127200,
            "time": 136.27942800000002,
            "velocity": 0.7874015748031497
          },
          {
            "duration": 0.125,
            "durationTicks": 120,
            "midi": 61,
            "name": "C#4",
            "ticks": 127200,
            "time": 136.27942800000002,
            "velocity": 0.7874015748031497
          },
          {
            "duration": 0.125,
            "durationTicks": 120,
            "midi": 86,
            "name": "D6",
            "ticks": 127200,
            "time": 136.27942800000002,
            "velocity": 0.7874015748031497
          },
          {
            "duration": 0.125,
            "durationTicks": 120,
            "midi": 98,
            "name": "D7",
            "ticks": 127200,
            "time": 136.27942800000002,
            "velocity": 0.7874015748031497
          },
          {
            "duration": 0.125,
            "durationTicks": 120,
            "midi": 85,
            "name": "C#6",
            "ticks": 127359,
            "time": 136.44505300000003,
            "velocity": 0.7874015748031497
          },
          {
            "duration": 0.125,
            "durationTicks": 120,
            "midi": 97,
            "name": "C#7",
            "ticks": 127359,
            "time": 136.44505300000003,
            "velocity": 0.7874015748031497
          },
          {
            "duration": 0.125,
            "durationTicks": 120,
            "midi": 73,
            "name": "C#5",
            "ticks": 127520,
            "time": 136.61276133333337,
            "velocity": 0.7874015748031497
          },
          {
            "duration": 0.125,
            "durationTicks": 120,
            "midi": 84,
            "name": "C6",
            "ticks": 127520,
            "time": 136.61276133333337,
            "velocity": 0.7874015748031497
          },
          {
            "duration": 0.1666666666666572,
            "durationTicks": 160,
            "midi": 108,
            "name": "C8",
            "ticks": 127520,
            "time": 136.61276133333337,
            "velocity": 0.7874015748031497
          },
          {
            "duration": 0.125,
            "durationTicks": 120,
            "midi": 96,
            "name": "C7",
            "ticks": 127520,
            "time": 136.61276133333337,
            "velocity": 0.7874015748031497
          },
          {
            "duration": 0.9156250000000057,
            "durationTicks": 879,
            "midi": 72,
            "name": "C5",
            "ticks": 127680,
            "time": 136.77942800000002,
            "velocity": 0.7874015748031497
          },
          {
            "duration": 0.9156250000000057,
            "durationTicks": 879,
            "midi": 60,
            "name": "C4",
            "ticks": 127680,
            "time": 136.77942800000002,
            "velocity": 0.7874015748031497
          },
          {
            "duration": 0.9156250000000057,
            "durationTicks": 879,
            "midi": 84,
            "name": "C6",
            "ticks": 127680,
            "time": 136.77942800000002,
            "velocity": 0.7874015748031497
          },
          {
            "duration": 0.9156250000000057,
            "durationTicks": 879,
            "midi": 96,
            "name": "C7",
            "ticks": 127680,
            "time": 136.77942800000002,
            "velocity": 0.7874015748031497
          },
          {
            "duration": 0.16562500000000568,
            "durationTicks": 159,
            "midi": 108,
            "name": "C8",
            "ticks": 128160,
            "time": 137.27942800000002,
            "velocity": 0.7874015748031497
          },
          {
            "duration": 0.08333333333331439,
            "durationTicks": 80,
            "midi": 108,
            "name": "C8",
            "ticks": 128480,
            "time": 137.61276133333337,
            "velocity": 0.7874015748031497
          },
          {
            "duration": 8.466935156250003,
            "durationTicks": 8000,
            "midi": 106,
            "name": "A#7",
            "ticks": 128625,
            "time": 137.76380300000002,
            "velocity": 0.7874015748031497
          },
          {
            "duration": 8.466935156250003,
            "durationTicks": 8000,
            "midi": 94,
            "name": "A#6",
            "ticks": 128625,
            "time": 137.76380300000002,
            "velocity": 0.7874015748031497
          },
          {
            "duration": 8.466935156250003,
            "durationTicks": 8000,
            "midi": 70,
            "name": "A#4",
            "ticks": 128625,
            "time": 137.76380300000002,
            "velocity": 0.7874015748031497
          },
          {
            "duration": 8.466935156250003,
            "durationTicks": 8000,
            "midi": 82,
            "name": "A#5",
            "ticks": 128625,
            "time": 137.76380300000002,
            "velocity": 0.7874015748031497
          },
          {
            "duration": 0.5150209999999902,
            "durationTicks": 480,
            "midi": 75,
            "name": "D#5",
            "ticks": 128640,
            "time": 137.77942800000002,
            "velocity": 0.7874015748031497
          },
          {
            "duration": 0.5150209999999902,
            "durationTicks": 480,
            "midi": 62,
            "name": "D4",
            "ticks": 128640,
            "time": 137.77942800000002,
            "velocity": 0.7874015748031497
          },
          {
            "duration": 0.5150209999999902,
            "durationTicks": 480,
            "midi": 87,
            "name": "D#6",
            "ticks": 128640,
            "time": 137.77942800000002,
            "velocity": 0.7874015748031497
          },
          {
            "duration": 0.5150209999999902,
            "durationTicks": 480,
            "midi": 88,
            "name": "E6",
            "ticks": 128640,
            "time": 137.77942800000002,
            "velocity": 0.7874015748031497
          },
          {
            "duration": 0.5150209999999902,
            "durationTicks": 480,
            "midi": 99,
            "name": "D#7",
            "ticks": 128640,
            "time": 137.77942800000002,
            "velocity": 0.7874015748031497
          },
          {
            "duration": 0.5150209999999902,
            "durationTicks": 480,
            "midi": 100,
            "name": "E7",
            "ticks": 128640,
            "time": 137.77942800000002,
            "velocity": 0.7874015748031497
          },
          {
            "duration": 0.08476387291665333,
            "durationTicks": 79,
            "midi": 108,
            "name": "C8",
            "ticks": 128640,
            "time": 137.77942800000002,
            "velocity": 0.7874015748031497
          },
          {
            "duration": 0.43025712708333685,
            "durationTicks": 401,
            "midi": 108,
            "name": "C8",
            "ticks": 128798,
            "time": 137.94895574583336,
            "velocity": 0.7874015748031497
          },
          {
            "duration": 0.12875525000001176,
            "durationTicks": 120,
            "midi": 74,
            "name": "D5",
            "ticks": 129120,
            "time": 138.29444900000001,
            "velocity": 0.7874015748031497
          },
          {
            "duration": 0.12875525000001176,
            "durationTicks": 120,
            "midi": 61,
            "name": "C#4",
            "ticks": 129120,
            "time": 138.29444900000001,
            "velocity": 0.7874015748031497
          },
          {
            "duration": 0.12875525000001176,
            "durationTicks": 120,
            "midi": 86,
            "name": "D6",
            "ticks": 129120,
            "time": 138.29444900000001,
            "velocity": 0.7874015748031497
          },
          {
            "duration": 0.12875525000001176,
            "durationTicks": 120,
            "midi": 88,
            "name": "E6",
            "ticks": 129120,
            "time": 138.29444900000001,
            "velocity": 0.7874015748031497
          },
          {
            "duration": 0.12875525000001176,
            "durationTicks": 120,
            "midi": 98,
            "name": "D7",
            "ticks": 129120,
            "time": 138.29444900000001,
            "velocity": 0.7874015748031497
          },
          {
            "duration": 0.12875525000001176,
            "durationTicks": 120,
            "midi": 100,
            "name": "E7",
            "ticks": 129120,
            "time": 138.29444900000001,
            "velocity": 0.7874015748031497
          },
          {
            "duration": 0.12875524999998333,
            "durationTicks": 120,
            "midi": 74,
            "name": "D5",
            "ticks": 129600,
            "time": 138.80947000000003,
            "velocity": 0.7874015748031497
          },
          {
            "duration": 0.12875524999998333,
            "durationTicks": 120,
            "midi": 61,
            "name": "C#4",
            "ticks": 129600,
            "time": 138.80947000000003,
            "velocity": 0.7874015748031497
          },
          {
            "duration": 0.12875524999998333,
            "durationTicks": 120,
            "midi": 86,
            "name": "D6",
            "ticks": 129600,
            "time": 138.80947000000003,
            "velocity": 0.7874015748031497
          },
          {
            "duration": 0.12875524999998333,
            "durationTicks": 120,
            "midi": 87,
            "name": "D#6",
            "ticks": 129600,
            "time": 138.80947000000003,
            "velocity": 0.7874015748031497
          },
          {
            "duration": 0.12875524999998333,
            "durationTicks": 120,
            "midi": 98,
            "name": "D7",
            "ticks": 129600,
            "time": 138.80947000000003,
            "velocity": 0.7874015748031497
          },
          {
            "duration": 0.12875524999998333,
            "durationTicks": 120,
            "midi": 99,
            "name": "D#7",
            "ticks": 129600,
            "time": 138.80947000000003,
            "velocity": 0.7874015748031497
          },
          {
            "duration": 0.7725314999999853,
            "durationTicks": 720,
            "midi": 108,
            "name": "C8",
            "ticks": 129600,
            "time": 138.80947000000003,
            "velocity": 0.7874015748031497
          },
          {
            "duration": 0.12875525000001176,
            "durationTicks": 120,
            "midi": 74,
            "name": "D5",
            "ticks": 130080,
            "time": 139.32449100000002,
            "velocity": 0.7874015748031497
          },
          {
            "duration": 0.12875525000001176,
            "durationTicks": 120,
            "midi": 61,
            "name": "C#4",
            "ticks": 130080,
            "time": 139.32449100000002,
            "velocity": 0.7874015748031497
          },
          {
            "duration": 0.12875525000001176,
            "durationTicks": 120,
            "midi": 86,
            "name": "D6",
            "ticks": 130080,
            "time": 139.32449100000002,
            "velocity": 0.7874015748031497
          },
          {
            "duration": 0.12875525000001176,
            "durationTicks": 120,
            "midi": 87,
            "name": "D#6",
            "ticks": 130080,
            "time": 139.32449100000002,
            "velocity": 0.7874015748031497
          },
          {
            "duration": 0.12875525000001176,
            "durationTicks": 120,
            "midi": 98,
            "name": "D7",
            "ticks": 130080,
            "time": 139.32449100000002,
            "velocity": 0.7874015748031497
          },
          {
            "duration": 0.12875525000001176,
            "durationTicks": 120,
            "midi": 99,
            "name": "D#7",
            "ticks": 130080,
            "time": 139.32449100000002,
            "velocity": 0.7874015748031497
          },
          {
            "duration": 0.12875524999998333,
            "durationTicks": 120,
            "midi": 73,
            "name": "C#5",
            "ticks": 130399,
            "time": 139.6667653729167,
            "velocity": 0.7874015748031497
          },
          {
            "duration": 0.12875524999998333,
            "durationTicks": 120,
            "midi": 60,
            "name": "C4",
            "ticks": 130399,
            "time": 139.6667653729167,
            "velocity": 0.7874015748031497
          },
          {
            "duration": 0.12875524999998333,
            "durationTicks": 120,
            "midi": 86,
            "name": "D6",
            "ticks": 130399,
            "time": 139.6667653729167,
            "velocity": 0.7874015748031497
          },
          {
            "duration": 0.12875524999998333,
            "durationTicks": 120,
            "midi": 98,
            "name": "D7",
            "ticks": 130399,
            "time": 139.6667653729167,
            "velocity": 0.7874015748031497
          },
          {
            "duration": 0.8898259999999993,
            "durationTicks": 840,
            "midi": 61,
            "name": "C#4",
            "ticks": 130560,
            "time": 139.839512,
            "velocity": 0.7874015748031497
          },
          {
            "duration": 0.8898259999999993,
            "durationTicks": 840,
            "midi": 73,
            "name": "C#5",
            "ticks": 130560,
            "time": 139.839512,
            "velocity": 0.7874015748031497
          },
          {
            "duration": 0.8898259999999993,
            "durationTicks": 840,
            "midi": 74,
            "name": "D5",
            "ticks": 130560,
            "time": 139.839512,
            "velocity": 0.7874015748031497
          },
          {
            "duration": 0.8898259999999993,
            "durationTicks": 840,
            "midi": 60,
            "name": "C4",
            "ticks": 130560,
            "time": 139.839512,
            "velocity": 0.7874015748031497
          },
          {
            "duration": 0.8898259999999993,
            "durationTicks": 840,
            "midi": 85,
            "name": "C#6",
            "ticks": 130560,
            "time": 139.839512,
            "velocity": 0.7874015748031497
          },
          {
            "duration": 0.8898259999999993,
            "durationTicks": 840,
            "midi": 86,
            "name": "D6",
            "ticks": 130560,
            "time": 139.839512,
            "velocity": 0.7874015748031497
          },
          {
            "duration": 0.8898259999999993,
            "durationTicks": 840,
            "midi": 97,
            "name": "C#7",
            "ticks": 130560,
            "time": 139.839512,
            "velocity": 0.7874015748031497
          },
          {
            "duration": 0.8898259999999993,
            "durationTicks": 840,
            "midi": 98,
            "name": "D7",
            "ticks": 130560,
            "time": 139.839512,
            "velocity": 0.7874015748031497
          },
          {
            "duration": 0.2542359999999917,
            "durationTicks": 240,
            "midi": 108,
            "name": "C8",
            "ticks": 130560,
            "time": 139.839512,
            "velocity": 0.7874015748031497
          },
          {
            "duration": 0.3389813333333507,
            "durationTicks": 320,
            "midi": 108,
            "name": "C8",
            "ticks": 130880,
            "time": 140.17849333333334,
            "velocity": 0.7874015748031497
          },
          {
            "duration": 0.08474533333333056,
            "durationTicks": 80,
            "midi": 108,
            "name": "C8",
            "ticks": 131360,
            "time": 140.68696533333335,
            "velocity": 0.7874015748031497
          },
          {
            "duration": 0.12711799999999585,
            "durationTicks": 120,
            "midi": 72,
            "name": "C5",
            "ticks": 131520,
            "time": 140.856456,
            "velocity": 0.7874015748031497
          },
          {
            "duration": 0.12711799999999585,
            "durationTicks": 120,
            "midi": 60,
            "name": "C4",
            "ticks": 131520,
            "time": 140.856456,
            "velocity": 0.7874015748031497
          },
          {
            "duration": 0.12711799999999585,
            "durationTicks": 120,
            "midi": 85,
            "name": "C#6",
            "ticks": 131520,
            "time": 140.856456,
            "velocity": 0.7874015748031497
          },
          {
            "duration": 0.12711799999999585,
            "durationTicks": 120,
            "midi": 84,
            "name": "C6",
            "ticks": 131520,
            "time": 140.856456,
            "velocity": 0.7874015748031497
          },
          {
            "duration": 0.12711799999999585,
            "durationTicks": 120,
            "midi": 97,
            "name": "C#7",
            "ticks": 131520,
            "time": 140.856456,
            "velocity": 0.7874015748031497
          },
          {
            "duration": 0.12711799999999585,
            "durationTicks": 120,
            "midi": 96,
            "name": "C7",
            "ticks": 131520,
            "time": 140.856456,
            "velocity": 0.7874015748031497
          },
          {
            "duration": 0.08474533333333056,
            "durationTicks": 80,
            "midi": 108,
            "name": "C8",
            "ticks": 131520,
            "time": 140.856456,
            "velocity": 0.7874015748031497
          },
          {
            "duration": 0.08474533333333056,
            "durationTicks": 80,
            "midi": 108,
            "name": "C8",
            "ticks": 131680,
            "time": 141.02594666666667,
            "velocity": 0.7874015748031497
          },
          {
            "duration": 0.5084719999999834,
            "durationTicks": 480,
            "midi": 108,
            "name": "C8",
            "ticks": 131840,
            "time": 141.19543733333336,
            "velocity": 0.7874015748031497
          },
          {
            "duration": 0.12711799999999585,
            "durationTicks": 120,
            "midi": 73,
            "name": "C#5",
            "ticks": 132000,
            "time": 141.36492800000002,
            "velocity": 0.7874015748031497
          },
          {
            "duration": 0.12711799999999585,
            "durationTicks": 120,
            "midi": 61,
            "name": "C#4",
            "ticks": 132000,
            "time": 141.36492800000002,
            "velocity": 0.7874015748031497
          },
          {
            "duration": 0.12711799999999585,
            "durationTicks": 120,
            "midi": 86,
            "name": "D6",
            "ticks": 132000,
            "time": 141.36492800000002,
            "velocity": 0.7874015748031497
          },
          {
            "duration": 0.12711799999999585,
            "durationTicks": 120,
            "midi": 84,
            "name": "C6",
            "ticks": 132000,
            "time": 141.36492800000002,
            "velocity": 0.7874015748031497
          },
          {
            "duration": 0.12711799999999585,
            "durationTicks": 120,
            "midi": 98,
            "name": "D7",
            "ticks": 132000,
            "time": 141.36492800000002,
            "velocity": 0.7874015748031497
          },
          {
            "duration": 0.12711799999999585,
            "durationTicks": 120,
            "midi": 96,
            "name": "C7",
            "ticks": 132000,
            "time": 141.36492800000002,
            "velocity": 0.7874015748031497
          },
          {
            "duration": 0.12711799999999585,
            "durationTicks": 120,
            "midi": 74,
            "name": "D5",
            "ticks": 132320,
            "time": 141.70390933333334,
            "velocity": 0.7874015748031497
          },
          {
            "duration": 0.12711799999999585,
            "durationTicks": 120,
            "midi": 61,
            "name": "C#4",
            "ticks": 132320,
            "time": 141.70390933333334,
            "velocity": 0.7874015748031497
          },
          {
            "duration": 0.12711799999999585,
            "durationTicks": 120,
            "midi": 85,
            "name": "C#6",
            "ticks": 132320,
            "time": 141.70390933333334,
            "velocity": 0.7874015748031497
          },
          {
            "duration": 0.12711799999999585,
            "durationTicks": 120,
            "midi": 97,
            "name": "C#7",
            "ticks": 132320,
            "time": 141.70390933333334,
            "velocity": 0.7874015748031497
          },
          {
            "duration": 0.8898259999999993,
            "durationTicks": 840,
            "midi": 73,
            "name": "C#5",
            "ticks": 132480,
            "time": 141.8734,
            "velocity": 0.7874015748031497
          },
          {
            "duration": 0.8898259999999993,
            "durationTicks": 840,
            "midi": 74,
            "name": "D5",
            "ticks": 132480,
            "time": 141.8734,
            "velocity": 0.7874015748031497
          },
          {
            "duration": 0.8898259999999993,
            "durationTicks": 840,
            "midi": 62,
            "name": "D4",
            "ticks": 132480,
            "time": 141.8734,
            "velocity": 0.7874015748031497
          },
          {
            "duration": 1.0169440000000236,
            "durationTicks": 960,
            "midi": 85,
            "name": "C#6",
            "ticks": 132480,
            "time": 141.8734,
            "velocity": 0.7874015748031497
          },
          {
            "duration": 1.0169440000000236,
            "durationTicks": 960,
            "midi": 86,
            "name": "D6",
            "ticks": 132480,
            "time": 141.8734,
            "velocity": 0.7874015748031497
          },
          {
            "duration": 1.0169440000000236,
            "durationTicks": 960,
            "midi": 97,
            "name": "C#7",
            "ticks": 132480,
            "time": 141.8734,
            "velocity": 0.7874015748031497
          },
          {
            "duration": 1.0169440000000236,
            "durationTicks": 960,
            "midi": 98,
            "name": "D7",
            "ticks": 132480,
            "time": 141.8734,
            "velocity": 0.7874015748031497
          },
          {
            "duration": 0.08474533333333056,
            "durationTicks": 80,
            "midi": 108,
            "name": "C8",
            "ticks": 132480,
            "time": 141.8734,
            "velocity": 0.7874015748031497
          },
          {
            "duration": 0.08474533333333056,
            "durationTicks": 80,
            "midi": 108,
            "name": "C8",
            "ticks": 132640,
            "time": 142.0428906666667,
            "velocity": 0.7874015748031497
          },
          {
            "duration": 0.2542359999999917,
            "durationTicks": 240,
            "midi": 108,
            "name": "C8",
            "ticks": 132800,
            "time": 142.21238133333335,
            "velocity": 0.7874015748031497
          },
          {
            "duration": 0.08474533333333056,
            "durationTicks": 80,
            "midi": 108,
            "name": "C8",
            "ticks": 133120,
            "time": 142.55136266666668,
            "velocity": 0.7874015748031497
          },
          {
            "duration": 0.08474533333333056,
            "durationTicks": 80,
            "midi": 108,
            "name": "C8",
            "ticks": 133280,
            "time": 142.72085333333334,
            "velocity": 0.7874015748031497
          },
          {
            "duration": 0.12711799999999585,
            "durationTicks": 120,
            "midi": 74,
            "name": "D5",
            "ticks": 133440,
            "time": 142.89034400000003,
            "velocity": 0.7874015748031497
          },
          {
            "duration": 0.12711799999999585,
            "durationTicks": 120,
            "midi": 61,
            "name": "C#4",
            "ticks": 133440,
            "time": 142.89034400000003,
            "velocity": 0.7874015748031497
          },
          {
            "duration": 0.12711799999999585,
            "durationTicks": 120,
            "midi": 86,
            "name": "D6",
            "ticks": 133440,
            "time": 142.89034400000003,
            "velocity": 0.7874015748031497
          },
          {
            "duration": 0.12711799999999585,
            "durationTicks": 120,
            "midi": 87,
            "name": "D#6",
            "ticks": 133440,
            "time": 142.89034400000003,
            "velocity": 0.7874015748031497
          },
          {
            "duration": 0.12711799999999585,
            "durationTicks": 120,
            "midi": 97,
            "name": "C#7",
            "ticks": 133440,
            "time": 142.89034400000003,
            "velocity": 0.7874015748031497
          },
          {
            "duration": 0.12711799999999585,
            "durationTicks": 120,
            "midi": 99,
            "name": "D#7",
            "ticks": 133440,
            "time": 142.89034400000003,
            "velocity": 0.7874015748031497
          },
          {
            "duration": 0.08474533333333056,
            "durationTicks": 80,
            "midi": 108,
            "name": "C8",
            "ticks": 133440,
            "time": 142.89034400000003,
            "velocity": 0.7874015748031497
          },
          {
            "duration": 0.08474533333333056,
            "durationTicks": 80,
            "midi": 108,
            "name": "C8",
            "ticks": 133600,
            "time": 143.0598346666667,
            "velocity": 0.7874015748031497
          },
          {
            "duration": 0.16949066666666113,
            "durationTicks": 160,
            "midi": 108,
            "name": "C8",
            "ticks": 133760,
            "time": 143.22932533333335,
            "velocity": 0.7874015748031497
          },
          {
            "duration": 0.12711799999999585,
            "durationTicks": 120,
            "midi": 73,
            "name": "C#5",
            "ticks": 133920,
            "time": 143.398816,
            "velocity": 0.7874015748031497
          },
          {
            "duration": 0.12711799999999585,
            "durationTicks": 120,
            "midi": 60,
            "name": "C4",
            "ticks": 133920,
            "time": 143.398816,
            "velocity": 0.7874015748031497
          },
          {
            "duration": 0.12711799999999585,
            "durationTicks": 120,
            "midi": 87,
            "name": "D#6",
            "ticks": 133920,
            "time": 143.398816,
            "velocity": 0.7874015748031497
          },
          {
            "duration": 0.12711799999999585,
            "durationTicks": 120,
            "midi": 85,
            "name": "C#6",
            "ticks": 133920,
            "time": 143.398816,
            "velocity": 0.7874015748031497
          },
          {
            "duration": 0.12711799999999585,
            "durationTicks": 120,
            "midi": 98,
            "name": "D7",
            "ticks": 133920,
            "time": 143.398816,
            "velocity": 0.7874015748031497
          },
          {
            "duration": 0.12711799999999585,
            "durationTicks": 120,
            "midi": 97,
            "name": "C#7",
            "ticks": 133920,
            "time": 143.398816,
            "velocity": 0.7874015748031497
          },
          {
            "duration": 0.08474533333335899,
            "durationTicks": 80,
            "midi": 108,
            "name": "C8",
            "ticks": 134240,
            "time": 143.73779733333333,
            "velocity": 0.7874015748031497
          },
          {
            "duration": 0.12552299999998695,
            "durationTicks": 120,
            "midi": 74,
            "name": "D5",
            "ticks": 134400,
            "time": 143.90728800000002,
            "velocity": 0.7874015748031497
          },
          {
            "duration": 0.12552299999998695,
            "durationTicks": 120,
            "midi": 75,
            "name": "D#5",
            "ticks": 134400,
            "time": 143.90728800000002,
            "velocity": 0.7874015748031497
          },
          {
            "duration": 0.12552299999998695,
            "durationTicks": 120,
            "midi": 61,
            "name": "C#4",
            "ticks": 134400,
            "time": 143.90728800000002,
            "velocity": 0.7874015748031497
          },
          {
            "duration": 0.12552299999998695,
            "durationTicks": 120,
            "midi": 86,
            "name": "D6",
            "ticks": 134400,
            "time": 143.90728800000002,
            "velocity": 0.7874015748031497
          },
          {
            "duration": 0.12552299999998695,
            "durationTicks": 120,
            "midi": 87,
            "name": "D#6",
            "ticks": 134400,
            "time": 143.90728800000002,
            "velocity": 0.7874015748031497
          },
          {
            "duration": 0.12552299999998695,
            "durationTicks": 120,
            "midi": 97,
            "name": "C#7",
            "ticks": 134400,
            "time": 143.90728800000002,
            "velocity": 0.7874015748031497
          },
          {
            "duration": 0.12552299999998695,
            "durationTicks": 120,
            "midi": 99,
            "name": "D#7",
            "ticks": 134400,
            "time": 143.90728800000002,
            "velocity": 0.7874015748031497
          },
          {
            "duration": 0.08368200000001025,
            "durationTicks": 80,
            "midi": 108,
            "name": "C8",
            "ticks": 134400,
            "time": 143.90728800000002,
            "velocity": 0.7874015748031497
          },
          {
            "duration": 0.08368200000001025,
            "durationTicks": 80,
            "midi": 108,
            "name": "C8",
            "ticks": 134560,
            "time": 144.07465200000001,
            "velocity": 0.7874015748031497
          },
          {
            "duration": 0.33472799999998415,
            "durationTicks": 320,
            "midi": 108,
            "name": "C8",
            "ticks": 134720,
            "time": 144.24201600000004,
            "velocity": 0.7874015748031497
          },
          {
            "duration": 0.12552299999998695,
            "durationTicks": 120,
            "midi": 74,
            "name": "D5",
            "ticks": 134880,
            "time": 144.40938000000003,
            "velocity": 0.7874015748031497
          },
          {
            "duration": 0.12552299999998695,
            "durationTicks": 120,
            "midi": 62,
            "name": "D4",
            "ticks": 134880,
            "time": 144.40938000000003,
            "velocity": 0.7874015748031497
          },
          {
            "duration": 0.12552299999998695,
            "durationTicks": 120,
            "midi": 86,
            "name": "D6",
            "ticks": 134880,
            "time": 144.40938000000003,
            "velocity": 0.7874015748031497
          },
          {
            "duration": 0.12552299999998695,
            "durationTicks": 120,
            "midi": 88,
            "name": "E6",
            "ticks": 134880,
            "time": 144.40938000000003,
            "velocity": 0.7874015748031497
          },
          {
            "duration": 0.12552299999998695,
            "durationTicks": 120,
            "midi": 98,
            "name": "D7",
            "ticks": 134880,
            "time": 144.40938000000003,
            "velocity": 0.7874015748031497
          },
          {
            "duration": 0.12552299999998695,
            "durationTicks": 120,
            "midi": 100,
            "name": "E7",
            "ticks": 134880,
            "time": 144.40938000000003,
            "velocity": 0.7874015748031497
          },
          {
            "duration": 0.08368200000001025,
            "durationTicks": 80,
            "midi": 108,
            "name": "C8",
            "ticks": 135200,
            "time": 144.744108,
            "velocity": 0.7874015748031497
          },
          {
            "duration": 0.08368199999998183,
            "durationTicks": 80,
            "midi": 74,
            "name": "D5",
            "ticks": 135360,
            "time": 144.91147200000003,
            "velocity": 0.7874015748031497
          },
          {
            "duration": 0.08368199999998183,
            "durationTicks": 80,
            "midi": 98,
            "name": "D7",
            "ticks": 135360,
            "time": 144.91147200000003,
            "velocity": 0.7874015748031497
          },
          {
            "duration": 0.08368199999998183,
            "durationTicks": 80,
            "midi": 86,
            "name": "D6",
            "ticks": 135360,
            "time": 144.91147200000003,
            "velocity": 0.7874015748031497
          },
          {
            "duration": 0.08368199999998183,
            "durationTicks": 80,
            "midi": 75,
            "name": "D#5",
            "ticks": 135360,
            "time": 144.91147200000003,
            "velocity": 0.7874015748031497
          },
          {
            "duration": 0.12552299999998695,
            "durationTicks": 120,
            "midi": 61,
            "name": "C#4",
            "ticks": 135360,
            "time": 144.91147200000003,
            "velocity": 0.7874015748031497
          },
          {
            "duration": 0.08368199999998183,
            "durationTicks": 80,
            "midi": 87,
            "name": "D#6",
            "ticks": 135360,
            "time": 144.91147200000003,
            "velocity": 0.7874015748031497
          },
          {
            "duration": 0.08368199999998183,
            "durationTicks": 80,
            "midi": 99,
            "name": "D#7",
            "ticks": 135360,
            "time": 144.91147200000003,
            "velocity": 0.7874015748031497
          },
          {
            "duration": 0.16736399999999207,
            "durationTicks": 160,
            "midi": 108,
            "name": "C8",
            "ticks": 135360,
            "time": 144.91147200000003,
            "velocity": 0.7874015748031497
          },
          {
            "duration": 0.8771047499999725,
            "durationTicks": 840,
            "midi": 100,
            "name": "E7",
            "ticks": 135600,
            "time": 145.16251800000003,
            "velocity": 0.7874015748031497
          },
          {
            "duration": 0.8771047499999725,
            "durationTicks": 840,
            "midi": 99,
            "name": "D#7",
            "ticks": 135600,
            "time": 145.16251800000003,
            "velocity": 0.7874015748031497
          },
          {
            "duration": 0.8771047499999725,
            "durationTicks": 840,
            "midi": 88,
            "name": "E6",
            "ticks": 135600,
            "time": 145.16251800000003,
            "velocity": 0.7874015748031497
          },
          {
            "duration": 0.8771047499999725,
            "durationTicks": 840,
            "midi": 87,
            "name": "D#6",
            "ticks": 135600,
            "time": 145.16251800000003,
            "velocity": 0.7874015748031497
          },
          {
            "duration": 0.8771047499999725,
            "durationTicks": 840,
            "midi": 62,
            "name": "D4",
            "ticks": 135600,
            "time": 145.16251800000003,
            "velocity": 0.7874015748031497
          },
          {
            "duration": 0.8771047499999725,
            "durationTicks": 840,
            "midi": 75,
            "name": "D#5",
            "ticks": 135600,
            "time": 145.16251800000003,
            "velocity": 0.7874015748031497
          },
          {
            "duration": 0.08368200000001025,
            "durationTicks": 80,
            "midi": 108,
            "name": "C8",
            "ticks": 135680,
            "time": 145.24620000000002,
            "velocity": 0.7874015748031497
          },
          {
            "duration": 0.750025499999964,
            "durationTicks": 720,
            "midi": 108,
            "name": "C8",
            "ticks": 135840,
            "time": 145.41356400000004,
            "velocity": 0.7874015748031497
          },
          {
            "duration": 1.5289232499999912,
            "durationTicks": 1480,
            "midi": 60,
            "name": "C4",
            "ticks": 136640,
            "time": 146.24623400000002,
            "velocity": 0.7874015748031497
          },
          {
            "duration": 1.5289232499999912,
            "durationTicks": 1480,
            "midi": 72,
            "name": "C5",
            "ticks": 136640,
            "time": 146.24623400000002,
            "velocity": 0.7874015748031497
          },
          {
            "duration": 1.5289232499999912,
            "durationTicks": 1480,
            "midi": 74,
            "name": "D5",
            "ticks": 136640,
            "time": 146.24623400000002,
            "velocity": 0.7874015748031497
          },
          {
            "duration": 1.5289232499999912,
            "durationTicks": 1480,
            "midi": 61,
            "name": "C#4",
            "ticks": 136640,
            "time": 146.24623400000002,
            "velocity": 0.7874015748031497
          },
          {
            "duration": 1.5289232499999912,
            "durationTicks": 1480,
            "midi": 84,
            "name": "C6",
            "ticks": 136640,
            "time": 146.24623400000002,
            "velocity": 0.7874015748031497
          },
          {
            "duration": 1.5289232499999912,
            "durationTicks": 1480,
            "midi": 86,
            "name": "D6",
            "ticks": 136640,
            "time": 146.24623400000002,
            "velocity": 0.7874015748031497
          },
          {
            "duration": 1.5289232499999912,
            "durationTicks": 1480,
            "midi": 96,
            "name": "C7",
            "ticks": 136640,
            "time": 146.24623400000002,
            "velocity": 0.7874015748031497
          },
          {
            "duration": 1.5289232499999912,
            "durationTicks": 1480,
            "midi": 98,
            "name": "D7",
            "ticks": 136640,
            "time": 146.24623400000002,
            "velocity": 0.7874015748031497
          },
          {
            "duration": 0.49586699999997563,
            "durationTicks": 480,
            "midi": 108,
            "name": "C8",
            "ticks": 137600,
            "time": 147.23796800000002,
            "velocity": 0.7874015748031497
          },
          {
            "duration": 0.12658149999998614,
            "durationTicks": 120,
            "midi": 73,
            "name": "C#5",
            "ticks": 138240,
            "time": 147.899124,
            "velocity": 0.7874015748031497
          },
          {
            "duration": 0.12658149999998614,
            "durationTicks": 120,
            "midi": 60,
            "name": "C4",
            "ticks": 138240,
            "time": 147.899124,
            "velocity": 0.7874015748031497
          },
          {
            "duration": 0.12658149999998614,
            "durationTicks": 120,
            "midi": 85,
            "name": "C#6",
            "ticks": 138240,
            "time": 147.899124,
            "velocity": 0.7874015748031497
          },
          {
            "duration": 0.12658149999998614,
            "durationTicks": 120,
            "midi": 97,
            "name": "C#7",
            "ticks": 138240,
            "time": 147.899124,
            "velocity": 0.7874015748031497
          },
          {
            "duration": 0.08438766666665742,
            "durationTicks": 80,
            "midi": 108,
            "name": "C8",
            "ticks": 138240,
            "time": 147.899124,
            "velocity": 0.7874015748031497
          },
          {
            "duration": 0.08438766666665742,
            "durationTicks": 80,
            "midi": 108,
            "name": "C8",
            "ticks": 138400,
            "time": 148.06789933333334,
            "velocity": 0.7874015748031497
          },
          {
            "duration": 0.42193833333334396,
            "durationTicks": 400,
            "midi": 108,
            "name": "C8",
            "ticks": 138560,
            "time": 148.23667466666666,
            "velocity": 0.7874015748031497
          },
          {
            "duration": 0.12658149999998614,
            "durationTicks": 120,
            "midi": 75,
            "name": "D#5",
            "ticks": 138720,
            "time": 148.40545,
            "velocity": 0.7874015748031497
          },
          {
            "duration": 0.12658149999998614,
            "durationTicks": 120,
            "midi": 62,
            "name": "D4",
            "ticks": 138720,
            "time": 148.40545,
            "velocity": 0.7874015748031497
          },
          {
            "duration": 0.12658149999998614,
            "durationTicks": 120,
            "midi": 86,
            "name": "D6",
            "ticks": 138720,
            "time": 148.40545,
            "velocity": 0.7874015748031497
          },
          {
            "duration": 0.12658149999998614,
            "durationTicks": 120,
            "midi": 88,
            "name": "E6",
            "ticks": 138720,
            "time": 148.40545,
            "velocity": 0.7874015748031497
          },
          {
            "duration": 0.12658149999998614,
            "durationTicks": 120,
            "midi": 98,
            "name": "D7",
            "ticks": 138720,
            "time": 148.40545,
            "velocity": 0.7874015748031497
          },
          {
            "duration": 0.12658149999998614,
            "durationTicks": 120,
            "midi": 100,
            "name": "E7",
            "ticks": 138720,
            "time": 148.40545,
            "velocity": 0.7874015748031497
          },
          {
            "duration": 0.08438766666668585,
            "durationTicks": 80,
            "midi": 108,
            "name": "C8",
            "ticks": 139040,
            "time": 148.74300066666666,
            "velocity": 0.7874015748031497
          },
          {
            "duration": 0.08438766666668585,
            "durationTicks": 80,
            "midi": 97,
            "name": "C#7",
            "ticks": 139040,
            "time": 148.74300066666666,
            "velocity": 0.7874015748031497
          },
          {
            "duration": 0.12658149999998614,
            "durationTicks": 120,
            "midi": 74,
            "name": "D5",
            "ticks": 139200,
            "time": 148.911776,
            "velocity": 0.7874015748031497
          },
          {
            "duration": 0.12658149999998614,
            "durationTicks": 120,
            "midi": 61,
            "name": "C#4",
            "ticks": 139200,
            "time": 148.911776,
            "velocity": 0.7874015748031497
          },
          {
            "duration": 0.12658149999998614,
            "durationTicks": 120,
            "midi": 86,
            "name": "D6",
            "ticks": 139200,
            "time": 148.911776,
            "velocity": 0.7874015748031497
          },
          {
            "duration": 0.12658149999998614,
            "durationTicks": 120,
            "midi": 98,
            "name": "D7",
            "ticks": 139200,
            "time": 148.911776,
            "velocity": 0.7874015748031497
          },
          {
            "duration": 0.08438766666665742,
            "durationTicks": 80,
            "midi": 108,
            "name": "C8",
            "ticks": 139200,
            "time": 148.911776,
            "velocity": 0.7874015748031497
          },
          {
            "duration": 0.08438766666665742,
            "durationTicks": 80,
            "midi": 108,
            "name": "C8",
            "ticks": 139360,
            "time": 149.08055133333335,
            "velocity": 0.7874015748031497
          },
          {
            "duration": 0.2531630000000007,
            "durationTicks": 240,
            "midi": 108,
            "name": "C8",
            "ticks": 139520,
            "time": 149.24932666666666,
            "velocity": 0.7874015748031497
          },
          {
            "duration": 0.12658149999998614,
            "durationTicks": 120,
            "midi": 75,
            "name": "D#5",
            "ticks": 139680,
            "time": 149.418102,
            "velocity": 0.7874015748031497
          },
          {
            "duration": 0.12658149999998614,
            "durationTicks": 120,
            "midi": 62,
            "name": "D4",
            "ticks": 139680,
            "time": 149.418102,
            "velocity": 0.7874015748031497
          },
          {
            "duration": 0.12658149999998614,
            "durationTicks": 120,
            "midi": 87,
            "name": "D#6",
            "ticks": 139680,
            "time": 149.418102,
            "velocity": 0.7874015748031497
          },
          {
            "duration": 0.12658149999998614,
            "durationTicks": 120,
            "midi": 88,
            "name": "E6",
            "ticks": 139680,
            "time": 149.418102,
            "velocity": 0.7874015748031497
          },
          {
            "duration": 0.12658149999998614,
            "durationTicks": 120,
            "midi": 99,
            "name": "D#7",
            "ticks": 139680,
            "time": 149.418102,
            "velocity": 0.7874015748031497
          },
          {
            "duration": 0.12658149999998614,
            "durationTicks": 120,
            "midi": 100,
            "name": "E7",
            "ticks": 139680,
            "time": 149.418102,
            "velocity": 0.7874015748031497
          },
          {
            "duration": 0.08438766666665742,
            "durationTicks": 80,
            "midi": 108,
            "name": "C8",
            "ticks": 140000,
            "time": 149.75565266666666,
            "velocity": 0.7874015748031497
          },
          {
            "duration": 0.08438766666665742,
            "durationTicks": 80,
            "midi": 97,
            "name": "C#7",
            "ticks": 140000,
            "time": 149.75565266666666,
            "velocity": 0.7874015748031497
          },
          {
            "duration": 20.36621028124995,
            "durationTicks": 19560,
            "midi": 106,
            "name": "A#7",
            "ticks": 140145,
            "time": 149.90860531250001,
            "velocity": 0.7874015748031497
          },
          {
            "duration": 20.324716531249948,
            "durationTicks": 19520,
            "midi": 94,
            "name": "A#6",
            "ticks": 140145,
            "time": 149.90860531250001,
            "velocity": 0.7874015748031497
          },
          {
            "duration": 20.324716531249948,
            "durationTicks": 19520,
            "midi": 70,
            "name": "A#4",
            "ticks": 140145,
            "time": 149.90860531250001,
            "velocity": 0.7874015748031497
          },
          {
            "duration": 20.324716531249948,
            "durationTicks": 19520,
            "midi": 82,
            "name": "A#5",
            "ticks": 140145,
            "time": 149.90860531250001,
            "velocity": 0.7874015748031497
          },
          {
            "duration": 0.12658149999998614,
            "durationTicks": 120,
            "midi": 72,
            "name": "C5",
            "ticks": 140160,
            "time": 149.924428,
            "velocity": 0.7874015748031497
          },
          {
            "duration": 0.12658149999998614,
            "durationTicks": 120,
            "midi": 60,
            "name": "C4",
            "ticks": 140160,
            "time": 149.924428,
            "velocity": 0.7874015748031497
          },
          {
            "duration": 0.12658149999998614,
            "durationTicks": 120,
            "midi": 84,
            "name": "C6",
            "ticks": 140160,
            "time": 149.924428,
            "velocity": 0.7874015748031497
          },
          {
            "duration": 0.12658149999998614,
            "durationTicks": 120,
            "midi": 96,
            "name": "C7",
            "ticks": 140160,
            "time": 149.924428,
            "velocity": 0.7874015748031497
          },
          {
            "duration": 0.2531630000000007,
            "durationTicks": 240,
            "midi": 108,
            "name": "C8",
            "ticks": 140160,
            "time": 149.924428,
            "velocity": 0.7874015748031497
          },
          {
            "duration": 0.08438766666665742,
            "durationTicks": 80,
            "midi": 108,
            "name": "C8",
            "ticks": 140480,
            "time": 150.26197866666666,
            "velocity": 0.7874015748031497
          },
          {
            "duration": 0.12658149999998614,
            "durationTicks": 120,
            "midi": 74,
            "name": "D5",
            "ticks": 140640,
            "time": 150.430754,
            "velocity": 0.7874015748031497
          },
          {
            "duration": 0.12658149999998614,
            "durationTicks": 120,
            "midi": 61,
            "name": "C#4",
            "ticks": 140640,
            "time": 150.430754,
            "velocity": 0.7874015748031497
          },
          {
            "duration": 0.12658149999998614,
            "durationTicks": 120,
            "midi": 87,
            "name": "D#6",
            "ticks": 140640,
            "time": 150.430754,
            "velocity": 0.7874015748031497
          },
          {
            "duration": 0.12658149999998614,
            "durationTicks": 120,
            "midi": 85,
            "name": "C#6",
            "ticks": 140640,
            "time": 150.430754,
            "velocity": 0.7874015748031497
          },
          {
            "duration": 0.12658149999998614,
            "durationTicks": 120,
            "midi": 99,
            "name": "D#7",
            "ticks": 140640,
            "time": 150.430754,
            "velocity": 0.7874015748031497
          },
          {
            "duration": 0.12658149999998614,
            "durationTicks": 120,
            "midi": 97,
            "name": "C#7",
            "ticks": 140640,
            "time": 150.430754,
            "velocity": 0.7874015748031497
          },
          {
            "duration": 0.16877533333331485,
            "durationTicks": 160,
            "midi": 108,
            "name": "C8",
            "ticks": 140640,
            "time": 150.430754,
            "velocity": 0.7874015748031497
          },
          {
            "duration": 0.08438766666665742,
            "durationTicks": 80,
            "midi": 108,
            "name": "C8",
            "ticks": 140960,
            "time": 150.76830466666667,
            "velocity": 0.7874015748031497
          },
          {
            "duration": 0.12658149999998614,
            "durationTicks": 120,
            "midi": 73,
            "name": "C#5",
            "ticks": 141120,
            "time": 150.93708,
            "velocity": 0.7874015748031497
          },
          {
            "duration": 0.12658149999998614,
            "durationTicks": 120,
            "midi": 60,
            "name": "C4",
            "ticks": 141120,
            "time": 150.93708,
            "velocity": 0.7874015748031497
          },
          {
            "duration": 0.12658149999998614,
            "durationTicks": 120,
            "midi": 85,
            "name": "C#6",
            "ticks": 141120,
            "time": 150.93708,
            "velocity": 0.7874015748031497
          },
          {
            "duration": 0.12658149999998614,
            "durationTicks": 120,
            "midi": 97,
            "name": "C#7",
            "ticks": 141120,
            "time": 150.93708,
            "velocity": 0.7874015748031497
          },
          {
            "duration": 0.08438766666665742,
            "durationTicks": 80,
            "midi": 108,
            "name": "C8",
            "ticks": 141120,
            "time": 150.93708,
            "velocity": 0.7874015748031497
          },
          {
            "duration": 0.08438766666668585,
            "durationTicks": 80,
            "midi": 108,
            "name": "C8",
            "ticks": 141280,
            "time": 151.10585533333332,
            "velocity": 0.7874015748031497
          },
          {
            "duration": 0.3375506666666581,
            "durationTicks": 320,
            "midi": 108,
            "name": "C8",
            "ticks": 141440,
            "time": 151.27463066666667,
            "velocity": 0.7874015748031497
          },
          {
            "duration": 0.12658149999998614,
            "durationTicks": 120,
            "midi": 74,
            "name": "D5",
            "ticks": 141600,
            "time": 151.443406,
            "velocity": 0.7874015748031497
          },
          {
            "duration": 0.12658149999998614,
            "durationTicks": 120,
            "midi": 62,
            "name": "D4",
            "ticks": 141600,
            "time": 151.443406,
            "velocity": 0.7874015748031497
          },
          {
            "duration": 0.12658149999998614,
            "durationTicks": 120,
            "midi": 86,
            "name": "D6",
            "ticks": 141600,
            "time": 151.443406,
            "velocity": 0.7874015748031497
          },
          {
            "duration": 0.12658149999998614,
            "durationTicks": 120,
            "midi": 87,
            "name": "D#6",
            "ticks": 141600,
            "time": 151.443406,
            "velocity": 0.7874015748031497
          },
          {
            "duration": 0.12658149999998614,
            "durationTicks": 120,
            "midi": 98,
            "name": "D7",
            "ticks": 141600,
            "time": 151.443406,
            "velocity": 0.7874015748031497
          },
          {
            "duration": 0.12658149999998614,
            "durationTicks": 120,
            "midi": 99,
            "name": "D#7",
            "ticks": 141600,
            "time": 151.443406,
            "velocity": 0.7874015748031497
          },
          {
            "duration": 0.08264449999998646,
            "durationTicks": 80,
            "midi": 73,
            "name": "C#5",
            "ticks": 142080,
            "time": 151.949732,
            "velocity": 0.7874015748031497
          },
          {
            "duration": 0.12396674999999391,
            "durationTicks": 120,
            "midi": 74,
            "name": "D5",
            "ticks": 142080,
            "time": 151.949732,
            "velocity": 0.7874015748031497
          },
          {
            "duration": 0.12396674999999391,
            "durationTicks": 120,
            "midi": 61,
            "name": "C#4",
            "ticks": 142080,
            "time": 151.949732,
            "velocity": 0.7874015748031497
          },
          {
            "duration": 0.12396674999999391,
            "durationTicks": 120,
            "midi": 85,
            "name": "C#6",
            "ticks": 142080,
            "time": 151.949732,
            "velocity": 0.7874015748031497
          },
          {
            "duration": 0.12396674999999391,
            "durationTicks": 120,
            "midi": 87,
            "name": "D#6",
            "ticks": 142080,
            "time": 151.949732,
            "velocity": 0.7874015748031497
          },
          {
            "duration": 0.12396674999999391,
            "durationTicks": 120,
            "midi": 97,
            "name": "C#7",
            "ticks": 142080,
            "time": 151.949732,
            "velocity": 0.7874015748031497
          },
          {
            "duration": 0.12396674999999391,
            "durationTicks": 120,
            "midi": 99,
            "name": "D#7",
            "ticks": 142080,
            "time": 151.949732,
            "velocity": 0.7874015748031497
          },
          {
            "duration": 1.1570230000000095,
            "durationTicks": 1120,
            "midi": 72,
            "name": "C5",
            "ticks": 142400,
            "time": 152.28031000000001,
            "velocity": 0.7874015748031497
          },
          {
            "duration": 1.1570230000000095,
            "durationTicks": 1120,
            "midi": 74,
            "name": "D5",
            "ticks": 142400,
            "time": 152.28031000000001,
            "velocity": 0.7874015748031497
          },
          {
            "duration": 1.1570230000000095,
            "durationTicks": 1120,
            "midi": 60,
            "name": "C4",
            "ticks": 142400,
            "time": 152.28031000000001,
            "velocity": 0.7874015748031497
          },
          {
            "duration": 1.1570230000000095,
            "durationTicks": 1120,
            "midi": 61,
            "name": "C#4",
            "ticks": 142400,
            "time": 152.28031000000001,
            "velocity": 0.7874015748031497
          },
          {
            "duration": 1.1570230000000095,
            "durationTicks": 1120,
            "midi": 84,
            "name": "C6",
            "ticks": 142400,
            "time": 152.28031000000001,
            "velocity": 0.7874015748031497
          },
          {
            "duration": 1.1570230000000095,
            "durationTicks": 1120,
            "midi": 86,
            "name": "D6",
            "ticks": 142400,
            "time": 152.28031000000001,
            "velocity": 0.7874015748031497
          },
          {
            "duration": 1.1570230000000095,
            "durationTicks": 1120,
            "midi": 96,
            "name": "C7",
            "ticks": 142400,
            "time": 152.28031000000001,
            "velocity": 0.7874015748031497
          },
          {
            "duration": 1.1570230000000095,
            "durationTicks": 1120,
            "midi": 98,
            "name": "D7",
            "ticks": 142400,
            "time": 152.28031000000001,
            "velocity": 0.7874015748031497
          },
          {
            "duration": 0.08264449999998646,
            "durationTicks": 80,
            "midi": 108,
            "name": "C8",
            "ticks": 142560,
            "time": 152.44559900000002,
            "velocity": 0.7874015748031497
          },
          {
            "duration": 0.08264449999998646,
            "durationTicks": 80,
            "midi": 108,
            "name": "C8",
            "ticks": 142720,
            "time": 152.61088800000002,
            "velocity": 0.7874015748031497
          },
          {
            "duration": 3.333457333333314,
            "durationTicks": 3200,
            "midi": 108,
            "name": "C8",
            "ticks": 142880,
            "time": 152.77617700000002,
            "velocity": 0.7874015748031497
          },
          {
            "duration": 15.684030218749967,
            "durationTicks": 15080,
            "midi": 105,
            "name": "A7",
            "ticks": 145065,
            "time": 155.047216625,
            "velocity": 0.7874015748031497
          },
          {
            "duration": 15.684030218749967,
            "durationTicks": 15080,
            "midi": 93,
            "name": "A6",
            "ticks": 145065,
            "time": 155.047216625,
            "velocity": 0.7874015748031497
          },
          {
            "duration": 15.684030218749967,
            "durationTicks": 15080,
            "midi": 69,
            "name": "A4",
            "ticks": 145065,
            "time": 155.047216625,
            "velocity": 0.7874015748031497
          },
          {
            "duration": 15.684030218749967,
            "durationTicks": 15080,
            "midi": 81,
            "name": "A5",
            "ticks": 145065,
            "time": 155.047216625,
            "velocity": 0.7874015748031497
          },
          {
            "duration": 4.678082218749978,
            "durationTicks": 4480,
            "midi": 91,
            "name": "G6",
            "ticks": 145265,
            "time": 155.256421625,
            "velocity": 0.7874015748031497
          },
          {
            "duration": 4.678082218749978,
            "durationTicks": 4480,
            "midi": 103,
            "name": "G7",
            "ticks": 145265,
            "time": 155.256421625,
            "velocity": 0.7874015748031497
          },
          {
            "duration": 0.12552300000001537,
            "durationTicks": 120,
            "midi": 85,
            "name": "C#6",
            "ticks": 145320,
            "time": 155.313953,
            "velocity": 0.7874015748031497
          },
          {
            "duration": 0.12552300000001537,
            "durationTicks": 120,
            "midi": 97,
            "name": "C#7",
            "ticks": 145320,
            "time": 155.313953,
            "velocity": 0.7874015748031497
          },
          {
            "duration": 4.5937057187499875,
            "durationTicks": 4400,
            "midi": 67,
            "name": "G4",
            "ticks": 145425,
            "time": 155.423785625,
            "velocity": 0.7874015748031497
          },
          {
            "duration": 4.510718218749986,
            "durationTicks": 4320,
            "midi": 79,
            "name": "G5",
            "ticks": 145425,
            "time": 155.423785625,
            "velocity": 0.7874015748031497
          },
          {
            "duration": 1.76258949999999,
            "durationTicks": 1680,
            "midi": 75,
            "name": "D#5",
            "ticks": 145440,
            "time": 155.439476,
            "velocity": 0.7874015748031497
          },
          {
            "duration": 1.76258949999999,
            "durationTicks": 1680,
            "midi": 74,
            "name": "D5",
            "ticks": 145440,
            "time": 155.439476,
            "velocity": 0.7874015748031497
          },
          {
            "duration": 1.76258949999999,
            "durationTicks": 1680,
            "midi": 62,
            "name": "D4",
            "ticks": 145440,
            "time": 155.439476,
            "velocity": 0.7874015748031497
          },
          {
            "duration": 1.76258949999999,
            "durationTicks": 1680,
            "midi": 61,
            "name": "C#4",
            "ticks": 145440,
            "time": 155.439476,
            "velocity": 0.7874015748031497
          },
          {
            "duration": 1.76258949999999,
            "durationTicks": 1680,
            "midi": 85,
            "name": "C#6",
            "ticks": 145440,
            "time": 155.439476,
            "velocity": 0.7874015748031497
          },
          {
            "duration": 0.12552299999998695,
            "durationTicks": 120,
            "midi": 97,
            "name": "C#7",
            "ticks": 145440,
            "time": 155.439476,
            "velocity": 0.7874015748031497
          },
          {
            "duration": 1.76258949999999,
            "durationTicks": 1680,
            "midi": 87,
            "name": "D#6",
            "ticks": 145440,
            "time": 155.439476,
            "velocity": 0.7874015748031497
          },
          {
            "duration": 0.12552299999998695,
            "durationTicks": 120,
            "midi": 100,
            "name": "E7",
            "ticks": 145440,
            "time": 155.439476,
            "velocity": 0.7874015748031497
          },
          {
            "duration": 1.427861500000006,
            "durationTicks": 1360,
            "midi": 100,
            "name": "E7",
            "ticks": 145760,
            "time": 155.774204,
            "velocity": 0.7874015748031497
          },
          {
            "duration": 1.427861500000006,
            "durationTicks": 1360,
            "midi": 97,
            "name": "C#7",
            "ticks": 145760,
            "time": 155.774204,
            "velocity": 0.7874015748031497
          },
          {
            "duration": 0.12604974999999286,
            "durationTicks": 120,
            "midi": 108,
            "name": "C8",
            "ticks": 146400,
            "time": 156.445767,
            "velocity": 0.7874015748031497
          },
          {
            "duration": 0.12604974999999286,
            "durationTicks": 120,
            "midi": 108,
            "name": "C8",
            "ticks": 146560,
            "time": 156.61383333333333,
            "velocity": 0.7874015748031497
          },
          {
            "duration": 1.5084143333333486,
            "durationTicks": 1440,
            "midi": 108,
            "name": "C8",
            "ticks": 146720,
            "time": 156.78189966666665,
            "velocity": 0.7874015748031497
          },
          {
            "duration": 0.12604975000002128,
            "durationTicks": 120,
            "midi": 74,
            "name": "D5",
            "ticks": 147200,
            "time": 157.28609866666665,
            "velocity": 0.7874015748031497
          },
          {
            "duration": 0.12604975000002128,
            "durationTicks": 120,
            "midi": 85,
            "name": "C#6",
            "ticks": 147200,
            "time": 157.28609866666665,
            "velocity": 0.7874015748031497
          },
          {
            "duration": 0.12604975000002128,
            "durationTicks": 120,
            "midi": 97,
            "name": "C#7",
            "ticks": 147200,
            "time": 157.28609866666665,
            "velocity": 0.7874015748031497
          },
          {
            "duration": 0.12604974999999286,
            "durationTicks": 120,
            "midi": 61,
            "name": "C#4",
            "ticks": 147360,
            "time": 157.454165,
            "velocity": 0.7874015748031497
          },
          {
            "duration": 0.12604974999999286,
            "durationTicks": 120,
            "midi": 85,
            "name": "C#6",
            "ticks": 147360,
            "time": 157.454165,
            "velocity": 0.7874015748031497
          },
          {
            "duration": 0.12604974999999286,
            "durationTicks": 120,
            "midi": 97,
            "name": "C#7",
            "ticks": 147360,
            "time": 157.454165,
            "velocity": 0.7874015748031497
          },
          {
            "duration": 0.12604974999999286,
            "durationTicks": 120,
            "midi": 100,
            "name": "E7",
            "ticks": 147360,
            "time": 157.454165,
            "velocity": 0.7874015748031497
          },
          {
            "duration": 0.12604974999999286,
            "durationTicks": 120,
            "midi": 75,
            "name": "D#5",
            "ticks": 147360,
            "time": 157.454165,
            "velocity": 0.7874015748031497
          },
          {
            "duration": 0.12604974999999286,
            "durationTicks": 120,
            "midi": 87,
            "name": "D#6",
            "ticks": 147360,
            "time": 157.454165,
            "velocity": 0.7874015748031497
          },
          {
            "duration": 0.12604974999999286,
            "durationTicks": 120,
            "midi": 74,
            "name": "D5",
            "ticks": 147360,
            "time": 157.454165,
            "velocity": 0.7874015748031497
          },
          {
            "duration": 0.12604974999999286,
            "durationTicks": 120,
            "midi": 62,
            "name": "D4",
            "ticks": 147360,
            "time": 157.454165,
            "velocity": 0.7874015748031497
          },
          {
            "duration": 2.1597663333333514,
            "durationTicks": 2080,
            "midi": 74,
            "name": "D5",
            "ticks": 147680,
            "time": 157.79029766666665,
            "velocity": 0.7874015748031497
          },
          {
            "duration": 2.1597663333333514,
            "durationTicks": 2080,
            "midi": 75,
            "name": "D#5",
            "ticks": 147680,
            "time": 157.79029766666665,
            "velocity": 0.7874015748031497
          },
          {
            "duration": 2.1597663333333514,
            "durationTicks": 2080,
            "midi": 61,
            "name": "C#4",
            "ticks": 147680,
            "time": 157.79029766666665,
            "velocity": 0.7874015748031497
          },
          {
            "duration": 2.1597663333333514,
            "durationTicks": 2080,
            "midi": 62,
            "name": "D4",
            "ticks": 147680,
            "time": 157.79029766666665,
            "velocity": 0.7874015748031497
          },
          {
            "duration": 2.1597663333333514,
            "durationTicks": 2080,
            "midi": 85,
            "name": "C#6",
            "ticks": 147680,
            "time": 157.79029766666665,
            "velocity": 0.7874015748031497
          },
          {
            "duration": 2.1597663333333514,
            "durationTicks": 2080,
            "midi": 87,
            "name": "D#6",
            "ticks": 147680,
            "time": 157.79029766666665,
            "velocity": 0.7874015748031497
          },
          {
            "duration": 2.1597663333333514,
            "durationTicks": 2080,
            "midi": 97,
            "name": "C#7",
            "ticks": 147680,
            "time": 157.79029766666665,
            "velocity": 0.7874015748031497
          },
          {
            "duration": 2.1597663333333514,
            "durationTicks": 2080,
            "midi": 100,
            "name": "E7",
            "ticks": 147680,
            "time": 157.79029766666665,
            "velocity": 0.7874015748031497
          },
          {
            "duration": 0.08298750000000155,
            "durationTicks": 80,
            "midi": 100,
            "name": "E7",
            "ticks": 151200,
            "time": 161.443839,
            "velocity": 0.7874015748031497
          },
          {
            "duration": 0.08298750000000155,
            "durationTicks": 80,
            "midi": 98,
            "name": "D7",
            "ticks": 151200,
            "time": 161.443839,
            "velocity": 0.7874015748031497
          },
          {
            "duration": 0.08298750000000155,
            "durationTicks": 80,
            "midi": 88,
            "name": "E6",
            "ticks": 151200,
            "time": 161.443839,
            "velocity": 0.7874015748031497
          },
          {
            "duration": 0.08298750000000155,
            "durationTicks": 80,
            "midi": 86,
            "name": "D6",
            "ticks": 151200,
            "time": 161.443839,
            "velocity": 0.7874015748031497
          },
          {
            "duration": 0.08298750000000155,
            "durationTicks": 80,
            "midi": 74,
            "name": "D5",
            "ticks": 151200,
            "time": 161.443839,
            "velocity": 0.7874015748031497
          },
          {
            "duration": 0.08298750000000155,
            "durationTicks": 80,
            "midi": 62,
            "name": "D4",
            "ticks": 151200,
            "time": 161.443839,
            "velocity": 0.7874015748031497
          },
          {
            "duration": 0.08298750000000155,
            "durationTicks": 80,
            "midi": 75,
            "name": "D#5",
            "ticks": 151200,
            "time": 161.443839,
            "velocity": 0.7874015748031497
          },
          {
            "duration": 1.499308333333346,
            "durationTicks": 1440,
            "midi": 100,
            "name": "E7",
            "ticks": 151520,
            "time": 161.77578899999997,
            "velocity": 0.7874015748031497
          },
          {
            "duration": 1.499308333333346,
            "durationTicks": 1440,
            "midi": 98,
            "name": "D7",
            "ticks": 151520,
            "time": 161.77578899999997,
            "velocity": 0.7874015748031497
          },
          {
            "duration": 1.499308333333346,
            "durationTicks": 1440,
            "midi": 88,
            "name": "E6",
            "ticks": 151520,
            "time": 161.77578899999997,
            "velocity": 0.7874015748031497
          },
          {
            "duration": 1.499308333333346,
            "durationTicks": 1440,
            "midi": 86,
            "name": "D6",
            "ticks": 151520,
            "time": 161.77578899999997,
            "velocity": 0.7874015748031497
          },
          {
            "duration": 1.499308333333346,
            "durationTicks": 1440,
            "midi": 74,
            "name": "D5",
            "ticks": 151520,
            "time": 161.77578899999997,
            "velocity": 0.7874015748031497
          },
          {
            "duration": 1.499308333333346,
            "durationTicks": 1440,
            "midi": 62,
            "name": "D4",
            "ticks": 151520,
            "time": 161.77578899999997,
            "velocity": 0.7874015748031497
          },
          {
            "duration": 1.499308333333346,
            "durationTicks": 1440,
            "midi": 75,
            "name": "D#5",
            "ticks": 151520,
            "time": 161.77578899999997,
            "velocity": 0.7874015748031497
          },
          {
            "duration": 0.08333333333334281,
            "durationTicks": 80,
            "midi": 100,
            "name": "E7",
            "ticks": 153120,
            "time": 163.44176399999998,
            "velocity": 0.7874015748031497
          },
          {
            "duration": 0.08333333333334281,
            "durationTicks": 80,
            "midi": 98,
            "name": "D7",
            "ticks": 153120,
            "time": 163.44176399999998,
            "velocity": 0.7874015748031497
          },
          {
            "duration": 0.08333333333334281,
            "durationTicks": 80,
            "midi": 88,
            "name": "E6",
            "ticks": 153120,
            "time": 163.44176399999998,
            "velocity": 0.7874015748031497
          },
          {
            "duration": 0.08333333333334281,
            "durationTicks": 80,
            "midi": 86,
            "name": "D6",
            "ticks": 153120,
            "time": 163.44176399999998,
            "velocity": 0.7874015748031497
          },
          {
            "duration": 0.08333333333334281,
            "durationTicks": 80,
            "midi": 74,
            "name": "D5",
            "ticks": 153120,
            "time": 163.44176399999998,
            "velocity": 0.7874015748031497
          },
          {
            "duration": 0.08333333333334281,
            "durationTicks": 80,
            "midi": 62,
            "name": "D4",
            "ticks": 153120,
            "time": 163.44176399999998,
            "velocity": 0.7874015748031497
          },
          {
            "duration": 0.08333333333334281,
            "durationTicks": 80,
            "midi": 75,
            "name": "D#5",
            "ticks": 153120,
            "time": 163.44176399999998,
            "velocity": 0.7874015748031497
          },
          {
            "duration": 1.5,
            "durationTicks": 1440,
            "midi": 100,
            "name": "E7",
            "ticks": 153440,
            "time": 163.77509733333332,
            "velocity": 0.7874015748031497
          },
          {
            "duration": 1.5,
            "durationTicks": 1440,
            "midi": 98,
            "name": "D7",
            "ticks": 153440,
            "time": 163.77509733333332,
            "velocity": 0.7874015748031497
          },
          {
            "duration": 1.5,
            "durationTicks": 1440,
            "midi": 88,
            "name": "E6",
            "ticks": 153440,
            "time": 163.77509733333332,
            "velocity": 0.7874015748031497
          },
          {
            "duration": 1.5,
            "durationTicks": 1440,
            "midi": 86,
            "name": "D6",
            "ticks": 153440,
            "time": 163.77509733333332,
            "velocity": 0.7874015748031497
          },
          {
            "duration": 1.5,
            "durationTicks": 1440,
            "midi": 74,
            "name": "D5",
            "ticks": 153440,
            "time": 163.77509733333332,
            "velocity": 0.7874015748031497
          },
          {
            "duration": 1.5,
            "durationTicks": 1440,
            "midi": 62,
            "name": "D4",
            "ticks": 153440,
            "time": 163.77509733333332,
            "velocity": 0.7874015748031497
          },
          {
            "duration": 1.5,
            "durationTicks": 1440,
            "midi": 75,
            "name": "D#5",
            "ticks": 153440,
            "time": 163.77509733333332,
            "velocity": 0.7874015748031497
          },
          {
            "duration": 1.9108523437500082,
            "durationTicks": 1840,
            "midi": 103,
            "name": "G7",
            "ticks": 155025,
            "time": 165.42613899999998,
            "velocity": 0.7874015748031497
          },
          {
            "duration": 1.9108523437500082,
            "durationTicks": 1840,
            "midi": 91,
            "name": "G6",
            "ticks": 155025,
            "time": 165.42613899999998,
            "velocity": 0.7874015748031497
          },
          {
            "duration": 1.9108523437500082,
            "durationTicks": 1840,
            "midi": 79,
            "name": "G5",
            "ticks": 155025,
            "time": 165.42613899999998,
            "velocity": 0.7874015748031497
          },
          {
            "duration": 1.9108523437500082,
            "durationTicks": 1840,
            "midi": 67,
            "name": "G4",
            "ticks": 155025,
            "time": 165.42613899999998,
            "velocity": 0.7874015748031497
          },
          {
            "duration": 0.08333333333334281,
            "durationTicks": 80,
            "midi": 100,
            "name": "E7",
            "ticks": 155040,
            "time": 165.44176399999998,
            "velocity": 0.7874015748031497
          },
          {
            "duration": 0.08333333333334281,
            "durationTicks": 80,
            "midi": 98,
            "name": "D7",
            "ticks": 155040,
            "time": 165.44176399999998,
            "velocity": 0.7874015748031497
          },
          {
            "duration": 0.08333333333334281,
            "durationTicks": 80,
            "midi": 88,
            "name": "E6",
            "ticks": 155040,
            "time": 165.44176399999998,
            "velocity": 0.7874015748031497
          },
          {
            "duration": 0.08333333333334281,
            "durationTicks": 80,
            "midi": 86,
            "name": "D6",
            "ticks": 155040,
            "time": 165.44176399999998,
            "velocity": 0.7874015748031497
          },
          {
            "duration": 0.08333333333334281,
            "durationTicks": 80,
            "midi": 74,
            "name": "D5",
            "ticks": 155040,
            "time": 165.44176399999998,
            "velocity": 0.7874015748031497
          },
          {
            "duration": 0.08333333333334281,
            "durationTicks": 80,
            "midi": 62,
            "name": "D4",
            "ticks": 155040,
            "time": 165.44176399999998,
            "velocity": 0.7874015748031497
          },
          {
            "duration": 0.08333333333334281,
            "durationTicks": 80,
            "midi": 75,
            "name": "D#5",
            "ticks": 155040,
            "time": 165.44176399999998,
            "velocity": 0.7874015748031497
          },
          {
            "duration": 1.4944666666666535,
            "durationTicks": 1440,
            "midi": 100,
            "name": "E7",
            "ticks": 155360,
            "time": 165.77509733333332,
            "velocity": 0.7874015748031497
          },
          {
            "duration": 1.4944666666666535,
            "durationTicks": 1440,
            "midi": 98,
            "name": "D7",
            "ticks": 155360,
            "time": 165.77509733333332,
            "velocity": 0.7874015748031497
          },
          {
            "duration": 1.4944666666666535,
            "durationTicks": 1440,
            "midi": 88,
            "name": "E6",
            "ticks": 155360,
            "time": 165.77509733333332,
            "velocity": 0.7874015748031497
          },
          {
            "duration": 1.4944666666666535,
            "durationTicks": 1440,
            "midi": 86,
            "name": "D6",
            "ticks": 155360,
            "time": 165.77509733333332,
            "velocity": 0.7874015748031497
          },
          {
            "duration": 1.4944666666666535,
            "durationTicks": 1440,
            "midi": 74,
            "name": "D5",
            "ticks": 155360,
            "time": 165.77509733333332,
            "velocity": 0.7874015748031497
          },
          {
            "duration": 1.4944666666666535,
            "durationTicks": 1440,
            "midi": 62,
            "name": "D4",
            "ticks": 155360,
            "time": 165.77509733333332,
            "velocity": 0.7874015748031497
          },
          {
            "duration": 1.4944666666666535,
            "durationTicks": 1440,
            "midi": 75,
            "name": "D#5",
            "ticks": 155360,
            "time": 165.77509733333332,
            "velocity": 0.7874015748031497
          },
          {
            "duration": 0.08298750000000155,
            "durationTicks": 80,
            "midi": 100,
            "name": "E7",
            "ticks": 156960,
            "time": 167.43553899999998,
            "velocity": 0.7874015748031497
          },
          {
            "duration": 0.08298750000000155,
            "durationTicks": 80,
            "midi": 98,
            "name": "D7",
            "ticks": 156960,
            "time": 167.43553899999998,
            "velocity": 0.7874015748031497
          },
          {
            "duration": 0.08298750000000155,
            "durationTicks": 80,
            "midi": 88,
            "name": "E6",
            "ticks": 156960,
            "time": 167.43553899999998,
            "velocity": 0.7874015748031497
          },
          {
            "duration": 0.08298750000000155,
            "durationTicks": 80,
            "midi": 86,
            "name": "D6",
            "ticks": 156960,
            "time": 167.43553899999998,
            "velocity": 0.7874015748031497
          },
          {
            "duration": 0.08298750000000155,
            "durationTicks": 80,
            "midi": 74,
            "name": "D5",
            "ticks": 156960,
            "time": 167.43553899999998,
            "velocity": 0.7874015748031497
          },
          {
            "duration": 0.08298750000000155,
            "durationTicks": 80,
            "midi": 62,
            "name": "D4",
            "ticks": 156960,
            "time": 167.43553899999998,
            "velocity": 0.7874015748031497
          },
          {
            "duration": 0.08298750000000155,
            "durationTicks": 80,
            "midi": 75,
            "name": "D#5",
            "ticks": 156960,
            "time": 167.43553899999998,
            "velocity": 0.7874015748031497
          },
          {
            "duration": 1.488287000000014,
            "durationTicks": 1440,
            "midi": 100,
            "name": "E7",
            "ticks": 157280,
            "time": 167.76748899999998,
            "velocity": 0.7874015748031497
          },
          {
            "duration": 1.488287000000014,
            "durationTicks": 1440,
            "midi": 98,
            "name": "D7",
            "ticks": 157280,
            "time": 167.76748899999998,
            "velocity": 0.7874015748031497
          },
          {
            "duration": 1.488287000000014,
            "durationTicks": 1440,
            "midi": 88,
            "name": "E6",
            "ticks": 157280,
            "time": 167.76748899999998,
            "velocity": 0.7874015748031497
          },
          {
            "duration": 1.488287000000014,
            "durationTicks": 1440,
            "midi": 86,
            "name": "D6",
            "ticks": 157280,
            "time": 167.76748899999998,
            "velocity": 0.7874015748031497
          },
          {
            "duration": 1.488287000000014,
            "durationTicks": 1440,
            "midi": 74,
            "name": "D5",
            "ticks": 157280,
            "time": 167.76748899999998,
            "velocity": 0.7874015748031497
          },
          {
            "duration": 1.488287000000014,
            "durationTicks": 1440,
            "midi": 62,
            "name": "D4",
            "ticks": 157280,
            "time": 167.76748899999998,
            "velocity": 0.7874015748031497
          },
          {
            "duration": 1.488287000000014,
            "durationTicks": 1440,
            "midi": 75,
            "name": "D#5",
            "ticks": 157280,
            "time": 167.76748899999998,
            "velocity": 0.7874015748031497
          },
          {
            "duration": 0.08264449999998646,
            "durationTicks": 80,
            "midi": 100,
            "name": "E7",
            "ticks": 158880,
            "time": 169.421065,
            "velocity": 0.7874015748031497
          },
          {
            "duration": 0.08264449999998646,
            "durationTicks": 80,
            "midi": 98,
            "name": "D7",
            "ticks": 158880,
            "time": 169.421065,
            "velocity": 0.7874015748031497
          },
          {
            "duration": 0.08264449999998646,
            "durationTicks": 80,
            "midi": 88,
            "name": "E6",
            "ticks": 158880,
            "time": 169.421065,
            "velocity": 0.7874015748031497
          },
          {
            "duration": 0.08264449999998646,
            "durationTicks": 80,
            "midi": 86,
            "name": "D6",
            "ticks": 158880,
            "time": 169.421065,
            "velocity": 0.7874015748031497
          },
          {
            "duration": 0.08264449999998646,
            "durationTicks": 80,
            "midi": 74,
            "name": "D5",
            "ticks": 158880,
            "time": 169.421065,
            "velocity": 0.7874015748031497
          },
          {
            "duration": 0.08264449999998646,
            "durationTicks": 80,
            "midi": 62,
            "name": "D4",
            "ticks": 158880,
            "time": 169.421065,
            "velocity": 0.7874015748031497
          },
          {
            "duration": 0.08264449999998646,
            "durationTicks": 80,
            "midi": 75,
            "name": "D#5",
            "ticks": 158880,
            "time": 169.421065,
            "velocity": 0.7874015748031497
          },
          {
            "duration": 0.414251500000006,
            "durationTicks": 400,
            "midi": 100,
            "name": "E7",
            "ticks": 159200,
            "time": 169.75164299999997,
            "velocity": 0.7874015748031497
          },
          {
            "duration": 0.414251500000006,
            "durationTicks": 400,
            "midi": 98,
            "name": "D7",
            "ticks": 159200,
            "time": 169.75164299999997,
            "velocity": 0.7874015748031497
          },
          {
            "duration": 0.414251500000006,
            "durationTicks": 400,
            "midi": 88,
            "name": "E6",
            "ticks": 159200,
            "time": 169.75164299999997,
            "velocity": 0.7874015748031497
          },
          {
            "duration": 0.414251500000006,
            "durationTicks": 400,
            "midi": 86,
            "name": "D6",
            "ticks": 159200,
            "time": 169.75164299999997,
            "velocity": 0.7874015748031497
          },
          {
            "duration": 0.414251500000006,
            "durationTicks": 400,
            "midi": 74,
            "name": "D5",
            "ticks": 159200,
            "time": 169.75164299999997,
            "velocity": 0.7874015748031497
          },
          {
            "duration": 0.414251500000006,
            "durationTicks": 400,
            "midi": 62,
            "name": "D4",
            "ticks": 159200,
            "time": 169.75164299999997,
            "velocity": 0.7874015748031497
          },
          {
            "duration": 0.414251500000006,
            "durationTicks": 400,
            "midi": 75,
            "name": "D#5",
            "ticks": 159200,
            "time": 169.75164299999997,
            "velocity": 0.7874015748031497
          },
          {
            "duration": 0.12448125000000232,
            "durationTicks": 120,
            "midi": 88,
            "name": "E6",
            "ticks": 159680,
            "time": 170.24888199999998,
            "velocity": 0.7874015748031497
          },
          {
            "duration": 0.12448125000000232,
            "durationTicks": 120,
            "midi": 100,
            "name": "E7",
            "ticks": 159680,
            "time": 170.24888199999998,
            "velocity": 0.7874015748031497
          },
          {
            "duration": 0.12448125000000232,
            "durationTicks": 120,
            "midi": 62,
            "name": "D4",
            "ticks": 159680,
            "time": 170.24888199999998,
            "velocity": 0.7874015748031497
          },
          {
            "duration": 0.12448125000000232,
            "durationTicks": 120,
            "midi": 99,
            "name": "D#7",
            "ticks": 159840,
            "time": 170.41485699999998,
            "velocity": 0.7874015748031497
          },
          {
            "duration": 0.1244812499999739,
            "durationTicks": 120,
            "midi": 74,
            "name": "D5",
            "ticks": 160000,
            "time": 170.580832,
            "velocity": 0.7874015748031497
          },
          {
            "duration": 0.1244812499999739,
            "durationTicks": 120,
            "midi": 86,
            "name": "D6",
            "ticks": 160000,
            "time": 170.580832,
            "velocity": 0.7874015748031497
          },
          {
            "duration": 0.1244812499999739,
            "durationTicks": 120,
            "midi": 98,
            "name": "D7",
            "ticks": 160000,
            "time": 170.580832,
            "velocity": 0.7874015748031497
          },
          {
            "duration": 0.4979250000000093,
            "durationTicks": 480,
            "midi": 106,
            "name": "A#7",
            "ticks": 160145,
            "time": 170.73124684374997,
            "velocity": 0.7874015748031497
          },
          {
            "duration": 0.4979250000000093,
            "durationTicks": 480,
            "midi": 94,
            "name": "A#6",
            "ticks": 160145,
            "time": 170.73124684374997,
            "velocity": 0.7874015748031497
          },
          {
            "duration": 0.4979250000000093,
            "durationTicks": 480,
            "midi": 82,
            "name": "A#5",
            "ticks": 160145,
            "time": 170.73124684374997,
            "velocity": 0.7874015748031497
          },
          {
            "duration": 0.4979250000000093,
            "durationTicks": 480,
            "midi": 70,
            "name": "A#4",
            "ticks": 160145,
            "time": 170.73124684374997,
            "velocity": 0.7874015748031497
          },
          {
            "duration": 0.12448125000000232,
            "durationTicks": 120,
            "midi": 60,
            "name": "C4",
            "ticks": 160160,
            "time": 170.74680699999996,
            "velocity": 0.7874015748031497
          },
          {
            "duration": 0.12448125000000232,
            "durationTicks": 120,
            "midi": 74,
            "name": "D5",
            "ticks": 160160,
            "time": 170.74680699999996,
            "velocity": 0.7874015748031497
          },
          {
            "duration": 0.12448125000000232,
            "durationTicks": 120,
            "midi": 87,
            "name": "D#6",
            "ticks": 160160,
            "time": 170.74680699999996,
            "velocity": 0.7874015748031497
          },
          {
            "duration": 0.12448125000000232,
            "durationTicks": 120,
            "midi": 99,
            "name": "D#7",
            "ticks": 160160,
            "time": 170.74680699999996,
            "velocity": 0.7874015748031497
          },
          {
            "duration": 0.12448125000000232,
            "durationTicks": 120,
            "midi": 98,
            "name": "D7",
            "ticks": 160320,
            "time": 170.91278199999996,
            "velocity": 0.7874015748031497
          },
          {
            "duration": 0.12448125000000232,
            "durationTicks": 120,
            "midi": 73,
            "name": "C#5",
            "ticks": 160480,
            "time": 171.07875699999997,
            "velocity": 0.7874015748031497
          },
          {
            "duration": 0.12448125000000232,
            "durationTicks": 120,
            "midi": 85,
            "name": "C#6",
            "ticks": 160480,
            "time": 171.07875699999997,
            "velocity": 0.7874015748031497
          },
          {
            "duration": 0.12448125000000232,
            "durationTicks": 120,
            "midi": 97,
            "name": "C#7",
            "ticks": 160480,
            "time": 171.07875699999997,
            "velocity": 0.7874015748031497
          },
          {
            "duration": 0.49792499999998086,
            "durationTicks": 480,
            "midi": 105,
            "name": "A7",
            "ticks": 160625,
            "time": 171.22917184374998,
            "velocity": 0.7874015748031497
          },
          {
            "duration": 0.49792499999998086,
            "durationTicks": 480,
            "midi": 93,
            "name": "A6",
            "ticks": 160625,
            "time": 171.22917184374998,
            "velocity": 0.7874015748031497
          },
          {
            "duration": 0.49792499999998086,
            "durationTicks": 480,
            "midi": 81,
            "name": "A5",
            "ticks": 160625,
            "time": 171.22917184374998,
            "velocity": 0.7874015748031497
          },
          {
            "duration": 0.49792499999998086,
            "durationTicks": 480,
            "midi": 69,
            "name": "A4",
            "ticks": 160625,
            "time": 171.22917184374998,
            "velocity": 0.7874015748031497
          },
          {
            "duration": 0.12448125000000232,
            "durationTicks": 120,
            "midi": 62,
            "name": "D4",
            "ticks": 160640,
            "time": 171.24473199999997,
            "velocity": 0.7874015748031497
          },
          {
            "duration": 0.12448125000000232,
            "durationTicks": 120,
            "midi": 75,
            "name": "D#5",
            "ticks": 160640,
            "time": 171.24473199999997,
            "velocity": 0.7874015748031497
          },
          {
            "duration": 0.12448125000000232,
            "durationTicks": 120,
            "midi": 88,
            "name": "E6",
            "ticks": 160640,
            "time": 171.24473199999997,
            "velocity": 0.7874015748031497
          },
          {
            "duration": 0.12448125000000232,
            "durationTicks": 120,
            "midi": 100,
            "name": "E7",
            "ticks": 160640,
            "time": 171.24473199999997,
            "velocity": 0.7874015748031497
          },
          {
            "duration": 0.12448125000000232,
            "durationTicks": 120,
            "midi": 99,
            "name": "D#7",
            "ticks": 160800,
            "time": 171.41070699999997,
            "velocity": 0.7874015748031497
          },
          {
            "duration": 0.12448125000000232,
            "durationTicks": 120,
            "midi": 74,
            "name": "D5",
            "ticks": 160960,
            "time": 171.57668199999998,
            "velocity": 0.7874015748031497
          },
          {
            "duration": 0.12448125000000232,
            "durationTicks": 120,
            "midi": 86,
            "name": "D6",
            "ticks": 160960,
            "time": 171.57668199999998,
            "velocity": 0.7874015748031497
          },
          {
            "duration": 0.12448125000000232,
            "durationTicks": 120,
            "midi": 98,
            "name": "D7",
            "ticks": 160960,
            "time": 171.57668199999998,
            "velocity": 0.7874015748031497
          },
          {
            "duration": 0.49924348958336395,
            "durationTicks": 480,
            "midi": 106,
            "name": "A#7",
            "ticks": 161105,
            "time": 171.72709684374996,
            "velocity": 0.7874015748031497
          },
          {
            "duration": 0.49924348958336395,
            "durationTicks": 480,
            "midi": 94,
            "name": "A#6",
            "ticks": 161105,
            "time": 171.72709684374996,
            "velocity": 0.7874015748031497
          },
          {
            "duration": 0.49924348958336395,
            "durationTicks": 480,
            "midi": 82,
            "name": "A#5",
            "ticks": 161105,
            "time": 171.72709684374996,
            "velocity": 0.7874015748031497
          },
          {
            "duration": 0.49924348958336395,
            "durationTicks": 480,
            "midi": 70,
            "name": "A#4",
            "ticks": 161105,
            "time": 171.72709684374996,
            "velocity": 0.7874015748031497
          },
          {
            "duration": 0.12448125000000232,
            "durationTicks": 120,
            "midi": 60,
            "name": "C4",
            "ticks": 161120,
            "time": 171.74265699999998,
            "velocity": 0.7874015748031497
          },
          {
            "duration": 0.12448125000000232,
            "durationTicks": 120,
            "midi": 74,
            "name": "D5",
            "ticks": 161120,
            "time": 171.74265699999998,
            "velocity": 0.7874015748031497
          },
          {
            "duration": 0.12448125000000232,
            "durationTicks": 120,
            "midi": 87,
            "name": "D#6",
            "ticks": 161120,
            "time": 171.74265699999998,
            "velocity": 0.7874015748031497
          },
          {
            "duration": 0.12448125000000232,
            "durationTicks": 120,
            "midi": 99,
            "name": "D#7",
            "ticks": 161120,
            "time": 171.74265699999998,
            "velocity": 0.7874015748031497
          },
          {
            "duration": 0.125,
            "durationTicks": 120,
            "midi": 98,
            "name": "D7",
            "ticks": 161280,
            "time": 171.90863199999998,
            "velocity": 0.7874015748031497
          },
          {
            "duration": 0.125,
            "durationTicks": 120,
            "midi": 73,
            "name": "C#5",
            "ticks": 161440,
            "time": 172.07529866666664,
            "velocity": 0.7874015748031497
          },
          {
            "duration": 0.125,
            "durationTicks": 120,
            "midi": 85,
            "name": "C#6",
            "ticks": 161440,
            "time": 172.07529866666664,
            "velocity": 0.7874015748031497
          },
          {
            "duration": 0.125,
            "durationTicks": 120,
            "midi": 97,
            "name": "C#7",
            "ticks": 161440,
            "time": 172.07529866666664,
            "velocity": 0.7874015748031497
          },
          {
            "duration": 0.5,
            "durationTicks": 480,
            "midi": 105,
            "name": "A7",
            "ticks": 161585,
            "time": 172.22634033333333,
            "velocity": 0.7874015748031497
          },
          {
            "duration": 0.5,
            "durationTicks": 480,
            "midi": 93,
            "name": "A6",
            "ticks": 161585,
            "time": 172.22634033333333,
            "velocity": 0.7874015748031497
          },
          {
            "duration": 0.5,
            "durationTicks": 480,
            "midi": 81,
            "name": "A5",
            "ticks": 161585,
            "time": 172.22634033333333,
            "velocity": 0.7874015748031497
          },
          {
            "duration": 0.5,
            "durationTicks": 480,
            "midi": 69,
            "name": "A4",
            "ticks": 161585,
            "time": 172.22634033333333,
            "velocity": 0.7874015748031497
          },
          {
            "duration": 0.125,
            "durationTicks": 120,
            "midi": 62,
            "name": "D4",
            "ticks": 161600,
            "time": 172.24196533333333,
            "velocity": 0.7874015748031497
          },
          {
            "duration": 0.125,
            "durationTicks": 120,
            "midi": 75,
            "name": "D#5",
            "ticks": 161600,
            "time": 172.24196533333333,
            "velocity": 0.7874015748031497
          },
          {
            "duration": 0.125,
            "durationTicks": 120,
            "midi": 88,
            "name": "E6",
            "ticks": 161600,
            "time": 172.24196533333333,
            "velocity": 0.7874015748031497
          },
          {
            "duration": 0.125,
            "durationTicks": 120,
            "midi": 100,
            "name": "E7",
            "ticks": 161600,
            "time": 172.24196533333333,
            "velocity": 0.7874015748031497
          },
          {
            "duration": 0.125,
            "durationTicks": 120,
            "midi": 99,
            "name": "D#7",
            "ticks": 161760,
            "time": 172.40863199999998,
            "velocity": 0.7874015748031497
          },
          {
            "duration": 0.125,
            "durationTicks": 120,
            "midi": 74,
            "name": "D5",
            "ticks": 161920,
            "time": 172.57529866666664,
            "velocity": 0.7874015748031497
          },
          {
            "duration": 0.125,
            "durationTicks": 120,
            "midi": 86,
            "name": "D6",
            "ticks": 161920,
            "time": 172.57529866666664,
            "velocity": 0.7874015748031497
          },
          {
            "duration": 0.125,
            "durationTicks": 120,
            "midi": 98,
            "name": "D7",
            "ticks": 161920,
            "time": 172.57529866666664,
            "velocity": 0.7874015748031497
          },
          {
            "duration": 0.5,
            "durationTicks": 480,
            "midi": 106,
            "name": "A#7",
            "ticks": 162065,
            "time": 172.72634033333333,
            "velocity": 0.7874015748031497
          },
          {
            "duration": 0.5,
            "durationTicks": 480,
            "midi": 94,
            "name": "A#6",
            "ticks": 162065,
            "time": 172.72634033333333,
            "velocity": 0.7874015748031497
          },
          {
            "duration": 0.5,
            "durationTicks": 480,
            "midi": 82,
            "name": "A#5",
            "ticks": 162065,
            "time": 172.72634033333333,
            "velocity": 0.7874015748031497
          },
          {
            "duration": 0.5,
            "durationTicks": 480,
            "midi": 70,
            "name": "A#4",
            "ticks": 162065,
            "time": 172.72634033333333,
            "velocity": 0.7874015748031497
          },
          {
            "duration": 0.125,
            "durationTicks": 120,
            "midi": 60,
            "name": "C4",
            "ticks": 162080,
            "time": 172.74196533333333,
            "velocity": 0.7874015748031497
          },
          {
            "duration": 0.125,
            "durationTicks": 120,
            "midi": 74,
            "name": "D5",
            "ticks": 162080,
            "time": 172.74196533333333,
            "velocity": 0.7874015748031497
          },
          {
            "duration": 0.125,
            "durationTicks": 120,
            "midi": 87,
            "name": "D#6",
            "ticks": 162080,
            "time": 172.74196533333333,
            "velocity": 0.7874015748031497
          },
          {
            "duration": 0.125,
            "durationTicks": 120,
            "midi": 99,
            "name": "D#7",
            "ticks": 162080,
            "time": 172.74196533333333,
            "velocity": 0.7874015748031497
          },
          {
            "duration": 0.125,
            "durationTicks": 120,
            "midi": 98,
            "name": "D7",
            "ticks": 162240,
            "time": 172.90863199999998,
            "velocity": 0.7874015748031497
          },
          {
            "duration": 0.125,
            "durationTicks": 120,
            "midi": 73,
            "name": "C#5",
            "ticks": 162400,
            "time": 173.07529866666664,
            "velocity": 0.7874015748031497
          },
          {
            "duration": 0.125,
            "durationTicks": 120,
            "midi": 85,
            "name": "C#6",
            "ticks": 162400,
            "time": 173.07529866666664,
            "velocity": 0.7874015748031497
          },
          {
            "duration": 0.125,
            "durationTicks": 120,
            "midi": 97,
            "name": "C#7",
            "ticks": 162400,
            "time": 173.07529866666664,
            "velocity": 0.7874015748031497
          },
          {
            "duration": 0.5,
            "durationTicks": 480,
            "midi": 105,
            "name": "A7",
            "ticks": 162545,
            "time": 173.22634033333333,
            "velocity": 0.7874015748031497
          },
          {
            "duration": 0.5,
            "durationTicks": 480,
            "midi": 93,
            "name": "A6",
            "ticks": 162545,
            "time": 173.22634033333333,
            "velocity": 0.7874015748031497
          },
          {
            "duration": 0.5,
            "durationTicks": 480,
            "midi": 81,
            "name": "A5",
            "ticks": 162545,
            "time": 173.22634033333333,
            "velocity": 0.7874015748031497
          },
          {
            "duration": 0.5,
            "durationTicks": 480,
            "midi": 69,
            "name": "A4",
            "ticks": 162545,
            "time": 173.22634033333333,
            "velocity": 0.7874015748031497
          },
          {
            "duration": 0.125,
            "durationTicks": 120,
            "midi": 62,
            "name": "D4",
            "ticks": 162560,
            "time": 173.24196533333333,
            "velocity": 0.7874015748031497
          },
          {
            "duration": 0.125,
            "durationTicks": 120,
            "midi": 75,
            "name": "D#5",
            "ticks": 162560,
            "time": 173.24196533333333,
            "velocity": 0.7874015748031497
          },
          {
            "duration": 0.125,
            "durationTicks": 120,
            "midi": 88,
            "name": "E6",
            "ticks": 162560,
            "time": 173.24196533333333,
            "velocity": 0.7874015748031497
          },
          {
            "duration": 0.125,
            "durationTicks": 120,
            "midi": 100,
            "name": "E7",
            "ticks": 162560,
            "time": 173.24196533333333,
            "velocity": 0.7874015748031497
          },
          {
            "duration": 0.125,
            "durationTicks": 120,
            "midi": 99,
            "name": "D#7",
            "ticks": 162720,
            "time": 173.40863199999998,
            "velocity": 0.7874015748031497
          },
          {
            "duration": 0.125,
            "durationTicks": 120,
            "midi": 74,
            "name": "D5",
            "ticks": 162880,
            "time": 173.57529866666664,
            "velocity": 0.7874015748031497
          },
          {
            "duration": 0.125,
            "durationTicks": 120,
            "midi": 86,
            "name": "D6",
            "ticks": 162880,
            "time": 173.57529866666664,
            "velocity": 0.7874015748031497
          },
          {
            "duration": 0.125,
            "durationTicks": 120,
            "midi": 98,
            "name": "D7",
            "ticks": 162880,
            "time": 173.57529866666664,
            "velocity": 0.7874015748031497
          },
          {
            "duration": 0.5,
            "durationTicks": 480,
            "midi": 106,
            "name": "A#7",
            "ticks": 163025,
            "time": 173.72634033333333,
            "velocity": 0.7874015748031497
          },
          {
            "duration": 0.5,
            "durationTicks": 480,
            "midi": 94,
            "name": "A#6",
            "ticks": 163025,
            "time": 173.72634033333333,
            "velocity": 0.7874015748031497
          },
          {
            "duration": 0.5,
            "durationTicks": 480,
            "midi": 82,
            "name": "A#5",
            "ticks": 163025,
            "time": 173.72634033333333,
            "velocity": 0.7874015748031497
          },
          {
            "duration": 0.5,
            "durationTicks": 480,
            "midi": 70,
            "name": "A#4",
            "ticks": 163025,
            "time": 173.72634033333333,
            "velocity": 0.7874015748031497
          },
          {
            "duration": 0.125,
            "durationTicks": 120,
            "midi": 60,
            "name": "C4",
            "ticks": 163040,
            "time": 173.74196533333333,
            "velocity": 0.7874015748031497
          },
          {
            "duration": 0.125,
            "durationTicks": 120,
            "midi": 74,
            "name": "D5",
            "ticks": 163040,
            "time": 173.74196533333333,
            "velocity": 0.7874015748031497
          },
          {
            "duration": 0.125,
            "durationTicks": 120,
            "midi": 87,
            "name": "D#6",
            "ticks": 163040,
            "time": 173.74196533333333,
            "velocity": 0.7874015748031497
          },
          {
            "duration": 0.125,
            "durationTicks": 120,
            "midi": 99,
            "name": "D#7",
            "ticks": 163040,
            "time": 173.74196533333333,
            "velocity": 0.7874015748031497
          },
          {
            "duration": 0.125,
            "durationTicks": 120,
            "midi": 98,
            "name": "D7",
            "ticks": 163200,
            "time": 173.90863199999998,
            "velocity": 0.7874015748031497
          },
          {
            "duration": 0.125,
            "durationTicks": 120,
            "midi": 73,
            "name": "C#5",
            "ticks": 163360,
            "time": 174.07529866666664,
            "velocity": 0.7874015748031497
          },
          {
            "duration": 0.125,
            "durationTicks": 120,
            "midi": 85,
            "name": "C#6",
            "ticks": 163360,
            "time": 174.07529866666664,
            "velocity": 0.7874015748031497
          },
          {
            "duration": 0.125,
            "durationTicks": 120,
            "midi": 97,
            "name": "C#7",
            "ticks": 163360,
            "time": 174.07529866666664,
            "velocity": 0.7874015748031497
          },
          {
            "duration": 0.5,
            "durationTicks": 480,
            "midi": 105,
            "name": "A7",
            "ticks": 163505,
            "time": 174.22634033333333,
            "velocity": 0.7874015748031497
          },
          {
            "duration": 0.5,
            "durationTicks": 480,
            "midi": 93,
            "name": "A6",
            "ticks": 163505,
            "time": 174.22634033333333,
            "velocity": 0.7874015748031497
          },
          {
            "duration": 0.5,
            "durationTicks": 480,
            "midi": 81,
            "name": "A5",
            "ticks": 163505,
            "time": 174.22634033333333,
            "velocity": 0.7874015748031497
          },
          {
            "duration": 0.5,
            "durationTicks": 480,
            "midi": 69,
            "name": "A4",
            "ticks": 163505,
            "time": 174.22634033333333,
            "velocity": 0.7874015748031497
          },
          {
            "duration": 0.125,
            "durationTicks": 120,
            "midi": 62,
            "name": "D4",
            "ticks": 163520,
            "time": 174.24196533333333,
            "velocity": 0.7874015748031497
          },
          {
            "duration": 0.125,
            "durationTicks": 120,
            "midi": 75,
            "name": "D#5",
            "ticks": 163520,
            "time": 174.24196533333333,
            "velocity": 0.7874015748031497
          },
          {
            "duration": 0.125,
            "durationTicks": 120,
            "midi": 88,
            "name": "E6",
            "ticks": 163520,
            "time": 174.24196533333333,
            "velocity": 0.7874015748031497
          },
          {
            "duration": 0.125,
            "durationTicks": 120,
            "midi": 100,
            "name": "E7",
            "ticks": 163520,
            "time": 174.24196533333333,
            "velocity": 0.7874015748031497
          },
          {
            "duration": 0.125,
            "durationTicks": 120,
            "midi": 99,
            "name": "D#7",
            "ticks": 163680,
            "time": 174.40863199999998,
            "velocity": 0.7874015748031497
          },
          {
            "duration": 0.125,
            "durationTicks": 120,
            "midi": 74,
            "name": "D5",
            "ticks": 163840,
            "time": 174.57529866666664,
            "velocity": 0.7874015748031497
          },
          {
            "duration": 0.125,
            "durationTicks": 120,
            "midi": 86,
            "name": "D6",
            "ticks": 163840,
            "time": 174.57529866666664,
            "velocity": 0.7874015748031497
          },
          {
            "duration": 0.125,
            "durationTicks": 120,
            "midi": 98,
            "name": "D7",
            "ticks": 163840,
            "time": 174.57529866666664,
            "velocity": 0.7874015748031497
          },
          {
            "duration": 0.5,
            "durationTicks": 480,
            "midi": 106,
            "name": "A#7",
            "ticks": 163985,
            "time": 174.72634033333333,
            "velocity": 0.7874015748031497
          },
          {
            "duration": 0.5,
            "durationTicks": 480,
            "midi": 94,
            "name": "A#6",
            "ticks": 163985,
            "time": 174.72634033333333,
            "velocity": 0.7874015748031497
          },
          {
            "duration": 0.5,
            "durationTicks": 480,
            "midi": 82,
            "name": "A#5",
            "ticks": 163985,
            "time": 174.72634033333333,
            "velocity": 0.7874015748031497
          },
          {
            "duration": 0.5,
            "durationTicks": 480,
            "midi": 70,
            "name": "A#4",
            "ticks": 163985,
            "time": 174.72634033333333,
            "velocity": 0.7874015748031497
          },
          {
            "duration": 0.125,
            "durationTicks": 120,
            "midi": 60,
            "name": "C4",
            "ticks": 164000,
            "time": 174.74196533333333,
            "velocity": 0.7874015748031497
          },
          {
            "duration": 0.125,
            "durationTicks": 120,
            "midi": 74,
            "name": "D5",
            "ticks": 164000,
            "time": 174.74196533333333,
            "velocity": 0.7874015748031497
          },
          {
            "duration": 0.125,
            "durationTicks": 120,
            "midi": 87,
            "name": "D#6",
            "ticks": 164000,
            "time": 174.74196533333333,
            "velocity": 0.7874015748031497
          },
          {
            "duration": 0.125,
            "durationTicks": 120,
            "midi": 99,
            "name": "D#7",
            "ticks": 164000,
            "time": 174.74196533333333,
            "velocity": 0.7874015748031497
          },
          {
            "duration": 0.125,
            "durationTicks": 120,
            "midi": 98,
            "name": "D7",
            "ticks": 164160,
            "time": 174.90863199999998,
            "velocity": 0.7874015748031497
          },
          {
            "duration": 0.125,
            "durationTicks": 120,
            "midi": 73,
            "name": "C#5",
            "ticks": 164320,
            "time": 175.07529866666664,
            "velocity": 0.7874015748031497
          },
          {
            "duration": 0.125,
            "durationTicks": 120,
            "midi": 85,
            "name": "C#6",
            "ticks": 164320,
            "time": 175.07529866666664,
            "velocity": 0.7874015748031497
          },
          {
            "duration": 0.125,
            "durationTicks": 120,
            "midi": 97,
            "name": "C#7",
            "ticks": 164320,
            "time": 175.07529866666664,
            "velocity": 0.7874015748031497
          },
          {
            "duration": 0.5,
            "durationTicks": 480,
            "midi": 105,
            "name": "A7",
            "ticks": 164465,
            "time": 175.22634033333333,
            "velocity": 0.7874015748031497
          },
          {
            "duration": 0.5,
            "durationTicks": 480,
            "midi": 93,
            "name": "A6",
            "ticks": 164465,
            "time": 175.22634033333333,
            "velocity": 0.7874015748031497
          },
          {
            "duration": 0.5,
            "durationTicks": 480,
            "midi": 81,
            "name": "A5",
            "ticks": 164465,
            "time": 175.22634033333333,
            "velocity": 0.7874015748031497
          },
          {
            "duration": 0.5,
            "durationTicks": 480,
            "midi": 69,
            "name": "A4",
            "ticks": 164465,
            "time": 175.22634033333333,
            "velocity": 0.7874015748031497
          },
          {
            "duration": 0.125,
            "durationTicks": 120,
            "midi": 62,
            "name": "D4",
            "ticks": 164480,
            "time": 175.24196533333333,
            "velocity": 0.7874015748031497
          },
          {
            "duration": 0.125,
            "durationTicks": 120,
            "midi": 75,
            "name": "D#5",
            "ticks": 164480,
            "time": 175.24196533333333,
            "velocity": 0.7874015748031497
          },
          {
            "duration": 0.125,
            "durationTicks": 120,
            "midi": 88,
            "name": "E6",
            "ticks": 164480,
            "time": 175.24196533333333,
            "velocity": 0.7874015748031497
          },
          {
            "duration": 0.125,
            "durationTicks": 120,
            "midi": 100,
            "name": "E7",
            "ticks": 164480,
            "time": 175.24196533333333,
            "velocity": 0.7874015748031497
          },
          {
            "duration": 0.125,
            "durationTicks": 120,
            "midi": 99,
            "name": "D#7",
            "ticks": 164640,
            "time": 175.40863199999998,
            "velocity": 0.7874015748031497
          },
          {
            "duration": 0.125,
            "durationTicks": 120,
            "midi": 74,
            "name": "D5",
            "ticks": 164800,
            "time": 175.57529866666664,
            "velocity": 0.7874015748031497
          },
          {
            "duration": 0.125,
            "durationTicks": 120,
            "midi": 86,
            "name": "D6",
            "ticks": 164800,
            "time": 175.57529866666664,
            "velocity": 0.7874015748031497
          },
          {
            "duration": 0.125,
            "durationTicks": 120,
            "midi": 98,
            "name": "D7",
            "ticks": 164800,
            "time": 175.57529866666664,
            "velocity": 0.7874015748031497
          },
          {
            "duration": 0.5,
            "durationTicks": 480,
            "midi": 106,
            "name": "A#7",
            "ticks": 164945,
            "time": 175.72634033333333,
            "velocity": 0.7874015748031497
          },
          {
            "duration": 0.5,
            "durationTicks": 480,
            "midi": 94,
            "name": "A#6",
            "ticks": 164945,
            "time": 175.72634033333333,
            "velocity": 0.7874015748031497
          },
          {
            "duration": 0.5,
            "durationTicks": 480,
            "midi": 82,
            "name": "A#5",
            "ticks": 164945,
            "time": 175.72634033333333,
            "velocity": 0.7874015748031497
          },
          {
            "duration": 0.5,
            "durationTicks": 480,
            "midi": 70,
            "name": "A#4",
            "ticks": 164945,
            "time": 175.72634033333333,
            "velocity": 0.7874015748031497
          },
          {
            "duration": 0.125,
            "durationTicks": 120,
            "midi": 60,
            "name": "C4",
            "ticks": 164960,
            "time": 175.74196533333333,
            "velocity": 0.7874015748031497
          },
          {
            "duration": 0.125,
            "durationTicks": 120,
            "midi": 74,
            "name": "D5",
            "ticks": 164960,
            "time": 175.74196533333333,
            "velocity": 0.7874015748031497
          },
          {
            "duration": 0.125,
            "durationTicks": 120,
            "midi": 87,
            "name": "D#6",
            "ticks": 164960,
            "time": 175.74196533333333,
            "velocity": 0.7874015748031497
          },
          {
            "duration": 0.125,
            "durationTicks": 120,
            "midi": 99,
            "name": "D#7",
            "ticks": 164960,
            "time": 175.74196533333333,
            "velocity": 0.7874015748031497
          },
          {
            "duration": 0.125,
            "durationTicks": 120,
            "midi": 98,
            "name": "D7",
            "ticks": 165120,
            "time": 175.90863199999998,
            "velocity": 0.7874015748031497
          },
          {
            "duration": 0.125,
            "durationTicks": 120,
            "midi": 73,
            "name": "C#5",
            "ticks": 165280,
            "time": 176.07529866666664,
            "velocity": 0.7874015748031497
          },
          {
            "duration": 0.125,
            "durationTicks": 120,
            "midi": 85,
            "name": "C#6",
            "ticks": 165280,
            "time": 176.07529866666664,
            "velocity": 0.7874015748031497
          },
          {
            "duration": 0.125,
            "durationTicks": 120,
            "midi": 97,
            "name": "C#7",
            "ticks": 165280,
            "time": 176.07529866666664,
            "velocity": 0.7874015748031497
          },
          {
            "duration": 1,
            "durationTicks": 960,
            "midi": 105,
            "name": "A7",
            "ticks": 165425,
            "time": 176.22634033333333,
            "velocity": 0.7874015748031497
          },
          {
            "duration": 1,
            "durationTicks": 960,
            "midi": 93,
            "name": "A6",
            "ticks": 165425,
            "time": 176.22634033333333,
            "velocity": 0.7874015748031497
          },
          {
            "duration": 1,
            "durationTicks": 960,
            "midi": 81,
            "name": "A5",
            "ticks": 165425,
            "time": 176.22634033333333,
            "velocity": 0.7874015748031497
          },
          {
            "duration": 1,
            "durationTicks": 960,
            "midi": 69,
            "name": "A4",
            "ticks": 165425,
            "time": 176.22634033333333,
            "velocity": 0.7874015748031497
          },
          {
            "duration": 0.125,
            "durationTicks": 120,
            "midi": 62,
            "name": "D4",
            "ticks": 165440,
            "time": 176.24196533333333,
            "velocity": 0.7874015748031497
          },
          {
            "duration": 0.125,
            "durationTicks": 120,
            "midi": 75,
            "name": "D#5",
            "ticks": 165440,
            "time": 176.24196533333333,
            "velocity": 0.7874015748031497
          },
          {
            "duration": 0.125,
            "durationTicks": 120,
            "midi": 88,
            "name": "E6",
            "ticks": 165440,
            "time": 176.24196533333333,
            "velocity": 0.7874015748031497
          },
          {
            "duration": 0.125,
            "durationTicks": 120,
            "midi": 100,
            "name": "E7",
            "ticks": 165440,
            "time": 176.24196533333333,
            "velocity": 0.7874015748031497
          },
          {
            "duration": 0.125,
            "durationTicks": 120,
            "midi": 99,
            "name": "D#7",
            "ticks": 165600,
            "time": 176.40863199999998,
            "velocity": 0.7874015748031497
          },
          {
            "duration": 0.125,
            "durationTicks": 120,
            "midi": 74,
            "name": "D5",
            "ticks": 165760,
            "time": 176.57529866666664,
            "velocity": 0.7874015748031497
          },
          {
            "duration": 0.125,
            "durationTicks": 120,
            "midi": 86,
            "name": "D6",
            "ticks": 165760,
            "time": 176.57529866666664,
            "velocity": 0.7874015748031497
          },
          {
            "duration": 0.125,
            "durationTicks": 120,
            "midi": 98,
            "name": "D7",
            "ticks": 165760,
            "time": 176.57529866666664,
            "velocity": 0.7874015748031497
          },
          {
            "duration": 0.125,
            "durationTicks": 120,
            "midi": 60,
            "name": "C4",
            "ticks": 165920,
            "time": 176.74196533333333,
            "velocity": 0.7874015748031497
          },
          {
            "duration": 0.125,
            "durationTicks": 120,
            "midi": 74,
            "name": "D5",
            "ticks": 165920,
            "time": 176.74196533333333,
            "velocity": 0.7874015748031497
          },
          {
            "duration": 0.125,
            "durationTicks": 120,
            "midi": 87,
            "name": "D#6",
            "ticks": 165920,
            "time": 176.74196533333333,
            "velocity": 0.7874015748031497
          },
          {
            "duration": 0.125,
            "durationTicks": 120,
            "midi": 99,
            "name": "D#7",
            "ticks": 165920,
            "time": 176.74196533333333,
            "velocity": 0.7874015748031497
          },
          {
            "duration": 0.125,
            "durationTicks": 120,
            "midi": 98,
            "name": "D7",
            "ticks": 166080,
            "time": 176.90863199999998,
            "velocity": 0.7874015748031497
          },
          {
            "duration": 0.125,
            "durationTicks": 120,
            "midi": 73,
            "name": "C#5",
            "ticks": 166240,
            "time": 177.07529866666664,
            "velocity": 0.7874015748031497
          },
          {
            "duration": 0.125,
            "durationTicks": 120,
            "midi": 85,
            "name": "C#6",
            "ticks": 166240,
            "time": 177.07529866666664,
            "velocity": 0.7874015748031497
          },
          {
            "duration": 0.125,
            "durationTicks": 120,
            "midi": 97,
            "name": "C#7",
            "ticks": 166240,
            "time": 177.07529866666664,
            "velocity": 0.7874015748031497
          },
          {
            "duration": 0.5,
            "durationTicks": 480,
            "midi": 106,
            "name": "A#7",
            "ticks": 166385,
            "time": 177.22634033333333,
            "velocity": 0.7874015748031497
          },
          {
            "duration": 0.5,
            "durationTicks": 480,
            "midi": 94,
            "name": "A#6",
            "ticks": 166385,
            "time": 177.22634033333333,
            "velocity": 0.7874015748031497
          },
          {
            "duration": 0.5,
            "durationTicks": 480,
            "midi": 82,
            "name": "A#5",
            "ticks": 166385,
            "time": 177.22634033333333,
            "velocity": 0.7874015748031497
          },
          {
            "duration": 0.5,
            "durationTicks": 480,
            "midi": 70,
            "name": "A#4",
            "ticks": 166385,
            "time": 177.22634033333333,
            "velocity": 0.7874015748031497
          },
          {
            "duration": 0.125,
            "durationTicks": 120,
            "midi": 62,
            "name": "D4",
            "ticks": 166400,
            "time": 177.24196533333333,
            "velocity": 0.7874015748031497
          },
          {
            "duration": 0.125,
            "durationTicks": 120,
            "midi": 75,
            "name": "D#5",
            "ticks": 166400,
            "time": 177.24196533333333,
            "velocity": 0.7874015748031497
          },
          {
            "duration": 0.125,
            "durationTicks": 120,
            "midi": 88,
            "name": "E6",
            "ticks": 166400,
            "time": 177.24196533333333,
            "velocity": 0.7874015748031497
          },
          {
            "duration": 0.125,
            "durationTicks": 120,
            "midi": 100,
            "name": "E7",
            "ticks": 166400,
            "time": 177.24196533333333,
            "velocity": 0.7874015748031497
          },
          {
            "duration": 0.125,
            "durationTicks": 120,
            "midi": 99,
            "name": "D#7",
            "ticks": 166560,
            "time": 177.40863199999998,
            "velocity": 0.7874015748031497
          },
          {
            "duration": 0.125,
            "durationTicks": 120,
            "midi": 74,
            "name": "D5",
            "ticks": 166720,
            "time": 177.57529866666664,
            "velocity": 0.7874015748031497
          },
          {
            "duration": 0.125,
            "durationTicks": 120,
            "midi": 86,
            "name": "D6",
            "ticks": 166720,
            "time": 177.57529866666664,
            "velocity": 0.7874015748031497
          },
          {
            "duration": 0.125,
            "durationTicks": 120,
            "midi": 98,
            "name": "D7",
            "ticks": 166720,
            "time": 177.57529866666664,
            "velocity": 0.7874015748031497
          },
          {
            "duration": 0.5013292916666501,
            "durationTicks": 480,
            "midi": 105,
            "name": "A7",
            "ticks": 166865,
            "time": 177.72634033333333,
            "velocity": 0.7874015748031497
          },
          {
            "duration": 0.5013292916666501,
            "durationTicks": 480,
            "midi": 93,
            "name": "A6",
            "ticks": 166865,
            "time": 177.72634033333333,
            "velocity": 0.7874015748031497
          },
          {
            "duration": 0.5013292916666501,
            "durationTicks": 480,
            "midi": 81,
            "name": "A5",
            "ticks": 166865,
            "time": 177.72634033333333,
            "velocity": 0.7874015748031497
          },
          {
            "duration": 0.5013292916666501,
            "durationTicks": 480,
            "midi": 69,
            "name": "A4",
            "ticks": 166865,
            "time": 177.72634033333333,
            "velocity": 0.7874015748031497
          },
          {
            "duration": 0.125,
            "durationTicks": 120,
            "midi": 60,
            "name": "C4",
            "ticks": 166880,
            "time": 177.74196533333333,
            "velocity": 0.7874015748031497
          },
          {
            "duration": 0.125,
            "durationTicks": 120,
            "midi": 74,
            "name": "D5",
            "ticks": 166880,
            "time": 177.74196533333333,
            "velocity": 0.7874015748031497
          },
          {
            "duration": 0.125,
            "durationTicks": 120,
            "midi": 87,
            "name": "D#6",
            "ticks": 166880,
            "time": 177.74196533333333,
            "velocity": 0.7874015748031497
          },
          {
            "duration": 0.125,
            "durationTicks": 120,
            "midi": 99,
            "name": "D#7",
            "ticks": 166880,
            "time": 177.74196533333333,
            "velocity": 0.7874015748031497
          },
          {
            "duration": 0.12552299999998695,
            "durationTicks": 120,
            "midi": 98,
            "name": "D7",
            "ticks": 167040,
            "time": 177.90863199999998,
            "velocity": 0.7874015748031497
          },
          {
            "duration": 0.12552300000001537,
            "durationTicks": 120,
            "midi": 73,
            "name": "C#5",
            "ticks": 167200,
            "time": 178.07599599999998,
            "velocity": 0.7874015748031497
          },
          {
            "duration": 0.12552300000001537,
            "durationTicks": 120,
            "midi": 85,
            "name": "C#6",
            "ticks": 167200,
            "time": 178.07599599999998,
            "velocity": 0.7874015748031497
          },
          {
            "duration": 0.12552300000001537,
            "durationTicks": 120,
            "midi": 97,
            "name": "C#7",
            "ticks": 167200,
            "time": 178.07599599999998,
            "velocity": 0.7874015748031497
          },
          {
            "duration": 0.5020920000000046,
            "durationTicks": 480,
            "midi": 106,
            "name": "A#7",
            "ticks": 167345,
            "time": 178.22766962499998,
            "velocity": 0.7874015748031497
          },
          {
            "duration": 0.5020920000000046,
            "durationTicks": 480,
            "midi": 94,
            "name": "A#6",
            "ticks": 167345,
            "time": 178.22766962499998,
            "velocity": 0.7874015748031497
          },
          {
            "duration": 0.5020920000000046,
            "durationTicks": 480,
            "midi": 82,
            "name": "A#5",
            "ticks": 167345,
            "time": 178.22766962499998,
            "velocity": 0.7874015748031497
          },
          {
            "duration": 0.5020920000000046,
            "durationTicks": 480,
            "midi": 70,
            "name": "A#4",
            "ticks": 167345,
            "time": 178.22766962499998,
            "velocity": 0.7874015748031497
          },
          {
            "duration": 0.12552299999998695,
            "durationTicks": 120,
            "midi": 62,
            "name": "D4",
            "ticks": 167360,
            "time": 178.24336,
            "velocity": 0.7874015748031497
          },
          {
            "duration": 0.12552299999998695,
            "durationTicks": 120,
            "midi": 75,
            "name": "D#5",
            "ticks": 167360,
            "time": 178.24336,
            "velocity": 0.7874015748031497
          },
          {
            "duration": 0.12552299999998695,
            "durationTicks": 120,
            "midi": 88,
            "name": "E6",
            "ticks": 167360,
            "time": 178.24336,
            "velocity": 0.7874015748031497
          },
          {
            "duration": 0.12552299999998695,
            "durationTicks": 120,
            "midi": 100,
            "name": "E7",
            "ticks": 167360,
            "time": 178.24336,
            "velocity": 0.7874015748031497
          },
          {
            "duration": 0.12552299999998695,
            "durationTicks": 120,
            "midi": 99,
            "name": "D#7",
            "ticks": 167520,
            "time": 178.410724,
            "velocity": 0.7874015748031497
          },
          {
            "duration": 0.12552300000001537,
            "durationTicks": 120,
            "midi": 74,
            "name": "D5",
            "ticks": 167680,
            "time": 178.57808799999998,
            "velocity": 0.7874015748031497
          },
          {
            "duration": 0.12552300000001537,
            "durationTicks": 120,
            "midi": 86,
            "name": "D6",
            "ticks": 167680,
            "time": 178.57808799999998,
            "velocity": 0.7874015748031497
          },
          {
            "duration": 0.12552300000001537,
            "durationTicks": 120,
            "midi": 98,
            "name": "D7",
            "ticks": 167680,
            "time": 178.57808799999998,
            "velocity": 0.7874015748031497
          },
          {
            "duration": 0.5020920000000046,
            "durationTicks": 480,
            "midi": 105,
            "name": "A7",
            "ticks": 167825,
            "time": 178.72976162499998,
            "velocity": 0.7874015748031497
          },
          {
            "duration": 0.5020920000000046,
            "durationTicks": 480,
            "midi": 93,
            "name": "A6",
            "ticks": 167825,
            "time": 178.72976162499998,
            "velocity": 0.7874015748031497
          },
          {
            "duration": 0.5020920000000046,
            "durationTicks": 480,
            "midi": 81,
            "name": "A5",
            "ticks": 167825,
            "time": 178.72976162499998,
            "velocity": 0.7874015748031497
          },
          {
            "duration": 0.5020920000000046,
            "durationTicks": 480,
            "midi": 69,
            "name": "A4",
            "ticks": 167825,
            "time": 178.72976162499998,
            "velocity": 0.7874015748031497
          },
          {
            "duration": 0.12552300000001537,
            "durationTicks": 120,
            "midi": 60,
            "name": "C4",
            "ticks": 167840,
            "time": 178.74545199999997,
            "velocity": 0.7874015748031497
          },
          {
            "duration": 0.12552300000001537,
            "durationTicks": 120,
            "midi": 74,
            "name": "D5",
            "ticks": 167840,
            "time": 178.74545199999997,
            "velocity": 0.7874015748031497
          },
          {
            "duration": 0.12552300000001537,
            "durationTicks": 120,
            "midi": 87,
            "name": "D#6",
            "ticks": 167840,
            "time": 178.74545199999997,
            "velocity": 0.7874015748031497
          },
          {
            "duration": 0.12552300000001537,
            "durationTicks": 120,
            "midi": 99,
            "name": "D#7",
            "ticks": 167840,
            "time": 178.74545199999997,
            "velocity": 0.7874015748031497
          },
          {
            "duration": 0.12552299999998695,
            "durationTicks": 120,
            "midi": 98,
            "name": "D7",
            "ticks": 168000,
            "time": 178.912816,
            "velocity": 0.7874015748031497
          },
          {
            "duration": 0.12552299999998695,
            "durationTicks": 120,
            "midi": 73,
            "name": "C#5",
            "ticks": 168160,
            "time": 179.08017999999998,
            "velocity": 0.7874015748031497
          },
          {
            "duration": 0.12552299999998695,
            "durationTicks": 120,
            "midi": 85,
            "name": "C#6",
            "ticks": 168160,
            "time": 179.08017999999998,
            "velocity": 0.7874015748031497
          },
          {
            "duration": 0.12552299999998695,
            "durationTicks": 120,
            "midi": 97,
            "name": "C#7",
            "ticks": 168160,
            "time": 179.08017999999998,
            "velocity": 0.7874015748031497
          },
          {
            "duration": 0.5020920000000046,
            "durationTicks": 480,
            "midi": 106,
            "name": "A#7",
            "ticks": 168305,
            "time": 179.23185362499999,
            "velocity": 0.7874015748031497
          },
          {
            "duration": 0.5020920000000046,
            "durationTicks": 480,
            "midi": 94,
            "name": "A#6",
            "ticks": 168305,
            "time": 179.23185362499999,
            "velocity": 0.7874015748031497
          },
          {
            "duration": 0.5020920000000046,
            "durationTicks": 480,
            "midi": 82,
            "name": "A#5",
            "ticks": 168305,
            "time": 179.23185362499999,
            "velocity": 0.7874015748031497
          },
          {
            "duration": 0.5020920000000046,
            "durationTicks": 480,
            "midi": 70,
            "name": "A#4",
            "ticks": 168305,
            "time": 179.23185362499999,
            "velocity": 0.7874015748031497
          },
          {
            "duration": 0.12552300000001537,
            "durationTicks": 120,
            "midi": 62,
            "name": "D4",
            "ticks": 168320,
            "time": 179.24754399999998,
            "velocity": 0.7874015748031497
          },
          {
            "duration": 0.12552300000001537,
            "durationTicks": 120,
            "midi": 75,
            "name": "D#5",
            "ticks": 168320,
            "time": 179.24754399999998,
            "velocity": 0.7874015748031497
          },
          {
            "duration": 0.12552300000001537,
            "durationTicks": 120,
            "midi": 88,
            "name": "E6",
            "ticks": 168320,
            "time": 179.24754399999998,
            "velocity": 0.7874015748031497
          },
          {
            "duration": 0.12552300000001537,
            "durationTicks": 120,
            "midi": 100,
            "name": "E7",
            "ticks": 168320,
            "time": 179.24754399999998,
            "velocity": 0.7874015748031497
          },
          {
            "duration": 0.12552299999998695,
            "durationTicks": 120,
            "midi": 99,
            "name": "D#7",
            "ticks": 168480,
            "time": 179.414908,
            "velocity": 0.7874015748031497
          },
          {
            "duration": 0.12552299999998695,
            "durationTicks": 120,
            "midi": 74,
            "name": "D5",
            "ticks": 168640,
            "time": 179.582272,
            "velocity": 0.7874015748031497
          },
          {
            "duration": 0.12552299999998695,
            "durationTicks": 120,
            "midi": 86,
            "name": "D6",
            "ticks": 168640,
            "time": 179.582272,
            "velocity": 0.7874015748031497
          },
          {
            "duration": 0.12552299999998695,
            "durationTicks": 120,
            "midi": 98,
            "name": "D7",
            "ticks": 168640,
            "time": 179.582272,
            "velocity": 0.7874015748031497
          },
          {
            "duration": 0.5020920000000046,
            "durationTicks": 480,
            "midi": 105,
            "name": "A7",
            "ticks": 168785,
            "time": 179.733945625,
            "velocity": 0.7874015748031497
          },
          {
            "duration": 0.5020920000000046,
            "durationTicks": 480,
            "midi": 93,
            "name": "A6",
            "ticks": 168785,
            "time": 179.733945625,
            "velocity": 0.7874015748031497
          },
          {
            "duration": 0.5020920000000046,
            "durationTicks": 480,
            "midi": 81,
            "name": "A5",
            "ticks": 168785,
            "time": 179.733945625,
            "velocity": 0.7874015748031497
          },
          {
            "duration": 0.5020920000000046,
            "durationTicks": 480,
            "midi": 69,
            "name": "A4",
            "ticks": 168785,
            "time": 179.733945625,
            "velocity": 0.7874015748031497
          },
          {
            "duration": 0.12552300000001537,
            "durationTicks": 120,
            "midi": 60,
            "name": "C4",
            "ticks": 168800,
            "time": 179.74963599999998,
            "velocity": 0.7874015748031497
          },
          {
            "duration": 0.12552300000001537,
            "durationTicks": 120,
            "midi": 74,
            "name": "D5",
            "ticks": 168800,
            "time": 179.74963599999998,
            "velocity": 0.7874015748031497
          },
          {
            "duration": 0.12552300000001537,
            "durationTicks": 120,
            "midi": 87,
            "name": "D#6",
            "ticks": 168800,
            "time": 179.74963599999998,
            "velocity": 0.7874015748031497
          },
          {
            "duration": 0.12552300000001537,
            "durationTicks": 120,
            "midi": 99,
            "name": "D#7",
            "ticks": 168800,
            "time": 179.74963599999998,
            "velocity": 0.7874015748031497
          },
          {
            "duration": 0.12552300000001537,
            "durationTicks": 120,
            "midi": 98,
            "name": "D7",
            "ticks": 168960,
            "time": 179.91699999999997,
            "velocity": 0.7874015748031497
          },
          {
            "duration": 0.12552299999998695,
            "durationTicks": 120,
            "midi": 73,
            "name": "C#5",
            "ticks": 169120,
            "time": 180.084364,
            "velocity": 0.7874015748031497
          },
          {
            "duration": 0.12552299999998695,
            "durationTicks": 120,
            "midi": 85,
            "name": "C#6",
            "ticks": 169120,
            "time": 180.084364,
            "velocity": 0.7874015748031497
          },
          {
            "duration": 0.12552299999998695,
            "durationTicks": 120,
            "midi": 97,
            "name": "C#7",
            "ticks": 169120,
            "time": 180.084364,
            "velocity": 0.7874015748031497
          },
          {
            "duration": 0.5020919999999762,
            "durationTicks": 480,
            "midi": 106,
            "name": "A#7",
            "ticks": 169265,
            "time": 180.236037625,
            "velocity": 0.7874015748031497
          },
          {
            "duration": 0.5020919999999762,
            "durationTicks": 480,
            "midi": 94,
            "name": "A#6",
            "ticks": 169265,
            "time": 180.236037625,
            "velocity": 0.7874015748031497
          },
          {
            "duration": 0.5020919999999762,
            "durationTicks": 480,
            "midi": 82,
            "name": "A#5",
            "ticks": 169265,
            "time": 180.236037625,
            "velocity": 0.7874015748031497
          },
          {
            "duration": 0.5020919999999762,
            "durationTicks": 480,
            "midi": 70,
            "name": "A#4",
            "ticks": 169265,
            "time": 180.236037625,
            "velocity": 0.7874015748031497
          },
          {
            "duration": 0.12552299999998695,
            "durationTicks": 120,
            "midi": 62,
            "name": "D4",
            "ticks": 169280,
            "time": 180.25172799999999,
            "velocity": 0.7874015748031497
          },
          {
            "duration": 0.12552299999998695,
            "durationTicks": 120,
            "midi": 75,
            "name": "D#5",
            "ticks": 169280,
            "time": 180.25172799999999,
            "velocity": 0.7874015748031497
          },
          {
            "duration": 0.12552299999998695,
            "durationTicks": 120,
            "midi": 88,
            "name": "E6",
            "ticks": 169280,
            "time": 180.25172799999999,
            "velocity": 0.7874015748031497
          },
          {
            "duration": 0.12552299999998695,
            "durationTicks": 120,
            "midi": 100,
            "name": "E7",
            "ticks": 169280,
            "time": 180.25172799999999,
            "velocity": 0.7874015748031497
          },
          {
            "duration": 0.12552300000001537,
            "durationTicks": 120,
            "midi": 99,
            "name": "D#7",
            "ticks": 169440,
            "time": 180.41909199999998,
            "velocity": 0.7874015748031497
          },
          {
            "duration": 0.12552300000001537,
            "durationTicks": 120,
            "midi": 74,
            "name": "D5",
            "ticks": 169600,
            "time": 180.58645599999997,
            "velocity": 0.7874015748031497
          },
          {
            "duration": 0.12552300000001537,
            "durationTicks": 120,
            "midi": 86,
            "name": "D6",
            "ticks": 169600,
            "time": 180.58645599999997,
            "velocity": 0.7874015748031497
          },
          {
            "duration": 0.12552300000001537,
            "durationTicks": 120,
            "midi": 98,
            "name": "D7",
            "ticks": 169600,
            "time": 180.58645599999997,
            "velocity": 0.7874015748031497
          },
          {
            "duration": 0.5020920000000046,
            "durationTicks": 480,
            "midi": 105,
            "name": "A7",
            "ticks": 169745,
            "time": 180.73812962499997,
            "velocity": 0.7874015748031497
          },
          {
            "duration": 0.5020920000000046,
            "durationTicks": 480,
            "midi": 93,
            "name": "A6",
            "ticks": 169745,
            "time": 180.73812962499997,
            "velocity": 0.7874015748031497
          },
          {
            "duration": 0.5020920000000046,
            "durationTicks": 480,
            "midi": 81,
            "name": "A5",
            "ticks": 169745,
            "time": 180.73812962499997,
            "velocity": 0.7874015748031497
          },
          {
            "duration": 0.5020920000000046,
            "durationTicks": 480,
            "midi": 69,
            "name": "A4",
            "ticks": 169745,
            "time": 180.73812962499997,
            "velocity": 0.7874015748031497
          },
          {
            "duration": 0.12552299999998695,
            "durationTicks": 120,
            "midi": 60,
            "name": "C4",
            "ticks": 169760,
            "time": 180.75382,
            "velocity": 0.7874015748031497
          },
          {
            "duration": 0.12552299999998695,
            "durationTicks": 120,
            "midi": 74,
            "name": "D5",
            "ticks": 169760,
            "time": 180.75382,
            "velocity": 0.7874015748031497
          },
          {
            "duration": 0.12552299999998695,
            "durationTicks": 120,
            "midi": 87,
            "name": "D#6",
            "ticks": 169760,
            "time": 180.75382,
            "velocity": 0.7874015748031497
          },
          {
            "duration": 0.12552299999998695,
            "durationTicks": 120,
            "midi": 99,
            "name": "D#7",
            "ticks": 169760,
            "time": 180.75382,
            "velocity": 0.7874015748031497
          },
          {
            "duration": 0.12552299999998695,
            "durationTicks": 120,
            "midi": 98,
            "name": "D7",
            "ticks": 169920,
            "time": 180.92118399999998,
            "velocity": 0.7874015748031497
          },
          {
            "duration": 0.12552300000001537,
            "durationTicks": 120,
            "midi": 73,
            "name": "C#5",
            "ticks": 170080,
            "time": 181.08854799999997,
            "velocity": 0.7874015748031497
          },
          {
            "duration": 0.12552300000001537,
            "durationTicks": 120,
            "midi": 85,
            "name": "C#6",
            "ticks": 170080,
            "time": 181.08854799999997,
            "velocity": 0.7874015748031497
          },
          {
            "duration": 0.12552300000001537,
            "durationTicks": 120,
            "midi": 97,
            "name": "C#7",
            "ticks": 170080,
            "time": 181.08854799999997,
            "velocity": 0.7874015748031497
          },
          {
            "duration": 0.5020920000000046,
            "durationTicks": 480,
            "midi": 106,
            "name": "A#7",
            "ticks": 170225,
            "time": 181.24022162499998,
            "velocity": 0.7874015748031497
          },
          {
            "duration": 0.5020920000000046,
            "durationTicks": 480,
            "midi": 94,
            "name": "A#6",
            "ticks": 170225,
            "time": 181.24022162499998,
            "velocity": 0.7874015748031497
          },
          {
            "duration": 0.5020920000000046,
            "durationTicks": 480,
            "midi": 82,
            "name": "A#5",
            "ticks": 170225,
            "time": 181.24022162499998,
            "velocity": 0.7874015748031497
          },
          {
            "duration": 0.5020920000000046,
            "durationTicks": 480,
            "midi": 70,
            "name": "A#4",
            "ticks": 170225,
            "time": 181.24022162499998,
            "velocity": 0.7874015748031497
          },
          {
            "duration": 0.12552299999998695,
            "durationTicks": 120,
            "midi": 62,
            "name": "D4",
            "ticks": 170240,
            "time": 181.255912,
            "velocity": 0.7874015748031497
          },
          {
            "duration": 0.12552299999998695,
            "durationTicks": 120,
            "midi": 75,
            "name": "D#5",
            "ticks": 170240,
            "time": 181.255912,
            "velocity": 0.7874015748031497
          },
          {
            "duration": 0.12552299999998695,
            "durationTicks": 120,
            "midi": 88,
            "name": "E6",
            "ticks": 170240,
            "time": 181.255912,
            "velocity": 0.7874015748031497
          },
          {
            "duration": 0.12552299999998695,
            "durationTicks": 120,
            "midi": 100,
            "name": "E7",
            "ticks": 170240,
            "time": 181.255912,
            "velocity": 0.7874015748031497
          },
          {
            "duration": 0.12552299999998695,
            "durationTicks": 120,
            "midi": 99,
            "name": "D#7",
            "ticks": 170400,
            "time": 181.423276,
            "velocity": 0.7874015748031497
          },
          {
            "duration": 0.12552300000001537,
            "durationTicks": 120,
            "midi": 74,
            "name": "D5",
            "ticks": 170560,
            "time": 181.59063999999998,
            "velocity": 0.7874015748031497
          },
          {
            "duration": 0.12552300000001537,
            "durationTicks": 120,
            "midi": 86,
            "name": "D6",
            "ticks": 170560,
            "time": 181.59063999999998,
            "velocity": 0.7874015748031497
          },
          {
            "duration": 0.12552300000001537,
            "durationTicks": 120,
            "midi": 98,
            "name": "D7",
            "ticks": 170560,
            "time": 181.59063999999998,
            "velocity": 0.7874015748031497
          },
          {
            "duration": 0.5020920000000046,
            "durationTicks": 480,
            "midi": 105,
            "name": "A7",
            "ticks": 170705,
            "time": 181.74231362499998,
            "velocity": 0.7874015748031497
          },
          {
            "duration": 0.5020920000000046,
            "durationTicks": 480,
            "midi": 93,
            "name": "A6",
            "ticks": 170705,
            "time": 181.74231362499998,
            "velocity": 0.7874015748031497
          },
          {
            "duration": 0.5020920000000046,
            "durationTicks": 480,
            "midi": 81,
            "name": "A5",
            "ticks": 170705,
            "time": 181.74231362499998,
            "velocity": 0.7874015748031497
          },
          {
            "duration": 0.5020920000000046,
            "durationTicks": 480,
            "midi": 69,
            "name": "A4",
            "ticks": 170705,
            "time": 181.74231362499998,
            "velocity": 0.7874015748031497
          },
          {
            "duration": 0.12552300000001537,
            "durationTicks": 120,
            "midi": 60,
            "name": "C4",
            "ticks": 170720,
            "time": 181.75800399999997,
            "velocity": 0.7874015748031497
          },
          {
            "duration": 0.12552300000001537,
            "durationTicks": 120,
            "midi": 74,
            "name": "D5",
            "ticks": 170720,
            "time": 181.75800399999997,
            "velocity": 0.7874015748031497
          },
          {
            "duration": 0.12552300000001537,
            "durationTicks": 120,
            "midi": 87,
            "name": "D#6",
            "ticks": 170720,
            "time": 181.75800399999997,
            "velocity": 0.7874015748031497
          },
          {
            "duration": 0.12552300000001537,
            "durationTicks": 120,
            "midi": 99,
            "name": "D#7",
            "ticks": 170720,
            "time": 181.75800399999997,
            "velocity": 0.7874015748031497
          },
          {
            "duration": 0.12552299999998695,
            "durationTicks": 120,
            "midi": 98,
            "name": "D7",
            "ticks": 170880,
            "time": 181.925368,
            "velocity": 0.7874015748031497
          },
          {
            "duration": 0.12552299999998695,
            "durationTicks": 120,
            "midi": 73,
            "name": "C#5",
            "ticks": 171040,
            "time": 182.09273199999998,
            "velocity": 0.7874015748031497
          },
          {
            "duration": 0.12552299999998695,
            "durationTicks": 120,
            "midi": 85,
            "name": "C#6",
            "ticks": 171040,
            "time": 182.09273199999998,
            "velocity": 0.7874015748031497
          },
          {
            "duration": 0.12552299999998695,
            "durationTicks": 120,
            "midi": 97,
            "name": "C#7",
            "ticks": 171040,
            "time": 182.09273199999998,
            "velocity": 0.7874015748031497
          },
          {
            "duration": 11.966525999999988,
            "durationTicks": 11440,
            "midi": 70,
            "name": "A#4",
            "ticks": 171185,
            "time": 182.24440562499998,
            "velocity": 0.7874015748031497
          },
          {
            "duration": 11.966525999999988,
            "durationTicks": 11440,
            "midi": 82,
            "name": "A#5",
            "ticks": 171185,
            "time": 182.24440562499998,
            "velocity": 0.7874015748031497
          },
          {
            "duration": 11.966525999999988,
            "durationTicks": 11440,
            "midi": 94,
            "name": "A#6",
            "ticks": 171185,
            "time": 182.24440562499998,
            "velocity": 0.7874015748031497
          },
          {
            "duration": 11.966525999999988,
            "durationTicks": 11440,
            "midi": 106,
            "name": "A#7",
            "ticks": 171185,
            "time": 182.24440562499998,
            "velocity": 0.7874015748031497
          },
          {
            "duration": 0.12552300000001537,
            "durationTicks": 120,
            "midi": 62,
            "name": "D4",
            "ticks": 171200,
            "time": 182.26009599999998,
            "velocity": 0.7874015748031497
          },
          {
            "duration": 0.12552300000001537,
            "durationTicks": 120,
            "midi": 75,
            "name": "D#5",
            "ticks": 171200,
            "time": 182.26009599999998,
            "velocity": 0.7874015748031497
          },
          {
            "duration": 0.12552300000001537,
            "durationTicks": 120,
            "midi": 88,
            "name": "E6",
            "ticks": 171200,
            "time": 182.26009599999998,
            "velocity": 0.7874015748031497
          },
          {
            "duration": 0.12552300000001537,
            "durationTicks": 120,
            "midi": 100,
            "name": "E7",
            "ticks": 171200,
            "time": 182.26009599999998,
            "velocity": 0.7874015748031497
          },
          {
            "duration": 0.12552299999998695,
            "durationTicks": 120,
            "midi": 99,
            "name": "D#7",
            "ticks": 171360,
            "time": 182.42746,
            "velocity": 0.7874015748031497
          },
          {
            "duration": 0.12552299999998695,
            "durationTicks": 120,
            "midi": 74,
            "name": "D5",
            "ticks": 171520,
            "time": 182.594824,
            "velocity": 0.7874015748031497
          },
          {
            "duration": 0.12552299999998695,
            "durationTicks": 120,
            "midi": 86,
            "name": "D6",
            "ticks": 171520,
            "time": 182.594824,
            "velocity": 0.7874015748031497
          },
          {
            "duration": 0.12552299999998695,
            "durationTicks": 120,
            "midi": 98,
            "name": "D7",
            "ticks": 171520,
            "time": 182.594824,
            "velocity": 0.7874015748031497
          },
          {
            "duration": 0.12552300000001537,
            "durationTicks": 120,
            "midi": 60,
            "name": "C4",
            "ticks": 171680,
            "time": 182.76218799999998,
            "velocity": 0.7874015748031497
          },
          {
            "duration": 0.12552300000001537,
            "durationTicks": 120,
            "midi": 74,
            "name": "D5",
            "ticks": 171680,
            "time": 182.76218799999998,
            "velocity": 0.7874015748031497
          },
          {
            "duration": 0.12552300000001537,
            "durationTicks": 120,
            "midi": 87,
            "name": "D#6",
            "ticks": 171680,
            "time": 182.76218799999998,
            "velocity": 0.7874015748031497
          },
          {
            "duration": 0.12552300000001537,
            "durationTicks": 120,
            "midi": 99,
            "name": "D#7",
            "ticks": 171680,
            "time": 182.76218799999998,
            "velocity": 0.7874015748031497
          },
          {
            "duration": 0.12552300000001537,
            "durationTicks": 120,
            "midi": 98,
            "name": "D7",
            "ticks": 171840,
            "time": 182.92955199999997,
            "velocity": 0.7874015748031497
          },
          {
            "duration": 0.12552299999998695,
            "durationTicks": 120,
            "midi": 73,
            "name": "C#5",
            "ticks": 172000,
            "time": 183.096916,
            "velocity": 0.7874015748031497
          },
          {
            "duration": 0.12552299999998695,
            "durationTicks": 120,
            "midi": 85,
            "name": "C#6",
            "ticks": 172000,
            "time": 183.096916,
            "velocity": 0.7874015748031497
          },
          {
            "duration": 0.12552299999998695,
            "durationTicks": 120,
            "midi": 97,
            "name": "C#7",
            "ticks": 172000,
            "time": 183.096916,
            "velocity": 0.7874015748031497
          },
          {
            "duration": 10.962341999999978,
            "durationTicks": 10480,
            "midi": 69,
            "name": "A4",
            "ticks": 172145,
            "time": 183.248589625,
            "velocity": 0.7874015748031497
          },
          {
            "duration": 10.962341999999978,
            "durationTicks": 10480,
            "midi": 81,
            "name": "A5",
            "ticks": 172145,
            "time": 183.248589625,
            "velocity": 0.7874015748031497
          },
          {
            "duration": 10.962341999999978,
            "durationTicks": 10480,
            "midi": 93,
            "name": "A6",
            "ticks": 172145,
            "time": 183.248589625,
            "velocity": 0.7874015748031497
          },
          {
            "duration": 10.962341999999978,
            "durationTicks": 10480,
            "midi": 105,
            "name": "A7",
            "ticks": 172145,
            "time": 183.248589625,
            "velocity": 0.7874015748031497
          },
          {
            "duration": 0.12552299999998695,
            "durationTicks": 120,
            "midi": 62,
            "name": "D4",
            "ticks": 172160,
            "time": 183.26427999999999,
            "velocity": 0.7874015748031497
          },
          {
            "duration": 0.12552299999998695,
            "durationTicks": 120,
            "midi": 75,
            "name": "D#5",
            "ticks": 172160,
            "time": 183.26427999999999,
            "velocity": 0.7874015748031497
          },
          {
            "duration": 0.12552299999998695,
            "durationTicks": 120,
            "midi": 88,
            "name": "E6",
            "ticks": 172160,
            "time": 183.26427999999999,
            "velocity": 0.7874015748031497
          },
          {
            "duration": 0.12552299999998695,
            "durationTicks": 120,
            "midi": 100,
            "name": "E7",
            "ticks": 172160,
            "time": 183.26427999999999,
            "velocity": 0.7874015748031497
          },
          {
            "duration": 0.12552300000001537,
            "durationTicks": 120,
            "midi": 99,
            "name": "D#7",
            "ticks": 172320,
            "time": 183.43164399999998,
            "velocity": 0.7874015748031497
          },
          {
            "duration": 0.12552300000001537,
            "durationTicks": 120,
            "midi": 74,
            "name": "D5",
            "ticks": 172480,
            "time": 183.59900799999997,
            "velocity": 0.7874015748031497
          },
          {
            "duration": 0.12552300000001537,
            "durationTicks": 120,
            "midi": 86,
            "name": "D6",
            "ticks": 172480,
            "time": 183.59900799999997,
            "velocity": 0.7874015748031497
          },
          {
            "duration": 0.12552300000001537,
            "durationTicks": 120,
            "midi": 98,
            "name": "D7",
            "ticks": 172480,
            "time": 183.59900799999997,
            "velocity": 0.7874015748031497
          },
          {
            "duration": 1.5899579999999958,
            "durationTicks": 1520,
            "midi": 61,
            "name": "C#4",
            "ticks": 172640,
            "time": 183.766372,
            "velocity": 0.7874015748031497
          },
          {
            "duration": 0.08368199999998183,
            "durationTicks": 80,
            "midi": 99,
            "name": "D#7",
            "ticks": 172640,
            "time": 183.766372,
            "velocity": 0.7874015748031497
          },
          {
            "duration": 0.12552299999998695,
            "durationTicks": 120,
            "midi": 87,
            "name": "D#6",
            "ticks": 172640,
            "time": 183.766372,
            "velocity": 0.7874015748031497
          },
          {
            "duration": 1.5899579999999958,
            "durationTicks": 1520,
            "midi": 74,
            "name": "D5",
            "ticks": 172640,
            "time": 183.766372,
            "velocity": 0.7874015748031497
          },
          {
            "duration": 1.4225940000000037,
            "durationTicks": 1360,
            "midi": 98,
            "name": "D7",
            "ticks": 172800,
            "time": 183.93373599999998,
            "velocity": 0.7874015748031497
          },
          {
            "duration": 1.4225940000000037,
            "durationTicks": 1360,
            "midi": 86,
            "name": "D6",
            "ticks": 172800,
            "time": 183.93373599999998,
            "velocity": 0.7874015748031497
          },
          {
            "duration": 0.08368199999998183,
            "durationTicks": 80,
            "midi": 100,
            "name": "E7",
            "ticks": 174240,
            "time": 185.440012,
            "velocity": 0.7874015748031497
          },
          {
            "duration": 0.08368199999998183,
            "durationTicks": 80,
            "midi": 98,
            "name": "D7",
            "ticks": 174240,
            "time": 185.440012,
            "velocity": 0.7874015748031497
          },
          {
            "duration": 0.08368199999998183,
            "durationTicks": 80,
            "midi": 88,
            "name": "E6",
            "ticks": 174240,
            "time": 185.440012,
            "velocity": 0.7874015748031497
          },
          {
            "duration": 0.08368199999998183,
            "durationTicks": 80,
            "midi": 86,
            "name": "D6",
            "ticks": 174240,
            "time": 185.440012,
            "velocity": 0.7874015748031497
          },
          {
            "duration": 0.08368199999998183,
            "durationTicks": 80,
            "midi": 75,
            "name": "D#5",
            "ticks": 174240,
            "time": 185.440012,
            "velocity": 0.7874015748031497
          },
          {
            "duration": 0.08368199999998183,
            "durationTicks": 80,
            "midi": 62,
            "name": "D4",
            "ticks": 174240,
            "time": 185.440012,
            "velocity": 0.7874015748031497
          },
          {
            "duration": 0.08368199999998183,
            "durationTicks": 80,
            "midi": 61,
            "name": "C#4",
            "ticks": 174240,
            "time": 185.440012,
            "velocity": 0.7874015748031497
          },
          {
            "duration": 0.08368199999998183,
            "durationTicks": 80,
            "midi": 74,
            "name": "D5",
            "ticks": 174240,
            "time": 185.440012,
            "velocity": 0.7874015748031497
          },
          {
            "duration": 8.28451800000002,
            "durationTicks": 7920,
            "midi": 74,
            "name": "D5",
            "ticks": 174720,
            "time": 185.94210399999997,
            "velocity": 0.7874015748031497
          },
          {
            "duration": 8.28451800000002,
            "durationTicks": 7920,
            "midi": 61,
            "name": "C#4",
            "ticks": 174720,
            "time": 185.94210399999997,
            "velocity": 0.7874015748031497
          },
          {
            "duration": 8.28451800000002,
            "durationTicks": 7920,
            "midi": 62,
            "name": "D4",
            "ticks": 174720,
            "time": 185.94210399999997,
            "velocity": 0.7874015748031497
          },
          {
            "duration": 8.28451800000002,
            "durationTicks": 7920,
            "midi": 75,
            "name": "D#5",
            "ticks": 174720,
            "time": 185.94210399999997,
            "velocity": 0.7874015748031497
          },
          {
            "duration": 8.28451800000002,
            "durationTicks": 7920,
            "midi": 86,
            "name": "D6",
            "ticks": 174720,
            "time": 185.94210399999997,
            "velocity": 0.7874015748031497
          },
          {
            "duration": 8.28451800000002,
            "durationTicks": 7920,
            "midi": 88,
            "name": "E6",
            "ticks": 174720,
            "time": 185.94210399999997,
            "velocity": 0.7874015748031497
          },
          {
            "duration": 8.28451800000002,
            "durationTicks": 7920,
            "midi": 98,
            "name": "D7",
            "ticks": 174720,
            "time": 185.94210399999997,
            "velocity": 0.7874015748031497
          },
          {
            "duration": 8.28451800000002,
            "durationTicks": 7920,
            "midi": 100,
            "name": "E7",
            "ticks": 174720,
            "time": 185.94210399999997,
            "velocity": 0.7874015748031497
          }
        ]
      },
      {
        "channel": 0,
        "controlChanges": {},
        "pitchBends": [],
        "instrument": {
          "family": "piano",
          "name": "acoustic grand piano",
          "number": 0
        },
        "name": "EVENTS",
        "notes": []
      },
      {
        "channel": 0,
        "controlChanges": {},
        "pitchBends": [],
        "instrument": {
          "family": "piano",
          "name": "acoustic grand piano",
          "number": 0
        },
        "name": "ANIM",
        "notes": [
          {
            "duration": 0.13452874999999942,
            "durationTicks": 120,
            "midi": 53,
            "name": "F3",
            "ticks": 7360,
            "time": 8.098724666666666,
            "velocity": 0.7874015748031497
          },
          {
            "duration": 0.13452874999999942,
            "durationTicks": 120,
            "midi": 51,
            "name": "D#3",
            "ticks": 7520,
            "time": 8.278096333333332,
            "velocity": 0.7874015748031497
          },
          {
            "duration": 3.4740450000000003,
            "durationTicks": 3120,
            "midi": 46,
            "name": "A#2",
            "ticks": 7680,
            "time": 8.457467999999999,
            "velocity": 0.7874015748031497
          },
          {
            "duration": 0.13215849999999918,
            "durationTicks": 120,
            "midi": 40,
            "name": "E2",
            "ticks": 11040,
            "time": 12.19583,
            "velocity": 0.7874015748031497
          },
          {
            "duration": 1.0572680000000005,
            "durationTicks": 960,
            "midi": 51,
            "name": "D#3",
            "ticks": 11520,
            "time": 12.724464,
            "velocity": 0.7874015748031497
          },
          {
            "duration": 1.0572679999999988,
            "durationTicks": 960,
            "midi": 50,
            "name": "D3",
            "ticks": 12480,
            "time": 13.781732,
            "velocity": 0.7874015748031497
          },
          {
            "duration": 1.0526280000000003,
            "durationTicks": 960,
            "midi": 49,
            "name": "C#3",
            "ticks": 13440,
            "time": 14.838999999999999,
            "velocity": 0.7874015748031497
          },
          {
            "duration": 1.0526280000000003,
            "durationTicks": 960,
            "midi": 48,
            "name": "C3",
            "ticks": 14400,
            "time": 15.891627999999999,
            "velocity": 0.7874015748031497
          },
          {
            "duration": 1.0526279999999986,
            "durationTicks": 960,
            "midi": 47,
            "name": "B2",
            "ticks": 15360,
            "time": 16.944256,
            "velocity": 0.7874015748031497
          },
          {
            "duration": 2.624676000000001,
            "durationTicks": 2400,
            "midi": 46,
            "name": "A#2",
            "ticks": 16320,
            "time": 17.996883999999998,
            "velocity": 0.7874015748031497
          },
          {
            "duration": 0.6550200000000004,
            "durationTicks": 600,
            "midi": 41,
            "name": "F2",
            "ticks": 19200,
            "time": 21.145576,
            "velocity": 0.7874015748031497
          },
          {
            "duration": 0.1310040000000008,
            "durationTicks": 120,
            "midi": 45,
            "name": "A2",
            "ticks": 19840,
            "time": 21.844264,
            "velocity": 0.7874015748031497
          },
          {
            "duration": 0.1310040000000008,
            "durationTicks": 120,
            "midi": 48,
            "name": "C3",
            "ticks": 20000,
            "time": 22.018936,
            "velocity": 0.7874015748031497
          },
          {
            "duration": 0.1746719999999975,
            "durationTicks": 160,
            "midi": 41,
            "name": "F2",
            "ticks": 20160,
            "time": 22.193608,
            "velocity": 0.7874015748031497
          },
          {
            "duration": 0.1310040000000008,
            "durationTicks": 120,
            "midi": 45,
            "name": "A2",
            "ticks": 20480,
            "time": 22.542952,
            "velocity": 0.7874015748031497
          },
          {
            "duration": 0.17467200000000105,
            "durationTicks": 160,
            "midi": 48,
            "name": "C3",
            "ticks": 20640,
            "time": 22.717624,
            "velocity": 0.7874015748031497
          },
          {
            "duration": 0.17467200000000105,
            "durationTicks": 160,
            "midi": 45,
            "name": "A2",
            "ticks": 20960,
            "time": 23.066968,
            "velocity": 0.7874015748031497
          },
          {
            "duration": 0.1310040000000008,
            "durationTicks": 120,
            "midi": 46,
            "name": "A#2",
            "ticks": 21440,
            "time": 23.590984,
            "velocity": 0.7874015748031497
          },
          {
            "duration": 0.17467200000000105,
            "durationTicks": 160,
            "midi": 49,
            "name": "C#3",
            "ticks": 21600,
            "time": 23.765656,
            "velocity": 0.7874015748031497
          },
          {
            "duration": 0.13100399999999723,
            "durationTicks": 120,
            "midi": 46,
            "name": "A#2",
            "ticks": 21920,
            "time": 24.115000000000002,
            "velocity": 0.7874015748031497
          },
          {
            "duration": 0.17315933333333433,
            "durationTicks": 160,
            "midi": 44,
            "name": "G#2",
            "ticks": 22080,
            "time": 24.289672,
            "velocity": 0.7874015748031497
          },
          {
            "duration": 0.12986950000000164,
            "durationTicks": 120,
            "midi": 46,
            "name": "A#2",
            "ticks": 22400,
            "time": 24.635990666666665,
            "velocity": 0.7874015748031497
          },
          {
            "duration": 0.17315933333333433,
            "durationTicks": 160,
            "midi": 48,
            "name": "C3",
            "ticks": 22560,
            "time": 24.80915,
            "velocity": 0.7874015748031497
          },
          {
            "duration": 0.12986949999999808,
            "durationTicks": 120,
            "midi": 46,
            "name": "A#2",
            "ticks": 22880,
            "time": 25.155468666666668,
            "velocity": 0.7874015748031497
          },
          {
            "duration": 0.17315933333333433,
            "durationTicks": 160,
            "midi": 41,
            "name": "F2",
            "ticks": 23040,
            "time": 25.328628,
            "velocity": 0.7874015748031497
          },
          {
            "duration": 0.12986949999999808,
            "durationTicks": 120,
            "midi": 46,
            "name": "A#2",
            "ticks": 23360,
            "time": 25.674946666666667,
            "velocity": 0.7874015748031497
          },
          {
            "duration": 0.17315933333333078,
            "durationTicks": 160,
            "midi": 49,
            "name": "C#3",
            "ticks": 23520,
            "time": 25.848106,
            "velocity": 0.7874015748031497
          },
          {
            "duration": 0.17021166666666687,
            "durationTicks": 160,
            "midi": 44,
            "name": "G#2",
            "ticks": 24000,
            "time": 26.367584,
            "velocity": 0.7874015748031497
          },
          {
            "duration": 0.17021166666666687,
            "durationTicks": 160,
            "midi": 44,
            "name": "G#2",
            "ticks": 24480,
            "time": 26.878219,
            "velocity": 0.7874015748031497
          },
          {
            "duration": 0.17021166666666687,
            "durationTicks": 160,
            "midi": 46,
            "name": "A#2",
            "ticks": 24960,
            "time": 27.388854000000002,
            "velocity": 0.7874015748031497
          },
          {
            "duration": 0.17021166666666687,
            "durationTicks": 160,
            "midi": 44,
            "name": "G#2",
            "ticks": 25440,
            "time": 27.899489,
            "velocity": 0.7874015748031497
          },
          {
            "duration": 0.5217390000000002,
            "durationTicks": 480,
            "midi": 46,
            "name": "A#2",
            "ticks": 25920,
            "time": 28.410124,
            "velocity": 0.7874015748031497
          },
          {
            "duration": 0.5217390000000002,
            "durationTicks": 480,
            "midi": 49,
            "name": "C#3",
            "ticks": 26880,
            "time": 29.453602,
            "velocity": 0.7874015748031497
          },
          {
            "duration": 0.1287552500000011,
            "durationTicks": 120,
            "midi": 51,
            "name": "D#3",
            "ticks": 27840,
            "time": 30.49708,
            "velocity": 0.7874015748031497
          },
          {
            "duration": 0.12875524999999755,
            "durationTicks": 120,
            "midi": 51,
            "name": "D#3",
            "ticks": 28320,
            "time": 31.012101,
            "velocity": 0.7874015748031497
          },
          {
            "duration": 0.1287552500000011,
            "durationTicks": 120,
            "midi": 49,
            "name": "C#3",
            "ticks": 28800,
            "time": 31.527122,
            "velocity": 0.7874015748031497
          },
          {
            "duration": 0.12875524999999755,
            "durationTicks": 120,
            "midi": 49,
            "name": "C#3",
            "ticks": 29280,
            "time": 32.042143,
            "velocity": 0.7874015748031497
          },
          {
            "duration": 0.12875524999999755,
            "durationTicks": 120,
            "midi": 51,
            "name": "D#3",
            "ticks": 29760,
            "time": 32.557164,
            "velocity": 0.7874015748031497
          },
          {
            "duration": 0.12875525000000465,
            "durationTicks": 120,
            "midi": 51,
            "name": "D#3",
            "ticks": 30240,
            "time": 33.072185,
            "velocity": 0.7874015748031497
          },
          {
            "duration": 0.12875524999999755,
            "durationTicks": 120,
            "midi": 47,
            "name": "B2",
            "ticks": 30559,
            "time": 33.41445937291667,
            "velocity": 0.7874015748031497
          },
          {
            "duration": 0.12875524999999755,
            "durationTicks": 120,
            "midi": 49,
            "name": "C#3",
            "ticks": 30720,
            "time": 33.587206,
            "velocity": 0.7874015748031497
          },
          {
            "duration": 0.12875524999999755,
            "durationTicks": 120,
            "midi": 47,
            "name": "B2",
            "ticks": 30879,
            "time": 33.75780670625,
            "velocity": 0.7874015748031497
          },
          {
            "duration": 0.5150210000000044,
            "durationTicks": 480,
            "midi": 49,
            "name": "C#3",
            "ticks": 31039,
            "time": 33.929480372916665,
            "velocity": 0.7874015748031497
          },
          {
            "duration": 0.12820500000000123,
            "durationTicks": 120,
            "midi": 44,
            "name": "G#2",
            "ticks": 31680,
            "time": 34.617248000000004,
            "velocity": 0.7874015748031497
          },
          {
            "duration": 0.12820500000000123,
            "durationTicks": 120,
            "midi": 46,
            "name": "A#2",
            "ticks": 32160,
            "time": 35.130068,
            "velocity": 0.7874015748031497
          },
          {
            "duration": 0.12820499999999413,
            "durationTicks": 120,
            "midi": 48,
            "name": "C3",
            "ticks": 32640,
            "time": 35.642888000000006,
            "velocity": 0.7874015748031497
          },
          {
            "duration": 0.5128199999999978,
            "durationTicks": 480,
            "midi": 44,
            "name": "G#2",
            "ticks": 33120,
            "time": 36.155708000000004,
            "velocity": 0.7874015748031497
          },
          {
            "duration": 1.487600999999998,
            "durationTicks": 1440,
            "midi": 42,
            "name": "F#2",
            "ticks": 33920,
            "time": 36.999106000000005,
            "velocity": 0.7874015748031497
          },
          {
            "duration": 0.25641000000000247,
            "durationTicks": 240,
            "midi": 43,
            "name": "G2",
            "ticks": 35520,
            "time": 38.651996000000004,
            "velocity": 0.7874015748031497
          },
          {
            "duration": 0.25641000000000247,
            "durationTicks": 240,
            "midi": 50,
            "name": "D3",
            "ticks": 36000,
            "time": 39.164816,
            "velocity": 0.7874015748031497
          },
          {
            "duration": 0.25640999999999536,
            "durationTicks": 240,
            "midi": 48,
            "name": "C3",
            "ticks": 36480,
            "time": 39.67763600000001,
            "velocity": 0.7874015748031497
          },
          {
            "duration": 0.25641000000000247,
            "durationTicks": 240,
            "midi": 53,
            "name": "F3",
            "ticks": 36960,
            "time": 40.190456000000005,
            "velocity": 0.7874015748031497
          },
          {
            "duration": 0.2575105000000022,
            "durationTicks": 240,
            "midi": 41,
            "name": "F2",
            "ticks": 37440,
            "time": 40.703276,
            "velocity": 0.7874015748031497
          },
          {
            "duration": 0.2575105000000022,
            "durationTicks": 240,
            "midi": 48,
            "name": "C3",
            "ticks": 37920,
            "time": 41.218297,
            "velocity": 0.7874015748031497
          },
          {
            "duration": 0.2575104999999951,
            "durationTicks": 240,
            "midi": 46,
            "name": "A#2",
            "ticks": 38400,
            "time": 41.733318000000004,
            "velocity": 0.7874015748031497
          },
          {
            "duration": 0.2575105000000022,
            "durationTicks": 240,
            "midi": 51,
            "name": "D#3",
            "ticks": 38880,
            "time": 42.248339,
            "velocity": 0.7874015748031497
          },
          {
            "duration": 0.12604974999999996,
            "durationTicks": 120,
            "midi": 46,
            "name": "A#2",
            "ticks": 39360,
            "time": 42.763360000000006,
            "velocity": 0.7874015748031497
          },
          {
            "duration": 1.2604974999999996,
            "durationTicks": 1200,
            "midi": 44,
            "name": "G#2",
            "ticks": 39680,
            "time": 43.09949266666667,
            "velocity": 0.7874015748031497
          },
          {
            "duration": 1.4102549999999994,
            "durationTicks": 1320,
            "midi": 41,
            "name": "F2",
            "ticks": 41280,
            "time": 44.780156000000005,
            "velocity": 0.7874015748031497
          },
          {
            "duration": 0.06410249999999706,
            "durationTicks": 60,
            "midi": 49,
            "name": "C#3",
            "ticks": 42720,
            "time": 46.318616000000006,
            "velocity": 0.7874015748031497
          },
          {
            "duration": 0.06410249999999706,
            "durationTicks": 60,
            "midi": 50,
            "name": "D3",
            "ticks": 42880,
            "time": 46.48955600000001,
            "velocity": 0.7874015748031497
          },
          {
            "duration": 0.06410250000000417,
            "durationTicks": 60,
            "midi": 49,
            "name": "C#3",
            "ticks": 43040,
            "time": 46.660496,
            "velocity": 0.7874015748031497
          },
          {
            "duration": 0.6512570416666676,
            "durationTicks": 620,
            "midi": 50,
            "name": "D3",
            "ticks": 43200,
            "time": 46.831436000000004,
            "velocity": 0.7874015748031497
          },
          {
            "duration": 0.12604974999999996,
            "durationTicks": 120,
            "midi": 51,
            "name": "D#3",
            "ticks": 44160,
            "time": 47.839834,
            "velocity": 0.7874015748031497
          },
          {
            "duration": 0.12604974999999996,
            "durationTicks": 120,
            "midi": 53,
            "name": "F3",
            "ticks": 44320,
            "time": 48.00790033333334,
            "velocity": 0.7874015748031497
          },
          {
            "duration": 1.5125969999999995,
            "durationTicks": 1440,
            "midi": 55,
            "name": "G3",
            "ticks": 44480,
            "time": 48.17596666666667,
            "velocity": 0.7874015748031497
          },
          {
            "duration": 0.06302487500000353,
            "durationTicks": 60,
            "midi": 49,
            "name": "C#3",
            "ticks": 46560,
            "time": 50.360829,
            "velocity": 0.7874015748031497
          },
          {
            "duration": 0.06302487499999643,
            "durationTicks": 60,
            "midi": 50,
            "name": "D3",
            "ticks": 46720,
            "time": 50.52889533333334,
            "velocity": 0.7874015748031497
          },
          {
            "duration": 0.06302487500000353,
            "durationTicks": 60,
            "midi": 49,
            "name": "C#3",
            "ticks": 46880,
            "time": 50.69696166666667,
            "velocity": 0.7874015748031497
          },
          {
            "duration": 2.0803549999999973,
            "durationTicks": 1980,
            "midi": 50,
            "name": "D3",
            "ticks": 47040,
            "time": 50.865028,
            "velocity": 0.7874015748031497
          },
          {
            "duration": 3.0595280000000002,
            "durationTicks": 2880,
            "midi": 46,
            "name": "A#2",
            "ticks": 52800,
            "time": 56.949600000000004,
            "velocity": 0.7874015748031497
          },
          {
            "duration": 0.12820499999999413,
            "durationTicks": 120,
            "midi": 53,
            "name": "F3",
            "ticks": 55680,
            "time": 60.009128000000004,
            "velocity": 0.7874015748031497
          },
          {
            "duration": 0.12820500000000123,
            "durationTicks": 120,
            "midi": 49,
            "name": "C#3",
            "ticks": 55840,
            "time": 60.180068,
            "velocity": 0.7874015748031497
          },
          {
            "duration": 0.12820500000000123,
            "durationTicks": 120,
            "midi": 51,
            "name": "D#3",
            "ticks": 56000,
            "time": 60.351008,
            "velocity": 0.7874015748031497
          },
          {
            "duration": 0.12820500000000123,
            "durationTicks": 120,
            "midi": 48,
            "name": "C3",
            "ticks": 56160,
            "time": 60.521948,
            "velocity": 0.7874015748031497
          },
          {
            "duration": 2.324637166666662,
            "durationTicks": 2160,
            "midi": 49,
            "name": "C#3",
            "ticks": 56320,
            "time": 60.692888,
            "velocity": 0.7874015748031497
          },
          {
            "duration": 1.0344820000000041,
            "durationTicks": 960,
            "midi": 47,
            "name": "B2",
            "ticks": 58560,
            "time": 63.103732,
            "velocity": 0.7874015748031497
          },
          {
            "duration": 1.034481999999997,
            "durationTicks": 960,
            "midi": 46,
            "name": "A#2",
            "ticks": 59520,
            "time": 64.138214,
            "velocity": 0.7874015748031497
          },
          {
            "duration": 1.034481999999997,
            "durationTicks": 960,
            "midi": 45,
            "name": "A2",
            "ticks": 60480,
            "time": 65.172696,
            "velocity": 0.7874015748031497
          },
          {
            "duration": 1.5562209999999936,
            "durationTicks": 1440,
            "midi": 44,
            "name": "G#2",
            "ticks": 61440,
            "time": 66.207178,
            "velocity": 0.7874015748031497
          },
          {
            "duration": 0.2531630000000007,
            "durationTicks": 240,
            "midi": 40,
            "name": "E2",
            "ticks": 63360,
            "time": 68.28513799999999,
            "velocity": 0.7874015748031497
          },
          {
            "duration": 0.25862050000000636,
            "durationTicks": 240,
            "midi": 41,
            "name": "F2",
            "ticks": 65280,
            "time": 70.310442,
            "velocity": 0.7874015748031497
          },
          {
            "duration": 0.25862050000000636,
            "durationTicks": 240,
            "midi": 48,
            "name": "C3",
            "ticks": 65760,
            "time": 70.827683,
            "velocity": 0.7874015748031497
          },
          {
            "duration": 0.25862050000000636,
            "durationTicks": 240,
            "midi": 46,
            "name": "A#2",
            "ticks": 66240,
            "time": 71.34492399999999,
            "velocity": 0.7874015748031497
          },
          {
            "duration": 0.25862050000000636,
            "durationTicks": 240,
            "midi": 49,
            "name": "C#3",
            "ticks": 66720,
            "time": 71.86216499999999,
            "velocity": 0.7874015748031497
          },
          {
            "duration": 0.2542360000000059,
            "durationTicks": 240,
            "midi": 44,
            "name": "G#2",
            "ticks": 67200,
            "time": 72.37940599999999,
            "velocity": 0.7874015748031497
          },
          {
            "duration": 0.2542360000000059,
            "durationTicks": 240,
            "midi": 48,
            "name": "C3",
            "ticks": 67680,
            "time": 72.88787799999999,
            "velocity": 0.7874015748031497
          },
          {
            "duration": 0.2542360000000059,
            "durationTicks": 240,
            "midi": 47,
            "name": "B2",
            "ticks": 68160,
            "time": 73.39634999999998,
            "velocity": 0.7874015748031497
          },
          {
            "duration": 0.2542359999999917,
            "durationTicks": 240,
            "midi": 51,
            "name": "D#3",
            "ticks": 68640,
            "time": 73.904822,
            "velocity": 0.7874015748031497
          },
          {
            "duration": 0.2542359999999917,
            "durationTicks": 240,
            "midi": 49,
            "name": "C#3",
            "ticks": 69120,
            "time": 74.413294,
            "velocity": 0.7874015748031497
          },
          {
            "duration": 0.12711799999999585,
            "durationTicks": 120,
            "midi": 42,
            "name": "F#2",
            "ticks": 70080,
            "time": 75.43023799999999,
            "velocity": 0.7874015748031497
          },
          {
            "duration": 0.38135400000000175,
            "durationTicks": 360,
            "midi": 44,
            "name": "G#2",
            "ticks": 70560,
            "time": 75.93870999999999,
            "velocity": 0.7874015748031497
          },
          {
            "duration": 0.5128200000000049,
            "durationTicks": 480,
            "midi": 46,
            "name": "A#2",
            "ticks": 71040,
            "time": 76.44718199999998,
            "velocity": 0.7874015748031497
          },
          {
            "duration": 0.5128200000000049,
            "durationTicks": 480,
            "midi": 49,
            "name": "C#3",
            "ticks": 72000,
            "time": 77.47282199999998,
            "velocity": 0.7874015748031497
          },
          {
            "duration": 0.12711799999999585,
            "durationTicks": 120,
            "midi": 51,
            "name": "D#3",
            "ticks": 72960,
            "time": 78.49846199999999,
            "velocity": 0.7874015748031497
          },
          {
            "duration": 0.12711799999999585,
            "durationTicks": 120,
            "midi": 51,
            "name": "D#3",
            "ticks": 73440,
            "time": 79.00693399999999,
            "velocity": 0.7874015748031497
          },
          {
            "duration": 0.12711800000001006,
            "durationTicks": 120,
            "midi": 49,
            "name": "C#3",
            "ticks": 73920,
            "time": 79.51540599999998,
            "velocity": 0.7874015748031497
          },
          {
            "duration": 0.12711799999999585,
            "durationTicks": 120,
            "midi": 49,
            "name": "C#3",
            "ticks": 74400,
            "time": 80.023878,
            "velocity": 0.7874015748031497
          },
          {
            "duration": 0.12711799999999585,
            "durationTicks": 120,
            "midi": 51,
            "name": "D#3",
            "ticks": 74880,
            "time": 80.53235,
            "velocity": 0.7874015748031497
          },
          {
            "duration": 0.12711799999999585,
            "durationTicks": 120,
            "midi": 51,
            "name": "D#3",
            "ticks": 75360,
            "time": 81.04082199999999,
            "velocity": 0.7874015748031497
          },
          {
            "duration": 0.12711799999999585,
            "durationTicks": 120,
            "midi": 47,
            "name": "B2",
            "ticks": 75680,
            "time": 81.37980333333333,
            "velocity": 0.7874015748031497
          },
          {
            "duration": 0.12711799999999585,
            "durationTicks": 120,
            "midi": 49,
            "name": "C#3",
            "ticks": 75840,
            "time": 81.54929399999999,
            "velocity": 0.7874015748031497
          },
          {
            "duration": 0.12711799999999585,
            "durationTicks": 120,
            "midi": 47,
            "name": "B2",
            "ticks": 75999,
            "time": 81.71772535,
            "velocity": 0.7874015748031497
          },
          {
            "duration": 0.5084719999999976,
            "durationTicks": 480,
            "midi": 49,
            "name": "C#3",
            "ticks": 76160,
            "time": 81.88827533333333,
            "velocity": 0.7874015748031497
          },
          {
            "duration": 0.12711800000001006,
            "durationTicks": 120,
            "midi": 44,
            "name": "G#2",
            "ticks": 76800,
            "time": 82.56623799999998,
            "velocity": 0.7874015748031497
          },
          {
            "duration": 0.12711799999999585,
            "durationTicks": 120,
            "midi": 46,
            "name": "A#2",
            "ticks": 77280,
            "time": 83.07471,
            "velocity": 0.7874015748031497
          },
          {
            "duration": 0.12711799999999585,
            "durationTicks": 120,
            "midi": 48,
            "name": "C3",
            "ticks": 77760,
            "time": 83.583182,
            "velocity": 0.7874015748031497
          },
          {
            "duration": 0.5084719999999976,
            "durationTicks": 480,
            "midi": 44,
            "name": "G#2",
            "ticks": 78240,
            "time": 84.09165399999999,
            "velocity": 0.7874015748031497
          },
          {
            "duration": 0.860653499999998,
            "durationTicks": 840,
            "midi": 42,
            "name": "F#2",
            "ticks": 79040,
            "time": 84.92799399999998,
            "velocity": 0.7874015748031497
          },
          {
            "duration": 0.24590100000000348,
            "durationTicks": 240,
            "midi": 51,
            "name": "D#3",
            "ticks": 80000,
            "time": 85.91159799999998,
            "velocity": 0.7874015748031497
          },
          {
            "duration": 0.9745713333333299,
            "durationTicks": 920,
            "midi": 53,
            "name": "F3",
            "ticks": 80640,
            "time": 86.56733399999999,
            "velocity": 0.7874015748031497
          },
          {
            "duration": 0.12711800000001006,
            "durationTicks": 120,
            "midi": 51,
            "name": "D#3",
            "ticks": 81600,
            "time": 87.58427799999998,
            "velocity": 0.7874015748031497
          },
          {
            "duration": 0.12711799999999585,
            "durationTicks": 120,
            "midi": 49,
            "name": "C#3",
            "ticks": 81760,
            "time": 87.75376866666666,
            "velocity": 0.7874015748031497
          },
          {
            "duration": 0.6355900000000076,
            "durationTicks": 600,
            "midi": 47,
            "name": "B2",
            "ticks": 81920,
            "time": 87.92325933333332,
            "velocity": 0.7874015748031497
          },
          {
            "duration": 0.12765874999999482,
            "durationTicks": 120,
            "midi": 53,
            "name": "F3",
            "ticks": 82560,
            "time": 88.60122199999999,
            "velocity": 0.7874015748031497
          },
          {
            "duration": 0.12765874999999482,
            "durationTicks": 120,
            "midi": 55,
            "name": "G3",
            "ticks": 82880,
            "time": 88.94164533333333,
            "velocity": 0.7874015748031497
          },
          {
            "duration": 0.12765875000000904,
            "durationTicks": 120,
            "midi": 51,
            "name": "D#3",
            "ticks": 83040,
            "time": 89.11185699999999,
            "velocity": 0.7874015748031497
          },
          {
            "duration": 0.12765875000000904,
            "durationTicks": 120,
            "midi": 53,
            "name": "F3",
            "ticks": 83360,
            "time": 89.45228033333332,
            "velocity": 0.7874015748031497
          },
          {
            "duration": 0.12765874999999482,
            "durationTicks": 120,
            "midi": 51,
            "name": "D#3",
            "ticks": 83520,
            "time": 89.622492,
            "velocity": 0.7874015748031497
          },
          {
            "duration": 0.12765875000000904,
            "durationTicks": 120,
            "midi": 49,
            "name": "C#3",
            "ticks": 83680,
            "time": 89.79270366666665,
            "velocity": 0.7874015748031497
          },
          {
            "duration": 0.6808466666666675,
            "durationTicks": 640,
            "midi": 47,
            "name": "B2",
            "ticks": 83840,
            "time": 89.96291533333333,
            "velocity": 0.7874015748031497
          },
          {
            "duration": 0.12765874999999482,
            "durationTicks": 120,
            "midi": 49,
            "name": "C#3",
            "ticks": 84480,
            "time": 90.643762,
            "velocity": 0.7874015748031497
          },
          {
            "duration": 0.12765875000000904,
            "durationTicks": 120,
            "midi": 51,
            "name": "D#3",
            "ticks": 84600,
            "time": 90.77142074999999,
            "velocity": 0.7874015748031497
          },
          {
            "duration": 0.3829762499999987,
            "durationTicks": 360,
            "midi": 49,
            "name": "C#3",
            "ticks": 84720,
            "time": 90.8990795,
            "velocity": 0.7874015748031497
          },
          {
            "duration": 0.12765875000000904,
            "durationTicks": 120,
            "midi": 51,
            "name": "D#3",
            "ticks": 85280,
            "time": 91.49482033333332,
            "velocity": 0.7874015748031497
          },
          {
            "duration": 0.12765874999999482,
            "durationTicks": 120,
            "midi": 49,
            "name": "C#3",
            "ticks": 85440,
            "time": 91.665032,
            "velocity": 0.7874015748031497
          },
          {
            "duration": 0.12765875000000904,
            "durationTicks": 120,
            "midi": 47,
            "name": "B2",
            "ticks": 85600,
            "time": 91.83524366666666,
            "velocity": 0.7874015748031497
          },
          {
            "duration": 0.5106349999999935,
            "durationTicks": 480,
            "midi": 45,
            "name": "A2",
            "ticks": 85760,
            "time": 92.00545533333333,
            "velocity": 0.7874015748031497
          },
          {
            "duration": 0.12711799999999585,
            "durationTicks": 120,
            "midi": 52,
            "name": "E3",
            "ticks": 86400,
            "time": 92.686302,
            "velocity": 0.7874015748031497
          },
          {
            "duration": 0.12711800000001006,
            "durationTicks": 120,
            "midi": 48,
            "name": "C3",
            "ticks": 86560,
            "time": 92.85579266666666,
            "velocity": 0.7874015748031497
          },
          {
            "duration": 0.12711799999999585,
            "durationTicks": 120,
            "midi": 50,
            "name": "D3",
            "ticks": 86720,
            "time": 93.02528333333333,
            "velocity": 0.7874015748031497
          },
          {
            "duration": 0.12711799999999585,
            "durationTicks": 120,
            "midi": 46,
            "name": "A#2",
            "ticks": 86880,
            "time": 93.194774,
            "velocity": 0.7874015748031497
          },
          {
            "duration": 0.12711799999999585,
            "durationTicks": 120,
            "midi": 50,
            "name": "D3",
            "ticks": 87040,
            "time": 93.36426466666667,
            "velocity": 0.7874015748031497
          },
          {
            "duration": 0.12711799999999585,
            "durationTicks": 120,
            "midi": 48,
            "name": "C3",
            "ticks": 87200,
            "time": 93.53375533333333,
            "velocity": 0.7874015748031497
          },
          {
            "duration": 0.5084720000000118,
            "durationTicks": 480,
            "midi": 46,
            "name": "A#2",
            "ticks": 87360,
            "time": 93.703246,
            "velocity": 0.7874015748031497
          },
          {
            "duration": 0.767092500000004,
            "durationTicks": 720,
            "midi": 41,
            "name": "F2",
            "ticks": 87840,
            "time": 94.211718,
            "velocity": 0.7874015748031497
          },
          {
            "duration": 0.06465512500000159,
            "durationTicks": 60,
            "midi": 49,
            "name": "C#3",
            "ticks": 88800,
            "time": 95.237431,
            "velocity": 0.7874015748031497
          },
          {
            "duration": 0.06465512500000159,
            "durationTicks": 60,
            "midi": 50,
            "name": "D3",
            "ticks": 88960,
            "time": 95.40984466666667,
            "velocity": 0.7874015748031497
          },
          {
            "duration": 0.06465512499998738,
            "durationTicks": 60,
            "midi": 49,
            "name": "C#3",
            "ticks": 89120,
            "time": 95.58225833333334,
            "velocity": 0.7874015748031497
          },
          {
            "duration": 0.4094824583333434,
            "durationTicks": 380,
            "midi": 50,
            "name": "D3",
            "ticks": 89280,
            "time": 95.754672,
            "velocity": 0.7874015748031497
          },
          {
            "duration": 0.7781104999999968,
            "durationTicks": 720,
            "midi": 45,
            "name": "A2",
            "ticks": 89760,
            "time": 96.271913,
            "velocity": 0.7874015748031497
          },
          {
            "duration": 0.06521737500000313,
            "durationTicks": 60,
            "midi": 49,
            "name": "C#3",
            "ticks": 90720,
            "time": 97.310893,
            "velocity": 0.7874015748031497
          },
          {
            "duration": 0.06521737500000313,
            "durationTicks": 60,
            "midi": 50,
            "name": "D3",
            "ticks": 90880,
            "time": 97.48480599999999,
            "velocity": 0.7874015748031497
          },
          {
            "duration": 0.06521737500000313,
            "durationTicks": 60,
            "midi": 49,
            "name": "C#3",
            "ticks": 91040,
            "time": 97.65871899999999,
            "velocity": 0.7874015748031497
          },
          {
            "duration": 0.6739128750000134,
            "durationTicks": 620,
            "midi": 50,
            "name": "D3",
            "ticks": 91200,
            "time": 97.83263199999999,
            "velocity": 0.7874015748031497
          },
          {
            "duration": 0.25641000000000247,
            "durationTicks": 240,
            "midi": 48,
            "name": "C3",
            "ticks": 92160,
            "time": 98.87611,
            "velocity": 0.7874015748031497
          },
          {
            "duration": 0.25640999999998826,
            "durationTicks": 240,
            "midi": 50,
            "name": "D3",
            "ticks": 92640,
            "time": 99.38893,
            "velocity": 0.7874015748031497
          },
          {
            "duration": 0.25641000000000247,
            "durationTicks": 240,
            "midi": 52,
            "name": "E3",
            "ticks": 93120,
            "time": 99.90174999999999,
            "velocity": 0.7874015748031497
          },
          {
            "duration": 0.17094000000000165,
            "durationTicks": 160,
            "midi": 53,
            "name": "F3",
            "ticks": 93440,
            "time": 100.24363,
            "velocity": 0.7874015748031497
          },
          {
            "duration": 0.6756737500000014,
            "durationTicks": 600,
            "midi": 52,
            "name": "E3",
            "ticks": 94080,
            "time": 100.92739,
            "velocity": 0.7874015748031497
          },
          {
            "duration": 0.13513475000000597,
            "durationTicks": 120,
            "midi": 50,
            "name": "D3",
            "ticks": 94880,
            "time": 101.82828833333333,
            "velocity": 0.7874015748031497
          },
          {
            "duration": 0.13513474999999175,
            "durationTicks": 120,
            "midi": 52,
            "name": "E3",
            "ticks": 95040,
            "time": 102.00846800000001,
            "velocity": 0.7874015748031497
          },
          {
            "duration": 0.3153144166666664,
            "durationTicks": 280,
            "midi": 48,
            "name": "C3",
            "ticks": 95360,
            "time": 102.36882733333334,
            "velocity": 0.7874015748031497
          },
          {
            "duration": 0.478260750000004,
            "durationTicks": 440,
            "midi": 54,
            "name": "F#3",
            "ticks": 96000,
            "time": 103.089546,
            "velocity": 0.7874015748031497
          },
          {
            "duration": 0.13043475000000626,
            "durationTicks": 120,
            "midi": 50,
            "name": "D3",
            "ticks": 96480,
            "time": 103.611285,
            "velocity": 0.7874015748031497
          },
          {
            "duration": 0.13043475000000626,
            "durationTicks": 120,
            "midi": 52,
            "name": "E3",
            "ticks": 96640,
            "time": 103.785198,
            "velocity": 0.7874015748031497
          },
          {
            "duration": 0.13043475000000626,
            "durationTicks": 120,
            "midi": 50,
            "name": "D3",
            "ticks": 96800,
            "time": 103.959111,
            "velocity": 0.7874015748031497
          },
          {
            "duration": 0.7826085000000091,
            "durationTicks": 720,
            "midi": 48,
            "name": "C3",
            "ticks": 96960,
            "time": 104.13302399999999,
            "velocity": 0.7874015748031497
          },
          {
            "duration": 0.13043474999999205,
            "durationTicks": 120,
            "midi": 46,
            "name": "A#2",
            "ticks": 97760,
            "time": 105.002589,
            "velocity": 0.7874015748031497
          },
          {
            "duration": 0.6410249999999991,
            "durationTicks": 600,
            "midi": 52,
            "name": "E3",
            "ticks": 97920,
            "time": 105.176502,
            "velocity": 0.7874015748031497
          },
          {
            "duration": 0.12820500000000834,
            "durationTicks": 120,
            "midi": 50,
            "name": "D3",
            "ticks": 98720,
            "time": 106.031202,
            "velocity": 0.7874015748031497
          },
          {
            "duration": 0.12820500000000834,
            "durationTicks": 120,
            "midi": 52,
            "name": "E3",
            "ticks": 98880,
            "time": 106.202142,
            "velocity": 0.7874015748031497
          },
          {
            "duration": 0.12820500000000834,
            "durationTicks": 120,
            "midi": 50,
            "name": "D3",
            "ticks": 99040,
            "time": 106.373082,
            "velocity": 0.7874015748031497
          },
          {
            "duration": 0.5128200000000049,
            "durationTicks": 480,
            "midi": 48,
            "name": "C3",
            "ticks": 99200,
            "time": 106.544022,
            "velocity": 0.7874015748031497
          },
          {
            "duration": 0.46218241666666415,
            "durationTicks": 440,
            "midi": 54,
            "name": "F#3",
            "ticks": 99840,
            "time": 107.227782,
            "velocity": 0.7874015748031497
          },
          {
            "duration": 0.12604975000000707,
            "durationTicks": 120,
            "midi": 48,
            "name": "C3",
            "ticks": 100320,
            "time": 107.731981,
            "velocity": 0.7874015748031497
          },
          {
            "duration": 0.12604975000000707,
            "durationTicks": 120,
            "midi": 50,
            "name": "D3",
            "ticks": 100480,
            "time": 107.90004733333333,
            "velocity": 0.7874015748031497
          },
          {
            "duration": 0.12604974999999286,
            "durationTicks": 120,
            "midi": 48,
            "name": "C3",
            "ticks": 100640,
            "time": 108.06811366666668,
            "velocity": 0.7874015748031497
          },
          {
            "duration": 0.12604975000000707,
            "durationTicks": 120,
            "midi": 51,
            "name": "D#3",
            "ticks": 100800,
            "time": 108.23618,
            "velocity": 0.7874015748031497
          },
          {
            "duration": 0.12604975000000707,
            "durationTicks": 120,
            "midi": 49,
            "name": "C#3",
            "ticks": 100960,
            "time": 108.40424633333333,
            "velocity": 0.7874015748031497
          },
          {
            "duration": 0.12604974999999286,
            "durationTicks": 120,
            "midi": 53,
            "name": "F3",
            "ticks": 101120,
            "time": 108.57231266666668,
            "velocity": 0.7874015748031497
          },
          {
            "duration": 0.12604975000000707,
            "durationTicks": 120,
            "midi": 51,
            "name": "D#3",
            "ticks": 101280,
            "time": 108.740379,
            "velocity": 0.7874015748031497
          },
          {
            "duration": 0.12604975000000707,
            "durationTicks": 120,
            "midi": 55,
            "name": "G3",
            "ticks": 101440,
            "time": 108.90844533333333,
            "velocity": 0.7874015748031497
          },
          {
            "duration": 0.12604974999999286,
            "durationTicks": 120,
            "midi": 53,
            "name": "F3",
            "ticks": 101600,
            "time": 109.07651166666668,
            "velocity": 0.7874015748031497
          },
          {
            "duration": 0.12875524999999755,
            "durationTicks": 120,
            "midi": 55,
            "name": "G3",
            "ticks": 101760,
            "time": 109.244578,
            "velocity": 0.7874015748031497
          },
          {
            "duration": 0.38626575000000685,
            "durationTicks": 360,
            "midi": 57,
            "name": "A3",
            "ticks": 102000,
            "time": 109.5020885,
            "velocity": 0.7874015748031497
          },
          {
            "duration": 0.5150210000000044,
            "durationTicks": 480,
            "midi": 53,
            "name": "F3",
            "ticks": 102400,
            "time": 109.93127266666667,
            "velocity": 0.7874015748031497
          },
          {
            "duration": 0.5150209999999902,
            "durationTicks": 480,
            "midi": 55,
            "name": "G3",
            "ticks": 102880,
            "time": 110.44629366666668,
            "velocity": 0.7874015748031497
          },
          {
            "duration": 0.8583683333333312,
            "durationTicks": 800,
            "midi": 51,
            "name": "D#3",
            "ticks": 103360,
            "time": 110.96131466666667,
            "velocity": 0.7874015748031497
          },
          {
            "duration": 0.12875525000001176,
            "durationTicks": 120,
            "midi": 49,
            "name": "C#3",
            "ticks": 104160,
            "time": 111.819683,
            "velocity": 0.7874015748031497
          },
          {
            "duration": 0.12875524999999755,
            "durationTicks": 120,
            "midi": 51,
            "name": "D#3",
            "ticks": 104480,
            "time": 112.16303033333334,
            "velocity": 0.7874015748031497
          },
          {
            "duration": 0.47210258333333854,
            "durationTicks": 440,
            "midi": 53,
            "name": "F3",
            "ticks": 104640,
            "time": 112.334704,
            "velocity": 0.7874015748031497
          },
          {
            "duration": 0.12875524999999755,
            "durationTicks": 120,
            "midi": 51,
            "name": "D#3",
            "ticks": 105120,
            "time": 112.849725,
            "velocity": 0.7874015748031497
          },
          {
            "duration": 0.0858368333333317,
            "durationTicks": 80,
            "midi": 49,
            "name": "C#3",
            "ticks": 105360,
            "time": 113.1072355,
            "velocity": 0.7874015748031497
          },
          {
            "duration": 0.08583683333334591,
            "durationTicks": 80,
            "midi": 47,
            "name": "B2",
            "ticks": 105600,
            "time": 113.364746,
            "velocity": 0.7874015748031497
          },
          {
            "duration": 0.0858368333333317,
            "durationTicks": 80,
            "midi": 49,
            "name": "C#3",
            "ticks": 106080,
            "time": 113.879767,
            "velocity": 0.7874015748031497
          },
          {
            "duration": 0.12875524999999755,
            "durationTicks": 120,
            "midi": 47,
            "name": "B2",
            "ticks": 106400,
            "time": 114.22311433333334,
            "velocity": 0.7874015748031497
          },
          {
            "duration": 0.6437762500000019,
            "durationTicks": 600,
            "midi": 45,
            "name": "A2",
            "ticks": 106560,
            "time": 114.394788,
            "velocity": 0.7874015748031497
          },
          {
            "duration": 0.12875524999999755,
            "durationTicks": 120,
            "midi": 47,
            "name": "B2",
            "ticks": 107360,
            "time": 115.25315633333334,
            "velocity": 0.7874015748031497
          },
          {
            "duration": 0.6382937500000025,
            "durationTicks": 600,
            "midi": 49,
            "name": "C#3",
            "ticks": 107520,
            "time": 115.42483,
            "velocity": 0.7874015748031497
          },
          {
            "duration": 1.40424625,
            "durationTicks": 1320,
            "midi": 45,
            "name": "A2",
            "ticks": 108320,
            "time": 116.27588833333333,
            "velocity": 0.7874015748031497
          },
          {
            "duration": 0.12765875000000904,
            "durationTicks": 120,
            "midi": 49,
            "name": "C#3",
            "ticks": 110240,
            "time": 118.31842833333333,
            "velocity": 0.7874015748031497
          },
          {
            "duration": 0.12658150000000035,
            "durationTicks": 120,
            "midi": 51,
            "name": "D#3",
            "ticks": 110720,
            "time": 118.82619066666668,
            "velocity": 0.7874015748031497
          },
          {
            "duration": 0.6329075000000017,
            "durationTicks": 600,
            "midi": 49,
            "name": "C#3",
            "ticks": 110880,
            "time": 118.994966,
            "velocity": 0.7874015748031497
          },
          {
            "duration": 0.12658150000000035,
            "durationTicks": 120,
            "midi": 51,
            "name": "D#3",
            "ticks": 111840,
            "time": 120.00761800000001,
            "velocity": 0.7874015748031497
          },
          {
            "duration": 2.0571856666666832,
            "durationTicks": 1920,
            "midi": 53,
            "name": "F3",
            "ticks": 112160,
            "time": 120.34516866666667,
            "velocity": 0.7874015748031497
          },
          {
            "duration": 0.12986949999999808,
            "durationTicks": 120,
            "midi": 41,
            "name": "F2",
            "ticks": 114240,
            "time": 122.57402800000001,
            "velocity": 0.7874015748031497
          },
          {
            "duration": 0.25973899999999617,
            "durationTicks": 240,
            "midi": 48,
            "name": "C3",
            "ticks": 114720,
            "time": 123.09350600000002,
            "velocity": 0.7874015748031497
          },
          {
            "duration": 0.25973899999999617,
            "durationTicks": 240,
            "midi": 46,
            "name": "A#2",
            "ticks": 115200,
            "time": 123.61298400000001,
            "velocity": 0.7874015748031497
          },
          {
            "duration": 0.25973899999999617,
            "durationTicks": 240,
            "midi": 51,
            "name": "D#3",
            "ticks": 115680,
            "time": 124.13246200000002,
            "velocity": 0.7874015748031497
          },
          {
            "duration": 0.12986949999999808,
            "durationTicks": 120,
            "midi": 45,
            "name": "A2",
            "ticks": 115920,
            "time": 124.39220100000001,
            "velocity": 0.7874015748031497
          },
          {
            "duration": 0.2575104999999951,
            "durationTicks": 240,
            "midi": 41,
            "name": "F2",
            "ticks": 116160,
            "time": 124.65194000000001,
            "velocity": 0.7874015748031497
          },
          {
            "duration": 0.2575104999999951,
            "durationTicks": 240,
            "midi": 48,
            "name": "C3",
            "ticks": 116640,
            "time": 125.16696100000001,
            "velocity": 0.7874015748031497
          },
          {
            "duration": 0.2575105000000093,
            "durationTicks": 240,
            "midi": 46,
            "name": "A#2",
            "ticks": 117120,
            "time": 125.681982,
            "velocity": 0.7874015748031497
          },
          {
            "duration": 0.2575104999999951,
            "durationTicks": 240,
            "midi": 43,
            "name": "G2",
            "ticks": 117600,
            "time": 126.19700300000001,
            "velocity": 0.7874015748031497
          },
          {
            "duration": 0.2531630000000007,
            "durationTicks": 240,
            "midi": 44,
            "name": "G#2",
            "ticks": 118080,
            "time": 126.71202400000001,
            "velocity": 0.7874015748031497
          },
          {
            "duration": 0.2531630000000007,
            "durationTicks": 240,
            "midi": 51,
            "name": "D#3",
            "ticks": 118560,
            "time": 127.21835000000002,
            "velocity": 0.7874015748031497
          },
          {
            "duration": 0.2531630000000007,
            "durationTicks": 240,
            "midi": 47,
            "name": "B2",
            "ticks": 119040,
            "time": 127.72467600000002,
            "velocity": 0.7874015748031497
          },
          {
            "duration": 0.2531630000000007,
            "durationTicks": 240,
            "midi": 51,
            "name": "D#3",
            "ticks": 119520,
            "time": 128.23100200000002,
            "velocity": 0.7874015748031497
          },
          {
            "duration": 0.2531630000000007,
            "durationTicks": 240,
            "midi": 44,
            "name": "G#2",
            "ticks": 120000,
            "time": 128.73732800000002,
            "velocity": 0.7874015748031497
          },
          {
            "duration": 0.2531630000000007,
            "durationTicks": 240,
            "midi": 51,
            "name": "D#3",
            "ticks": 120480,
            "time": 129.24365400000002,
            "velocity": 0.7874015748031497
          },
          {
            "duration": 0.2531630000000007,
            "durationTicks": 240,
            "midi": 47,
            "name": "B2",
            "ticks": 120960,
            "time": 129.74998000000002,
            "velocity": 0.7874015748031497
          },
          {
            "duration": 0.2531630000000007,
            "durationTicks": 240,
            "midi": 51,
            "name": "D#3",
            "ticks": 121440,
            "time": 130.25630600000002,
            "velocity": 0.7874015748031497
          },
          {
            "duration": 0.5041989999999998,
            "durationTicks": 480,
            "midi": 41,
            "name": "F2",
            "ticks": 121920,
            "time": 130.76263200000002,
            "velocity": 0.7874015748031497
          },
          {
            "duration": 0.12604974999999286,
            "durationTicks": 120,
            "midi": 44,
            "name": "G#2",
            "ticks": 122880,
            "time": 131.77103000000002,
            "velocity": 0.7874015748031497
          },
          {
            "duration": 0.12604974999999286,
            "durationTicks": 120,
            "midi": 42,
            "name": "F#2",
            "ticks": 123360,
            "time": 132.27522900000002,
            "velocity": 0.7874015748031497
          },
          {
            "duration": 0.75,
            "durationTicks": 720,
            "midi": 46,
            "name": "A#2",
            "ticks": 123840,
            "time": 132.77942800000002,
            "velocity": 0.7874015748031497
          },
          {
            "duration": 0.125,
            "durationTicks": 120,
            "midi": 50,
            "name": "D3",
            "ticks": 124800,
            "time": 133.77942800000002,
            "velocity": 0.7874015748031497
          },
          {
            "duration": 1,
            "durationTicks": 960,
            "midi": 43,
            "name": "G2",
            "ticks": 125760,
            "time": 134.77942800000002,
            "velocity": 0.7874015748031497
          },
          {
            "duration": 0.125,
            "durationTicks": 120,
            "midi": 45,
            "name": "A2",
            "ticks": 126720,
            "time": 135.77942800000002,
            "velocity": 0.7874015748031497
          },
          {
            "duration": 0.125,
            "durationTicks": 120,
            "midi": 41,
            "name": "F2",
            "ticks": 127040,
            "time": 136.11276133333337,
            "velocity": 0.7874015748031497
          },
          {
            "duration": 0.125,
            "durationTicks": 120,
            "midi": 45,
            "name": "A2",
            "ticks": 127200,
            "time": 136.27942800000002,
            "velocity": 0.7874015748031497
          },
          {
            "duration": 1,
            "durationTicks": 960,
            "midi": 41,
            "name": "F2",
            "ticks": 127680,
            "time": 136.77942800000002,
            "velocity": 0.7874015748031497
          },
          {
            "duration": 0.5150209999999902,
            "durationTicks": 480,
            "midi": 46,
            "name": "A#2",
            "ticks": 128640,
            "time": 137.77942800000002,
            "velocity": 0.7874015748031497
          },
          {
            "duration": 0.1716736666666634,
            "durationTicks": 160,
            "midi": 45,
            "name": "A2",
            "ticks": 129120,
            "time": 138.29444900000001,
            "velocity": 0.7874015748031497
          },
          {
            "duration": 0.1716736666666634,
            "durationTicks": 160,
            "midi": 47,
            "name": "B2",
            "ticks": 129600,
            "time": 138.80947000000003,
            "velocity": 0.7874015748031497
          },
          {
            "duration": 0.1716736666666634,
            "durationTicks": 160,
            "midi": 49,
            "name": "C#3",
            "ticks": 130080,
            "time": 139.32449100000002,
            "velocity": 0.7874015748031497
          },
          {
            "duration": 0.8898259999999993,
            "durationTicks": 840,
            "midi": 53,
            "name": "F3",
            "ticks": 130560,
            "time": 139.839512,
            "velocity": 0.7874015748031497
          },
          {
            "duration": 0.16949066666666113,
            "durationTicks": 160,
            "midi": 48,
            "name": "C3",
            "ticks": 131520,
            "time": 140.856456,
            "velocity": 0.7874015748031497
          },
          {
            "duration": 0.16949066666666113,
            "durationTicks": 160,
            "midi": 50,
            "name": "D3",
            "ticks": 132000,
            "time": 141.36492800000002,
            "velocity": 0.7874015748031497
          },
          {
            "duration": 1.0169440000000236,
            "durationTicks": 960,
            "midi": 53,
            "name": "F3",
            "ticks": 132480,
            "time": 141.8734,
            "velocity": 0.7874015748031497
          },
          {
            "duration": 0.16949066666666113,
            "durationTicks": 160,
            "midi": 48,
            "name": "C3",
            "ticks": 133440,
            "time": 142.89034400000003,
            "velocity": 0.7874015748031497
          },
          {
            "duration": 0.16949066666666113,
            "durationTicks": 160,
            "midi": 50,
            "name": "D3",
            "ticks": 133920,
            "time": 143.398816,
            "velocity": 0.7874015748031497
          },
          {
            "duration": 0.16736399999999207,
            "durationTicks": 160,
            "midi": 43,
            "name": "G2",
            "ticks": 134400,
            "time": 143.90728800000002,
            "velocity": 0.7874015748031497
          },
          {
            "duration": 0.16736399999999207,
            "durationTicks": 160,
            "midi": 45,
            "name": "A2",
            "ticks": 134880,
            "time": 144.40938000000003,
            "velocity": 0.7874015748031497
          },
          {
            "duration": 0.08368199999998183,
            "durationTicks": 80,
            "midi": 47,
            "name": "B2",
            "ticks": 135360,
            "time": 144.91147200000003,
            "velocity": 0.7874015748031497
          },
          {
            "duration": 0.8760672500000055,
            "durationTicks": 840,
            "midi": 49,
            "name": "C#3",
            "ticks": 135680,
            "time": 145.24620000000002,
            "velocity": 0.7874015748031497
          },
          {
            "duration": 1.611567750000006,
            "durationTicks": 1560,
            "midi": 46,
            "name": "A#2",
            "ticks": 136640,
            "time": 146.24623400000002,
            "velocity": 0.7874015748031497
          },
          {
            "duration": 0.2531630000000007,
            "durationTicks": 240,
            "midi": 43,
            "name": "G2",
            "ticks": 138240,
            "time": 147.899124,
            "velocity": 0.7874015748031497
          },
          {
            "duration": 0.2531630000000007,
            "durationTicks": 240,
            "midi": 50,
            "name": "D3",
            "ticks": 138720,
            "time": 148.40545,
            "velocity": 0.7874015748031497
          },
          {
            "duration": 0.2531630000000007,
            "durationTicks": 240,
            "midi": 47,
            "name": "B2",
            "ticks": 139200,
            "time": 148.911776,
            "velocity": 0.7874015748031497
          },
          {
            "duration": 0.2531630000000007,
            "durationTicks": 240,
            "midi": 50,
            "name": "D3",
            "ticks": 139680,
            "time": 149.418102,
            "velocity": 0.7874015748031497
          },
          {
            "duration": 0.2531630000000007,
            "durationTicks": 240,
            "midi": 41,
            "name": "F2",
            "ticks": 140160,
            "time": 149.924428,
            "velocity": 0.7874015748031497
          },
          {
            "duration": 0.2531630000000007,
            "durationTicks": 240,
            "midi": 48,
            "name": "C3",
            "ticks": 140640,
            "time": 150.430754,
            "velocity": 0.7874015748031497
          },
          {
            "duration": 0.2531630000000007,
            "durationTicks": 240,
            "midi": 45,
            "name": "A2",
            "ticks": 141120,
            "time": 150.93708,
            "velocity": 0.7874015748031497
          },
          {
            "duration": 0.2531630000000007,
            "durationTicks": 240,
            "midi": 49,
            "name": "C#3",
            "ticks": 141600,
            "time": 151.443406,
            "velocity": 0.7874015748031497
          },
          {
            "duration": 0.12396674999999391,
            "durationTicks": 120,
            "midi": 46,
            "name": "A#2",
            "ticks": 142080,
            "time": 151.949732,
            "velocity": 0.7874015748031497
          },
          {
            "duration": 1.239667499999996,
            "durationTicks": 1200,
            "midi": 44,
            "name": "G#2",
            "ticks": 142400,
            "time": 152.28031000000001,
            "velocity": 0.7874015748031497
          },
          {
            "duration": 0.5020920000000046,
            "durationTicks": 480,
            "midi": 41,
            "name": "F2",
            "ticks": 144160,
            "time": 154.100564,
            "velocity": 0.7874015748031497
          },
          {
            "duration": 0.12552299999998695,
            "durationTicks": 120,
            "midi": 46,
            "name": "A#2",
            "ticks": 145440,
            "time": 155.439476,
            "velocity": 0.7874015748031497
          },
          {
            "duration": 0.6302487499999927,
            "durationTicks": 600,
            "midi": 50,
            "name": "D3",
            "ticks": 146400,
            "time": 156.445767,
            "velocity": 0.7874015748031497
          },
          {
            "duration": 0.12604975000002128,
            "durationTicks": 120,
            "midi": 47,
            "name": "B2",
            "ticks": 147200,
            "time": 157.28609866666665,
            "velocity": 0.7874015748031497
          },
          {
            "duration": 0.12604974999999286,
            "durationTicks": 120,
            "midi": 49,
            "name": "C#3",
            "ticks": 147360,
            "time": 157.454165,
            "velocity": 0.7874015748031497
          },
          {
            "duration": 0.12448125000000232,
            "durationTicks": 120,
            "midi": 46,
            "name": "A#2",
            "ticks": 147840,
            "time": 157.958364,
            "velocity": 0.7874015748031497
          },
          {
            "duration": 0.9958500000000186,
            "durationTicks": 960,
            "midi": 50,
            "name": "D3",
            "ticks": 148800,
            "time": 158.95421399999998,
            "velocity": 0.7874015748031497
          },
          {
            "duration": 0.6639000000000124,
            "durationTicks": 640,
            "midi": 43,
            "name": "G2",
            "ticks": 150080,
            "time": 160.28201399999998,
            "velocity": 0.7874015748031497
          },
          {
            "duration": 0.06224062499998695,
            "durationTicks": 60,
            "midi": 50,
            "name": "D3",
            "ticks": 151200,
            "time": 161.443839,
            "velocity": 0.7874015748031497
          },
          {
            "duration": 0.06224062499998695,
            "durationTicks": 60,
            "midi": 52,
            "name": "E3",
            "ticks": 151360,
            "time": 161.609814,
            "velocity": 0.7874015748031497
          },
          {
            "duration": 0.06224062500001537,
            "durationTicks": 60,
            "midi": 50,
            "name": "D3",
            "ticks": 151520,
            "time": 161.77578899999997,
            "velocity": 0.7874015748031497
          },
          {
            "duration": 1.0625,
            "durationTicks": 1020,
            "midi": 52,
            "name": "E3",
            "ticks": 151680,
            "time": 161.94176399999998,
            "velocity": 0.7874015748031497
          },
          {
            "duration": 0.0625,
            "durationTicks": 60,
            "midi": 50,
            "name": "D3",
            "ticks": 153120,
            "time": 163.44176399999998,
            "velocity": 0.7874015748031497
          },
          {
            "duration": 0.0625,
            "durationTicks": 60,
            "midi": 52,
            "name": "E3",
            "ticks": 153280,
            "time": 163.60843066666664,
            "velocity": 0.7874015748031497
          },
          {
            "duration": 0.0625,
            "durationTicks": 60,
            "midi": 50,
            "name": "D3",
            "ticks": 153440,
            "time": 163.77509733333332,
            "velocity": 0.7874015748031497
          },
          {
            "duration": 1.0625,
            "durationTicks": 1020,
            "midi": 52,
            "name": "E3",
            "ticks": 153600,
            "time": 163.94176399999998,
            "velocity": 0.7874015748031497
          },
          {
            "duration": 0.0625,
            "durationTicks": 60,
            "midi": 50,
            "name": "D3",
            "ticks": 155040,
            "time": 165.44176399999998,
            "velocity": 0.7874015748031497
          },
          {
            "duration": 0.0625,
            "durationTicks": 60,
            "midi": 52,
            "name": "E3",
            "ticks": 155200,
            "time": 165.60843066666664,
            "velocity": 0.7874015748031497
          },
          {
            "duration": 0.0625,
            "durationTicks": 60,
            "midi": 50,
            "name": "D3",
            "ticks": 155360,
            "time": 165.77509733333332,
            "velocity": 0.7874015748031497
          },
          {
            "duration": 1.0580906250000055,
            "durationTicks": 1020,
            "midi": 52,
            "name": "E3",
            "ticks": 155520,
            "time": 165.94176399999998,
            "velocity": 0.7874015748031497
          },
          {
            "duration": 0.06224062499998695,
            "durationTicks": 60,
            "midi": 50,
            "name": "D3",
            "ticks": 156960,
            "time": 167.43553899999998,
            "velocity": 0.7874015748031497
          },
          {
            "duration": 0.06224062499998695,
            "durationTicks": 60,
            "midi": 52,
            "name": "E3",
            "ticks": 157120,
            "time": 167.60151399999998,
            "velocity": 0.7874015748031497
          },
          {
            "duration": 0.06224062499998695,
            "durationTicks": 60,
            "midi": 50,
            "name": "D3",
            "ticks": 157280,
            "time": 167.76748899999998,
            "velocity": 0.7874015748031497
          },
          {
            "duration": 1.0537173749999909,
            "durationTicks": 1020,
            "midi": 52,
            "name": "E3",
            "ticks": 157440,
            "time": 167.933464,
            "velocity": 0.7874015748031497
          },
          {
            "duration": 0.06198337499998274,
            "durationTicks": 60,
            "midi": 50,
            "name": "D3",
            "ticks": 158880,
            "time": 169.421065,
            "velocity": 0.7874015748031497
          },
          {
            "duration": 0.06198337499998274,
            "durationTicks": 60,
            "midi": 52,
            "name": "E3",
            "ticks": 159040,
            "time": 169.586354,
            "velocity": 0.7874015748031497
          },
          {
            "duration": 0.061983375000011165,
            "durationTicks": 60,
            "midi": 50,
            "name": "D3",
            "ticks": 159200,
            "time": 169.75164299999997,
            "velocity": 0.7874015748031497
          },
          {
            "duration": 0.06224062499998695,
            "durationTicks": 60,
            "midi": 52,
            "name": "E3",
            "ticks": 159360,
            "time": 169.91693199999997,
            "velocity": 0.7874015748031497
          },
          {
            "duration": 0.12448125000000232,
            "durationTicks": 120,
            "midi": 56,
            "name": "G#3",
            "ticks": 159680,
            "time": 170.24888199999998,
            "velocity": 0.7874015748031497
          },
          {
            "duration": 0.1244812499999739,
            "durationTicks": 120,
            "midi": 51,
            "name": "D#3",
            "ticks": 160000,
            "time": 170.580832,
            "velocity": 0.7874015748031497
          },
          {
            "duration": 0.12448125000000232,
            "durationTicks": 120,
            "midi": 52,
            "name": "E3",
            "ticks": 160160,
            "time": 170.74680699999996,
            "velocity": 0.7874015748031497
          },
          {
            "duration": 0.12448125000000232,
            "durationTicks": 120,
            "midi": 47,
            "name": "B2",
            "ticks": 160480,
            "time": 171.07875699999997,
            "velocity": 0.7874015748031497
          },
          {
            "duration": 0.12448125000000232,
            "durationTicks": 120,
            "midi": 56,
            "name": "G#3",
            "ticks": 160640,
            "time": 171.24473199999997,
            "velocity": 0.7874015748031497
          },
          {
            "duration": 0.12448125000000232,
            "durationTicks": 120,
            "midi": 51,
            "name": "D#3",
            "ticks": 160960,
            "time": 171.57668199999998,
            "velocity": 0.7874015748031497
          },
          {
            "duration": 0.12448125000000232,
            "durationTicks": 120,
            "midi": 52,
            "name": "E3",
            "ticks": 161120,
            "time": 171.74265699999998,
            "velocity": 0.7874015748031497
          },
          {
            "duration": 0.125,
            "durationTicks": 120,
            "midi": 47,
            "name": "B2",
            "ticks": 161440,
            "time": 172.07529866666664,
            "velocity": 0.7874015748031497
          },
          {
            "duration": 0.125,
            "durationTicks": 120,
            "midi": 56,
            "name": "G#3",
            "ticks": 161600,
            "time": 172.24196533333333,
            "velocity": 0.7874015748031497
          },
          {
            "duration": 0.125,
            "durationTicks": 120,
            "midi": 51,
            "name": "D#3",
            "ticks": 161920,
            "time": 172.57529866666664,
            "velocity": 0.7874015748031497
          },
          {
            "duration": 0.125,
            "durationTicks": 120,
            "midi": 52,
            "name": "E3",
            "ticks": 162080,
            "time": 172.74196533333333,
            "velocity": 0.7874015748031497
          },
          {
            "duration": 0.125,
            "durationTicks": 120,
            "midi": 47,
            "name": "B2",
            "ticks": 162400,
            "time": 173.07529866666664,
            "velocity": 0.7874015748031497
          },
          {
            "duration": 0.125,
            "durationTicks": 120,
            "midi": 56,
            "name": "G#3",
            "ticks": 162560,
            "time": 173.24196533333333,
            "velocity": 0.7874015748031497
          },
          {
            "duration": 0.125,
            "durationTicks": 120,
            "midi": 51,
            "name": "D#3",
            "ticks": 162880,
            "time": 173.57529866666664,
            "velocity": 0.7874015748031497
          },
          {
            "duration": 0.125,
            "durationTicks": 120,
            "midi": 52,
            "name": "E3",
            "ticks": 163040,
            "time": 173.74196533333333,
            "velocity": 0.7874015748031497
          },
          {
            "duration": 0.125,
            "durationTicks": 120,
            "midi": 47,
            "name": "B2",
            "ticks": 163360,
            "time": 174.07529866666664,
            "velocity": 0.7874015748031497
          },
          {
            "duration": 0.125,
            "durationTicks": 120,
            "midi": 56,
            "name": "G#3",
            "ticks": 163520,
            "time": 174.24196533333333,
            "velocity": 0.7874015748031497
          },
          {
            "duration": 0.125,
            "durationTicks": 120,
            "midi": 51,
            "name": "D#3",
            "ticks": 163840,
            "time": 174.57529866666664,
            "velocity": 0.7874015748031497
          },
          {
            "duration": 0.125,
            "durationTicks": 120,
            "midi": 52,
            "name": "E3",
            "ticks": 164000,
            "time": 174.74196533333333,
            "velocity": 0.7874015748031497
          },
          {
            "duration": 0.125,
            "durationTicks": 120,
            "midi": 47,
            "name": "B2",
            "ticks": 164320,
            "time": 175.07529866666664,
            "velocity": 0.7874015748031497
          },
          {
            "duration": 0.125,
            "durationTicks": 120,
            "midi": 56,
            "name": "G#3",
            "ticks": 164480,
            "time": 175.24196533333333,
            "velocity": 0.7874015748031497
          },
          {
            "duration": 0.125,
            "durationTicks": 120,
            "midi": 51,
            "name": "D#3",
            "ticks": 164800,
            "time": 175.57529866666664,
            "velocity": 0.7874015748031497
          },
          {
            "duration": 0.125,
            "durationTicks": 120,
            "midi": 52,
            "name": "E3",
            "ticks": 164960,
            "time": 175.74196533333333,
            "velocity": 0.7874015748031497
          },
          {
            "duration": 0.125,
            "durationTicks": 120,
            "midi": 47,
            "name": "B2",
            "ticks": 165280,
            "time": 176.07529866666664,
            "velocity": 0.7874015748031497
          },
          {
            "duration": 0.125,
            "durationTicks": 120,
            "midi": 56,
            "name": "G#3",
            "ticks": 165440,
            "time": 176.24196533333333,
            "velocity": 0.7874015748031497
          },
          {
            "duration": 0.125,
            "durationTicks": 120,
            "midi": 51,
            "name": "D#3",
            "ticks": 165760,
            "time": 176.57529866666664,
            "velocity": 0.7874015748031497
          },
          {
            "duration": 0.125,
            "durationTicks": 120,
            "midi": 52,
            "name": "E3",
            "ticks": 165920,
            "time": 176.74196533333333,
            "velocity": 0.7874015748031497
          },
          {
            "duration": 0.125,
            "durationTicks": 120,
            "midi": 47,
            "name": "B2",
            "ticks": 166240,
            "time": 177.07529866666664,
            "velocity": 0.7874015748031497
          },
          {
            "duration": 0.125,
            "durationTicks": 120,
            "midi": 56,
            "name": "G#3",
            "ticks": 166400,
            "time": 177.24196533333333,
            "velocity": 0.7874015748031497
          },
          {
            "duration": 0.125,
            "durationTicks": 120,
            "midi": 51,
            "name": "D#3",
            "ticks": 166720,
            "time": 177.57529866666664,
            "velocity": 0.7874015748031497
          },
          {
            "duration": 0.125,
            "durationTicks": 120,
            "midi": 52,
            "name": "E3",
            "ticks": 166880,
            "time": 177.74196533333333,
            "velocity": 0.7874015748031497
          },
          {
            "duration": 0.12552300000001537,
            "durationTicks": 120,
            "midi": 47,
            "name": "B2",
            "ticks": 167200,
            "time": 178.07599599999998,
            "velocity": 0.7874015748031497
          },
          {
            "duration": 0.12552299999998695,
            "durationTicks": 120,
            "midi": 56,
            "name": "G#3",
            "ticks": 167360,
            "time": 178.24336,
            "velocity": 0.7874015748031497
          },
          {
            "duration": 0.12552300000001537,
            "durationTicks": 120,
            "midi": 51,
            "name": "D#3",
            "ticks": 167680,
            "time": 178.57808799999998,
            "velocity": 0.7874015748031497
          },
          {
            "duration": 0.12552300000001537,
            "durationTicks": 120,
            "midi": 52,
            "name": "E3",
            "ticks": 167840,
            "time": 178.74545199999997,
            "velocity": 0.7874015748031497
          },
          {
            "duration": 0.12552299999998695,
            "durationTicks": 120,
            "midi": 47,
            "name": "B2",
            "ticks": 168160,
            "time": 179.08017999999998,
            "velocity": 0.7874015748031497
          },
          {
            "duration": 0.12552300000001537,
            "durationTicks": 120,
            "midi": 56,
            "name": "G#3",
            "ticks": 168320,
            "time": 179.24754399999998,
            "velocity": 0.7874015748031497
          },
          {
            "duration": 0.12552299999998695,
            "durationTicks": 120,
            "midi": 51,
            "name": "D#3",
            "ticks": 168640,
            "time": 179.582272,
            "velocity": 0.7874015748031497
          },
          {
            "duration": 0.12552300000001537,
            "durationTicks": 120,
            "midi": 52,
            "name": "E3",
            "ticks": 168800,
            "time": 179.74963599999998,
            "velocity": 0.7874015748031497
          },
          {
            "duration": 0.12552299999998695,
            "durationTicks": 120,
            "midi": 47,
            "name": "B2",
            "ticks": 169120,
            "time": 180.084364,
            "velocity": 0.7874015748031497
          },
          {
            "duration": 0.12552299999998695,
            "durationTicks": 120,
            "midi": 56,
            "name": "G#3",
            "ticks": 169280,
            "time": 180.25172799999999,
            "velocity": 0.7874015748031497
          },
          {
            "duration": 0.12552300000001537,
            "durationTicks": 120,
            "midi": 51,
            "name": "D#3",
            "ticks": 169600,
            "time": 180.58645599999997,
            "velocity": 0.7874015748031497
          },
          {
            "duration": 0.12552299999998695,
            "durationTicks": 120,
            "midi": 52,
            "name": "E3",
            "ticks": 169760,
            "time": 180.75382,
            "velocity": 0.7874015748031497
          },
          {
            "duration": 0.12552300000001537,
            "durationTicks": 120,
            "midi": 47,
            "name": "B2",
            "ticks": 170080,
            "time": 181.08854799999997,
            "velocity": 0.7874015748031497
          },
          {
            "duration": 0.12552299999998695,
            "durationTicks": 120,
            "midi": 56,
            "name": "G#3",
            "ticks": 170240,
            "time": 181.255912,
            "velocity": 0.7874015748031497
          },
          {
            "duration": 0.12552300000001537,
            "durationTicks": 120,
            "midi": 51,
            "name": "D#3",
            "ticks": 170560,
            "time": 181.59063999999998,
            "velocity": 0.7874015748031497
          },
          {
            "duration": 0.12552300000001537,
            "durationTicks": 120,
            "midi": 52,
            "name": "E3",
            "ticks": 170720,
            "time": 181.75800399999997,
            "velocity": 0.7874015748031497
          },
          {
            "duration": 0.12552299999998695,
            "durationTicks": 120,
            "midi": 47,
            "name": "B2",
            "ticks": 171040,
            "time": 182.09273199999998,
            "velocity": 0.7874015748031497
          },
          {
            "duration": 0.12552300000001537,
            "durationTicks": 120,
            "midi": 56,
            "name": "G#3",
            "ticks": 171200,
            "time": 182.26009599999998,
            "velocity": 0.7874015748031497
          },
          {
            "duration": 0.12552299999998695,
            "durationTicks": 120,
            "midi": 51,
            "name": "D#3",
            "ticks": 171520,
            "time": 182.594824,
            "velocity": 0.7874015748031497
          },
          {
            "duration": 0.12552300000001537,
            "durationTicks": 120,
            "midi": 52,
            "name": "E3",
            "ticks": 171680,
            "time": 182.76218799999998,
            "velocity": 0.7874015748031497
          },
          {
            "duration": 0.12552299999998695,
            "durationTicks": 120,
            "midi": 47,
            "name": "B2",
            "ticks": 172000,
            "time": 183.096916,
            "velocity": 0.7874015748031497
          },
          {
            "duration": 0.12552299999998695,
            "durationTicks": 120,
            "midi": 56,
            "name": "G#3",
            "ticks": 172160,
            "time": 183.26427999999999,
            "velocity": 0.7874015748031497
          },
          {
            "duration": 0.12552300000001537,
            "durationTicks": 120,
            "midi": 51,
            "name": "D#3",
            "ticks": 172480,
            "time": 183.59900799999997,
            "velocity": 0.7874015748031497
          },
          {
            "duration": 4.01673599999998,
            "durationTicks": 3840,
            "midi": 52,
            "name": "E3",
            "ticks": 172640,
            "time": 183.766372,
            "velocity": 0.7874015748031497
          }
        ]
      },
      {
        "channel": 4,
        "controlChanges": {},
        "pitchBends": [],
        "instrument": {
          "family": "piano",
          "name": "acoustic grand piano",
          "number": 0
        },
        "name": "TRIGGERS",
        "notes": [
          {
            "duration": 0.13452874999999942,
            "durationTicks": 120,
            "midi": 61,
            "name": "C#4",
            "ticks": 7360,
            "time": 8.098724666666666,
            "velocity": 0.7874015748031497
          },
          {
            "duration": 0.13452874999999942,
            "durationTicks": 120,
            "midi": 61,
            "name": "C#4",
            "ticks": 7520,
            "time": 8.278096333333332,
            "velocity": 0.7874015748031497
          },
          {
            "duration": 0.1345287500000012,
            "durationTicks": 120,
            "midi": 61,
            "name": "C#4",
            "ticks": 7680,
            "time": 8.457467999999999,
            "velocity": 0.7874015748031497
          },
          {
            "duration": 0.13215849999999918,
            "durationTicks": 120,
            "midi": 61,
            "name": "C#4",
            "ticks": 10560,
            "time": 11.667196,
            "velocity": 0.7874015748031497
          },
          {
            "duration": 0.13215850000000096,
            "durationTicks": 120,
            "midi": 60,
            "name": "C4",
            "ticks": 10880,
            "time": 12.019618666666666,
            "velocity": 0.7874015748031497
          },
          {
            "duration": 0.13215850000000096,
            "durationTicks": 120,
            "midi": 61,
            "name": "C#4",
            "ticks": 10880,
            "time": 12.019618666666666,
            "velocity": 0.7874015748031497
          },
          {
            "duration": 0.13215849999999918,
            "durationTicks": 120,
            "midi": 60,
            "name": "C4",
            "ticks": 11200,
            "time": 12.372041333333334,
            "velocity": 0.7874015748031497
          },
          {
            "duration": 0.13215849999999918,
            "durationTicks": 120,
            "midi": 61,
            "name": "C#4",
            "ticks": 11200,
            "time": 12.372041333333334,
            "velocity": 0.7874015748031497
          },
          {
            "duration": 0.13215849999999918,
            "durationTicks": 120,
            "midi": 61,
            "name": "C#4",
            "ticks": 11360,
            "time": 12.548252666666666,
            "velocity": 0.7874015748031497
          },
          {
            "duration": 0.13215850000000096,
            "durationTicks": 120,
            "midi": 60,
            "name": "C4",
            "ticks": 11520,
            "time": 12.724464,
            "velocity": 0.7874015748031497
          },
          {
            "duration": 0.13215850000000096,
            "durationTicks": 120,
            "midi": 61,
            "name": "C#4",
            "ticks": 11520,
            "time": 12.724464,
            "velocity": 0.7874015748031497
          },
          {
            "duration": 0.13215850000000096,
            "durationTicks": 120,
            "midi": 61,
            "name": "C#4",
            "ticks": 12000,
            "time": 13.253098,
            "velocity": 0.7874015748031497
          },
          {
            "duration": 0.13215849999999918,
            "durationTicks": 120,
            "midi": 60,
            "name": "C4",
            "ticks": 12480,
            "time": 13.781732,
            "velocity": 0.7874015748031497
          },
          {
            "duration": 0.13215849999999918,
            "durationTicks": 120,
            "midi": 61,
            "name": "C#4",
            "ticks": 12480,
            "time": 13.781732,
            "velocity": 0.7874015748031497
          },
          {
            "duration": 0.13215849999999918,
            "durationTicks": 120,
            "midi": 60,
            "name": "C4",
            "ticks": 13280,
            "time": 14.662788666666668,
            "velocity": 0.7874015748031497
          },
          {
            "duration": 0.13215849999999918,
            "durationTicks": 120,
            "midi": 61,
            "name": "C#4",
            "ticks": 13280,
            "time": 14.662788666666668,
            "velocity": 0.7874015748031497
          },
          {
            "duration": 0.13157849999999982,
            "durationTicks": 120,
            "midi": 60,
            "name": "C4",
            "ticks": 13440,
            "time": 14.838999999999999,
            "velocity": 0.7874015748031497
          },
          {
            "duration": 0.13157849999999982,
            "durationTicks": 120,
            "midi": 61,
            "name": "C#4",
            "ticks": 13440,
            "time": 14.838999999999999,
            "velocity": 0.7874015748031497
          },
          {
            "duration": 0.1315785000000016,
            "durationTicks": 120,
            "midi": 61,
            "name": "C#4",
            "ticks": 13920,
            "time": 15.365313999999998,
            "velocity": 0.7874015748031497
          },
          {
            "duration": 0.1315785000000016,
            "durationTicks": 120,
            "midi": 60,
            "name": "C4",
            "ticks": 14400,
            "time": 15.891627999999999,
            "velocity": 0.7874015748031497
          },
          {
            "duration": 0.1315785000000016,
            "durationTicks": 120,
            "midi": 61,
            "name": "C#4",
            "ticks": 14400,
            "time": 15.891627999999999,
            "velocity": 0.7874015748031497
          },
          {
            "duration": 0.13157849999999982,
            "durationTicks": 120,
            "midi": 61,
            "name": "C#4",
            "ticks": 14880,
            "time": 16.417942,
            "velocity": 0.7874015748031497
          },
          {
            "duration": 0.13157849999999982,
            "durationTicks": 120,
            "midi": 60,
            "name": "C4",
            "ticks": 15360,
            "time": 16.944256,
            "velocity": 0.7874015748031497
          },
          {
            "duration": 0.13157849999999982,
            "durationTicks": 120,
            "midi": 61,
            "name": "C#4",
            "ticks": 15360,
            "time": 16.944256,
            "velocity": 0.7874015748031497
          },
          {
            "duration": 0.13157849999999982,
            "durationTicks": 120,
            "midi": 61,
            "name": "C#4",
            "ticks": 15840,
            "time": 17.47057,
            "velocity": 0.7874015748031497
          },
          {
            "duration": 0.13157849999999982,
            "durationTicks": 120,
            "midi": 60,
            "name": "C4",
            "ticks": 16320,
            "time": 17.996883999999998,
            "velocity": 0.7874015748031497
          },
          {
            "duration": 0.13157849999999982,
            "durationTicks": 120,
            "midi": 61,
            "name": "C#4",
            "ticks": 16320,
            "time": 17.996883999999998,
            "velocity": 0.7874015748031497
          },
          {
            "duration": 0.13157849999999982,
            "durationTicks": 120,
            "midi": 61,
            "name": "C#4",
            "ticks": 16800,
            "time": 18.523198,
            "velocity": 0.7874015748031497
          },
          {
            "duration": 0.1310040000000008,
            "durationTicks": 120,
            "midi": 60,
            "name": "C4",
            "ticks": 17280,
            "time": 19.049512,
            "velocity": 0.7874015748031497
          },
          {
            "duration": 0.1310040000000008,
            "durationTicks": 120,
            "midi": 61,
            "name": "C#4",
            "ticks": 17280,
            "time": 19.049512,
            "velocity": 0.7874015748031497
          },
          {
            "duration": 0.1310040000000008,
            "durationTicks": 120,
            "midi": 61,
            "name": "C#4",
            "ticks": 17600,
            "time": 19.398856,
            "velocity": 0.7874015748031497
          },
          {
            "duration": 0.1310040000000008,
            "durationTicks": 120,
            "midi": 61,
            "name": "C#4",
            "ticks": 17760,
            "time": 19.573528,
            "velocity": 0.7874015748031497
          },
          {
            "duration": 0.1310040000000008,
            "durationTicks": 120,
            "midi": 60,
            "name": "C4",
            "ticks": 18240,
            "time": 20.097544,
            "velocity": 0.7874015748031497
          },
          {
            "duration": 0.1310040000000008,
            "durationTicks": 120,
            "midi": 61,
            "name": "C#4",
            "ticks": 18240,
            "time": 20.097544,
            "velocity": 0.7874015748031497
          },
          {
            "duration": 0.13100399999999723,
            "durationTicks": 120,
            "midi": 61,
            "name": "C#4",
            "ticks": 19680,
            "time": 21.669592,
            "velocity": 0.7874015748031497
          },
          {
            "duration": 0.1310040000000008,
            "durationTicks": 120,
            "midi": 61,
            "name": "C#4",
            "ticks": 19840,
            "time": 21.844264,
            "velocity": 0.7874015748031497
          },
          {
            "duration": 0.1310040000000008,
            "durationTicks": 120,
            "midi": 61,
            "name": "C#4",
            "ticks": 20000,
            "time": 22.018936,
            "velocity": 0.7874015748031497
          },
          {
            "duration": 0.1310040000000008,
            "durationTicks": 120,
            "midi": 60,
            "name": "C4",
            "ticks": 20160,
            "time": 22.193608,
            "velocity": 0.7874015748031497
          },
          {
            "duration": 0.1310040000000008,
            "durationTicks": 120,
            "midi": 61,
            "name": "C#4",
            "ticks": 20160,
            "time": 22.193608,
            "velocity": 0.7874015748031497
          },
          {
            "duration": 0.1310040000000008,
            "durationTicks": 120,
            "midi": 60,
            "name": "C4",
            "ticks": 20960,
            "time": 23.066968,
            "velocity": 0.7874015748031497
          },
          {
            "duration": 0.1310040000000008,
            "durationTicks": 120,
            "midi": 61,
            "name": "C#4",
            "ticks": 20960,
            "time": 23.066968,
            "velocity": 0.7874015748031497
          },
          {
            "duration": 0.1310040000000008,
            "durationTicks": 120,
            "midi": 60,
            "name": "C4",
            "ticks": 21120,
            "time": 23.24164,
            "velocity": 0.7874015748031497
          },
          {
            "duration": 0.1310040000000008,
            "durationTicks": 120,
            "midi": 61,
            "name": "C#4",
            "ticks": 21120,
            "time": 23.24164,
            "velocity": 0.7874015748031497
          },
          {
            "duration": 0.1310040000000008,
            "durationTicks": 120,
            "midi": 60,
            "name": "C4",
            "ticks": 21440,
            "time": 23.590984,
            "velocity": 0.7874015748031497
          },
          {
            "duration": 0.13100399999999723,
            "durationTicks": 120,
            "midi": 60,
            "name": "C4",
            "ticks": 21920,
            "time": 24.115000000000002,
            "velocity": 0.7874015748031497
          },
          {
            "duration": 0.13100399999999723,
            "durationTicks": 120,
            "midi": 61,
            "name": "C#4",
            "ticks": 21920,
            "time": 24.115000000000002,
            "velocity": 0.7874015748031497
          },
          {
            "duration": 0.12986950000000164,
            "durationTicks": 120,
            "midi": 60,
            "name": "C4",
            "ticks": 22080,
            "time": 24.289672,
            "velocity": 0.7874015748031497
          },
          {
            "duration": 0.12986950000000164,
            "durationTicks": 120,
            "midi": 61,
            "name": "C#4",
            "ticks": 22080,
            "time": 24.289672,
            "velocity": 0.7874015748031497
          },
          {
            "duration": 0.12986949999999808,
            "durationTicks": 120,
            "midi": 60,
            "name": "C4",
            "ticks": 22880,
            "time": 25.155468666666668,
            "velocity": 0.7874015748031497
          },
          {
            "duration": 0.12986949999999808,
            "durationTicks": 120,
            "midi": 61,
            "name": "C#4",
            "ticks": 22880,
            "time": 25.155468666666668,
            "velocity": 0.7874015748031497
          },
          {
            "duration": 0.12986950000000164,
            "durationTicks": 120,
            "midi": 60,
            "name": "C4",
            "ticks": 23040,
            "time": 25.328628,
            "velocity": 0.7874015748031497
          },
          {
            "duration": 0.12986950000000164,
            "durationTicks": 120,
            "midi": 61,
            "name": "C#4",
            "ticks": 23040,
            "time": 25.328628,
            "velocity": 0.7874015748031497
          },
          {
            "duration": 0.12986949999999808,
            "durationTicks": 120,
            "midi": 60,
            "name": "C4",
            "ticks": 23360,
            "time": 25.674946666666667,
            "velocity": 0.7874015748031497
          },
          {
            "duration": 0.12986949999999808,
            "durationTicks": 120,
            "midi": 60,
            "name": "C4",
            "ticks": 23840,
            "time": 26.194424666666666,
            "velocity": 0.7874015748031497
          },
          {
            "duration": 0.12986949999999808,
            "durationTicks": 120,
            "midi": 61,
            "name": "C#4",
            "ticks": 23840,
            "time": 26.194424666666666,
            "velocity": 0.7874015748031497
          },
          {
            "duration": 0.12765874999999838,
            "durationTicks": 120,
            "midi": 60,
            "name": "C4",
            "ticks": 24000,
            "time": 26.367584,
            "velocity": 0.7874015748031497
          },
          {
            "duration": 0.12765874999999838,
            "durationTicks": 120,
            "midi": 61,
            "name": "C#4",
            "ticks": 24000,
            "time": 26.367584,
            "velocity": 0.7874015748031497
          },
          {
            "duration": 0.12765874999999838,
            "durationTicks": 120,
            "midi": 61,
            "name": "C#4",
            "ticks": 24800,
            "time": 27.218642333333335,
            "velocity": 0.7874015748031497
          },
          {
            "duration": 0.12765874999999838,
            "durationTicks": 120,
            "midi": 60,
            "name": "C4",
            "ticks": 24960,
            "time": 27.388854000000002,
            "velocity": 0.7874015748031497
          },
          {
            "duration": 0.12765874999999838,
            "durationTicks": 120,
            "midi": 61,
            "name": "C#4",
            "ticks": 24960,
            "time": 27.388854000000002,
            "velocity": 0.7874015748031497
          },
          {
            "duration": 0.12765875000000193,
            "durationTicks": 120,
            "midi": 60,
            "name": "C4",
            "ticks": 25440,
            "time": 27.899489,
            "velocity": 0.7874015748031497
          },
          {
            "duration": 0.12765875000000193,
            "durationTicks": 120,
            "midi": 61,
            "name": "C#4",
            "ticks": 25440,
            "time": 27.899489,
            "velocity": 0.7874015748031497
          },
          {
            "duration": 0.13043474999999916,
            "durationTicks": 120,
            "midi": 60,
            "name": "C4",
            "ticks": 25920,
            "time": 28.410124,
            "velocity": 0.7874015748031497
          },
          {
            "duration": 0.13043474999999916,
            "durationTicks": 120,
            "midi": 61,
            "name": "C#4",
            "ticks": 25920,
            "time": 28.410124,
            "velocity": 0.7874015748031497
          },
          {
            "duration": 0.13043474999999916,
            "durationTicks": 120,
            "midi": 60,
            "name": "C4",
            "ticks": 26720,
            "time": 29.279689,
            "velocity": 0.7874015748031497
          },
          {
            "duration": 0.13043474999999916,
            "durationTicks": 120,
            "midi": 61,
            "name": "C#4",
            "ticks": 26720,
            "time": 29.279689,
            "velocity": 0.7874015748031497
          },
          {
            "duration": 0.13043474999999916,
            "durationTicks": 120,
            "midi": 60,
            "name": "C4",
            "ticks": 26880,
            "time": 29.453602,
            "velocity": 0.7874015748031497
          },
          {
            "duration": 0.13043474999999916,
            "durationTicks": 120,
            "midi": 61,
            "name": "C#4",
            "ticks": 26880,
            "time": 29.453602,
            "velocity": 0.7874015748031497
          },
          {
            "duration": 0.1304347500000027,
            "durationTicks": 120,
            "midi": 60,
            "name": "C4",
            "ticks": 27680,
            "time": 30.323166999999998,
            "velocity": 0.7874015748031497
          },
          {
            "duration": 0.1304347500000027,
            "durationTicks": 120,
            "midi": 61,
            "name": "C#4",
            "ticks": 27680,
            "time": 30.323166999999998,
            "velocity": 0.7874015748031497
          },
          {
            "duration": 0.1287552500000011,
            "durationTicks": 120,
            "midi": 60,
            "name": "C4",
            "ticks": 27840,
            "time": 30.49708,
            "velocity": 0.7874015748031497
          },
          {
            "duration": 0.1287552500000011,
            "durationTicks": 120,
            "midi": 61,
            "name": "C#4",
            "ticks": 27840,
            "time": 30.49708,
            "velocity": 0.7874015748031497
          },
          {
            "duration": 0.12875524999999755,
            "durationTicks": 120,
            "midi": 60,
            "name": "C4",
            "ticks": 28640,
            "time": 31.355448333333335,
            "velocity": 0.7874015748031497
          },
          {
            "duration": 0.12875524999999755,
            "durationTicks": 120,
            "midi": 61,
            "name": "C#4",
            "ticks": 28640,
            "time": 31.355448333333335,
            "velocity": 0.7874015748031497
          },
          {
            "duration": 0.1287552500000011,
            "durationTicks": 120,
            "midi": 60,
            "name": "C4",
            "ticks": 28800,
            "time": 31.527122,
            "velocity": 0.7874015748031497
          },
          {
            "duration": 0.1287552500000011,
            "durationTicks": 120,
            "midi": 61,
            "name": "C#4",
            "ticks": 28800,
            "time": 31.527122,
            "velocity": 0.7874015748031497
          },
          {
            "duration": 0.12875525000000465,
            "durationTicks": 120,
            "midi": 60,
            "name": "C4",
            "ticks": 29599,
            "time": 32.384417372916666,
            "velocity": 0.7874015748031497
          },
          {
            "duration": 0.12875525000000465,
            "durationTicks": 120,
            "midi": 61,
            "name": "C#4",
            "ticks": 29599,
            "time": 32.384417372916666,
            "velocity": 0.7874015748031497
          },
          {
            "duration": 0.12875524999999755,
            "durationTicks": 120,
            "midi": 60,
            "name": "C4",
            "ticks": 29760,
            "time": 32.557164,
            "velocity": 0.7874015748031497
          },
          {
            "duration": 0.12875524999999755,
            "durationTicks": 120,
            "midi": 61,
            "name": "C#4",
            "ticks": 29760,
            "time": 32.557164,
            "velocity": 0.7874015748031497
          },
          {
            "duration": 0.12875524999999755,
            "durationTicks": 120,
            "midi": 60,
            "name": "C4",
            "ticks": 30559,
            "time": 33.41445937291667,
            "velocity": 0.7874015748031497
          },
          {
            "duration": 0.12875524999999755,
            "durationTicks": 120,
            "midi": 61,
            "name": "C#4",
            "ticks": 30559,
            "time": 33.41445937291667,
            "velocity": 0.7874015748031497
          },
          {
            "duration": 0.12875524999999755,
            "durationTicks": 120,
            "midi": 60,
            "name": "C4",
            "ticks": 30720,
            "time": 33.587206,
            "velocity": 0.7874015748031497
          },
          {
            "duration": 0.12875524999999755,
            "durationTicks": 120,
            "midi": 61,
            "name": "C#4",
            "ticks": 30720,
            "time": 33.587206,
            "velocity": 0.7874015748031497
          },
          {
            "duration": 0.12875525000000465,
            "durationTicks": 120,
            "midi": 60,
            "name": "C4",
            "ticks": 31039,
            "time": 33.929480372916665,
            "velocity": 0.7874015748031497
          },
          {
            "duration": 0.12875525000000465,
            "durationTicks": 120,
            "midi": 61,
            "name": "C#4",
            "ticks": 31039,
            "time": 33.929480372916665,
            "velocity": 0.7874015748031497
          },
          {
            "duration": 0.12875524999999755,
            "durationTicks": 120,
            "midi": 60,
            "name": "C4",
            "ticks": 31200,
            "time": 34.102227,
            "velocity": 0.7874015748031497
          },
          {
            "duration": 0.12875524999999755,
            "durationTicks": 120,
            "midi": 61,
            "name": "C#4",
            "ticks": 31200,
            "time": 34.102227,
            "velocity": 0.7874015748031497
          },
          {
            "duration": 0.12875524999999755,
            "durationTicks": 120,
            "midi": 61,
            "name": "C#4",
            "ticks": 31519,
            "time": 34.44450137291667,
            "velocity": 0.7874015748031497
          },
          {
            "duration": 0.12820500000000123,
            "durationTicks": 120,
            "midi": 60,
            "name": "C4",
            "ticks": 31680,
            "time": 34.617248000000004,
            "velocity": 0.7874015748031497
          },
          {
            "duration": 0.12820500000000123,
            "durationTicks": 120,
            "midi": 61,
            "name": "C#4",
            "ticks": 31680,
            "time": 34.617248000000004,
            "velocity": 0.7874015748031497
          },
          {
            "duration": 0.12820500000000123,
            "durationTicks": 120,
            "midi": 60,
            "name": "C4",
            "ticks": 32160,
            "time": 35.130068,
            "velocity": 0.7874015748031497
          },
          {
            "duration": 0.12820500000000123,
            "durationTicks": 120,
            "midi": 61,
            "name": "C#4",
            "ticks": 32160,
            "time": 35.130068,
            "velocity": 0.7874015748031497
          },
          {
            "duration": 0.12820499999999413,
            "durationTicks": 120,
            "midi": 60,
            "name": "C4",
            "ticks": 32640,
            "time": 35.642888000000006,
            "velocity": 0.7874015748031497
          },
          {
            "duration": 0.12820499999999413,
            "durationTicks": 120,
            "midi": 61,
            "name": "C#4",
            "ticks": 32640,
            "time": 35.642888000000006,
            "velocity": 0.7874015748031497
          },
          {
            "duration": 0.12820500000000123,
            "durationTicks": 120,
            "midi": 60,
            "name": "C4",
            "ticks": 33120,
            "time": 36.155708000000004,
            "velocity": 0.7874015748031497
          },
          {
            "duration": 0.12820500000000123,
            "durationTicks": 120,
            "midi": 61,
            "name": "C#4",
            "ticks": 33120,
            "time": 36.155708000000004,
            "velocity": 0.7874015748031497
          },
          {
            "duration": 0.12396674999999391,
            "durationTicks": 120,
            "midi": 60,
            "name": "C4",
            "ticks": 33920,
            "time": 36.999106000000005,
            "velocity": 0.7874015748031497
          },
          {
            "duration": 0.12396674999999391,
            "durationTicks": 120,
            "midi": 61,
            "name": "C#4",
            "ticks": 33920,
            "time": 36.999106000000005,
            "velocity": 0.7874015748031497
          },
          {
            "duration": 0.12820500000000123,
            "durationTicks": 120,
            "midi": 60,
            "name": "C4",
            "ticks": 35520,
            "time": 38.651996000000004,
            "velocity": 0.7874015748031497
          },
          {
            "duration": 0.12820500000000123,
            "durationTicks": 120,
            "midi": 61,
            "name": "C#4",
            "ticks": 35520,
            "time": 38.651996000000004,
            "velocity": 0.7874015748031497
          },
          {
            "duration": 0.12820500000000123,
            "durationTicks": 120,
            "midi": 60,
            "name": "C4",
            "ticks": 36320,
            "time": 39.506696000000005,
            "velocity": 0.7874015748031497
          },
          {
            "duration": 0.12820500000000123,
            "durationTicks": 120,
            "midi": 61,
            "name": "C#4",
            "ticks": 36320,
            "time": 39.506696000000005,
            "velocity": 0.7874015748031497
          },
          {
            "duration": 0.12820499999999413,
            "durationTicks": 120,
            "midi": 60,
            "name": "C4",
            "ticks": 36480,
            "time": 39.67763600000001,
            "velocity": 0.7874015748031497
          },
          {
            "duration": 0.12820499999999413,
            "durationTicks": 120,
            "midi": 61,
            "name": "C#4",
            "ticks": 36480,
            "time": 39.67763600000001,
            "velocity": 0.7874015748031497
          },
          {
            "duration": 0.12820500000000123,
            "durationTicks": 120,
            "midi": 60,
            "name": "C4",
            "ticks": 36800,
            "time": 40.019516,
            "velocity": 0.7874015748031497
          },
          {
            "duration": 0.12820500000000123,
            "durationTicks": 120,
            "midi": 60,
            "name": "C4",
            "ticks": 37280,
            "time": 40.532336,
            "velocity": 0.7874015748031497
          },
          {
            "duration": 0.12820500000000123,
            "durationTicks": 120,
            "midi": 61,
            "name": "C#4",
            "ticks": 37280,
            "time": 40.532336,
            "velocity": 0.7874015748031497
          },
          {
            "duration": 0.12875524999999755,
            "durationTicks": 120,
            "midi": 60,
            "name": "C4",
            "ticks": 37440,
            "time": 40.703276,
            "velocity": 0.7874015748031497
          },
          {
            "duration": 0.12875524999999755,
            "durationTicks": 120,
            "midi": 61,
            "name": "C#4",
            "ticks": 37440,
            "time": 40.703276,
            "velocity": 0.7874015748031497
          },
          {
            "duration": 0.12875525000000465,
            "durationTicks": 120,
            "midi": 60,
            "name": "C4",
            "ticks": 38240,
            "time": 41.561644333333334,
            "velocity": 0.7874015748031497
          },
          {
            "duration": 0.12875525000000465,
            "durationTicks": 120,
            "midi": 61,
            "name": "C#4",
            "ticks": 38240,
            "time": 41.561644333333334,
            "velocity": 0.7874015748031497
          },
          {
            "duration": 0.12875524999999755,
            "durationTicks": 120,
            "midi": 60,
            "name": "C4",
            "ticks": 38400,
            "time": 41.733318000000004,
            "velocity": 0.7874015748031497
          },
          {
            "duration": 0.12875524999999755,
            "durationTicks": 120,
            "midi": 61,
            "name": "C#4",
            "ticks": 38400,
            "time": 41.733318000000004,
            "velocity": 0.7874015748031497
          },
          {
            "duration": 0.12875524999999755,
            "durationTicks": 120,
            "midi": 60,
            "name": "C4",
            "ticks": 38720,
            "time": 42.07666533333334,
            "velocity": 0.7874015748031497
          },
          {
            "duration": 0.12875524999999755,
            "durationTicks": 120,
            "midi": 61,
            "name": "C#4",
            "ticks": 39200,
            "time": 42.591686333333335,
            "velocity": 0.7874015748031497
          },
          {
            "duration": 0.12604974999999996,
            "durationTicks": 120,
            "midi": 60,
            "name": "C4",
            "ticks": 39360,
            "time": 42.763360000000006,
            "velocity": 0.7874015748031497
          },
          {
            "duration": 0.12604974999999996,
            "durationTicks": 120,
            "midi": 61,
            "name": "C#4",
            "ticks": 39360,
            "time": 42.763360000000006,
            "velocity": 0.7874015748031497
          },
          {
            "duration": 0.12604974999999996,
            "durationTicks": 120,
            "midi": 60,
            "name": "C4",
            "ticks": 39680,
            "time": 43.09949266666667,
            "velocity": 0.7874015748031497
          },
          {
            "duration": 0.12604974999999996,
            "durationTicks": 120,
            "midi": 61,
            "name": "C#4",
            "ticks": 39680,
            "time": 43.09949266666667,
            "velocity": 0.7874015748031497
          },
          {
            "duration": 0.12820500000000123,
            "durationTicks": 120,
            "midi": 60,
            "name": "C4",
            "ticks": 41280,
            "time": 44.780156000000005,
            "velocity": 0.7874015748031497
          },
          {
            "duration": 0.12820500000000123,
            "durationTicks": 120,
            "midi": 61,
            "name": "C#4",
            "ticks": 41280,
            "time": 44.780156000000005,
            "velocity": 0.7874015748031497
          },
          {
            "duration": 0.12604974999999996,
            "durationTicks": 120,
            "midi": 60,
            "name": "C4",
            "ticks": 45120,
            "time": 48.848232,
            "velocity": 0.7874015748031497
          },
          {
            "duration": 0.12604974999999996,
            "durationTicks": 120,
            "midi": 61,
            "name": "C#4",
            "ticks": 45120,
            "time": 48.848232,
            "velocity": 0.7874015748031497
          },
          {
            "duration": 0.12604974999999996,
            "durationTicks": 120,
            "midi": 60,
            "name": "C4",
            "ticks": 45920,
            "time": 49.68856366666667,
            "velocity": 0.7874015748031497
          },
          {
            "duration": 0.12604974999999996,
            "durationTicks": 120,
            "midi": 61,
            "name": "C#4",
            "ticks": 45920,
            "time": 49.68856366666667,
            "velocity": 0.7874015748031497
          },
          {
            "duration": 0.12604974999999996,
            "durationTicks": 120,
            "midi": 60,
            "name": "C4",
            "ticks": 46080,
            "time": 49.85663,
            "velocity": 0.7874015748031497
          },
          {
            "duration": 0.12604974999999996,
            "durationTicks": 120,
            "midi": 61,
            "name": "C#4",
            "ticks": 46080,
            "time": 49.85663,
            "velocity": 0.7874015748031497
          },
          {
            "duration": 0.12604974999999996,
            "durationTicks": 120,
            "midi": 60,
            "name": "C4",
            "ticks": 46400,
            "time": 50.19276266666667,
            "velocity": 0.7874015748031497
          },
          {
            "duration": 0.12604974999999996,
            "durationTicks": 120,
            "midi": 61,
            "name": "C#4",
            "ticks": 46400,
            "time": 50.19276266666667,
            "velocity": 0.7874015748031497
          },
          {
            "duration": 0.12604975000000707,
            "durationTicks": 120,
            "midi": 60,
            "name": "C4",
            "ticks": 46880,
            "time": 50.69696166666667,
            "velocity": 0.7874015748031497
          },
          {
            "duration": 0.12604975000000707,
            "durationTicks": 120,
            "midi": 61,
            "name": "C#4",
            "ticks": 46880,
            "time": 50.69696166666667,
            "velocity": 0.7874015748031497
          },
          {
            "duration": 0.12604974999999996,
            "durationTicks": 120,
            "midi": 60,
            "name": "C4",
            "ticks": 47040,
            "time": 50.865028,
            "velocity": 0.7874015748031497
          },
          {
            "duration": 0.12604974999999996,
            "durationTicks": 120,
            "midi": 61,
            "name": "C#4",
            "ticks": 47040,
            "time": 50.865028,
            "velocity": 0.7874015748031497
          },
          {
            "duration": 0.12604975000000707,
            "durationTicks": 120,
            "midi": 61,
            "name": "C#4",
            "ticks": 48320,
            "time": 52.209558666666666,
            "velocity": 0.7874015748031497
          },
          {
            "duration": 0.12604974999999996,
            "durationTicks": 120,
            "midi": 61,
            "name": "C#4",
            "ticks": 48480,
            "time": 52.377625,
            "velocity": 0.7874015748031497
          },
          {
            "duration": 0.12604974999999996,
            "durationTicks": 120,
            "midi": 61,
            "name": "C#4",
            "ticks": 48640,
            "time": 52.54569133333334,
            "velocity": 0.7874015748031497
          },
          {
            "duration": 0.12604975000000707,
            "durationTicks": 120,
            "midi": 61,
            "name": "C#4",
            "ticks": 48800,
            "time": 52.713757666666666,
            "velocity": 0.7874015748031497
          },
          {
            "duration": 0.12711799999999585,
            "durationTicks": 120,
            "midi": 60,
            "name": "C4",
            "ticks": 52800,
            "time": 56.949600000000004,
            "velocity": 0.7874015748031497
          },
          {
            "duration": 0.12711799999999585,
            "durationTicks": 120,
            "midi": 61,
            "name": "C#4",
            "ticks": 52800,
            "time": 56.949600000000004,
            "velocity": 0.7874015748031497
          },
          {
            "duration": 0.12820499999999413,
            "durationTicks": 120,
            "midi": 61,
            "name": "C#4",
            "ticks": 55680,
            "time": 60.009128000000004,
            "velocity": 0.7874015748031497
          },
          {
            "duration": 0.12820500000000123,
            "durationTicks": 120,
            "midi": 60,
            "name": "C4",
            "ticks": 55840,
            "time": 60.180068,
            "velocity": 0.7874015748031497
          },
          {
            "duration": 0.12820500000000123,
            "durationTicks": 120,
            "midi": 60,
            "name": "C4",
            "ticks": 56000,
            "time": 60.351008,
            "velocity": 0.7874015748031497
          },
          {
            "duration": 0.12820500000000123,
            "durationTicks": 120,
            "midi": 61,
            "name": "C#4",
            "ticks": 56000,
            "time": 60.351008,
            "velocity": 0.7874015748031497
          },
          {
            "duration": 0.12820500000000123,
            "durationTicks": 120,
            "midi": 60,
            "name": "C4",
            "ticks": 56320,
            "time": 60.692888,
            "velocity": 0.7874015748031497
          },
          {
            "duration": 0.12820500000000123,
            "durationTicks": 120,
            "midi": 61,
            "name": "C#4",
            "ticks": 56320,
            "time": 60.692888,
            "velocity": 0.7874015748031497
          },
          {
            "duration": 0.12820500000000123,
            "durationTicks": 120,
            "midi": 60,
            "name": "C4",
            "ticks": 56480,
            "time": 60.863828,
            "velocity": 0.7874015748031497
          },
          {
            "duration": 0.12820500000000123,
            "durationTicks": 120,
            "midi": 61,
            "name": "C#4",
            "ticks": 56480,
            "time": 60.863828,
            "velocity": 0.7874015748031497
          },
          {
            "duration": 0.12931025000000318,
            "durationTicks": 120,
            "midi": 60,
            "name": "C4",
            "ticks": 56640,
            "time": 61.034768,
            "velocity": 0.7874015748031497
          },
          {
            "duration": 0.12931025000000318,
            "durationTicks": 120,
            "midi": 61,
            "name": "C#4",
            "ticks": 56640,
            "time": 61.034768,
            "velocity": 0.7874015748031497
          },
          {
            "duration": 0.12931025000000318,
            "durationTicks": 120,
            "midi": 61,
            "name": "C#4",
            "ticks": 57120,
            "time": 61.552009,
            "velocity": 0.7874015748031497
          },
          {
            "duration": 0.12931025000000318,
            "durationTicks": 120,
            "midi": 60,
            "name": "C4",
            "ticks": 57600,
            "time": 62.06925,
            "velocity": 0.7874015748031497
          },
          {
            "duration": 0.12931025000000318,
            "durationTicks": 120,
            "midi": 61,
            "name": "C#4",
            "ticks": 57600,
            "time": 62.06925,
            "velocity": 0.7874015748031497
          },
          {
            "duration": 0.12931024999999607,
            "durationTicks": 120,
            "midi": 61,
            "name": "C#4",
            "ticks": 58080,
            "time": 62.586491,
            "velocity": 0.7874015748031497
          },
          {
            "duration": 0.12931025000000318,
            "durationTicks": 120,
            "midi": 60,
            "name": "C4",
            "ticks": 58560,
            "time": 63.103732,
            "velocity": 0.7874015748031497
          },
          {
            "duration": 0.12931025000000318,
            "durationTicks": 120,
            "midi": 61,
            "name": "C#4",
            "ticks": 58560,
            "time": 63.103732,
            "velocity": 0.7874015748031497
          },
          {
            "duration": 0.12931025000000318,
            "durationTicks": 120,
            "midi": 61,
            "name": "C#4",
            "ticks": 59040,
            "time": 63.620973,
            "velocity": 0.7874015748031497
          },
          {
            "duration": 0.12931025000000318,
            "durationTicks": 120,
            "midi": 60,
            "name": "C4",
            "ticks": 59360,
            "time": 63.965800333333334,
            "velocity": 0.7874015748031497
          },
          {
            "duration": 0.12931025000000318,
            "durationTicks": 120,
            "midi": 61,
            "name": "C#4",
            "ticks": 59360,
            "time": 63.965800333333334,
            "velocity": 0.7874015748031497
          },
          {
            "duration": 0.12931025000000318,
            "durationTicks": 120,
            "midi": 60,
            "name": "C4",
            "ticks": 59520,
            "time": 64.138214,
            "velocity": 0.7874015748031497
          },
          {
            "duration": 0.12931025000000318,
            "durationTicks": 120,
            "midi": 61,
            "name": "C#4",
            "ticks": 59520,
            "time": 64.138214,
            "velocity": 0.7874015748031497
          },
          {
            "duration": 0.12931025000000318,
            "durationTicks": 120,
            "midi": 61,
            "name": "C#4",
            "ticks": 60000,
            "time": 64.655455,
            "velocity": 0.7874015748031497
          },
          {
            "duration": 0.12931025000000318,
            "durationTicks": 120,
            "midi": 60,
            "name": "C4",
            "ticks": 60480,
            "time": 65.172696,
            "velocity": 0.7874015748031497
          },
          {
            "duration": 0.12931025000000318,
            "durationTicks": 120,
            "midi": 61,
            "name": "C#4",
            "ticks": 60480,
            "time": 65.172696,
            "velocity": 0.7874015748031497
          },
          {
            "duration": 0.12931025000000318,
            "durationTicks": 120,
            "midi": 61,
            "name": "C#4",
            "ticks": 60960,
            "time": 65.689937,
            "velocity": 0.7874015748031497
          },
          {
            "duration": 0.12931025000000318,
            "durationTicks": 120,
            "midi": 60,
            "name": "C4",
            "ticks": 61440,
            "time": 66.207178,
            "velocity": 0.7874015748031497
          },
          {
            "duration": 0.12931025000000318,
            "durationTicks": 120,
            "midi": 61,
            "name": "C#4",
            "ticks": 61440,
            "time": 66.207178,
            "velocity": 0.7874015748031497
          },
          {
            "duration": 0.12931025000000318,
            "durationTicks": 120,
            "midi": 61,
            "name": "C#4",
            "ticks": 61920,
            "time": 66.724419,
            "velocity": 0.7874015748031497
          },
          {
            "duration": 0.12931024999998897,
            "durationTicks": 120,
            "midi": 60,
            "name": "C4",
            "ticks": 62240,
            "time": 67.06924633333334,
            "velocity": 0.7874015748031497
          },
          {
            "duration": 0.12931024999998897,
            "durationTicks": 120,
            "midi": 61,
            "name": "C#4",
            "ticks": 62240,
            "time": 67.06924633333334,
            "velocity": 0.7874015748031497
          },
          {
            "duration": 0.13043475000000626,
            "durationTicks": 120,
            "midi": 60,
            "name": "C4",
            "ticks": 62400,
            "time": 67.24166,
            "velocity": 0.7874015748031497
          },
          {
            "duration": 0.13043475000000626,
            "durationTicks": 120,
            "midi": 61,
            "name": "C#4",
            "ticks": 62400,
            "time": 67.24166,
            "velocity": 0.7874015748031497
          },
          {
            "duration": 0.13043474999999205,
            "durationTicks": 120,
            "midi": 60,
            "name": "C4",
            "ticks": 62719,
            "time": 67.58839904375,
            "velocity": 0.7874015748031497
          },
          {
            "duration": 0.13043474999999205,
            "durationTicks": 120,
            "midi": 61,
            "name": "C#4",
            "ticks": 62719,
            "time": 67.58839904375,
            "velocity": 0.7874015748031497
          },
          {
            "duration": 0.13043475000000626,
            "durationTicks": 120,
            "midi": 61,
            "name": "C#4",
            "ticks": 62880,
            "time": 67.76339899999999,
            "velocity": 0.7874015748031497
          },
          {
            "duration": 0.13043474999999205,
            "durationTicks": 120,
            "midi": 60,
            "name": "C4",
            "ticks": 63199,
            "time": 68.11013804375,
            "velocity": 0.7874015748031497
          },
          {
            "duration": 0.13043474999999205,
            "durationTicks": 120,
            "midi": 61,
            "name": "C#4",
            "ticks": 63199,
            "time": 68.11013804375,
            "velocity": 0.7874015748031497
          },
          {
            "duration": 0.12658150000000035,
            "durationTicks": 120,
            "midi": 60,
            "name": "C4",
            "ticks": 63360,
            "time": 68.28513799999999,
            "velocity": 0.7874015748031497
          },
          {
            "duration": 0.12658150000000035,
            "durationTicks": 120,
            "midi": 61,
            "name": "C#4",
            "ticks": 63360,
            "time": 68.28513799999999,
            "velocity": 0.7874015748031497
          },
          {
            "duration": 0.12931025000000318,
            "durationTicks": 120,
            "midi": 60,
            "name": "C4",
            "ticks": 65280,
            "time": 70.310442,
            "velocity": 0.7874015748031497
          },
          {
            "duration": 0.12931025000000318,
            "durationTicks": 120,
            "midi": 61,
            "name": "C#4",
            "ticks": 65280,
            "time": 70.310442,
            "velocity": 0.7874015748031497
          },
          {
            "duration": 0.12931024999998897,
            "durationTicks": 120,
            "midi": 60,
            "name": "C4",
            "ticks": 66080,
            "time": 71.17251033333334,
            "velocity": 0.7874015748031497
          },
          {
            "duration": 0.12931024999998897,
            "durationTicks": 120,
            "midi": 61,
            "name": "C#4",
            "ticks": 66080,
            "time": 71.17251033333334,
            "velocity": 0.7874015748031497
          },
          {
            "duration": 0.12931025000000318,
            "durationTicks": 120,
            "midi": 60,
            "name": "C4",
            "ticks": 66240,
            "time": 71.34492399999999,
            "velocity": 0.7874015748031497
          },
          {
            "duration": 0.12931025000000318,
            "durationTicks": 120,
            "midi": 61,
            "name": "C#4",
            "ticks": 66240,
            "time": 71.34492399999999,
            "velocity": 0.7874015748031497
          },
          {
            "duration": 0.12711799999999585,
            "durationTicks": 120,
            "midi": 60,
            "name": "C4",
            "ticks": 67200,
            "time": 72.37940599999999,
            "velocity": 0.7874015748031497
          },
          {
            "duration": 0.12711799999999585,
            "durationTicks": 120,
            "midi": 61,
            "name": "C#4",
            "ticks": 67200,
            "time": 72.37940599999999,
            "velocity": 0.7874015748031497
          },
          {
            "duration": 0.12711799999999585,
            "durationTicks": 120,
            "midi": 61,
            "name": "C#4",
            "ticks": 67520,
            "time": 72.71838733333333,
            "velocity": 0.7874015748031497
          },
          {
            "duration": 0.12711799999999585,
            "durationTicks": 120,
            "midi": 61,
            "name": "C#4",
            "ticks": 67680,
            "time": 72.88787799999999,
            "velocity": 0.7874015748031497
          },
          {
            "duration": 0.12711799999999585,
            "durationTicks": 120,
            "midi": 61,
            "name": "C#4",
            "ticks": 67840,
            "time": 73.05736866666666,
            "velocity": 0.7874015748031497
          },
          {
            "duration": 0.12711799999999585,
            "durationTicks": 120,
            "midi": 60,
            "name": "C4",
            "ticks": 68000,
            "time": 73.22685933333332,
            "velocity": 0.7874015748031497
          },
          {
            "duration": 0.12711799999999585,
            "durationTicks": 120,
            "midi": 61,
            "name": "C#4",
            "ticks": 68000,
            "time": 73.22685933333332,
            "velocity": 0.7874015748031497
          },
          {
            "duration": 0.12711800000001006,
            "durationTicks": 120,
            "midi": 60,
            "name": "C4",
            "ticks": 68160,
            "time": 73.39634999999998,
            "velocity": 0.7874015748031497
          },
          {
            "duration": 0.12711800000001006,
            "durationTicks": 120,
            "midi": 61,
            "name": "C#4",
            "ticks": 68160,
            "time": 73.39634999999998,
            "velocity": 0.7874015748031497
          },
          {
            "duration": 0.12711799999999585,
            "durationTicks": 120,
            "midi": 60,
            "name": "C4",
            "ticks": 68480,
            "time": 73.73533133333332,
            "velocity": 0.7874015748031497
          },
          {
            "duration": 0.12711799999999585,
            "durationTicks": 120,
            "midi": 60,
            "name": "C4",
            "ticks": 69120,
            "time": 74.413294,
            "velocity": 0.7874015748031497
          },
          {
            "duration": 0.12711799999999585,
            "durationTicks": 120,
            "midi": 61,
            "name": "C#4",
            "ticks": 69120,
            "time": 74.413294,
            "velocity": 0.7874015748031497
          },
          {
            "duration": 0.12711799999999585,
            "durationTicks": 120,
            "midi": 61,
            "name": "C#4",
            "ticks": 69280,
            "time": 74.58278466666665,
            "velocity": 0.7874015748031497
          },
          {
            "duration": 0.12711800000001006,
            "durationTicks": 120,
            "midi": 61,
            "name": "C#4",
            "ticks": 69440,
            "time": 74.75227533333332,
            "velocity": 0.7874015748031497
          },
          {
            "duration": 0.12711799999999585,
            "durationTicks": 120,
            "midi": 61,
            "name": "C#4",
            "ticks": 69600,
            "time": 74.92176599999999,
            "velocity": 0.7874015748031497
          },
          {
            "duration": 0.12711800000001006,
            "durationTicks": 120,
            "midi": 61,
            "name": "C#4",
            "ticks": 69760,
            "time": 75.09125666666665,
            "velocity": 0.7874015748031497
          },
          {
            "duration": 0.12711799999999585,
            "durationTicks": 120,
            "midi": 61,
            "name": "C#4",
            "ticks": 69920,
            "time": 75.26074733333333,
            "velocity": 0.7874015748031497
          },
          {
            "duration": 0.12711799999999585,
            "durationTicks": 120,
            "midi": 60,
            "name": "C4",
            "ticks": 70080,
            "time": 75.43023799999999,
            "velocity": 0.7874015748031497
          },
          {
            "duration": 0.12711799999999585,
            "durationTicks": 120,
            "midi": 61,
            "name": "C#4",
            "ticks": 70080,
            "time": 75.43023799999999,
            "velocity": 0.7874015748031497
          },
          {
            "duration": 0.12711799999999585,
            "durationTicks": 120,
            "midi": 60,
            "name": "C4",
            "ticks": 70560,
            "time": 75.93870999999999,
            "velocity": 0.7874015748031497
          },
          {
            "duration": 0.12711799999999585,
            "durationTicks": 120,
            "midi": 61,
            "name": "C#4",
            "ticks": 70560,
            "time": 75.93870999999999,
            "velocity": 0.7874015748031497
          },
          {
            "duration": 0.12711799999999585,
            "durationTicks": 120,
            "midi": 61,
            "name": "C#4",
            "ticks": 70880,
            "time": 76.27769133333332,
            "velocity": 0.7874015748031497
          },
          {
            "duration": 0.12820499999999413,
            "durationTicks": 120,
            "midi": 60,
            "name": "C4",
            "ticks": 71040,
            "time": 76.44718199999998,
            "velocity": 0.7874015748031497
          },
          {
            "duration": 0.12820499999999413,
            "durationTicks": 120,
            "midi": 61,
            "name": "C#4",
            "ticks": 71040,
            "time": 76.44718199999998,
            "velocity": 0.7874015748031497
          },
          {
            "duration": 0.12820500000000834,
            "durationTicks": 120,
            "midi": 60,
            "name": "C4",
            "ticks": 71840,
            "time": 77.30188199999998,
            "velocity": 0.7874015748031497
          },
          {
            "duration": 0.12820500000000834,
            "durationTicks": 120,
            "midi": 61,
            "name": "C#4",
            "ticks": 71840,
            "time": 77.30188199999998,
            "velocity": 0.7874015748031497
          },
          {
            "duration": 0.12820500000000834,
            "durationTicks": 120,
            "midi": 60,
            "name": "C4",
            "ticks": 72000,
            "time": 77.47282199999998,
            "velocity": 0.7874015748031497
          },
          {
            "duration": 0.12820500000000834,
            "durationTicks": 120,
            "midi": 61,
            "name": "C#4",
            "ticks": 72000,
            "time": 77.47282199999998,
            "velocity": 0.7874015748031497
          },
          {
            "duration": 0.12820499999999413,
            "durationTicks": 120,
            "midi": 60,
            "name": "C4",
            "ticks": 72800,
            "time": 78.32752199999999,
            "velocity": 0.7874015748031497
          },
          {
            "duration": 0.12820499999999413,
            "durationTicks": 120,
            "midi": 61,
            "name": "C#4",
            "ticks": 72800,
            "time": 78.32752199999999,
            "velocity": 0.7874015748031497
          },
          {
            "duration": 0.12711799999999585,
            "durationTicks": 120,
            "midi": 60,
            "name": "C4",
            "ticks": 72960,
            "time": 78.49846199999999,
            "velocity": 0.7874015748031497
          },
          {
            "duration": 0.12711799999999585,
            "durationTicks": 120,
            "midi": 61,
            "name": "C#4",
            "ticks": 72960,
            "time": 78.49846199999999,
            "velocity": 0.7874015748031497
          },
          {
            "duration": 0.12711799999999585,
            "durationTicks": 120,
            "midi": 60,
            "name": "C4",
            "ticks": 73760,
            "time": 79.34591533333332,
            "velocity": 0.7874015748031497
          },
          {
            "duration": 0.12711799999999585,
            "durationTicks": 120,
            "midi": 61,
            "name": "C#4",
            "ticks": 73760,
            "time": 79.34591533333332,
            "velocity": 0.7874015748031497
          },
          {
            "duration": 0.12711800000001006,
            "durationTicks": 120,
            "midi": 60,
            "name": "C4",
            "ticks": 73920,
            "time": 79.51540599999998,
            "velocity": 0.7874015748031497
          },
          {
            "duration": 0.12711800000001006,
            "durationTicks": 120,
            "midi": 61,
            "name": "C#4",
            "ticks": 73920,
            "time": 79.51540599999998,
            "velocity": 0.7874015748031497
          },
          {
            "duration": 0.12711799999999585,
            "durationTicks": 120,
            "midi": 60,
            "name": "C4",
            "ticks": 74240,
            "time": 79.85438733333332,
            "velocity": 0.7874015748031497
          },
          {
            "duration": 0.12711800000001006,
            "durationTicks": 120,
            "midi": 60,
            "name": "C4",
            "ticks": 74720,
            "time": 80.36285933333332,
            "velocity": 0.7874015748031497
          },
          {
            "duration": 0.12711800000001006,
            "durationTicks": 120,
            "midi": 61,
            "name": "C#4",
            "ticks": 74720,
            "time": 80.36285933333332,
            "velocity": 0.7874015748031497
          },
          {
            "duration": 0.12711799999999585,
            "durationTicks": 120,
            "midi": 60,
            "name": "C4",
            "ticks": 74880,
            "time": 80.53235,
            "velocity": 0.7874015748031497
          },
          {
            "duration": 0.12711799999999585,
            "durationTicks": 120,
            "midi": 61,
            "name": "C#4",
            "ticks": 74880,
            "time": 80.53235,
            "velocity": 0.7874015748031497
          },
          {
            "duration": 0.12711799999999585,
            "durationTicks": 120,
            "midi": 60,
            "name": "C4",
            "ticks": 75680,
            "time": 81.37980333333333,
            "velocity": 0.7874015748031497
          },
          {
            "duration": 0.12711799999999585,
            "durationTicks": 120,
            "midi": 61,
            "name": "C#4",
            "ticks": 75680,
            "time": 81.37980333333333,
            "velocity": 0.7874015748031497
          },
          {
            "duration": 0.12711799999999585,
            "durationTicks": 120,
            "midi": 60,
            "name": "C4",
            "ticks": 75840,
            "time": 81.54929399999999,
            "velocity": 0.7874015748031497
          },
          {
            "duration": 0.12711799999999585,
            "durationTicks": 120,
            "midi": 61,
            "name": "C#4",
            "ticks": 75840,
            "time": 81.54929399999999,
            "velocity": 0.7874015748031497
          },
          {
            "duration": 0.12711799999999585,
            "durationTicks": 120,
            "midi": 60,
            "name": "C4",
            "ticks": 76160,
            "time": 81.88827533333333,
            "velocity": 0.7874015748031497
          },
          {
            "duration": 0.12711799999999585,
            "durationTicks": 120,
            "midi": 61,
            "name": "C#4",
            "ticks": 76160,
            "time": 81.88827533333333,
            "velocity": 0.7874015748031497
          },
          {
            "duration": 0.12711799999999585,
            "durationTicks": 120,
            "midi": 60,
            "name": "C4",
            "ticks": 76640,
            "time": 82.39674733333332,
            "velocity": 0.7874015748031497
          },
          {
            "duration": 0.12711799999999585,
            "durationTicks": 120,
            "midi": 61,
            "name": "C#4",
            "ticks": 76640,
            "time": 82.39674733333332,
            "velocity": 0.7874015748031497
          },
          {
            "duration": 0.12711800000001006,
            "durationTicks": 120,
            "midi": 60,
            "name": "C4",
            "ticks": 76800,
            "time": 82.56623799999998,
            "velocity": 0.7874015748031497
          },
          {
            "duration": 0.12711800000001006,
            "durationTicks": 120,
            "midi": 61,
            "name": "C#4",
            "ticks": 76800,
            "time": 82.56623799999998,
            "velocity": 0.7874015748031497
          },
          {
            "duration": 0.12711799999999585,
            "durationTicks": 120,
            "midi": 60,
            "name": "C4",
            "ticks": 77280,
            "time": 83.07471,
            "velocity": 0.7874015748031497
          },
          {
            "duration": 0.12711799999999585,
            "durationTicks": 120,
            "midi": 61,
            "name": "C#4",
            "ticks": 77280,
            "time": 83.07471,
            "velocity": 0.7874015748031497
          },
          {
            "duration": 0.12711799999999585,
            "durationTicks": 120,
            "midi": 60,
            "name": "C4",
            "ticks": 77760,
            "time": 83.583182,
            "velocity": 0.7874015748031497
          },
          {
            "duration": 0.12711799999999585,
            "durationTicks": 120,
            "midi": 61,
            "name": "C#4",
            "ticks": 77760,
            "time": 83.583182,
            "velocity": 0.7874015748031497
          },
          {
            "duration": 0.12711799999999585,
            "durationTicks": 120,
            "midi": 60,
            "name": "C4",
            "ticks": 78240,
            "time": 84.09165399999999,
            "velocity": 0.7874015748031497
          },
          {
            "duration": 0.12711799999999585,
            "durationTicks": 120,
            "midi": 61,
            "name": "C#4",
            "ticks": 78240,
            "time": 84.09165399999999,
            "velocity": 0.7874015748031497
          },
          {
            "duration": 0.12295050000000174,
            "durationTicks": 120,
            "midi": 60,
            "name": "C4",
            "ticks": 79040,
            "time": 84.92799399999998,
            "velocity": 0.7874015748031497
          },
          {
            "duration": 0.12295050000000174,
            "durationTicks": 120,
            "midi": 61,
            "name": "C#4",
            "ticks": 79040,
            "time": 84.92799399999998,
            "velocity": 0.7874015748031497
          },
          {
            "duration": 0.12711799999999585,
            "durationTicks": 120,
            "midi": 60,
            "name": "C4",
            "ticks": 80640,
            "time": 86.56733399999999,
            "velocity": 0.7874015748031497
          },
          {
            "duration": 0.12711799999999585,
            "durationTicks": 120,
            "midi": 61,
            "name": "C#4",
            "ticks": 80640,
            "time": 86.56733399999999,
            "velocity": 0.7874015748031497
          },
          {
            "duration": 0.12711799999999585,
            "durationTicks": 120,
            "midi": 60,
            "name": "C4",
            "ticks": 81440,
            "time": 87.41478733333332,
            "velocity": 0.7874015748031497
          },
          {
            "duration": 0.12711799999999585,
            "durationTicks": 120,
            "midi": 61,
            "name": "C#4",
            "ticks": 81440,
            "time": 87.41478733333332,
            "velocity": 0.7874015748031497
          },
          {
            "duration": 0.12711800000001006,
            "durationTicks": 120,
            "midi": 60,
            "name": "C4",
            "ticks": 81600,
            "time": 87.58427799999998,
            "velocity": 0.7874015748031497
          },
          {
            "duration": 0.12711800000001006,
            "durationTicks": 120,
            "midi": 61,
            "name": "C#4",
            "ticks": 81600,
            "time": 87.58427799999998,
            "velocity": 0.7874015748031497
          },
          {
            "duration": 0.12711800000001006,
            "durationTicks": 120,
            "midi": 60,
            "name": "C4",
            "ticks": 82400,
            "time": 88.43173133333332,
            "velocity": 0.7874015748031497
          },
          {
            "duration": 0.12711800000001006,
            "durationTicks": 120,
            "midi": 61,
            "name": "C#4",
            "ticks": 82400,
            "time": 88.43173133333332,
            "velocity": 0.7874015748031497
          },
          {
            "duration": 0.12765874999999482,
            "durationTicks": 120,
            "midi": 60,
            "name": "C4",
            "ticks": 82560,
            "time": 88.60122199999999,
            "velocity": 0.7874015748031497
          },
          {
            "duration": 0.12765874999999482,
            "durationTicks": 120,
            "midi": 61,
            "name": "C#4",
            "ticks": 82560,
            "time": 88.60122199999999,
            "velocity": 0.7874015748031497
          },
          {
            "duration": 0.12765875000000904,
            "durationTicks": 120,
            "midi": 60,
            "name": "C4",
            "ticks": 83360,
            "time": 89.45228033333332,
            "velocity": 0.7874015748031497
          },
          {
            "duration": 0.12765875000000904,
            "durationTicks": 120,
            "midi": 61,
            "name": "C#4",
            "ticks": 83360,
            "time": 89.45228033333332,
            "velocity": 0.7874015748031497
          },
          {
            "duration": 0.12765874999999482,
            "durationTicks": 120,
            "midi": 60,
            "name": "C4",
            "ticks": 83520,
            "time": 89.622492,
            "velocity": 0.7874015748031497
          },
          {
            "duration": 0.12765874999999482,
            "durationTicks": 120,
            "midi": 61,
            "name": "C#4",
            "ticks": 83520,
            "time": 89.622492,
            "velocity": 0.7874015748031497
          },
          {
            "duration": 0.12765875000000904,
            "durationTicks": 120,
            "midi": 61,
            "name": "C#4",
            "ticks": 84000,
            "time": 90.13312699999999,
            "velocity": 0.7874015748031497
          },
          {
            "duration": 0.12765874999999482,
            "durationTicks": 120,
            "midi": 60,
            "name": "C4",
            "ticks": 84480,
            "time": 90.643762,
            "velocity": 0.7874015748031497
          },
          {
            "duration": 0.12765874999999482,
            "durationTicks": 120,
            "midi": 61,
            "name": "C#4",
            "ticks": 84480,
            "time": 90.643762,
            "velocity": 0.7874015748031497
          },
          {
            "duration": 0.12765875000000904,
            "durationTicks": 120,
            "midi": 60,
            "name": "C4",
            "ticks": 85280,
            "time": 91.49482033333332,
            "velocity": 0.7874015748031497
          },
          {
            "duration": 0.12765875000000904,
            "durationTicks": 120,
            "midi": 61,
            "name": "C#4",
            "ticks": 85280,
            "time": 91.49482033333332,
            "velocity": 0.7874015748031497
          },
          {
            "duration": 0.12765874999999482,
            "durationTicks": 120,
            "midi": 60,
            "name": "C4",
            "ticks": 85440,
            "time": 91.665032,
            "velocity": 0.7874015748031497
          },
          {
            "duration": 0.12765874999999482,
            "durationTicks": 120,
            "midi": 61,
            "name": "C#4",
            "ticks": 85440,
            "time": 91.665032,
            "velocity": 0.7874015748031497
          },
          {
            "duration": 0.12711799999999585,
            "durationTicks": 120,
            "midi": 60,
            "name": "C4",
            "ticks": 86400,
            "time": 92.686302,
            "velocity": 0.7874015748031497
          },
          {
            "duration": 0.12711799999999585,
            "durationTicks": 120,
            "midi": 61,
            "name": "C#4",
            "ticks": 86400,
            "time": 92.686302,
            "velocity": 0.7874015748031497
          },
          {
            "duration": 0.12711799999999585,
            "durationTicks": 120,
            "midi": 60,
            "name": "C4",
            "ticks": 87200,
            "time": 93.53375533333333,
            "velocity": 0.7874015748031497
          },
          {
            "duration": 0.12711799999999585,
            "durationTicks": 120,
            "midi": 61,
            "name": "C#4",
            "ticks": 87200,
            "time": 93.53375533333333,
            "velocity": 0.7874015748031497
          },
          {
            "duration": 0.12711800000001006,
            "durationTicks": 120,
            "midi": 60,
            "name": "C4",
            "ticks": 87360,
            "time": 93.703246,
            "velocity": 0.7874015748031497
          },
          {
            "duration": 0.12711800000001006,
            "durationTicks": 120,
            "midi": 61,
            "name": "C#4",
            "ticks": 87360,
            "time": 93.703246,
            "velocity": 0.7874015748031497
          },
          {
            "duration": 0.12711799999999585,
            "durationTicks": 120,
            "midi": 60,
            "name": "C4",
            "ticks": 87840,
            "time": 94.211718,
            "velocity": 0.7874015748031497
          },
          {
            "duration": 0.12711799999999585,
            "durationTicks": 120,
            "midi": 61,
            "name": "C#4",
            "ticks": 87840,
            "time": 94.211718,
            "velocity": 0.7874015748031497
          },
          {
            "duration": 0.12711800000001006,
            "durationTicks": 120,
            "midi": 60,
            "name": "C4",
            "ticks": 88160,
            "time": 94.55069933333333,
            "velocity": 0.7874015748031497
          },
          {
            "duration": 0.12711800000001006,
            "durationTicks": 120,
            "midi": 61,
            "name": "C#4",
            "ticks": 88160,
            "time": 94.55069933333333,
            "velocity": 0.7874015748031497
          },
          {
            "duration": 0.12931025000000318,
            "durationTicks": 120,
            "midi": 60,
            "name": "C4",
            "ticks": 88800,
            "time": 95.237431,
            "velocity": 0.7874015748031497
          },
          {
            "duration": 0.12931024999998897,
            "durationTicks": 120,
            "midi": 60,
            "name": "C4",
            "ticks": 89120,
            "time": 95.58225833333334,
            "velocity": 0.7874015748031497
          },
          {
            "duration": 0.12931024999998897,
            "durationTicks": 120,
            "midi": 60,
            "name": "C4",
            "ticks": 89600,
            "time": 96.09949933333334,
            "velocity": 0.7874015748031497
          },
          {
            "duration": 0.12931025000000318,
            "durationTicks": 120,
            "midi": 60,
            "name": "C4",
            "ticks": 89760,
            "time": 96.271913,
            "velocity": 0.7874015748031497
          },
          {
            "duration": 0.12931025000000318,
            "durationTicks": 120,
            "midi": 61,
            "name": "C#4",
            "ticks": 89760,
            "time": 96.271913,
            "velocity": 0.7874015748031497
          },
          {
            "duration": 0.12931024999998897,
            "durationTicks": 120,
            "midi": 60,
            "name": "C4",
            "ticks": 90080,
            "time": 96.61674033333334,
            "velocity": 0.7874015748031497
          },
          {
            "duration": 0.12931024999998897,
            "durationTicks": 120,
            "midi": 61,
            "name": "C#4",
            "ticks": 90080,
            "time": 96.61674033333334,
            "velocity": 0.7874015748031497
          },
          {
            "duration": 0.13043475000000626,
            "durationTicks": 120,
            "midi": 60,
            "name": "C4",
            "ticks": 90720,
            "time": 97.310893,
            "velocity": 0.7874015748031497
          },
          {
            "duration": 0.13043475000000626,
            "durationTicks": 120,
            "midi": 60,
            "name": "C4",
            "ticks": 91040,
            "time": 97.65871899999999,
            "velocity": 0.7874015748031497
          },
          {
            "duration": 0.13043474999999205,
            "durationTicks": 120,
            "midi": 60,
            "name": "C4",
            "ticks": 91520,
            "time": 98.180458,
            "velocity": 0.7874015748031497
          },
          {
            "duration": 0.13043474999999205,
            "durationTicks": 120,
            "midi": 60,
            "name": "C4",
            "ticks": 91680,
            "time": 98.354371,
            "velocity": 0.7874015748031497
          },
          {
            "duration": 0.13043474999999205,
            "durationTicks": 120,
            "midi": 61,
            "name": "C#4",
            "ticks": 91680,
            "time": 98.354371,
            "velocity": 0.7874015748031497
          },
          {
            "duration": 0.13043474999999205,
            "durationTicks": 120,
            "midi": 60,
            "name": "C4",
            "ticks": 92000,
            "time": 98.702197,
            "velocity": 0.7874015748031497
          },
          {
            "duration": 0.13043474999999205,
            "durationTicks": 120,
            "midi": 61,
            "name": "C#4",
            "ticks": 92000,
            "time": 98.702197,
            "velocity": 0.7874015748031497
          },
          {
            "duration": 0.13043474999999205,
            "durationTicks": 120,
            "midi": 61,
            "name": "C#4",
            "ticks": 97600,
            "time": 104.828676,
            "velocity": 0.7874015748031497
          },
          {
            "duration": 0.13043474999999205,
            "durationTicks": 120,
            "midi": 61,
            "name": "C#4",
            "ticks": 97760,
            "time": 105.002589,
            "velocity": 0.7874015748031497
          },
          {
            "duration": 0.12820499999999413,
            "durationTicks": 120,
            "midi": 60,
            "name": "C4",
            "ticks": 97920,
            "time": 105.176502,
            "velocity": 0.7874015748031497
          },
          {
            "duration": 0.12820499999999413,
            "durationTicks": 120,
            "midi": 61,
            "name": "C#4",
            "ticks": 97920,
            "time": 105.176502,
            "velocity": 0.7874015748031497
          },
          {
            "duration": 0.12604975000000707,
            "durationTicks": 120,
            "midi": 61,
            "name": "C#4",
            "ticks": 100800,
            "time": 108.23618,
            "velocity": 0.7874015748031497
          },
          {
            "duration": 0.12604975000000707,
            "durationTicks": 120,
            "midi": 60,
            "name": "C4",
            "ticks": 100960,
            "time": 108.40424633333333,
            "velocity": 0.7874015748031497
          },
          {
            "duration": 0.12604974999999286,
            "durationTicks": 120,
            "midi": 60,
            "name": "C4",
            "ticks": 101120,
            "time": 108.57231266666668,
            "velocity": 0.7874015748031497
          },
          {
            "duration": 0.12604974999999286,
            "durationTicks": 120,
            "midi": 61,
            "name": "C#4",
            "ticks": 101120,
            "time": 108.57231266666668,
            "velocity": 0.7874015748031497
          },
          {
            "duration": 0.12604975000000707,
            "durationTicks": 120,
            "midi": 60,
            "name": "C4",
            "ticks": 101440,
            "time": 108.90844533333333,
            "velocity": 0.7874015748031497
          },
          {
            "duration": 0.12604975000000707,
            "durationTicks": 120,
            "midi": 61,
            "name": "C#4",
            "ticks": 101440,
            "time": 108.90844533333333,
            "velocity": 0.7874015748031497
          },
          {
            "duration": 0.12604974999999286,
            "durationTicks": 120,
            "midi": 61,
            "name": "C#4",
            "ticks": 101600,
            "time": 109.07651166666668,
            "velocity": 0.7874015748031497
          },
          {
            "duration": 0.12875524999999755,
            "durationTicks": 120,
            "midi": 60,
            "name": "C4",
            "ticks": 101760,
            "time": 109.244578,
            "velocity": 0.7874015748031497
          },
          {
            "duration": 0.12875524999999755,
            "durationTicks": 120,
            "midi": 61,
            "name": "C#4",
            "ticks": 101760,
            "time": 109.244578,
            "velocity": 0.7874015748031497
          },
          {
            "duration": 0.12875524999999755,
            "durationTicks": 120,
            "midi": 61,
            "name": "C#4",
            "ticks": 102240,
            "time": 109.75959900000001,
            "velocity": 0.7874015748031497
          },
          {
            "duration": 0.12875525000001176,
            "durationTicks": 120,
            "midi": 60,
            "name": "C4",
            "ticks": 102720,
            "time": 110.27462,
            "velocity": 0.7874015748031497
          },
          {
            "duration": 0.12875525000001176,
            "durationTicks": 120,
            "midi": 61,
            "name": "C#4",
            "ticks": 102720,
            "time": 110.27462,
            "velocity": 0.7874015748031497
          },
          {
            "duration": 0.12875524999999755,
            "durationTicks": 120,
            "midi": 61,
            "name": "C#4",
            "ticks": 103200,
            "time": 110.789641,
            "velocity": 0.7874015748031497
          },
          {
            "duration": 0.12875524999999755,
            "durationTicks": 120,
            "midi": 60,
            "name": "C4",
            "ticks": 103680,
            "time": 111.30466200000001,
            "velocity": 0.7874015748031497
          },
          {
            "duration": 0.12875524999999755,
            "durationTicks": 120,
            "midi": 61,
            "name": "C#4",
            "ticks": 103680,
            "time": 111.30466200000001,
            "velocity": 0.7874015748031497
          },
          {
            "duration": 0.12875525000001176,
            "durationTicks": 120,
            "midi": 61,
            "name": "C#4",
            "ticks": 104160,
            "time": 111.819683,
            "velocity": 0.7874015748031497
          },
          {
            "duration": 0.12875524999999755,
            "durationTicks": 120,
            "midi": 60,
            "name": "C4",
            "ticks": 104640,
            "time": 112.334704,
            "velocity": 0.7874015748031497
          },
          {
            "duration": 0.12875524999999755,
            "durationTicks": 120,
            "midi": 61,
            "name": "C#4",
            "ticks": 104640,
            "time": 112.334704,
            "velocity": 0.7874015748031497
          },
          {
            "duration": 0.12875524999999755,
            "durationTicks": 120,
            "midi": 61,
            "name": "C#4",
            "ticks": 105120,
            "time": 112.849725,
            "velocity": 0.7874015748031497
          },
          {
            "duration": 0.12875525000001176,
            "durationTicks": 120,
            "midi": 60,
            "name": "C4",
            "ticks": 105600,
            "time": 113.364746,
            "velocity": 0.7874015748031497
          },
          {
            "duration": 0.12875525000001176,
            "durationTicks": 120,
            "midi": 61,
            "name": "C#4",
            "ticks": 105600,
            "time": 113.364746,
            "velocity": 0.7874015748031497
          },
          {
            "duration": 0.12875524999999755,
            "durationTicks": 120,
            "midi": 61,
            "name": "C#4",
            "ticks": 106080,
            "time": 113.879767,
            "velocity": 0.7874015748031497
          },
          {
            "duration": 0.12875524999999755,
            "durationTicks": 120,
            "midi": 60,
            "name": "C4",
            "ticks": 106560,
            "time": 114.394788,
            "velocity": 0.7874015748031497
          },
          {
            "duration": 0.12875524999999755,
            "durationTicks": 120,
            "midi": 61,
            "name": "C#4",
            "ticks": 106560,
            "time": 114.394788,
            "velocity": 0.7874015748031497
          },
          {
            "duration": 0.12875524999999755,
            "durationTicks": 120,
            "midi": 61,
            "name": "C#4",
            "ticks": 107040,
            "time": 114.90980900000001,
            "velocity": 0.7874015748031497
          },
          {
            "duration": 0.12875524999999755,
            "durationTicks": 120,
            "midi": 60,
            "name": "C4",
            "ticks": 107360,
            "time": 115.25315633333334,
            "velocity": 0.7874015748031497
          },
          {
            "duration": 0.12875524999999755,
            "durationTicks": 120,
            "midi": 61,
            "name": "C#4",
            "ticks": 107360,
            "time": 115.25315633333334,
            "velocity": 0.7874015748031497
          },
          {
            "duration": 0.12765874999999482,
            "durationTicks": 120,
            "midi": 60,
            "name": "C4",
            "ticks": 107520,
            "time": 115.42483,
            "velocity": 0.7874015748031497
          },
          {
            "duration": 0.12765874999999482,
            "durationTicks": 120,
            "midi": 61,
            "name": "C#4",
            "ticks": 107520,
            "time": 115.42483,
            "velocity": 0.7874015748031497
          },
          {
            "duration": 0.12765874999999482,
            "durationTicks": 120,
            "midi": 61,
            "name": "C#4",
            "ticks": 107840,
            "time": 115.76525333333333,
            "velocity": 0.7874015748031497
          },
          {
            "duration": 0.12765875000000904,
            "durationTicks": 120,
            "midi": 61,
            "name": "C#4",
            "ticks": 108000,
            "time": 115.935465,
            "velocity": 0.7874015748031497
          },
          {
            "duration": 0.12765875000000904,
            "durationTicks": 120,
            "midi": 60,
            "name": "C4",
            "ticks": 108320,
            "time": 116.27588833333333,
            "velocity": 0.7874015748031497
          },
          {
            "duration": 0.12765875000000904,
            "durationTicks": 120,
            "midi": 61,
            "name": "C#4",
            "ticks": 108320,
            "time": 116.27588833333333,
            "velocity": 0.7874015748031497
          },
          {
            "duration": 0.12765874999999482,
            "durationTicks": 120,
            "midi": 60,
            "name": "C4",
            "ticks": 108480,
            "time": 116.4461,
            "velocity": 0.7874015748031497
          },
          {
            "duration": 0.12765874999999482,
            "durationTicks": 120,
            "midi": 61,
            "name": "C#4",
            "ticks": 108480,
            "time": 116.4461,
            "velocity": 0.7874015748031497
          },
          {
            "duration": 0.12658150000000035,
            "durationTicks": 120,
            "midi": 60,
            "name": "C4",
            "ticks": 110400,
            "time": 118.48864,
            "velocity": 0.7874015748031497
          },
          {
            "duration": 0.12658150000000035,
            "durationTicks": 120,
            "midi": 61,
            "name": "C#4",
            "ticks": 110400,
            "time": 118.48864,
            "velocity": 0.7874015748031497
          },
          {
            "duration": 0.12658150000000035,
            "durationTicks": 120,
            "midi": 60,
            "name": "C4",
            "ticks": 110720,
            "time": 118.82619066666668,
            "velocity": 0.7874015748031497
          },
          {
            "duration": 0.12658150000000035,
            "durationTicks": 120,
            "midi": 61,
            "name": "C#4",
            "ticks": 110720,
            "time": 118.82619066666668,
            "velocity": 0.7874015748031497
          },
          {
            "duration": 0.12658150000000035,
            "durationTicks": 120,
            "midi": 61,
            "name": "C#4",
            "ticks": 110880,
            "time": 118.994966,
            "velocity": 0.7874015748031497
          },
          {
            "duration": 0.12658150000000035,
            "durationTicks": 120,
            "midi": 60,
            "name": "C4",
            "ticks": 111360,
            "time": 119.501292,
            "velocity": 0.7874015748031497
          },
          {
            "duration": 0.12658150000000035,
            "durationTicks": 120,
            "midi": 61,
            "name": "C#4",
            "ticks": 111360,
            "time": 119.501292,
            "velocity": 0.7874015748031497
          },
          {
            "duration": 0.12658150000000035,
            "durationTicks": 120,
            "midi": 60,
            "name": "C4",
            "ticks": 111680,
            "time": 119.83884266666666,
            "velocity": 0.7874015748031497
          },
          {
            "duration": 0.12658150000000035,
            "durationTicks": 120,
            "midi": 61,
            "name": "C#4",
            "ticks": 111680,
            "time": 119.83884266666666,
            "velocity": 0.7874015748031497
          },
          {
            "duration": 0.12658150000000035,
            "durationTicks": 120,
            "midi": 61,
            "name": "C#4",
            "ticks": 111840,
            "time": 120.00761800000001,
            "velocity": 0.7874015748031497
          },
          {
            "duration": 0.12658150000000035,
            "durationTicks": 120,
            "midi": 61,
            "name": "C#4",
            "ticks": 112160,
            "time": 120.34516866666667,
            "velocity": 0.7874015748031497
          },
          {
            "duration": 0.12875524999999755,
            "durationTicks": 120,
            "midi": 60,
            "name": "C4",
            "ticks": 112320,
            "time": 120.51394400000001,
            "velocity": 0.7874015748031497
          },
          {
            "duration": 0.12875524999999755,
            "durationTicks": 120,
            "midi": 61,
            "name": "C#4",
            "ticks": 112320,
            "time": 120.51394400000001,
            "velocity": 0.7874015748031497
          },
          {
            "duration": 0.12986949999999808,
            "durationTicks": 120,
            "midi": 60,
            "name": "C4",
            "ticks": 114240,
            "time": 122.57402800000001,
            "velocity": 0.7874015748031497
          },
          {
            "duration": 0.12986949999999808,
            "durationTicks": 120,
            "midi": 61,
            "name": "C#4",
            "ticks": 114240,
            "time": 122.57402800000001,
            "velocity": 0.7874015748031497
          },
          {
            "duration": 0.12986949999999808,
            "durationTicks": 120,
            "midi": 61,
            "name": "C#4",
            "ticks": 114720,
            "time": 123.09350600000002,
            "velocity": 0.7874015748031497
          },
          {
            "duration": 0.12986949999999808,
            "durationTicks": 120,
            "midi": 60,
            "name": "C4",
            "ticks": 115040,
            "time": 123.43982466666668,
            "velocity": 0.7874015748031497
          },
          {
            "duration": 0.12986949999999808,
            "durationTicks": 120,
            "midi": 61,
            "name": "C#4",
            "ticks": 115040,
            "time": 123.43982466666668,
            "velocity": 0.7874015748031497
          },
          {
            "duration": 0.12986949999999808,
            "durationTicks": 120,
            "midi": 60,
            "name": "C4",
            "ticks": 115200,
            "time": 123.61298400000001,
            "velocity": 0.7874015748031497
          },
          {
            "duration": 0.12986949999999808,
            "durationTicks": 120,
            "midi": 61,
            "name": "C#4",
            "ticks": 115200,
            "time": 123.61298400000001,
            "velocity": 0.7874015748031497
          },
          {
            "duration": 0.1298695000000123,
            "durationTicks": 120,
            "midi": 60,
            "name": "C4",
            "ticks": 115520,
            "time": 123.95930266666667,
            "velocity": 0.7874015748031497
          },
          {
            "duration": 0.12986949999999808,
            "durationTicks": 120,
            "midi": 61,
            "name": "C#4",
            "ticks": 115840,
            "time": 124.30562133333335,
            "velocity": 0.7874015748031497
          },
          {
            "duration": 0.12986949999999808,
            "durationTicks": 120,
            "midi": 61,
            "name": "C#4",
            "ticks": 116000,
            "time": 124.47878066666668,
            "velocity": 0.7874015748031497
          },
          {
            "duration": 0.12875524999999755,
            "durationTicks": 120,
            "midi": 60,
            "name": "C4",
            "ticks": 116160,
            "time": 124.65194000000001,
            "velocity": 0.7874015748031497
          },
          {
            "duration": 0.12875524999999755,
            "durationTicks": 120,
            "midi": 61,
            "name": "C#4",
            "ticks": 116160,
            "time": 124.65194000000001,
            "velocity": 0.7874015748031497
          },
          {
            "duration": 0.12875524999999755,
            "durationTicks": 120,
            "midi": 61,
            "name": "C#4",
            "ticks": 116640,
            "time": 125.16696100000001,
            "velocity": 0.7874015748031497
          },
          {
            "duration": 0.12875524999999755,
            "durationTicks": 120,
            "midi": 60,
            "name": "C4",
            "ticks": 116960,
            "time": 125.51030833333334,
            "velocity": 0.7874015748031497
          },
          {
            "duration": 0.12875524999999755,
            "durationTicks": 120,
            "midi": 61,
            "name": "C#4",
            "ticks": 116960,
            "time": 125.51030833333334,
            "velocity": 0.7874015748031497
          },
          {
            "duration": 0.12875525000001176,
            "durationTicks": 120,
            "midi": 60,
            "name": "C4",
            "ticks": 117120,
            "time": 125.681982,
            "velocity": 0.7874015748031497
          },
          {
            "duration": 0.12875525000001176,
            "durationTicks": 120,
            "midi": 61,
            "name": "C#4",
            "ticks": 117120,
            "time": 125.681982,
            "velocity": 0.7874015748031497
          },
          {
            "duration": 0.12658150000000035,
            "durationTicks": 120,
            "midi": 60,
            "name": "C4",
            "ticks": 118080,
            "time": 126.71202400000001,
            "velocity": 0.7874015748031497
          },
          {
            "duration": 0.12658150000000035,
            "durationTicks": 120,
            "midi": 61,
            "name": "C#4",
            "ticks": 118080,
            "time": 126.71202400000001,
            "velocity": 0.7874015748031497
          },
          {
            "duration": 0.12658150000000035,
            "durationTicks": 120,
            "midi": 61,
            "name": "C#4",
            "ticks": 118400,
            "time": 127.04957466666669,
            "velocity": 0.7874015748031497
          },
          {
            "duration": 0.12658150000000035,
            "durationTicks": 120,
            "midi": 61,
            "name": "C#4",
            "ticks": 118720,
            "time": 127.38712533333334,
            "velocity": 0.7874015748031497
          },
          {
            "duration": 0.12658149999998614,
            "durationTicks": 120,
            "midi": 60,
            "name": "C4",
            "ticks": 118880,
            "time": 127.55590066666669,
            "velocity": 0.7874015748031497
          },
          {
            "duration": 0.12658149999998614,
            "durationTicks": 120,
            "midi": 61,
            "name": "C#4",
            "ticks": 118880,
            "time": 127.55590066666669,
            "velocity": 0.7874015748031497
          },
          {
            "duration": 0.12658150000000035,
            "durationTicks": 120,
            "midi": 60,
            "name": "C4",
            "ticks": 119040,
            "time": 127.72467600000002,
            "velocity": 0.7874015748031497
          },
          {
            "duration": 0.12658150000000035,
            "durationTicks": 120,
            "midi": 61,
            "name": "C#4",
            "ticks": 119040,
            "time": 127.72467600000002,
            "velocity": 0.7874015748031497
          },
          {
            "duration": 0.12658149999998614,
            "durationTicks": 120,
            "midi": 60,
            "name": "C4",
            "ticks": 119359,
            "time": 128.06117182083335,
            "velocity": 0.7874015748031497
          },
          {
            "duration": 0.12658149999998614,
            "durationTicks": 120,
            "midi": 60,
            "name": "C4",
            "ticks": 120000,
            "time": 128.73732800000002,
            "velocity": 0.7874015748031497
          },
          {
            "duration": 0.12658149999998614,
            "durationTicks": 120,
            "midi": 61,
            "name": "C#4",
            "ticks": 120000,
            "time": 128.73732800000002,
            "velocity": 0.7874015748031497
          },
          {
            "duration": 0.12658149999998614,
            "durationTicks": 120,
            "midi": 61,
            "name": "C#4",
            "ticks": 120319,
            "time": 129.07382382083335,
            "velocity": 0.7874015748031497
          },
          {
            "duration": 0.12658149999998614,
            "durationTicks": 120,
            "midi": 61,
            "name": "C#4",
            "ticks": 120480,
            "time": 129.24365400000002,
            "velocity": 0.7874015748031497
          },
          {
            "duration": 0.12658149999998614,
            "durationTicks": 120,
            "midi": 61,
            "name": "C#4",
            "ticks": 120638,
            "time": 129.4103196416667,
            "velocity": 0.7874015748031497
          },
          {
            "duration": 0.12658149999998614,
            "durationTicks": 120,
            "midi": 60,
            "name": "C4",
            "ticks": 120799,
            "time": 129.58014982083336,
            "velocity": 0.7874015748031497
          },
          {
            "duration": 0.12658149999998614,
            "durationTicks": 120,
            "midi": 61,
            "name": "C#4",
            "ticks": 120799,
            "time": 129.58014982083336,
            "velocity": 0.7874015748031497
          },
          {
            "duration": 0.12658149999998614,
            "durationTicks": 120,
            "midi": 60,
            "name": "C4",
            "ticks": 120960,
            "time": 129.74998000000002,
            "velocity": 0.7874015748031497
          },
          {
            "duration": 0.12658149999998614,
            "durationTicks": 120,
            "midi": 61,
            "name": "C#4",
            "ticks": 120960,
            "time": 129.74998000000002,
            "velocity": 0.7874015748031497
          },
          {
            "duration": 0.12658149999998614,
            "durationTicks": 120,
            "midi": 60,
            "name": "C4",
            "ticks": 121279,
            "time": 130.08647582083336,
            "velocity": 0.7874015748031497
          },
          {
            "duration": 0.12658149999998614,
            "durationTicks": 120,
            "midi": 60,
            "name": "C4",
            "ticks": 121759,
            "time": 130.59280182083336,
            "velocity": 0.7874015748031497
          },
          {
            "duration": 0.12658149999998614,
            "durationTicks": 120,
            "midi": 61,
            "name": "C#4",
            "ticks": 121759,
            "time": 130.59280182083336,
            "velocity": 0.7874015748031497
          },
          {
            "duration": 0.12604974999999286,
            "durationTicks": 120,
            "midi": 60,
            "name": "C4",
            "ticks": 121920,
            "time": 130.76263200000002,
            "velocity": 0.7874015748031497
          },
          {
            "duration": 0.12604974999999286,
            "durationTicks": 120,
            "midi": 61,
            "name": "C#4",
            "ticks": 121920,
            "time": 130.76263200000002,
            "velocity": 0.7874015748031497
          },
          {
            "duration": 0.12604974999999286,
            "durationTicks": 120,
            "midi": 61,
            "name": "C#4",
            "ticks": 122400,
            "time": 131.26683100000002,
            "velocity": 0.7874015748031497
          },
          {
            "duration": 0.12604974999999286,
            "durationTicks": 120,
            "midi": 61,
            "name": "C#4",
            "ticks": 122719,
            "time": 131.60191325208336,
            "velocity": 0.7874015748031497
          },
          {
            "duration": 0.12604974999999286,
            "durationTicks": 120,
            "midi": 60,
            "name": "C4",
            "ticks": 122880,
            "time": 131.77103000000002,
            "velocity": 0.7874015748031497
          },
          {
            "duration": 0.12604974999999286,
            "durationTicks": 120,
            "midi": 61,
            "name": "C#4",
            "ticks": 122880,
            "time": 131.77103000000002,
            "velocity": 0.7874015748031497
          },
          {
            "duration": 0.12604974999999286,
            "durationTicks": 120,
            "midi": 60,
            "name": "C4",
            "ticks": 123360,
            "time": 132.27522900000002,
            "velocity": 0.7874015748031497
          },
          {
            "duration": 0.12604974999999286,
            "durationTicks": 120,
            "midi": 61,
            "name": "C#4",
            "ticks": 123360,
            "time": 132.27522900000002,
            "velocity": 0.7874015748031497
          },
          {
            "duration": 0.125,
            "durationTicks": 120,
            "midi": 60,
            "name": "C4",
            "ticks": 123840,
            "time": 132.77942800000002,
            "velocity": 0.7874015748031497
          },
          {
            "duration": 0.125,
            "durationTicks": 120,
            "midi": 61,
            "name": "C#4",
            "ticks": 123840,
            "time": 132.77942800000002,
            "velocity": 0.7874015748031497
          },
          {
            "duration": 0.125,
            "durationTicks": 120,
            "midi": 61,
            "name": "C#4",
            "ticks": 124800,
            "time": 133.77942800000002,
            "velocity": 0.7874015748031497
          },
          {
            "duration": 0.125,
            "durationTicks": 120,
            "midi": 61,
            "name": "C#4",
            "ticks": 124959,
            "time": 133.94505300000003,
            "velocity": 0.7874015748031497
          },
          {
            "duration": 0.125,
            "durationTicks": 120,
            "midi": 61,
            "name": "C#4",
            "ticks": 125120,
            "time": 134.11276133333337,
            "velocity": 0.7874015748031497
          },
          {
            "duration": 0.125,
            "durationTicks": 120,
            "midi": 61,
            "name": "C#4",
            "ticks": 125280,
            "time": 134.27942800000002,
            "velocity": 0.7874015748031497
          },
          {
            "duration": 0.125,
            "durationTicks": 120,
            "midi": 61,
            "name": "C#4",
            "ticks": 125439,
            "time": 134.44505300000003,
            "velocity": 0.7874015748031497
          },
          {
            "duration": 0.125,
            "durationTicks": 120,
            "midi": 61,
            "name": "C#4",
            "ticks": 125600,
            "time": 134.61276133333337,
            "velocity": 0.7874015748031497
          },
          {
            "duration": 0.125,
            "durationTicks": 120,
            "midi": 60,
            "name": "C4",
            "ticks": 125760,
            "time": 134.77942800000002,
            "velocity": 0.7874015748031497
          },
          {
            "duration": 0.125,
            "durationTicks": 120,
            "midi": 61,
            "name": "C#4",
            "ticks": 125760,
            "time": 134.77942800000002,
            "velocity": 0.7874015748031497
          },
          {
            "duration": 0.125,
            "durationTicks": 120,
            "midi": 61,
            "name": "C#4",
            "ticks": 126720,
            "time": 135.77942800000002,
            "velocity": 0.7874015748031497
          },
          {
            "duration": 0.125,
            "durationTicks": 120,
            "midi": 61,
            "name": "C#4",
            "ticks": 126879,
            "time": 135.94505300000003,
            "velocity": 0.7874015748031497
          },
          {
            "duration": 0.125,
            "durationTicks": 120,
            "midi": 61,
            "name": "C#4",
            "ticks": 127040,
            "time": 136.11276133333337,
            "velocity": 0.7874015748031497
          },
          {
            "duration": 0.125,
            "durationTicks": 120,
            "midi": 61,
            "name": "C#4",
            "ticks": 127200,
            "time": 136.27942800000002,
            "velocity": 0.7874015748031497
          },
          {
            "duration": 0.125,
            "durationTicks": 120,
            "midi": 61,
            "name": "C#4",
            "ticks": 127359,
            "time": 136.44505300000003,
            "velocity": 0.7874015748031497
          },
          {
            "duration": 0.125,
            "durationTicks": 120,
            "midi": 61,
            "name": "C#4",
            "ticks": 127520,
            "time": 136.61276133333337,
            "velocity": 0.7874015748031497
          },
          {
            "duration": 0.125,
            "durationTicks": 120,
            "midi": 60,
            "name": "C4",
            "ticks": 128319,
            "time": 137.44505300000003,
            "velocity": 0.7874015748031497
          },
          {
            "duration": 0.12875525000001176,
            "durationTicks": 120,
            "midi": 60,
            "name": "C4",
            "ticks": 128640,
            "time": 137.77942800000002,
            "velocity": 0.7874015748031497
          },
          {
            "duration": 0.12875525000001176,
            "durationTicks": 120,
            "midi": 61,
            "name": "C#4",
            "ticks": 128640,
            "time": 137.77942800000002,
            "velocity": 0.7874015748031497
          },
          {
            "duration": 0.12875525000001176,
            "durationTicks": 120,
            "midi": 61,
            "name": "C#4",
            "ticks": 129120,
            "time": 138.29444900000001,
            "velocity": 0.7874015748031497
          },
          {
            "duration": 0.12875525000001176,
            "durationTicks": 120,
            "midi": 60,
            "name": "C4",
            "ticks": 129439,
            "time": 138.6367233729167,
            "velocity": 0.7874015748031497
          },
          {
            "duration": 0.12875525000001176,
            "durationTicks": 120,
            "midi": 61,
            "name": "C#4",
            "ticks": 129439,
            "time": 138.6367233729167,
            "velocity": 0.7874015748031497
          },
          {
            "duration": 0.12875524999998333,
            "durationTicks": 120,
            "midi": 60,
            "name": "C4",
            "ticks": 129600,
            "time": 138.80947000000003,
            "velocity": 0.7874015748031497
          },
          {
            "duration": 0.12875524999998333,
            "durationTicks": 120,
            "midi": 61,
            "name": "C#4",
            "ticks": 129600,
            "time": 138.80947000000003,
            "velocity": 0.7874015748031497
          },
          {
            "duration": 0.12875525000001176,
            "durationTicks": 120,
            "midi": 61,
            "name": "C#4",
            "ticks": 130080,
            "time": 139.32449100000002,
            "velocity": 0.7874015748031497
          },
          {
            "duration": 0.12875524999998333,
            "durationTicks": 120,
            "midi": 60,
            "name": "C4",
            "ticks": 130399,
            "time": 139.6667653729167,
            "velocity": 0.7874015748031497
          },
          {
            "duration": 0.12711799999999585,
            "durationTicks": 120,
            "midi": 60,
            "name": "C4",
            "ticks": 130560,
            "time": 139.839512,
            "velocity": 0.7874015748031497
          },
          {
            "duration": 0.12711799999999585,
            "durationTicks": 120,
            "midi": 61,
            "name": "C#4",
            "ticks": 130560,
            "time": 139.839512,
            "velocity": 0.7874015748031497
          },
          {
            "duration": 0.12711799999999585,
            "durationTicks": 120,
            "midi": 60,
            "name": "C4",
            "ticks": 131360,
            "time": 140.68696533333335,
            "velocity": 0.7874015748031497
          },
          {
            "duration": 0.12711799999999585,
            "durationTicks": 120,
            "midi": 61,
            "name": "C#4",
            "ticks": 131360,
            "time": 140.68696533333335,
            "velocity": 0.7874015748031497
          },
          {
            "duration": 0.12711799999999585,
            "durationTicks": 120,
            "midi": 60,
            "name": "C4",
            "ticks": 131520,
            "time": 140.856456,
            "velocity": 0.7874015748031497
          },
          {
            "duration": 0.12711799999999585,
            "durationTicks": 120,
            "midi": 61,
            "name": "C#4",
            "ticks": 131520,
            "time": 140.856456,
            "velocity": 0.7874015748031497
          },
          {
            "duration": 0.12711799999999585,
            "durationTicks": 120,
            "midi": 60,
            "name": "C4",
            "ticks": 131840,
            "time": 141.19543733333336,
            "velocity": 0.7874015748031497
          },
          {
            "duration": 0.12711799999999585,
            "durationTicks": 120,
            "midi": 61,
            "name": "C#4",
            "ticks": 132320,
            "time": 141.70390933333334,
            "velocity": 0.7874015748031497
          },
          {
            "duration": 0.12711799999999585,
            "durationTicks": 120,
            "midi": 60,
            "name": "C4",
            "ticks": 132480,
            "time": 141.8734,
            "velocity": 0.7874015748031497
          },
          {
            "duration": 0.12711799999999585,
            "durationTicks": 120,
            "midi": 61,
            "name": "C#4",
            "ticks": 132480,
            "time": 141.8734,
            "velocity": 0.7874015748031497
          },
          {
            "duration": 0.12711799999999585,
            "durationTicks": 120,
            "midi": 60,
            "name": "C4",
            "ticks": 133280,
            "time": 142.72085333333334,
            "velocity": 0.7874015748031497
          },
          {
            "duration": 0.12711799999999585,
            "durationTicks": 120,
            "midi": 61,
            "name": "C#4",
            "ticks": 133280,
            "time": 142.72085333333334,
            "velocity": 0.7874015748031497
          },
          {
            "duration": 0.12711799999999585,
            "durationTicks": 120,
            "midi": 60,
            "name": "C4",
            "ticks": 133440,
            "time": 142.89034400000003,
            "velocity": 0.7874015748031497
          },
          {
            "duration": 0.12711799999999585,
            "durationTicks": 120,
            "midi": 61,
            "name": "C#4",
            "ticks": 133440,
            "time": 142.89034400000003,
            "velocity": 0.7874015748031497
          },
          {
            "duration": 0.12711799999999585,
            "durationTicks": 120,
            "midi": 60,
            "name": "C4",
            "ticks": 133760,
            "time": 143.22932533333335,
            "velocity": 0.7874015748031497
          },
          {
            "duration": 0.12711799999999585,
            "durationTicks": 120,
            "midi": 61,
            "name": "C#4",
            "ticks": 133920,
            "time": 143.398816,
            "velocity": 0.7874015748031497
          },
          {
            "duration": 0.12552299999998695,
            "durationTicks": 120,
            "midi": 60,
            "name": "C4",
            "ticks": 134400,
            "time": 143.90728800000002,
            "velocity": 0.7874015748031497
          },
          {
            "duration": 0.12552299999998695,
            "durationTicks": 120,
            "midi": 61,
            "name": "C#4",
            "ticks": 134400,
            "time": 143.90728800000002,
            "velocity": 0.7874015748031497
          },
          {
            "duration": 0.12552299999998695,
            "durationTicks": 120,
            "midi": 60,
            "name": "C4",
            "ticks": 134880,
            "time": 144.40938000000003,
            "velocity": 0.7874015748031497
          },
          {
            "duration": 0.12552299999998695,
            "durationTicks": 120,
            "midi": 61,
            "name": "C#4",
            "ticks": 134880,
            "time": 144.40938000000003,
            "velocity": 0.7874015748031497
          },
          {
            "duration": 0.12552299999998695,
            "durationTicks": 120,
            "midi": 60,
            "name": "C4",
            "ticks": 135360,
            "time": 144.91147200000003,
            "velocity": 0.7874015748031497
          },
          {
            "duration": 0.12552299999998695,
            "durationTicks": 120,
            "midi": 61,
            "name": "C#4",
            "ticks": 135360,
            "time": 144.91147200000003,
            "velocity": 0.7874015748031497
          },
          {
            "duration": 0.12552299999998695,
            "durationTicks": 120,
            "midi": 60,
            "name": "C4",
            "ticks": 135840,
            "time": 145.41356400000004,
            "velocity": 0.7874015748031497
          },
          {
            "duration": 0.12552299999998695,
            "durationTicks": 120,
            "midi": 61,
            "name": "C#4",
            "ticks": 135840,
            "time": 145.41356400000004,
            "velocity": 0.7874015748031497
          },
          {
            "duration": 0.12396674999999391,
            "durationTicks": 120,
            "midi": 60,
            "name": "C4",
            "ticks": 136640,
            "time": 146.24623400000002,
            "velocity": 0.7874015748031497
          },
          {
            "duration": 0.12396674999999391,
            "durationTicks": 120,
            "midi": 61,
            "name": "C#4",
            "ticks": 136640,
            "time": 146.24623400000002,
            "velocity": 0.7874015748031497
          },
          {
            "duration": 0.12658149999998614,
            "durationTicks": 120,
            "midi": 60,
            "name": "C4",
            "ticks": 138240,
            "time": 147.899124,
            "velocity": 0.7874015748031497
          },
          {
            "duration": 0.12658149999998614,
            "durationTicks": 120,
            "midi": 61,
            "name": "C#4",
            "ticks": 138240,
            "time": 147.899124,
            "velocity": 0.7874015748031497
          },
          {
            "duration": 0.12658150000001456,
            "durationTicks": 120,
            "midi": 60,
            "name": "C4",
            "ticks": 139040,
            "time": 148.74300066666666,
            "velocity": 0.7874015748031497
          },
          {
            "duration": 0.12658150000001456,
            "durationTicks": 120,
            "midi": 61,
            "name": "C#4",
            "ticks": 139040,
            "time": 148.74300066666666,
            "velocity": 0.7874015748031497
          },
          {
            "duration": 0.12658149999998614,
            "durationTicks": 120,
            "midi": 60,
            "name": "C4",
            "ticks": 139200,
            "time": 148.911776,
            "velocity": 0.7874015748031497
          },
          {
            "duration": 0.12658149999998614,
            "durationTicks": 120,
            "midi": 61,
            "name": "C#4",
            "ticks": 139200,
            "time": 148.911776,
            "velocity": 0.7874015748031497
          },
          {
            "duration": 0.12658150000001456,
            "durationTicks": 120,
            "midi": 60,
            "name": "C4",
            "ticks": 139520,
            "time": 149.24932666666666,
            "velocity": 0.7874015748031497
          },
          {
            "duration": 0.12658149999998614,
            "durationTicks": 120,
            "midi": 60,
            "name": "C4",
            "ticks": 140160,
            "time": 149.924428,
            "velocity": 0.7874015748031497
          },
          {
            "duration": 0.12658149999998614,
            "durationTicks": 120,
            "midi": 61,
            "name": "C#4",
            "ticks": 140160,
            "time": 149.924428,
            "velocity": 0.7874015748031497
          },
          {
            "duration": 0.12658150000001456,
            "durationTicks": 120,
            "midi": 60,
            "name": "C4",
            "ticks": 140960,
            "time": 150.76830466666667,
            "velocity": 0.7874015748031497
          },
          {
            "duration": 0.12658150000001456,
            "durationTicks": 120,
            "midi": 61,
            "name": "C#4",
            "ticks": 140960,
            "time": 150.76830466666667,
            "velocity": 0.7874015748031497
          },
          {
            "duration": 0.12658149999998614,
            "durationTicks": 120,
            "midi": 60,
            "name": "C4",
            "ticks": 141120,
            "time": 150.93708,
            "velocity": 0.7874015748031497
          },
          {
            "duration": 0.12658149999998614,
            "durationTicks": 120,
            "midi": 61,
            "name": "C#4",
            "ticks": 141120,
            "time": 150.93708,
            "velocity": 0.7874015748031497
          },
          {
            "duration": 0.12658150000001456,
            "durationTicks": 120,
            "midi": 60,
            "name": "C4",
            "ticks": 141440,
            "time": 151.27463066666667,
            "velocity": 0.7874015748031497
          },
          {
            "duration": 0.12396674999999391,
            "durationTicks": 120,
            "midi": 60,
            "name": "C4",
            "ticks": 142400,
            "time": 152.28031000000001,
            "velocity": 0.7874015748031497
          },
          {
            "duration": 0.12396674999999391,
            "durationTicks": 120,
            "midi": 61,
            "name": "C#4",
            "ticks": 142400,
            "time": 152.28031000000001,
            "velocity": 0.7874015748031497
          },
          {
            "duration": 0.12552299999998695,
            "durationTicks": 120,
            "midi": 60,
            "name": "C4",
            "ticks": 144000,
            "time": 153.9332,
            "velocity": 0.7874015748031497
          },
          {
            "duration": 0.12552299999998695,
            "durationTicks": 120,
            "midi": 61,
            "name": "C#4",
            "ticks": 144000,
            "time": 153.9332,
            "velocity": 0.7874015748031497
          },
          {
            "duration": 0.12552299999998695,
            "durationTicks": 120,
            "midi": 60,
            "name": "C4",
            "ticks": 144960,
            "time": 154.937384,
            "velocity": 0.7874015748031497
          },
          {
            "duration": 0.12552300000001537,
            "durationTicks": 120,
            "midi": 60,
            "name": "C4",
            "ticks": 145280,
            "time": 155.272112,
            "velocity": 0.7874015748031497
          },
          {
            "duration": 0.12552299999998695,
            "durationTicks": 120,
            "midi": 61,
            "name": "C#4",
            "ticks": 145440,
            "time": 155.439476,
            "velocity": 0.7874015748031497
          },
          {
            "duration": 0.12604974999999286,
            "durationTicks": 120,
            "midi": 60,
            "name": "C4",
            "ticks": 145920,
            "time": 155.941568,
            "velocity": 0.7874015748031497
          },
          {
            "duration": 0.12604974999999286,
            "durationTicks": 120,
            "midi": 61,
            "name": "C#4",
            "ticks": 145920,
            "time": 155.941568,
            "velocity": 0.7874015748031497
          },
          {
            "duration": 0.12604975000002128,
            "durationTicks": 120,
            "midi": 60,
            "name": "C4",
            "ticks": 146240,
            "time": 156.27770066666665,
            "velocity": 0.7874015748031497
          },
          {
            "duration": 0.12604974999999286,
            "durationTicks": 120,
            "midi": 60,
            "name": "C4",
            "ticks": 146880,
            "time": 156.949966,
            "velocity": 0.7874015748031497
          },
          {
            "duration": 0.12604974999999286,
            "durationTicks": 120,
            "midi": 61,
            "name": "C#4",
            "ticks": 146880,
            "time": 156.949966,
            "velocity": 0.7874015748031497
          },
          {
            "duration": 0.12604975000002128,
            "durationTicks": 120,
            "midi": 60,
            "name": "C4",
            "ticks": 147200,
            "time": 157.28609866666665,
            "velocity": 0.7874015748031497
          },
          {
            "duration": 0.12604975000002128,
            "durationTicks": 120,
            "midi": 61,
            "name": "C#4",
            "ticks": 147200,
            "time": 157.28609866666665,
            "velocity": 0.7874015748031497
          },
          {
            "duration": 0.12604975000002128,
            "durationTicks": 120,
            "midi": 60,
            "name": "C4",
            "ticks": 147680,
            "time": 157.79029766666665,
            "velocity": 0.7874015748031497
          },
          {
            "duration": 0.12604975000002128,
            "durationTicks": 120,
            "midi": 61,
            "name": "C#4",
            "ticks": 147680,
            "time": 157.79029766666665,
            "velocity": 0.7874015748031497
          },
          {
            "duration": 0.12448125000000232,
            "durationTicks": 120,
            "midi": 60,
            "name": "C4",
            "ticks": 148160,
            "time": 158.290314,
            "velocity": 0.7874015748031497
          },
          {
            "duration": 0.12448125000000232,
            "durationTicks": 120,
            "midi": 61,
            "name": "C#4",
            "ticks": 148640,
            "time": 158.78823899999998,
            "velocity": 0.7874015748031497
          },
          {
            "duration": 0.12448125000000232,
            "durationTicks": 120,
            "midi": 60,
            "name": "C4",
            "ticks": 148800,
            "time": 158.95421399999998,
            "velocity": 0.7874015748031497
          },
          {
            "duration": 0.12448125000000232,
            "durationTicks": 120,
            "midi": 61,
            "name": "C#4",
            "ticks": 148800,
            "time": 158.95421399999998,
            "velocity": 0.7874015748031497
          },
          {
            "duration": 0.12448125000000232,
            "durationTicks": 120,
            "midi": 61,
            "name": "C#4",
            "ticks": 149280,
            "time": 159.452139,
            "velocity": 0.7874015748031497
          },
          {
            "duration": 0.12448125000000232,
            "durationTicks": 120,
            "midi": 60,
            "name": "C4",
            "ticks": 149760,
            "time": 159.950064,
            "velocity": 0.7874015748031497
          },
          {
            "duration": 0.12448125000000232,
            "durationTicks": 120,
            "midi": 61,
            "name": "C#4",
            "ticks": 149760,
            "time": 159.950064,
            "velocity": 0.7874015748031497
          },
          {
            "duration": 0.12448125000000232,
            "durationTicks": 120,
            "midi": 60,
            "name": "C4",
            "ticks": 150720,
            "time": 160.945914,
            "velocity": 0.7874015748031497
          },
          {
            "duration": 0.12448125000000232,
            "durationTicks": 120,
            "midi": 61,
            "name": "C#4",
            "ticks": 150720,
            "time": 160.945914,
            "velocity": 0.7874015748031497
          },
          {
            "duration": 0.12448125000000232,
            "durationTicks": 120,
            "midi": 60,
            "name": "C4",
            "ticks": 151040,
            "time": 161.277864,
            "velocity": 0.7874015748031497
          },
          {
            "duration": 0.12448125000000232,
            "durationTicks": 120,
            "midi": 60,
            "name": "C4",
            "ticks": 151200,
            "time": 161.443839,
            "velocity": 0.7874015748031497
          },
          {
            "duration": 0.12448125000000232,
            "durationTicks": 120,
            "midi": 61,
            "name": "C#4",
            "ticks": 151200,
            "time": 161.443839,
            "velocity": 0.7874015748031497
          },
          {
            "duration": 0.12448125000000232,
            "durationTicks": 120,
            "midi": 60,
            "name": "C4",
            "ticks": 151520,
            "time": 161.77578899999997,
            "velocity": 0.7874015748031497
          },
          {
            "duration": 0.12448125000000232,
            "durationTicks": 120,
            "midi": 61,
            "name": "C#4",
            "ticks": 151520,
            "time": 161.77578899999997,
            "velocity": 0.7874015748031497
          },
          {
            "duration": 0.125,
            "durationTicks": 120,
            "midi": 60,
            "name": "C4",
            "ticks": 152160,
            "time": 162.44176399999998,
            "velocity": 0.7874015748031497
          },
          {
            "duration": 0.125,
            "durationTicks": 120,
            "midi": 60,
            "name": "C4",
            "ticks": 152480,
            "time": 162.77509733333332,
            "velocity": 0.7874015748031497
          },
          {
            "duration": 0.125,
            "durationTicks": 120,
            "midi": 60,
            "name": "C4",
            "ticks": 152960,
            "time": 163.27509733333332,
            "velocity": 0.7874015748031497
          },
          {
            "duration": 0.125,
            "durationTicks": 120,
            "midi": 60,
            "name": "C4",
            "ticks": 153120,
            "time": 163.44176399999998,
            "velocity": 0.7874015748031497
          },
          {
            "duration": 0.125,
            "durationTicks": 120,
            "midi": 61,
            "name": "C#4",
            "ticks": 153120,
            "time": 163.44176399999998,
            "velocity": 0.7874015748031497
          },
          {
            "duration": 0.125,
            "durationTicks": 120,
            "midi": 60,
            "name": "C4",
            "ticks": 153440,
            "time": 163.77509733333332,
            "velocity": 0.7874015748031497
          },
          {
            "duration": 0.125,
            "durationTicks": 120,
            "midi": 61,
            "name": "C#4",
            "ticks": 153440,
            "time": 163.77509733333332,
            "velocity": 0.7874015748031497
          },
          {
            "duration": 0.125,
            "durationTicks": 120,
            "midi": 60,
            "name": "C4",
            "ticks": 154080,
            "time": 164.44176399999998,
            "velocity": 0.7874015748031497
          },
          {
            "duration": 0.125,
            "durationTicks": 120,
            "midi": 60,
            "name": "C4",
            "ticks": 154400,
            "time": 164.77509733333332,
            "velocity": 0.7874015748031497
          },
          {
            "duration": 0.125,
            "durationTicks": 120,
            "midi": 60,
            "name": "C4",
            "ticks": 154880,
            "time": 165.27509733333332,
            "velocity": 0.7874015748031497
          },
          {
            "duration": 0.125,
            "durationTicks": 120,
            "midi": 60,
            "name": "C4",
            "ticks": 155040,
            "time": 165.44176399999998,
            "velocity": 0.7874015748031497
          },
          {
            "duration": 0.125,
            "durationTicks": 120,
            "midi": 61,
            "name": "C#4",
            "ticks": 155040,
            "time": 165.44176399999998,
            "velocity": 0.7874015748031497
          },
          {
            "duration": 0.125,
            "durationTicks": 120,
            "midi": 60,
            "name": "C4",
            "ticks": 155360,
            "time": 165.77509733333332,
            "velocity": 0.7874015748031497
          },
          {
            "duration": 0.125,
            "durationTicks": 120,
            "midi": 61,
            "name": "C#4",
            "ticks": 155360,
            "time": 165.77509733333332,
            "velocity": 0.7874015748031497
          },
          {
            "duration": 0.12448125000000232,
            "durationTicks": 120,
            "midi": 60,
            "name": "C4",
            "ticks": 156000,
            "time": 166.439689,
            "velocity": 0.7874015748031497
          },
          {
            "duration": 0.12448125000000232,
            "durationTicks": 120,
            "midi": 60,
            "name": "C4",
            "ticks": 156320,
            "time": 166.77163899999996,
            "velocity": 0.7874015748031497
          },
          {
            "duration": 0.12448125000000232,
            "durationTicks": 120,
            "midi": 60,
            "name": "C4",
            "ticks": 156800,
            "time": 167.26956399999997,
            "velocity": 0.7874015748031497
          },
          {
            "duration": 0.12448125000000232,
            "durationTicks": 120,
            "midi": 60,
            "name": "C4",
            "ticks": 156960,
            "time": 167.43553899999998,
            "velocity": 0.7874015748031497
          },
          {
            "duration": 0.12448125000000232,
            "durationTicks": 120,
            "midi": 61,
            "name": "C#4",
            "ticks": 156960,
            "time": 167.43553899999998,
            "velocity": 0.7874015748031497
          },
          {
            "duration": 0.12448125000000232,
            "durationTicks": 120,
            "midi": 60,
            "name": "C4",
            "ticks": 157280,
            "time": 167.76748899999998,
            "velocity": 0.7874015748031497
          },
          {
            "duration": 0.12448125000000232,
            "durationTicks": 120,
            "midi": 61,
            "name": "C#4",
            "ticks": 157280,
            "time": 167.76748899999998,
            "velocity": 0.7874015748031497
          },
          {
            "duration": 0.12396674999999391,
            "durationTicks": 120,
            "midi": 60,
            "name": "C4",
            "ticks": 157920,
            "time": 168.429331,
            "velocity": 0.7874015748031497
          },
          {
            "duration": 0.12396674999999391,
            "durationTicks": 120,
            "midi": 60,
            "name": "C4",
            "ticks": 158240,
            "time": 168.759909,
            "velocity": 0.7874015748031497
          },
          {
            "duration": 0.12396674999999391,
            "durationTicks": 120,
            "midi": 60,
            "name": "C4",
            "ticks": 158720,
            "time": 169.255776,
            "velocity": 0.7874015748031497
          },
          {
            "duration": 0.12396674999999391,
            "durationTicks": 120,
            "midi": 60,
            "name": "C4",
            "ticks": 158880,
            "time": 169.421065,
            "velocity": 0.7874015748031497
          },
          {
            "duration": 0.12396674999999391,
            "durationTicks": 120,
            "midi": 61,
            "name": "C#4",
            "ticks": 158880,
            "time": 169.421065,
            "velocity": 0.7874015748031497
          },
          {
            "duration": 0.12396675000002233,
            "durationTicks": 120,
            "midi": 60,
            "name": "C4",
            "ticks": 159200,
            "time": 169.75164299999997,
            "velocity": 0.7874015748031497
          },
          {
            "duration": 0.12396675000002233,
            "durationTicks": 120,
            "midi": 61,
            "name": "C#4",
            "ticks": 159200,
            "time": 169.75164299999997,
            "velocity": 0.7874015748031497
          },
          {
            "duration": 0.12448125000000232,
            "durationTicks": 120,
            "midi": 60,
            "name": "C4",
            "ticks": 159840,
            "time": 170.41485699999998,
            "velocity": 0.7874015748031497
          },
          {
            "duration": 0.12448125000000232,
            "durationTicks": 120,
            "midi": 60,
            "name": "C4",
            "ticks": 160160,
            "time": 170.74680699999996,
            "velocity": 0.7874015748031497
          },
          {
            "duration": 0.12448125000000232,
            "durationTicks": 120,
            "midi": 60,
            "name": "C4",
            "ticks": 160640,
            "time": 171.24473199999997,
            "velocity": 0.7874015748031497
          },
          {
            "duration": 0.12448125000000232,
            "durationTicks": 120,
            "midi": 60,
            "name": "C4",
            "ticks": 160800,
            "time": 171.41070699999997,
            "velocity": 0.7874015748031497
          },
          {
            "duration": 0.12448125000000232,
            "durationTicks": 120,
            "midi": 61,
            "name": "C#4",
            "ticks": 160800,
            "time": 171.41070699999997,
            "velocity": 0.7874015748031497
          },
          {
            "duration": 0.12448125000000232,
            "durationTicks": 120,
            "midi": 60,
            "name": "C4",
            "ticks": 161120,
            "time": 171.74265699999998,
            "velocity": 0.7874015748031497
          },
          {
            "duration": 0.12448125000000232,
            "durationTicks": 120,
            "midi": 61,
            "name": "C#4",
            "ticks": 161120,
            "time": 171.74265699999998,
            "velocity": 0.7874015748031497
          },
          {
            "duration": 0.125,
            "durationTicks": 120,
            "midi": 60,
            "name": "C4",
            "ticks": 161760,
            "time": 172.40863199999998,
            "velocity": 0.7874015748031497
          },
          {
            "duration": 0.125,
            "durationTicks": 120,
            "midi": 60,
            "name": "C4",
            "ticks": 162080,
            "time": 172.74196533333333,
            "velocity": 0.7874015748031497
          },
          {
            "duration": 0.125,
            "durationTicks": 120,
            "midi": 60,
            "name": "C4",
            "ticks": 162560,
            "time": 173.24196533333333,
            "velocity": 0.7874015748031497
          },
          {
            "duration": 0.125,
            "durationTicks": 120,
            "midi": 60,
            "name": "C4",
            "ticks": 162720,
            "time": 173.40863199999998,
            "velocity": 0.7874015748031497
          },
          {
            "duration": 0.125,
            "durationTicks": 120,
            "midi": 61,
            "name": "C#4",
            "ticks": 162720,
            "time": 173.40863199999998,
            "velocity": 0.7874015748031497
          },
          {
            "duration": 0.125,
            "durationTicks": 120,
            "midi": 60,
            "name": "C4",
            "ticks": 163040,
            "time": 173.74196533333333,
            "velocity": 0.7874015748031497
          },
          {
            "duration": 0.125,
            "durationTicks": 120,
            "midi": 61,
            "name": "C#4",
            "ticks": 163040,
            "time": 173.74196533333333,
            "velocity": 0.7874015748031497
          },
          {
            "duration": 0.125,
            "durationTicks": 120,
            "midi": 60,
            "name": "C4",
            "ticks": 163680,
            "time": 174.40863199999998,
            "velocity": 0.7874015748031497
          },
          {
            "duration": 0.125,
            "durationTicks": 120,
            "midi": 60,
            "name": "C4",
            "ticks": 164000,
            "time": 174.74196533333333,
            "velocity": 0.7874015748031497
          },
          {
            "duration": 0.125,
            "durationTicks": 120,
            "midi": 60,
            "name": "C4",
            "ticks": 164480,
            "time": 175.24196533333333,
            "velocity": 0.7874015748031497
          },
          {
            "duration": 0.125,
            "durationTicks": 120,
            "midi": 60,
            "name": "C4",
            "ticks": 164640,
            "time": 175.40863199999998,
            "velocity": 0.7874015748031497
          },
          {
            "duration": 0.125,
            "durationTicks": 120,
            "midi": 61,
            "name": "C#4",
            "ticks": 164640,
            "time": 175.40863199999998,
            "velocity": 0.7874015748031497
          },
          {
            "duration": 0.125,
            "durationTicks": 120,
            "midi": 60,
            "name": "C4",
            "ticks": 164960,
            "time": 175.74196533333333,
            "velocity": 0.7874015748031497
          },
          {
            "duration": 0.125,
            "durationTicks": 120,
            "midi": 61,
            "name": "C#4",
            "ticks": 164960,
            "time": 175.74196533333333,
            "velocity": 0.7874015748031497
          },
          {
            "duration": 0.125,
            "durationTicks": 120,
            "midi": 60,
            "name": "C4",
            "ticks": 165600,
            "time": 176.40863199999998,
            "velocity": 0.7874015748031497
          },
          {
            "duration": 0.125,
            "durationTicks": 120,
            "midi": 60,
            "name": "C4",
            "ticks": 165920,
            "time": 176.74196533333333,
            "velocity": 0.7874015748031497
          },
          {
            "duration": 0.125,
            "durationTicks": 120,
            "midi": 60,
            "name": "C4",
            "ticks": 166400,
            "time": 177.24196533333333,
            "velocity": 0.7874015748031497
          },
          {
            "duration": 0.125,
            "durationTicks": 120,
            "midi": 60,
            "name": "C4",
            "ticks": 166560,
            "time": 177.40863199999998,
            "velocity": 0.7874015748031497
          },
          {
            "duration": 0.125,
            "durationTicks": 120,
            "midi": 61,
            "name": "C#4",
            "ticks": 166560,
            "time": 177.40863199999998,
            "velocity": 0.7874015748031497
          },
          {
            "duration": 0.125,
            "durationTicks": 120,
            "midi": 60,
            "name": "C4",
            "ticks": 166880,
            "time": 177.74196533333333,
            "velocity": 0.7874015748031497
          },
          {
            "duration": 0.125,
            "durationTicks": 120,
            "midi": 61,
            "name": "C#4",
            "ticks": 166880,
            "time": 177.74196533333333,
            "velocity": 0.7874015748031497
          },
          {
            "duration": 0.12552299999998695,
            "durationTicks": 120,
            "midi": 60,
            "name": "C4",
            "ticks": 167520,
            "time": 178.410724,
            "velocity": 0.7874015748031497
          },
          {
            "duration": 0.12552300000001537,
            "durationTicks": 120,
            "midi": 60,
            "name": "C4",
            "ticks": 167840,
            "time": 178.74545199999997,
            "velocity": 0.7874015748031497
          },
          {
            "duration": 0.12552300000001537,
            "durationTicks": 120,
            "midi": 60,
            "name": "C4",
            "ticks": 168320,
            "time": 179.24754399999998,
            "velocity": 0.7874015748031497
          },
          {
            "duration": 0.12552299999998695,
            "durationTicks": 120,
            "midi": 60,
            "name": "C4",
            "ticks": 168480,
            "time": 179.414908,
            "velocity": 0.7874015748031497
          },
          {
            "duration": 0.12552299999998695,
            "durationTicks": 120,
            "midi": 61,
            "name": "C#4",
            "ticks": 168480,
            "time": 179.414908,
            "velocity": 0.7874015748031497
          },
          {
            "duration": 0.12552300000001537,
            "durationTicks": 120,
            "midi": 60,
            "name": "C4",
            "ticks": 168800,
            "time": 179.74963599999998,
            "velocity": 0.7874015748031497
          },
          {
            "duration": 0.12552300000001537,
            "durationTicks": 120,
            "midi": 61,
            "name": "C#4",
            "ticks": 168800,
            "time": 179.74963599999998,
            "velocity": 0.7874015748031497
          },
          {
            "duration": 0.12552300000001537,
            "durationTicks": 120,
            "midi": 60,
            "name": "C4",
            "ticks": 169440,
            "time": 180.41909199999998,
            "velocity": 0.7874015748031497
          },
          {
            "duration": 0.12552299999998695,
            "durationTicks": 120,
            "midi": 60,
            "name": "C4",
            "ticks": 169760,
            "time": 180.75382,
            "velocity": 0.7874015748031497
          },
          {
            "duration": 0.12552299999998695,
            "durationTicks": 120,
            "midi": 60,
            "name": "C4",
            "ticks": 170240,
            "time": 181.255912,
            "velocity": 0.7874015748031497
          },
          {
            "duration": 0.12552299999998695,
            "durationTicks": 120,
            "midi": 60,
            "name": "C4",
            "ticks": 170400,
            "time": 181.423276,
            "velocity": 0.7874015748031497
          },
          {
            "duration": 0.12552299999998695,
            "durationTicks": 120,
            "midi": 61,
            "name": "C#4",
            "ticks": 170400,
            "time": 181.423276,
            "velocity": 0.7874015748031497
          },
          {
            "duration": 0.12552300000001537,
            "durationTicks": 120,
            "midi": 60,
            "name": "C4",
            "ticks": 170720,
            "time": 181.75800399999997,
            "velocity": 0.7874015748031497
          },
          {
            "duration": 0.12552300000001537,
            "durationTicks": 120,
            "midi": 61,
            "name": "C#4",
            "ticks": 170720,
            "time": 181.75800399999997,
            "velocity": 0.7874015748031497
          }
        ]
      }
    ]
  }